<?xml version="1.0" encoding="utf-8" standalone="no"?>
<!DOCTYPE svg PUBLIC "-//W3C//DTD SVG 1.1//EN"
  "http://www.w3.org/Graphics/SVG/1.1/DTD/svg11.dtd">
<svg xmlns:xlink="http://www.w3.org/1999/xlink" width="394.153551pt" height="273.221328pt" viewBox="0 0 394.153551 273.221328" xmlns="http://www.w3.org/2000/svg" version="1.1">
 <metadata>
  <rdf:RDF xmlns:dc="http://purl.org/dc/elements/1.1/" xmlns:cc="http://creativecommons.org/ns#" xmlns:rdf="http://www.w3.org/1999/02/22-rdf-syntax-ns#">
   <cc:Work>
    <dc:type rdf:resource="http://purl.org/dc/dcmitype/StillImage"/>
    <dc:date>2026-02-16T17:27:06.299911</dc:date>
    <dc:format>image/svg+xml</dc:format>
    <dc:creator>
     <cc:Agent>
      <dc:title>Matplotlib v3.6.3, https://matplotlib.org/</dc:title>
     </cc:Agent>
    </dc:creator>
   </cc:Work>
  </rdf:RDF>
 </metadata>
 <defs>
  <style type="text/css">*{stroke-linejoin: round; stroke-linecap: butt}</style>
 </defs>
 <g id="figure_1">
  <g id="patch_1">
   <path d="M 0 273.221328 
L 394.153551 273.221328 
L 394.153551 0 
L 0 0 
L 0 273.221328 
z
" style="fill: none"/>
  </g>
  <g id="axes_1">
   <g id="patch_2">
    <path d="M 52.153551 107.250419 
L 204.335369 107.250419 
L 204.335369 8.414056 
L 52.153551 8.414056 
z
" style="fill: #ffffff"/>
   </g>
   <g id="matplotlib.axis_1">
    <g id="xtick_1">
     <g id="line2d_1">
      <defs>
       <path id="m1ee0a006df" d="M 0 0 
L 0 3.5 
" style="stroke: #000000; stroke-width: 0.8"/>
      </defs>
      <g>
       <use xlink:href="#m1ee0a006df" x="93.657683" y="107.250419" style="stroke: #000000; stroke-width: 0.8"/>
      </g>
     </g>
    </g>
    <g id="xtick_2">
     <g id="line2d_2">
      <g>
       <use xlink:href="#m1ee0a006df" x="162.831237" y="107.250419" style="stroke: #000000; stroke-width: 0.8"/>
      </g>
     </g>
    </g>
   </g>
   <g id="matplotlib.axis_2">
    <g id="ytick_1">
     <g id="line2d_3">
      <defs>
       <path id="m9645ea85ab" d="M 0 0 
L -3.5 0 
" style="stroke: #000000; stroke-width: 0.8"/>
      </defs>
      <g>
       <use xlink:href="#m9645ea85ab" x="52.153551" y="102.757906" style="stroke: #000000; stroke-width: 0.8"/>
      </g>
     </g>
     <g id="text_1">
      <!-- 0.0 -->
      <g transform="translate(21.298864 108.456734) scale(0.15 -0.15)">
       <defs>
        <path id="DejaVuSans-30" d="M 2034 4250 
Q 1547 4250 1301 3770 
Q 1056 3291 1056 2328 
Q 1056 1369 1301 889 
Q 1547 409 2034 409 
Q 2525 409 2770 889 
Q 3016 1369 3016 2328 
Q 3016 3291 2770 3770 
Q 2525 4250 2034 4250 
z
M 2034 4750 
Q 2819 4750 3233 4129 
Q 3647 3509 3647 2328 
Q 3647 1150 3233 529 
Q 2819 -91 2034 -91 
Q 1250 -91 836 529 
Q 422 1150 422 2328 
Q 422 3509 836 4129 
Q 1250 4750 2034 4750 
z
" transform="scale(0.015625)"/>
        <path id="DejaVuSans-2e" d="M 684 794 
L 1344 794 
L 1344 0 
L 684 0 
L 684 794 
z
" transform="scale(0.015625)"/>
       </defs>
       <use xlink:href="#DejaVuSans-30"/>
       <use xlink:href="#DejaVuSans-2e" x="63.623047"/>
       <use xlink:href="#DejaVuSans-30" x="95.410156"/>
      </g>
     </g>
    </g>
    <g id="ytick_2">
     <g id="line2d_4">
      <g>
       <use xlink:href="#m9645ea85ab" x="52.153551" y="57.828367" style="stroke: #000000; stroke-width: 0.8"/>
      </g>
     </g>
     <g id="text_2">
      <!-- 0.5 -->
      <g transform="translate(21.298864 63.527195) scale(0.15 -0.15)">
       <defs>
        <path id="DejaVuSans-35" d="M 691 4666 
L 3169 4666 
L 3169 4134 
L 1269 4134 
L 1269 2991 
Q 1406 3038 1543 3061 
Q 1681 3084 1819 3084 
Q 2600 3084 3056 2656 
Q 3513 2228 3513 1497 
Q 3513 744 3044 326 
Q 2575 -91 1722 -91 
Q 1428 -91 1123 -41 
Q 819 9 494 109 
L 494 744 
Q 775 591 1075 516 
Q 1375 441 1709 441 
Q 2250 441 2565 725 
Q 2881 1009 2881 1497 
Q 2881 1984 2565 2268 
Q 2250 2553 1709 2553 
Q 1456 2553 1204 2497 
Q 953 2441 691 2322 
L 691 4666 
z
" transform="scale(0.015625)"/>
       </defs>
       <use xlink:href="#DejaVuSans-30"/>
       <use xlink:href="#DejaVuSans-2e" x="63.623047"/>
       <use xlink:href="#DejaVuSans-35" x="95.410156"/>
      </g>
     </g>
    </g>
    <g id="ytick_3">
     <g id="line2d_5">
      <g>
       <use xlink:href="#m9645ea85ab" x="52.153551" y="12.898828" style="stroke: #000000; stroke-width: 0.8"/>
      </g>
     </g>
     <g id="text_3">
      <!-- 1.0 -->
      <g transform="translate(21.298864 18.597656) scale(0.15 -0.15)">
       <defs>
        <path id="DejaVuSans-31" d="M 794 531 
L 1825 531 
L 1825 4091 
L 703 3866 
L 703 4441 
L 1819 4666 
L 2450 4666 
L 2450 531 
L 3481 531 
L 3481 0 
L 794 0 
L 794 531 
z
" transform="scale(0.015625)"/>
       </defs>
       <use xlink:href="#DejaVuSans-31"/>
       <use xlink:href="#DejaVuSans-2e" x="63.623047"/>
       <use xlink:href="#DejaVuSans-30" x="95.410156"/>
      </g>
     </g>
    </g>
    <g id="text_4">
     <!-- Success Probabilities -->
     <g transform="translate(18.597656 205.402067) rotate(-90) scale(0.15 -0.15)">
      <defs>
       <path id="DejaVuSans-53" d="M 3425 4513 
L 3425 3897 
Q 3066 4069 2747 4153 
Q 2428 4238 2131 4238 
Q 1616 4238 1336 4038 
Q 1056 3838 1056 3469 
Q 1056 3159 1242 3001 
Q 1428 2844 1947 2747 
L 2328 2669 
Q 3034 2534 3370 2195 
Q 3706 1856 3706 1288 
Q 3706 609 3251 259 
Q 2797 -91 1919 -91 
Q 1588 -91 1214 -16 
Q 841 59 441 206 
L 441 856 
Q 825 641 1194 531 
Q 1563 422 1919 422 
Q 2459 422 2753 634 
Q 3047 847 3047 1241 
Q 3047 1584 2836 1778 
Q 2625 1972 2144 2069 
L 1759 2144 
Q 1053 2284 737 2584 
Q 422 2884 422 3419 
Q 422 4038 858 4394 
Q 1294 4750 2059 4750 
Q 2388 4750 2728 4690 
Q 3069 4631 3425 4513 
z
" transform="scale(0.015625)"/>
       <path id="DejaVuSans-75" d="M 544 1381 
L 544 3500 
L 1119 3500 
L 1119 1403 
Q 1119 906 1312 657 
Q 1506 409 1894 409 
Q 2359 409 2629 706 
Q 2900 1003 2900 1516 
L 2900 3500 
L 3475 3500 
L 3475 0 
L 2900 0 
L 2900 538 
Q 2691 219 2414 64 
Q 2138 -91 1772 -91 
Q 1169 -91 856 284 
Q 544 659 544 1381 
z
M 1991 3584 
L 1991 3584 
z
" transform="scale(0.015625)"/>
       <path id="DejaVuSans-63" d="M 3122 3366 
L 3122 2828 
Q 2878 2963 2633 3030 
Q 2388 3097 2138 3097 
Q 1578 3097 1268 2742 
Q 959 2388 959 1747 
Q 959 1106 1268 751 
Q 1578 397 2138 397 
Q 2388 397 2633 464 
Q 2878 531 3122 666 
L 3122 134 
Q 2881 22 2623 -34 
Q 2366 -91 2075 -91 
Q 1284 -91 818 406 
Q 353 903 353 1747 
Q 353 2603 823 3093 
Q 1294 3584 2113 3584 
Q 2378 3584 2631 3529 
Q 2884 3475 3122 3366 
z
" transform="scale(0.015625)"/>
       <path id="DejaVuSans-65" d="M 3597 1894 
L 3597 1613 
L 953 1613 
Q 991 1019 1311 708 
Q 1631 397 2203 397 
Q 2534 397 2845 478 
Q 3156 559 3463 722 
L 3463 178 
Q 3153 47 2828 -22 
Q 2503 -91 2169 -91 
Q 1331 -91 842 396 
Q 353 884 353 1716 
Q 353 2575 817 3079 
Q 1281 3584 2069 3584 
Q 2775 3584 3186 3129 
Q 3597 2675 3597 1894 
z
M 3022 2063 
Q 3016 2534 2758 2815 
Q 2500 3097 2075 3097 
Q 1594 3097 1305 2825 
Q 1016 2553 972 2059 
L 3022 2063 
z
" transform="scale(0.015625)"/>
       <path id="DejaVuSans-73" d="M 2834 3397 
L 2834 2853 
Q 2591 2978 2328 3040 
Q 2066 3103 1784 3103 
Q 1356 3103 1142 2972 
Q 928 2841 928 2578 
Q 928 2378 1081 2264 
Q 1234 2150 1697 2047 
L 1894 2003 
Q 2506 1872 2764 1633 
Q 3022 1394 3022 966 
Q 3022 478 2636 193 
Q 2250 -91 1575 -91 
Q 1294 -91 989 -36 
Q 684 19 347 128 
L 347 722 
Q 666 556 975 473 
Q 1284 391 1588 391 
Q 1994 391 2212 530 
Q 2431 669 2431 922 
Q 2431 1156 2273 1281 
Q 2116 1406 1581 1522 
L 1381 1569 
Q 847 1681 609 1914 
Q 372 2147 372 2553 
Q 372 3047 722 3315 
Q 1072 3584 1716 3584 
Q 2034 3584 2315 3537 
Q 2597 3491 2834 3397 
z
" transform="scale(0.015625)"/>
       <path id="DejaVuSans-20" transform="scale(0.015625)"/>
       <path id="DejaVuSans-50" d="M 1259 4147 
L 1259 2394 
L 2053 2394 
Q 2494 2394 2734 2622 
Q 2975 2850 2975 3272 
Q 2975 3691 2734 3919 
Q 2494 4147 2053 4147 
L 1259 4147 
z
M 628 4666 
L 2053 4666 
Q 2838 4666 3239 4311 
Q 3641 3956 3641 3272 
Q 3641 2581 3239 2228 
Q 2838 1875 2053 1875 
L 1259 1875 
L 1259 0 
L 628 0 
L 628 4666 
z
" transform="scale(0.015625)"/>
       <path id="DejaVuSans-72" d="M 2631 2963 
Q 2534 3019 2420 3045 
Q 2306 3072 2169 3072 
Q 1681 3072 1420 2755 
Q 1159 2438 1159 1844 
L 1159 0 
L 581 0 
L 581 3500 
L 1159 3500 
L 1159 2956 
Q 1341 3275 1631 3429 
Q 1922 3584 2338 3584 
Q 2397 3584 2469 3576 
Q 2541 3569 2628 3553 
L 2631 2963 
z
" transform="scale(0.015625)"/>
       <path id="DejaVuSans-6f" d="M 1959 3097 
Q 1497 3097 1228 2736 
Q 959 2375 959 1747 
Q 959 1119 1226 758 
Q 1494 397 1959 397 
Q 2419 397 2687 759 
Q 2956 1122 2956 1747 
Q 2956 2369 2687 2733 
Q 2419 3097 1959 3097 
z
M 1959 3584 
Q 2709 3584 3137 3096 
Q 3566 2609 3566 1747 
Q 3566 888 3137 398 
Q 2709 -91 1959 -91 
Q 1206 -91 779 398 
Q 353 888 353 1747 
Q 353 2609 779 3096 
Q 1206 3584 1959 3584 
z
" transform="scale(0.015625)"/>
       <path id="DejaVuSans-62" d="M 3116 1747 
Q 3116 2381 2855 2742 
Q 2594 3103 2138 3103 
Q 1681 3103 1420 2742 
Q 1159 2381 1159 1747 
Q 1159 1113 1420 752 
Q 1681 391 2138 391 
Q 2594 391 2855 752 
Q 3116 1113 3116 1747 
z
M 1159 2969 
Q 1341 3281 1617 3432 
Q 1894 3584 2278 3584 
Q 2916 3584 3314 3078 
Q 3713 2572 3713 1747 
Q 3713 922 3314 415 
Q 2916 -91 2278 -91 
Q 1894 -91 1617 61 
Q 1341 213 1159 525 
L 1159 0 
L 581 0 
L 581 4863 
L 1159 4863 
L 1159 2969 
z
" transform="scale(0.015625)"/>
       <path id="DejaVuSans-61" d="M 2194 1759 
Q 1497 1759 1228 1600 
Q 959 1441 959 1056 
Q 959 750 1161 570 
Q 1363 391 1709 391 
Q 2188 391 2477 730 
Q 2766 1069 2766 1631 
L 2766 1759 
L 2194 1759 
z
M 3341 1997 
L 3341 0 
L 2766 0 
L 2766 531 
Q 2569 213 2275 61 
Q 1981 -91 1556 -91 
Q 1019 -91 701 211 
Q 384 513 384 1019 
Q 384 1609 779 1909 
Q 1175 2209 1959 2209 
L 2766 2209 
L 2766 2266 
Q 2766 2663 2505 2880 
Q 2244 3097 1772 3097 
Q 1472 3097 1187 3025 
Q 903 2953 641 2809 
L 641 3341 
Q 956 3463 1253 3523 
Q 1550 3584 1831 3584 
Q 2591 3584 2966 3190 
Q 3341 2797 3341 1997 
z
" transform="scale(0.015625)"/>
       <path id="DejaVuSans-69" d="M 603 3500 
L 1178 3500 
L 1178 0 
L 603 0 
L 603 3500 
z
M 603 4863 
L 1178 4863 
L 1178 4134 
L 603 4134 
L 603 4863 
z
" transform="scale(0.015625)"/>
       <path id="DejaVuSans-6c" d="M 603 4863 
L 1178 4863 
L 1178 0 
L 603 0 
L 603 4863 
z
" transform="scale(0.015625)"/>
       <path id="DejaVuSans-74" d="M 1172 4494 
L 1172 3500 
L 2356 3500 
L 2356 3053 
L 1172 3053 
L 1172 1153 
Q 1172 725 1289 603 
Q 1406 481 1766 481 
L 2356 481 
L 2356 0 
L 1766 0 
Q 1100 0 847 248 
Q 594 497 594 1153 
L 594 3053 
L 172 3053 
L 172 3500 
L 594 3500 
L 594 4494 
L 1172 4494 
z
" transform="scale(0.015625)"/>
      </defs>
      <use xlink:href="#DejaVuSans-53"/>
      <use xlink:href="#DejaVuSans-75" x="63.476562"/>
      <use xlink:href="#DejaVuSans-63" x="126.855469"/>
      <use xlink:href="#DejaVuSans-63" x="181.835938"/>
      <use xlink:href="#DejaVuSans-65" x="236.816406"/>
      <use xlink:href="#DejaVuSans-73" x="298.339844"/>
      <use xlink:href="#DejaVuSans-73" x="350.439453"/>
      <use xlink:href="#DejaVuSans-20" x="402.539062"/>
      <use xlink:href="#DejaVuSans-50" x="434.326172"/>
      <use xlink:href="#DejaVuSans-72" x="492.878906"/>
      <use xlink:href="#DejaVuSans-6f" x="531.742188"/>
      <use xlink:href="#DejaVuSans-62" x="592.923828"/>
      <use xlink:href="#DejaVuSans-61" x="656.400391"/>
      <use xlink:href="#DejaVuSans-62" x="717.679688"/>
      <use xlink:href="#DejaVuSans-69" x="781.15625"/>
      <use xlink:href="#DejaVuSans-6c" x="808.939453"/>
      <use xlink:href="#DejaVuSans-69" x="836.722656"/>
      <use xlink:href="#DejaVuSans-74" x="864.505859"/>
      <use xlink:href="#DejaVuSans-69" x="903.714844"/>
      <use xlink:href="#DejaVuSans-65" x="931.498047"/>
      <use xlink:href="#DejaVuSans-73" x="993.021484"/>
     </g>
    </g>
   </g>
   <g id="line2d_6">
    <path d="M 59.070907 102.755776 
L 69.49908 102.635839 
L 72.279927 102.412337 
L 74.365562 102.018858 
L 75.755985 101.546761 
L 77.146408 100.798381 
L 78.536831 99.636582 
L 79.232043 98.845464 
L 79.927254 97.879381 
L 80.622466 96.709759 
L 81.317678 95.307428 
L 82.708101 91.69744 
L 84.098524 86.899961 
L 85.488947 80.976931 
L 88.269794 68.179891 
L 88.965005 65.701635 
L 89.660217 63.946706 
L 90.355428 63.132614 
L 91.05064 63.424379 
L 91.745851 64.889914 
L 92.441063 67.456133 
L 93.831486 74.733762 
L 94.526698 78.467635 
L 95.221909 81.478878 
L 95.917121 83.262271 
L 96.612333 83.567632 
L 97.307544 82.531277 
L 98.697967 79.012586 
L 99.393179 78.378509 
L 100.088391 79.501799 
L 100.783602 82.495807 
L 102.869237 94.920426 
L 103.564449 96.772009 
L 104.25966 96.699901 
L 104.954872 95.17019 
L 105.650083 93.109559 
L 106.345295 91.629966 
L 107.040507 91.656049 
L 107.735718 93.432832 
L 108.43093 96.16502 
L 109.126141 98.295685 
L 109.821353 98.538297 
L 110.516565 96.81596 
L 112.602199 88.201881 
L 113.297411 86.646305 
L 113.992623 87.805502 
L 116.078257 98.922266 
L 116.773469 99.884278 
L 117.468681 99.728916 
L 118.163892 99.138309 
L 118.859104 99.036758 
L 119.554315 100.560348 
L 120.249527 102.384581 
L 120.944738 102.609931 
L 121.63995 101.725381 
L 122.335162 99.881153 
L 123.030373 95.339769 
L 123.725585 87.811345 
L 124.420796 90.516223 
L 125.116008 97.772683 
L 125.81122 101.732164 
L 126.506431 102.152829 
L 127.896854 100.167818 
L 128.592066 102.266131 
L 129.287278 100.87769 
L 129.982489 98.095185 
L 130.677701 100.225899 
L 131.372912 100.863502 
L 132.763336 102.753254 
L 133.458547 99.322078 
L 134.153759 93.743875 
L 134.84897 98.097109 
L 135.544182 100.858782 
L 136.239394 100.409362 
L 136.934605 102.086079 
L 137.629817 100.775021 
L 138.325028 102.243972 
L 139.02024 101.21318 
L 139.715452 102.736683 
L 140.410663 95.88774 
L 141.105875 100.922459 
L 141.801086 102.307325 
L 142.496298 102.727876 
L 143.19151 99.746439 
L 143.886721 101.717202 
L 144.581933 102.058406 
L 145.277144 100.192388 
L 145.972356 95.642691 
L 146.667567 102.514471 
L 148.753202 98.209272 
L 149.448414 100.011138 
L 150.143625 99.276384 
L 150.838837 102.070612 
L 151.534049 98.735507 
L 152.22926 98.513464 
L 152.924472 102.098387 
L 153.619683 102.273474 
L 154.314895 102.753113 
L 155.010107 101.901 
L 155.705318 102.274319 
L 156.40053 100.881418 
L 157.095741 99.98973 
L 157.790953 101.347342 
L 158.486165 96.89686 
L 159.181376 100.384789 
L 159.876588 101.703301 
L 160.571799 99.302044 
L 161.267011 99.579961 
L 161.962223 102.546525 
L 162.657434 95.603228 
L 163.352646 102.444479 
L 164.047857 99.861283 
L 164.743069 100.643298 
L 165.438281 100.491992 
L 166.133492 101.942835 
L 166.828704 102.461991 
L 167.523915 93.939641 
L 168.219127 102.162647 
L 168.914339 99.131434 
L 169.60955 102.571456 
L 170.304762 101.014157 
L 170.999973 100.890013 
L 171.695185 98.644966 
L 172.390397 101.332732 
L 173.085608 102.218674 
L 173.78082 99.013842 
L 174.476031 101.798397 
L 175.171243 100.805827 
L 175.866454 102.633881 
L 176.561666 101.045281 
L 177.256878 101.502559 
L 177.952089 102.653977 
L 178.647301 102.332949 
L 179.342512 101.715203 
L 180.037724 102.149776 
L 180.732936 99.130296 
L 181.428147 101.935334 
L 182.123359 98.397673 
L 182.81857 97.383573 
L 183.513782 95.065469 
L 184.208994 98.420355 
L 184.904205 100.965024 
L 185.599417 98.795861 
L 186.294628 102.563548 
L 186.98984 98.87902 
L 187.685052 102.646461 
L 188.380263 99.145876 
L 189.075475 102.312848 
L 189.770686 98.172921 
L 190.465898 94.914956 
L 191.16111 100.94715 
L 191.856321 99.25318 
L 192.551533 102.257644 
L 193.246744 102.502962 
L 193.941956 101.449197 
L 194.637168 97.54103 
L 195.332379 100.975393 
L 196.027591 98.835799 
L 196.722802 99.712666 
L 197.418014 101.903542 
L 197.418014 101.903542 
" clip-path="url(#pae5e869547)" style="fill: none; stroke: #1f77b4; stroke-width: 1.5; stroke-linecap: square"/>
   </g>
   <g id="line2d_7">
    <path d="M 59.070907 102.755775 
L 69.49908 102.63564 
L 72.279927 102.411539 
L 74.365562 102.016672 
L 75.755985 101.542574 
L 77.146408 100.790552 
L 78.536831 99.622397 
L 79.232043 98.826653 
L 79.927254 97.854744 
L 80.622466 96.677964 
L 81.317678 95.267129 
L 82.708101 91.63729 
L 84.098524 86.823605 
L 85.488947 80.912254 
L 88.269794 68.500214 
L 88.965005 66.288185 
L 89.660217 64.911465 
L 90.355428 64.607819 
L 91.05064 65.552918 
L 91.745851 67.806565 
L 92.441063 71.257713 
L 94.526698 84.47871 
L 95.221909 87.519698 
L 95.917121 88.657802 
L 96.612333 87.514939 
L 97.307544 84.226536 
L 98.697967 74.658445 
L 99.393179 71.028343 
L 100.088391 69.752521 
L 100.783602 71.192222 
L 101.478814 74.762607 
L 102.869237 82.922361 
L 103.564449 85.071231 
L 104.25966 85.333623 
L 104.954872 83.922989 
L 105.650083 81.106242 
L 106.345295 77.049401 
L 107.735718 67.000132 
L 108.43093 63.168619 
L 109.126141 62.162865 
L 109.821353 64.913428 
L 110.516565 70.068696 
L 111.211776 73.381763 
L 111.906988 71.027702 
L 113.297411 58.260366 
L 114.687834 48.193277 
L 115.383046 43.175116 
L 116.078257 40.57118 
L 116.773469 40.764261 
L 117.468681 47.980265 
L 118.163892 61.402892 
L 118.859104 66.385629 
L 119.554315 59.487485 
L 120.249527 59.545881 
L 121.63995 86.951809 
L 122.335162 89.370439 
L 123.030373 86.085913 
L 123.725585 89.131022 
L 124.420796 96.012614 
L 125.116008 100.82943 
L 125.81122 101.900954 
L 126.506431 100.831807 
L 127.201643 99.22088 
L 127.896854 95.985005 
L 128.592066 98.423378 
L 129.287278 100.16682 
L 129.982489 100.310115 
L 130.677701 101.593997 
L 131.372912 99.831239 
L 132.068124 98.719669 
L 132.763336 93.555435 
L 133.458547 93.898975 
L 134.153759 101.020351 
L 134.84897 100.446056 
L 135.544182 92.377491 
L 136.239394 86.64407 
L 136.934605 96.575671 
L 137.629817 102.421441 
L 138.325028 88.13266 
L 139.02024 102.300138 
L 139.715452 85.069934 
L 140.410663 96.839589 
L 141.105875 102.266099 
L 141.801086 97.620928 
L 142.496298 86.569916 
L 143.19151 91.918783 
L 143.886721 99.744603 
L 144.581933 98.815349 
L 145.277144 96.66647 
L 145.972356 102.481235 
L 146.667567 77.058682 
L 147.362779 98.019736 
L 148.057991 67.589185 
L 148.753202 90.483369 
L 149.448414 90.163802 
L 150.143625 91.483582 
L 150.838837 76.20899 
L 151.534049 95.605924 
L 152.22926 99.698235 
L 152.924472 100.397975 
L 153.619683 97.74375 
L 154.314895 90.280699 
L 155.010107 67.216273 
L 155.705318 92.781707 
L 156.40053 102.171404 
L 157.095741 99.734181 
L 157.790953 95.071436 
L 158.486165 83.532739 
L 159.181376 63.74382 
L 159.876588 95.789407 
L 160.571799 101.145583 
L 161.267011 96.176859 
L 161.962223 68.717466 
L 162.657434 93.597106 
L 163.352646 91.525443 
L 164.047857 96.17042 
L 164.743069 88.672872 
L 165.438281 91.201905 
L 166.133492 85.488534 
L 166.828704 101.997882 
L 167.523915 98.81729 
L 168.219127 102.476454 
L 168.914339 88.350635 
L 169.60955 86.787936 
L 170.304762 66.917091 
L 170.999973 97.45545 
L 171.695185 98.444746 
L 172.390397 81.23266 
L 173.085608 81.309633 
L 173.78082 100.321024 
L 174.476031 90.685259 
L 175.171243 94.611072 
L 175.866454 81.985142 
L 176.561666 79.814467 
L 177.256878 102.602142 
L 177.952089 93.653457 
L 178.647301 78.844338 
L 179.342512 101.460425 
L 180.037724 72.834924 
L 180.732936 82.053738 
L 181.428147 101.250472 
L 182.123359 91.685407 
L 182.81857 84.194508 
L 183.513782 100.395604 
L 184.208994 90.707237 
L 184.904205 92.689745 
L 185.599417 80.344554 
L 186.294628 99.21471 
L 186.98984 99.693994 
L 187.685052 99.387798 
L 188.380263 101.069185 
L 189.075475 82.266726 
L 189.770686 96.901042 
L 190.465898 87.085432 
L 191.16111 88.773752 
L 191.856321 97.888582 
L 192.551533 90.590611 
L 193.246744 94.467358 
L 193.941956 101.08214 
L 194.637168 102.725197 
L 195.332379 90.362369 
L 196.027591 97.646776 
L 196.722802 102.527548 
L 197.418014 74.184303 
L 197.418014 74.184303 
" clip-path="url(#pae5e869547)" style="fill: none; stroke-dasharray: 5.55,2.4; stroke-dashoffset: 0; stroke: #d62728; stroke-width: 1.5"/>
   </g>
   <g id="patch_3">
    <path d="M 52.153551 107.250419 
L 52.153551 8.414056 
" style="fill: none; stroke: #000000; stroke-width: 0.8; stroke-linejoin: miter; stroke-linecap: square"/>
   </g>
   <g id="patch_4">
    <path d="M 204.335369 107.250419 
L 204.335369 8.414056 
" style="fill: none; stroke: #000000; stroke-width: 0.8; stroke-linejoin: miter; stroke-linecap: square"/>
   </g>
   <g id="patch_5">
    <path d="M 52.153551 107.250419 
L 204.335369 107.250419 
" style="fill: none; stroke: #000000; stroke-width: 0.8; stroke-linejoin: miter; stroke-linecap: square"/>
   </g>
   <g id="patch_6">
    <path d="M 52.153551 8.414056 
L 204.335369 8.414056 
" style="fill: none; stroke: #000000; stroke-width: 0.8; stroke-linejoin: miter; stroke-linecap: square"/>
   </g>
   <g id="text_5">
    <!-- $n_\mathrm{cycle}=10$ -->
    <g transform="translate(88.300124 30.870644) scale(0.15 -0.15)">
     <defs>
      <path id="DejaVuSans-Oblique-6e" d="M 3566 2113 
L 3156 0 
L 2578 0 
L 2988 2091 
Q 3016 2238 3031 2350 
Q 3047 2463 3047 2528 
Q 3047 2791 2881 2937 
Q 2716 3084 2419 3084 
Q 1956 3084 1622 2776 
Q 1288 2469 1184 1941 
L 800 0 
L 225 0 
L 903 3500 
L 1478 3500 
L 1363 2950 
Q 1603 3253 1940 3418 
Q 2278 3584 2650 3584 
Q 3113 3584 3367 3334 
Q 3622 3084 3622 2631 
Q 3622 2519 3608 2391 
Q 3594 2263 3566 2113 
z
" transform="scale(0.015625)"/>
      <path id="DejaVuSans-79" d="M 2059 -325 
Q 1816 -950 1584 -1140 
Q 1353 -1331 966 -1331 
L 506 -1331 
L 506 -850 
L 844 -850 
Q 1081 -850 1212 -737 
Q 1344 -625 1503 -206 
L 1606 56 
L 191 3500 
L 800 3500 
L 1894 763 
L 2988 3500 
L 3597 3500 
L 2059 -325 
z
" transform="scale(0.015625)"/>
      <path id="DejaVuSans-3d" d="M 678 2906 
L 4684 2906 
L 4684 2381 
L 678 2381 
L 678 2906 
z
M 678 1631 
L 4684 1631 
L 4684 1100 
L 678 1100 
L 678 1631 
z
" transform="scale(0.015625)"/>
     </defs>
     <use xlink:href="#DejaVuSans-Oblique-6e" transform="translate(0 0.78125)"/>
     <use xlink:href="#DejaVuSans-63" transform="translate(63.378906 -15.625) scale(0.7)"/>
     <use xlink:href="#DejaVuSans-79" transform="translate(101.865234 -15.625) scale(0.7)"/>
     <use xlink:href="#DejaVuSans-63" transform="translate(143.291016 -15.625) scale(0.7)"/>
     <use xlink:href="#DejaVuSans-6c" transform="translate(181.777344 -15.625) scale(0.7)"/>
     <use xlink:href="#DejaVuSans-65" transform="translate(201.225586 -15.625) scale(0.7)"/>
     <use xlink:href="#DejaVuSans-3d" transform="translate(266.508789 0.78125)"/>
     <use xlink:href="#DejaVuSans-31" transform="translate(369.780273 0.78125)"/>
     <use xlink:href="#DejaVuSans-30" transform="translate(433.40332 0.78125)"/>
    </g>
   </g>
  </g>
  <g id="axes_2">
   <g id="patch_7">
    <path d="M 234.771733 107.250419 
L 386.953551 107.250419 
L 386.953551 8.414056 
L 234.771733 8.414056 
z
" style="fill: #ffffff"/>
   </g>
   <g id="matplotlib.axis_3">
    <g id="xtick_3">
     <g id="line2d_8">
      <g>
       <use xlink:href="#m1ee0a006df" x="276.275865" y="107.250419" style="stroke: #000000; stroke-width: 0.8"/>
      </g>
     </g>
    </g>
    <g id="xtick_4">
     <g id="line2d_9">
      <g>
       <use xlink:href="#m1ee0a006df" x="345.449419" y="107.250419" style="stroke: #000000; stroke-width: 0.8"/>
      </g>
     </g>
    </g>
   </g>
   <g id="matplotlib.axis_4">
    <g id="ytick_4">
     <g id="line2d_10">
      <g>
       <use xlink:href="#m9645ea85ab" x="234.771733" y="102.757906" style="stroke: #000000; stroke-width: 0.8"/>
      </g>
     </g>
    </g>
    <g id="ytick_5">
     <g id="line2d_11">
      <g>
       <use xlink:href="#m9645ea85ab" x="234.771733" y="57.828367" style="stroke: #000000; stroke-width: 0.8"/>
      </g>
     </g>
    </g>
    <g id="ytick_6">
     <g id="line2d_12">
      <g>
       <use xlink:href="#m9645ea85ab" x="234.771733" y="12.898828" style="stroke: #000000; stroke-width: 0.8"/>
      </g>
     </g>
    </g>
   </g>
   <g id="line2d_13">
    <path d="M 241.689088 102.75652 
L 252.812474 102.652571 
L 255.59332 102.458291 
L 257.678955 102.114012 
L 259.069378 101.698405 
L 260.459801 101.035387 
L 261.850225 99.998181 
L 262.545436 99.287306 
L 263.240648 98.414785 
L 263.935859 97.352502 
L 264.631071 96.070976 
L 265.326283 94.540969 
L 266.716706 90.635329 
L 268.107129 85.524841 
L 269.497552 79.369894 
L 271.583187 69.780595 
L 272.278399 67.19065 
L 272.97361 65.307281 
L 273.668822 64.391347 
L 274.364033 64.668652 
L 275.059245 66.278941 
L 275.754456 69.217304 
L 276.449668 73.278608 
L 277.840091 82.775191 
L 278.535303 86.705001 
L 279.230514 88.957596 
L 279.925726 88.868557 
L 280.620938 86.197149 
L 281.316149 81.311686 
L 282.706572 69.440443 
L 283.401784 65.482735 
L 284.096996 64.416205 
L 284.792207 66.376197 
L 286.877842 79.123088 
L 287.573054 81.504266 
L 288.268265 82.557236 
L 288.963477 82.960327 
L 289.658688 83.07055 
L 290.3539 82.256006 
L 291.049112 78.864594 
L 291.744323 71.29272 
L 293.134746 49.900186 
L 293.829958 46.692945 
L 294.52517 52.133591 
L 295.220381 59.653344 
L 295.915593 60.667084 
L 296.610804 54.127954 
L 297.306016 45.841041 
L 298.001228 40.385269 
L 298.696439 39.31811 
L 300.086862 45.73708 
L 300.782074 43.718607 
L 301.477286 40.297391 
L 302.172497 40.884301 
L 302.867709 38.629103 
L 303.56292 30.017932 
L 304.258132 23.705459 
L 304.953343 27.228399 
L 305.648555 35.5175 
L 306.343767 32.016559 
L 307.038978 24.405935 
L 307.73419 23.481084 
L 308.429401 24.403492 
L 309.124613 24.703282 
L 309.819825 26.193376 
L 311.210248 19.695142 
L 311.905459 21.812864 
L 312.600671 20.90818 
L 313.295883 18.669432 
L 313.991094 20.246683 
L 314.686306 19.122457 
L 315.381517 19.136127 
L 316.076729 21.260992 
L 316.771941 20.250726 
L 317.467152 23.601393 
L 318.162364 28.969044 
L 318.857575 35.263038 
L 320.247999 52.304327 
L 320.94321 58.218986 
L 321.638422 62.356517 
L 322.333633 65.307057 
L 323.028845 66.413799 
L 323.724057 64.626162 
L 324.419268 64.114206 
L 325.11448 67.372019 
L 325.809691 73.713844 
L 326.504903 84.119868 
L 327.200115 92.773633 
L 327.895326 91.632779 
L 328.590538 100.860991 
L 329.285749 100.957779 
L 329.980961 102.064732 
L 330.676173 102.756371 
L 332.761807 102.752223 
L 333.457019 102.596202 
L 334.847442 102.731259 
L 335.542654 102.332897 
L 336.237865 102.418821 
L 336.933077 102.74849 
L 337.628288 99.032529 
L 338.3235 101.426425 
L 339.713923 97.824483 
L 340.409135 98.444911 
L 341.104346 84.977094 
L 341.799558 90.999006 
L 342.49477 94.473149 
L 343.189981 100.326167 
L 343.885193 98.665445 
L 344.580404 100.157663 
L 345.275616 102.140986 
L 345.970828 96.763789 
L 346.666039 102.007544 
L 347.361251 99.65258 
L 348.056462 98.668144 
L 348.751674 97.168221 
L 349.446886 97.166267 
L 350.142097 101.992131 
L 350.837309 95.650685 
L 351.53252 101.120196 
L 352.227732 97.968472 
L 352.922944 100.747751 
L 353.618155 100.175443 
L 354.313367 98.344152 
L 355.008578 99.336504 
L 355.70379 102.068156 
L 356.399002 101.65282 
L 357.094213 102.34049 
L 357.789425 101.711915 
L 358.484636 102.07158 
L 359.179848 100.495627 
L 359.87506 102.470096 
L 360.570271 102.033303 
L 361.960694 98.802064 
L 362.655906 101.982142 
L 363.351117 98.130163 
L 364.046329 101.692417 
L 364.741541 101.28407 
L 365.436752 99.026167 
L 366.131964 101.816118 
L 366.827175 100.43413 
L 367.522387 98.625488 
L 368.217599 101.949396 
L 368.91281 102.479586 
L 369.608022 101.244192 
L 370.303233 98.689662 
L 370.998445 102.24768 
L 371.693657 101.603638 
L 372.388868 102.497483 
L 373.08408 99.22652 
L 373.779291 101.920423 
L 374.474503 97.436421 
L 375.169715 99.420388 
L 375.864926 101.958138 
L 376.560138 102.672264 
L 377.255349 99.160445 
L 377.950561 102.752364 
L 378.645773 97.747985 
L 379.340984 101.351259 
L 380.036196 95.899587 
L 380.036196 95.899587 
" clip-path="url(#pc3eeffc6b4)" style="fill: none; stroke: #ff7f0e; stroke-width: 1.5; stroke-linecap: square"/>
   </g>
   <g id="line2d_14">
    <path d="M 241.689088 102.75652 
L 252.812474 102.652589 
L 255.59332 102.458366 
L 257.678955 102.114225 
L 259.069378 101.698828 
L 260.459801 101.036221 
L 261.850225 99.99981 
L 262.545436 99.289573 
L 263.240648 98.417931 
L 263.935859 97.356852 
L 264.631071 96.07697 
L 265.326283 94.549196 
L 266.716706 90.650626 
L 268.107129 85.552723 
L 269.497552 79.419534 
L 271.583187 69.892219 
L 272.278399 67.334292 
L 272.97361 65.490141 
L 273.668822 64.6213 
L 274.364033 64.953799 
L 275.059245 66.626841 
L 275.754456 69.633783 
L 276.449668 73.766083 
L 277.840091 83.387082 
L 278.535303 87.351571 
L 279.230514 89.60443 
L 279.925726 89.468487 
L 280.620938 86.692917 
L 281.316149 81.642698 
L 282.706572 69.308325 
L 283.401784 65.11679 
L 284.096996 63.883708 
L 284.792207 65.805911 
L 285.487419 70.057316 
L 286.877842 79.649192 
L 287.573054 82.777817 
L 288.268265 84.60703 
L 288.963477 85.581198 
L 289.658688 85.749485 
L 290.3539 84.234079 
L 291.049112 79.45691 
L 291.744323 70.427972 
L 292.439535 58.756014 
L 293.134746 49.534333 
L 293.829958 48.355619 
L 295.220381 61.952663 
L 295.915593 60.738355 
L 297.306016 43.830494 
L 298.001228 40.092984 
L 298.696439 41.8322 
L 299.391651 46.603434 
L 300.086862 47.625937 
L 300.782074 42.038484 
L 301.477286 38.595859 
L 302.172497 41.195185 
L 302.867709 38.774522 
L 303.56292 29.42132 
L 304.258132 23.919236 
L 304.953343 30.136629 
L 305.648555 37.60399 
L 307.038978 24.423165 
L 307.73419 24.278057 
L 308.429401 23.966922 
L 309.819825 26.374587 
L 310.515036 19.936432 
L 311.210248 19.822304 
L 311.905459 23.401286 
L 312.600671 19.527345 
L 313.295883 18.953724 
L 313.991094 19.304412 
L 314.686306 18.431959 
L 315.381517 18.113196 
L 316.076729 17.375282 
L 316.771941 17.012272 
L 317.467152 17.016379 
L 318.162364 15.970697 
L 318.857575 16.593167 
L 319.552787 15.229599 
L 320.247999 15.681467 
L 321.638422 15.004539 
L 323.724057 14.582948 
L 324.419268 13.870745 
L 325.11448 14.305272 
L 325.809691 13.951601 
L 326.504903 13.96264 
L 327.895326 13.790208 
L 328.590538 13.872301 
L 329.980961 13.527047 
L 330.676173 13.817674 
L 331.371384 14.230224 
L 332.066596 16.035418 
L 332.761807 23.977682 
L 333.457019 44.45468 
L 334.15223 49.80773 
L 334.847442 28.303889 
L 335.542654 84.327049 
L 336.237865 96.777942 
L 336.933077 89.07155 
L 337.628288 48.463441 
L 338.3235 62.800085 
L 339.018712 99.457659 
L 339.713923 47.490258 
L 340.409135 91.188034 
L 341.104346 71.17443 
L 341.799558 90.995398 
L 342.49477 99.897662 
L 343.189981 76.992711 
L 343.885193 91.247714 
L 344.580404 101.687503 
L 345.275616 97.425601 
L 345.970828 96.766644 
L 346.666039 100.776071 
L 347.361251 100.346177 
L 348.056462 96.133857 
L 348.751674 79.223801 
L 349.446886 92.614616 
L 350.142097 99.963776 
L 350.837309 94.606444 
L 351.53252 87.492258 
L 352.227732 98.510334 
L 352.922944 97.755538 
L 353.618155 101.286457 
L 354.313367 98.507524 
L 355.008578 77.088218 
L 355.70379 93.294419 
L 356.399002 96.390865 
L 357.094213 100.739549 
L 357.789425 89.668396 
L 358.484636 73.799572 
L 359.179848 93.098464 
L 359.87506 100.430294 
L 360.570271 67.832755 
L 361.265483 102.478669 
L 361.960694 101.246791 
L 362.655906 99.584371 
L 363.351117 100.227034 
L 364.046329 96.693883 
L 364.741541 97.748683 
L 365.436752 95.437468 
L 366.131964 102.21092 
L 366.827175 81.203211 
L 367.522387 94.286765 
L 368.217599 87.153438 
L 368.91281 90.825436 
L 369.608022 92.295181 
L 370.998445 102.456706 
L 371.693657 96.816097 
L 372.388868 85.207495 
L 373.08408 102.142175 
L 373.779291 99.077516 
L 374.474503 84.053821 
L 375.169715 97.359435 
L 375.864926 78.820056 
L 376.560138 99.53498 
L 377.255349 100.349228 
L 377.950561 100.497971 
L 378.645773 92.497392 
L 379.340984 100.260332 
L 380.036196 100.67022 
L 380.036196 100.67022 
" clip-path="url(#pc3eeffc6b4)" style="fill: none; stroke-dasharray: 5.55,2.4; stroke-dashoffset: 0; stroke: #9467bd; stroke-width: 1.5"/>
   </g>
   <g id="patch_8">
    <path d="M 234.771733 107.250419 
L 234.771733 8.414056 
" style="fill: none; stroke: #000000; stroke-width: 0.8; stroke-linejoin: miter; stroke-linecap: square"/>
   </g>
   <g id="patch_9">
    <path d="M 386.953551 107.250419 
L 386.953551 8.414056 
" style="fill: none; stroke: #000000; stroke-width: 0.8; stroke-linejoin: miter; stroke-linecap: square"/>
   </g>
   <g id="patch_10">
    <path d="M 234.771733 107.250419 
L 386.953551 107.250419 
" style="fill: none; stroke: #000000; stroke-width: 0.8; stroke-linejoin: miter; stroke-linecap: square"/>
   </g>
   <g id="patch_11">
    <path d="M 234.771733 8.414056 
L 386.953551 8.414056 
" style="fill: none; stroke: #000000; stroke-width: 0.8; stroke-linejoin: miter; stroke-linecap: square"/>
   </g>
   <g id="text_6">
    <!-- $n_\mathrm{cycle}=$ -->
    <g transform="translate(241.689088 30.515272) scale(0.15 -0.15)">
     <use xlink:href="#DejaVuSans-Oblique-6e"/>
     <use xlink:href="#DejaVuSans-63" transform="translate(63.378906 -16.40625) scale(0.7)"/>
     <use xlink:href="#DejaVuSans-79" transform="translate(101.865234 -16.40625) scale(0.7)"/>
     <use xlink:href="#DejaVuSans-63" transform="translate(143.291016 -16.40625) scale(0.7)"/>
     <use xlink:href="#DejaVuSans-6c" transform="translate(181.777344 -16.40625) scale(0.7)"/>
     <use xlink:href="#DejaVuSans-65" transform="translate(201.225586 -16.40625) scale(0.7)"/>
     <use xlink:href="#DejaVuSans-3d" transform="translate(266.508789 0)"/>
    </g>
    <!-- $100$ -->
    <g transform="translate(241.689088 48.842459) scale(0.15 -0.15)">
     <use xlink:href="#DejaVuSans-31" transform="translate(0 0.78125)"/>
     <use xlink:href="#DejaVuSans-30" transform="translate(63.623047 0.78125)"/>
     <use xlink:href="#DejaVuSans-30" transform="translate(127.246094 0.78125)"/>
    </g>
   </g>
  </g>
  <g id="axes_3">
   <g id="patch_12">
    <path d="M 52.153551 225.854056 
L 204.335369 225.854056 
L 204.335369 127.017692 
L 52.153551 127.017692 
z
" style="fill: #ffffff"/>
   </g>
   <g id="matplotlib.axis_5">
    <g id="xtick_5">
     <g id="line2d_15">
      <g>
       <use xlink:href="#m1ee0a006df" x="93.657683" y="225.854056" style="stroke: #000000; stroke-width: 0.8"/>
      </g>
     </g>
     <g id="text_7">
      <!-- $\mathdefault{10^{0}}$ -->
      <g transform="translate(80.457683 244.251712) scale(0.15 -0.15)">
       <use xlink:href="#DejaVuSans-31" transform="translate(0 0.765625)"/>
       <use xlink:href="#DejaVuSans-30" transform="translate(63.623047 0.765625)"/>
       <use xlink:href="#DejaVuSans-30" transform="translate(128.203125 39.046875) scale(0.7)"/>
      </g>
     </g>
    </g>
    <g id="xtick_6">
     <g id="line2d_16">
      <g>
       <use xlink:href="#m1ee0a006df" x="162.831237" y="225.854056" style="stroke: #000000; stroke-width: 0.8"/>
      </g>
     </g>
     <g id="text_8">
      <!-- $\mathdefault{10^{2}}$ -->
      <g transform="translate(149.631237 244.251712) scale(0.15 -0.15)">
       <defs>
        <path id="DejaVuSans-32" d="M 1228 531 
L 3431 531 
L 3431 0 
L 469 0 
L 469 531 
Q 828 903 1448 1529 
Q 2069 2156 2228 2338 
Q 2531 2678 2651 2914 
Q 2772 3150 2772 3378 
Q 2772 3750 2511 3984 
Q 2250 4219 1831 4219 
Q 1534 4219 1204 4116 
Q 875 4013 500 3803 
L 500 4441 
Q 881 4594 1212 4672 
Q 1544 4750 1819 4750 
Q 2544 4750 2975 4387 
Q 3406 4025 3406 3419 
Q 3406 3131 3298 2873 
Q 3191 2616 2906 2266 
Q 2828 2175 2409 1742 
Q 1991 1309 1228 531 
z
" transform="scale(0.015625)"/>
       </defs>
       <use xlink:href="#DejaVuSans-31" transform="translate(0 0.765625)"/>
       <use xlink:href="#DejaVuSans-30" transform="translate(63.623047 0.765625)"/>
       <use xlink:href="#DejaVuSans-32" transform="translate(128.203125 39.046875) scale(0.7)"/>
      </g>
     </g>
    </g>
   </g>
   <g id="matplotlib.axis_6">
    <g id="ytick_7">
     <g id="line2d_17">
      <g>
       <use xlink:href="#m9645ea85ab" x="52.153551" y="221.361542" style="stroke: #000000; stroke-width: 0.8"/>
      </g>
     </g>
     <g id="text_9">
      <!-- 0.0 -->
      <g transform="translate(21.298864 227.06037) scale(0.15 -0.15)">
       <use xlink:href="#DejaVuSans-30"/>
       <use xlink:href="#DejaVuSans-2e" x="63.623047"/>
       <use xlink:href="#DejaVuSans-30" x="95.410156"/>
      </g>
     </g>
    </g>
    <g id="ytick_8">
     <g id="line2d_18">
      <g>
       <use xlink:href="#m9645ea85ab" x="52.153551" y="176.432003" style="stroke: #000000; stroke-width: 0.8"/>
      </g>
     </g>
     <g id="text_10">
      <!-- 0.5 -->
      <g transform="translate(21.298864 182.130831) scale(0.15 -0.15)">
       <use xlink:href="#DejaVuSans-30"/>
       <use xlink:href="#DejaVuSans-2e" x="63.623047"/>
       <use xlink:href="#DejaVuSans-35" x="95.410156"/>
      </g>
     </g>
    </g>
    <g id="ytick_9">
     <g id="line2d_19">
      <g>
       <use xlink:href="#m9645ea85ab" x="52.153551" y="131.502464" style="stroke: #000000; stroke-width: 0.8"/>
      </g>
     </g>
     <g id="text_11">
      <!-- 1.0 -->
      <g transform="translate(21.298864 137.201293) scale(0.15 -0.15)">
       <use xlink:href="#DejaVuSans-31"/>
       <use xlink:href="#DejaVuSans-2e" x="63.623047"/>
       <use xlink:href="#DejaVuSans-30" x="95.410156"/>
      </g>
     </g>
    </g>
   </g>
   <g id="line2d_20">
    <path d="M 59.070907 221.360227 
L 70.194292 221.261373 
L 72.975138 221.076295 
L 75.060773 220.747791 
L 76.451196 220.350616 
L 77.84162 219.715973 
L 79.232043 218.721154 
L 79.927254 218.03814 
L 80.622466 217.198641 
L 81.317678 216.174949 
L 82.012889 214.937781 
L 82.708101 213.457745 
L 84.098524 209.665547 
L 85.488947 204.672643 
L 86.87937 198.607026 
L 88.965005 188.983059 
L 89.660217 186.308062 
L 90.355428 184.296486 
L 91.05064 183.212942 
L 91.745851 183.295406 
L 92.441063 184.70608 
L 93.136275 187.47313 
L 93.831486 191.43274 
L 95.917121 205.349096 
L 96.612333 208.056936 
L 97.307544 208.48787 
L 98.002756 206.28619 
L 98.697967 201.682231 
L 100.088391 189.397083 
L 100.783602 184.754336 
L 101.478814 182.88631 
L 102.174025 184.184364 
L 102.869237 188.003322 
L 104.25966 197.495138 
L 104.954872 200.770837 
L 105.650083 202.740133 
L 106.345295 203.886338 
L 107.040507 204.421134 
L 107.735718 203.62272 
L 108.43093 199.862201 
L 109.126141 191.713753 
L 110.516565 169.303927 
L 111.211776 165.802776 
L 111.906988 171.304345 
L 112.602199 179.267576 
L 113.297411 180.469319 
L 113.992623 173.204542 
L 114.687834 163.893845 
L 115.383046 158.605058 
L 116.078257 159.407023 
L 116.773469 164.691771 
L 117.468681 167.379914 
L 118.859104 156.331087 
L 119.554315 158.606051 
L 120.249527 159.111947 
L 121.63995 142.055784 
L 122.335162 146.35891 
L 123.030373 156.552968 
L 123.725585 150.917252 
L 124.420796 142.311736 
L 125.116008 143.076048 
L 125.81122 143.050164 
L 126.506431 142.582213 
L 127.201643 145.585582 
L 127.896854 139.281564 
L 128.592066 137.511324 
L 129.287278 141.933817 
L 129.982489 138.44994 
L 130.677701 137.397552 
L 131.372912 137.541487 
L 132.068124 137.447187 
L 132.763336 136.167038 
L 133.458547 136.312981 
L 134.153759 135.170556 
L 134.84897 135.529314 
L 135.544182 134.802885 
L 137.629817 134.030381 
L 138.325028 133.880769 
L 139.02024 133.337163 
L 139.715452 133.458551 
L 141.105875 133.035963 
L 141.801086 132.506568 
L 142.496298 132.971253 
L 143.886721 132.246543 
L 144.581933 132.451643 
L 145.277144 132.262651 
L 145.972356 132.200878 
L 146.667567 132.338789 
L 147.362779 132.310969 
L 148.753202 131.991665 
L 155.010107 131.841268 
L 158.486165 131.814922 
L 159.876588 131.9213 
L 163.352646 132.179883 
L 164.743069 132.449875 
L 166.828704 132.951267 
L 167.523915 133.40287 
L 168.219127 135.136148 
L 168.914339 145.745934 
L 169.60955 192.730509 
L 170.304762 197.314938 
L 170.999973 188.097793 
L 171.695185 162.980899 
L 173.085608 211.18592 
L 173.78082 210.994485 
L 174.476031 177.869826 
L 175.171243 185.011939 
L 175.866454 188.276525 
L 176.561666 190.149082 
L 177.256878 195.816687 
L 177.952089 211.395197 
L 178.647301 220.885334 
L 179.342512 221.36007 
L 187.685052 221.33487 
L 188.380263 221.131079 
L 189.075475 214.483495 
L 190.465898 220.145803 
L 191.16111 220.412084 
L 191.856321 221.265566 
L 193.246744 219.628497 
L 193.941956 220.190417 
L 194.637168 203.24521 
L 195.332379 218.695238 
L 196.027591 218.932676 
L 196.722802 218.406635 
L 197.418014 221.354232 
L 197.418014 221.354232 
" clip-path="url(#pf6702d9a5f)" style="fill: none; stroke: #2ca02c; stroke-width: 1.5; stroke-linecap: square"/>
   </g>
   <g id="line2d_21">
    <path d="M 59.070907 221.360227 
L 70.194292 221.261375 
L 72.975138 221.076303 
L 75.060773 220.747814 
L 76.451196 220.350663 
L 77.84162 219.716066 
L 79.232043 218.721336 
L 79.927254 218.038391 
L 80.622466 217.198989 
L 81.317678 216.17543 
L 82.012889 214.93844 
L 82.708101 213.458646 
L 84.098524 209.667205 
L 85.488947 204.675628 
L 86.87937 198.61226 
L 88.965005 188.99452 
L 89.660217 186.322671 
L 90.355428 184.314906 
L 91.05064 183.235891 
L 91.745851 183.323617 
L 92.441063 184.740237 
L 93.136275 187.51377 
L 93.831486 191.480117 
L 95.917121 205.41241 
L 96.612333 208.12106 
L 97.307544 208.548562 
L 98.002756 206.338058 
L 98.697967 201.719209 
L 100.088391 189.388701 
L 100.783602 184.720868 
L 101.478814 182.832816 
L 102.174025 184.122564 
L 102.869237 187.951505 
L 104.25966 197.532904 
L 104.954872 200.883664 
L 105.650083 202.932901 
L 106.345295 204.14056 
L 107.040507 204.687511 
L 107.735718 203.825945 
L 108.43093 199.930145 
L 109.126141 191.629778 
L 110.516565 169.230672 
L 111.211776 165.925481 
L 111.906988 171.58152 
L 112.602199 179.513847 
L 113.297411 180.515758 
L 113.992623 173.048339 
L 114.687834 163.693891 
L 115.383046 158.573042 
L 116.078257 159.672686 
L 116.773469 165.130577 
L 117.468681 167.611888 
L 118.859104 156.131688 
L 119.554315 158.648257 
L 120.249527 159.196643 
L 121.63995 142.043969 
L 122.335162 146.613231 
L 123.030373 156.765911 
L 123.725585 150.775335 
L 124.420796 142.297887 
L 125.116008 143.204103 
L 125.81122 142.996965 
L 126.506431 142.597787 
L 127.201643 145.605907 
L 127.896854 139.063865 
L 128.592066 137.623358 
L 129.287278 142.021052 
L 129.982489 138.420615 
L 130.677701 137.395735 
L 131.372912 137.517968 
L 132.068124 137.488906 
L 132.763336 136.083606 
L 133.458547 136.256272 
L 134.153759 135.348523 
L 134.84897 135.40206 
L 135.544182 134.797078 
L 136.239394 134.66718 
L 136.934605 133.965233 
L 137.629817 134.10956 
L 138.325028 133.864789 
L 139.02024 133.396767 
L 139.715452 133.380561 
L 141.105875 133.000445 
L 141.801086 132.534643 
L 142.496298 132.798559 
L 143.19151 132.611786 
L 143.886721 132.155939 
L 144.581933 132.375072 
L 145.277144 132.333086 
L 145.972356 132.160529 
L 147.362779 132.287207 
L 150.143625 131.821117 
L 168.219127 131.528066 
L 177.952089 131.514023 
L 181.428147 131.511205 
L 182.81857 132.423076 
L 183.513782 133.085138 
L 184.208994 140.345521 
L 184.904205 195.915836 
L 185.599417 169.104472 
L 186.294628 154.552444 
L 186.98984 161.504482 
L 187.685052 157.31774 
L 188.380263 173.611116 
L 189.075475 163.178731 
L 189.770686 164.382249 
L 190.465898 153.054699 
L 191.16111 171.333618 
L 191.856321 193.304679 
L 192.551533 178.930144 
L 193.246744 195.329614 
L 193.941956 187.997302 
L 194.637168 210.748909 
L 195.332379 219.024791 
L 196.027591 218.389809 
L 196.722802 219.453919 
L 197.418014 211.60518 
L 197.418014 211.60518 
" clip-path="url(#pf6702d9a5f)" style="fill: none; stroke-dasharray: 5.55,2.4; stroke-dashoffset: 0; stroke: #8c564b; stroke-width: 1.5"/>
   </g>
   <g id="patch_13">
    <path d="M 52.153551 225.854056 
L 52.153551 127.017692 
" style="fill: none; stroke: #000000; stroke-width: 0.8; stroke-linejoin: miter; stroke-linecap: square"/>
   </g>
   <g id="patch_14">
    <path d="M 204.335369 225.854056 
L 204.335369 127.017692 
" style="fill: none; stroke: #000000; stroke-width: 0.8; stroke-linejoin: miter; stroke-linecap: square"/>
   </g>
   <g id="patch_15">
    <path d="M 52.153551 225.854056 
L 204.335369 225.854056 
" style="fill: none; stroke: #000000; stroke-width: 0.8; stroke-linejoin: miter; stroke-linecap: square"/>
   </g>
   <g id="patch_16">
    <path d="M 52.153551 127.017692 
L 204.335369 127.017692 
" style="fill: none; stroke: #000000; stroke-width: 0.8; stroke-linejoin: miter; stroke-linecap: square"/>
   </g>
   <g id="text_12">
    <!-- $n_\mathrm{cycle}=$ -->
    <g transform="translate(59.070907 149.118908) scale(0.15 -0.15)">
     <use xlink:href="#DejaVuSans-Oblique-6e"/>
     <use xlink:href="#DejaVuSans-63" transform="translate(63.378906 -16.40625) scale(0.7)"/>
     <use xlink:href="#DejaVuSans-79" transform="translate(101.865234 -16.40625) scale(0.7)"/>
     <use xlink:href="#DejaVuSans-63" transform="translate(143.291016 -16.40625) scale(0.7)"/>
     <use xlink:href="#DejaVuSans-6c" transform="translate(181.777344 -16.40625) scale(0.7)"/>
     <use xlink:href="#DejaVuSans-65" transform="translate(201.225586 -16.40625) scale(0.7)"/>
     <use xlink:href="#DejaVuSans-3d" transform="translate(266.508789 0)"/>
    </g>
    <!-- $1000$ -->
    <g transform="translate(59.070907 167.446095) scale(0.15 -0.15)">
     <use xlink:href="#DejaVuSans-31" transform="translate(0 0.78125)"/>
     <use xlink:href="#DejaVuSans-30" transform="translate(63.623047 0.78125)"/>
     <use xlink:href="#DejaVuSans-30" transform="translate(127.246094 0.78125)"/>
     <use xlink:href="#DejaVuSans-30" transform="translate(190.869141 0.78125)"/>
    </g>
   </g>
  </g>
  <g id="axes_4">
   <g id="patch_17">
    <path d="M 234.771733 225.854056 
L 386.953551 225.854056 
L 386.953551 127.017692 
L 234.771733 127.017692 
z
" style="fill: #ffffff"/>
   </g>
   <g id="matplotlib.axis_7">
    <g id="xtick_7">
     <g id="line2d_22">
      <g>
       <use xlink:href="#m1ee0a006df" x="276.275865" y="225.854056" style="stroke: #000000; stroke-width: 0.8"/>
      </g>
     </g>
     <g id="text_13">
      <!-- $\mathdefault{10^{0}}$ -->
      <g transform="translate(263.075865 244.251712) scale(0.15 -0.15)">
       <use xlink:href="#DejaVuSans-31" transform="translate(0 0.765625)"/>
       <use xlink:href="#DejaVuSans-30" transform="translate(63.623047 0.765625)"/>
       <use xlink:href="#DejaVuSans-30" transform="translate(128.203125 39.046875) scale(0.7)"/>
      </g>
     </g>
    </g>
    <g id="xtick_8">
     <g id="line2d_23">
      <g>
       <use xlink:href="#m1ee0a006df" x="345.449419" y="225.854056" style="stroke: #000000; stroke-width: 0.8"/>
      </g>
     </g>
     <g id="text_14">
      <!-- $\mathdefault{10^{2}}$ -->
      <g transform="translate(332.249419 244.251712) scale(0.15 -0.15)">
       <use xlink:href="#DejaVuSans-31" transform="translate(0 0.765625)"/>
       <use xlink:href="#DejaVuSans-30" transform="translate(63.623047 0.765625)"/>
       <use xlink:href="#DejaVuSans-32" transform="translate(128.203125 39.046875) scale(0.7)"/>
      </g>
     </g>
    </g>
    <g id="text_15">
     <!-- $\frac{R_\mathrm{tot}}{\pi}$ -->
     <g transform="translate(209.653551 261.821328) scale(0.15 -0.15)">
      <defs>
       <path id="DejaVuSans-Oblique-52" d="M 1613 4147 
L 1294 2491 
L 2106 2491 
Q 2584 2491 2879 2755 
Q 3175 3019 3175 3444 
Q 3175 3784 2976 3965 
Q 2778 4147 2406 4147 
L 1613 4147 
z
M 2772 2241 
Q 2972 2194 3105 2009 
Q 3238 1825 3413 1275 
L 3809 0 
L 3144 0 
L 2778 1197 
Q 2638 1659 2453 1815 
Q 2269 1972 1888 1972 
L 1191 1972 
L 806 0 
L 172 0 
L 1081 4666 
L 2503 4666 
Q 3150 4666 3495 4373 
Q 3841 4081 3841 3531 
Q 3841 3044 3547 2687 
Q 3253 2331 2772 2241 
z
" transform="scale(0.015625)"/>
       <path id="DejaVuSans-Oblique-3c0" d="M 584 3500 
L 3938 3500 
L 3825 2925 
L 3384 2925 
L 2966 775 
Q 2922 550 2981 450 
Q 3038 353 3209 353 
Q 3256 353 3325 363 
Q 3397 369 3419 372 
L 3338 -44 
Q 3222 -84 3103 -103 
Q 2981 -122 2866 -122 
Q 2491 -122 2388 81 
Q 2284 288 2391 838 
L 2797 2925 
L 1506 2925 
L 938 0 
L 350 0 
L 919 2925 
L 472 2925 
L 584 3500 
z
" transform="scale(0.015625)"/>
      </defs>
      <use xlink:href="#DejaVuSans-Oblique-52" transform="translate(0 56.965625) scale(0.7)"/>
      <use xlink:href="#DejaVuSans-74" transform="translate(48.637695 45.48125) scale(0.49)"/>
      <use xlink:href="#DejaVuSans-6f" transform="translate(67.850098 45.48125) scale(0.49)"/>
      <use xlink:href="#DejaVuSans-74" transform="translate(97.829102 45.48125) scale(0.49)"/>
      <use xlink:href="#DejaVuSans-Oblique-3c0" transform="translate(38 -24.746719) scale(0.7)"/>
      <path d="M 0 19.784531 
L 0 26.034531 
L 118.955566 26.034531 
L 118.955566 19.784531 
L 0 19.784531 
z
"/>
     </g>
    </g>
   </g>
   <g id="matplotlib.axis_8">
    <g id="ytick_10">
     <g id="line2d_24">
      <g>
       <use xlink:href="#m9645ea85ab" x="234.771733" y="221.361542" style="stroke: #000000; stroke-width: 0.8"/>
      </g>
     </g>
    </g>
    <g id="ytick_11">
     <g id="line2d_25">
      <g>
       <use xlink:href="#m9645ea85ab" x="234.771733" y="176.432003" style="stroke: #000000; stroke-width: 0.8"/>
      </g>
     </g>
    </g>
    <g id="ytick_12">
     <g id="line2d_26">
      <g>
       <use xlink:href="#m9645ea85ab" x="234.771733" y="131.502464" style="stroke: #000000; stroke-width: 0.8"/>
      </g>
     </g>
    </g>
   </g>
   <g id="line2d_27">
    <path d="M 241.689088 221.359412 
L 252.117262 221.239476 
L 254.898109 221.015973 
L 256.983743 220.622495 
L 258.374167 220.150397 
L 259.76459 219.402017 
L 261.155013 218.240219 
L 261.850225 217.4491 
L 262.545436 216.483017 
L 263.240648 215.313395 
L 263.935859 213.911065 
L 265.326283 210.301077 
L 266.716706 205.503598 
L 268.107129 199.580567 
L 270.887975 186.783527 
L 271.583187 184.305271 
L 272.278399 182.550343 
L 272.97361 181.736251 
L 273.668822 182.028016 
L 274.364033 183.49355 
L 275.059245 186.059769 
L 276.449668 193.337399 
L 277.14488 197.071272 
L 277.840091 200.082514 
L 278.535303 201.865907 
L 279.230514 202.171268 
L 279.925726 201.134914 
L 281.316149 197.616223 
L 282.011361 196.982145 
L 282.706572 198.105435 
L 283.401784 201.099443 
L 285.487419 213.524063 
L 286.18263 215.375645 
L 286.877842 215.303538 
L 287.573054 213.773826 
L 288.268265 211.713195 
L 288.963477 210.233602 
L 289.658688 210.259685 
L 290.3539 212.036469 
L 291.049112 214.768656 
L 291.744323 216.899322 
L 292.439535 217.141933 
L 293.134746 215.419597 
L 295.220381 206.805517 
L 295.915593 205.249941 
L 296.610804 206.409139 
L 298.696439 217.525902 
L 299.391651 218.487914 
L 300.086862 218.332553 
L 300.782074 217.741945 
L 301.477286 217.640394 
L 302.172497 219.163984 
L 302.867709 220.988217 
L 303.56292 221.213568 
L 304.258132 220.329017 
L 304.953343 218.48479 
L 305.648555 213.943406 
L 306.343767 206.414981 
L 307.038978 209.119859 
L 307.73419 216.37632 
L 308.429401 220.335801 
L 309.124613 220.756465 
L 310.515036 218.771455 
L 311.210248 220.869768 
L 311.905459 219.481327 
L 312.600671 216.698821 
L 313.295883 218.829536 
L 313.991094 219.467138 
L 315.381517 221.356891 
L 316.076729 217.925714 
L 316.771941 212.347512 
L 317.467152 216.700745 
L 318.162364 219.462418 
L 318.857575 219.012998 
L 319.552787 220.689716 
L 320.247999 219.378658 
L 320.94321 220.847609 
L 321.638422 219.816816 
L 322.333633 221.34032 
L 323.028845 214.491377 
L 323.724057 219.526095 
L 324.419268 220.910962 
L 325.11448 221.331512 
L 325.809691 218.350075 
L 326.504903 220.320838 
L 327.200115 220.662043 
L 327.895326 218.796024 
L 328.590538 214.246328 
L 329.285749 221.118107 
L 331.371384 216.812908 
L 332.066596 218.614774 
L 332.761807 217.880021 
L 333.457019 220.674248 
L 334.15223 217.339144 
L 334.847442 217.117101 
L 335.542654 220.702024 
L 336.237865 220.87711 
L 336.933077 221.356749 
L 337.628288 220.504637 
L 338.3235 220.877955 
L 339.018712 219.485054 
L 339.713923 218.593367 
L 340.409135 219.950978 
L 341.104346 215.500496 
L 341.799558 218.988425 
L 342.49477 220.306938 
L 343.189981 217.90568 
L 343.885193 218.183597 
L 344.580404 221.150161 
L 345.275616 214.206864 
L 345.970828 221.048115 
L 346.666039 218.46492 
L 347.361251 219.246935 
L 348.056462 219.095629 
L 348.751674 220.546472 
L 349.446886 221.065628 
L 350.142097 212.543277 
L 350.837309 220.766283 
L 351.53252 217.735071 
L 352.227732 221.175092 
L 352.922944 219.617793 
L 353.618155 219.49365 
L 354.313367 217.248603 
L 355.008578 219.936369 
L 355.70379 220.822311 
L 356.399002 217.617479 
L 357.094213 220.402033 
L 357.789425 219.409464 
L 358.484636 221.237518 
L 359.179848 219.648918 
L 359.87506 220.106195 
L 360.570271 221.257613 
L 361.265483 220.936585 
L 361.960694 220.318839 
L 362.655906 220.753412 
L 363.351117 217.733932 
L 364.046329 220.538971 
L 364.741541 217.00131 
L 365.436752 215.98721 
L 366.131964 213.669106 
L 366.827175 217.023991 
L 367.522387 219.56866 
L 368.217599 217.399497 
L 368.91281 221.167184 
L 369.608022 217.482657 
L 370.303233 221.250098 
L 370.998445 217.749512 
L 371.693657 220.916484 
L 372.388868 216.776557 
L 373.08408 213.518592 
L 373.779291 219.550787 
L 374.474503 217.856816 
L 375.169715 220.861281 
L 375.864926 221.106599 
L 376.560138 220.052833 
L 377.255349 216.144666 
L 377.950561 219.579029 
L 378.645773 217.439436 
L 379.340984 218.316303 
L 380.036196 220.507178 
L 380.036196 220.507178 
" clip-path="url(#p24bb45f906)" style="fill: none; stroke: #1f77b4; stroke-width: 1.5; stroke-linecap: square"/>
   </g>
   <g id="line2d_28">
    <path d="M 241.689088 221.360157 
L 252.812474 221.256207 
L 255.59332 221.061928 
L 257.678955 220.717649 
L 259.069378 220.302042 
L 260.459801 219.639023 
L 261.850225 218.601818 
L 262.545436 217.890942 
L 263.240648 217.018422 
L 263.935859 215.956138 
L 264.631071 214.674612 
L 265.326283 213.144606 
L 266.716706 209.238965 
L 268.107129 204.128477 
L 269.497552 197.973531 
L 271.583187 188.384232 
L 272.278399 185.794286 
L 272.97361 183.910917 
L 273.668822 182.994983 
L 274.364033 183.272288 
L 275.059245 184.882577 
L 275.754456 187.820941 
L 276.449668 191.882244 
L 277.840091 201.378827 
L 278.535303 205.308637 
L 279.230514 207.561232 
L 279.925726 207.472193 
L 280.620938 204.800785 
L 281.316149 199.915322 
L 282.706572 188.04408 
L 283.401784 184.086372 
L 284.096996 183.019842 
L 284.792207 184.979833 
L 286.877842 197.726724 
L 287.573054 200.107902 
L 288.268265 201.160873 
L 288.963477 201.563964 
L 289.658688 201.674187 
L 290.3539 200.859643 
L 291.049112 197.468231 
L 291.744323 189.896356 
L 293.134746 168.503823 
L 293.829958 165.296582 
L 294.52517 170.737228 
L 295.220381 178.25698 
L 295.915593 179.27072 
L 296.610804 172.73159 
L 297.306016 164.444677 
L 298.001228 158.988905 
L 298.696439 157.921746 
L 300.086862 164.340716 
L 300.782074 162.322243 
L 301.477286 158.901028 
L 302.172497 159.487937 
L 302.867709 157.232739 
L 303.56292 148.621569 
L 304.258132 142.309096 
L 304.953343 145.832036 
L 305.648555 154.121136 
L 306.343767 150.620195 
L 307.038978 143.009572 
L 307.73419 142.08472 
L 308.429401 143.007129 
L 309.124613 143.306919 
L 309.819825 144.797012 
L 311.210248 138.298778 
L 311.905459 140.416501 
L 312.600671 139.511816 
L 313.295883 137.273068 
L 313.991094 138.85032 
L 314.686306 137.726093 
L 315.381517 137.739763 
L 316.076729 139.864628 
L 316.771941 138.854362 
L 317.467152 142.205029 
L 318.162364 147.572681 
L 318.857575 153.866675 
L 320.247999 170.907963 
L 320.94321 176.822622 
L 321.638422 180.960153 
L 322.333633 183.910693 
L 323.028845 185.017436 
L 323.724057 183.229799 
L 324.419268 182.717842 
L 325.11448 185.975656 
L 325.809691 192.317481 
L 326.504903 202.723505 
L 327.200115 211.37727 
L 327.895326 210.236415 
L 328.590538 219.464628 
L 329.285749 219.561415 
L 329.980961 220.668368 
L 330.676173 221.360007 
L 332.761807 221.355859 
L 333.457019 221.199838 
L 334.847442 221.334895 
L 335.542654 220.936534 
L 336.237865 221.022457 
L 336.933077 221.352127 
L 337.628288 217.636166 
L 338.3235 220.030061 
L 339.713923 216.428119 
L 340.409135 217.048547 
L 341.104346 203.58073 
L 341.799558 209.602642 
L 342.49477 213.076786 
L 343.189981 218.929804 
L 343.885193 217.269081 
L 344.580404 218.761299 
L 345.275616 220.744623 
L 345.970828 215.367426 
L 346.666039 220.61118 
L 347.361251 218.256216 
L 348.056462 217.27178 
L 348.751674 215.771857 
L 349.446886 215.769903 
L 350.142097 220.595767 
L 350.837309 214.254322 
L 351.53252 219.723832 
L 352.227732 216.572108 
L 352.922944 219.351388 
L 353.618155 218.779079 
L 354.313367 216.947789 
L 355.008578 217.94014 
L 355.70379 220.671792 
L 356.399002 220.256456 
L 357.094213 220.944126 
L 357.789425 220.315551 
L 358.484636 220.675217 
L 359.179848 219.099263 
L 359.87506 221.073732 
L 360.570271 220.63694 
L 361.960694 217.405701 
L 362.655906 220.585778 
L 363.351117 216.733799 
L 364.046329 220.296054 
L 364.741541 219.887707 
L 365.436752 217.629803 
L 366.131964 220.419755 
L 366.827175 219.037767 
L 367.522387 217.229125 
L 368.217599 220.553033 
L 368.91281 221.083223 
L 369.608022 219.847829 
L 370.303233 217.293299 
L 370.998445 220.851316 
L 371.693657 220.207274 
L 372.388868 221.101119 
L 373.08408 217.830156 
L 373.779291 220.524059 
L 374.474503 216.040058 
L 375.169715 218.024024 
L 375.864926 220.561775 
L 376.560138 221.275901 
L 377.255349 217.764082 
L 377.950561 221.356001 
L 378.645773 216.351621 
L 379.340984 219.954895 
L 380.036196 214.503223 
L 380.036196 214.503223 
" clip-path="url(#p24bb45f906)" style="fill: none; stroke: #ff7f0e; stroke-width: 1.5; stroke-linecap: square"/>
   </g>
   <g id="line2d_29">
    <path d="M 241.689088 221.360227 
L 252.812474 221.261373 
L 255.59332 221.076295 
L 257.678955 220.747791 
L 259.069378 220.350616 
L 260.459801 219.715973 
L 261.850225 218.721154 
L 262.545436 218.03814 
L 263.240648 217.198641 
L 263.935859 216.174949 
L 264.631071 214.937781 
L 265.326283 213.457745 
L 266.716706 209.665547 
L 268.107129 204.672643 
L 269.497552 198.607026 
L 271.583187 188.983059 
L 272.278399 186.308062 
L 272.97361 184.296486 
L 273.668822 183.212942 
L 274.364033 183.295406 
L 275.059245 184.70608 
L 275.754456 187.47313 
L 276.449668 191.43274 
L 278.535303 205.349096 
L 279.230514 208.056936 
L 279.925726 208.48787 
L 280.620938 206.28619 
L 281.316149 201.682231 
L 282.706572 189.397083 
L 283.401784 184.754336 
L 284.096996 182.88631 
L 284.792207 184.184364 
L 285.487419 188.003322 
L 286.877842 197.495138 
L 287.573054 200.770837 
L 288.268265 202.740133 
L 288.963477 203.886338 
L 289.658688 204.421134 
L 290.3539 203.62272 
L 291.049112 199.862201 
L 291.744323 191.713753 
L 293.134746 169.303927 
L 293.829958 165.802776 
L 294.52517 171.304345 
L 295.220381 179.267576 
L 295.915593 180.469319 
L 296.610804 173.204542 
L 297.306016 163.893845 
L 298.001228 158.605058 
L 298.696439 159.407023 
L 299.391651 164.691771 
L 300.086862 167.379914 
L 301.477286 156.331087 
L 302.172497 158.606051 
L 302.867709 159.111947 
L 304.258132 142.055784 
L 304.953343 146.35891 
L 305.648555 156.552968 
L 306.343767 150.917252 
L 307.038978 142.311736 
L 307.73419 143.076048 
L 308.429401 143.050164 
L 309.124613 142.582213 
L 309.819825 145.585582 
L 310.515036 139.281564 
L 311.210248 137.511324 
L 311.905459 141.933817 
L 312.600671 138.44994 
L 313.295883 137.397552 
L 313.991094 137.541487 
L 314.686306 137.447187 
L 315.381517 136.167038 
L 316.076729 136.312981 
L 316.771941 135.170556 
L 317.467152 135.529314 
L 318.162364 134.802885 
L 320.247999 134.030381 
L 320.94321 133.880769 
L 321.638422 133.337163 
L 322.333633 133.458551 
L 323.724057 133.035963 
L 324.419268 132.506568 
L 325.11448 132.971253 
L 326.504903 132.246543 
L 327.200115 132.451643 
L 327.895326 132.262651 
L 328.590538 132.200878 
L 329.285749 132.338789 
L 329.980961 132.310969 
L 331.371384 131.991665 
L 337.628288 131.841268 
L 341.104346 131.814922 
L 342.49477 131.9213 
L 345.970828 132.179883 
L 347.361251 132.449875 
L 349.446886 132.951267 
L 350.142097 133.40287 
L 350.837309 135.136148 
L 351.53252 145.745934 
L 352.227732 192.730509 
L 352.922944 197.314938 
L 353.618155 188.097793 
L 354.313367 162.980899 
L 355.70379 211.18592 
L 356.399002 210.994485 
L 357.094213 177.869826 
L 357.789425 185.011939 
L 358.484636 188.276525 
L 359.179848 190.149082 
L 359.87506 195.816687 
L 360.570271 211.395197 
L 361.265483 220.885334 
L 361.960694 221.36007 
L 370.303233 221.33487 
L 370.998445 221.131079 
L 371.693657 214.483495 
L 373.08408 220.145803 
L 373.779291 220.412084 
L 374.474503 221.265566 
L 375.864926 219.628497 
L 376.560138 220.190417 
L 377.255349 203.24521 
L 377.950561 218.695238 
L 378.645773 218.932676 
L 379.340984 218.406635 
L 380.036196 221.354232 
L 380.036196 221.354232 
" clip-path="url(#p24bb45f906)" style="fill: none; stroke: #2ca02c; stroke-width: 1.5; stroke-linecap: square"/>
   </g>
   <g id="patch_18">
    <path d="M 234.771733 225.854056 
L 234.771733 127.017692 
" style="fill: none; stroke: #000000; stroke-width: 0.8; stroke-linejoin: miter; stroke-linecap: square"/>
   </g>
   <g id="patch_19">
    <path d="M 386.953551 225.854056 
L 386.953551 127.017692 
" style="fill: none; stroke: #000000; stroke-width: 0.8; stroke-linejoin: miter; stroke-linecap: square"/>
   </g>
   <g id="patch_20">
    <path d="M 234.771733 225.854056 
L 386.953551 225.854056 
" style="fill: none; stroke: #000000; stroke-width: 0.8; stroke-linejoin: miter; stroke-linecap: square"/>
   </g>
   <g id="patch_21">
    <path d="M 234.771733 127.017692 
L 386.953551 127.017692 
" style="fill: none; stroke: #000000; stroke-width: 0.8; stroke-linejoin: miter; stroke-linecap: square"/>
   </g>
  </g>
 </g>
 <defs>
  <clipPath id="pae5e869547">
   <rect x="52.153551" y="8.414056" width="152.181818" height="98.836364"/>
  </clipPath>
  <clipPath id="pc3eeffc6b4">
   <rect x="234.771733" y="8.414056" width="152.181818" height="98.836364"/>
  </clipPath>
  <clipPath id="pf6702d9a5f">
   <rect x="52.153551" y="127.017692" width="152.181818" height="98.836364"/>
  </clipPath>
  <clipPath id="p24bb45f906">
   <rect x="234.771733" y="127.017692" width="152.181818" height="98.836364"/>
  </clipPath>
 </defs>
</svg>
