<?xml version="1.0" encoding="utf-8" standalone="no"?>
<!DOCTYPE svg PUBLIC "-//W3C//DTD SVG 1.1//EN"
  "http://www.w3.org/Graphics/SVG/1.1/DTD/svg11.dtd">
<svg xmlns:xlink="http://www.w3.org/1999/xlink" width="398.571875pt" height="281.806016pt" viewBox="0 0 398.571875 281.806016" xmlns="http://www.w3.org/2000/svg" version="1.1">
 <metadata>
  <rdf:RDF xmlns:dc="http://purl.org/dc/elements/1.1/" xmlns:cc="http://creativecommons.org/ns#" xmlns:rdf="http://www.w3.org/1999/02/22-rdf-syntax-ns#">
   <cc:Work>
    <dc:type rdf:resource="http://purl.org/dc/dcmitype/StillImage"/>
    <dc:date>2026-01-20T22:05:14.890568</dc:date>
    <dc:format>image/svg+xml</dc:format>
    <dc:creator>
     <cc:Agent>
      <dc:title>Matplotlib v3.6.3, https://matplotlib.org/</dc:title>
     </cc:Agent>
    </dc:creator>
   </cc:Work>
  </rdf:RDF>
 </metadata>
 <defs>
  <style type="text/css">*{stroke-linejoin: round; stroke-linecap: butt}</style>
 </defs>
 <g id="figure_1">
  <g id="patch_1">
   <path d="M 0 281.806016 
L 398.571875 281.806016 
L 398.571875 0 
L 0 0 
L 0 281.806016 
z
" style="fill: none"/>
  </g>
  <g id="axes_1">
   <g id="patch_2">
    <path d="M 56.571875 230.338828 
L 391.371875 230.338828 
L 391.371875 12.898828 
L 56.571875 12.898828 
z
" style="fill: #ffffff"/>
   </g>
   <g id="matplotlib.axis_1">
    <g id="xtick_1">
     <g id="line2d_1">
      <defs>
       <path id="m7805c8b042" d="M 0 0 
L 0 3.5 
" style="stroke: #000000; stroke-width: 0.8"/>
      </defs>
      <g>
       <use xlink:href="#m7805c8b042" x="56.571875" y="230.338828" style="stroke: #000000; stroke-width: 0.8"/>
      </g>
     </g>
     <g id="text_1">
      <!-- $\mathdefault{10^{-2}}$ -->
      <g transform="translate(38.946875 248.736484) scale(0.15 -0.15)">
       <defs>
        <path id="DejaVuSans-31" d="M 794 531 
L 1825 531 
L 1825 4091 
L 703 3866 
L 703 4441 
L 1819 4666 
L 2450 4666 
L 2450 531 
L 3481 531 
L 3481 0 
L 794 0 
L 794 531 
z
" transform="scale(0.015625)"/>
        <path id="DejaVuSans-30" d="M 2034 4250 
Q 1547 4250 1301 3770 
Q 1056 3291 1056 2328 
Q 1056 1369 1301 889 
Q 1547 409 2034 409 
Q 2525 409 2770 889 
Q 3016 1369 3016 2328 
Q 3016 3291 2770 3770 
Q 2525 4250 2034 4250 
z
M 2034 4750 
Q 2819 4750 3233 4129 
Q 3647 3509 3647 2328 
Q 3647 1150 3233 529 
Q 2819 -91 2034 -91 
Q 1250 -91 836 529 
Q 422 1150 422 2328 
Q 422 3509 836 4129 
Q 1250 4750 2034 4750 
z
" transform="scale(0.015625)"/>
        <path id="DejaVuSans-2212" d="M 678 2272 
L 4684 2272 
L 4684 1741 
L 678 1741 
L 678 2272 
z
" transform="scale(0.015625)"/>
        <path id="DejaVuSans-32" d="M 1228 531 
L 3431 531 
L 3431 0 
L 469 0 
L 469 531 
Q 828 903 1448 1529 
Q 2069 2156 2228 2338 
Q 2531 2678 2651 2914 
Q 2772 3150 2772 3378 
Q 2772 3750 2511 3984 
Q 2250 4219 1831 4219 
Q 1534 4219 1204 4116 
Q 875 4013 500 3803 
L 500 4441 
Q 881 4594 1212 4672 
Q 1544 4750 1819 4750 
Q 2544 4750 2975 4387 
Q 3406 4025 3406 3419 
Q 3406 3131 3298 2873 
Q 3191 2616 2906 2266 
Q 2828 2175 2409 1742 
Q 1991 1309 1228 531 
z
" transform="scale(0.015625)"/>
       </defs>
       <use xlink:href="#DejaVuSans-31" transform="translate(0 0.765625)"/>
       <use xlink:href="#DejaVuSans-30" transform="translate(63.623047 0.765625)"/>
       <use xlink:href="#DejaVuSans-2212" transform="translate(128.203125 39.046875) scale(0.7)"/>
       <use xlink:href="#DejaVuSans-32" transform="translate(186.855469 39.046875) scale(0.7)"/>
      </g>
     </g>
    </g>
    <g id="xtick_2">
     <g id="line2d_2">
      <g>
       <use xlink:href="#m7805c8b042" x="127.821532" y="230.338828" style="stroke: #000000; stroke-width: 0.8"/>
      </g>
     </g>
     <g id="text_2">
      <!-- $\mathdefault{10^{-1}}$ -->
      <g transform="translate(110.196532 248.736484) scale(0.15 -0.15)">
       <use xlink:href="#DejaVuSans-31" transform="translate(0 0.684375)"/>
       <use xlink:href="#DejaVuSans-30" transform="translate(63.623047 0.684375)"/>
       <use xlink:href="#DejaVuSans-2212" transform="translate(128.203125 38.965625) scale(0.7)"/>
       <use xlink:href="#DejaVuSans-31" transform="translate(186.855469 38.965625) scale(0.7)"/>
      </g>
     </g>
    </g>
    <g id="xtick_3">
     <g id="line2d_3">
      <g>
       <use xlink:href="#m7805c8b042" x="199.071189" y="230.338828" style="stroke: #000000; stroke-width: 0.8"/>
      </g>
     </g>
     <g id="text_3">
      <!-- $\mathdefault{10^{0}}$ -->
      <g transform="translate(185.871189 248.736484) scale(0.15 -0.15)">
       <use xlink:href="#DejaVuSans-31" transform="translate(0 0.765625)"/>
       <use xlink:href="#DejaVuSans-30" transform="translate(63.623047 0.765625)"/>
       <use xlink:href="#DejaVuSans-30" transform="translate(128.203125 39.046875) scale(0.7)"/>
      </g>
     </g>
    </g>
    <g id="xtick_4">
     <g id="line2d_4">
      <g>
       <use xlink:href="#m7805c8b042" x="270.320845" y="230.338828" style="stroke: #000000; stroke-width: 0.8"/>
      </g>
     </g>
     <g id="text_4">
      <!-- $\mathdefault{10^{1}}$ -->
      <g transform="translate(257.120845 248.736484) scale(0.15 -0.15)">
       <use xlink:href="#DejaVuSans-31" transform="translate(0 0.684375)"/>
       <use xlink:href="#DejaVuSans-30" transform="translate(63.623047 0.684375)"/>
       <use xlink:href="#DejaVuSans-31" transform="translate(128.203125 38.965625) scale(0.7)"/>
      </g>
     </g>
    </g>
    <g id="xtick_5">
     <g id="line2d_5">
      <g>
       <use xlink:href="#m7805c8b042" x="341.570502" y="230.338828" style="stroke: #000000; stroke-width: 0.8"/>
      </g>
     </g>
     <g id="text_5">
      <!-- $\mathdefault{10^{2}}$ -->
      <g transform="translate(328.370502 248.736484) scale(0.15 -0.15)">
       <use xlink:href="#DejaVuSans-31" transform="translate(0 0.765625)"/>
       <use xlink:href="#DejaVuSans-30" transform="translate(63.623047 0.765625)"/>
       <use xlink:href="#DejaVuSans-32" transform="translate(128.203125 39.046875) scale(0.7)"/>
      </g>
     </g>
    </g>
    <g id="xtick_6">
     <g id="line2d_6">
      <defs>
       <path id="mbde00bdb60" d="M 0 0 
L 0 2 
" style="stroke: #000000; stroke-width: 0.6"/>
      </defs>
      <g>
       <use xlink:href="#mbde00bdb60" x="78.020159" y="230.338828" style="stroke: #000000; stroke-width: 0.6"/>
      </g>
     </g>
    </g>
    <g id="xtick_7">
     <g id="line2d_7">
      <g>
       <use xlink:href="#mbde00bdb60" x="90.566601" y="230.338828" style="stroke: #000000; stroke-width: 0.6"/>
      </g>
     </g>
    </g>
    <g id="xtick_8">
     <g id="line2d_8">
      <g>
       <use xlink:href="#mbde00bdb60" x="99.468443" y="230.338828" style="stroke: #000000; stroke-width: 0.6"/>
      </g>
     </g>
    </g>
    <g id="xtick_9">
     <g id="line2d_9">
      <g>
       <use xlink:href="#mbde00bdb60" x="106.373248" y="230.338828" style="stroke: #000000; stroke-width: 0.6"/>
      </g>
     </g>
    </g>
    <g id="xtick_10">
     <g id="line2d_10">
      <g>
       <use xlink:href="#mbde00bdb60" x="112.014885" y="230.338828" style="stroke: #000000; stroke-width: 0.6"/>
      </g>
     </g>
    </g>
    <g id="xtick_11">
     <g id="line2d_11">
      <g>
       <use xlink:href="#mbde00bdb60" x="116.78482" y="230.338828" style="stroke: #000000; stroke-width: 0.6"/>
      </g>
     </g>
    </g>
    <g id="xtick_12">
     <g id="line2d_12">
      <g>
       <use xlink:href="#mbde00bdb60" x="120.916727" y="230.338828" style="stroke: #000000; stroke-width: 0.6"/>
      </g>
     </g>
    </g>
    <g id="xtick_13">
     <g id="line2d_13">
      <g>
       <use xlink:href="#mbde00bdb60" x="124.561326" y="230.338828" style="stroke: #000000; stroke-width: 0.6"/>
      </g>
     </g>
    </g>
    <g id="xtick_14">
     <g id="line2d_14">
      <g>
       <use xlink:href="#mbde00bdb60" x="149.269816" y="230.338828" style="stroke: #000000; stroke-width: 0.6"/>
      </g>
     </g>
    </g>
    <g id="xtick_15">
     <g id="line2d_15">
      <g>
       <use xlink:href="#mbde00bdb60" x="161.816257" y="230.338828" style="stroke: #000000; stroke-width: 0.6"/>
      </g>
     </g>
    </g>
    <g id="xtick_16">
     <g id="line2d_16">
      <g>
       <use xlink:href="#mbde00bdb60" x="170.7181" y="230.338828" style="stroke: #000000; stroke-width: 0.6"/>
      </g>
     </g>
    </g>
    <g id="xtick_17">
     <g id="line2d_17">
      <g>
       <use xlink:href="#mbde00bdb60" x="177.622905" y="230.338828" style="stroke: #000000; stroke-width: 0.6"/>
      </g>
     </g>
    </g>
    <g id="xtick_18">
     <g id="line2d_18">
      <g>
       <use xlink:href="#mbde00bdb60" x="183.264541" y="230.338828" style="stroke: #000000; stroke-width: 0.6"/>
      </g>
     </g>
    </g>
    <g id="xtick_19">
     <g id="line2d_19">
      <g>
       <use xlink:href="#mbde00bdb60" x="188.034477" y="230.338828" style="stroke: #000000; stroke-width: 0.6"/>
      </g>
     </g>
    </g>
    <g id="xtick_20">
     <g id="line2d_20">
      <g>
       <use xlink:href="#mbde00bdb60" x="192.166383" y="230.338828" style="stroke: #000000; stroke-width: 0.6"/>
      </g>
     </g>
    </g>
    <g id="xtick_21">
     <g id="line2d_21">
      <g>
       <use xlink:href="#mbde00bdb60" x="195.810983" y="230.338828" style="stroke: #000000; stroke-width: 0.6"/>
      </g>
     </g>
    </g>
    <g id="xtick_22">
     <g id="line2d_22">
      <g>
       <use xlink:href="#mbde00bdb60" x="220.519472" y="230.338828" style="stroke: #000000; stroke-width: 0.6"/>
      </g>
     </g>
    </g>
    <g id="xtick_23">
     <g id="line2d_23">
      <g>
       <use xlink:href="#mbde00bdb60" x="233.065914" y="230.338828" style="stroke: #000000; stroke-width: 0.6"/>
      </g>
     </g>
    </g>
    <g id="xtick_24">
     <g id="line2d_24">
      <g>
       <use xlink:href="#mbde00bdb60" x="241.967756" y="230.338828" style="stroke: #000000; stroke-width: 0.6"/>
      </g>
     </g>
    </g>
    <g id="xtick_25">
     <g id="line2d_25">
      <g>
       <use xlink:href="#mbde00bdb60" x="248.872561" y="230.338828" style="stroke: #000000; stroke-width: 0.6"/>
      </g>
     </g>
    </g>
    <g id="xtick_26">
     <g id="line2d_26">
      <g>
       <use xlink:href="#mbde00bdb60" x="254.514198" y="230.338828" style="stroke: #000000; stroke-width: 0.6"/>
      </g>
     </g>
    </g>
    <g id="xtick_27">
     <g id="line2d_27">
      <g>
       <use xlink:href="#mbde00bdb60" x="259.284134" y="230.338828" style="stroke: #000000; stroke-width: 0.6"/>
      </g>
     </g>
    </g>
    <g id="xtick_28">
     <g id="line2d_28">
      <g>
       <use xlink:href="#mbde00bdb60" x="263.41604" y="230.338828" style="stroke: #000000; stroke-width: 0.6"/>
      </g>
     </g>
    </g>
    <g id="xtick_29">
     <g id="line2d_29">
      <g>
       <use xlink:href="#mbde00bdb60" x="267.06064" y="230.338828" style="stroke: #000000; stroke-width: 0.6"/>
      </g>
     </g>
    </g>
    <g id="xtick_30">
     <g id="line2d_30">
      <g>
       <use xlink:href="#mbde00bdb60" x="291.769129" y="230.338828" style="stroke: #000000; stroke-width: 0.6"/>
      </g>
     </g>
    </g>
    <g id="xtick_31">
     <g id="line2d_31">
      <g>
       <use xlink:href="#mbde00bdb60" x="304.315571" y="230.338828" style="stroke: #000000; stroke-width: 0.6"/>
      </g>
     </g>
    </g>
    <g id="xtick_32">
     <g id="line2d_32">
      <g>
       <use xlink:href="#mbde00bdb60" x="313.217413" y="230.338828" style="stroke: #000000; stroke-width: 0.6"/>
      </g>
     </g>
    </g>
    <g id="xtick_33">
     <g id="line2d_33">
      <g>
       <use xlink:href="#mbde00bdb60" x="320.122218" y="230.338828" style="stroke: #000000; stroke-width: 0.6"/>
      </g>
     </g>
    </g>
    <g id="xtick_34">
     <g id="line2d_34">
      <g>
       <use xlink:href="#mbde00bdb60" x="325.763855" y="230.338828" style="stroke: #000000; stroke-width: 0.6"/>
      </g>
     </g>
    </g>
    <g id="xtick_35">
     <g id="line2d_35">
      <g>
       <use xlink:href="#mbde00bdb60" x="330.533791" y="230.338828" style="stroke: #000000; stroke-width: 0.6"/>
      </g>
     </g>
    </g>
    <g id="xtick_36">
     <g id="line2d_36">
      <g>
       <use xlink:href="#mbde00bdb60" x="334.665697" y="230.338828" style="stroke: #000000; stroke-width: 0.6"/>
      </g>
     </g>
    </g>
    <g id="xtick_37">
     <g id="line2d_37">
      <g>
       <use xlink:href="#mbde00bdb60" x="338.310297" y="230.338828" style="stroke: #000000; stroke-width: 0.6"/>
      </g>
     </g>
    </g>
    <g id="xtick_38">
     <g id="line2d_38">
      <g>
       <use xlink:href="#mbde00bdb60" x="363.018786" y="230.338828" style="stroke: #000000; stroke-width: 0.6"/>
      </g>
     </g>
    </g>
    <g id="xtick_39">
     <g id="line2d_39">
      <g>
       <use xlink:href="#mbde00bdb60" x="375.565228" y="230.338828" style="stroke: #000000; stroke-width: 0.6"/>
      </g>
     </g>
    </g>
    <g id="xtick_40">
     <g id="line2d_40">
      <g>
       <use xlink:href="#mbde00bdb60" x="384.46707" y="230.338828" style="stroke: #000000; stroke-width: 0.6"/>
      </g>
     </g>
    </g>
    <g id="xtick_41">
     <g id="line2d_41">
      <g>
       <use xlink:href="#mbde00bdb60" x="391.371875" y="230.338828" style="stroke: #000000; stroke-width: 0.6"/>
      </g>
     </g>
    </g>
    <g id="text_6">
     <!-- $\frac{\gamma}{c}$ -->
     <g transform="translate(219.921875 270.406016) scale(0.15 -0.15)">
      <defs>
       <path id="DejaVuSans-Oblique-3b3" d="M 1491 2950 
L 1838 788 
L 3456 3500 
L 4066 3500 
L 1972 0 
L 1713 -1331 
L 1138 -1331 
L 1397 0 
L 988 2613 
Q 925 3006 628 3006 
L 475 3006 
L 569 3500 
L 788 3500 
Q 1403 3500 1491 2950 
z
" transform="scale(0.015625)"/>
       <path id="DejaVuSans-Oblique-63" d="M 3431 3366 
L 3316 2797 
Q 3109 2947 2876 3022 
Q 2644 3097 2394 3097 
Q 2119 3097 1870 3000 
Q 1622 2903 1453 2725 
Q 1184 2453 1037 2087 
Q 891 1722 891 1331 
Q 891 859 1127 628 
Q 1363 397 1844 397 
Q 2081 397 2348 469 
Q 2616 541 2906 684 
L 2797 116 
Q 2547 13 2283 -39 
Q 2019 -91 1741 -91 
Q 1044 -91 669 257 
Q 294 606 294 1253 
Q 294 1797 489 2255 
Q 684 2713 1069 3078 
Q 1331 3328 1684 3456 
Q 2038 3584 2456 3584 
Q 2700 3584 2940 3529 
Q 3181 3475 3431 3366 
z
" transform="scale(0.015625)"/>
      </defs>
      <use xlink:href="#DejaVuSans-Oblique-3b3" transform="translate(0 58.71875) scale(0.7)"/>
      <use xlink:href="#DejaVuSans-Oblique-63" transform="translate(1 -26.289062) scale(0.7)"/>
      <path d="M 0 19.160938 
L 0 25.410938 
L 41.425781 25.410938 
L 41.425781 19.160938 
L 0 19.160938 
z
"/>
     </g>
    </g>
   </g>
   <g id="matplotlib.axis_2">
    <g id="ytick_1">
     <g id="line2d_42">
      <defs>
       <path id="m429c0b7133" d="M 0 0 
L -3.5 0 
" style="stroke: #000000; stroke-width: 0.8"/>
      </defs>
      <g>
       <use xlink:href="#m429c0b7133" x="56.571875" y="230.338828" style="stroke: #000000; stroke-width: 0.8"/>
      </g>
     </g>
     <g id="text_7">
      <!-- 0.0 -->
      <g transform="translate(25.717188 236.037656) scale(0.15 -0.15)">
       <defs>
        <path id="DejaVuSans-2e" d="M 684 794 
L 1344 794 
L 1344 0 
L 684 0 
L 684 794 
z
" transform="scale(0.015625)"/>
       </defs>
       <use xlink:href="#DejaVuSans-30"/>
       <use xlink:href="#DejaVuSans-2e" x="63.623047"/>
       <use xlink:href="#DejaVuSans-30" x="95.410156"/>
      </g>
     </g>
    </g>
    <g id="ytick_2">
     <g id="line2d_43">
      <g>
       <use xlink:href="#m429c0b7133" x="56.571875" y="186.850828" style="stroke: #000000; stroke-width: 0.8"/>
      </g>
     </g>
     <g id="text_8">
      <!-- 0.2 -->
      <g transform="translate(25.717188 192.549656) scale(0.15 -0.15)">
       <use xlink:href="#DejaVuSans-30"/>
       <use xlink:href="#DejaVuSans-2e" x="63.623047"/>
       <use xlink:href="#DejaVuSans-32" x="95.410156"/>
      </g>
     </g>
    </g>
    <g id="ytick_3">
     <g id="line2d_44">
      <g>
       <use xlink:href="#m429c0b7133" x="56.571875" y="143.362828" style="stroke: #000000; stroke-width: 0.8"/>
      </g>
     </g>
     <g id="text_9">
      <!-- 0.4 -->
      <g transform="translate(25.717188 149.061656) scale(0.15 -0.15)">
       <defs>
        <path id="DejaVuSans-34" d="M 2419 4116 
L 825 1625 
L 2419 1625 
L 2419 4116 
z
M 2253 4666 
L 3047 4666 
L 3047 1625 
L 3713 1625 
L 3713 1100 
L 3047 1100 
L 3047 0 
L 2419 0 
L 2419 1100 
L 313 1100 
L 313 1709 
L 2253 4666 
z
" transform="scale(0.015625)"/>
       </defs>
       <use xlink:href="#DejaVuSans-30"/>
       <use xlink:href="#DejaVuSans-2e" x="63.623047"/>
       <use xlink:href="#DejaVuSans-34" x="95.410156"/>
      </g>
     </g>
    </g>
    <g id="ytick_4">
     <g id="line2d_45">
      <g>
       <use xlink:href="#m429c0b7133" x="56.571875" y="99.874828" style="stroke: #000000; stroke-width: 0.8"/>
      </g>
     </g>
     <g id="text_10">
      <!-- 0.6 -->
      <g transform="translate(25.717188 105.573656) scale(0.15 -0.15)">
       <defs>
        <path id="DejaVuSans-36" d="M 2113 2584 
Q 1688 2584 1439 2293 
Q 1191 2003 1191 1497 
Q 1191 994 1439 701 
Q 1688 409 2113 409 
Q 2538 409 2786 701 
Q 3034 994 3034 1497 
Q 3034 2003 2786 2293 
Q 2538 2584 2113 2584 
z
M 3366 4563 
L 3366 3988 
Q 3128 4100 2886 4159 
Q 2644 4219 2406 4219 
Q 1781 4219 1451 3797 
Q 1122 3375 1075 2522 
Q 1259 2794 1537 2939 
Q 1816 3084 2150 3084 
Q 2853 3084 3261 2657 
Q 3669 2231 3669 1497 
Q 3669 778 3244 343 
Q 2819 -91 2113 -91 
Q 1303 -91 875 529 
Q 447 1150 447 2328 
Q 447 3434 972 4092 
Q 1497 4750 2381 4750 
Q 2619 4750 2861 4703 
Q 3103 4656 3366 4563 
z
" transform="scale(0.015625)"/>
       </defs>
       <use xlink:href="#DejaVuSans-30"/>
       <use xlink:href="#DejaVuSans-2e" x="63.623047"/>
       <use xlink:href="#DejaVuSans-36" x="95.410156"/>
      </g>
     </g>
    </g>
    <g id="ytick_5">
     <g id="line2d_46">
      <g>
       <use xlink:href="#m429c0b7133" x="56.571875" y="56.386828" style="stroke: #000000; stroke-width: 0.8"/>
      </g>
     </g>
     <g id="text_11">
      <!-- 0.8 -->
      <g transform="translate(25.717188 62.085656) scale(0.15 -0.15)">
       <defs>
        <path id="DejaVuSans-38" d="M 2034 2216 
Q 1584 2216 1326 1975 
Q 1069 1734 1069 1313 
Q 1069 891 1326 650 
Q 1584 409 2034 409 
Q 2484 409 2743 651 
Q 3003 894 3003 1313 
Q 3003 1734 2745 1975 
Q 2488 2216 2034 2216 
z
M 1403 2484 
Q 997 2584 770 2862 
Q 544 3141 544 3541 
Q 544 4100 942 4425 
Q 1341 4750 2034 4750 
Q 2731 4750 3128 4425 
Q 3525 4100 3525 3541 
Q 3525 3141 3298 2862 
Q 3072 2584 2669 2484 
Q 3125 2378 3379 2068 
Q 3634 1759 3634 1313 
Q 3634 634 3220 271 
Q 2806 -91 2034 -91 
Q 1263 -91 848 271 
Q 434 634 434 1313 
Q 434 1759 690 2068 
Q 947 2378 1403 2484 
z
M 1172 3481 
Q 1172 3119 1398 2916 
Q 1625 2713 2034 2713 
Q 2441 2713 2670 2916 
Q 2900 3119 2900 3481 
Q 2900 3844 2670 4047 
Q 2441 4250 2034 4250 
Q 1625 4250 1398 4047 
Q 1172 3844 1172 3481 
z
" transform="scale(0.015625)"/>
       </defs>
       <use xlink:href="#DejaVuSans-30"/>
       <use xlink:href="#DejaVuSans-2e" x="63.623047"/>
       <use xlink:href="#DejaVuSans-38" x="95.410156"/>
      </g>
     </g>
    </g>
    <g id="ytick_6">
     <g id="line2d_47">
      <g>
       <use xlink:href="#m429c0b7133" x="56.571875" y="12.898828" style="stroke: #000000; stroke-width: 0.8"/>
      </g>
     </g>
     <g id="text_12">
      <!-- 1.0 -->
      <g transform="translate(25.717188 18.597656) scale(0.15 -0.15)">
       <use xlink:href="#DejaVuSans-31"/>
       <use xlink:href="#DejaVuSans-2e" x="63.623047"/>
       <use xlink:href="#DejaVuSans-30" x="95.410156"/>
      </g>
     </g>
    </g>
    <g id="text_13">
     <!-- Success Probability -->
     <g transform="translate(18.597656 193.836797) rotate(-90) scale(0.15 -0.15)">
      <defs>
       <path id="DejaVuSans-53" d="M 3425 4513 
L 3425 3897 
Q 3066 4069 2747 4153 
Q 2428 4238 2131 4238 
Q 1616 4238 1336 4038 
Q 1056 3838 1056 3469 
Q 1056 3159 1242 3001 
Q 1428 2844 1947 2747 
L 2328 2669 
Q 3034 2534 3370 2195 
Q 3706 1856 3706 1288 
Q 3706 609 3251 259 
Q 2797 -91 1919 -91 
Q 1588 -91 1214 -16 
Q 841 59 441 206 
L 441 856 
Q 825 641 1194 531 
Q 1563 422 1919 422 
Q 2459 422 2753 634 
Q 3047 847 3047 1241 
Q 3047 1584 2836 1778 
Q 2625 1972 2144 2069 
L 1759 2144 
Q 1053 2284 737 2584 
Q 422 2884 422 3419 
Q 422 4038 858 4394 
Q 1294 4750 2059 4750 
Q 2388 4750 2728 4690 
Q 3069 4631 3425 4513 
z
" transform="scale(0.015625)"/>
       <path id="DejaVuSans-75" d="M 544 1381 
L 544 3500 
L 1119 3500 
L 1119 1403 
Q 1119 906 1312 657 
Q 1506 409 1894 409 
Q 2359 409 2629 706 
Q 2900 1003 2900 1516 
L 2900 3500 
L 3475 3500 
L 3475 0 
L 2900 0 
L 2900 538 
Q 2691 219 2414 64 
Q 2138 -91 1772 -91 
Q 1169 -91 856 284 
Q 544 659 544 1381 
z
M 1991 3584 
L 1991 3584 
z
" transform="scale(0.015625)"/>
       <path id="DejaVuSans-63" d="M 3122 3366 
L 3122 2828 
Q 2878 2963 2633 3030 
Q 2388 3097 2138 3097 
Q 1578 3097 1268 2742 
Q 959 2388 959 1747 
Q 959 1106 1268 751 
Q 1578 397 2138 397 
Q 2388 397 2633 464 
Q 2878 531 3122 666 
L 3122 134 
Q 2881 22 2623 -34 
Q 2366 -91 2075 -91 
Q 1284 -91 818 406 
Q 353 903 353 1747 
Q 353 2603 823 3093 
Q 1294 3584 2113 3584 
Q 2378 3584 2631 3529 
Q 2884 3475 3122 3366 
z
" transform="scale(0.015625)"/>
       <path id="DejaVuSans-65" d="M 3597 1894 
L 3597 1613 
L 953 1613 
Q 991 1019 1311 708 
Q 1631 397 2203 397 
Q 2534 397 2845 478 
Q 3156 559 3463 722 
L 3463 178 
Q 3153 47 2828 -22 
Q 2503 -91 2169 -91 
Q 1331 -91 842 396 
Q 353 884 353 1716 
Q 353 2575 817 3079 
Q 1281 3584 2069 3584 
Q 2775 3584 3186 3129 
Q 3597 2675 3597 1894 
z
M 3022 2063 
Q 3016 2534 2758 2815 
Q 2500 3097 2075 3097 
Q 1594 3097 1305 2825 
Q 1016 2553 972 2059 
L 3022 2063 
z
" transform="scale(0.015625)"/>
       <path id="DejaVuSans-73" d="M 2834 3397 
L 2834 2853 
Q 2591 2978 2328 3040 
Q 2066 3103 1784 3103 
Q 1356 3103 1142 2972 
Q 928 2841 928 2578 
Q 928 2378 1081 2264 
Q 1234 2150 1697 2047 
L 1894 2003 
Q 2506 1872 2764 1633 
Q 3022 1394 3022 966 
Q 3022 478 2636 193 
Q 2250 -91 1575 -91 
Q 1294 -91 989 -36 
Q 684 19 347 128 
L 347 722 
Q 666 556 975 473 
Q 1284 391 1588 391 
Q 1994 391 2212 530 
Q 2431 669 2431 922 
Q 2431 1156 2273 1281 
Q 2116 1406 1581 1522 
L 1381 1569 
Q 847 1681 609 1914 
Q 372 2147 372 2553 
Q 372 3047 722 3315 
Q 1072 3584 1716 3584 
Q 2034 3584 2315 3537 
Q 2597 3491 2834 3397 
z
" transform="scale(0.015625)"/>
       <path id="DejaVuSans-20" transform="scale(0.015625)"/>
       <path id="DejaVuSans-50" d="M 1259 4147 
L 1259 2394 
L 2053 2394 
Q 2494 2394 2734 2622 
Q 2975 2850 2975 3272 
Q 2975 3691 2734 3919 
Q 2494 4147 2053 4147 
L 1259 4147 
z
M 628 4666 
L 2053 4666 
Q 2838 4666 3239 4311 
Q 3641 3956 3641 3272 
Q 3641 2581 3239 2228 
Q 2838 1875 2053 1875 
L 1259 1875 
L 1259 0 
L 628 0 
L 628 4666 
z
" transform="scale(0.015625)"/>
       <path id="DejaVuSans-72" d="M 2631 2963 
Q 2534 3019 2420 3045 
Q 2306 3072 2169 3072 
Q 1681 3072 1420 2755 
Q 1159 2438 1159 1844 
L 1159 0 
L 581 0 
L 581 3500 
L 1159 3500 
L 1159 2956 
Q 1341 3275 1631 3429 
Q 1922 3584 2338 3584 
Q 2397 3584 2469 3576 
Q 2541 3569 2628 3553 
L 2631 2963 
z
" transform="scale(0.015625)"/>
       <path id="DejaVuSans-6f" d="M 1959 3097 
Q 1497 3097 1228 2736 
Q 959 2375 959 1747 
Q 959 1119 1226 758 
Q 1494 397 1959 397 
Q 2419 397 2687 759 
Q 2956 1122 2956 1747 
Q 2956 2369 2687 2733 
Q 2419 3097 1959 3097 
z
M 1959 3584 
Q 2709 3584 3137 3096 
Q 3566 2609 3566 1747 
Q 3566 888 3137 398 
Q 2709 -91 1959 -91 
Q 1206 -91 779 398 
Q 353 888 353 1747 
Q 353 2609 779 3096 
Q 1206 3584 1959 3584 
z
" transform="scale(0.015625)"/>
       <path id="DejaVuSans-62" d="M 3116 1747 
Q 3116 2381 2855 2742 
Q 2594 3103 2138 3103 
Q 1681 3103 1420 2742 
Q 1159 2381 1159 1747 
Q 1159 1113 1420 752 
Q 1681 391 2138 391 
Q 2594 391 2855 752 
Q 3116 1113 3116 1747 
z
M 1159 2969 
Q 1341 3281 1617 3432 
Q 1894 3584 2278 3584 
Q 2916 3584 3314 3078 
Q 3713 2572 3713 1747 
Q 3713 922 3314 415 
Q 2916 -91 2278 -91 
Q 1894 -91 1617 61 
Q 1341 213 1159 525 
L 1159 0 
L 581 0 
L 581 4863 
L 1159 4863 
L 1159 2969 
z
" transform="scale(0.015625)"/>
       <path id="DejaVuSans-61" d="M 2194 1759 
Q 1497 1759 1228 1600 
Q 959 1441 959 1056 
Q 959 750 1161 570 
Q 1363 391 1709 391 
Q 2188 391 2477 730 
Q 2766 1069 2766 1631 
L 2766 1759 
L 2194 1759 
z
M 3341 1997 
L 3341 0 
L 2766 0 
L 2766 531 
Q 2569 213 2275 61 
Q 1981 -91 1556 -91 
Q 1019 -91 701 211 
Q 384 513 384 1019 
Q 384 1609 779 1909 
Q 1175 2209 1959 2209 
L 2766 2209 
L 2766 2266 
Q 2766 2663 2505 2880 
Q 2244 3097 1772 3097 
Q 1472 3097 1187 3025 
Q 903 2953 641 2809 
L 641 3341 
Q 956 3463 1253 3523 
Q 1550 3584 1831 3584 
Q 2591 3584 2966 3190 
Q 3341 2797 3341 1997 
z
" transform="scale(0.015625)"/>
       <path id="DejaVuSans-69" d="M 603 3500 
L 1178 3500 
L 1178 0 
L 603 0 
L 603 3500 
z
M 603 4863 
L 1178 4863 
L 1178 4134 
L 603 4134 
L 603 4863 
z
" transform="scale(0.015625)"/>
       <path id="DejaVuSans-6c" d="M 603 4863 
L 1178 4863 
L 1178 0 
L 603 0 
L 603 4863 
z
" transform="scale(0.015625)"/>
       <path id="DejaVuSans-74" d="M 1172 4494 
L 1172 3500 
L 2356 3500 
L 2356 3053 
L 1172 3053 
L 1172 1153 
Q 1172 725 1289 603 
Q 1406 481 1766 481 
L 2356 481 
L 2356 0 
L 1766 0 
Q 1100 0 847 248 
Q 594 497 594 1153 
L 594 3053 
L 172 3053 
L 172 3500 
L 594 3500 
L 594 4494 
L 1172 4494 
z
" transform="scale(0.015625)"/>
       <path id="DejaVuSans-79" d="M 2059 -325 
Q 1816 -950 1584 -1140 
Q 1353 -1331 966 -1331 
L 506 -1331 
L 506 -850 
L 844 -850 
Q 1081 -850 1212 -737 
Q 1344 -625 1503 -206 
L 1606 56 
L 191 3500 
L 800 3500 
L 1894 763 
L 2988 3500 
L 3597 3500 
L 2059 -325 
z
" transform="scale(0.015625)"/>
      </defs>
      <use xlink:href="#DejaVuSans-53"/>
      <use xlink:href="#DejaVuSans-75" x="63.476562"/>
      <use xlink:href="#DejaVuSans-63" x="126.855469"/>
      <use xlink:href="#DejaVuSans-63" x="181.835938"/>
      <use xlink:href="#DejaVuSans-65" x="236.816406"/>
      <use xlink:href="#DejaVuSans-73" x="298.339844"/>
      <use xlink:href="#DejaVuSans-73" x="350.439453"/>
      <use xlink:href="#DejaVuSans-20" x="402.539062"/>
      <use xlink:href="#DejaVuSans-50" x="434.326172"/>
      <use xlink:href="#DejaVuSans-72" x="492.878906"/>
      <use xlink:href="#DejaVuSans-6f" x="531.742188"/>
      <use xlink:href="#DejaVuSans-62" x="592.923828"/>
      <use xlink:href="#DejaVuSans-61" x="656.400391"/>
      <use xlink:href="#DejaVuSans-62" x="717.679688"/>
      <use xlink:href="#DejaVuSans-69" x="781.15625"/>
      <use xlink:href="#DejaVuSans-6c" x="808.939453"/>
      <use xlink:href="#DejaVuSans-69" x="836.722656"/>
      <use xlink:href="#DejaVuSans-74" x="864.505859"/>
      <use xlink:href="#DejaVuSans-79" x="903.714844"/>
     </g>
    </g>
   </g>
   <g id="line2d_48">
    <path d="M 56.571875 184.831288 
L 98.632177 184.708306 
L 115.456297 184.448972 
L 125.550769 184.088114 
L 132.280418 183.676643 
L 139.010066 183.038701 
L 144.057302 182.338195 
L 149.104538 181.3632 
L 152.469362 180.508837 
L 155.834187 179.443458 
L 159.199011 178.115584 
L 162.563835 176.462575 
L 165.928659 174.409869 
L 169.293483 171.871943 
L 170.975895 170.392288 
L 172.658307 168.756794 
L 174.340719 166.954695 
L 176.023131 164.976657 
L 177.705543 162.81568 
L 181.070367 157.935399 
L 184.435192 152.35061 
L 187.800016 146.218508 
L 194.529664 133.717126 
L 196.212076 130.914743 
L 197.894488 128.388045 
L 199.5769 126.207997 
L 201.259312 124.438855 
L 202.941724 123.135921 
L 204.624136 122.343755 
L 206.306548 122.092417 
L 207.98896 122.386833 
L 209.671372 123.183439 
L 214.718609 126.605809 
L 216.401021 126.71603 
L 218.083433 125.353445 
L 219.765845 121.995977 
L 221.448257 116.359097 
L 223.130669 108.490916 
L 224.813081 98.764893 
L 228.177905 76.194269 
L 231.542729 53.81987 
L 233.225141 44.184677 
L 234.907553 36.256382 
L 236.589965 30.374726 
L 238.272378 26.636972 
L 239.95479 24.84218 
L 241.637202 24.512918 
L 243.319614 24.996085 
L 245.002026 25.612796 
L 246.684438 25.805325 
L 248.36685 25.236657 
L 250.049262 23.847192 
L 253.414086 19.816913 
L 255.096498 18.163699 
L 256.77891 17.256806 
L 258.461322 17.103271 
L 260.143734 17.334559 
L 261.826146 17.405549 
L 263.508558 16.97024 
L 266.873383 15.373884 
L 268.555795 15.062167 
L 268.555795 15.062167 
" clip-path="url(#pbc652c98a9)" style="fill: none; stroke: #ff00ff; stroke-width: 1.5; stroke-linecap: square"/>
   </g>
   <g id="line2d_49">
    <path d="M 56.571875 184.831297 
L 98.632177 184.708837 
L 115.456297 184.451686 
L 125.550769 184.09534 
L 133.96283 183.558744 
L 140.692478 182.861895 
L 145.739714 182.099883 
L 150.78695 181.044002 
L 154.151774 180.122796 
L 157.516599 178.978912 
L 160.881423 177.560259 
L 164.246247 175.804651 
L 167.611071 173.639955 
L 170.975895 170.986412 
L 172.658307 169.450739 
L 174.340719 167.762908 
L 176.023131 165.914617 
L 179.387955 161.713983 
L 182.75278 156.837611 
L 186.117604 151.352488 
L 191.16484 142.403564 
L 194.529664 136.436592 
L 197.894488 130.970266 
L 199.5769 128.565945 
L 201.259312 126.449117 
L 202.941724 124.662424 
L 204.624136 123.239228 
L 206.306548 122.200668 
L 207.98896 121.549531 
L 209.671372 121.258482 
L 211.353785 121.251981 
L 214.718609 121.434704 
L 216.401021 121.099043 
L 218.083433 120.042577 
L 219.765845 117.954828 
L 221.448257 114.622417 
L 223.130669 109.98259 
L 224.813081 104.137976 
L 226.495493 97.329513 
L 233.225141 67.357348 
L 234.907553 60.90284 
L 236.589965 55.395206 
L 238.272378 50.933287 
L 239.95479 47.483003 
L 241.637202 44.887737 
L 243.319614 42.907034 
L 246.684438 39.750982 
L 250.049262 36.487186 
L 253.414086 32.945218 
L 255.096498 31.317505 
L 256.77891 29.917997 
L 258.461322 28.765575 
L 261.826146 26.913183 
L 266.873383 24.299203 
L 270.238207 22.888463 
L 275.285443 21.140025 
L 278.650267 20.161499 
L 283.697503 18.921501 
L 288.744739 17.912151 
L 295.474388 16.841368 
L 302.204036 16.01187 
L 310.616096 15.227113 
L 313.98092 14.974303 
L 313.98092 14.974303 
" clip-path="url(#pbc652c98a9)" style="fill: none; stroke: #e600e6; stroke-width: 1.5; stroke-linecap: square"/>
   </g>
   <g id="line2d_50">
    <path d="M 56.571875 184.831306 
L 100.314589 184.694418 
L 115.456297 184.454368 
L 125.550769 184.102453 
L 133.96283 183.574774 
L 140.692478 182.892605 
L 145.739714 182.149895 
L 150.78695 181.125435 
L 154.151774 180.235463 
L 157.516599 179.134688 
L 160.881423 177.775367 
L 164.246247 176.101027 
L 167.611071 174.046788 
L 170.975895 171.541559 
L 174.340719 168.513529 
L 177.705543 164.900687 
L 181.070367 160.667837 
L 184.435192 155.829914 
L 187.800016 150.477725 
L 197.894488 133.639896 
L 199.5769 131.150237 
L 201.259312 128.86598 
L 202.941724 126.822391 
L 204.624136 125.047542 
L 206.306548 123.560119 
L 207.98896 122.365764 
L 209.671372 121.450809 
L 211.353785 120.773121 
L 216.401021 119.129654 
L 218.083433 118.162024 
L 219.765845 116.662695 
L 221.448257 114.474314 
L 223.130669 111.50846 
L 224.813081 107.762283 
L 226.495493 103.316472 
L 228.177905 98.31829 
L 234.907553 76.779122 
L 236.589965 71.961423 
L 238.272378 67.629452 
L 239.95479 63.812717 
L 241.637202 60.481317 
L 243.319614 57.560781 
L 245.002026 54.954189 
L 248.36685 50.317596 
L 251.731674 46.085522 
L 255.096498 42.208206 
L 258.461322 38.828903 
L 261.826146 35.940311 
L 265.19097 33.39228 
L 268.555795 31.124523 
L 271.920619 29.13116 
L 275.285443 27.366902 
L 278.650267 25.802255 
L 283.697503 23.779885 
L 288.744739 22.085068 
L 293.791976 20.661743 
L 298.839212 19.464286 
L 303.886448 18.455337 
L 310.616096 17.350941 
L 317.345744 16.468966 
L 325.757805 15.610422 
L 334.169865 14.95993 
L 334.169865 14.95993 
" clip-path="url(#pbc652c98a9)" style="fill: none; stroke: #cc00cc; stroke-width: 1.5; stroke-linecap: square"/>
   </g>
   <g id="line2d_51">
    <path d="M 56.571875 184.831315 
L 100.314589 184.695034 
L 115.456297 184.45702 
L 125.550769 184.109454 
L 133.96283 183.590475 
L 140.692478 182.922534 
L 145.739714 182.198412 
L 150.78695 181.204009 
L 154.151774 180.343729 
L 157.516599 179.2837 
L 160.881423 177.980107 
L 164.246247 176.381587 
L 167.611071 174.429677 
L 170.975895 172.060886 
L 174.340719 169.211523 
L 177.705543 165.826604 
L 181.070367 161.873831 
L 184.435192 157.362299 
L 187.800016 152.362734 
L 192.847252 144.291904 
L 197.894488 136.270812 
L 201.259312 131.43111 
L 202.941724 129.264287 
L 204.624136 127.301164 
L 206.306548 125.559662 
L 207.98896 124.048375 
L 209.671372 122.762992 
L 211.353785 121.681331 
L 214.718609 119.919286 
L 216.401021 119.065432 
L 218.083433 118.075524 
L 219.765845 116.822527 
L 221.448257 115.191711 
L 223.130669 113.099176 
L 224.813081 110.505174 
L 226.495493 107.419034 
L 228.177905 103.895585 
L 231.542729 95.922126 
L 236.589965 83.40878 
L 239.95479 75.830984 
L 243.319614 69.234737 
L 246.684438 63.507034 
L 250.049262 58.412458 
L 253.414086 53.792688 
L 256.77891 49.605594 
L 260.143734 45.848894 
L 263.508558 42.487347 
L 266.873383 39.468312 
L 270.238207 36.755526 
L 273.603031 34.320001 
L 276.967855 32.132553 
L 280.332679 30.167816 
L 283.697503 28.40312 
L 287.062327 26.818079 
L 292.109563 24.737953 
L 297.1568 22.967476 
L 302.204036 21.460745 
L 307.251272 20.178659 
L 312.298508 19.087896 
L 319.028156 17.882678 
L 325.757805 16.911545 
L 334.169865 15.958689 
L 342.581925 15.231711 
L 345.946749 14.991749 
L 345.946749 14.991749 
" clip-path="url(#pbc652c98a9)" style="fill: none; stroke: #b200b2; stroke-width: 1.5; stroke-linecap: square"/>
   </g>
   <g id="line2d_52">
    <path d="M 56.571875 184.831324 
L 100.314589 184.695647 
L 115.456297 184.459642 
L 125.550769 184.116346 
L 133.96283 183.605856 
L 140.692478 182.951708 
L 145.739714 182.245492 
L 150.78695 181.279852 
L 154.151774 180.447813 
L 157.516599 179.426322 
L 160.881423 178.175114 
L 164.246247 176.647399 
L 167.611071 174.790394 
L 170.975895 172.547268 
L 174.340719 169.861405 
L 177.705543 166.683982 
L 181.070367 162.985553 
L 184.435192 158.771208 
L 187.800016 154.096703 
L 192.847252 146.49839 
L 197.894488 138.794118 
L 201.259312 133.996648 
L 204.624136 129.730961 
L 206.306548 127.850121 
L 207.98896 126.153624 
L 209.671372 124.643063 
L 211.353785 123.308176 
L 214.718609 121.046365 
L 218.083433 118.953961 
L 219.765845 117.777682 
L 221.448257 116.403325 
L 223.130669 114.760441 
L 224.813081 112.80077 
L 226.495493 110.504087 
L 228.177905 107.879459 
L 229.860317 104.96224 
L 233.225141 98.484507 
L 241.637202 81.604885 
L 245.002026 75.485551 
L 248.36685 69.856759 
L 251.731674 64.674281 
L 255.096498 59.897419 
L 258.461322 55.50624 
L 261.826146 51.486514 
L 265.19097 47.816443 
L 268.555795 44.470477 
L 271.920619 41.424498 
L 275.285443 38.655537 
L 278.650267 36.141433 
L 282.015091 33.861229 
L 285.379915 31.795228 
L 288.744739 29.925011 
L 292.109563 28.233435 
L 297.1568 25.996581 
L 302.204036 24.077559 
L 307.251272 22.433429 
L 312.298508 21.026472 
L 317.345744 19.823708 
L 324.075393 18.488575 
L 330.805041 17.408054 
L 337.534689 16.534555 
L 345.946749 15.67505 
L 354.35881 15.017677 
L 354.35881 15.017677 
" clip-path="url(#pbc652c98a9)" style="fill: none; stroke: #990099; stroke-width: 1.5; stroke-linecap: square"/>
   </g>
   <g id="line2d_53">
    <path d="M 56.571875 184.831333 
L 100.314589 184.696254 
L 115.456297 184.462235 
L 125.550769 184.123132 
L 133.96283 183.620926 
L 140.692478 182.980151 
L 145.739714 182.291189 
L 150.78695 181.353086 
L 154.151774 180.547921 
L 157.516599 179.562903 
L 160.881423 178.360977 
L 164.246247 176.899449 
L 167.611071 175.130562 
L 170.975895 173.003325 
L 174.340719 170.467273 
L 177.705543 167.478953 
L 181.070367 164.011576 
L 184.435192 160.067407 
L 187.800016 155.690776 
L 192.847252 148.539344 
L 199.5769 138.789899 
L 202.941724 134.272564 
L 206.306548 130.233572 
L 209.671372 126.782864 
L 213.036197 123.924859 
L 216.401021 121.502931 
L 219.765845 119.173141 
L 221.448257 117.899855 
L 223.130669 116.478342 
L 224.813081 114.863045 
L 226.495493 113.023817 
L 228.177905 110.948532 
L 229.860317 108.643088 
L 233.225141 103.439875 
L 236.589965 97.699318 
L 245.002026 82.954647 
L 250.049262 74.697258 
L 253.414086 69.564368 
L 256.77891 64.744159 
L 260.143734 60.241272 
L 263.508558 56.054913 
L 266.873383 52.178321 
L 270.238207 48.600489 
L 273.603031 45.307945 
L 276.967855 42.285695 
L 280.332679 39.517854 
L 283.697503 36.988161 
L 287.062327 34.68035 
L 290.427151 32.578426 
L 293.791976 30.666869 
L 298.839212 28.124064 
L 303.886448 25.929007 
L 308.933684 24.038504 
L 313.98092 22.413528 
L 319.028156 21.019165 
L 324.075393 19.824438 
L 330.805041 18.495327 
L 337.534689 17.41748 
L 344.264337 16.544725 
L 352.676398 15.684731 
L 361.088458 15.026176 
L 361.088458 15.026176 
" clip-path="url(#pbc652c98a9)" style="fill: none; stroke: #800080; stroke-width: 1.5; stroke-linecap: square"/>
   </g>
   <g id="line2d_54">
    <path d="M 56.571875 184.831342 
L 100.314589 184.696858 
L 115.456297 184.464798 
L 125.550769 184.129812 
L 133.96283 183.635692 
L 140.692478 183.007886 
L 145.739714 182.335554 
L 150.78695 181.423826 
L 154.151774 180.644249 
L 157.516599 179.693772 
L 160.881423 178.538246 
L 164.246247 177.138644 
L 167.611071 175.451668 
L 170.975895 173.431441 
L 174.340719 171.032848 
L 177.705543 168.217084 
L 181.070367 164.959759 
L 184.435192 161.261083 
L 187.800016 157.156452 
L 191.16484 152.724226 
L 202.941724 136.664112 
L 206.306548 132.599501 
L 209.671372 129.009557 
L 213.036197 125.925507 
L 216.401021 123.264387 
L 223.130669 118.231186 
L 226.495493 115.216965 
L 228.177905 113.475182 
L 229.860317 111.561265 
L 233.225141 107.236679 
L 236.589965 102.364242 
L 241.637202 94.451715 
L 250.049262 81.044653 
L 255.096498 73.419386 
L 260.143734 66.306095 
L 263.508558 61.885484 
L 266.873383 57.734546 
L 270.238207 53.856098 
L 273.603031 50.247816 
L 276.967855 46.903544 
L 280.332679 43.814317 
L 283.697503 40.969167 
L 287.062327 38.355771 
L 290.427151 35.96097 
L 293.791976 33.771175 
L 297.1568 31.772689 
L 302.204036 29.104104 
L 307.251272 26.791352 
L 312.298508 24.792863 
L 317.345744 23.070262 
L 322.392981 21.588649 
L 327.440217 20.316645 
L 334.169865 18.89887 
L 340.899513 17.747065 
L 347.629161 16.813091 
L 356.041222 15.89162 
L 364.453282 15.18522 
L 366.135694 15.065189 
L 366.135694 15.065189 
" clip-path="url(#pbc652c98a9)" style="fill: none; stroke: #660066; stroke-width: 1.5; stroke-linecap: square"/>
   </g>
   <g id="line2d_55">
    <path d="M 56.571875 184.831351 
L 100.314589 184.697458 
L 117.138709 184.425555 
L 127.233182 184.05817 
L 135.645242 183.519077 
L 142.37489 182.837845 
L 147.422126 182.112055 
L 152.469362 181.133098 
L 155.834187 180.300293 
L 159.199011 179.289728 
L 162.563835 178.067741 
L 165.928659 176.596659 
L 169.293483 174.835847 
L 172.658307 172.743899 
L 176.023131 170.282461 
L 179.387955 167.422029 
L 182.75278 164.149676 
L 186.117604 160.477857 
L 189.482428 156.45232 
L 194.529664 149.942475 
L 202.941724 138.93005 
L 206.306548 134.888094 
L 209.671372 131.226613 
L 213.036197 127.992407 
L 216.401021 125.149095 
L 226.495493 117.210736 
L 229.860317 114.001411 
L 233.225141 110.277167 
L 236.589965 106.058035 
L 239.95479 101.439972 
L 245.002026 94.041989 
L 256.77891 76.482038 
L 261.826146 69.414145 
L 266.873383 62.815753 
L 270.238207 58.709827 
L 273.603031 54.849729 
L 276.967855 51.238669 
L 280.332679 47.875329 
L 283.697503 44.754862 
L 287.062327 41.869738 
L 290.427151 39.210452 
L 293.791976 36.76611 
L 297.1568 34.524917 
L 300.521624 32.47457 
L 305.56886 29.729565 
L 310.616096 27.344138 
L 315.663332 25.278167 
L 320.710568 23.494007 
L 325.757805 21.956989 
L 330.805041 20.635641 
L 335.852277 19.501719 
L 342.581925 18.238401 
L 349.311573 17.212515 
L 357.723634 16.199067 
L 366.135694 15.421295 
L 371.18293 15.044856 
L 371.18293 15.044856 
" clip-path="url(#pbc652c98a9)" style="fill: none; stroke: #4d004d; stroke-width: 1.5; stroke-linecap: square"/>
   </g>
   <g id="line2d_56">
    <path d="M 56.571875 184.83136 
L 100.314589 184.698053 
L 117.138709 184.428493 
L 127.233182 184.065751 
L 135.645242 183.53565 
L 142.37489 182.868631 
L 147.422126 182.160814 
L 152.469362 181.20994 
L 155.834187 180.404005 
L 159.199011 179.429242 
L 162.563835 178.25465 
L 165.928659 176.845791 
L 169.293483 175.165779 
L 172.658307 173.177256 
L 176.023131 170.845721 
L 179.387955 168.144477 
L 182.75278 165.061099 
L 186.117604 161.604722 
L 189.482428 157.812567 
L 194.529664 151.653658 
L 204.624136 139.031294 
L 207.98896 135.182742 
L 211.353785 131.669771 
L 214.718609 128.519334 
L 218.083433 125.687835 
L 228.177905 117.643813 
L 231.542729 114.522723 
L 234.907553 110.995182 
L 238.272378 107.058357 
L 241.637202 102.764603 
L 246.684438 95.83724 
L 265.19097 69.671764 
L 270.238207 63.191534 
L 275.285443 57.192768 
L 278.650267 53.480839 
L 282.015091 50.004214 
L 285.379915 46.762579 
L 288.744739 43.752139 
L 292.109563 40.966393 
L 295.474388 38.396816 
L 298.839212 36.033425 
L 302.204036 33.86526 
L 305.56886 31.880779 
L 310.616096 29.222638 
L 315.663332 26.91156 
L 320.710568 24.909196 
L 325.757805 23.179424 
L 330.805041 21.688885 
L 335.852277 20.407236 
L 342.581925 18.976604 
L 349.311573 17.812755 
L 356.041222 16.867987 
L 364.453282 15.934979 
L 372.865342 15.219148 
L 376.230166 14.982108 
L 376.230166 14.982108 
" clip-path="url(#pbc652c98a9)" style="fill: none; stroke: #330033; stroke-width: 1.5; stroke-linecap: square"/>
   </g>
   <g id="line2d_57">
    <path d="M 56.571875 184.831369 
L 100.314589 184.698644 
L 117.138709 184.431397 
L 127.233182 184.07321 
L 135.645242 183.551878 
L 142.37489 182.898629 
L 147.422126 182.208116 
L 152.469362 181.284113 
L 157.516599 180.055073 
L 160.881423 179.02341 
L 164.246247 177.787193 
L 167.611071 176.313697 
L 170.975895 174.568937 
L 174.340719 172.519977 
L 177.705543 170.138474 
L 181.070367 167.405558 
L 184.435192 164.317689 
L 187.800016 160.892595 
L 191.16484 157.17373 
L 196.212076 151.205066 
L 204.624136 141.063822 
L 207.98896 137.253403 
L 211.353785 133.712165 
L 214.718609 130.478377 
L 218.083433 127.537069 
L 223.130669 123.492077 
L 228.177905 119.472085 
L 231.542729 116.562965 
L 234.907553 113.35005 
L 238.272378 109.790152 
L 241.637202 105.889112 
L 245.002026 101.688239 
L 250.049262 94.964395 
L 260.143734 80.883525 
L 266.873383 71.710326 
L 271.920619 65.204548 
L 276.967855 59.125893 
L 282.015091 53.529234 
L 285.379915 50.079172 
L 288.744739 46.85622 
L 292.109563 43.858099 
L 295.474388 41.079618 
L 298.839212 38.513361 
L 302.204036 36.150269 
L 305.56886 33.980143 
L 308.933684 31.992056 
L 313.98092 29.326474 
L 319.028156 27.00659 
L 324.075393 24.994907 
L 329.122629 23.255869 
L 334.169865 21.756469 
L 339.217101 20.466568 
L 345.946749 19.026054 
L 352.676398 17.853656 
L 359.406046 16.901619 
L 367.818106 15.961149 
L 376.230166 15.239405 
L 379.594991 15.000372 
L 379.594991 15.000372 
" clip-path="url(#pbc652c98a9)" style="fill: none; stroke: #190019; stroke-width: 1.5; stroke-linecap: square"/>
   </g>
   <g id="line2d_58">
    <path d="M 56.571875 183.81911 
L 70.031171 183.26176 
L 80.125644 182.651832 
L 90.220116 181.806614 
L 98.632177 180.859083 
L 105.361825 179.894411 
L 112.091473 178.700616 
L 118.821121 177.227917 
L 123.868357 175.906505 
L 128.915594 174.370647 
L 133.96283 172.593975 
L 139.010066 170.551114 
L 144.057302 168.21989 
L 149.104538 165.58418 
L 154.151774 162.63726 
L 159.199011 159.385257 
L 164.246247 155.850085 
L 169.293483 152.071005 
L 176.023131 146.751165 
L 201.259312 126.402803 
L 211.353785 118.398461 
L 216.401021 114.156642 
L 221.448257 109.603238 
L 226.495493 104.655628 
L 231.542729 99.283561 
L 236.589965 93.518312 
L 243.319614 85.37718 
L 258.461322 66.72955 
L 263.508558 60.886891 
L 268.555795 55.397042 
L 273.603031 50.316794 
L 278.650267 45.676577 
L 282.015091 42.83261 
L 285.379915 40.186715 
L 288.744739 37.734551 
L 292.109563 35.469741 
L 297.1568 32.406269 
L 302.204036 29.71568 
L 307.251272 27.364622 
L 312.298508 25.319099 
L 317.345744 23.545891 
L 322.392981 22.013485 
L 327.440217 20.692637 
L 334.169865 19.214846 
L 340.899513 18.010046 
L 347.629161 17.030366 
L 356.041222 16.061442 
L 364.453282 15.317101 
L 367.818106 15.07044 
L 367.818106 15.07044 
" clip-path="url(#pbc652c98a9)" style="fill: none; stroke-dasharray: 5.55,2.4; stroke-dashoffset: 0; stroke: #bfbf00; stroke-width: 1.5"/>
   </g>
   <g id="patch_3">
    <path d="M 56.571875 230.338828 
L 56.571875 12.898828 
" style="fill: none; stroke: #000000; stroke-width: 0.8; stroke-linejoin: miter; stroke-linecap: square"/>
   </g>
   <g id="patch_4">
    <path d="M 391.371875 230.338828 
L 391.371875 12.898828 
" style="fill: none; stroke: #000000; stroke-width: 0.8; stroke-linejoin: miter; stroke-linecap: square"/>
   </g>
   <g id="patch_5">
    <path d="M 56.571875 230.338828 
L 391.371875 230.338828 
" style="fill: none; stroke: #000000; stroke-width: 0.8; stroke-linejoin: miter; stroke-linecap: square"/>
   </g>
   <g id="patch_6">
    <path d="M 56.571875 12.898828 
L 391.371875 12.898828 
" style="fill: none; stroke: #000000; stroke-width: 0.8; stroke-linejoin: miter; stroke-linecap: square"/>
   </g>
  </g>
  <g id="axes_2">
   <g id="patch_7">
    <path d="M 274.731875 223.138828 
L 382.731875 223.138828 
L 382.731875 151.138828 
L 274.731875 151.138828 
z
" style="fill: #ffffff"/>
   </g>
   <g id="matplotlib.axis_3">
    <g id="xtick_42">
     <g id="line2d_59">
      <defs>
       <path id="m46e83d2dc7" d="M 0 0 
L 0 -3.5 
" style="stroke: #000000; stroke-width: 0.8"/>
      </defs>
      <g>
       <use xlink:href="#m46e83d2dc7" x="279.640966" y="151.138828" style="stroke: #000000; stroke-width: 0.8"/>
      </g>
     </g>
     <g id="text_14">
      <!-- 0.0 -->
      <g transform="translate(270.099091 141.643203) scale(0.12 -0.12)">
       <use xlink:href="#DejaVuSans-30"/>
       <use xlink:href="#DejaVuSans-2e" x="63.623047"/>
       <use xlink:href="#DejaVuSans-30" x="95.410156"/>
      </g>
     </g>
    </g>
    <g id="xtick_43">
     <g id="line2d_60">
      <g>
       <use xlink:href="#m46e83d2dc7" x="328.731875" y="151.138828" style="stroke: #000000; stroke-width: 0.8"/>
      </g>
     </g>
     <g id="text_15">
      <!-- 0.5 -->
      <g transform="translate(319.19 141.643203) scale(0.12 -0.12)">
       <defs>
        <path id="DejaVuSans-35" d="M 691 4666 
L 3169 4666 
L 3169 4134 
L 1269 4134 
L 1269 2991 
Q 1406 3038 1543 3061 
Q 1681 3084 1819 3084 
Q 2600 3084 3056 2656 
Q 3513 2228 3513 1497 
Q 3513 744 3044 326 
Q 2575 -91 1722 -91 
Q 1428 -91 1123 -41 
Q 819 9 494 109 
L 494 744 
Q 775 591 1075 516 
Q 1375 441 1709 441 
Q 2250 441 2565 725 
Q 2881 1009 2881 1497 
Q 2881 1984 2565 2268 
Q 2250 2553 1709 2553 
Q 1456 2553 1204 2497 
Q 953 2441 691 2322 
L 691 4666 
z
" transform="scale(0.015625)"/>
       </defs>
       <use xlink:href="#DejaVuSans-30"/>
       <use xlink:href="#DejaVuSans-2e" x="63.623047"/>
       <use xlink:href="#DejaVuSans-35" x="95.410156"/>
      </g>
     </g>
    </g>
    <g id="xtick_44">
     <g id="line2d_61">
      <g>
       <use xlink:href="#m46e83d2dc7" x="377.822784" y="151.138828" style="stroke: #000000; stroke-width: 0.8"/>
      </g>
     </g>
     <g id="text_16">
      <!-- 1.0 -->
      <g transform="translate(368.280909 141.643203) scale(0.12 -0.12)">
       <use xlink:href="#DejaVuSans-31"/>
       <use xlink:href="#DejaVuSans-2e" x="63.623047"/>
       <use xlink:href="#DejaVuSans-30" x="95.410156"/>
      </g>
     </g>
    </g>
    <g id="text_17">
     <!-- $\frac{\eta}{4\sqrt{2}\gamma}$ -->
     <g transform="translate(316.551875 128.525078) scale(0.12 -0.12)">
      <defs>
       <path id="DejaVuSans-Oblique-3b7" d="M 3703 2113 
L 3034 -1331 
L 2459 -1331 
L 3125 2094 
Q 3222 2591 3075 2838 
Q 2931 3084 2544 3084 
Q 2078 3084 1750 2788 
Q 1425 2491 1325 1978 
L 941 0 
L 363 0 
L 1044 3500 
L 1622 3500 
L 1516 2956 
Q 1781 3272 2094 3428 
Q 2403 3584 2769 3584 
Q 3372 3584 3609 3213 
Q 3844 2838 3703 2113 
z
" transform="scale(0.015625)"/>
       <path id="STIXSizeOneSym-Regular-221a" d="M 6970 9933 
L 3373 -1888 
L 3104 -1888 
L 1626 2918 
Q 1555 3149 1465 3251 
Q 1376 3354 1229 3354 
Q 1011 3354 794 3181 
L 717 3309 
L 1766 4115 
L 1926 4115 
L 3379 -602 
L 3405 -602 
L 6605 9933 
L 6970 9933 
z
" transform="scale(0.015625)"/>
      </defs>
      <use xlink:href="#DejaVuSans-Oblique-3b7" transform="translate(73 58.8) scale(0.7)"/>
      <use xlink:href="#DejaVuSans-34" transform="translate(0 -64.904687) scale(0.7)"/>
      <use xlink:href="#STIXSizeOneSym-Regular-221a" transform="translate(44.536133 -53.135938) scale(0.399712)"/>
      <use xlink:href="#DejaVuSans-32" transform="translate(95.552916 -65.335938) scale(0.7)"/>
      <use xlink:href="#DejaVuSans-Oblique-3b3" transform="translate(148.839049 -64.904687) scale(0.7)"/>
      <path d="M 0 19.242188 
L 0 25.492188 
L 190.26483 25.492188 
L 190.26483 19.242188 
L 0 19.242188 
z
"/>
      <path d="M 86.802916 4.242188 
L 86.802916 8.617188 
L 148.839049 8.617188 
L 148.839049 4.242188 
L 86.802916 4.242188 
z
"/>
     </g>
    </g>
   </g>
   <g id="matplotlib.axis_4">
    <g id="ytick_7">
     <g id="line2d_62">
      <g>
       <use xlink:href="#m429c0b7133" x="274.731875" y="218.825652" style="stroke: #000000; stroke-width: 0.8"/>
      </g>
     </g>
     <g id="text_18">
      <!-- $\mathdefault{10^{1}}$ -->
      <g transform="translate(246.611875 223.384715) scale(0.12 -0.12)">
       <use xlink:href="#DejaVuSans-31" transform="translate(0 0.684375)"/>
       <use xlink:href="#DejaVuSans-30" transform="translate(63.623047 0.684375)"/>
       <use xlink:href="#DejaVuSans-31" transform="translate(128.203125 38.965625) scale(0.7)"/>
      </g>
     </g>
    </g>
    <g id="ytick_8">
     <g id="line2d_63">
      <g>
       <use xlink:href="#m429c0b7133" x="274.731875" y="176.825943" style="stroke: #000000; stroke-width: 0.8"/>
      </g>
     </g>
     <g id="text_19">
      <!-- $\mathdefault{10^{2}}$ -->
      <g transform="translate(246.611875 181.385006) scale(0.12 -0.12)">
       <use xlink:href="#DejaVuSans-31" transform="translate(0 0.765625)"/>
       <use xlink:href="#DejaVuSans-30" transform="translate(63.623047 0.765625)"/>
       <use xlink:href="#DejaVuSans-32" transform="translate(128.203125 39.046875) scale(0.7)"/>
      </g>
     </g>
    </g>
    <g id="ytick_9">
     <g id="line2d_64">
      <defs>
       <path id="mcf5c74717f" d="M 0 0 
L -2 0 
" style="stroke: #000000; stroke-width: 0.6"/>
      </defs>
      <g>
       <use xlink:href="#mcf5c74717f" x="274.731875" y="222.895844" style="stroke: #000000; stroke-width: 0.6"/>
      </g>
     </g>
    </g>
    <g id="ytick_10">
     <g id="line2d_65">
      <g>
       <use xlink:href="#mcf5c74717f" x="274.731875" y="220.747453" style="stroke: #000000; stroke-width: 0.6"/>
      </g>
     </g>
    </g>
    <g id="ytick_11">
     <g id="line2d_66">
      <g>
       <use xlink:href="#mcf5c74717f" x="274.731875" y="206.18248" style="stroke: #000000; stroke-width: 0.6"/>
      </g>
     </g>
    </g>
    <g id="ytick_12">
     <g id="line2d_67">
      <g>
       <use xlink:href="#mcf5c74717f" x="274.731875" y="198.786698" style="stroke: #000000; stroke-width: 0.6"/>
      </g>
     </g>
    </g>
    <g id="ytick_13">
     <g id="line2d_68">
      <g>
       <use xlink:href="#mcf5c74717f" x="274.731875" y="193.539308" style="stroke: #000000; stroke-width: 0.6"/>
      </g>
     </g>
    </g>
    <g id="ytick_14">
     <g id="line2d_69">
      <g>
       <use xlink:href="#mcf5c74717f" x="274.731875" y="189.469115" style="stroke: #000000; stroke-width: 0.6"/>
      </g>
     </g>
    </g>
    <g id="ytick_15">
     <g id="line2d_70">
      <g>
       <use xlink:href="#mcf5c74717f" x="274.731875" y="186.143526" style="stroke: #000000; stroke-width: 0.6"/>
      </g>
     </g>
    </g>
    <g id="ytick_16">
     <g id="line2d_71">
      <g>
       <use xlink:href="#mcf5c74717f" x="274.731875" y="183.331781" style="stroke: #000000; stroke-width: 0.6"/>
      </g>
     </g>
    </g>
    <g id="ytick_17">
     <g id="line2d_72">
      <g>
       <use xlink:href="#mcf5c74717f" x="274.731875" y="180.896136" style="stroke: #000000; stroke-width: 0.6"/>
      </g>
     </g>
    </g>
    <g id="ytick_18">
     <g id="line2d_73">
      <g>
       <use xlink:href="#mcf5c74717f" x="274.731875" y="178.747745" style="stroke: #000000; stroke-width: 0.6"/>
      </g>
     </g>
    </g>
    <g id="ytick_19">
     <g id="line2d_74">
      <g>
       <use xlink:href="#mcf5c74717f" x="274.731875" y="164.182771" style="stroke: #000000; stroke-width: 0.6"/>
      </g>
     </g>
    </g>
    <g id="ytick_20">
     <g id="line2d_75">
      <g>
       <use xlink:href="#mcf5c74717f" x="274.731875" y="156.78699" style="stroke: #000000; stroke-width: 0.6"/>
      </g>
     </g>
    </g>
    <g id="ytick_21">
     <g id="line2d_76">
      <g>
       <use xlink:href="#mcf5c74717f" x="274.731875" y="151.539599" style="stroke: #000000; stroke-width: 0.6"/>
      </g>
     </g>
    </g>
    <g id="text_20">
     <!-- $\frac{\gamma}{c}$ for 99% -->
     <g transform="translate(239.251875 215.818828) rotate(-90) scale(0.12 -0.12)">
      <defs>
       <path id="DejaVuSans-66" d="M 2375 4863 
L 2375 4384 
L 1825 4384 
Q 1516 4384 1395 4259 
Q 1275 4134 1275 3809 
L 1275 3500 
L 2222 3500 
L 2222 3053 
L 1275 3053 
L 1275 0 
L 697 0 
L 697 3053 
L 147 3053 
L 147 3500 
L 697 3500 
L 697 3744 
Q 697 4328 969 4595 
Q 1241 4863 1831 4863 
L 2375 4863 
z
" transform="scale(0.015625)"/>
       <path id="DejaVuSans-39" d="M 703 97 
L 703 672 
Q 941 559 1184 500 
Q 1428 441 1663 441 
Q 2288 441 2617 861 
Q 2947 1281 2994 2138 
Q 2813 1869 2534 1725 
Q 2256 1581 1919 1581 
Q 1219 1581 811 2004 
Q 403 2428 403 3163 
Q 403 3881 828 4315 
Q 1253 4750 1959 4750 
Q 2769 4750 3195 4129 
Q 3622 3509 3622 2328 
Q 3622 1225 3098 567 
Q 2575 -91 1691 -91 
Q 1453 -91 1209 -44 
Q 966 3 703 97 
z
M 1959 2075 
Q 2384 2075 2632 2365 
Q 2881 2656 2881 3163 
Q 2881 3666 2632 3958 
Q 2384 4250 1959 4250 
Q 1534 4250 1286 3958 
Q 1038 3666 1038 3163 
Q 1038 2656 1286 2365 
Q 1534 2075 1959 2075 
z
" transform="scale(0.015625)"/>
       <path id="DejaVuSans-25" d="M 4653 2053 
Q 4381 2053 4226 1822 
Q 4072 1591 4072 1178 
Q 4072 772 4226 539 
Q 4381 306 4653 306 
Q 4919 306 5073 539 
Q 5228 772 5228 1178 
Q 5228 1588 5073 1820 
Q 4919 2053 4653 2053 
z
M 4653 2450 
Q 5147 2450 5437 2106 
Q 5728 1763 5728 1178 
Q 5728 594 5436 251 
Q 5144 -91 4653 -91 
Q 4153 -91 3862 251 
Q 3572 594 3572 1178 
Q 3572 1766 3864 2108 
Q 4156 2450 4653 2450 
z
M 1428 4353 
Q 1159 4353 1004 4120 
Q 850 3888 850 3481 
Q 850 3069 1003 2837 
Q 1156 2606 1428 2606 
Q 1700 2606 1854 2837 
Q 2009 3069 2009 3481 
Q 2009 3884 1853 4118 
Q 1697 4353 1428 4353 
z
M 4250 4750 
L 4750 4750 
L 1831 -91 
L 1331 -91 
L 4250 4750 
z
M 1428 4750 
Q 1922 4750 2215 4408 
Q 2509 4066 2509 3481 
Q 2509 2891 2217 2550 
Q 1925 2209 1428 2209 
Q 931 2209 642 2551 
Q 353 2894 353 3481 
Q 353 4063 643 4406 
Q 934 4750 1428 4750 
z
" transform="scale(0.015625)"/>
      </defs>
      <use xlink:href="#DejaVuSans-Oblique-3b3" transform="translate(0 58.71875) scale(0.7)"/>
      <use xlink:href="#DejaVuSans-Oblique-63" transform="translate(1 -26.289062) scale(0.7)"/>
      <use xlink:href="#DejaVuSans-20" transform="translate(53.925781 0.364062)"/>
      <use xlink:href="#DejaVuSans-66" transform="translate(85.712891 0.364062)"/>
      <use xlink:href="#DejaVuSans-6f" transform="translate(120.917969 0.364062)"/>
      <use xlink:href="#DejaVuSans-72" transform="translate(182.099609 0.364062)"/>
      <use xlink:href="#DejaVuSans-20" transform="translate(223.212891 0.364062)"/>
      <use xlink:href="#DejaVuSans-39" transform="translate(255 0.364062)"/>
      <use xlink:href="#DejaVuSans-39" transform="translate(318.623047 0.364062)"/>
      <use xlink:href="#DejaVuSans-25" transform="translate(382.246094 0.364062)"/>
      <path d="M 0 19.160938 
L 0 25.410938 
L 41.425781 25.410938 
L 41.425781 19.160938 
L 0 19.160938 
z
"/>
     </g>
    </g>
   </g>
   <g id="line2d_77">
    <defs>
     <path id="m915163ed22" d="M 0 -5 
L -1.12257 -1.545085 
L -4.755283 -1.545085 
L -1.816356 0.59017 
L -2.938926 4.045085 
L -0 1.90983 
L 2.938926 4.045085 
L 1.816356 0.59017 
L 4.755283 -1.545085 
L 1.12257 -1.545085 
z
" style="stroke: #ff00ff; stroke-linejoin: bevel"/>
    </defs>
    <g clip-path="url(#p17ff7d6407)">
     <use xlink:href="#m915163ed22" x="279.640966" y="219.866101" style="fill: #ff00ff; stroke: #ff00ff; stroke-linejoin: bevel"/>
    </g>
   </g>
   <g id="line2d_78">
    <defs>
     <path id="md7ff72fd14" d="M 0 -5 
L -1.12257 -1.545085 
L -4.755283 -1.545085 
L -1.816356 0.59017 
L -2.938926 4.045085 
L -0 1.90983 
L 2.938926 4.045085 
L 1.816356 0.59017 
L 4.755283 -1.545085 
L 1.12257 -1.545085 
z
" style="stroke: #e600e6; stroke-linejoin: bevel"/>
    </defs>
    <g clip-path="url(#p17ff7d6407)">
     <use xlink:href="#md7ff72fd14" x="290.550057" y="193.089241" style="fill: #e600e6; stroke: #e600e6; stroke-linejoin: bevel"/>
    </g>
   </g>
   <g id="line2d_79">
    <defs>
     <path id="m66a6a93044" d="M 0 -5 
L -1.12257 -1.545085 
L -4.755283 -1.545085 
L -1.816356 0.59017 
L -2.938926 4.045085 
L -0 1.90983 
L 2.938926 4.045085 
L 1.816356 0.59017 
L 4.755283 -1.545085 
L 1.12257 -1.545085 
z
" style="stroke: #cc00cc; stroke-linejoin: bevel"/>
    </defs>
    <g clip-path="url(#p17ff7d6407)">
     <use xlink:href="#m66a6a93044" x="301.459148" y="181.188415" style="fill: #cc00cc; stroke: #cc00cc; stroke-linejoin: bevel"/>
    </g>
   </g>
   <g id="line2d_80">
    <defs>
     <path id="m74ee3fba64" d="M 0 -5 
L -1.12257 -1.545085 
L -4.755283 -1.545085 
L -1.816356 0.59017 
L -2.938926 4.045085 
L -0 1.90983 
L 2.938926 4.045085 
L 1.816356 0.59017 
L 4.755283 -1.545085 
L 1.12257 -1.545085 
z
" style="stroke: #b200b2; stroke-linejoin: bevel"/>
    </defs>
    <g clip-path="url(#p17ff7d6407)">
     <use xlink:href="#m74ee3fba64" x="312.368239" y="174.246266" style="fill: #b200b2; stroke: #b200b2; stroke-linejoin: bevel"/>
    </g>
   </g>
   <g id="line2d_81">
    <defs>
     <path id="mb4c2729636" d="M 0 -5 
L -1.12257 -1.545085 
L -4.755283 -1.545085 
L -1.816356 0.59017 
L -2.938926 4.045085 
L -0 1.90983 
L 2.938926 4.045085 
L 1.816356 0.59017 
L 4.755283 -1.545085 
L 1.12257 -1.545085 
z
" style="stroke: #990099; stroke-linejoin: bevel"/>
    </defs>
    <g clip-path="url(#p17ff7d6407)">
     <use xlink:href="#mb4c2729636" x="323.27733" y="169.287588" style="fill: #990099; stroke: #990099; stroke-linejoin: bevel"/>
    </g>
   </g>
   <g id="line2d_82">
    <defs>
     <path id="m759581ea85" d="M 0 -5 
L -1.12257 -1.545085 
L -4.755283 -1.545085 
L -1.816356 0.59017 
L -2.938926 4.045085 
L -0 1.90983 
L 2.938926 4.045085 
L 1.816356 0.59017 
L 4.755283 -1.545085 
L 1.12257 -1.545085 
z
" style="stroke: #800080; stroke-linejoin: bevel"/>
    </defs>
    <g clip-path="url(#p17ff7d6407)">
     <use xlink:href="#m759581ea85" x="334.18642" y="165.320646" style="fill: #800080; stroke: #800080; stroke-linejoin: bevel"/>
    </g>
   </g>
   <g id="line2d_83">
    <defs>
     <path id="m53c8158068" d="M 0 -5 
L -1.12257 -1.545085 
L -4.755283 -1.545085 
L -1.816356 0.59017 
L -2.938926 4.045085 
L -0 1.90983 
L 2.938926 4.045085 
L 1.816356 0.59017 
L 4.755283 -1.545085 
L 1.12257 -1.545085 
z
" style="stroke: #660066; stroke-linejoin: bevel"/>
    </defs>
    <g clip-path="url(#p17ff7d6407)">
     <use xlink:href="#m53c8158068" x="345.095511" y="162.34544" style="fill: #660066; stroke: #660066; stroke-linejoin: bevel"/>
    </g>
   </g>
   <g id="line2d_84">
    <defs>
     <path id="m97f719229f" d="M 0 -5 
L -1.12257 -1.545085 
L -4.755283 -1.545085 
L -1.816356 0.59017 
L -2.938926 4.045085 
L -0 1.90983 
L 2.938926 4.045085 
L 1.816356 0.59017 
L 4.755283 -1.545085 
L 1.12257 -1.545085 
z
" style="stroke: #4d004d; stroke-linejoin: bevel"/>
    </defs>
    <g clip-path="url(#p17ff7d6407)">
     <use xlink:href="#m97f719229f" x="356.004602" y="159.370233" style="fill: #4d004d; stroke: #4d004d; stroke-linejoin: bevel"/>
    </g>
   </g>
   <g id="line2d_85">
    <defs>
     <path id="m3631533a2b" d="M 0 -5 
L -1.12257 -1.545085 
L -4.755283 -1.545085 
L -1.816356 0.59017 
L -2.938926 4.045085 
L -0 1.90983 
L 2.938926 4.045085 
L 1.816356 0.59017 
L 4.755283 -1.545085 
L 1.12257 -1.545085 
z
" style="stroke: #330033; stroke-linejoin: bevel"/>
    </defs>
    <g clip-path="url(#p17ff7d6407)">
     <use xlink:href="#m3631533a2b" x="366.913693" y="156.395026" style="fill: #330033; stroke: #330033; stroke-linejoin: bevel"/>
    </g>
   </g>
   <g id="line2d_86">
    <defs>
     <path id="m152c3eab18" d="M 0 -5 
L -1.12257 -1.545085 
L -4.755283 -1.545085 
L -1.816356 0.59017 
L -2.938926 4.045085 
L -0 1.90983 
L 2.938926 4.045085 
L 1.816356 0.59017 
L 4.755283 -1.545085 
L 1.12257 -1.545085 
z
" style="stroke: #190019; stroke-linejoin: bevel"/>
    </defs>
    <g clip-path="url(#p17ff7d6407)">
     <use xlink:href="#m152c3eab18" x="377.822784" y="154.411555" style="fill: #190019; stroke: #190019; stroke-linejoin: bevel"/>
    </g>
   </g>
   <g id="line2d_87">
    <path d="M 279.640966 161.353704 
L 377.822784 161.353704 
" clip-path="url(#p17ff7d6407)" style="fill: none; stroke-dasharray: 5.55,2.4; stroke-dashoffset: 0; stroke: #bfbf00; stroke-width: 1.5"/>
   </g>
   <g id="patch_8">
    <path d="M 274.731875 223.138828 
L 274.731875 151.138828 
" style="fill: none; stroke: #000000; stroke-width: 0.8; stroke-linejoin: miter; stroke-linecap: square"/>
   </g>
   <g id="patch_9">
    <path d="M 382.731875 223.138828 
L 382.731875 151.138828 
" style="fill: none; stroke: #000000; stroke-width: 0.8; stroke-linejoin: miter; stroke-linecap: square"/>
   </g>
   <g id="patch_10">
    <path d="M 274.731875 223.138828 
L 382.731875 223.138828 
" style="fill: none; stroke: #000000; stroke-width: 0.8; stroke-linejoin: miter; stroke-linecap: square"/>
   </g>
   <g id="patch_11">
    <path d="M 274.731875 151.138828 
L 382.731875 151.138828 
" style="fill: none; stroke: #000000; stroke-width: 0.8; stroke-linejoin: miter; stroke-linecap: square"/>
   </g>
  </g>
 </g>
 <defs>
  <clipPath id="pbc652c98a9">
   <rect x="56.571875" y="12.898828" width="334.8" height="217.44"/>
  </clipPath>
  <clipPath id="p17ff7d6407">
   <rect x="274.731875" y="151.138828" width="108" height="72"/>
  </clipPath>
 </defs>
</svg>
