<?xml version="1.0" encoding="utf-8" standalone="no"?>
<!DOCTYPE svg PUBLIC "-//W3C//DTD SVG 1.1//EN"
  "http://www.w3.org/Graphics/SVG/1.1/DTD/svg11.dtd">
<svg xmlns:xlink="http://www.w3.org/1999/xlink" width="398.571875pt" height="277.573203pt" viewBox="0 0 398.571875 277.573203" xmlns="http://www.w3.org/2000/svg" version="1.1">
 <metadata>
  <rdf:RDF xmlns:dc="http://purl.org/dc/elements/1.1/" xmlns:cc="http://creativecommons.org/ns#" xmlns:rdf="http://www.w3.org/1999/02/22-rdf-syntax-ns#">
   <cc:Work>
    <dc:type rdf:resource="http://purl.org/dc/dcmitype/StillImage"/>
    <dc:date>2026-01-21T14:34:11.844549</dc:date>
    <dc:format>image/svg+xml</dc:format>
    <dc:creator>
     <cc:Agent>
      <dc:title>Matplotlib v3.6.3, https://matplotlib.org/</dc:title>
     </cc:Agent>
    </dc:creator>
   </cc:Work>
  </rdf:RDF>
 </metadata>
 <defs>
  <style type="text/css">*{stroke-linejoin: round; stroke-linecap: butt}</style>
 </defs>
 <g id="figure_1">
  <g id="patch_1">
   <path d="M 0 277.573203 
L 398.571875 277.573203 
L 398.571875 0 
L 0 0 
L 0 277.573203 
z
" style="fill: none"/>
  </g>
  <g id="axes_1">
   <g id="patch_2">
    <path d="M 56.571875 230.338828 
L 391.371875 230.338828 
L 391.371875 12.898828 
L 56.571875 12.898828 
z
" style="fill: #ffffff"/>
   </g>
   <g id="PolyCollection_1">
    <defs>
     <path id="m5600bb24c5" d="M 56.571875 -74.414375 
L 56.571875 -47.234375 
L 391.371875 -47.234375 
L 391.371875 -74.414375 
L 391.371875 -74.414375 
L 56.571875 -74.414375 
z
" style="stroke: #000000; stroke-opacity: 0.3"/>
    </defs>
    <g clip-path="url(#p528bc1ba1e)">
     <use xlink:href="#m5600bb24c5" x="0" y="277.573203" style="fill-opacity: 0.3; stroke: #000000; stroke-opacity: 0.3"/>
    </g>
   </g>
   <g id="matplotlib.axis_1">
    <g id="xtick_1">
     <g id="line2d_1">
      <defs>
       <path id="mfee1f09b5d" d="M 0 0 
L 0 3.5 
" style="stroke: #000000; stroke-width: 0.8"/>
      </defs>
      <g>
       <use xlink:href="#mfee1f09b5d" x="56.571875" y="230.338828" style="stroke: #000000; stroke-width: 0.8"/>
      </g>
     </g>
     <g id="text_1">
      <!-- $\mathdefault{10^{1}}$ -->
      <g transform="translate(43.371875 248.736484) scale(0.15 -0.15)">
       <defs>
        <path id="DejaVuSans-31" d="M 794 531 
L 1825 531 
L 1825 4091 
L 703 3866 
L 703 4441 
L 1819 4666 
L 2450 4666 
L 2450 531 
L 3481 531 
L 3481 0 
L 794 0 
L 794 531 
z
" transform="scale(0.015625)"/>
        <path id="DejaVuSans-30" d="M 2034 4250 
Q 1547 4250 1301 3770 
Q 1056 3291 1056 2328 
Q 1056 1369 1301 889 
Q 1547 409 2034 409 
Q 2525 409 2770 889 
Q 3016 1369 3016 2328 
Q 3016 3291 2770 3770 
Q 2525 4250 2034 4250 
z
M 2034 4750 
Q 2819 4750 3233 4129 
Q 3647 3509 3647 2328 
Q 3647 1150 3233 529 
Q 2819 -91 2034 -91 
Q 1250 -91 836 529 
Q 422 1150 422 2328 
Q 422 3509 836 4129 
Q 1250 4750 2034 4750 
z
" transform="scale(0.015625)"/>
       </defs>
       <use xlink:href="#DejaVuSans-31" transform="translate(0 0.684375)"/>
       <use xlink:href="#DejaVuSans-30" transform="translate(63.623047 0.684375)"/>
       <use xlink:href="#DejaVuSans-31" transform="translate(128.203125 38.965625) scale(0.7)"/>
      </g>
     </g>
    </g>
    <g id="xtick_2">
     <g id="line2d_2">
      <g>
       <use xlink:href="#mfee1f09b5d" x="134.413694" y="230.338828" style="stroke: #000000; stroke-width: 0.8"/>
      </g>
     </g>
     <g id="text_2">
      <!-- $\mathdefault{10^{2}}$ -->
      <g transform="translate(121.213694 248.736484) scale(0.15 -0.15)">
       <defs>
        <path id="DejaVuSans-32" d="M 1228 531 
L 3431 531 
L 3431 0 
L 469 0 
L 469 531 
Q 828 903 1448 1529 
Q 2069 2156 2228 2338 
Q 2531 2678 2651 2914 
Q 2772 3150 2772 3378 
Q 2772 3750 2511 3984 
Q 2250 4219 1831 4219 
Q 1534 4219 1204 4116 
Q 875 4013 500 3803 
L 500 4441 
Q 881 4594 1212 4672 
Q 1544 4750 1819 4750 
Q 2544 4750 2975 4387 
Q 3406 4025 3406 3419 
Q 3406 3131 3298 2873 
Q 3191 2616 2906 2266 
Q 2828 2175 2409 1742 
Q 1991 1309 1228 531 
z
" transform="scale(0.015625)"/>
       </defs>
       <use xlink:href="#DejaVuSans-31" transform="translate(0 0.765625)"/>
       <use xlink:href="#DejaVuSans-30" transform="translate(63.623047 0.765625)"/>
       <use xlink:href="#DejaVuSans-32" transform="translate(128.203125 39.046875) scale(0.7)"/>
      </g>
     </g>
    </g>
    <g id="xtick_3">
     <g id="line2d_3">
      <g>
       <use xlink:href="#mfee1f09b5d" x="212.255514" y="230.338828" style="stroke: #000000; stroke-width: 0.8"/>
      </g>
     </g>
     <g id="text_3">
      <!-- $\mathdefault{10^{3}}$ -->
      <g transform="translate(199.055514 248.736484) scale(0.15 -0.15)">
       <defs>
        <path id="DejaVuSans-33" d="M 2597 2516 
Q 3050 2419 3304 2112 
Q 3559 1806 3559 1356 
Q 3559 666 3084 287 
Q 2609 -91 1734 -91 
Q 1441 -91 1130 -33 
Q 819 25 488 141 
L 488 750 
Q 750 597 1062 519 
Q 1375 441 1716 441 
Q 2309 441 2620 675 
Q 2931 909 2931 1356 
Q 2931 1769 2642 2001 
Q 2353 2234 1838 2234 
L 1294 2234 
L 1294 2753 
L 1863 2753 
Q 2328 2753 2575 2939 
Q 2822 3125 2822 3475 
Q 2822 3834 2567 4026 
Q 2313 4219 1838 4219 
Q 1578 4219 1281 4162 
Q 984 4106 628 3988 
L 628 4550 
Q 988 4650 1302 4700 
Q 1616 4750 1894 4750 
Q 2613 4750 3031 4423 
Q 3450 4097 3450 3541 
Q 3450 3153 3228 2886 
Q 3006 2619 2597 2516 
z
" transform="scale(0.015625)"/>
       </defs>
       <use xlink:href="#DejaVuSans-31" transform="translate(0 0.765625)"/>
       <use xlink:href="#DejaVuSans-30" transform="translate(63.623047 0.765625)"/>
       <use xlink:href="#DejaVuSans-33" transform="translate(128.203125 39.046875) scale(0.7)"/>
      </g>
     </g>
    </g>
    <g id="xtick_4">
     <g id="line2d_4">
      <g>
       <use xlink:href="#mfee1f09b5d" x="290.097333" y="230.338828" style="stroke: #000000; stroke-width: 0.8"/>
      </g>
     </g>
     <g id="text_4">
      <!-- $\mathdefault{10^{4}}$ -->
      <g transform="translate(276.897333 248.736484) scale(0.15 -0.15)">
       <defs>
        <path id="DejaVuSans-34" d="M 2419 4116 
L 825 1625 
L 2419 1625 
L 2419 4116 
z
M 2253 4666 
L 3047 4666 
L 3047 1625 
L 3713 1625 
L 3713 1100 
L 3047 1100 
L 3047 0 
L 2419 0 
L 2419 1100 
L 313 1100 
L 313 1709 
L 2253 4666 
z
" transform="scale(0.015625)"/>
       </defs>
       <use xlink:href="#DejaVuSans-31" transform="translate(0 0.684375)"/>
       <use xlink:href="#DejaVuSans-30" transform="translate(63.623047 0.684375)"/>
       <use xlink:href="#DejaVuSans-34" transform="translate(128.203125 38.965625) scale(0.7)"/>
      </g>
     </g>
    </g>
    <g id="xtick_5">
     <g id="line2d_5">
      <g>
       <use xlink:href="#mfee1f09b5d" x="367.939152" y="230.338828" style="stroke: #000000; stroke-width: 0.8"/>
      </g>
     </g>
     <g id="text_5">
      <!-- $\mathdefault{10^{5}}$ -->
      <g transform="translate(354.739152 248.736484) scale(0.15 -0.15)">
       <defs>
        <path id="DejaVuSans-35" d="M 691 4666 
L 3169 4666 
L 3169 4134 
L 1269 4134 
L 1269 2991 
Q 1406 3038 1543 3061 
Q 1681 3084 1819 3084 
Q 2600 3084 3056 2656 
Q 3513 2228 3513 1497 
Q 3513 744 3044 326 
Q 2575 -91 1722 -91 
Q 1428 -91 1123 -41 
Q 819 9 494 109 
L 494 744 
Q 775 591 1075 516 
Q 1375 441 1709 441 
Q 2250 441 2565 725 
Q 2881 1009 2881 1497 
Q 2881 1984 2565 2268 
Q 2250 2553 1709 2553 
Q 1456 2553 1204 2497 
Q 953 2441 691 2322 
L 691 4666 
z
" transform="scale(0.015625)"/>
       </defs>
       <use xlink:href="#DejaVuSans-31" transform="translate(0 0.684375)"/>
       <use xlink:href="#DejaVuSans-30" transform="translate(63.623047 0.684375)"/>
       <use xlink:href="#DejaVuSans-35" transform="translate(128.203125 38.965625) scale(0.7)"/>
      </g>
     </g>
    </g>
    <g id="xtick_6">
     <g id="line2d_6">
      <defs>
       <path id="m94314f4914" d="M 0 0 
L 0 2 
" style="stroke: #000000; stroke-width: 0.6"/>
      </defs>
      <g>
       <use xlink:href="#m94314f4914" x="80.004598" y="230.338828" style="stroke: #000000; stroke-width: 0.6"/>
      </g>
     </g>
    </g>
    <g id="xtick_7">
     <g id="line2d_7">
      <g>
       <use xlink:href="#m94314f4914" x="93.711862" y="230.338828" style="stroke: #000000; stroke-width: 0.6"/>
      </g>
     </g>
    </g>
    <g id="xtick_8">
     <g id="line2d_8">
      <g>
       <use xlink:href="#m94314f4914" x="103.43732" y="230.338828" style="stroke: #000000; stroke-width: 0.6"/>
      </g>
     </g>
    </g>
    <g id="xtick_9">
     <g id="line2d_9">
      <g>
       <use xlink:href="#m94314f4914" x="110.980972" y="230.338828" style="stroke: #000000; stroke-width: 0.6"/>
      </g>
     </g>
    </g>
    <g id="xtick_10">
     <g id="line2d_10">
      <g>
       <use xlink:href="#m94314f4914" x="117.144584" y="230.338828" style="stroke: #000000; stroke-width: 0.6"/>
      </g>
     </g>
    </g>
    <g id="xtick_11">
     <g id="line2d_11">
      <g>
       <use xlink:href="#m94314f4914" x="122.355844" y="230.338828" style="stroke: #000000; stroke-width: 0.6"/>
      </g>
     </g>
    </g>
    <g id="xtick_12">
     <g id="line2d_12">
      <g>
       <use xlink:href="#m94314f4914" x="126.870043" y="230.338828" style="stroke: #000000; stroke-width: 0.6"/>
      </g>
     </g>
    </g>
    <g id="xtick_13">
     <g id="line2d_13">
      <g>
       <use xlink:href="#m94314f4914" x="130.851848" y="230.338828" style="stroke: #000000; stroke-width: 0.6"/>
      </g>
     </g>
    </g>
    <g id="xtick_14">
     <g id="line2d_14">
      <g>
       <use xlink:href="#m94314f4914" x="157.846417" y="230.338828" style="stroke: #000000; stroke-width: 0.6"/>
      </g>
     </g>
    </g>
    <g id="xtick_15">
     <g id="line2d_15">
      <g>
       <use xlink:href="#m94314f4914" x="171.553681" y="230.338828" style="stroke: #000000; stroke-width: 0.6"/>
      </g>
     </g>
    </g>
    <g id="xtick_16">
     <g id="line2d_16">
      <g>
       <use xlink:href="#m94314f4914" x="181.279139" y="230.338828" style="stroke: #000000; stroke-width: 0.6"/>
      </g>
     </g>
    </g>
    <g id="xtick_17">
     <g id="line2d_17">
      <g>
       <use xlink:href="#m94314f4914" x="188.822791" y="230.338828" style="stroke: #000000; stroke-width: 0.6"/>
      </g>
     </g>
    </g>
    <g id="xtick_18">
     <g id="line2d_18">
      <g>
       <use xlink:href="#m94314f4914" x="194.986403" y="230.338828" style="stroke: #000000; stroke-width: 0.6"/>
      </g>
     </g>
    </g>
    <g id="xtick_19">
     <g id="line2d_19">
      <g>
       <use xlink:href="#m94314f4914" x="200.197663" y="230.338828" style="stroke: #000000; stroke-width: 0.6"/>
      </g>
     </g>
    </g>
    <g id="xtick_20">
     <g id="line2d_20">
      <g>
       <use xlink:href="#m94314f4914" x="204.711862" y="230.338828" style="stroke: #000000; stroke-width: 0.6"/>
      </g>
     </g>
    </g>
    <g id="xtick_21">
     <g id="line2d_21">
      <g>
       <use xlink:href="#m94314f4914" x="208.693667" y="230.338828" style="stroke: #000000; stroke-width: 0.6"/>
      </g>
     </g>
    </g>
    <g id="xtick_22">
     <g id="line2d_22">
      <g>
       <use xlink:href="#m94314f4914" x="235.688236" y="230.338828" style="stroke: #000000; stroke-width: 0.6"/>
      </g>
     </g>
    </g>
    <g id="xtick_23">
     <g id="line2d_23">
      <g>
       <use xlink:href="#m94314f4914" x="249.3955" y="230.338828" style="stroke: #000000; stroke-width: 0.6"/>
      </g>
     </g>
    </g>
    <g id="xtick_24">
     <g id="line2d_24">
      <g>
       <use xlink:href="#m94314f4914" x="259.120959" y="230.338828" style="stroke: #000000; stroke-width: 0.6"/>
      </g>
     </g>
    </g>
    <g id="xtick_25">
     <g id="line2d_25">
      <g>
       <use xlink:href="#m94314f4914" x="266.664611" y="230.338828" style="stroke: #000000; stroke-width: 0.6"/>
      </g>
     </g>
    </g>
    <g id="xtick_26">
     <g id="line2d_26">
      <g>
       <use xlink:href="#m94314f4914" x="272.828223" y="230.338828" style="stroke: #000000; stroke-width: 0.6"/>
      </g>
     </g>
    </g>
    <g id="xtick_27">
     <g id="line2d_27">
      <g>
       <use xlink:href="#m94314f4914" x="278.039483" y="230.338828" style="stroke: #000000; stroke-width: 0.6"/>
      </g>
     </g>
    </g>
    <g id="xtick_28">
     <g id="line2d_28">
      <g>
       <use xlink:href="#m94314f4914" x="282.553681" y="230.338828" style="stroke: #000000; stroke-width: 0.6"/>
      </g>
     </g>
    </g>
    <g id="xtick_29">
     <g id="line2d_29">
      <g>
       <use xlink:href="#m94314f4914" x="286.535487" y="230.338828" style="stroke: #000000; stroke-width: 0.6"/>
      </g>
     </g>
    </g>
    <g id="xtick_30">
     <g id="line2d_30">
      <g>
       <use xlink:href="#m94314f4914" x="313.530056" y="230.338828" style="stroke: #000000; stroke-width: 0.6"/>
      </g>
     </g>
    </g>
    <g id="xtick_31">
     <g id="line2d_31">
      <g>
       <use xlink:href="#m94314f4914" x="327.23732" y="230.338828" style="stroke: #000000; stroke-width: 0.6"/>
      </g>
     </g>
    </g>
    <g id="xtick_32">
     <g id="line2d_32">
      <g>
       <use xlink:href="#m94314f4914" x="336.962778" y="230.338828" style="stroke: #000000; stroke-width: 0.6"/>
      </g>
     </g>
    </g>
    <g id="xtick_33">
     <g id="line2d_33">
      <g>
       <use xlink:href="#m94314f4914" x="344.50643" y="230.338828" style="stroke: #000000; stroke-width: 0.6"/>
      </g>
     </g>
    </g>
    <g id="xtick_34">
     <g id="line2d_34">
      <g>
       <use xlink:href="#m94314f4914" x="350.670042" y="230.338828" style="stroke: #000000; stroke-width: 0.6"/>
      </g>
     </g>
    </g>
    <g id="xtick_35">
     <g id="line2d_35">
      <g>
       <use xlink:href="#m94314f4914" x="355.881302" y="230.338828" style="stroke: #000000; stroke-width: 0.6"/>
      </g>
     </g>
    </g>
    <g id="xtick_36">
     <g id="line2d_36">
      <g>
       <use xlink:href="#m94314f4914" x="360.395501" y="230.338828" style="stroke: #000000; stroke-width: 0.6"/>
      </g>
     </g>
    </g>
    <g id="xtick_37">
     <g id="line2d_37">
      <g>
       <use xlink:href="#m94314f4914" x="364.377306" y="230.338828" style="stroke: #000000; stroke-width: 0.6"/>
      </g>
     </g>
    </g>
    <g id="xtick_38">
     <g id="line2d_38">
      <g>
       <use xlink:href="#m94314f4914" x="391.371875" y="230.338828" style="stroke: #000000; stroke-width: 0.6"/>
      </g>
     </g>
    </g>
    <g id="text_6">
     <!-- Number of Cycles -->
     <g transform="translate(157.441016 267.253672) scale(0.15 -0.15)">
      <defs>
       <path id="DejaVuSans-4e" d="M 628 4666 
L 1478 4666 
L 3547 763 
L 3547 4666 
L 4159 4666 
L 4159 0 
L 3309 0 
L 1241 3903 
L 1241 0 
L 628 0 
L 628 4666 
z
" transform="scale(0.015625)"/>
       <path id="DejaVuSans-75" d="M 544 1381 
L 544 3500 
L 1119 3500 
L 1119 1403 
Q 1119 906 1312 657 
Q 1506 409 1894 409 
Q 2359 409 2629 706 
Q 2900 1003 2900 1516 
L 2900 3500 
L 3475 3500 
L 3475 0 
L 2900 0 
L 2900 538 
Q 2691 219 2414 64 
Q 2138 -91 1772 -91 
Q 1169 -91 856 284 
Q 544 659 544 1381 
z
M 1991 3584 
L 1991 3584 
z
" transform="scale(0.015625)"/>
       <path id="DejaVuSans-6d" d="M 3328 2828 
Q 3544 3216 3844 3400 
Q 4144 3584 4550 3584 
Q 5097 3584 5394 3201 
Q 5691 2819 5691 2113 
L 5691 0 
L 5113 0 
L 5113 2094 
Q 5113 2597 4934 2840 
Q 4756 3084 4391 3084 
Q 3944 3084 3684 2787 
Q 3425 2491 3425 1978 
L 3425 0 
L 2847 0 
L 2847 2094 
Q 2847 2600 2669 2842 
Q 2491 3084 2119 3084 
Q 1678 3084 1418 2786 
Q 1159 2488 1159 1978 
L 1159 0 
L 581 0 
L 581 3500 
L 1159 3500 
L 1159 2956 
Q 1356 3278 1631 3431 
Q 1906 3584 2284 3584 
Q 2666 3584 2933 3390 
Q 3200 3197 3328 2828 
z
" transform="scale(0.015625)"/>
       <path id="DejaVuSans-62" d="M 3116 1747 
Q 3116 2381 2855 2742 
Q 2594 3103 2138 3103 
Q 1681 3103 1420 2742 
Q 1159 2381 1159 1747 
Q 1159 1113 1420 752 
Q 1681 391 2138 391 
Q 2594 391 2855 752 
Q 3116 1113 3116 1747 
z
M 1159 2969 
Q 1341 3281 1617 3432 
Q 1894 3584 2278 3584 
Q 2916 3584 3314 3078 
Q 3713 2572 3713 1747 
Q 3713 922 3314 415 
Q 2916 -91 2278 -91 
Q 1894 -91 1617 61 
Q 1341 213 1159 525 
L 1159 0 
L 581 0 
L 581 4863 
L 1159 4863 
L 1159 2969 
z
" transform="scale(0.015625)"/>
       <path id="DejaVuSans-65" d="M 3597 1894 
L 3597 1613 
L 953 1613 
Q 991 1019 1311 708 
Q 1631 397 2203 397 
Q 2534 397 2845 478 
Q 3156 559 3463 722 
L 3463 178 
Q 3153 47 2828 -22 
Q 2503 -91 2169 -91 
Q 1331 -91 842 396 
Q 353 884 353 1716 
Q 353 2575 817 3079 
Q 1281 3584 2069 3584 
Q 2775 3584 3186 3129 
Q 3597 2675 3597 1894 
z
M 3022 2063 
Q 3016 2534 2758 2815 
Q 2500 3097 2075 3097 
Q 1594 3097 1305 2825 
Q 1016 2553 972 2059 
L 3022 2063 
z
" transform="scale(0.015625)"/>
       <path id="DejaVuSans-72" d="M 2631 2963 
Q 2534 3019 2420 3045 
Q 2306 3072 2169 3072 
Q 1681 3072 1420 2755 
Q 1159 2438 1159 1844 
L 1159 0 
L 581 0 
L 581 3500 
L 1159 3500 
L 1159 2956 
Q 1341 3275 1631 3429 
Q 1922 3584 2338 3584 
Q 2397 3584 2469 3576 
Q 2541 3569 2628 3553 
L 2631 2963 
z
" transform="scale(0.015625)"/>
       <path id="DejaVuSans-20" transform="scale(0.015625)"/>
       <path id="DejaVuSans-6f" d="M 1959 3097 
Q 1497 3097 1228 2736 
Q 959 2375 959 1747 
Q 959 1119 1226 758 
Q 1494 397 1959 397 
Q 2419 397 2687 759 
Q 2956 1122 2956 1747 
Q 2956 2369 2687 2733 
Q 2419 3097 1959 3097 
z
M 1959 3584 
Q 2709 3584 3137 3096 
Q 3566 2609 3566 1747 
Q 3566 888 3137 398 
Q 2709 -91 1959 -91 
Q 1206 -91 779 398 
Q 353 888 353 1747 
Q 353 2609 779 3096 
Q 1206 3584 1959 3584 
z
" transform="scale(0.015625)"/>
       <path id="DejaVuSans-66" d="M 2375 4863 
L 2375 4384 
L 1825 4384 
Q 1516 4384 1395 4259 
Q 1275 4134 1275 3809 
L 1275 3500 
L 2222 3500 
L 2222 3053 
L 1275 3053 
L 1275 0 
L 697 0 
L 697 3053 
L 147 3053 
L 147 3500 
L 697 3500 
L 697 3744 
Q 697 4328 969 4595 
Q 1241 4863 1831 4863 
L 2375 4863 
z
" transform="scale(0.015625)"/>
       <path id="DejaVuSans-43" d="M 4122 4306 
L 4122 3641 
Q 3803 3938 3442 4084 
Q 3081 4231 2675 4231 
Q 1875 4231 1450 3742 
Q 1025 3253 1025 2328 
Q 1025 1406 1450 917 
Q 1875 428 2675 428 
Q 3081 428 3442 575 
Q 3803 722 4122 1019 
L 4122 359 
Q 3791 134 3420 21 
Q 3050 -91 2638 -91 
Q 1578 -91 968 557 
Q 359 1206 359 2328 
Q 359 3453 968 4101 
Q 1578 4750 2638 4750 
Q 3056 4750 3426 4639 
Q 3797 4528 4122 4306 
z
" transform="scale(0.015625)"/>
       <path id="DejaVuSans-79" d="M 2059 -325 
Q 1816 -950 1584 -1140 
Q 1353 -1331 966 -1331 
L 506 -1331 
L 506 -850 
L 844 -850 
Q 1081 -850 1212 -737 
Q 1344 -625 1503 -206 
L 1606 56 
L 191 3500 
L 800 3500 
L 1894 763 
L 2988 3500 
L 3597 3500 
L 2059 -325 
z
" transform="scale(0.015625)"/>
       <path id="DejaVuSans-63" d="M 3122 3366 
L 3122 2828 
Q 2878 2963 2633 3030 
Q 2388 3097 2138 3097 
Q 1578 3097 1268 2742 
Q 959 2388 959 1747 
Q 959 1106 1268 751 
Q 1578 397 2138 397 
Q 2388 397 2633 464 
Q 2878 531 3122 666 
L 3122 134 
Q 2881 22 2623 -34 
Q 2366 -91 2075 -91 
Q 1284 -91 818 406 
Q 353 903 353 1747 
Q 353 2603 823 3093 
Q 1294 3584 2113 3584 
Q 2378 3584 2631 3529 
Q 2884 3475 3122 3366 
z
" transform="scale(0.015625)"/>
       <path id="DejaVuSans-6c" d="M 603 4863 
L 1178 4863 
L 1178 0 
L 603 0 
L 603 4863 
z
" transform="scale(0.015625)"/>
       <path id="DejaVuSans-73" d="M 2834 3397 
L 2834 2853 
Q 2591 2978 2328 3040 
Q 2066 3103 1784 3103 
Q 1356 3103 1142 2972 
Q 928 2841 928 2578 
Q 928 2378 1081 2264 
Q 1234 2150 1697 2047 
L 1894 2003 
Q 2506 1872 2764 1633 
Q 3022 1394 3022 966 
Q 3022 478 2636 193 
Q 2250 -91 1575 -91 
Q 1294 -91 989 -36 
Q 684 19 347 128 
L 347 722 
Q 666 556 975 473 
Q 1284 391 1588 391 
Q 1994 391 2212 530 
Q 2431 669 2431 922 
Q 2431 1156 2273 1281 
Q 2116 1406 1581 1522 
L 1381 1569 
Q 847 1681 609 1914 
Q 372 2147 372 2553 
Q 372 3047 722 3315 
Q 1072 3584 1716 3584 
Q 2034 3584 2315 3537 
Q 2597 3491 2834 3397 
z
" transform="scale(0.015625)"/>
      </defs>
      <use xlink:href="#DejaVuSans-4e"/>
      <use xlink:href="#DejaVuSans-75" x="74.804688"/>
      <use xlink:href="#DejaVuSans-6d" x="138.183594"/>
      <use xlink:href="#DejaVuSans-62" x="235.595703"/>
      <use xlink:href="#DejaVuSans-65" x="299.072266"/>
      <use xlink:href="#DejaVuSans-72" x="360.595703"/>
      <use xlink:href="#DejaVuSans-20" x="401.708984"/>
      <use xlink:href="#DejaVuSans-6f" x="433.496094"/>
      <use xlink:href="#DejaVuSans-66" x="494.677734"/>
      <use xlink:href="#DejaVuSans-20" x="529.882812"/>
      <use xlink:href="#DejaVuSans-43" x="561.669922"/>
      <use xlink:href="#DejaVuSans-79" x="631.494141"/>
      <use xlink:href="#DejaVuSans-63" x="690.673828"/>
      <use xlink:href="#DejaVuSans-6c" x="745.654297"/>
      <use xlink:href="#DejaVuSans-65" x="773.4375"/>
      <use xlink:href="#DejaVuSans-73" x="834.960938"/>
     </g>
    </g>
   </g>
   <g id="matplotlib.axis_2">
    <g id="ytick_1">
     <g id="line2d_39">
      <defs>
       <path id="md4df14e5fc" d="M 0 0 
L -3.5 0 
" style="stroke: #000000; stroke-width: 0.8"/>
      </defs>
      <g>
       <use xlink:href="#md4df14e5fc" x="56.571875" y="230.338828" style="stroke: #000000; stroke-width: 0.8"/>
      </g>
     </g>
     <g id="text_7">
      <!-- 0.0 -->
      <g transform="translate(25.717188 236.037656) scale(0.15 -0.15)">
       <defs>
        <path id="DejaVuSans-2e" d="M 684 794 
L 1344 794 
L 1344 0 
L 684 0 
L 684 794 
z
" transform="scale(0.015625)"/>
       </defs>
       <use xlink:href="#DejaVuSans-30"/>
       <use xlink:href="#DejaVuSans-2e" x="63.623047"/>
       <use xlink:href="#DejaVuSans-30" x="95.410156"/>
      </g>
     </g>
    </g>
    <g id="ytick_2">
     <g id="line2d_40">
      <g>
       <use xlink:href="#md4df14e5fc" x="56.571875" y="186.850828" style="stroke: #000000; stroke-width: 0.8"/>
      </g>
     </g>
     <g id="text_8">
      <!-- 0.2 -->
      <g transform="translate(25.717188 192.549656) scale(0.15 -0.15)">
       <use xlink:href="#DejaVuSans-30"/>
       <use xlink:href="#DejaVuSans-2e" x="63.623047"/>
       <use xlink:href="#DejaVuSans-32" x="95.410156"/>
      </g>
     </g>
    </g>
    <g id="ytick_3">
     <g id="line2d_41">
      <g>
       <use xlink:href="#md4df14e5fc" x="56.571875" y="143.362828" style="stroke: #000000; stroke-width: 0.8"/>
      </g>
     </g>
     <g id="text_9">
      <!-- 0.4 -->
      <g transform="translate(25.717188 149.061656) scale(0.15 -0.15)">
       <use xlink:href="#DejaVuSans-30"/>
       <use xlink:href="#DejaVuSans-2e" x="63.623047"/>
       <use xlink:href="#DejaVuSans-34" x="95.410156"/>
      </g>
     </g>
    </g>
    <g id="ytick_4">
     <g id="line2d_42">
      <g>
       <use xlink:href="#md4df14e5fc" x="56.571875" y="99.874828" style="stroke: #000000; stroke-width: 0.8"/>
      </g>
     </g>
     <g id="text_10">
      <!-- 0.6 -->
      <g transform="translate(25.717188 105.573656) scale(0.15 -0.15)">
       <defs>
        <path id="DejaVuSans-36" d="M 2113 2584 
Q 1688 2584 1439 2293 
Q 1191 2003 1191 1497 
Q 1191 994 1439 701 
Q 1688 409 2113 409 
Q 2538 409 2786 701 
Q 3034 994 3034 1497 
Q 3034 2003 2786 2293 
Q 2538 2584 2113 2584 
z
M 3366 4563 
L 3366 3988 
Q 3128 4100 2886 4159 
Q 2644 4219 2406 4219 
Q 1781 4219 1451 3797 
Q 1122 3375 1075 2522 
Q 1259 2794 1537 2939 
Q 1816 3084 2150 3084 
Q 2853 3084 3261 2657 
Q 3669 2231 3669 1497 
Q 3669 778 3244 343 
Q 2819 -91 2113 -91 
Q 1303 -91 875 529 
Q 447 1150 447 2328 
Q 447 3434 972 4092 
Q 1497 4750 2381 4750 
Q 2619 4750 2861 4703 
Q 3103 4656 3366 4563 
z
" transform="scale(0.015625)"/>
       </defs>
       <use xlink:href="#DejaVuSans-30"/>
       <use xlink:href="#DejaVuSans-2e" x="63.623047"/>
       <use xlink:href="#DejaVuSans-36" x="95.410156"/>
      </g>
     </g>
    </g>
    <g id="ytick_5">
     <g id="line2d_43">
      <g>
       <use xlink:href="#md4df14e5fc" x="56.571875" y="56.386828" style="stroke: #000000; stroke-width: 0.8"/>
      </g>
     </g>
     <g id="text_11">
      <!-- 0.8 -->
      <g transform="translate(25.717188 62.085656) scale(0.15 -0.15)">
       <defs>
        <path id="DejaVuSans-38" d="M 2034 2216 
Q 1584 2216 1326 1975 
Q 1069 1734 1069 1313 
Q 1069 891 1326 650 
Q 1584 409 2034 409 
Q 2484 409 2743 651 
Q 3003 894 3003 1313 
Q 3003 1734 2745 1975 
Q 2488 2216 2034 2216 
z
M 1403 2484 
Q 997 2584 770 2862 
Q 544 3141 544 3541 
Q 544 4100 942 4425 
Q 1341 4750 2034 4750 
Q 2731 4750 3128 4425 
Q 3525 4100 3525 3541 
Q 3525 3141 3298 2862 
Q 3072 2584 2669 2484 
Q 3125 2378 3379 2068 
Q 3634 1759 3634 1313 
Q 3634 634 3220 271 
Q 2806 -91 2034 -91 
Q 1263 -91 848 271 
Q 434 634 434 1313 
Q 434 1759 690 2068 
Q 947 2378 1403 2484 
z
M 1172 3481 
Q 1172 3119 1398 2916 
Q 1625 2713 2034 2713 
Q 2441 2713 2670 2916 
Q 2900 3119 2900 3481 
Q 2900 3844 2670 4047 
Q 2441 4250 2034 4250 
Q 1625 4250 1398 4047 
Q 1172 3844 1172 3481 
z
" transform="scale(0.015625)"/>
       </defs>
       <use xlink:href="#DejaVuSans-30"/>
       <use xlink:href="#DejaVuSans-2e" x="63.623047"/>
       <use xlink:href="#DejaVuSans-38" x="95.410156"/>
      </g>
     </g>
    </g>
    <g id="ytick_6">
     <g id="line2d_44">
      <g>
       <use xlink:href="#md4df14e5fc" x="56.571875" y="12.898828" style="stroke: #000000; stroke-width: 0.8"/>
      </g>
     </g>
     <g id="text_12">
      <!-- 1.0 -->
      <g transform="translate(25.717188 18.597656) scale(0.15 -0.15)">
       <use xlink:href="#DejaVuSans-31"/>
       <use xlink:href="#DejaVuSans-2e" x="63.623047"/>
       <use xlink:href="#DejaVuSans-30" x="95.410156"/>
      </g>
     </g>
    </g>
    <g id="text_13">
     <!-- Success Probability -->
     <g transform="translate(18.597656 193.836797) rotate(-90) scale(0.15 -0.15)">
      <defs>
       <path id="DejaVuSans-53" d="M 3425 4513 
L 3425 3897 
Q 3066 4069 2747 4153 
Q 2428 4238 2131 4238 
Q 1616 4238 1336 4038 
Q 1056 3838 1056 3469 
Q 1056 3159 1242 3001 
Q 1428 2844 1947 2747 
L 2328 2669 
Q 3034 2534 3370 2195 
Q 3706 1856 3706 1288 
Q 3706 609 3251 259 
Q 2797 -91 1919 -91 
Q 1588 -91 1214 -16 
Q 841 59 441 206 
L 441 856 
Q 825 641 1194 531 
Q 1563 422 1919 422 
Q 2459 422 2753 634 
Q 3047 847 3047 1241 
Q 3047 1584 2836 1778 
Q 2625 1972 2144 2069 
L 1759 2144 
Q 1053 2284 737 2584 
Q 422 2884 422 3419 
Q 422 4038 858 4394 
Q 1294 4750 2059 4750 
Q 2388 4750 2728 4690 
Q 3069 4631 3425 4513 
z
" transform="scale(0.015625)"/>
       <path id="DejaVuSans-50" d="M 1259 4147 
L 1259 2394 
L 2053 2394 
Q 2494 2394 2734 2622 
Q 2975 2850 2975 3272 
Q 2975 3691 2734 3919 
Q 2494 4147 2053 4147 
L 1259 4147 
z
M 628 4666 
L 2053 4666 
Q 2838 4666 3239 4311 
Q 3641 3956 3641 3272 
Q 3641 2581 3239 2228 
Q 2838 1875 2053 1875 
L 1259 1875 
L 1259 0 
L 628 0 
L 628 4666 
z
" transform="scale(0.015625)"/>
       <path id="DejaVuSans-61" d="M 2194 1759 
Q 1497 1759 1228 1600 
Q 959 1441 959 1056 
Q 959 750 1161 570 
Q 1363 391 1709 391 
Q 2188 391 2477 730 
Q 2766 1069 2766 1631 
L 2766 1759 
L 2194 1759 
z
M 3341 1997 
L 3341 0 
L 2766 0 
L 2766 531 
Q 2569 213 2275 61 
Q 1981 -91 1556 -91 
Q 1019 -91 701 211 
Q 384 513 384 1019 
Q 384 1609 779 1909 
Q 1175 2209 1959 2209 
L 2766 2209 
L 2766 2266 
Q 2766 2663 2505 2880 
Q 2244 3097 1772 3097 
Q 1472 3097 1187 3025 
Q 903 2953 641 2809 
L 641 3341 
Q 956 3463 1253 3523 
Q 1550 3584 1831 3584 
Q 2591 3584 2966 3190 
Q 3341 2797 3341 1997 
z
" transform="scale(0.015625)"/>
       <path id="DejaVuSans-69" d="M 603 3500 
L 1178 3500 
L 1178 0 
L 603 0 
L 603 3500 
z
M 603 4863 
L 1178 4863 
L 1178 4134 
L 603 4134 
L 603 4863 
z
" transform="scale(0.015625)"/>
       <path id="DejaVuSans-74" d="M 1172 4494 
L 1172 3500 
L 2356 3500 
L 2356 3053 
L 1172 3053 
L 1172 1153 
Q 1172 725 1289 603 
Q 1406 481 1766 481 
L 2356 481 
L 2356 0 
L 1766 0 
Q 1100 0 847 248 
Q 594 497 594 1153 
L 594 3053 
L 172 3053 
L 172 3500 
L 594 3500 
L 594 4494 
L 1172 4494 
z
" transform="scale(0.015625)"/>
      </defs>
      <use xlink:href="#DejaVuSans-53"/>
      <use xlink:href="#DejaVuSans-75" x="63.476562"/>
      <use xlink:href="#DejaVuSans-63" x="126.855469"/>
      <use xlink:href="#DejaVuSans-63" x="181.835938"/>
      <use xlink:href="#DejaVuSans-65" x="236.816406"/>
      <use xlink:href="#DejaVuSans-73" x="298.339844"/>
      <use xlink:href="#DejaVuSans-73" x="350.439453"/>
      <use xlink:href="#DejaVuSans-20" x="402.539062"/>
      <use xlink:href="#DejaVuSans-50" x="434.326172"/>
      <use xlink:href="#DejaVuSans-72" x="492.878906"/>
      <use xlink:href="#DejaVuSans-6f" x="531.742188"/>
      <use xlink:href="#DejaVuSans-62" x="592.923828"/>
      <use xlink:href="#DejaVuSans-61" x="656.400391"/>
      <use xlink:href="#DejaVuSans-62" x="717.679688"/>
      <use xlink:href="#DejaVuSans-69" x="781.15625"/>
      <use xlink:href="#DejaVuSans-6c" x="808.939453"/>
      <use xlink:href="#DejaVuSans-69" x="836.722656"/>
      <use xlink:href="#DejaVuSans-74" x="864.505859"/>
      <use xlink:href="#DejaVuSans-79" x="903.714844"/>
     </g>
    </g>
   </g>
   <g id="line2d_45">
    <path d="M 56.571875 188.896281 
L 59.793957 178.408194 
L 59.793957 178.408194 
L 62.735487 175.22669 
L 62.735487 175.22669 
L 65.441433 180.611558 
L 65.441433 180.611558 
L 67.946747 188.107957 
L 70.279139 192.797559 
L 72.460946 199.379664 
L 72.460946 199.379664 
L 74.510438 203.321662 
L 76.442751 205.576312 
L 78.270562 208.952458 
L 80.004598 211.258132 
L 81.654011 213.069653 
L 83.226679 214.415827 
L 84.729428 215.468317 
L 86.16821 216.233273 
L 88.874155 217.23967 
L 91.37947 217.822794 
L 94.820363 218.203932 
L 98.923121 218.257356 
L 101.703285 218.128473 
L 105.086734 217.840055 
L 110.297994 217.17247 
L 115.410549 216.303611 
L 120.366666 215.290401 
L 127.290002 213.623167 
L 134.07393 211.706767 
L 139.138525 210.064086 
L 144.054531 208.243805 
L 149.010648 206.104771 
L 152.550536 204.333851 
L 155.75464 202.509358 
L 159.172323 200.290625 
L 162.571247 197.759145 
L 165.926687 194.900503 
L 169.341811 191.589424 
L 172.662183 187.951663 
L 175.983258 183.890903 
L 179.366707 179.317243 
L 182.767186 174.290004 
L 186.150635 168.887019 
L 189.492244 163.197397 
L 194.532621 154.060593 
L 199.56393 144.450645 
L 219.77211 105.078559 
L 224.816693 95.945006 
L 229.854313 87.349005 
L 234.901611 79.327993 
L 238.274348 74.317524 
L 241.639896 69.602771 
L 244.997011 65.183995 
L 248.365788 61.032173 
L 251.735404 57.156301 
L 255.095811 53.558739 
L 258.463843 50.21135 
L 261.824304 47.118031 
L 265.192888 44.252261 
L 268.557836 41.611823 
L 271.920272 39.182266 
L 275.283596 36.948026 
L 278.652071 34.893901 
L 283.696245 32.134048 
L 288.745454 29.715189 
L 293.792451 27.603073 
L 298.839227 25.761647 
L 303.885635 24.158929 
L 308.934624 22.765239 
L 315.66376 21.189649 
L 322.393112 19.887328 
L 329.123086 18.812494 
L 337.534316 17.730904 
L 345.946564 16.882797 
L 356.041261 16.104356 
L 367.818248 15.443856 
L 377.912598 15.03371 
L 377.912598 15.03371 
" clip-path="url(#p528bc1ba1e)" style="fill: none; stroke: #000000; stroke-width: 1.5; stroke-linecap: square"/>
   </g>
   <g id="line2d_46">
    <path d="M 56.571875 186.209963 
L 59.793957 177.425898 
L 59.793957 177.425898 
L 62.735487 177.002581 
L 62.735487 177.002581 
L 65.441433 184.022688 
L 65.441433 184.022688 
L 67.946747 193.961127 
L 72.460946 204.51527 
L 72.460946 204.51527 
L 74.510438 206.889609 
L 76.442751 208.477286 
L 78.270562 210.561112 
L 80.004598 211.559829 
L 81.654011 212.304935 
L 83.226679 212.870018 
L 84.729428 213.250621 
L 86.16821 213.462345 
L 90.150015 213.698246 
L 93.711862 213.556052 
L 98.923121 213.04698 
L 117.144584 211.018735 
L 122.355844 210.130329 
L 127.290002 209.043902 
L 130.47412 208.188463 
L 134.07393 207.045525 
L 137.327041 205.822531 
L 140.577307 204.385115 
L 144.054531 202.57413 
L 147.43798 200.491751 
L 150.722724 198.126262 
L 154.096234 195.315161 
L 157.506653 192.036299 
L 160.914484 188.310515 
L 164.290581 184.154803 
L 167.614107 179.627307 
L 170.985495 174.601071 
L 174.363486 169.158828 
L 177.717293 163.400465 
L 182.767186 154.173886 
L 187.793079 144.509364 
L 207.972338 105.037109 
L 213.024251 95.874364 
L 218.079362 87.240189 
L 223.11945 79.228473 
L 226.499396 74.207863 
L 229.854313 69.509897 
L 233.216711 65.086825 
L 236.588901 60.934566 
L 239.954318 57.067818 
L 243.312926 53.47659 
L 246.686737 50.128249 
L 250.053904 47.034083 
L 253.417349 44.178031 
L 256.776491 41.547034 
L 260.144839 39.117967 
L 263.506025 36.889817 
L 266.873562 34.840658 
L 271.920272 32.085628 
L 276.969916 29.672324 
L 282.016995 27.565394 
L 287.061012 25.729568 
L 292.108623 24.13053 
L 297.156123 22.740838 
L 303.885635 21.169269 
L 310.61556 19.870307 
L 317.346181 18.798267 
L 325.757357 17.719641 
L 334.169669 16.873826 
L 344.264187 16.097512 
L 356.041261 15.438687 
L 366.135654 15.029558 
L 366.135654 15.029558 
" clip-path="url(#p528bc1ba1e)" style="fill: none; stroke: #1a001a; stroke-width: 1.5; stroke-linecap: square"/>
   </g>
   <g id="line2d_47">
    <path d="M 56.571875 184.26797 
L 59.793957 178.667265 
L 59.793957 178.667265 
L 62.735487 180.871186 
L 62.735487 180.871186 
L 65.441433 188.000395 
L 65.441433 188.000395 
L 67.946747 198.629225 
L 70.279139 202.88237 
L 72.460946 206.175586 
L 72.460946 206.175586 
L 76.442751 207.690025 
L 78.270562 208.663823 
L 81.654011 208.873638 
L 83.226679 209.020232 
L 86.16821 208.907499 
L 91.37947 208.23383 
L 99.875474 206.609182 
L 103.43732 206.311355 
L 107.419126 206.278115 
L 113.582738 206.336892 
L 117.144584 206.200688 
L 120.366666 205.885026 
L 123.774497 205.303856 
L 127.290002 204.385447 
L 130.47412 203.233472 
L 134.07393 201.518217 
L 137.327041 199.553347 
L 140.577307 197.159812 
L 144.054531 194.116065 
L 147.43798 190.641124 
L 150.722724 186.779197 
L 154.096234 182.339881 
L 157.506653 177.36336 
L 160.914484 171.958093 
L 164.290581 166.203554 
L 169.341811 157.002221 
L 174.363486 147.319427 
L 184.424301 127.224767 
L 191.173208 113.884608 
L 196.203782 104.308192 
L 201.243792 95.170846 
L 206.321006 86.521389 
L 211.364922 78.539345 
L 214.731839 73.566752 
L 218.079362 68.909249 
L 221.435698 64.525491 
L 224.816693 60.395004 
L 228.186816 56.556161 
L 231.539099 53.004529 
L 234.901611 49.69901 
L 238.274348 46.63027 
L 241.639896 43.80202 
L 244.997011 41.200796 
L 248.365788 38.798208 
L 251.735404 36.589988 
L 256.776491 33.622383 
L 261.824304 31.01712 
L 266.873562 28.73816 
L 271.920272 26.750341 
L 276.969916 25.01775 
L 282.016995 23.511605 
L 287.061012 22.20412 
L 293.792451 20.724882 
L 300.522061 19.503356 
L 307.251306 18.495831 
L 315.66376 17.482152 
L 324.075022 16.687778 
L 334.169669 15.958741 
L 345.946564 15.340217 
L 352.676553 15.0717 
L 352.676553 15.0717 
" clip-path="url(#p528bc1ba1e)" style="fill: none; stroke: #330033; stroke-width: 1.5; stroke-linecap: square"/>
   </g>
   <g id="line2d_48">
    <path d="M 56.571875 183.593311 
L 59.793957 182.141986 
L 59.793957 182.141986 
L 62.735487 186.345443 
L 62.735487 186.345443 
L 65.441433 192.758226 
L 65.441433 192.758226 
L 67.946747 201.661729 
L 72.460946 205.414331 
L 72.460946 205.414331 
L 74.510438 204.801416 
L 76.442751 204.69918 
L 78.270562 204.887017 
L 80.004598 204.516706 
L 83.226679 204.680519 
L 84.729428 204.614434 
L 86.16821 204.389871 
L 90.150015 203.475286 
L 93.711862 202.33736 
L 96.933943 201.280987 
L 99.875474 200.61562 
L 101.703285 200.45511 
L 103.43732 200.481342 
L 105.086734 200.637041 
L 113.582738 201.881211 
L 115.410549 201.963355 
L 117.144584 201.914721 
L 118.793998 201.745809 
L 120.366666 201.445017 
L 122.355844 200.878815 
L 123.774497 200.348317 
L 125.577926 199.490347 
L 127.290002 198.495417 
L 128.919535 197.384114 
L 130.47412 196.175005 
L 132.321918 194.536416 
L 134.07393 192.827069 
L 137.327041 189.168148 
L 140.577307 184.937412 
L 144.054531 179.869377 
L 147.43798 174.421757 
L 150.722724 168.712412 
L 154.096234 162.51681 
L 159.172323 152.662443 
L 165.926687 138.997854 
L 177.717293 115.108865 
L 182.767186 105.345822 
L 187.793079 96.105218 
L 192.834633 87.399581 
L 196.203782 81.926263 
L 199.56393 76.75581 
L 202.933316 71.863792 
L 206.321006 67.241748 
L 209.656452 62.978535 
L 213.024251 58.957898 
L 216.387236 55.219243 
L 219.77211 51.725036 
L 223.11945 48.523361 
L 226.499396 45.534213 
L 229.854313 42.796457 
L 233.216711 40.268587 
L 236.588901 37.937196 
L 239.954318 35.800736 
L 244.997011 32.927267 
L 250.053904 30.403339 
L 255.095811 28.204321 
L 260.144839 26.283594 
L 265.192888 24.611652 
L 270.235245 23.159658 
L 275.283596 21.897394 
L 282.016995 20.47077 
L 288.745454 19.293671 
L 295.47432 18.32292 
L 303.885635 17.346562 
L 312.299349 16.581275 
L 322.393112 15.879359 
L 334.169669 15.283831 
L 340.899478 15.025338 
L 340.899478 15.025338 
" clip-path="url(#p528bc1ba1e)" style="fill: none; stroke: #4c004c; stroke-width: 1.5; stroke-linecap: square"/>
   </g>
   <g id="line2d_49">
    <path d="M 56.571875 184.582523 
L 59.793957 187.130983 
L 59.793957 187.130983 
L 65.441433 198.05095 
L 65.441433 198.05095 
L 67.946747 202.812177 
L 70.279139 202.750786 
L 72.460946 203.817891 
L 72.460946 203.817891 
L 76.442751 201.031229 
L 78.270562 201.115002 
L 80.004598 200.762124 
L 81.654011 201.315129 
L 83.226679 201.366893 
L 84.729428 201.528063 
L 86.16821 201.551516 
L 88.874155 200.9093 
L 91.37947 199.941445 
L 98.923121 196.786503 
L 99.875474 196.585039 
L 101.703285 196.405839 
L 103.43732 196.500269 
L 105.086734 196.772039 
L 110.297994 197.861562 
L 112.306878 198.048238 
L 113.582738 198.016315 
L 115.410549 197.744212 
L 117.144584 197.154562 
L 118.793998 196.351923 
L 120.366666 195.266904 
L 122.355844 193.567989 
L 123.774497 192.15641 
L 125.577926 190.050476 
L 127.290002 187.794673 
L 130.47412 183.013827 
L 134.07393 176.852202 
L 137.327041 170.75151 
L 142.493965 160.335522 
L 149.010648 146.472587 
L 160.914484 121.062942 
L 165.926687 110.845158 
L 170.985495 101.045176 
L 175.983258 91.944552 
L 179.366707 86.146394 
L 182.767186 80.625376 
L 186.150635 75.441925 
L 189.492244 70.626737 
L 192.834633 66.110296 
L 196.203782 61.854413 
L 199.56393 57.899454 
L 202.933316 54.213171 
L 206.321006 50.777528 
L 209.656452 47.647527 
L 213.024251 44.728251 
L 216.387236 42.041311 
L 219.77211 39.553093 
L 223.11945 37.292252 
L 226.499396 35.197478 
L 231.539099 32.396503 
L 236.588901 29.940159 
L 241.639896 27.794714 
L 246.686737 25.926317 
L 251.735404 24.299846 
L 256.776491 22.888495 
L 261.824304 21.661776 
L 268.557836 20.275695 
L 275.283596 19.132858 
L 282.016995 18.189633 
L 290.427022 17.242024 
L 300.522061 16.371467 
L 310.61556 15.723022 
L 324.075022 15.108801 
L 325.757357 15.047723 
L 325.757357 15.047723 
" clip-path="url(#p528bc1ba1e)" style="fill: none; stroke: #660066; stroke-width: 1.5; stroke-linecap: square"/>
   </g>
   <g id="line2d_50">
    <path d="M 56.571875 188.491743 
L 59.793957 193.440309 
L 59.793957 193.440309 
L 62.735487 200.108076 
L 65.441433 203.109738 
L 65.441433 203.109738 
L 67.946747 202.560348 
L 70.279139 201.041599 
L 72.460946 202.188651 
L 72.460946 202.188651 
L 74.510438 201.463464 
L 76.442751 197.718018 
L 78.270562 199.10302 
L 80.004598 198.751823 
L 81.654011 200.357499 
L 83.226679 199.730781 
L 84.729428 200.019119 
L 86.16821 200.929458 
L 88.874155 200.795388 
L 90.150015 200.28487 
L 91.37947 199.444388 
L 94.820363 197.880206 
L 98.923121 195.963874 
L 99.875474 195.669194 
L 101.703285 195.250571 
L 107.419126 194.570878 
L 108.889195 194.195487 
L 110.297994 193.661213 
L 112.306878 192.44105 
L 113.582738 191.392875 
L 115.410549 189.530477 
L 117.144584 187.111488 
L 118.793998 184.569395 
L 120.366666 181.634312 
L 123.774497 174.665984 
L 127.290002 166.50809 
L 132.321918 154.040405 
L 142.493965 129.100798 
L 147.43798 117.710665 
L 150.722724 110.514852 
L 155.75464 100.160005 
L 159.172323 93.588598 
L 162.571247 87.427759 
L 165.926687 81.710018 
L 169.341811 76.258483 
L 172.662183 71.299237 
L 175.983258 66.671125 
L 179.366707 62.283054 
L 182.767186 58.191314 
L 186.150635 54.421864 
L 189.492244 50.979267 
L 192.834633 47.79912 
L 196.203782 44.844252 
L 199.56393 42.132509 
L 202.933316 39.633922 
L 206.321006 37.329338 
L 209.656452 35.249468 
L 214.731839 32.414145 
L 219.77211 29.953304 
L 224.816693 27.804245 
L 229.854313 25.934535 
L 234.901611 24.305167 
L 239.954318 22.888416 
L 244.997011 21.661753 
L 251.735404 20.273715 
L 258.463843 19.130145 
L 265.192888 18.187522 
L 273.602467 17.240061 
L 283.696245 16.369855 
L 293.792451 15.721478 
L 307.251306 15.10762 
L 308.934624 15.046542 
L 308.934624 15.046542 
" clip-path="url(#p528bc1ba1e)" style="fill: none; stroke: #800080; stroke-width: 1.5; stroke-linecap: square"/>
   </g>
   <g id="line2d_51">
    <path d="M 56.571875 197.34863 
L 59.793957 202.10456 
L 59.793957 202.10456 
L 62.735487 207.713488 
L 62.735487 207.713488 
L 65.441433 208.211734 
L 65.441433 208.211734 
L 67.946747 202.582083 
L 70.279139 197.784332 
L 72.460946 201.045932 
L 72.460946 201.045932 
L 74.510438 202.599627 
L 76.442751 194.103148 
L 78.270562 201.184579 
L 80.004598 199.472602 
L 81.654011 203.172532 
L 83.226679 201.133406 
L 84.729428 200.601188 
L 86.16821 202.714766 
L 88.874155 203.93693 
L 90.150015 204.210824 
L 91.37947 201.521898 
L 93.711862 200.305564 
L 94.820363 199.423026 
L 96.933943 197.485389 
L 98.923121 195.347013 
L 99.875474 194.135522 
L 105.086734 188.694336 
L 107.419126 185.196611 
L 110.297994 179.776863 
L 113.582738 172.172465 
L 115.410549 167.636317 
L 120.366666 152.618465 
L 127.290002 131.09339 
L 130.47412 121.713997 
L 134.07393 111.857269 
L 137.327041 103.656655 
L 140.577307 96.087384 
L 144.054531 88.705946 
L 147.43798 82.119855 
L 150.722724 76.255123 
L 154.096234 70.753823 
L 157.506653 65.659435 
L 160.914484 61.016741 
L 164.290581 56.809741 
L 167.614107 53.025848 
L 170.985495 49.515306 
L 174.363486 46.302798 
L 177.717293 43.390707 
L 181.109684 40.702329 
L 184.424301 38.304472 
L 187.793079 36.080154 
L 191.173208 34.045948 
L 196.203782 31.34853 
L 201.243792 28.998316 
L 206.321006 26.942322 
L 211.364922 25.170751 
L 216.387236 23.640355 
L 221.435698 22.306892 
L 228.186816 20.799 
L 234.901611 19.562657 
L 241.639896 18.54064 
L 250.053904 17.515007 
L 258.463843 16.712312 
L 268.557836 15.976078 
L 280.331283 15.351801 
L 288.745454 15.020902 
L 288.745454 15.020902 
" clip-path="url(#p528bc1ba1e)" style="fill: none; stroke: #990099; stroke-width: 1.5; stroke-linecap: square"/>
   </g>
   <g id="line2d_52">
    <path d="M 56.571875 210.757064 
L 59.793957 213.526788 
L 59.793957 213.526788 
L 62.735487 216.292142 
L 62.735487 216.292142 
L 65.441433 215.125846 
L 65.441433 215.125846 
L 67.946747 205.495286 
L 70.279139 192.467238 
L 72.460946 203.160161 
L 72.460946 203.160161 
L 74.510438 204.373445 
L 76.442751 183.979454 
L 78.270562 209.190068 
L 80.004598 202.691432 
L 81.654011 210.285649 
L 83.226679 208.362275 
L 84.729428 206.343445 
L 86.16821 209.08662 
L 88.874155 209.281369 
L 90.150015 212.548811 
L 91.37947 204.661806 
L 93.711862 201.287588 
L 94.820363 198.55806 
L 96.933943 189.815018 
L 98.923121 180.956353 
L 99.875474 175.498093 
L 101.703285 169.298065 
L 105.086734 160.452124 
L 107.419126 152.468246 
L 108.889195 146.919574 
L 110.297994 142.268185 
L 112.306878 134.752755 
L 118.793998 113.067189 
L 120.366666 107.477374 
L 122.355844 101.068022 
L 127.290002 86.780795 
L 130.47412 78.712673 
L 132.321918 74.444677 
L 135.7396 67.46497 
L 139.138525 61.444983 
L 140.577307 59.113649 
L 144.054531 54.040073 
L 147.43798 49.708098 
L 150.722724 45.997818 
L 154.096234 42.631816 
L 157.506653 39.617873 
L 160.914484 36.948681 
L 164.290581 34.598047 
L 167.614107 32.533477 
L 170.985495 30.662769 
L 174.363486 28.987968 
L 179.366707 26.82358 
L 184.424301 24.963289 
L 189.492244 23.377844 
L 194.532621 22.032166 
L 199.56393 20.883153 
L 206.321006 19.595156 
L 213.024251 18.554083 
L 221.435698 17.513019 
L 229.854313 16.702901 
L 239.954318 15.964441 
L 251.735404 15.340986 
L 258.463843 15.071187 
L 258.463843 15.071187 
" clip-path="url(#p528bc1ba1e)" style="fill: none; stroke: #b200b2; stroke-width: 1.5; stroke-linecap: square"/>
   </g>
   <g id="line2d_53">
    <path d="M 56.571875 223.253545 
L 59.793957 225.069463 
L 59.793957 225.069463 
L 62.735487 225.336436 
L 62.735487 225.336436 
L 65.441433 223.339229 
L 65.441433 223.339229 
L 67.946747 211.734629 
L 70.279139 187.988701 
L 72.460946 211.471296 
L 72.460946 211.471296 
L 74.510438 205.574694 
L 76.442751 164.698354 
L 78.270562 220.678407 
L 80.004598 206.324387 
L 81.654011 219.420441 
L 83.226679 219.81698 
L 84.729428 218.348255 
L 86.16821 221.368304 
L 88.874155 213.468889 
L 90.150015 220.767331 
L 91.37947 205.153439 
L 93.711862 196.845544 
L 94.820363 192.322279 
L 98.923121 144.810821 
L 99.875474 131.227951 
L 101.703285 120.252834 
L 105.086734 108.189438 
L 107.419126 98.526965 
L 108.889195 93.16554 
L 110.297994 90.230374 
L 112.306878 83.107471 
L 115.410549 75.210318 
L 117.144584 70.047388 
L 118.793998 66.373117 
L 120.366666 62.275562 
L 122.355844 58.050004 
L 127.290002 49.074138 
L 130.47412 44.094094 
L 132.321918 41.49431 
L 135.7396 37.330052 
L 139.138525 33.836252 
L 142.493965 30.925789 
L 145.788567 28.521732 
L 149.010648 26.533028 
L 152.550536 24.690432 
L 155.75464 23.287048 
L 159.172323 22.012409 
L 162.571247 20.936774 
L 167.614107 19.624659 
L 172.662183 18.584687 
L 177.717293 17.75048 
L 184.424301 16.887735 
L 192.834633 16.094858 
L 202.933316 15.432235 
L 211.364922 15.042885 
L 211.364922 15.042885 
" clip-path="url(#p528bc1ba1e)" style="fill: none; stroke: #cc00cc; stroke-width: 1.5; stroke-linecap: square"/>
   </g>
   <g id="line2d_54">
    <path d="M 56.571875 228.265883 
L 59.793957 230.291697 
L 59.793957 230.291697 
L 62.735487 229.693235 
L 62.735487 229.693235 
L 65.441433 227.390089 
L 65.441433 227.390089 
L 67.946747 215.441699 
L 70.279139 186.634598 
L 72.460946 217.446146 
L 72.460946 217.446146 
L 74.510438 206.133332 
L 76.442751 153.485604 
L 78.270562 226.632417 
L 80.004598 207.882502 
L 81.654011 224.072769 
L 83.226679 225.780209 
L 84.729428 225.691571 
L 86.16821 228.94215 
L 88.874155 214.775748 
L 90.150015 223.726639 
L 91.37947 203.909192 
L 93.711862 192.507215 
L 94.820363 187.992283 
L 98.923121 121.887453 
L 99.875474 103.59103 
L 101.703285 91.225401 
L 107.419126 69.443529 
L 108.889195 65.770277 
L 110.297994 65.180113 
L 112.306878 59.284061 
L 113.582738 56.897944 
L 115.410549 52.966374 
L 117.144584 48.642274 
L 118.793998 45.901851 
L 120.366666 42.806126 
L 122.355844 40.05276 
L 128.919535 32.984981 
L 132.321918 29.850937 
L 135.7396 27.116539 
L 139.138525 24.751406 
L 142.493965 22.765389 
L 145.788567 21.137286 
L 149.010648 19.801373 
L 152.550536 18.587221 
L 155.75464 17.701278 
L 159.172323 16.922374 
L 164.290581 16.024759 
L 169.341811 15.378724 
L 172.662183 15.058294 
L 172.662183 15.058294 
" clip-path="url(#p528bc1ba1e)" style="fill: none; stroke: #e600e6; stroke-width: 1.5; stroke-linecap: square"/>
   </g>
   <g id="patch_3">
    <path d="M 56.571875 230.338828 
L 56.571875 12.898828 
" style="fill: none; stroke: #000000; stroke-width: 0.8; stroke-linejoin: miter; stroke-linecap: square"/>
   </g>
   <g id="patch_4">
    <path d="M 391.371875 230.338828 
L 391.371875 12.898828 
" style="fill: none; stroke: #000000; stroke-width: 0.8; stroke-linejoin: miter; stroke-linecap: square"/>
   </g>
   <g id="patch_5">
    <path d="M 56.571875 230.338828 
L 391.371875 230.338828 
" style="fill: none; stroke: #000000; stroke-width: 0.8; stroke-linejoin: miter; stroke-linecap: square"/>
   </g>
   <g id="patch_6">
    <path d="M 56.571875 12.898828 
L 391.371875 12.898828 
" style="fill: none; stroke: #000000; stroke-width: 0.8; stroke-linejoin: miter; stroke-linecap: square"/>
   </g>
  </g>
  <g id="axes_2">
   <g id="patch_7">
    <path d="M 274.731875 223.138828 
L 382.731875 223.138828 
L 382.731875 151.138828 
L 274.731875 151.138828 
z
" style="fill: #ffffff"/>
   </g>
   <g id="matplotlib.axis_3">
    <g id="xtick_39">
     <g id="line2d_55">
      <defs>
       <path id="mca7f6e6b3d" d="M 0 0 
L 0 -3.5 
" style="stroke: #000000; stroke-width: 0.8"/>
      </defs>
      <g>
       <use xlink:href="#mca7f6e6b3d" x="299.27733" y="151.138828" style="stroke: #000000; stroke-width: 0.8"/>
      </g>
     </g>
     <g id="text_14">
      <!-- 0.3 -->
      <g transform="translate(289.735455 141.643203) scale(0.12 -0.12)">
       <use xlink:href="#DejaVuSans-30"/>
       <use xlink:href="#DejaVuSans-2e" x="63.623047"/>
       <use xlink:href="#DejaVuSans-33" x="95.410156"/>
      </g>
     </g>
    </g>
    <g id="xtick_40">
     <g id="line2d_56">
      <g>
       <use xlink:href="#mca7f6e6b3d" x="338.550057" y="151.138828" style="stroke: #000000; stroke-width: 0.8"/>
      </g>
     </g>
     <g id="text_15">
      <!-- 0.4 -->
      <g transform="translate(329.008182 141.643203) scale(0.12 -0.12)">
       <use xlink:href="#DejaVuSans-30"/>
       <use xlink:href="#DejaVuSans-2e" x="63.623047"/>
       <use xlink:href="#DejaVuSans-34" x="95.410156"/>
      </g>
     </g>
    </g>
    <g id="xtick_41">
     <g id="line2d_57">
      <g>
       <use xlink:href="#mca7f6e6b3d" x="377.822784" y="151.138828" style="stroke: #000000; stroke-width: 0.8"/>
      </g>
     </g>
     <g id="text_16">
      <!-- 0.5 -->
      <g transform="translate(368.280909 141.643203) scale(0.12 -0.12)">
       <use xlink:href="#DejaVuSans-30"/>
       <use xlink:href="#DejaVuSans-2e" x="63.623047"/>
       <use xlink:href="#DejaVuSans-35" x="95.410156"/>
      </g>
     </g>
    </g>
    <g id="text_17">
     <!-- $\frac{\gamma t_\gamma \sqrt{2}}{\pi}$ -->
     <g transform="translate(315.711875 128.525078) scale(0.12 -0.12)">
      <defs>
       <path id="DejaVuSans-Oblique-3b3" d="M 1491 2950 
L 1838 788 
L 3456 3500 
L 4066 3500 
L 1972 0 
L 1713 -1331 
L 1138 -1331 
L 1397 0 
L 988 2613 
Q 925 3006 628 3006 
L 475 3006 
L 569 3500 
L 788 3500 
Q 1403 3500 1491 2950 
z
" transform="scale(0.015625)"/>
       <path id="DejaVuSans-Oblique-74" d="M 2706 3500 
L 2619 3053 
L 1472 3053 
L 1100 1153 
Q 1081 1047 1072 975 
Q 1063 903 1063 863 
Q 1063 663 1183 572 
Q 1303 481 1569 481 
L 2150 481 
L 2053 0 
L 1503 0 
Q 991 0 739 200 
Q 488 400 488 806 
Q 488 878 497 964 
Q 506 1050 525 1153 
L 897 3053 
L 409 3053 
L 500 3500 
L 978 3500 
L 1172 4494 
L 1747 4494 
L 1556 3500 
L 2706 3500 
z
" transform="scale(0.015625)"/>
       <path id="STIXSizeOneSym-Regular-221a" d="M 6970 9933 
L 3373 -1888 
L 3104 -1888 
L 1626 2918 
Q 1555 3149 1465 3251 
Q 1376 3354 1229 3354 
Q 1011 3354 794 3181 
L 717 3309 
L 1766 4115 
L 1926 4115 
L 3379 -602 
L 3405 -602 
L 6605 9933 
L 6970 9933 
z
" transform="scale(0.015625)"/>
       <path id="DejaVuSans-Oblique-3c0" d="M 584 3500 
L 3938 3500 
L 3825 2925 
L 3384 2925 
L 2966 775 
Q 2922 550 2981 450 
Q 3038 353 3209 353 
Q 3256 353 3325 363 
Q 3397 369 3419 372 
L 3338 -44 
Q 3222 -84 3103 -103 
Q 2981 -122 2866 -122 
Q 2491 -122 2388 81 
Q 2284 288 2391 838 
L 2797 2925 
L 1506 2925 
L 938 0 
L 350 0 
L 919 2925 
L 472 2925 
L 584 3500 
z
" transform="scale(0.015625)"/>
      </defs>
      <use xlink:href="#DejaVuSans-Oblique-3b3" transform="translate(0 66.103125) scale(0.7)"/>
      <use xlink:href="#DejaVuSans-Oblique-74" transform="translate(41.425781 66.103125) scale(0.7)"/>
      <use xlink:href="#DejaVuSans-Oblique-3b3" transform="translate(68.87207 54.61875) scale(0.49)"/>
      <use xlink:href="#STIXSizeOneSym-Regular-221a" transform="translate(99.78418 77.871875) scale(0.399712)"/>
      <use xlink:href="#DejaVuSans-32" transform="translate(150.800963 65.671875) scale(0.7)"/>
      <use xlink:href="#DejaVuSans-Oblique-3c0" transform="translate(81 -25.102969) scale(0.7)"/>
      <path d="M 142.050963 135.25 
L 142.050963 139.625 
L 204.087096 139.625 
L 204.087096 135.25 
L 142.050963 135.25 
z
"/>
      <path d="M 0 19.428281 
L 0 25.678281 
L 204.087096 25.678281 
L 204.087096 19.428281 
L 0 19.428281 
z
"/>
     </g>
    </g>
   </g>
   <g id="matplotlib.axis_4">
    <g id="ytick_7">
     <g id="line2d_58">
      <g>
       <use xlink:href="#md4df14e5fc" x="274.731875" y="207.239751" style="stroke: #000000; stroke-width: 0.8"/>
      </g>
     </g>
     <g id="text_18">
      <!-- $\mathdefault{10^{3}}$ -->
      <g transform="translate(246.611875 211.798814) scale(0.12 -0.12)">
       <use xlink:href="#DejaVuSans-31" transform="translate(0 0.765625)"/>
       <use xlink:href="#DejaVuSans-30" transform="translate(63.623047 0.765625)"/>
       <use xlink:href="#DejaVuSans-33" transform="translate(128.203125 39.046875) scale(0.7)"/>
      </g>
     </g>
    </g>
    <g id="ytick_8">
     <g id="line2d_59">
      <g>
       <use xlink:href="#md4df14e5fc" x="274.731875" y="182.415924" style="stroke: #000000; stroke-width: 0.8"/>
      </g>
     </g>
     <g id="text_19">
      <!-- $\mathdefault{10^{4}}$ -->
      <g transform="translate(246.611875 186.974986) scale(0.12 -0.12)">
       <use xlink:href="#DejaVuSans-31" transform="translate(0 0.684375)"/>
       <use xlink:href="#DejaVuSans-30" transform="translate(63.623047 0.684375)"/>
       <use xlink:href="#DejaVuSans-34" transform="translate(128.203125 38.965625) scale(0.7)"/>
      </g>
     </g>
    </g>
    <g id="ytick_9">
     <g id="line2d_60">
      <g>
       <use xlink:href="#md4df14e5fc" x="274.731875" y="157.592096" style="stroke: #000000; stroke-width: 0.8"/>
      </g>
     </g>
     <g id="text_20">
      <!-- $\mathdefault{10^{5}}$ -->
      <g transform="translate(246.611875 162.151159) scale(0.12 -0.12)">
       <use xlink:href="#DejaVuSans-31" transform="translate(0 0.684375)"/>
       <use xlink:href="#DejaVuSans-30" transform="translate(63.623047 0.684375)"/>
       <use xlink:href="#DejaVuSans-35" transform="translate(128.203125 38.965625) scale(0.7)"/>
      </g>
     </g>
    </g>
    <g id="ytick_10">
     <g id="line2d_61">
      <defs>
       <path id="mb728429d7b" d="M 0 0 
L -2 0 
" style="stroke: #000000; stroke-width: 0.6"/>
      </defs>
      <g>
       <use xlink:href="#mb728429d7b" x="274.731875" y="220.219603" style="stroke: #000000; stroke-width: 0.6"/>
      </g>
     </g>
    </g>
    <g id="ytick_11">
     <g id="line2d_62">
      <g>
       <use xlink:href="#mb728429d7b" x="274.731875" y="217.118145" style="stroke: #000000; stroke-width: 0.6"/>
      </g>
     </g>
    </g>
    <g id="ytick_12">
     <g id="line2d_63">
      <g>
       <use xlink:href="#mb728429d7b" x="274.731875" y="214.712468" style="stroke: #000000; stroke-width: 0.6"/>
      </g>
     </g>
    </g>
    <g id="ytick_13">
     <g id="line2d_64">
      <g>
       <use xlink:href="#mb728429d7b" x="274.731875" y="212.746886" style="stroke: #000000; stroke-width: 0.6"/>
      </g>
     </g>
    </g>
    <g id="ytick_14">
     <g id="line2d_65">
      <g>
       <use xlink:href="#mb728429d7b" x="274.731875" y="211.085011" style="stroke: #000000; stroke-width: 0.6"/>
      </g>
     </g>
    </g>
    <g id="ytick_15">
     <g id="line2d_66">
      <g>
       <use xlink:href="#mb728429d7b" x="274.731875" y="209.645429" style="stroke: #000000; stroke-width: 0.6"/>
      </g>
     </g>
    </g>
    <g id="ytick_16">
     <g id="line2d_67">
      <g>
       <use xlink:href="#mb728429d7b" x="274.731875" y="208.375627" style="stroke: #000000; stroke-width: 0.6"/>
      </g>
     </g>
    </g>
    <g id="ytick_17">
     <g id="line2d_68">
      <g>
       <use xlink:href="#mb728429d7b" x="274.731875" y="199.767035" style="stroke: #000000; stroke-width: 0.6"/>
      </g>
     </g>
    </g>
    <g id="ytick_18">
     <g id="line2d_69">
      <g>
       <use xlink:href="#mb728429d7b" x="274.731875" y="195.395776" style="stroke: #000000; stroke-width: 0.6"/>
      </g>
     </g>
    </g>
    <g id="ytick_19">
     <g id="line2d_70">
      <g>
       <use xlink:href="#mb728429d7b" x="274.731875" y="192.294318" style="stroke: #000000; stroke-width: 0.6"/>
      </g>
     </g>
    </g>
    <g id="ytick_20">
     <g id="line2d_71">
      <g>
       <use xlink:href="#mb728429d7b" x="274.731875" y="189.88864" style="stroke: #000000; stroke-width: 0.6"/>
      </g>
     </g>
    </g>
    <g id="ytick_21">
     <g id="line2d_72">
      <g>
       <use xlink:href="#mb728429d7b" x="274.731875" y="187.923059" style="stroke: #000000; stroke-width: 0.6"/>
      </g>
     </g>
    </g>
    <g id="ytick_22">
     <g id="line2d_73">
      <g>
       <use xlink:href="#mb728429d7b" x="274.731875" y="186.261183" style="stroke: #000000; stroke-width: 0.6"/>
      </g>
     </g>
    </g>
    <g id="ytick_23">
     <g id="line2d_74">
      <g>
       <use xlink:href="#mb728429d7b" x="274.731875" y="184.821601" style="stroke: #000000; stroke-width: 0.6"/>
      </g>
     </g>
    </g>
    <g id="ytick_24">
     <g id="line2d_75">
      <g>
       <use xlink:href="#mb728429d7b" x="274.731875" y="183.5518" style="stroke: #000000; stroke-width: 0.6"/>
      </g>
     </g>
    </g>
    <g id="ytick_25">
     <g id="line2d_76">
      <g>
       <use xlink:href="#mb728429d7b" x="274.731875" y="174.943207" style="stroke: #000000; stroke-width: 0.6"/>
      </g>
     </g>
    </g>
    <g id="ytick_26">
     <g id="line2d_77">
      <g>
       <use xlink:href="#mb728429d7b" x="274.731875" y="170.571948" style="stroke: #000000; stroke-width: 0.6"/>
      </g>
     </g>
    </g>
    <g id="ytick_27">
     <g id="line2d_78">
      <g>
       <use xlink:href="#mb728429d7b" x="274.731875" y="167.47049" style="stroke: #000000; stroke-width: 0.6"/>
      </g>
     </g>
    </g>
    <g id="ytick_28">
     <g id="line2d_79">
      <g>
       <use xlink:href="#mb728429d7b" x="274.731875" y="165.064813" style="stroke: #000000; stroke-width: 0.6"/>
      </g>
     </g>
    </g>
    <g id="ytick_29">
     <g id="line2d_80">
      <g>
       <use xlink:href="#mb728429d7b" x="274.731875" y="163.099231" style="stroke: #000000; stroke-width: 0.6"/>
      </g>
     </g>
    </g>
    <g id="ytick_30">
     <g id="line2d_81">
      <g>
       <use xlink:href="#mb728429d7b" x="274.731875" y="161.437356" style="stroke: #000000; stroke-width: 0.6"/>
      </g>
     </g>
    </g>
    <g id="ytick_31">
     <g id="line2d_82">
      <g>
       <use xlink:href="#mb728429d7b" x="274.731875" y="159.997774" style="stroke: #000000; stroke-width: 0.6"/>
      </g>
     </g>
    </g>
    <g id="ytick_32">
     <g id="line2d_83">
      <g>
       <use xlink:href="#mb728429d7b" x="274.731875" y="158.727972" style="stroke: #000000; stroke-width: 0.6"/>
      </g>
     </g>
    </g>
    <g id="text_21">
     <!-- # Cycles  -->
     <g transform="translate(226.678875 215.504766) rotate(-90) scale(0.12 -0.12)">
      <defs>
       <path id="DejaVuSans-23" d="M 3272 2816 
L 2363 2816 
L 2100 1772 
L 3016 1772 
L 3272 2816 
z
M 2803 4594 
L 2478 3297 
L 3391 3297 
L 3719 4594 
L 4219 4594 
L 3897 3297 
L 4872 3297 
L 4872 2816 
L 3775 2816 
L 3519 1772 
L 4513 1772 
L 4513 1294 
L 3397 1294 
L 3072 0 
L 2572 0 
L 2894 1294 
L 1978 1294 
L 1656 0 
L 1153 0 
L 1478 1294 
L 494 1294 
L 494 1772 
L 1594 1772 
L 1856 2816 
L 850 2816 
L 850 3297 
L 1978 3297 
L 2297 4594 
L 2803 4594 
z
" transform="scale(0.015625)"/>
      </defs>
      <use xlink:href="#DejaVuSans-23"/>
      <use xlink:href="#DejaVuSans-20" x="83.789062"/>
      <use xlink:href="#DejaVuSans-43" x="115.576172"/>
      <use xlink:href="#DejaVuSans-79" x="185.400391"/>
      <use xlink:href="#DejaVuSans-63" x="244.580078"/>
      <use xlink:href="#DejaVuSans-6c" x="299.560547"/>
      <use xlink:href="#DejaVuSans-65" x="327.34375"/>
      <use xlink:href="#DejaVuSans-73" x="388.867188"/>
      <use xlink:href="#DejaVuSans-20" x="440.966797"/>
     </g>
     <!--  for 99% -->
     <g transform="translate(240.11625 212.538516) rotate(-90) scale(0.12 -0.12)">
      <defs>
       <path id="DejaVuSans-39" d="M 703 97 
L 703 672 
Q 941 559 1184 500 
Q 1428 441 1663 441 
Q 2288 441 2617 861 
Q 2947 1281 2994 2138 
Q 2813 1869 2534 1725 
Q 2256 1581 1919 1581 
Q 1219 1581 811 2004 
Q 403 2428 403 3163 
Q 403 3881 828 4315 
Q 1253 4750 1959 4750 
Q 2769 4750 3195 4129 
Q 3622 3509 3622 2328 
Q 3622 1225 3098 567 
Q 2575 -91 1691 -91 
Q 1453 -91 1209 -44 
Q 966 3 703 97 
z
M 1959 2075 
Q 2384 2075 2632 2365 
Q 2881 2656 2881 3163 
Q 2881 3666 2632 3958 
Q 2384 4250 1959 4250 
Q 1534 4250 1286 3958 
Q 1038 3666 1038 3163 
Q 1038 2656 1286 2365 
Q 1534 2075 1959 2075 
z
" transform="scale(0.015625)"/>
       <path id="DejaVuSans-25" d="M 4653 2053 
Q 4381 2053 4226 1822 
Q 4072 1591 4072 1178 
Q 4072 772 4226 539 
Q 4381 306 4653 306 
Q 4919 306 5073 539 
Q 5228 772 5228 1178 
Q 5228 1588 5073 1820 
Q 4919 2053 4653 2053 
z
M 4653 2450 
Q 5147 2450 5437 2106 
Q 5728 1763 5728 1178 
Q 5728 594 5436 251 
Q 5144 -91 4653 -91 
Q 4153 -91 3862 251 
Q 3572 594 3572 1178 
Q 3572 1766 3864 2108 
Q 4156 2450 4653 2450 
z
M 1428 4353 
Q 1159 4353 1004 4120 
Q 850 3888 850 3481 
Q 850 3069 1003 2837 
Q 1156 2606 1428 2606 
Q 1700 2606 1854 2837 
Q 2009 3069 2009 3481 
Q 2009 3884 1853 4118 
Q 1697 4353 1428 4353 
z
M 4250 4750 
L 4750 4750 
L 1831 -91 
L 1331 -91 
L 4250 4750 
z
M 1428 4750 
Q 1922 4750 2215 4408 
Q 2509 4066 2509 3481 
Q 2509 2891 2217 2550 
Q 1925 2209 1428 2209 
Q 931 2209 642 2551 
Q 353 2894 353 3481 
Q 353 4063 643 4406 
Q 934 4750 1428 4750 
z
" transform="scale(0.015625)"/>
      </defs>
      <use xlink:href="#DejaVuSans-20"/>
      <use xlink:href="#DejaVuSans-66" x="31.787109"/>
      <use xlink:href="#DejaVuSans-6f" x="66.992188"/>
      <use xlink:href="#DejaVuSans-72" x="128.173828"/>
      <use xlink:href="#DejaVuSans-20" x="169.287109"/>
      <use xlink:href="#DejaVuSans-39" x="201.074219"/>
      <use xlink:href="#DejaVuSans-39" x="264.697266"/>
      <use xlink:href="#DejaVuSans-25" x="328.320312"/>
     </g>
    </g>
   </g>
   <g id="line2d_84">
    <defs>
     <path id="m3470804776" d="M 0 -5 
L -1.12257 -1.545085 
L -4.755283 -1.545085 
L -1.816356 0.59017 
L -2.938926 4.045085 
L -0 1.90983 
L 2.938926 4.045085 
L 1.816356 0.59017 
L 4.755283 -1.545085 
L 1.12257 -1.545085 
z
" style="stroke: #000000; stroke-linejoin: bevel"/>
    </defs>
    <g clip-path="url(#p5668a33186)">
     <use xlink:href="#m3470804776" x="279.640966" y="154.411555" style="stroke: #000000; stroke-linejoin: bevel"/>
    </g>
   </g>
   <g id="line2d_85">
    <defs>
     <path id="m606608e867" d="M 0 -5 
L -1.12257 -1.545085 
L -4.755283 -1.545085 
L -1.816356 0.59017 
L -2.938926 4.045085 
L -0 1.90983 
L 2.938926 4.045085 
L 1.816356 0.59017 
L 4.755283 -1.545085 
L 1.12257 -1.545085 
z
" style="stroke: #1a001a; stroke-linejoin: bevel"/>
    </defs>
    <g clip-path="url(#p5668a33186)">
     <use xlink:href="#m606608e867" x="290.550057" y="158.167234" style="fill: #1a001a; stroke: #1a001a; stroke-linejoin: bevel"/>
    </g>
   </g>
   <g id="line2d_86">
    <defs>
     <path id="m4b2de3777f" d="M 0 -5 
L -1.12257 -1.545085 
L -4.755283 -1.545085 
L -1.816356 0.59017 
L -2.938926 4.045085 
L -0 1.90983 
L 2.938926 4.045085 
L 1.816356 0.59017 
L 4.755283 -1.545085 
L 1.12257 -1.545085 
z
" style="stroke: #330033; stroke-linejoin: bevel"/>
    </defs>
    <g clip-path="url(#p5668a33186)">
     <use xlink:href="#m4b2de3777f" x="301.459148" y="162.459353" style="fill: #330033; stroke: #330033; stroke-linejoin: bevel"/>
    </g>
   </g>
   <g id="line2d_87">
    <defs>
     <path id="ma7bc8c1c34" d="M 0 -5 
L -1.12257 -1.545085 
L -4.755283 -1.545085 
L -1.816356 0.59017 
L -2.938926 4.045085 
L -0 1.90983 
L 2.938926 4.045085 
L 1.816356 0.59017 
L 4.755283 -1.545085 
L 1.12257 -1.545085 
z
" style="stroke: #4c004c; stroke-linejoin: bevel"/>
    </defs>
    <g clip-path="url(#p5668a33186)">
     <use xlink:href="#ma7bc8c1c34" x="312.368239" y="166.215073" style="fill: #4c004c; stroke: #4c004c; stroke-linejoin: bevel"/>
    </g>
   </g>
   <g id="line2d_88">
    <defs>
     <path id="mf07d7c85c1" d="M 0 -5 
L -1.12257 -1.545085 
L -4.755283 -1.545085 
L -1.816356 0.59017 
L -2.938926 4.045085 
L -0 1.90983 
L 2.938926 4.045085 
L 1.816356 0.59017 
L 4.755283 -1.545085 
L 1.12257 -1.545085 
z
" style="stroke: #660066; stroke-linejoin: bevel"/>
    </defs>
    <g clip-path="url(#p5668a33186)">
     <use xlink:href="#mf07d7c85c1" x="323.27733" y="171.043909" style="fill: #660066; stroke: #660066; stroke-linejoin: bevel"/>
    </g>
   </g>
   <g id="line2d_89">
    <defs>
     <path id="m6a393f0d11" d="M 0 -5 
L -1.12257 -1.545085 
L -4.755283 -1.545085 
L -1.816356 0.59017 
L -2.938926 4.045085 
L -0 1.90983 
L 2.938926 4.045085 
L 1.816356 0.59017 
L 4.755283 -1.545085 
L 1.12257 -1.545085 
z
" style="stroke: #800080; stroke-linejoin: bevel"/>
    </defs>
    <g clip-path="url(#p5668a33186)">
     <use xlink:href="#m6a393f0d11" x="334.18642" y="176.408694" style="fill: #800080; stroke: #800080; stroke-linejoin: bevel"/>
    </g>
   </g>
   <g id="line2d_90">
    <defs>
     <path id="m082b0217fc" d="M 0 -5 
L -1.12257 -1.545085 
L -4.755283 -1.545085 
L -1.816356 0.59017 
L -2.938926 4.045085 
L -0 1.90983 
L 2.938926 4.045085 
L 1.816356 0.59017 
L 4.755283 -1.545085 
L 1.12257 -1.545085 
z
" style="stroke: #990099; stroke-linejoin: bevel"/>
    </defs>
    <g clip-path="url(#p5668a33186)">
     <use xlink:href="#m082b0217fc" x="345.095511" y="182.847039" style="fill: #990099; stroke: #990099; stroke-linejoin: bevel"/>
    </g>
   </g>
   <g id="line2d_91">
    <defs>
     <path id="m0c1105f882" d="M 0 -5 
L -1.12257 -1.545085 
L -4.755283 -1.545085 
L -1.816356 0.59017 
L -2.938926 4.045085 
L -0 1.90983 
L 2.938926 4.045085 
L 1.816356 0.59017 
L 4.755283 -1.545085 
L 1.12257 -1.545085 
z
" style="stroke: #b200b2; stroke-linejoin: bevel"/>
    </defs>
    <g clip-path="url(#p5668a33186)">
     <use xlink:href="#m0c1105f882" x="356.004602" y="192.503873" style="fill: #b200b2; stroke: #b200b2; stroke-linejoin: bevel"/>
    </g>
   </g>
   <g id="line2d_92">
    <defs>
     <path id="mdda5f06f06" d="M 0 -5 
L -1.12257 -1.545085 
L -4.755283 -1.545085 
L -1.816356 0.59017 
L -2.938926 4.045085 
L -0 1.90983 
L 2.938926 4.045085 
L 1.816356 0.59017 
L 4.755283 -1.545085 
L 1.12257 -1.545085 
z
" style="stroke: #cc00cc; stroke-linejoin: bevel"/>
    </defs>
    <g clip-path="url(#p5668a33186)">
     <use xlink:href="#mdda5f06f06" x="366.913693" y="207.523762" style="fill: #cc00cc; stroke: #cc00cc; stroke-linejoin: bevel"/>
    </g>
   </g>
   <g id="line2d_93">
    <defs>
     <path id="m2459d75ad5" d="M 0 -5 
L -1.12257 -1.545085 
L -4.755283 -1.545085 
L -1.816356 0.59017 
L -2.938926 4.045085 
L -0 1.90983 
L 2.938926 4.045085 
L 1.816356 0.59017 
L 4.755283 -1.545085 
L 1.12257 -1.545085 
z
" style="stroke: #e600e6; stroke-linejoin: bevel"/>
    </defs>
    <g clip-path="url(#p5668a33186)">
     <use xlink:href="#m2459d75ad5" x="377.822784" y="219.866101" style="fill: #e600e6; stroke: #e600e6; stroke-linejoin: bevel"/>
    </g>
   </g>
   <g id="patch_8">
    <path d="M 274.731875 223.138828 
L 274.731875 151.138828 
" style="fill: none; stroke: #000000; stroke-width: 0.8; stroke-linejoin: miter; stroke-linecap: square"/>
   </g>
   <g id="patch_9">
    <path d="M 382.731875 223.138828 
L 382.731875 151.138828 
" style="fill: none; stroke: #000000; stroke-width: 0.8; stroke-linejoin: miter; stroke-linecap: square"/>
   </g>
   <g id="patch_10">
    <path d="M 274.731875 223.138828 
L 382.731875 223.138828 
" style="fill: none; stroke: #000000; stroke-width: 0.8; stroke-linejoin: miter; stroke-linecap: square"/>
   </g>
   <g id="patch_11">
    <path d="M 274.731875 151.138828 
L 382.731875 151.138828 
" style="fill: none; stroke: #000000; stroke-width: 0.8; stroke-linejoin: miter; stroke-linecap: square"/>
   </g>
  </g>
 </g>
 <defs>
  <clipPath id="p528bc1ba1e">
   <rect x="56.571875" y="12.898828" width="334.8" height="217.44"/>
  </clipPath>
  <clipPath id="p5668a33186">
   <rect x="274.731875" y="151.138828" width="108" height="72"/>
  </clipPath>
 </defs>
</svg>
