<?xml version="1.0" encoding="utf-8" standalone="no"?>
<!DOCTYPE svg PUBLIC "-//W3C//DTD SVG 1.1//EN"
  "http://www.w3.org/Graphics/SVG/1.1/DTD/svg11.dtd">
<svg xmlns:xlink="http://www.w3.org/1999/xlink" width="398.571875pt" height="277.573203pt" viewBox="0 0 398.571875 277.573203" xmlns="http://www.w3.org/2000/svg" version="1.1">
 <metadata>
  <rdf:RDF xmlns:dc="http://purl.org/dc/elements/1.1/" xmlns:cc="http://creativecommons.org/ns#" xmlns:rdf="http://www.w3.org/1999/02/22-rdf-syntax-ns#">
   <cc:Work>
    <dc:type rdf:resource="http://purl.org/dc/dcmitype/StillImage"/>
    <dc:date>2026-01-20T22:00:33.965381</dc:date>
    <dc:format>image/svg+xml</dc:format>
    <dc:creator>
     <cc:Agent>
      <dc:title>Matplotlib v3.6.3, https://matplotlib.org/</dc:title>
     </cc:Agent>
    </dc:creator>
   </cc:Work>
  </rdf:RDF>
 </metadata>
 <defs>
  <style type="text/css">*{stroke-linejoin: round; stroke-linecap: butt}</style>
 </defs>
 <g id="figure_1">
  <g id="patch_1">
   <path d="M 0 277.573203 
L 398.571875 277.573203 
L 398.571875 0 
L 0 0 
L 0 277.573203 
z
" style="fill: none"/>
  </g>
  <g id="axes_1">
   <g id="patch_2">
    <path d="M 56.571875 230.338828 
L 391.371875 230.338828 
L 391.371875 12.898828 
L 56.571875 12.898828 
z
" style="fill: #ffffff"/>
   </g>
   <g id="matplotlib.axis_1">
    <g id="xtick_1">
     <g id="line2d_1">
      <defs>
       <path id="m3400b1ed84" d="M 0 0 
L 0 3.5 
" style="stroke: #000000; stroke-width: 0.8"/>
      </defs>
      <g>
       <use xlink:href="#m3400b1ed84" x="56.571875" y="230.338828" style="stroke: #000000; stroke-width: 0.8"/>
      </g>
     </g>
     <g id="text_1">
      <!-- $\mathdefault{10^{1}}$ -->
      <g transform="translate(43.371875 248.736484) scale(0.15 -0.15)">
       <defs>
        <path id="DejaVuSans-31" d="M 794 531 
L 1825 531 
L 1825 4091 
L 703 3866 
L 703 4441 
L 1819 4666 
L 2450 4666 
L 2450 531 
L 3481 531 
L 3481 0 
L 794 0 
L 794 531 
z
" transform="scale(0.015625)"/>
        <path id="DejaVuSans-30" d="M 2034 4250 
Q 1547 4250 1301 3770 
Q 1056 3291 1056 2328 
Q 1056 1369 1301 889 
Q 1547 409 2034 409 
Q 2525 409 2770 889 
Q 3016 1369 3016 2328 
Q 3016 3291 2770 3770 
Q 2525 4250 2034 4250 
z
M 2034 4750 
Q 2819 4750 3233 4129 
Q 3647 3509 3647 2328 
Q 3647 1150 3233 529 
Q 2819 -91 2034 -91 
Q 1250 -91 836 529 
Q 422 1150 422 2328 
Q 422 3509 836 4129 
Q 1250 4750 2034 4750 
z
" transform="scale(0.015625)"/>
       </defs>
       <use xlink:href="#DejaVuSans-31" transform="translate(0 0.684375)"/>
       <use xlink:href="#DejaVuSans-30" transform="translate(63.623047 0.684375)"/>
       <use xlink:href="#DejaVuSans-31" transform="translate(128.203125 38.965625) scale(0.7)"/>
      </g>
     </g>
    </g>
    <g id="xtick_2">
     <g id="line2d_2">
      <g>
       <use xlink:href="#m3400b1ed84" x="134.413694" y="230.338828" style="stroke: #000000; stroke-width: 0.8"/>
      </g>
     </g>
     <g id="text_2">
      <!-- $\mathdefault{10^{2}}$ -->
      <g transform="translate(121.213694 248.736484) scale(0.15 -0.15)">
       <defs>
        <path id="DejaVuSans-32" d="M 1228 531 
L 3431 531 
L 3431 0 
L 469 0 
L 469 531 
Q 828 903 1448 1529 
Q 2069 2156 2228 2338 
Q 2531 2678 2651 2914 
Q 2772 3150 2772 3378 
Q 2772 3750 2511 3984 
Q 2250 4219 1831 4219 
Q 1534 4219 1204 4116 
Q 875 4013 500 3803 
L 500 4441 
Q 881 4594 1212 4672 
Q 1544 4750 1819 4750 
Q 2544 4750 2975 4387 
Q 3406 4025 3406 3419 
Q 3406 3131 3298 2873 
Q 3191 2616 2906 2266 
Q 2828 2175 2409 1742 
Q 1991 1309 1228 531 
z
" transform="scale(0.015625)"/>
       </defs>
       <use xlink:href="#DejaVuSans-31" transform="translate(0 0.765625)"/>
       <use xlink:href="#DejaVuSans-30" transform="translate(63.623047 0.765625)"/>
       <use xlink:href="#DejaVuSans-32" transform="translate(128.203125 39.046875) scale(0.7)"/>
      </g>
     </g>
    </g>
    <g id="xtick_3">
     <g id="line2d_3">
      <g>
       <use xlink:href="#m3400b1ed84" x="212.255514" y="230.338828" style="stroke: #000000; stroke-width: 0.8"/>
      </g>
     </g>
     <g id="text_3">
      <!-- $\mathdefault{10^{3}}$ -->
      <g transform="translate(199.055514 248.736484) scale(0.15 -0.15)">
       <defs>
        <path id="DejaVuSans-33" d="M 2597 2516 
Q 3050 2419 3304 2112 
Q 3559 1806 3559 1356 
Q 3559 666 3084 287 
Q 2609 -91 1734 -91 
Q 1441 -91 1130 -33 
Q 819 25 488 141 
L 488 750 
Q 750 597 1062 519 
Q 1375 441 1716 441 
Q 2309 441 2620 675 
Q 2931 909 2931 1356 
Q 2931 1769 2642 2001 
Q 2353 2234 1838 2234 
L 1294 2234 
L 1294 2753 
L 1863 2753 
Q 2328 2753 2575 2939 
Q 2822 3125 2822 3475 
Q 2822 3834 2567 4026 
Q 2313 4219 1838 4219 
Q 1578 4219 1281 4162 
Q 984 4106 628 3988 
L 628 4550 
Q 988 4650 1302 4700 
Q 1616 4750 1894 4750 
Q 2613 4750 3031 4423 
Q 3450 4097 3450 3541 
Q 3450 3153 3228 2886 
Q 3006 2619 2597 2516 
z
" transform="scale(0.015625)"/>
       </defs>
       <use xlink:href="#DejaVuSans-31" transform="translate(0 0.765625)"/>
       <use xlink:href="#DejaVuSans-30" transform="translate(63.623047 0.765625)"/>
       <use xlink:href="#DejaVuSans-33" transform="translate(128.203125 39.046875) scale(0.7)"/>
      </g>
     </g>
    </g>
    <g id="xtick_4">
     <g id="line2d_4">
      <g>
       <use xlink:href="#m3400b1ed84" x="290.097333" y="230.338828" style="stroke: #000000; stroke-width: 0.8"/>
      </g>
     </g>
     <g id="text_4">
      <!-- $\mathdefault{10^{4}}$ -->
      <g transform="translate(276.897333 248.736484) scale(0.15 -0.15)">
       <defs>
        <path id="DejaVuSans-34" d="M 2419 4116 
L 825 1625 
L 2419 1625 
L 2419 4116 
z
M 2253 4666 
L 3047 4666 
L 3047 1625 
L 3713 1625 
L 3713 1100 
L 3047 1100 
L 3047 0 
L 2419 0 
L 2419 1100 
L 313 1100 
L 313 1709 
L 2253 4666 
z
" transform="scale(0.015625)"/>
       </defs>
       <use xlink:href="#DejaVuSans-31" transform="translate(0 0.684375)"/>
       <use xlink:href="#DejaVuSans-30" transform="translate(63.623047 0.684375)"/>
       <use xlink:href="#DejaVuSans-34" transform="translate(128.203125 38.965625) scale(0.7)"/>
      </g>
     </g>
    </g>
    <g id="xtick_5">
     <g id="line2d_5">
      <g>
       <use xlink:href="#m3400b1ed84" x="367.939152" y="230.338828" style="stroke: #000000; stroke-width: 0.8"/>
      </g>
     </g>
     <g id="text_5">
      <!-- $\mathdefault{10^{5}}$ -->
      <g transform="translate(354.739152 248.736484) scale(0.15 -0.15)">
       <defs>
        <path id="DejaVuSans-35" d="M 691 4666 
L 3169 4666 
L 3169 4134 
L 1269 4134 
L 1269 2991 
Q 1406 3038 1543 3061 
Q 1681 3084 1819 3084 
Q 2600 3084 3056 2656 
Q 3513 2228 3513 1497 
Q 3513 744 3044 326 
Q 2575 -91 1722 -91 
Q 1428 -91 1123 -41 
Q 819 9 494 109 
L 494 744 
Q 775 591 1075 516 
Q 1375 441 1709 441 
Q 2250 441 2565 725 
Q 2881 1009 2881 1497 
Q 2881 1984 2565 2268 
Q 2250 2553 1709 2553 
Q 1456 2553 1204 2497 
Q 953 2441 691 2322 
L 691 4666 
z
" transform="scale(0.015625)"/>
       </defs>
       <use xlink:href="#DejaVuSans-31" transform="translate(0 0.684375)"/>
       <use xlink:href="#DejaVuSans-30" transform="translate(63.623047 0.684375)"/>
       <use xlink:href="#DejaVuSans-35" transform="translate(128.203125 38.965625) scale(0.7)"/>
      </g>
     </g>
    </g>
    <g id="xtick_6">
     <g id="line2d_6">
      <defs>
       <path id="mcbaf418cb1" d="M 0 0 
L 0 2 
" style="stroke: #000000; stroke-width: 0.6"/>
      </defs>
      <g>
       <use xlink:href="#mcbaf418cb1" x="80.004598" y="230.338828" style="stroke: #000000; stroke-width: 0.6"/>
      </g>
     </g>
    </g>
    <g id="xtick_7">
     <g id="line2d_7">
      <g>
       <use xlink:href="#mcbaf418cb1" x="93.711862" y="230.338828" style="stroke: #000000; stroke-width: 0.6"/>
      </g>
     </g>
    </g>
    <g id="xtick_8">
     <g id="line2d_8">
      <g>
       <use xlink:href="#mcbaf418cb1" x="103.43732" y="230.338828" style="stroke: #000000; stroke-width: 0.6"/>
      </g>
     </g>
    </g>
    <g id="xtick_9">
     <g id="line2d_9">
      <g>
       <use xlink:href="#mcbaf418cb1" x="110.980972" y="230.338828" style="stroke: #000000; stroke-width: 0.6"/>
      </g>
     </g>
    </g>
    <g id="xtick_10">
     <g id="line2d_10">
      <g>
       <use xlink:href="#mcbaf418cb1" x="117.144584" y="230.338828" style="stroke: #000000; stroke-width: 0.6"/>
      </g>
     </g>
    </g>
    <g id="xtick_11">
     <g id="line2d_11">
      <g>
       <use xlink:href="#mcbaf418cb1" x="122.355844" y="230.338828" style="stroke: #000000; stroke-width: 0.6"/>
      </g>
     </g>
    </g>
    <g id="xtick_12">
     <g id="line2d_12">
      <g>
       <use xlink:href="#mcbaf418cb1" x="126.870043" y="230.338828" style="stroke: #000000; stroke-width: 0.6"/>
      </g>
     </g>
    </g>
    <g id="xtick_13">
     <g id="line2d_13">
      <g>
       <use xlink:href="#mcbaf418cb1" x="130.851848" y="230.338828" style="stroke: #000000; stroke-width: 0.6"/>
      </g>
     </g>
    </g>
    <g id="xtick_14">
     <g id="line2d_14">
      <g>
       <use xlink:href="#mcbaf418cb1" x="157.846417" y="230.338828" style="stroke: #000000; stroke-width: 0.6"/>
      </g>
     </g>
    </g>
    <g id="xtick_15">
     <g id="line2d_15">
      <g>
       <use xlink:href="#mcbaf418cb1" x="171.553681" y="230.338828" style="stroke: #000000; stroke-width: 0.6"/>
      </g>
     </g>
    </g>
    <g id="xtick_16">
     <g id="line2d_16">
      <g>
       <use xlink:href="#mcbaf418cb1" x="181.279139" y="230.338828" style="stroke: #000000; stroke-width: 0.6"/>
      </g>
     </g>
    </g>
    <g id="xtick_17">
     <g id="line2d_17">
      <g>
       <use xlink:href="#mcbaf418cb1" x="188.822791" y="230.338828" style="stroke: #000000; stroke-width: 0.6"/>
      </g>
     </g>
    </g>
    <g id="xtick_18">
     <g id="line2d_18">
      <g>
       <use xlink:href="#mcbaf418cb1" x="194.986403" y="230.338828" style="stroke: #000000; stroke-width: 0.6"/>
      </g>
     </g>
    </g>
    <g id="xtick_19">
     <g id="line2d_19">
      <g>
       <use xlink:href="#mcbaf418cb1" x="200.197663" y="230.338828" style="stroke: #000000; stroke-width: 0.6"/>
      </g>
     </g>
    </g>
    <g id="xtick_20">
     <g id="line2d_20">
      <g>
       <use xlink:href="#mcbaf418cb1" x="204.711862" y="230.338828" style="stroke: #000000; stroke-width: 0.6"/>
      </g>
     </g>
    </g>
    <g id="xtick_21">
     <g id="line2d_21">
      <g>
       <use xlink:href="#mcbaf418cb1" x="208.693667" y="230.338828" style="stroke: #000000; stroke-width: 0.6"/>
      </g>
     </g>
    </g>
    <g id="xtick_22">
     <g id="line2d_22">
      <g>
       <use xlink:href="#mcbaf418cb1" x="235.688236" y="230.338828" style="stroke: #000000; stroke-width: 0.6"/>
      </g>
     </g>
    </g>
    <g id="xtick_23">
     <g id="line2d_23">
      <g>
       <use xlink:href="#mcbaf418cb1" x="249.3955" y="230.338828" style="stroke: #000000; stroke-width: 0.6"/>
      </g>
     </g>
    </g>
    <g id="xtick_24">
     <g id="line2d_24">
      <g>
       <use xlink:href="#mcbaf418cb1" x="259.120959" y="230.338828" style="stroke: #000000; stroke-width: 0.6"/>
      </g>
     </g>
    </g>
    <g id="xtick_25">
     <g id="line2d_25">
      <g>
       <use xlink:href="#mcbaf418cb1" x="266.664611" y="230.338828" style="stroke: #000000; stroke-width: 0.6"/>
      </g>
     </g>
    </g>
    <g id="xtick_26">
     <g id="line2d_26">
      <g>
       <use xlink:href="#mcbaf418cb1" x="272.828223" y="230.338828" style="stroke: #000000; stroke-width: 0.6"/>
      </g>
     </g>
    </g>
    <g id="xtick_27">
     <g id="line2d_27">
      <g>
       <use xlink:href="#mcbaf418cb1" x="278.039483" y="230.338828" style="stroke: #000000; stroke-width: 0.6"/>
      </g>
     </g>
    </g>
    <g id="xtick_28">
     <g id="line2d_28">
      <g>
       <use xlink:href="#mcbaf418cb1" x="282.553681" y="230.338828" style="stroke: #000000; stroke-width: 0.6"/>
      </g>
     </g>
    </g>
    <g id="xtick_29">
     <g id="line2d_29">
      <g>
       <use xlink:href="#mcbaf418cb1" x="286.535487" y="230.338828" style="stroke: #000000; stroke-width: 0.6"/>
      </g>
     </g>
    </g>
    <g id="xtick_30">
     <g id="line2d_30">
      <g>
       <use xlink:href="#mcbaf418cb1" x="313.530056" y="230.338828" style="stroke: #000000; stroke-width: 0.6"/>
      </g>
     </g>
    </g>
    <g id="xtick_31">
     <g id="line2d_31">
      <g>
       <use xlink:href="#mcbaf418cb1" x="327.23732" y="230.338828" style="stroke: #000000; stroke-width: 0.6"/>
      </g>
     </g>
    </g>
    <g id="xtick_32">
     <g id="line2d_32">
      <g>
       <use xlink:href="#mcbaf418cb1" x="336.962778" y="230.338828" style="stroke: #000000; stroke-width: 0.6"/>
      </g>
     </g>
    </g>
    <g id="xtick_33">
     <g id="line2d_33">
      <g>
       <use xlink:href="#mcbaf418cb1" x="344.50643" y="230.338828" style="stroke: #000000; stroke-width: 0.6"/>
      </g>
     </g>
    </g>
    <g id="xtick_34">
     <g id="line2d_34">
      <g>
       <use xlink:href="#mcbaf418cb1" x="350.670042" y="230.338828" style="stroke: #000000; stroke-width: 0.6"/>
      </g>
     </g>
    </g>
    <g id="xtick_35">
     <g id="line2d_35">
      <g>
       <use xlink:href="#mcbaf418cb1" x="355.881302" y="230.338828" style="stroke: #000000; stroke-width: 0.6"/>
      </g>
     </g>
    </g>
    <g id="xtick_36">
     <g id="line2d_36">
      <g>
       <use xlink:href="#mcbaf418cb1" x="360.395501" y="230.338828" style="stroke: #000000; stroke-width: 0.6"/>
      </g>
     </g>
    </g>
    <g id="xtick_37">
     <g id="line2d_37">
      <g>
       <use xlink:href="#mcbaf418cb1" x="364.377306" y="230.338828" style="stroke: #000000; stroke-width: 0.6"/>
      </g>
     </g>
    </g>
    <g id="xtick_38">
     <g id="line2d_38">
      <g>
       <use xlink:href="#mcbaf418cb1" x="391.371875" y="230.338828" style="stroke: #000000; stroke-width: 0.6"/>
      </g>
     </g>
    </g>
    <g id="text_6">
     <!-- Number of Cycles -->
     <g transform="translate(157.441016 267.253672) scale(0.15 -0.15)">
      <defs>
       <path id="DejaVuSans-4e" d="M 628 4666 
L 1478 4666 
L 3547 763 
L 3547 4666 
L 4159 4666 
L 4159 0 
L 3309 0 
L 1241 3903 
L 1241 0 
L 628 0 
L 628 4666 
z
" transform="scale(0.015625)"/>
       <path id="DejaVuSans-75" d="M 544 1381 
L 544 3500 
L 1119 3500 
L 1119 1403 
Q 1119 906 1312 657 
Q 1506 409 1894 409 
Q 2359 409 2629 706 
Q 2900 1003 2900 1516 
L 2900 3500 
L 3475 3500 
L 3475 0 
L 2900 0 
L 2900 538 
Q 2691 219 2414 64 
Q 2138 -91 1772 -91 
Q 1169 -91 856 284 
Q 544 659 544 1381 
z
M 1991 3584 
L 1991 3584 
z
" transform="scale(0.015625)"/>
       <path id="DejaVuSans-6d" d="M 3328 2828 
Q 3544 3216 3844 3400 
Q 4144 3584 4550 3584 
Q 5097 3584 5394 3201 
Q 5691 2819 5691 2113 
L 5691 0 
L 5113 0 
L 5113 2094 
Q 5113 2597 4934 2840 
Q 4756 3084 4391 3084 
Q 3944 3084 3684 2787 
Q 3425 2491 3425 1978 
L 3425 0 
L 2847 0 
L 2847 2094 
Q 2847 2600 2669 2842 
Q 2491 3084 2119 3084 
Q 1678 3084 1418 2786 
Q 1159 2488 1159 1978 
L 1159 0 
L 581 0 
L 581 3500 
L 1159 3500 
L 1159 2956 
Q 1356 3278 1631 3431 
Q 1906 3584 2284 3584 
Q 2666 3584 2933 3390 
Q 3200 3197 3328 2828 
z
" transform="scale(0.015625)"/>
       <path id="DejaVuSans-62" d="M 3116 1747 
Q 3116 2381 2855 2742 
Q 2594 3103 2138 3103 
Q 1681 3103 1420 2742 
Q 1159 2381 1159 1747 
Q 1159 1113 1420 752 
Q 1681 391 2138 391 
Q 2594 391 2855 752 
Q 3116 1113 3116 1747 
z
M 1159 2969 
Q 1341 3281 1617 3432 
Q 1894 3584 2278 3584 
Q 2916 3584 3314 3078 
Q 3713 2572 3713 1747 
Q 3713 922 3314 415 
Q 2916 -91 2278 -91 
Q 1894 -91 1617 61 
Q 1341 213 1159 525 
L 1159 0 
L 581 0 
L 581 4863 
L 1159 4863 
L 1159 2969 
z
" transform="scale(0.015625)"/>
       <path id="DejaVuSans-65" d="M 3597 1894 
L 3597 1613 
L 953 1613 
Q 991 1019 1311 708 
Q 1631 397 2203 397 
Q 2534 397 2845 478 
Q 3156 559 3463 722 
L 3463 178 
Q 3153 47 2828 -22 
Q 2503 -91 2169 -91 
Q 1331 -91 842 396 
Q 353 884 353 1716 
Q 353 2575 817 3079 
Q 1281 3584 2069 3584 
Q 2775 3584 3186 3129 
Q 3597 2675 3597 1894 
z
M 3022 2063 
Q 3016 2534 2758 2815 
Q 2500 3097 2075 3097 
Q 1594 3097 1305 2825 
Q 1016 2553 972 2059 
L 3022 2063 
z
" transform="scale(0.015625)"/>
       <path id="DejaVuSans-72" d="M 2631 2963 
Q 2534 3019 2420 3045 
Q 2306 3072 2169 3072 
Q 1681 3072 1420 2755 
Q 1159 2438 1159 1844 
L 1159 0 
L 581 0 
L 581 3500 
L 1159 3500 
L 1159 2956 
Q 1341 3275 1631 3429 
Q 1922 3584 2338 3584 
Q 2397 3584 2469 3576 
Q 2541 3569 2628 3553 
L 2631 2963 
z
" transform="scale(0.015625)"/>
       <path id="DejaVuSans-20" transform="scale(0.015625)"/>
       <path id="DejaVuSans-6f" d="M 1959 3097 
Q 1497 3097 1228 2736 
Q 959 2375 959 1747 
Q 959 1119 1226 758 
Q 1494 397 1959 397 
Q 2419 397 2687 759 
Q 2956 1122 2956 1747 
Q 2956 2369 2687 2733 
Q 2419 3097 1959 3097 
z
M 1959 3584 
Q 2709 3584 3137 3096 
Q 3566 2609 3566 1747 
Q 3566 888 3137 398 
Q 2709 -91 1959 -91 
Q 1206 -91 779 398 
Q 353 888 353 1747 
Q 353 2609 779 3096 
Q 1206 3584 1959 3584 
z
" transform="scale(0.015625)"/>
       <path id="DejaVuSans-66" d="M 2375 4863 
L 2375 4384 
L 1825 4384 
Q 1516 4384 1395 4259 
Q 1275 4134 1275 3809 
L 1275 3500 
L 2222 3500 
L 2222 3053 
L 1275 3053 
L 1275 0 
L 697 0 
L 697 3053 
L 147 3053 
L 147 3500 
L 697 3500 
L 697 3744 
Q 697 4328 969 4595 
Q 1241 4863 1831 4863 
L 2375 4863 
z
" transform="scale(0.015625)"/>
       <path id="DejaVuSans-43" d="M 4122 4306 
L 4122 3641 
Q 3803 3938 3442 4084 
Q 3081 4231 2675 4231 
Q 1875 4231 1450 3742 
Q 1025 3253 1025 2328 
Q 1025 1406 1450 917 
Q 1875 428 2675 428 
Q 3081 428 3442 575 
Q 3803 722 4122 1019 
L 4122 359 
Q 3791 134 3420 21 
Q 3050 -91 2638 -91 
Q 1578 -91 968 557 
Q 359 1206 359 2328 
Q 359 3453 968 4101 
Q 1578 4750 2638 4750 
Q 3056 4750 3426 4639 
Q 3797 4528 4122 4306 
z
" transform="scale(0.015625)"/>
       <path id="DejaVuSans-79" d="M 2059 -325 
Q 1816 -950 1584 -1140 
Q 1353 -1331 966 -1331 
L 506 -1331 
L 506 -850 
L 844 -850 
Q 1081 -850 1212 -737 
Q 1344 -625 1503 -206 
L 1606 56 
L 191 3500 
L 800 3500 
L 1894 763 
L 2988 3500 
L 3597 3500 
L 2059 -325 
z
" transform="scale(0.015625)"/>
       <path id="DejaVuSans-63" d="M 3122 3366 
L 3122 2828 
Q 2878 2963 2633 3030 
Q 2388 3097 2138 3097 
Q 1578 3097 1268 2742 
Q 959 2388 959 1747 
Q 959 1106 1268 751 
Q 1578 397 2138 397 
Q 2388 397 2633 464 
Q 2878 531 3122 666 
L 3122 134 
Q 2881 22 2623 -34 
Q 2366 -91 2075 -91 
Q 1284 -91 818 406 
Q 353 903 353 1747 
Q 353 2603 823 3093 
Q 1294 3584 2113 3584 
Q 2378 3584 2631 3529 
Q 2884 3475 3122 3366 
z
" transform="scale(0.015625)"/>
       <path id="DejaVuSans-6c" d="M 603 4863 
L 1178 4863 
L 1178 0 
L 603 0 
L 603 4863 
z
" transform="scale(0.015625)"/>
       <path id="DejaVuSans-73" d="M 2834 3397 
L 2834 2853 
Q 2591 2978 2328 3040 
Q 2066 3103 1784 3103 
Q 1356 3103 1142 2972 
Q 928 2841 928 2578 
Q 928 2378 1081 2264 
Q 1234 2150 1697 2047 
L 1894 2003 
Q 2506 1872 2764 1633 
Q 3022 1394 3022 966 
Q 3022 478 2636 193 
Q 2250 -91 1575 -91 
Q 1294 -91 989 -36 
Q 684 19 347 128 
L 347 722 
Q 666 556 975 473 
Q 1284 391 1588 391 
Q 1994 391 2212 530 
Q 2431 669 2431 922 
Q 2431 1156 2273 1281 
Q 2116 1406 1581 1522 
L 1381 1569 
Q 847 1681 609 1914 
Q 372 2147 372 2553 
Q 372 3047 722 3315 
Q 1072 3584 1716 3584 
Q 2034 3584 2315 3537 
Q 2597 3491 2834 3397 
z
" transform="scale(0.015625)"/>
      </defs>
      <use xlink:href="#DejaVuSans-4e"/>
      <use xlink:href="#DejaVuSans-75" x="74.804688"/>
      <use xlink:href="#DejaVuSans-6d" x="138.183594"/>
      <use xlink:href="#DejaVuSans-62" x="235.595703"/>
      <use xlink:href="#DejaVuSans-65" x="299.072266"/>
      <use xlink:href="#DejaVuSans-72" x="360.595703"/>
      <use xlink:href="#DejaVuSans-20" x="401.708984"/>
      <use xlink:href="#DejaVuSans-6f" x="433.496094"/>
      <use xlink:href="#DejaVuSans-66" x="494.677734"/>
      <use xlink:href="#DejaVuSans-20" x="529.882812"/>
      <use xlink:href="#DejaVuSans-43" x="561.669922"/>
      <use xlink:href="#DejaVuSans-79" x="631.494141"/>
      <use xlink:href="#DejaVuSans-63" x="690.673828"/>
      <use xlink:href="#DejaVuSans-6c" x="745.654297"/>
      <use xlink:href="#DejaVuSans-65" x="773.4375"/>
      <use xlink:href="#DejaVuSans-73" x="834.960938"/>
     </g>
    </g>
   </g>
   <g id="matplotlib.axis_2">
    <g id="ytick_1">
     <g id="line2d_39">
      <defs>
       <path id="m05efe7a0de" d="M 0 0 
L -3.5 0 
" style="stroke: #000000; stroke-width: 0.8"/>
      </defs>
      <g>
       <use xlink:href="#m05efe7a0de" x="56.571875" y="229.616436" style="stroke: #000000; stroke-width: 0.8"/>
      </g>
     </g>
     <g id="text_7">
      <!-- 0.0 -->
      <g transform="translate(25.717188 235.315264) scale(0.15 -0.15)">
       <defs>
        <path id="DejaVuSans-2e" d="M 684 794 
L 1344 794 
L 1344 0 
L 684 0 
L 684 794 
z
" transform="scale(0.015625)"/>
       </defs>
       <use xlink:href="#DejaVuSans-30"/>
       <use xlink:href="#DejaVuSans-2e" x="63.623047"/>
       <use xlink:href="#DejaVuSans-30" x="95.410156"/>
      </g>
     </g>
    </g>
    <g id="ytick_2">
     <g id="line2d_40">
      <g>
       <use xlink:href="#m05efe7a0de" x="56.571875" y="193.496835" style="stroke: #000000; stroke-width: 0.8"/>
      </g>
     </g>
     <g id="text_8">
      <!-- 0.5 -->
      <g transform="translate(25.717188 199.195663) scale(0.15 -0.15)">
       <use xlink:href="#DejaVuSans-30"/>
       <use xlink:href="#DejaVuSans-2e" x="63.623047"/>
       <use xlink:href="#DejaVuSans-35" x="95.410156"/>
      </g>
     </g>
    </g>
    <g id="ytick_3">
     <g id="line2d_41">
      <g>
       <use xlink:href="#m05efe7a0de" x="56.571875" y="157.377233" style="stroke: #000000; stroke-width: 0.8"/>
      </g>
     </g>
     <g id="text_9">
      <!-- 1.0 -->
      <g transform="translate(25.717188 163.076062) scale(0.15 -0.15)">
       <use xlink:href="#DejaVuSans-31"/>
       <use xlink:href="#DejaVuSans-2e" x="63.623047"/>
       <use xlink:href="#DejaVuSans-30" x="95.410156"/>
      </g>
     </g>
    </g>
    <g id="ytick_4">
     <g id="line2d_42">
      <g>
       <use xlink:href="#m05efe7a0de" x="56.571875" y="121.257632" style="stroke: #000000; stroke-width: 0.8"/>
      </g>
     </g>
     <g id="text_10">
      <!-- 1.5 -->
      <g transform="translate(25.717188 126.95646) scale(0.15 -0.15)">
       <use xlink:href="#DejaVuSans-31"/>
       <use xlink:href="#DejaVuSans-2e" x="63.623047"/>
       <use xlink:href="#DejaVuSans-35" x="95.410156"/>
      </g>
     </g>
    </g>
    <g id="ytick_5">
     <g id="line2d_43">
      <g>
       <use xlink:href="#m05efe7a0de" x="56.571875" y="85.138031" style="stroke: #000000; stroke-width: 0.8"/>
      </g>
     </g>
     <g id="text_11">
      <!-- 2.0 -->
      <g transform="translate(25.717188 90.836859) scale(0.15 -0.15)">
       <use xlink:href="#DejaVuSans-32"/>
       <use xlink:href="#DejaVuSans-2e" x="63.623047"/>
       <use xlink:href="#DejaVuSans-30" x="95.410156"/>
      </g>
     </g>
    </g>
    <g id="ytick_6">
     <g id="line2d_44">
      <g>
       <use xlink:href="#m05efe7a0de" x="56.571875" y="49.018429" style="stroke: #000000; stroke-width: 0.8"/>
      </g>
     </g>
     <g id="text_12">
      <!-- 2.5 -->
      <g transform="translate(25.717188 54.717258) scale(0.15 -0.15)">
       <use xlink:href="#DejaVuSans-32"/>
       <use xlink:href="#DejaVuSans-2e" x="63.623047"/>
       <use xlink:href="#DejaVuSans-35" x="95.410156"/>
      </g>
     </g>
    </g>
    <g id="ytick_7">
     <g id="line2d_45">
      <g>
       <use xlink:href="#m05efe7a0de" x="56.571875" y="12.898828" style="stroke: #000000; stroke-width: 0.8"/>
      </g>
     </g>
     <g id="text_13">
      <!-- 3.0 -->
      <g transform="translate(25.717188 18.597656) scale(0.15 -0.15)">
       <use xlink:href="#DejaVuSans-33"/>
       <use xlink:href="#DejaVuSans-2e" x="63.623047"/>
       <use xlink:href="#DejaVuSans-30" x="95.410156"/>
      </g>
     </g>
    </g>
    <g id="text_14">
     <!-- von Neumann entropy -->
     <g transform="translate(18.597656 205.566094) rotate(-90) scale(0.15 -0.15)">
      <defs>
       <path id="DejaVuSans-76" d="M 191 3500 
L 800 3500 
L 1894 563 
L 2988 3500 
L 3597 3500 
L 2284 0 
L 1503 0 
L 191 3500 
z
" transform="scale(0.015625)"/>
       <path id="DejaVuSans-6e" d="M 3513 2113 
L 3513 0 
L 2938 0 
L 2938 2094 
Q 2938 2591 2744 2837 
Q 2550 3084 2163 3084 
Q 1697 3084 1428 2787 
Q 1159 2491 1159 1978 
L 1159 0 
L 581 0 
L 581 3500 
L 1159 3500 
L 1159 2956 
Q 1366 3272 1645 3428 
Q 1925 3584 2291 3584 
Q 2894 3584 3203 3211 
Q 3513 2838 3513 2113 
z
" transform="scale(0.015625)"/>
       <path id="DejaVuSans-61" d="M 2194 1759 
Q 1497 1759 1228 1600 
Q 959 1441 959 1056 
Q 959 750 1161 570 
Q 1363 391 1709 391 
Q 2188 391 2477 730 
Q 2766 1069 2766 1631 
L 2766 1759 
L 2194 1759 
z
M 3341 1997 
L 3341 0 
L 2766 0 
L 2766 531 
Q 2569 213 2275 61 
Q 1981 -91 1556 -91 
Q 1019 -91 701 211 
Q 384 513 384 1019 
Q 384 1609 779 1909 
Q 1175 2209 1959 2209 
L 2766 2209 
L 2766 2266 
Q 2766 2663 2505 2880 
Q 2244 3097 1772 3097 
Q 1472 3097 1187 3025 
Q 903 2953 641 2809 
L 641 3341 
Q 956 3463 1253 3523 
Q 1550 3584 1831 3584 
Q 2591 3584 2966 3190 
Q 3341 2797 3341 1997 
z
" transform="scale(0.015625)"/>
       <path id="DejaVuSans-74" d="M 1172 4494 
L 1172 3500 
L 2356 3500 
L 2356 3053 
L 1172 3053 
L 1172 1153 
Q 1172 725 1289 603 
Q 1406 481 1766 481 
L 2356 481 
L 2356 0 
L 1766 0 
Q 1100 0 847 248 
Q 594 497 594 1153 
L 594 3053 
L 172 3053 
L 172 3500 
L 594 3500 
L 594 4494 
L 1172 4494 
z
" transform="scale(0.015625)"/>
       <path id="DejaVuSans-70" d="M 1159 525 
L 1159 -1331 
L 581 -1331 
L 581 3500 
L 1159 3500 
L 1159 2969 
Q 1341 3281 1617 3432 
Q 1894 3584 2278 3584 
Q 2916 3584 3314 3078 
Q 3713 2572 3713 1747 
Q 3713 922 3314 415 
Q 2916 -91 2278 -91 
Q 1894 -91 1617 61 
Q 1341 213 1159 525 
z
M 3116 1747 
Q 3116 2381 2855 2742 
Q 2594 3103 2138 3103 
Q 1681 3103 1420 2742 
Q 1159 2381 1159 1747 
Q 1159 1113 1420 752 
Q 1681 391 2138 391 
Q 2594 391 2855 752 
Q 3116 1113 3116 1747 
z
" transform="scale(0.015625)"/>
      </defs>
      <use xlink:href="#DejaVuSans-76"/>
      <use xlink:href="#DejaVuSans-6f" x="59.179688"/>
      <use xlink:href="#DejaVuSans-6e" x="120.361328"/>
      <use xlink:href="#DejaVuSans-20" x="183.740234"/>
      <use xlink:href="#DejaVuSans-4e" x="215.527344"/>
      <use xlink:href="#DejaVuSans-65" x="290.332031"/>
      <use xlink:href="#DejaVuSans-75" x="351.855469"/>
      <use xlink:href="#DejaVuSans-6d" x="415.234375"/>
      <use xlink:href="#DejaVuSans-61" x="512.646484"/>
      <use xlink:href="#DejaVuSans-6e" x="573.925781"/>
      <use xlink:href="#DejaVuSans-6e" x="637.304688"/>
      <use xlink:href="#DejaVuSans-20" x="700.683594"/>
      <use xlink:href="#DejaVuSans-65" x="732.470703"/>
      <use xlink:href="#DejaVuSans-6e" x="793.994141"/>
      <use xlink:href="#DejaVuSans-74" x="857.373047"/>
      <use xlink:href="#DejaVuSans-72" x="896.582031"/>
      <use xlink:href="#DejaVuSans-6f" x="935.445312"/>
      <use xlink:href="#DejaVuSans-70" x="996.626953"/>
      <use xlink:href="#DejaVuSans-79" x="1060.103516"/>
     </g>
    </g>
   </g>
   <g id="line2d_46">
    <path d="M 56.571875 72.27207 
L 59.793957 71.186551 
L 59.793957 71.186551 
L 62.735487 68.978812 
L 62.735487 68.978812 
L 65.441433 70.901904 
L 65.441433 70.901904 
L 67.946747 75.404192 
L 70.279139 78.497166 
L 80.004598 96.932074 
L 81.654011 99.718489 
L 83.226679 102.077276 
L 84.729428 104.067242 
L 86.16821 105.709997 
L 88.874155 108.058751 
L 90.150015 108.863178 
L 91.37947 109.464331 
L 93.711862 110.185828 
L 94.820363 110.358851 
L 96.933943 110.464397 
L 99.875474 110.222086 
L 103.43732 109.51779 
L 107.419126 108.388768 
L 112.306878 106.656264 
L 117.144584 104.660038 
L 122.355844 102.262354 
L 128.919535 98.954206 
L 135.7396 95.25375 
L 144.054531 90.496831 
L 157.506653 82.716542 
L 162.571247 80.004822 
L 167.614107 77.606254 
L 170.985495 76.248678 
L 174.363486 75.148645 
L 177.717293 74.369848 
L 181.109684 73.954145 
L 184.424301 73.95745 
L 186.150635 74.133293 
L 187.793079 74.416592 
L 189.492244 74.832806 
L 191.173208 75.369944 
L 192.834633 76.025124 
L 194.532621 76.824071 
L 196.203782 77.737546 
L 199.56393 79.95285 
L 202.933316 82.66862 
L 206.321006 85.870644 
L 209.656452 89.448793 
L 213.024251 93.444718 
L 216.387236 97.769575 
L 221.435698 104.770649 
L 226.499396 112.240455 
L 234.901611 125.142686 
L 244.997011 140.614224 
L 251.735404 150.485666 
L 256.776491 157.494472 
L 261.824304 164.131347 
L 266.873562 170.355769 
L 271.920272 176.145609 
L 276.969916 181.502269 
L 282.016995 186.424811 
L 287.061012 190.925826 
L 292.108623 195.028909 
L 297.156123 198.752046 
L 302.203154 202.118728 
L 307.251306 205.154862 
L 312.299349 207.884873 
L 317.346181 210.33326 
L 322.393112 212.524978 
L 327.440671 214.48336 
L 332.487193 216.229653 
L 337.534316 217.784909 
L 344.264187 219.593767 
L 350.994151 221.137091 
L 357.723802 222.451157 
L 364.453097 223.568035 
L 372.865338 224.729413 
L 377.912598 225.31916 
L 377.912598 225.31916 
" clip-path="url(#pc4de205465)" style="fill: none; stroke: #000000; stroke-width: 1.5; stroke-linecap: square"/>
   </g>
   <g id="line2d_47">
    <path d="M 56.571875 69.826941 
L 59.793957 70.261946 
L 59.793957 70.261946 
L 62.735487 70.235041 
L 62.735487 70.235041 
L 65.441433 72.285495 
L 65.441433 72.285495 
L 67.946747 76.497975 
L 70.279139 80.138736 
L 72.460946 85.040067 
L 74.510438 89.320789 
L 76.442751 92.849619 
L 78.270562 95.479622 
L 80.004598 97.536232 
L 81.654011 99.088716 
L 83.226679 100.123531 
L 84.729428 100.74908 
L 86.16821 101.026938 
L 88.874155 100.967439 
L 91.37947 100.441849 
L 101.703285 97.242842 
L 105.086734 96.561889 
L 115.410549 94.745943 
L 120.366666 93.537718 
L 123.774497 92.505821 
L 127.290002 91.265186 
L 132.321918 89.197851 
L 137.327041 86.860982 
L 145.788567 82.546038 
L 152.550536 79.150133 
L 157.506653 76.952892 
L 160.914484 75.700121 
L 164.290581 74.738122 
L 167.614107 74.124268 
L 170.985495 73.894551 
L 172.662183 73.943357 
L 174.363486 74.110462 
L 175.983258 74.383822 
L 177.717293 74.803638 
L 179.366707 75.327633 
L 181.109684 76.015369 
L 182.767186 76.798049 
L 184.424301 77.7055 
L 187.793079 79.933847 
L 191.173208 82.670698 
L 194.532621 85.858895 
L 197.89975 89.485132 
L 201.243792 93.46809 
L 204.62724 97.833596 
L 209.656452 104.827718 
L 214.731839 112.330875 
L 223.11945 125.228829 
L 233.216711 140.712548 
L 239.954318 150.583127 
L 244.997011 157.59207 
L 250.053904 164.236897 
L 255.095811 170.447191 
L 260.144839 176.234156 
L 265.192888 181.583171 
L 270.235245 186.495269 
L 275.283596 190.994336 
L 280.331283 195.091623 
L 285.381629 198.811124 
L 290.427022 202.171243 
L 295.47432 205.201812 
L 300.522061 207.926999 
L 305.56972 210.371472 
L 310.61556 212.558767 
L 315.66376 214.513801 
L 320.710715 216.256957 
L 325.757357 217.809089 
L 332.487193 219.614431 
L 339.216874 221.154656 
L 345.946564 222.466114 
L 352.676553 223.580845 
L 361.08856 224.739805 
L 366.135654 225.328312 
L 366.135654 225.328312 
" clip-path="url(#pc4de205465)" style="fill: none; stroke: #1a001a; stroke-width: 1.5; stroke-linecap: square"/>
   </g>
   <g id="line2d_48">
    <path d="M 56.571875 63.733824 
L 59.793957 66.142563 
L 59.793957 66.142563 
L 62.735487 67.241528 
L 62.735487 67.241528 
L 65.441433 69.673898 
L 65.441433 69.673898 
L 67.946747 73.550183 
L 70.279139 77.458635 
L 72.460946 82.582873 
L 72.460946 82.582873 
L 74.510438 86.583007 
L 76.442751 89.320175 
L 78.270562 90.929749 
L 80.004598 92.100465 
L 81.654011 92.622357 
L 83.226679 92.671705 
L 84.729428 92.354638 
L 86.16821 91.790608 
L 90.150015 89.732433 
L 93.711862 87.719171 
L 94.820363 87.171914 
L 96.933943 86.334817 
L 99.875474 85.682046 
L 101.703285 85.556847 
L 105.086734 85.70604 
L 112.306878 86.361546 
L 115.410549 86.414366 
L 118.793998 86.215275 
L 122.355844 85.69023 
L 125.577926 84.939137 
L 128.919535 83.907452 
L 132.321918 82.637235 
L 137.327041 80.514124 
L 145.788567 76.880015 
L 149.010648 75.716757 
L 152.550536 74.711624 
L 155.75464 74.117738 
L 159.172323 73.88351 
L 160.914484 73.940341 
L 162.571247 74.113456 
L 164.290581 74.419312 
L 165.926687 74.833535 
L 167.614107 75.388275 
L 169.341811 76.093805 
L 170.985495 76.894093 
L 172.662183 77.84082 
L 175.983258 80.094355 
L 179.366707 82.892377 
L 182.767186 86.183358 
L 186.150635 89.892701 
L 189.492244 93.934106 
L 192.834633 98.29943 
L 197.89975 105.411489 
L 202.933316 112.901962 
L 213.024251 128.488111 
L 221.435698 141.354736 
L 228.186816 151.22056 
L 233.216711 158.184765 
L 238.274348 164.799051 
L 243.312926 170.970747 
L 248.365788 176.725703 
L 253.417349 182.041145 
L 258.463843 186.920062 
L 263.506025 191.377569 
L 268.557836 195.443678 
L 273.602467 199.126394 
L 278.652071 202.458827 
L 283.696245 205.459172 
L 288.745454 208.159016 
L 293.792451 210.579175 
L 298.839227 212.744964 
L 303.885635 214.679407 
L 308.934624 216.405233 
L 313.981719 217.94119 
L 320.710715 219.727076 
L 327.440671 221.250734 
L 334.169669 222.54773 
L 342.581832 223.898625 
L 350.994151 224.9983 
L 352.676553 225.19216 
L 352.676553 225.19216 
" clip-path="url(#pc4de205465)" style="fill: none; stroke: #330033; stroke-width: 1.5; stroke-linecap: square"/>
   </g>
   <g id="line2d_49">
    <path d="M 56.571875 53.857535 
L 59.793957 58.541908 
L 59.793957 58.541908 
L 62.735487 59.19613 
L 62.735487 59.19613 
L 65.441433 60.892778 
L 65.441433 60.892778 
L 67.946747 64.476712 
L 70.279139 68.275006 
L 72.460946 73.357831 
L 72.460946 73.357831 
L 74.510438 76.917934 
L 76.442751 79.664362 
L 80.004598 82.683108 
L 81.654011 83.188755 
L 83.226679 83.256236 
L 84.729428 82.869037 
L 86.16821 82.194479 
L 93.711862 77.698517 
L 94.820363 77.224437 
L 96.933943 76.654752 
L 98.923121 76.523687 
L 99.875474 76.587187 
L 101.703285 76.886635 
L 105.086734 77.827367 
L 110.297994 79.400886 
L 113.582738 80.102866 
L 117.144584 80.439583 
L 120.366666 80.329317 
L 123.774497 79.800115 
L 127.290002 78.884834 
L 132.321918 77.196409 
L 137.327041 75.520778 
L 140.577307 74.645339 
L 144.054531 74.0417 
L 147.43798 73.87428 
L 149.010648 73.959025 
L 150.722724 74.176 
L 152.550536 74.555792 
L 154.096234 75.001761 
L 155.75464 75.610271 
L 157.506653 76.396382 
L 159.172323 77.281735 
L 160.914484 78.348158 
L 164.290581 80.82597 
L 167.614107 83.758497 
L 170.985495 87.201056 
L 174.363486 91.074774 
L 177.717293 95.284166 
L 181.109684 99.854929 
L 186.150635 107.101328 
L 192.834633 117.254413 
L 209.656452 143.175286 
L 214.731839 150.585158 
L 219.77211 157.605272 
L 224.816693 164.244707 
L 229.854313 170.457343 
L 234.901611 176.24764 
L 239.954318 181.604648 
L 244.997011 186.518494 
L 250.053904 191.025124 
L 255.095811 195.116867 
L 260.144839 198.834333 
L 265.192888 202.194814 
L 270.235245 205.22091 
L 275.283596 207.944972 
L 280.331283 210.387966 
L 285.381629 212.57564 
L 290.427022 214.528041 
L 295.47432 216.269911 
L 300.522061 217.821048 
L 307.251306 219.6246 
L 313.981719 221.163544 
L 320.710715 222.473593 
L 327.440671 223.587219 
L 335.851938 224.744915 
L 340.899478 225.332877 
L 340.899478 225.332877 
" clip-path="url(#pc4de205465)" style="fill: none; stroke: #4c004c; stroke-width: 1.5; stroke-linecap: square"/>
   </g>
   <g id="line2d_50">
    <path d="M 56.571875 42.602472 
L 59.793957 47.767772 
L 59.793957 47.767772 
L 62.735487 48.41295 
L 62.735487 48.41295 
L 65.441433 47.29145 
L 65.441433 47.29145 
L 67.946747 50.568582 
L 70.279139 53.386591 
L 72.460946 57.601229 
L 72.460946 57.601229 
L 74.510438 60.51833 
L 76.442751 64.308786 
L 78.270562 66.743746 
L 80.004598 69.533429 
L 81.654011 71.45012 
L 83.226679 72.778021 
L 84.729428 73.410393 
L 86.16821 73.420305 
L 88.874155 72.402939 
L 93.711862 69.761577 
L 94.820363 69.388976 
L 96.933943 69.187662 
L 98.923121 69.575028 
L 99.875474 69.907975 
L 103.43732 71.477227 
L 108.889195 74.005996 
L 110.297994 74.57568 
L 113.582738 75.592076 
L 115.410549 75.907387 
L 117.144584 76.049072 
L 118.793998 76.038346 
L 120.366666 75.910689 
L 123.774497 75.366386 
L 130.47412 74.090018 
L 132.321918 73.892714 
L 134.07393 73.823613 
L 135.7396 73.87951 
L 137.327041 74.052098 
L 139.138525 74.404582 
L 140.577307 74.809765 
L 142.493965 75.513009 
L 144.054531 76.233856 
L 145.788567 77.191828 
L 147.43798 78.240375 
L 150.722724 80.753107 
L 154.096234 83.857069 
L 157.506653 87.500552 
L 160.914484 91.568808 
L 164.290581 95.9735 
L 167.614107 100.595509 
L 172.662183 108.044628 
L 179.366707 118.414532 
L 192.834633 139.428656 
L 199.56393 149.4263 
L 204.62724 156.560824 
L 209.656452 163.259192 
L 214.731839 169.595204 
L 219.77211 175.449195 
L 224.816693 180.867015 
L 229.854313 185.841863 
L 234.901611 190.402801 
L 239.954318 194.561953 
L 244.997011 198.328979 
L 250.053904 201.745451 
L 255.095811 204.816933 
L 260.144839 207.583183 
L 265.192888 210.064431 
L 270.235245 212.283362 
L 275.283596 214.268488 
L 280.331283 216.038919 
L 285.381629 217.616407 
L 292.108623 219.449367 
L 298.839227 221.014317 
L 305.56972 222.346968 
L 312.299349 223.479664 
L 320.710715 224.657448 
L 325.757357 225.255582 
L 325.757357 225.255582 
" clip-path="url(#pc4de205465)" style="fill: none; stroke: #660066; stroke-width: 1.5; stroke-linecap: square"/>
   </g>
   <g id="line2d_51">
    <path d="M 56.571875 34.106819 
L 59.793957 36.689979 
L 59.793957 36.689979 
L 62.735487 39.557848 
L 62.735487 39.557848 
L 65.441433 34.8049 
L 65.441433 34.8049 
L 67.946747 36.855422 
L 70.279139 38.961455 
L 72.460946 40.658459 
L 72.460946 40.658459 
L 74.510438 41.850273 
L 76.442751 45.972162 
L 78.270562 48.443517 
L 80.004598 51.675636 
L 81.654011 55.224149 
L 83.226679 57.822312 
L 84.729428 59.97445 
L 86.16821 61.632271 
L 88.874155 62.935321 
L 90.150015 62.729672 
L 94.820363 60.72015 
L 96.933943 60.937361 
L 98.923121 62.263606 
L 103.43732 66.686267 
L 105.086734 68.006961 
L 107.419126 69.53255 
L 110.297994 71.035499 
L 112.306878 71.806427 
L 113.582738 72.149077 
L 117.144584 72.681831 
L 122.355844 73.145608 
L 123.774497 73.376931 
L 125.577926 73.812788 
L 127.290002 74.392164 
L 128.919535 75.107615 
L 130.47412 75.945091 
L 132.321918 77.150627 
L 134.07393 78.465222 
L 137.327041 81.405142 
L 140.577307 84.914782 
L 144.054531 89.17233 
L 147.43798 93.756756 
L 152.550536 101.287652 
L 157.506653 109.055753 
L 179.366707 143.932953 
L 184.424301 151.413331 
L 189.492244 158.522642 
L 194.532621 165.168203 
L 199.56393 171.358558 
L 204.62724 177.134337 
L 209.656452 182.421619 
L 214.731839 187.314215 
L 219.77211 191.748792 
L 224.816693 195.784985 
L 229.854313 199.437272 
L 234.901611 202.742781 
L 239.954318 205.722919 
L 244.997011 208.394977 
L 250.053904 210.796734 
L 255.095811 212.93877 
L 260.144839 214.854209 
L 265.192888 216.561326 
L 270.235245 218.079192 
L 276.969916 219.846722 
L 283.696245 221.352217 
L 290.427022 222.634543 
L 298.839227 223.969515 
L 307.251306 225.05599 
L 308.934624 225.247611 
L 308.934624 225.247611 
" clip-path="url(#pc4de205465)" style="fill: none; stroke: #800080; stroke-width: 1.5; stroke-linecap: square"/>
   </g>
   <g id="line2d_52">
    <path d="M 56.571875 35.55693 
L 59.793957 36.977213 
L 59.793957 36.977213 
L 62.735487 45.096729 
L 62.735487 45.096729 
L 65.441433 34.856596 
L 65.441433 34.856596 
L 67.946747 30.515399 
L 70.279139 34.612241 
L 72.460946 29.227249 
L 72.460946 29.227249 
L 74.510438 28.297927 
L 76.442751 31.725755 
L 78.270562 32.541655 
L 80.004598 33.947675 
L 81.654011 37.815316 
L 84.729428 40.540506 
L 86.16821 43.651034 
L 88.874155 50.413829 
L 90.150015 50.403281 
L 91.37947 48.691709 
L 93.711862 46.930422 
L 94.820363 47.06257 
L 96.933943 48.278926 
L 98.923121 51.457854 
L 103.43732 60.404816 
L 105.086734 62.891026 
L 107.419126 65.589688 
L 108.889195 66.987235 
L 112.306878 69.719731 
L 115.410549 71.965608 
L 118.793998 74.970751 
L 120.366666 76.70566 
L 123.774497 80.910664 
L 127.290002 86.119874 
L 130.47412 91.364792 
L 135.7396 100.735408 
L 142.493965 113.184644 
L 150.722724 128.179082 
L 155.75464 136.911928 
L 160.914484 145.400677 
L 165.926687 153.157347 
L 170.985495 160.452715 
L 175.983258 167.1402 
L 181.109684 173.461224 
L 186.150635 179.162665 
L 191.173208 184.357079 
L 196.203782 189.097877 
L 201.243792 193.411143 
L 206.321006 197.343313 
L 211.364922 200.869095 
L 216.387236 204.031177 
L 221.435698 206.887623 
L 226.499396 209.455837 
L 231.539099 211.742825 
L 236.588901 213.789968 
L 241.639896 215.615943 
L 246.686737 217.240607 
L 253.417349 219.130691 
L 260.144839 220.742872 
L 266.873562 222.116244 
L 273.602467 223.283921 
L 282.016995 224.498835 
L 288.745454 225.304707 
L 288.745454 225.304707 
" clip-path="url(#pc4de205465)" style="fill: none; stroke: #990099; stroke-width: 1.5; stroke-linecap: square"/>
   </g>
   <g id="line2d_53">
    <path d="M 56.571875 70.282699 
L 59.793957 73.8211 
L 59.793957 73.8211 
L 62.735487 86.611542 
L 62.735487 86.611542 
L 67.946747 57.540381 
L 70.279139 64.234489 
L 72.460946 44.176664 
L 72.460946 44.176664 
L 74.510438 42.354303 
L 76.442751 44.38539 
L 78.270562 43.948223 
L 80.004598 43.063506 
L 81.654011 46.316874 
L 83.226679 44.212847 
L 84.729428 39.767619 
L 86.16821 40.777044 
L 88.874155 56.304773 
L 90.150015 53.560517 
L 91.37947 43.982675 
L 93.711862 34.418704 
L 94.820363 33.569875 
L 96.933943 34.620076 
L 98.923121 40.645564 
L 99.875474 44.304545 
L 101.703285 50.544585 
L 103.43732 55.718757 
L 107.419126 65.986702 
L 110.297994 73.241753 
L 113.582738 82.452697 
L 115.410549 87.106417 
L 117.144584 92.084036 
L 118.793998 96.240646 
L 120.366666 100.650852 
L 123.774497 109.362532 
L 128.919535 122.256002 
L 132.321918 130.325196 
L 137.327041 141.19318 
L 140.577307 147.739898 
L 144.054531 154.202606 
L 147.43798 160.046684 
L 150.722724 165.312102 
L 154.096234 170.297732 
L 157.506653 174.96671 
L 160.914484 179.260554 
L 164.290581 183.193615 
L 167.614107 186.762911 
L 170.985495 190.108987 
L 174.363486 193.203745 
L 177.717293 196.03773 
L 181.109684 198.682823 
L 184.424301 201.06813 
L 189.492244 204.371226 
L 194.532621 207.283447 
L 199.56393 209.86201 
L 204.62724 212.163639 
L 209.656452 214.190716 
L 214.731839 216.00413 
L 219.77211 217.59976 
L 226.499396 219.44988 
L 233.216711 221.020689 
L 239.954318 222.358974 
L 246.686737 223.493448 
L 255.095811 224.670544 
L 258.463843 225.077491 
L 258.463843 225.077491 
" clip-path="url(#pc4de205465)" style="fill: none; stroke: #b200b2; stroke-width: 1.5; stroke-linecap: square"/>
   </g>
   <g id="line2d_54">
    <path d="M 56.571875 156.581016 
L 59.793957 159.477607 
L 59.793957 159.477607 
L 62.735487 167.846883 
L 62.735487 167.846883 
L 65.441433 157.953272 
L 65.441433 157.953272 
L 67.946747 146.874686 
L 70.279139 151.375363 
L 72.460946 131.724703 
L 72.460946 131.724703 
L 74.510438 130.295121 
L 76.442751 131.233691 
L 78.270562 131.168794 
L 80.004598 130.080339 
L 81.654011 131.221796 
L 83.226679 128.514984 
L 84.729428 122.028925 
L 86.16821 119.894169 
L 88.874155 134.481641 
L 90.150015 130.286872 
L 91.37947 117.451508 
L 93.711862 100.608705 
L 94.820363 95.27654 
L 96.933943 91.56176 
L 98.923121 96.503153 
L 99.875474 101.02575 
L 103.43732 112.812943 
L 105.086734 117.381134 
L 108.889195 126.573356 
L 110.297994 129.411698 
L 112.306878 136.464416 
L 117.144584 151.242402 
L 118.793998 155.22643 
L 120.366666 159.326626 
L 122.355844 163.490225 
L 127.290002 172.102508 
L 130.47412 177.083053 
L 132.321918 179.847551 
L 137.327041 186.554354 
L 140.577307 190.541477 
L 144.054531 194.414627 
L 147.43798 197.861708 
L 150.722724 200.910506 
L 154.096234 203.740041 
L 157.506653 206.330189 
L 160.914484 208.655557 
L 164.290581 210.730906 
L 167.614107 212.564916 
L 170.985495 214.237029 
L 175.983258 216.403411 
L 181.109684 218.2878 
L 186.150635 219.859102 
L 191.173208 221.190919 
L 196.203782 222.328385 
L 202.933316 223.596511 
L 209.656452 224.628796 
L 211.364922 224.859652 
L 211.364922 224.859652 
" clip-path="url(#pc4de205465)" style="fill: none; stroke: #cc00cc; stroke-width: 1.5; stroke-linecap: square"/>
   </g>
   <g id="line2d_55">
    <path d="M 56.571875 229.616436 
L 172.662183 229.616436 
L 172.662183 229.616436 
" clip-path="url(#pc4de205465)" style="fill: none; stroke: #e600e6; stroke-width: 1.5; stroke-linecap: square"/>
   </g>
   <g id="patch_3">
    <path d="M 56.571875 230.338828 
L 56.571875 12.898828 
" style="fill: none; stroke: #000000; stroke-width: 0.8; stroke-linejoin: miter; stroke-linecap: square"/>
   </g>
   <g id="patch_4">
    <path d="M 391.371875 230.338828 
L 391.371875 12.898828 
" style="fill: none; stroke: #000000; stroke-width: 0.8; stroke-linejoin: miter; stroke-linecap: square"/>
   </g>
   <g id="patch_5">
    <path d="M 56.571875 230.338828 
L 391.371875 230.338828 
" style="fill: none; stroke: #000000; stroke-width: 0.8; stroke-linejoin: miter; stroke-linecap: square"/>
   </g>
   <g id="patch_6">
    <path d="M 56.571875 12.898828 
L 391.371875 12.898828 
" style="fill: none; stroke: #000000; stroke-width: 0.8; stroke-linejoin: miter; stroke-linecap: square"/>
   </g>
  </g>
 </g>
 <defs>
  <clipPath id="pc4de205465">
   <rect x="56.571875" y="12.898828" width="334.8" height="217.44"/>
  </clipPath>
 </defs>
</svg>
