<?xml version="1.0" encoding="utf-8" standalone="no"?>
<!DOCTYPE svg PUBLIC "-//W3C//DTD SVG 1.1//EN"
  "http://www.w3.org/Graphics/SVG/1.1/DTD/svg11.dtd">
<svg xmlns:xlink="http://www.w3.org/1999/xlink" width="398.571875pt" height="281.806016pt" viewBox="0 0 398.571875 281.806016" xmlns="http://www.w3.org/2000/svg" version="1.1">
 <metadata>
  <rdf:RDF xmlns:dc="http://purl.org/dc/elements/1.1/" xmlns:cc="http://creativecommons.org/ns#" xmlns:rdf="http://www.w3.org/1999/02/22-rdf-syntax-ns#">
   <cc:Work>
    <dc:type rdf:resource="http://purl.org/dc/dcmitype/StillImage"/>
    <dc:date>2026-01-20T22:08:17.788523</dc:date>
    <dc:format>image/svg+xml</dc:format>
    <dc:creator>
     <cc:Agent>
      <dc:title>Matplotlib v3.6.3, https://matplotlib.org/</dc:title>
     </cc:Agent>
    </dc:creator>
   </cc:Work>
  </rdf:RDF>
 </metadata>
 <defs>
  <style type="text/css">*{stroke-linejoin: round; stroke-linecap: butt}</style>
 </defs>
 <g id="figure_1">
  <g id="patch_1">
   <path d="M 0 281.806016 
L 398.571875 281.806016 
L 398.571875 0 
L 0 0 
L 0 281.806016 
z
" style="fill: none"/>
  </g>
  <g id="axes_1">
   <g id="patch_2">
    <path d="M 56.571875 230.338828 
L 391.371875 230.338828 
L 391.371875 12.898828 
L 56.571875 12.898828 
z
" style="fill: #ffffff"/>
   </g>
   <g id="matplotlib.axis_1">
    <g id="xtick_1">
     <g id="line2d_1">
      <defs>
       <path id="m1bceb71aa6" d="M 0 0 
L 0 3.5 
" style="stroke: #000000; stroke-width: 0.8"/>
      </defs>
      <g>
       <use xlink:href="#m1bceb71aa6" x="56.571875" y="230.338828" style="stroke: #000000; stroke-width: 0.8"/>
      </g>
     </g>
     <g id="text_1">
      <!-- $\mathdefault{10^{-2}}$ -->
      <g transform="translate(38.946875 248.736484) scale(0.15 -0.15)">
       <defs>
        <path id="DejaVuSans-31" d="M 794 531 
L 1825 531 
L 1825 4091 
L 703 3866 
L 703 4441 
L 1819 4666 
L 2450 4666 
L 2450 531 
L 3481 531 
L 3481 0 
L 794 0 
L 794 531 
z
" transform="scale(0.015625)"/>
        <path id="DejaVuSans-30" d="M 2034 4250 
Q 1547 4250 1301 3770 
Q 1056 3291 1056 2328 
Q 1056 1369 1301 889 
Q 1547 409 2034 409 
Q 2525 409 2770 889 
Q 3016 1369 3016 2328 
Q 3016 3291 2770 3770 
Q 2525 4250 2034 4250 
z
M 2034 4750 
Q 2819 4750 3233 4129 
Q 3647 3509 3647 2328 
Q 3647 1150 3233 529 
Q 2819 -91 2034 -91 
Q 1250 -91 836 529 
Q 422 1150 422 2328 
Q 422 3509 836 4129 
Q 1250 4750 2034 4750 
z
" transform="scale(0.015625)"/>
        <path id="DejaVuSans-2212" d="M 678 2272 
L 4684 2272 
L 4684 1741 
L 678 1741 
L 678 2272 
z
" transform="scale(0.015625)"/>
        <path id="DejaVuSans-32" d="M 1228 531 
L 3431 531 
L 3431 0 
L 469 0 
L 469 531 
Q 828 903 1448 1529 
Q 2069 2156 2228 2338 
Q 2531 2678 2651 2914 
Q 2772 3150 2772 3378 
Q 2772 3750 2511 3984 
Q 2250 4219 1831 4219 
Q 1534 4219 1204 4116 
Q 875 4013 500 3803 
L 500 4441 
Q 881 4594 1212 4672 
Q 1544 4750 1819 4750 
Q 2544 4750 2975 4387 
Q 3406 4025 3406 3419 
Q 3406 3131 3298 2873 
Q 3191 2616 2906 2266 
Q 2828 2175 2409 1742 
Q 1991 1309 1228 531 
z
" transform="scale(0.015625)"/>
       </defs>
       <use xlink:href="#DejaVuSans-31" transform="translate(0 0.765625)"/>
       <use xlink:href="#DejaVuSans-30" transform="translate(63.623047 0.765625)"/>
       <use xlink:href="#DejaVuSans-2212" transform="translate(128.203125 39.046875) scale(0.7)"/>
       <use xlink:href="#DejaVuSans-32" transform="translate(186.855469 39.046875) scale(0.7)"/>
      </g>
     </g>
    </g>
    <g id="xtick_2">
     <g id="line2d_2">
      <g>
       <use xlink:href="#m1bceb71aa6" x="127.821532" y="230.338828" style="stroke: #000000; stroke-width: 0.8"/>
      </g>
     </g>
     <g id="text_2">
      <!-- $\mathdefault{10^{-1}}$ -->
      <g transform="translate(110.196532 248.736484) scale(0.15 -0.15)">
       <use xlink:href="#DejaVuSans-31" transform="translate(0 0.684375)"/>
       <use xlink:href="#DejaVuSans-30" transform="translate(63.623047 0.684375)"/>
       <use xlink:href="#DejaVuSans-2212" transform="translate(128.203125 38.965625) scale(0.7)"/>
       <use xlink:href="#DejaVuSans-31" transform="translate(186.855469 38.965625) scale(0.7)"/>
      </g>
     </g>
    </g>
    <g id="xtick_3">
     <g id="line2d_3">
      <g>
       <use xlink:href="#m1bceb71aa6" x="199.071189" y="230.338828" style="stroke: #000000; stroke-width: 0.8"/>
      </g>
     </g>
     <g id="text_3">
      <!-- $\mathdefault{10^{0}}$ -->
      <g transform="translate(185.871189 248.736484) scale(0.15 -0.15)">
       <use xlink:href="#DejaVuSans-31" transform="translate(0 0.765625)"/>
       <use xlink:href="#DejaVuSans-30" transform="translate(63.623047 0.765625)"/>
       <use xlink:href="#DejaVuSans-30" transform="translate(128.203125 39.046875) scale(0.7)"/>
      </g>
     </g>
    </g>
    <g id="xtick_4">
     <g id="line2d_4">
      <g>
       <use xlink:href="#m1bceb71aa6" x="270.320845" y="230.338828" style="stroke: #000000; stroke-width: 0.8"/>
      </g>
     </g>
     <g id="text_4">
      <!-- $\mathdefault{10^{1}}$ -->
      <g transform="translate(257.120845 248.736484) scale(0.15 -0.15)">
       <use xlink:href="#DejaVuSans-31" transform="translate(0 0.684375)"/>
       <use xlink:href="#DejaVuSans-30" transform="translate(63.623047 0.684375)"/>
       <use xlink:href="#DejaVuSans-31" transform="translate(128.203125 38.965625) scale(0.7)"/>
      </g>
     </g>
    </g>
    <g id="xtick_5">
     <g id="line2d_5">
      <g>
       <use xlink:href="#m1bceb71aa6" x="341.570502" y="230.338828" style="stroke: #000000; stroke-width: 0.8"/>
      </g>
     </g>
     <g id="text_5">
      <!-- $\mathdefault{10^{2}}$ -->
      <g transform="translate(328.370502 248.736484) scale(0.15 -0.15)">
       <use xlink:href="#DejaVuSans-31" transform="translate(0 0.765625)"/>
       <use xlink:href="#DejaVuSans-30" transform="translate(63.623047 0.765625)"/>
       <use xlink:href="#DejaVuSans-32" transform="translate(128.203125 39.046875) scale(0.7)"/>
      </g>
     </g>
    </g>
    <g id="xtick_6">
     <g id="line2d_6">
      <defs>
       <path id="me190918d31" d="M 0 0 
L 0 2 
" style="stroke: #000000; stroke-width: 0.6"/>
      </defs>
      <g>
       <use xlink:href="#me190918d31" x="78.020159" y="230.338828" style="stroke: #000000; stroke-width: 0.6"/>
      </g>
     </g>
    </g>
    <g id="xtick_7">
     <g id="line2d_7">
      <g>
       <use xlink:href="#me190918d31" x="90.566601" y="230.338828" style="stroke: #000000; stroke-width: 0.6"/>
      </g>
     </g>
    </g>
    <g id="xtick_8">
     <g id="line2d_8">
      <g>
       <use xlink:href="#me190918d31" x="99.468443" y="230.338828" style="stroke: #000000; stroke-width: 0.6"/>
      </g>
     </g>
    </g>
    <g id="xtick_9">
     <g id="line2d_9">
      <g>
       <use xlink:href="#me190918d31" x="106.373248" y="230.338828" style="stroke: #000000; stroke-width: 0.6"/>
      </g>
     </g>
    </g>
    <g id="xtick_10">
     <g id="line2d_10">
      <g>
       <use xlink:href="#me190918d31" x="112.014885" y="230.338828" style="stroke: #000000; stroke-width: 0.6"/>
      </g>
     </g>
    </g>
    <g id="xtick_11">
     <g id="line2d_11">
      <g>
       <use xlink:href="#me190918d31" x="116.78482" y="230.338828" style="stroke: #000000; stroke-width: 0.6"/>
      </g>
     </g>
    </g>
    <g id="xtick_12">
     <g id="line2d_12">
      <g>
       <use xlink:href="#me190918d31" x="120.916727" y="230.338828" style="stroke: #000000; stroke-width: 0.6"/>
      </g>
     </g>
    </g>
    <g id="xtick_13">
     <g id="line2d_13">
      <g>
       <use xlink:href="#me190918d31" x="124.561326" y="230.338828" style="stroke: #000000; stroke-width: 0.6"/>
      </g>
     </g>
    </g>
    <g id="xtick_14">
     <g id="line2d_14">
      <g>
       <use xlink:href="#me190918d31" x="149.269816" y="230.338828" style="stroke: #000000; stroke-width: 0.6"/>
      </g>
     </g>
    </g>
    <g id="xtick_15">
     <g id="line2d_15">
      <g>
       <use xlink:href="#me190918d31" x="161.816257" y="230.338828" style="stroke: #000000; stroke-width: 0.6"/>
      </g>
     </g>
    </g>
    <g id="xtick_16">
     <g id="line2d_16">
      <g>
       <use xlink:href="#me190918d31" x="170.7181" y="230.338828" style="stroke: #000000; stroke-width: 0.6"/>
      </g>
     </g>
    </g>
    <g id="xtick_17">
     <g id="line2d_17">
      <g>
       <use xlink:href="#me190918d31" x="177.622905" y="230.338828" style="stroke: #000000; stroke-width: 0.6"/>
      </g>
     </g>
    </g>
    <g id="xtick_18">
     <g id="line2d_18">
      <g>
       <use xlink:href="#me190918d31" x="183.264541" y="230.338828" style="stroke: #000000; stroke-width: 0.6"/>
      </g>
     </g>
    </g>
    <g id="xtick_19">
     <g id="line2d_19">
      <g>
       <use xlink:href="#me190918d31" x="188.034477" y="230.338828" style="stroke: #000000; stroke-width: 0.6"/>
      </g>
     </g>
    </g>
    <g id="xtick_20">
     <g id="line2d_20">
      <g>
       <use xlink:href="#me190918d31" x="192.166383" y="230.338828" style="stroke: #000000; stroke-width: 0.6"/>
      </g>
     </g>
    </g>
    <g id="xtick_21">
     <g id="line2d_21">
      <g>
       <use xlink:href="#me190918d31" x="195.810983" y="230.338828" style="stroke: #000000; stroke-width: 0.6"/>
      </g>
     </g>
    </g>
    <g id="xtick_22">
     <g id="line2d_22">
      <g>
       <use xlink:href="#me190918d31" x="220.519472" y="230.338828" style="stroke: #000000; stroke-width: 0.6"/>
      </g>
     </g>
    </g>
    <g id="xtick_23">
     <g id="line2d_23">
      <g>
       <use xlink:href="#me190918d31" x="233.065914" y="230.338828" style="stroke: #000000; stroke-width: 0.6"/>
      </g>
     </g>
    </g>
    <g id="xtick_24">
     <g id="line2d_24">
      <g>
       <use xlink:href="#me190918d31" x="241.967756" y="230.338828" style="stroke: #000000; stroke-width: 0.6"/>
      </g>
     </g>
    </g>
    <g id="xtick_25">
     <g id="line2d_25">
      <g>
       <use xlink:href="#me190918d31" x="248.872561" y="230.338828" style="stroke: #000000; stroke-width: 0.6"/>
      </g>
     </g>
    </g>
    <g id="xtick_26">
     <g id="line2d_26">
      <g>
       <use xlink:href="#me190918d31" x="254.514198" y="230.338828" style="stroke: #000000; stroke-width: 0.6"/>
      </g>
     </g>
    </g>
    <g id="xtick_27">
     <g id="line2d_27">
      <g>
       <use xlink:href="#me190918d31" x="259.284134" y="230.338828" style="stroke: #000000; stroke-width: 0.6"/>
      </g>
     </g>
    </g>
    <g id="xtick_28">
     <g id="line2d_28">
      <g>
       <use xlink:href="#me190918d31" x="263.41604" y="230.338828" style="stroke: #000000; stroke-width: 0.6"/>
      </g>
     </g>
    </g>
    <g id="xtick_29">
     <g id="line2d_29">
      <g>
       <use xlink:href="#me190918d31" x="267.06064" y="230.338828" style="stroke: #000000; stroke-width: 0.6"/>
      </g>
     </g>
    </g>
    <g id="xtick_30">
     <g id="line2d_30">
      <g>
       <use xlink:href="#me190918d31" x="291.769129" y="230.338828" style="stroke: #000000; stroke-width: 0.6"/>
      </g>
     </g>
    </g>
    <g id="xtick_31">
     <g id="line2d_31">
      <g>
       <use xlink:href="#me190918d31" x="304.315571" y="230.338828" style="stroke: #000000; stroke-width: 0.6"/>
      </g>
     </g>
    </g>
    <g id="xtick_32">
     <g id="line2d_32">
      <g>
       <use xlink:href="#me190918d31" x="313.217413" y="230.338828" style="stroke: #000000; stroke-width: 0.6"/>
      </g>
     </g>
    </g>
    <g id="xtick_33">
     <g id="line2d_33">
      <g>
       <use xlink:href="#me190918d31" x="320.122218" y="230.338828" style="stroke: #000000; stroke-width: 0.6"/>
      </g>
     </g>
    </g>
    <g id="xtick_34">
     <g id="line2d_34">
      <g>
       <use xlink:href="#me190918d31" x="325.763855" y="230.338828" style="stroke: #000000; stroke-width: 0.6"/>
      </g>
     </g>
    </g>
    <g id="xtick_35">
     <g id="line2d_35">
      <g>
       <use xlink:href="#me190918d31" x="330.533791" y="230.338828" style="stroke: #000000; stroke-width: 0.6"/>
      </g>
     </g>
    </g>
    <g id="xtick_36">
     <g id="line2d_36">
      <g>
       <use xlink:href="#me190918d31" x="334.665697" y="230.338828" style="stroke: #000000; stroke-width: 0.6"/>
      </g>
     </g>
    </g>
    <g id="xtick_37">
     <g id="line2d_37">
      <g>
       <use xlink:href="#me190918d31" x="338.310297" y="230.338828" style="stroke: #000000; stroke-width: 0.6"/>
      </g>
     </g>
    </g>
    <g id="xtick_38">
     <g id="line2d_38">
      <g>
       <use xlink:href="#me190918d31" x="363.018786" y="230.338828" style="stroke: #000000; stroke-width: 0.6"/>
      </g>
     </g>
    </g>
    <g id="xtick_39">
     <g id="line2d_39">
      <g>
       <use xlink:href="#me190918d31" x="375.565228" y="230.338828" style="stroke: #000000; stroke-width: 0.6"/>
      </g>
     </g>
    </g>
    <g id="xtick_40">
     <g id="line2d_40">
      <g>
       <use xlink:href="#me190918d31" x="384.46707" y="230.338828" style="stroke: #000000; stroke-width: 0.6"/>
      </g>
     </g>
    </g>
    <g id="xtick_41">
     <g id="line2d_41">
      <g>
       <use xlink:href="#me190918d31" x="391.371875" y="230.338828" style="stroke: #000000; stroke-width: 0.6"/>
      </g>
     </g>
    </g>
    <g id="text_6">
     <!-- $\frac{\gamma_\mathrm{TPA}}{c}$ -->
     <g transform="translate(212.796875 270.406016) scale(0.15 -0.15)">
      <defs>
       <path id="DejaVuSans-Oblique-3b3" d="M 1491 2950 
L 1838 788 
L 3456 3500 
L 4066 3500 
L 1972 0 
L 1713 -1331 
L 1138 -1331 
L 1397 0 
L 988 2613 
Q 925 3006 628 3006 
L 475 3006 
L 569 3500 
L 788 3500 
Q 1403 3500 1491 2950 
z
" transform="scale(0.015625)"/>
       <path id="DejaVuSans-54" d="M -19 4666 
L 3928 4666 
L 3928 4134 
L 2272 4134 
L 2272 0 
L 1638 0 
L 1638 4134 
L -19 4134 
L -19 4666 
z
" transform="scale(0.015625)"/>
       <path id="DejaVuSans-50" d="M 1259 4147 
L 1259 2394 
L 2053 2394 
Q 2494 2394 2734 2622 
Q 2975 2850 2975 3272 
Q 2975 3691 2734 3919 
Q 2494 4147 2053 4147 
L 1259 4147 
z
M 628 4666 
L 2053 4666 
Q 2838 4666 3239 4311 
Q 3641 3956 3641 3272 
Q 3641 2581 3239 2228 
Q 2838 1875 2053 1875 
L 1259 1875 
L 1259 0 
L 628 0 
L 628 4666 
z
" transform="scale(0.015625)"/>
       <path id="DejaVuSans-41" d="M 2188 4044 
L 1331 1722 
L 3047 1722 
L 2188 4044 
z
M 1831 4666 
L 2547 4666 
L 4325 0 
L 3669 0 
L 3244 1197 
L 1141 1197 
L 716 0 
L 50 0 
L 1831 4666 
z
" transform="scale(0.015625)"/>
       <path id="DejaVuSans-Oblique-63" d="M 3431 3366 
L 3316 2797 
Q 3109 2947 2876 3022 
Q 2644 3097 2394 3097 
Q 2119 3097 1870 3000 
Q 1622 2903 1453 2725 
Q 1184 2453 1037 2087 
Q 891 1722 891 1331 
Q 891 859 1127 628 
Q 1363 397 1844 397 
Q 2081 397 2348 469 
Q 2616 541 2906 684 
L 2797 116 
Q 2547 13 2283 -39 
Q 2019 -91 1741 -91 
Q 1044 -91 669 257 
Q 294 606 294 1253 
Q 294 1797 489 2255 
Q 684 2713 1069 3078 
Q 1331 3328 1684 3456 
Q 2038 3584 2456 3584 
Q 2700 3584 2940 3529 
Q 3181 3475 3431 3366 
z
" transform="scale(0.015625)"/>
      </defs>
      <use xlink:href="#DejaVuSans-Oblique-3b3" transform="translate(0 58.71875) scale(0.7)"/>
      <use xlink:href="#DejaVuSans-54" transform="translate(41.425781 47.234375) scale(0.49)"/>
      <use xlink:href="#DejaVuSans-50" transform="translate(71.356934 47.234375) scale(0.49)"/>
      <use xlink:href="#DejaVuSans-41" transform="translate(100.905273 47.234375) scale(0.49)"/>
      <use xlink:href="#DejaVuSans-Oblique-63" transform="translate(49 -26.289062) scale(0.7)"/>
      <path d="M 0 19.160938 
L 0 25.410938 
L 136.339355 25.410938 
L 136.339355 19.160938 
L 0 19.160938 
z
"/>
     </g>
    </g>
   </g>
   <g id="matplotlib.axis_2">
    <g id="ytick_1">
     <g id="line2d_42">
      <defs>
       <path id="mb434823681" d="M 0 0 
L -3.5 0 
" style="stroke: #000000; stroke-width: 0.8"/>
      </defs>
      <g>
       <use xlink:href="#mb434823681" x="56.571875" y="230.338828" style="stroke: #000000; stroke-width: 0.8"/>
      </g>
     </g>
     <g id="text_7">
      <!-- 0.0 -->
      <g transform="translate(25.717188 236.037656) scale(0.15 -0.15)">
       <defs>
        <path id="DejaVuSans-2e" d="M 684 794 
L 1344 794 
L 1344 0 
L 684 0 
L 684 794 
z
" transform="scale(0.015625)"/>
       </defs>
       <use xlink:href="#DejaVuSans-30"/>
       <use xlink:href="#DejaVuSans-2e" x="63.623047"/>
       <use xlink:href="#DejaVuSans-30" x="95.410156"/>
      </g>
     </g>
    </g>
    <g id="ytick_2">
     <g id="line2d_43">
      <g>
       <use xlink:href="#mb434823681" x="56.571875" y="186.850828" style="stroke: #000000; stroke-width: 0.8"/>
      </g>
     </g>
     <g id="text_8">
      <!-- 0.2 -->
      <g transform="translate(25.717188 192.549656) scale(0.15 -0.15)">
       <use xlink:href="#DejaVuSans-30"/>
       <use xlink:href="#DejaVuSans-2e" x="63.623047"/>
       <use xlink:href="#DejaVuSans-32" x="95.410156"/>
      </g>
     </g>
    </g>
    <g id="ytick_3">
     <g id="line2d_44">
      <g>
       <use xlink:href="#mb434823681" x="56.571875" y="143.362828" style="stroke: #000000; stroke-width: 0.8"/>
      </g>
     </g>
     <g id="text_9">
      <!-- 0.4 -->
      <g transform="translate(25.717188 149.061656) scale(0.15 -0.15)">
       <defs>
        <path id="DejaVuSans-34" d="M 2419 4116 
L 825 1625 
L 2419 1625 
L 2419 4116 
z
M 2253 4666 
L 3047 4666 
L 3047 1625 
L 3713 1625 
L 3713 1100 
L 3047 1100 
L 3047 0 
L 2419 0 
L 2419 1100 
L 313 1100 
L 313 1709 
L 2253 4666 
z
" transform="scale(0.015625)"/>
       </defs>
       <use xlink:href="#DejaVuSans-30"/>
       <use xlink:href="#DejaVuSans-2e" x="63.623047"/>
       <use xlink:href="#DejaVuSans-34" x="95.410156"/>
      </g>
     </g>
    </g>
    <g id="ytick_4">
     <g id="line2d_45">
      <g>
       <use xlink:href="#mb434823681" x="56.571875" y="99.874828" style="stroke: #000000; stroke-width: 0.8"/>
      </g>
     </g>
     <g id="text_10">
      <!-- 0.6 -->
      <g transform="translate(25.717188 105.573656) scale(0.15 -0.15)">
       <defs>
        <path id="DejaVuSans-36" d="M 2113 2584 
Q 1688 2584 1439 2293 
Q 1191 2003 1191 1497 
Q 1191 994 1439 701 
Q 1688 409 2113 409 
Q 2538 409 2786 701 
Q 3034 994 3034 1497 
Q 3034 2003 2786 2293 
Q 2538 2584 2113 2584 
z
M 3366 4563 
L 3366 3988 
Q 3128 4100 2886 4159 
Q 2644 4219 2406 4219 
Q 1781 4219 1451 3797 
Q 1122 3375 1075 2522 
Q 1259 2794 1537 2939 
Q 1816 3084 2150 3084 
Q 2853 3084 3261 2657 
Q 3669 2231 3669 1497 
Q 3669 778 3244 343 
Q 2819 -91 2113 -91 
Q 1303 -91 875 529 
Q 447 1150 447 2328 
Q 447 3434 972 4092 
Q 1497 4750 2381 4750 
Q 2619 4750 2861 4703 
Q 3103 4656 3366 4563 
z
" transform="scale(0.015625)"/>
       </defs>
       <use xlink:href="#DejaVuSans-30"/>
       <use xlink:href="#DejaVuSans-2e" x="63.623047"/>
       <use xlink:href="#DejaVuSans-36" x="95.410156"/>
      </g>
     </g>
    </g>
    <g id="ytick_5">
     <g id="line2d_46">
      <g>
       <use xlink:href="#mb434823681" x="56.571875" y="56.386828" style="stroke: #000000; stroke-width: 0.8"/>
      </g>
     </g>
     <g id="text_11">
      <!-- 0.8 -->
      <g transform="translate(25.717188 62.085656) scale(0.15 -0.15)">
       <defs>
        <path id="DejaVuSans-38" d="M 2034 2216 
Q 1584 2216 1326 1975 
Q 1069 1734 1069 1313 
Q 1069 891 1326 650 
Q 1584 409 2034 409 
Q 2484 409 2743 651 
Q 3003 894 3003 1313 
Q 3003 1734 2745 1975 
Q 2488 2216 2034 2216 
z
M 1403 2484 
Q 997 2584 770 2862 
Q 544 3141 544 3541 
Q 544 4100 942 4425 
Q 1341 4750 2034 4750 
Q 2731 4750 3128 4425 
Q 3525 4100 3525 3541 
Q 3525 3141 3298 2862 
Q 3072 2584 2669 2484 
Q 3125 2378 3379 2068 
Q 3634 1759 3634 1313 
Q 3634 634 3220 271 
Q 2806 -91 2034 -91 
Q 1263 -91 848 271 
Q 434 634 434 1313 
Q 434 1759 690 2068 
Q 947 2378 1403 2484 
z
M 1172 3481 
Q 1172 3119 1398 2916 
Q 1625 2713 2034 2713 
Q 2441 2713 2670 2916 
Q 2900 3119 2900 3481 
Q 2900 3844 2670 4047 
Q 2441 4250 2034 4250 
Q 1625 4250 1398 4047 
Q 1172 3844 1172 3481 
z
" transform="scale(0.015625)"/>
       </defs>
       <use xlink:href="#DejaVuSans-30"/>
       <use xlink:href="#DejaVuSans-2e" x="63.623047"/>
       <use xlink:href="#DejaVuSans-38" x="95.410156"/>
      </g>
     </g>
    </g>
    <g id="ytick_6">
     <g id="line2d_47">
      <g>
       <use xlink:href="#mb434823681" x="56.571875" y="12.898828" style="stroke: #000000; stroke-width: 0.8"/>
      </g>
     </g>
     <g id="text_12">
      <!-- 1.0 -->
      <g transform="translate(25.717188 18.597656) scale(0.15 -0.15)">
       <use xlink:href="#DejaVuSans-31"/>
       <use xlink:href="#DejaVuSans-2e" x="63.623047"/>
       <use xlink:href="#DejaVuSans-30" x="95.410156"/>
      </g>
     </g>
    </g>
    <g id="text_13">
     <!-- Success Probability -->
     <g transform="translate(18.597656 193.836797) rotate(-90) scale(0.15 -0.15)">
      <defs>
       <path id="DejaVuSans-53" d="M 3425 4513 
L 3425 3897 
Q 3066 4069 2747 4153 
Q 2428 4238 2131 4238 
Q 1616 4238 1336 4038 
Q 1056 3838 1056 3469 
Q 1056 3159 1242 3001 
Q 1428 2844 1947 2747 
L 2328 2669 
Q 3034 2534 3370 2195 
Q 3706 1856 3706 1288 
Q 3706 609 3251 259 
Q 2797 -91 1919 -91 
Q 1588 -91 1214 -16 
Q 841 59 441 206 
L 441 856 
Q 825 641 1194 531 
Q 1563 422 1919 422 
Q 2459 422 2753 634 
Q 3047 847 3047 1241 
Q 3047 1584 2836 1778 
Q 2625 1972 2144 2069 
L 1759 2144 
Q 1053 2284 737 2584 
Q 422 2884 422 3419 
Q 422 4038 858 4394 
Q 1294 4750 2059 4750 
Q 2388 4750 2728 4690 
Q 3069 4631 3425 4513 
z
" transform="scale(0.015625)"/>
       <path id="DejaVuSans-75" d="M 544 1381 
L 544 3500 
L 1119 3500 
L 1119 1403 
Q 1119 906 1312 657 
Q 1506 409 1894 409 
Q 2359 409 2629 706 
Q 2900 1003 2900 1516 
L 2900 3500 
L 3475 3500 
L 3475 0 
L 2900 0 
L 2900 538 
Q 2691 219 2414 64 
Q 2138 -91 1772 -91 
Q 1169 -91 856 284 
Q 544 659 544 1381 
z
M 1991 3584 
L 1991 3584 
z
" transform="scale(0.015625)"/>
       <path id="DejaVuSans-63" d="M 3122 3366 
L 3122 2828 
Q 2878 2963 2633 3030 
Q 2388 3097 2138 3097 
Q 1578 3097 1268 2742 
Q 959 2388 959 1747 
Q 959 1106 1268 751 
Q 1578 397 2138 397 
Q 2388 397 2633 464 
Q 2878 531 3122 666 
L 3122 134 
Q 2881 22 2623 -34 
Q 2366 -91 2075 -91 
Q 1284 -91 818 406 
Q 353 903 353 1747 
Q 353 2603 823 3093 
Q 1294 3584 2113 3584 
Q 2378 3584 2631 3529 
Q 2884 3475 3122 3366 
z
" transform="scale(0.015625)"/>
       <path id="DejaVuSans-65" d="M 3597 1894 
L 3597 1613 
L 953 1613 
Q 991 1019 1311 708 
Q 1631 397 2203 397 
Q 2534 397 2845 478 
Q 3156 559 3463 722 
L 3463 178 
Q 3153 47 2828 -22 
Q 2503 -91 2169 -91 
Q 1331 -91 842 396 
Q 353 884 353 1716 
Q 353 2575 817 3079 
Q 1281 3584 2069 3584 
Q 2775 3584 3186 3129 
Q 3597 2675 3597 1894 
z
M 3022 2063 
Q 3016 2534 2758 2815 
Q 2500 3097 2075 3097 
Q 1594 3097 1305 2825 
Q 1016 2553 972 2059 
L 3022 2063 
z
" transform="scale(0.015625)"/>
       <path id="DejaVuSans-73" d="M 2834 3397 
L 2834 2853 
Q 2591 2978 2328 3040 
Q 2066 3103 1784 3103 
Q 1356 3103 1142 2972 
Q 928 2841 928 2578 
Q 928 2378 1081 2264 
Q 1234 2150 1697 2047 
L 1894 2003 
Q 2506 1872 2764 1633 
Q 3022 1394 3022 966 
Q 3022 478 2636 193 
Q 2250 -91 1575 -91 
Q 1294 -91 989 -36 
Q 684 19 347 128 
L 347 722 
Q 666 556 975 473 
Q 1284 391 1588 391 
Q 1994 391 2212 530 
Q 2431 669 2431 922 
Q 2431 1156 2273 1281 
Q 2116 1406 1581 1522 
L 1381 1569 
Q 847 1681 609 1914 
Q 372 2147 372 2553 
Q 372 3047 722 3315 
Q 1072 3584 1716 3584 
Q 2034 3584 2315 3537 
Q 2597 3491 2834 3397 
z
" transform="scale(0.015625)"/>
       <path id="DejaVuSans-20" transform="scale(0.015625)"/>
       <path id="DejaVuSans-72" d="M 2631 2963 
Q 2534 3019 2420 3045 
Q 2306 3072 2169 3072 
Q 1681 3072 1420 2755 
Q 1159 2438 1159 1844 
L 1159 0 
L 581 0 
L 581 3500 
L 1159 3500 
L 1159 2956 
Q 1341 3275 1631 3429 
Q 1922 3584 2338 3584 
Q 2397 3584 2469 3576 
Q 2541 3569 2628 3553 
L 2631 2963 
z
" transform="scale(0.015625)"/>
       <path id="DejaVuSans-6f" d="M 1959 3097 
Q 1497 3097 1228 2736 
Q 959 2375 959 1747 
Q 959 1119 1226 758 
Q 1494 397 1959 397 
Q 2419 397 2687 759 
Q 2956 1122 2956 1747 
Q 2956 2369 2687 2733 
Q 2419 3097 1959 3097 
z
M 1959 3584 
Q 2709 3584 3137 3096 
Q 3566 2609 3566 1747 
Q 3566 888 3137 398 
Q 2709 -91 1959 -91 
Q 1206 -91 779 398 
Q 353 888 353 1747 
Q 353 2609 779 3096 
Q 1206 3584 1959 3584 
z
" transform="scale(0.015625)"/>
       <path id="DejaVuSans-62" d="M 3116 1747 
Q 3116 2381 2855 2742 
Q 2594 3103 2138 3103 
Q 1681 3103 1420 2742 
Q 1159 2381 1159 1747 
Q 1159 1113 1420 752 
Q 1681 391 2138 391 
Q 2594 391 2855 752 
Q 3116 1113 3116 1747 
z
M 1159 2969 
Q 1341 3281 1617 3432 
Q 1894 3584 2278 3584 
Q 2916 3584 3314 3078 
Q 3713 2572 3713 1747 
Q 3713 922 3314 415 
Q 2916 -91 2278 -91 
Q 1894 -91 1617 61 
Q 1341 213 1159 525 
L 1159 0 
L 581 0 
L 581 4863 
L 1159 4863 
L 1159 2969 
z
" transform="scale(0.015625)"/>
       <path id="DejaVuSans-61" d="M 2194 1759 
Q 1497 1759 1228 1600 
Q 959 1441 959 1056 
Q 959 750 1161 570 
Q 1363 391 1709 391 
Q 2188 391 2477 730 
Q 2766 1069 2766 1631 
L 2766 1759 
L 2194 1759 
z
M 3341 1997 
L 3341 0 
L 2766 0 
L 2766 531 
Q 2569 213 2275 61 
Q 1981 -91 1556 -91 
Q 1019 -91 701 211 
Q 384 513 384 1019 
Q 384 1609 779 1909 
Q 1175 2209 1959 2209 
L 2766 2209 
L 2766 2266 
Q 2766 2663 2505 2880 
Q 2244 3097 1772 3097 
Q 1472 3097 1187 3025 
Q 903 2953 641 2809 
L 641 3341 
Q 956 3463 1253 3523 
Q 1550 3584 1831 3584 
Q 2591 3584 2966 3190 
Q 3341 2797 3341 1997 
z
" transform="scale(0.015625)"/>
       <path id="DejaVuSans-69" d="M 603 3500 
L 1178 3500 
L 1178 0 
L 603 0 
L 603 3500 
z
M 603 4863 
L 1178 4863 
L 1178 4134 
L 603 4134 
L 603 4863 
z
" transform="scale(0.015625)"/>
       <path id="DejaVuSans-6c" d="M 603 4863 
L 1178 4863 
L 1178 0 
L 603 0 
L 603 4863 
z
" transform="scale(0.015625)"/>
       <path id="DejaVuSans-74" d="M 1172 4494 
L 1172 3500 
L 2356 3500 
L 2356 3053 
L 1172 3053 
L 1172 1153 
Q 1172 725 1289 603 
Q 1406 481 1766 481 
L 2356 481 
L 2356 0 
L 1766 0 
Q 1100 0 847 248 
Q 594 497 594 1153 
L 594 3053 
L 172 3053 
L 172 3500 
L 594 3500 
L 594 4494 
L 1172 4494 
z
" transform="scale(0.015625)"/>
       <path id="DejaVuSans-79" d="M 2059 -325 
Q 1816 -950 1584 -1140 
Q 1353 -1331 966 -1331 
L 506 -1331 
L 506 -850 
L 844 -850 
Q 1081 -850 1212 -737 
Q 1344 -625 1503 -206 
L 1606 56 
L 191 3500 
L 800 3500 
L 1894 763 
L 2988 3500 
L 3597 3500 
L 2059 -325 
z
" transform="scale(0.015625)"/>
      </defs>
      <use xlink:href="#DejaVuSans-53"/>
      <use xlink:href="#DejaVuSans-75" x="63.476562"/>
      <use xlink:href="#DejaVuSans-63" x="126.855469"/>
      <use xlink:href="#DejaVuSans-63" x="181.835938"/>
      <use xlink:href="#DejaVuSans-65" x="236.816406"/>
      <use xlink:href="#DejaVuSans-73" x="298.339844"/>
      <use xlink:href="#DejaVuSans-73" x="350.439453"/>
      <use xlink:href="#DejaVuSans-20" x="402.539062"/>
      <use xlink:href="#DejaVuSans-50" x="434.326172"/>
      <use xlink:href="#DejaVuSans-72" x="492.878906"/>
      <use xlink:href="#DejaVuSans-6f" x="531.742188"/>
      <use xlink:href="#DejaVuSans-62" x="592.923828"/>
      <use xlink:href="#DejaVuSans-61" x="656.400391"/>
      <use xlink:href="#DejaVuSans-62" x="717.679688"/>
      <use xlink:href="#DejaVuSans-69" x="781.15625"/>
      <use xlink:href="#DejaVuSans-6c" x="808.939453"/>
      <use xlink:href="#DejaVuSans-69" x="836.722656"/>
      <use xlink:href="#DejaVuSans-74" x="864.505859"/>
      <use xlink:href="#DejaVuSans-79" x="903.714844"/>
     </g>
    </g>
   </g>
   <g id="line2d_48">
    <path d="M 56.571875 184.835657 
L 108.726649 184.717942 
L 125.550769 184.486572 
L 137.327654 184.102583 
L 145.739714 183.60067 
L 152.469362 182.971347 
L 157.516599 182.305717 
L 162.563835 181.41442 
L 167.611071 180.227902 
L 170.975895 179.231078 
L 174.340719 178.035564 
L 177.705543 176.609042 
L 181.070367 174.917623 
L 184.435192 172.92794 
L 187.800016 170.610464 
L 191.16484 167.944124 
L 194.529664 164.922045 
L 197.894488 161.557566 
L 201.259312 157.889117 
L 206.306548 151.966462 
L 216.401021 139.846785 
L 219.765845 136.113821 
L 223.130669 132.666902 
L 226.495493 129.529058 
L 229.860317 126.666474 
L 241.637202 117.128255 
L 245.002026 113.977119 
L 248.36685 110.483022 
L 251.731674 106.643542 
L 255.096498 102.494483 
L 260.143734 95.824092 
L 268.555795 84.114265 
L 275.285443 74.809522 
L 280.332679 68.13637 
L 285.379915 61.853157 
L 290.427151 56.030979 
L 293.791976 52.425414 
L 297.1568 49.046446 
L 300.521624 45.894233 
L 303.886448 42.965505 
L 307.251272 40.254307 
L 310.616096 37.75265 
L 313.98092 35.451069 
L 317.345744 33.339096 
L 322.392981 30.502327 
L 327.440217 28.028821 
L 332.487453 25.880504 
L 337.534689 24.020832 
L 342.581925 22.415574 
L 347.629161 21.033255 
L 352.676398 19.845345 
L 359.406046 18.520097 
L 366.135694 17.442563 
L 372.865342 16.568245 
L 381.277403 15.705149 
L 389.689463 15.043184 
L 389.689463 15.043184 
" clip-path="url(#p52ae17175a)" style="fill: none; stroke: #ff0000; stroke-width: 1.5; stroke-linecap: square"/>
   </g>
   <g id="line2d_49">
    <path d="M 56.571875 184.829939 
L 98.632177 184.692542 
L 113.773885 184.457447 
L 123.868357 184.123116 
L 132.280418 183.637595 
L 139.010066 183.030621 
L 144.057302 182.390382 
L 149.104538 181.535411 
L 154.151774 180.400669 
L 157.516599 179.449857 
L 160.881423 178.312048 
L 164.246247 176.957366 
L 167.611071 175.354483 
L 170.975895 173.472422 
L 174.340719 171.283395 
L 177.705543 168.766745 
L 181.070367 165.913846 
L 184.435192 162.733308 
L 187.800016 159.255363 
L 192.847252 153.604948 
L 206.306548 138.089188 
L 209.671372 134.598657 
L 213.036197 131.377843 
L 216.401021 128.417852 
L 221.448257 124.324103 
L 228.177905 118.911138 
L 231.542729 115.953951 
L 234.907553 112.718379 
L 238.272378 109.17173 
L 241.637202 105.318635 
L 245.002026 101.192162 
L 250.049262 94.606339 
L 258.461322 83.10231 
L 265.19097 73.967935 
L 270.238207 67.411082 
L 275.285443 61.231062 
L 280.332679 55.49878 
L 283.697503 51.946195 
L 287.062327 48.615098 
L 290.427151 45.506069 
L 293.791976 42.61626 
L 297.1568 39.940116 
L 300.521624 37.470023 
L 303.886448 35.196859 
L 307.251272 33.110467 
L 312.298508 30.307365 
L 317.345744 27.862611 
L 322.392981 25.738844 
L 327.440217 23.900132 
L 332.487453 22.312762 
L 337.534689 20.945706 
L 342.581925 19.770812 
L 349.311573 18.459984 
L 356.041222 17.394099 
L 362.77087 16.529188 
L 371.18293 15.675337 
L 379.594991 15.020438 
L 379.594991 15.020438 
" clip-path="url(#p52ae17175a)" style="fill: none; stroke: #e60000; stroke-width: 1.5; stroke-linecap: square"/>
   </g>
   <g id="line2d_50">
    <path d="M 56.571875 184.820511 
L 90.220116 184.674574 
L 105.361825 184.413681 
L 115.456297 184.046181 
L 123.868357 183.51767 
L 130.598006 182.863517 
L 135.645242 182.179863 
L 140.692478 181.275381 
L 145.739714 180.087588 
L 149.104538 179.10197 
L 152.469362 177.932726 
L 155.834187 176.553654 
L 159.199011 174.938313 
L 162.563835 173.061873 
L 165.928659 170.903726 
L 169.293483 168.450808 
L 172.658307 165.701323 
L 176.023131 162.668271 
L 179.387955 159.381886 
L 184.435192 154.086434 
L 197.894488 139.50472 
L 202.941724 134.528339 
L 207.98896 130.00756 
L 213.036197 125.852873 
L 221.448257 119.062934 
L 224.813081 116.141218 
L 228.177905 113.000197 
L 231.542729 109.604768 
L 234.907553 105.945581 
L 238.272378 102.03624 
L 243.319614 95.776838 
L 250.049262 86.948263 
L 261.826146 71.375761 
L 266.873383 65.059477 
L 271.920619 59.117134 
L 276.967855 53.612955 
L 280.332679 50.205008 
L 283.697503 47.011668 
L 287.062327 44.033025 
L 290.427151 41.265951 
L 293.791976 38.704788 
L 297.1568 36.341949 
L 300.521624 34.168448 
L 305.56886 31.241297 
L 310.616096 28.681992 
L 315.663332 26.45406 
L 320.710568 24.521763 
L 325.757805 22.851126 
L 330.805041 21.410559 
L 335.852277 20.171181 
L 342.581925 18.787007 
L 349.311573 17.660409 
L 356.041222 16.745535 
L 364.453282 15.841757 
L 374.547754 15.030241 
L 374.547754 15.030241 
" clip-path="url(#p52ae17175a)" style="fill: none; stroke: #cc0000; stroke-width: 1.5; stroke-linecap: square"/>
   </g>
   <g id="line2d_51">
    <path d="M 56.571875 184.805086 
L 85.17288 184.628039 
L 98.632177 184.353269 
L 108.726649 183.942606 
L 117.138709 183.360794 
L 123.868357 182.651451 
L 128.915594 181.920255 
L 133.96283 180.965955 
L 139.010066 179.731632 
L 142.37489 178.721285 
L 145.739714 177.536866 
L 149.104538 176.157273 
L 152.469362 174.562238 
L 155.834187 172.733928 
L 159.199011 170.658966 
L 162.563835 168.330749 
L 165.928659 165.751765 
L 169.293483 162.935485 
L 174.340719 158.324996 
L 179.387955 153.373661 
L 194.529664 138.255505 
L 199.5769 133.646736 
L 204.624136 129.348937 
L 221.448257 115.51767 
L 224.813081 112.408252 
L 228.177905 109.080685 
L 231.542729 105.522051 
L 236.589965 99.766737 
L 241.637202 93.589529 
L 248.36685 84.940527 
L 258.461322 71.874313 
L 263.508558 65.623296 
L 268.555795 59.710505 
L 273.603031 54.207944 
L 278.650267 49.157728 
L 282.015091 46.051546 
L 285.379915 43.154477 
L 288.744739 40.46345 
L 292.109563 37.972929 
L 295.474388 35.675501 
L 298.839212 33.562392 
L 303.886448 30.716941 
L 308.933684 28.229449 
L 313.98092 26.064343 
L 319.028156 24.186788 
L 324.075393 22.563679 
L 329.122629 21.164251 
L 334.169865 19.960385 
L 340.899513 18.616008 
L 347.629161 17.52191 
L 354.35881 16.633502 
L 362.77087 15.755934 
L 372.865342 14.968011 
L 372.865342 14.968011 
" clip-path="url(#p52ae17175a)" style="fill: none; stroke: #b20000; stroke-width: 1.5; stroke-linecap: square"/>
   </g>
   <g id="line2d_52">
    <path d="M 56.571875 184.780167 
L 80.125644 184.580477 
L 93.58494 184.252864 
L 103.679413 183.773847 
L 110.409061 183.268166 
L 117.138709 182.543518 
L 122.185945 181.808765 
L 127.233182 180.864854 
L 132.280418 179.664486 
L 137.327654 178.155546 
L 140.692478 176.951385 
L 144.057302 175.570398 
L 147.422126 173.998475 
L 150.78695 172.224119 
L 154.151774 170.239744 
L 157.516599 168.043004 
L 160.881423 165.637985 
L 165.928659 161.666879 
L 170.975895 157.324619 
L 177.705543 151.141586 
L 191.16484 138.579476 
L 197.894488 132.710589 
L 204.624136 127.198125 
L 216.401021 117.672364 
L 221.448257 113.225939 
L 226.495493 108.363842 
L 229.860317 104.859786 
L 234.907553 99.214112 
L 239.95479 93.164395 
L 246.684438 84.684029 
L 258.461322 69.725419 
L 263.508558 63.63712 
L 268.555795 57.895764 
L 273.603031 52.566415 
L 278.650267 47.685811 
L 282.015091 44.68871 
L 285.379915 41.89651 
L 288.744739 39.305519 
L 292.109563 36.909777 
L 295.474388 34.701611 
L 300.521624 31.721374 
L 305.56886 29.109877 
L 310.616096 26.832303 
L 315.663332 24.853896 
L 320.710568 23.141179 
L 325.757805 21.662726 
L 330.805041 20.389595 
L 337.534689 18.966488 
L 344.264337 17.80726 
L 350.993986 16.86528 
L 359.406046 15.934196 
L 367.818106 15.219295 
L 371.18293 14.98246 
L 371.18293 14.98246 
" clip-path="url(#p52ae17175a)" style="fill: none; stroke: #990000; stroke-width: 1.5; stroke-linecap: square"/>
   </g>
   <g id="line2d_53">
    <path d="M 56.571875 184.740741 
L 76.76082 184.499394 
L 88.537704 184.157196 
L 96.949764 183.734278 
L 105.361825 183.076019 
L 112.091473 182.308566 
L 117.138709 181.547649 
L 122.185945 180.590115 
L 127.233182 179.39811 
L 132.280418 177.931447 
L 137.327654 176.14965 
L 140.692478 174.767896 
L 144.057302 173.219641 
L 147.422126 171.497396 
L 150.78695 169.59651 
L 154.151774 167.515902 
L 159.199011 164.066241 
L 164.246247 160.25157 
L 169.293483 156.12852 
L 176.023131 150.2928 
L 192.847252 135.462202 
L 199.5769 129.896674 
L 216.401021 116.300635 
L 221.448257 111.799611 
L 226.495493 106.890127 
L 231.542729 101.527074 
L 236.589965 95.736362 
L 241.637202 89.604472 
L 253.414086 74.743267 
L 260.143734 66.464406 
L 265.19097 60.582498 
L 270.238207 55.074585 
L 275.285443 49.992527 
L 280.332679 45.362155 
L 283.697503 42.529261 
L 287.062327 39.896908 
L 290.427151 37.45995 
L 293.791976 35.211357 
L 298.839212 32.172984 
L 303.886448 29.507297 
L 308.933684 27.180079 
L 313.98092 25.156808 
L 319.028156 23.403983 
L 324.075393 21.889985 
L 329.122629 20.585575 
L 335.852277 19.126785 
L 342.581925 17.93794 
L 349.311573 16.971535 
L 357.723634 16.016 
L 366.135694 15.282118 
L 369.500518 15.038955 
L 369.500518 15.038955 
" clip-path="url(#p52ae17175a)" style="fill: none; stroke: #800000; stroke-width: 1.5; stroke-linecap: square"/>
   </g>
   <g id="line2d_54">
    <path d="M 56.571875 184.680433 
L 73.395996 184.407456 
L 85.17288 183.996076 
L 93.58494 183.505482 
L 100.314589 182.939898 
L 107.044237 182.16933 
L 113.773885 181.137433 
L 118.821121 180.153496 
L 123.868357 178.956625 
L 128.915594 177.515499 
L 133.96283 175.798416 
L 139.010066 173.775102 
L 144.057302 171.419383 
L 149.104538 168.712694 
L 154.151774 165.64821 
L 159.199011 162.235022 
L 164.246247 158.501552 
L 169.293483 154.497185 
L 176.023131 148.858392 
L 194.529664 133.116205 
L 202.941724 126.369115 
L 213.036197 118.293386 
L 218.083433 113.985564 
L 223.130669 109.332903 
L 228.177905 104.256399 
L 233.225141 98.742209 
L 238.272378 92.837305 
L 245.002026 84.54192 
L 258.461322 67.777127 
L 263.508558 61.846186 
L 268.555795 56.266809 
L 273.603031 51.098497 
L 278.650267 46.373732 
L 282.015091 43.476088 
L 285.379915 40.779024 
L 288.744739 38.2784 
L 292.109563 35.967961 
L 295.474388 33.839879 
L 300.521624 30.969906 
L 305.56886 28.457052 
L 310.616096 26.267023 
L 315.663332 24.365793 
L 320.710568 22.720729 
L 325.757805 21.301296 
L 330.805041 20.079445 
L 337.534689 18.714157 
L 344.264337 17.602414 
L 350.993986 16.699271 
L 359.406046 15.806799 
L 369.500518 15.005202 
L 369.500518 15.005202 
" clip-path="url(#p52ae17175a)" style="fill: none; stroke: #660000; stroke-width: 1.5; stroke-linecap: square"/>
   </g>
   <g id="line2d_55">
    <path d="M 56.571875 184.592988 
L 71.713584 184.25847 
L 81.808056 183.841121 
L 90.220116 183.305371 
L 98.632177 182.531284 
L 105.361825 181.688479 
L 112.091473 180.596468 
L 117.138709 179.581783 
L 122.185945 178.371518 
L 127.233182 176.938573 
L 132.280418 175.25479 
L 137.327654 173.292386 
L 142.37489 171.026156 
L 147.422126 168.436475 
L 152.469362 165.512942 
L 157.516599 162.258294 
L 162.563835 158.691952 
L 167.611071 154.852306 
L 174.340719 149.409145 
L 199.5769 128.516605 
L 213.036197 117.78566 
L 218.083433 113.459465 
L 223.130669 108.798713 
L 228.177905 103.717943 
L 233.225141 98.204474 
L 238.272378 92.308843 
L 245.002026 84.038378 
L 258.461322 67.353745 
L 263.508558 61.458182 
L 268.555795 55.914789 
L 273.603031 50.781946 
L 278.650267 46.09129 
L 282.015091 43.215324 
L 285.379915 40.538939 
L 288.744739 38.057911 
L 292.109563 35.765933 
L 297.1568 32.664946 
L 302.204036 29.940694 
L 307.251272 27.559682 
L 312.298508 25.487692 
L 317.345744 23.691239 
L 322.392981 22.138521 
L 327.440217 20.8 
L 332.487453 19.648697 
L 339.217101 18.363206 
L 345.946749 17.317184 
L 354.35881 16.282009 
L 362.77087 15.486349 
L 369.500518 14.985471 
L 369.500518 14.985471 
" clip-path="url(#p52ae17175a)" style="fill: none; stroke: #4d0000; stroke-width: 1.5; stroke-linecap: square"/>
   </g>
   <g id="line2d_56">
    <path d="M 56.571875 184.476166 
L 70.031171 184.098478 
L 80.125644 183.617273 
L 88.537704 183.028043 
L 96.949764 182.210516 
L 103.679413 181.347852 
L 110.409061 180.255438 
L 117.138709 178.884493 
L 122.185945 177.639853 
L 127.233182 176.180808 
L 132.280418 174.480077 
L 137.327654 172.510704 
L 142.37489 170.248198 
L 147.422126 167.673395 
L 152.469362 164.775925 
L 157.516599 161.557942 
L 162.563835 158.037522 
L 167.611071 154.250885 
L 174.340719 148.884234 
L 201.259312 126.874854 
L 211.353785 118.84317 
L 216.401021 114.618451 
L 221.448257 110.078093 
L 226.495493 105.137691 
L 231.542729 99.76567 
L 236.589965 93.99282 
L 243.319614 85.830404 
L 258.461322 67.102386 
L 263.508558 61.228021 
L 268.555795 55.70612 
L 273.603031 50.594414 
L 278.650267 45.924047 
L 282.015091 43.060961 
L 285.379915 40.396854 
L 288.744739 37.927453 
L 292.109563 35.646423 
L 297.1568 32.560558 
L 302.204036 29.849879 
L 307.251272 27.480947 
L 312.298508 25.419635 
L 317.345744 23.632561 
L 322.392981 22.08804 
L 327.440217 20.756651 
L 332.487453 19.611533 
L 339.217101 18.333002 
L 345.946749 17.292683 
L 354.35881 16.26319 
L 362.77087 15.471921 
L 369.500518 14.973819 
L 369.500518 14.973819 
" clip-path="url(#p52ae17175a)" style="fill: none; stroke: #330000; stroke-width: 1.5; stroke-linecap: square"/>
   </g>
   <g id="line2d_57">
    <path d="M 56.571875 184.337455 
L 70.031171 183.877557 
L 80.125644 183.327795 
L 88.537704 182.683304 
L 96.949764 181.816612 
L 103.679413 180.920771 
L 110.409061 179.801411 
L 117.138709 178.410175 
L 122.185945 177.154954 
L 127.233182 175.689594 
L 132.280418 173.987151 
L 137.327654 172.021045 
L 142.37489 169.767139 
L 147.422126 167.206506 
L 152.469362 164.328792 
L 157.516599 161.135838 
L 162.563835 157.644991 
L 167.611071 153.891289 
L 174.340719 148.570923 
L 187.800016 137.47788 
L 199.5769 127.924819 
L 211.353785 118.657848 
L 216.401021 114.430277 
L 221.448257 109.886573 
L 226.495493 104.944045 
L 231.542729 99.572239 
L 236.589965 93.802451 
L 243.319614 85.648491 
L 258.461322 66.952572 
L 263.508558 61.09091 
L 268.555795 55.581864 
L 273.603031 50.482783 
L 278.650267 45.824524 
L 282.015091 42.969118 
L 285.379915 40.312329 
L 288.744739 37.849855 
L 292.109563 35.575345 
L 297.1568 32.498483 
L 302.204036 29.795883 
L 307.251272 27.43414 
L 312.298508 25.379179 
L 317.345744 23.597683 
L 322.392981 22.058036 
L 327.440217 20.730889 
L 332.487453 19.589448 
L 339.217101 18.315052 
L 345.946749 17.278124 
L 354.35881 16.252007 
L 362.77087 15.463348 
L 369.500518 14.966895 
L 369.500518 14.966895 
" clip-path="url(#p52ae17175a)" style="fill: none; stroke: #190000; stroke-width: 1.5; stroke-linecap: square"/>
   </g>
   <g id="line2d_58">
    <path d="M 56.571875 183.81911 
L 70.031171 183.26176 
L 80.125644 182.651832 
L 90.220116 181.806614 
L 98.632177 180.859083 
L 105.361825 179.894411 
L 112.091473 178.700616 
L 118.821121 177.227917 
L 123.868357 175.906505 
L 128.915594 174.370647 
L 133.96283 172.593975 
L 139.010066 170.551114 
L 144.057302 168.21989 
L 149.104538 165.58418 
L 154.151774 162.63726 
L 159.199011 159.385257 
L 164.246247 155.850085 
L 169.293483 152.071005 
L 176.023131 146.751165 
L 201.259312 126.402803 
L 211.353785 118.398461 
L 216.401021 114.156642 
L 221.448257 109.603238 
L 226.495493 104.655628 
L 231.542729 99.283561 
L 236.589965 93.518312 
L 243.319614 85.37718 
L 258.461322 66.72955 
L 263.508558 60.886891 
L 268.555795 55.397042 
L 273.603031 50.316794 
L 278.650267 45.676577 
L 282.015091 42.83261 
L 285.379915 40.186715 
L 288.744739 37.734551 
L 292.109563 35.469741 
L 297.1568 32.406269 
L 302.204036 29.71568 
L 307.251272 27.364622 
L 312.298508 25.319099 
L 317.345744 23.545891 
L 322.392981 22.013485 
L 327.440217 20.692637 
L 334.169865 19.214846 
L 340.899513 18.010046 
L 347.629161 17.030366 
L 356.041222 16.061442 
L 364.453282 15.317101 
L 367.818106 15.07044 
L 367.818106 15.07044 
" clip-path="url(#p52ae17175a)" style="fill: none; stroke-dasharray: 5.55,2.4; stroke-dashoffset: 0; stroke: #bfbf00; stroke-width: 1.5"/>
   </g>
   <g id="patch_3">
    <path d="M 56.571875 230.338828 
L 56.571875 12.898828 
" style="fill: none; stroke: #000000; stroke-width: 0.8; stroke-linejoin: miter; stroke-linecap: square"/>
   </g>
   <g id="patch_4">
    <path d="M 391.371875 230.338828 
L 391.371875 12.898828 
" style="fill: none; stroke: #000000; stroke-width: 0.8; stroke-linejoin: miter; stroke-linecap: square"/>
   </g>
   <g id="patch_5">
    <path d="M 56.571875 230.338828 
L 391.371875 230.338828 
" style="fill: none; stroke: #000000; stroke-width: 0.8; stroke-linejoin: miter; stroke-linecap: square"/>
   </g>
   <g id="patch_6">
    <path d="M 56.571875 12.898828 
L 391.371875 12.898828 
" style="fill: none; stroke: #000000; stroke-width: 0.8; stroke-linejoin: miter; stroke-linecap: square"/>
   </g>
  </g>
  <g id="axes_2">
   <g id="patch_7">
    <path d="M 274.731875 223.138828 
L 382.731875 223.138828 
L 382.731875 151.138828 
L 274.731875 151.138828 
z
" style="fill: #ffffff"/>
   </g>
   <g id="matplotlib.axis_3">
    <g id="xtick_42">
     <g id="line2d_59">
      <defs>
       <path id="m58a832cf6c" d="M 0 0 
L 0 -3.5 
" style="stroke: #000000; stroke-width: 0.8"/>
      </defs>
      <g>
       <use xlink:href="#m58a832cf6c" x="279.640966" y="151.138828" style="stroke: #000000; stroke-width: 0.8"/>
      </g>
     </g>
     <g id="text_14">
      <!-- $\mathdefault{10^{0}}$ -->
      <g transform="translate(269.080966 141.643203) scale(0.12 -0.12)">
       <use xlink:href="#DejaVuSans-31" transform="translate(0 0.765625)"/>
       <use xlink:href="#DejaVuSans-30" transform="translate(63.623047 0.765625)"/>
       <use xlink:href="#DejaVuSans-30" transform="translate(128.203125 39.046875) scale(0.7)"/>
      </g>
     </g>
    </g>
    <g id="xtick_43">
     <g id="line2d_60">
      <g>
       <use xlink:href="#m58a832cf6c" x="328.731875" y="151.138828" style="stroke: #000000; stroke-width: 0.8"/>
      </g>
     </g>
     <g id="text_15">
      <!-- $\mathdefault{10^{1}}$ -->
      <g transform="translate(318.171875 141.643203) scale(0.12 -0.12)">
       <use xlink:href="#DejaVuSans-31" transform="translate(0 0.684375)"/>
       <use xlink:href="#DejaVuSans-30" transform="translate(63.623047 0.684375)"/>
       <use xlink:href="#DejaVuSans-31" transform="translate(128.203125 38.965625) scale(0.7)"/>
      </g>
     </g>
    </g>
    <g id="xtick_44">
     <g id="line2d_61">
      <g>
       <use xlink:href="#m58a832cf6c" x="377.822784" y="151.138828" style="stroke: #000000; stroke-width: 0.8"/>
      </g>
     </g>
     <g id="text_16">
      <!-- $\mathdefault{10^{2}}$ -->
      <g transform="translate(367.262784 141.643203) scale(0.12 -0.12)">
       <use xlink:href="#DejaVuSans-31" transform="translate(0 0.765625)"/>
       <use xlink:href="#DejaVuSans-30" transform="translate(63.623047 0.765625)"/>
       <use xlink:href="#DejaVuSans-32" transform="translate(128.203125 39.046875) scale(0.7)"/>
      </g>
     </g>
    </g>
    <g id="xtick_45">
     <g id="line2d_62">
      <g>
       <use xlink:href="#me190918d31" x="274.883565" y="223.138828" style="stroke: #000000; stroke-width: 0.6"/>
      </g>
     </g>
    </g>
    <g id="xtick_46">
     <g id="line2d_63">
      <g>
       <use xlink:href="#me190918d31" x="277.394689" y="223.138828" style="stroke: #000000; stroke-width: 0.6"/>
      </g>
     </g>
    </g>
    <g id="xtick_47">
     <g id="line2d_64">
      <g>
       <use xlink:href="#me190918d31" x="294.418802" y="223.138828" style="stroke: #000000; stroke-width: 0.6"/>
      </g>
     </g>
    </g>
    <g id="xtick_48">
     <g id="line2d_65">
      <g>
       <use xlink:href="#me190918d31" x="303.063282" y="223.138828" style="stroke: #000000; stroke-width: 0.6"/>
      </g>
     </g>
    </g>
    <g id="xtick_49">
     <g id="line2d_66">
      <g>
       <use xlink:href="#me190918d31" x="309.196638" y="223.138828" style="stroke: #000000; stroke-width: 0.6"/>
      </g>
     </g>
    </g>
    <g id="xtick_50">
     <g id="line2d_67">
      <g>
       <use xlink:href="#me190918d31" x="313.954039" y="223.138828" style="stroke: #000000; stroke-width: 0.6"/>
      </g>
     </g>
    </g>
    <g id="xtick_51">
     <g id="line2d_68">
      <g>
       <use xlink:href="#me190918d31" x="317.841118" y="223.138828" style="stroke: #000000; stroke-width: 0.6"/>
      </g>
     </g>
    </g>
    <g id="xtick_52">
     <g id="line2d_69">
      <g>
       <use xlink:href="#me190918d31" x="321.127597" y="223.138828" style="stroke: #000000; stroke-width: 0.6"/>
      </g>
     </g>
    </g>
    <g id="xtick_53">
     <g id="line2d_70">
      <g>
       <use xlink:href="#me190918d31" x="323.974474" y="223.138828" style="stroke: #000000; stroke-width: 0.6"/>
      </g>
     </g>
    </g>
    <g id="xtick_54">
     <g id="line2d_71">
      <g>
       <use xlink:href="#me190918d31" x="326.485598" y="223.138828" style="stroke: #000000; stroke-width: 0.6"/>
      </g>
     </g>
    </g>
    <g id="xtick_55">
     <g id="line2d_72">
      <g>
       <use xlink:href="#me190918d31" x="343.509711" y="223.138828" style="stroke: #000000; stroke-width: 0.6"/>
      </g>
     </g>
    </g>
    <g id="xtick_56">
     <g id="line2d_73">
      <g>
       <use xlink:href="#me190918d31" x="352.154191" y="223.138828" style="stroke: #000000; stroke-width: 0.6"/>
      </g>
     </g>
    </g>
    <g id="xtick_57">
     <g id="line2d_74">
      <g>
       <use xlink:href="#me190918d31" x="358.287547" y="223.138828" style="stroke: #000000; stroke-width: 0.6"/>
      </g>
     </g>
    </g>
    <g id="xtick_58">
     <g id="line2d_75">
      <g>
       <use xlink:href="#me190918d31" x="363.044948" y="223.138828" style="stroke: #000000; stroke-width: 0.6"/>
      </g>
     </g>
    </g>
    <g id="xtick_59">
     <g id="line2d_76">
      <g>
       <use xlink:href="#me190918d31" x="366.932027" y="223.138828" style="stroke: #000000; stroke-width: 0.6"/>
      </g>
     </g>
    </g>
    <g id="xtick_60">
     <g id="line2d_77">
      <g>
       <use xlink:href="#me190918d31" x="370.218506" y="223.138828" style="stroke: #000000; stroke-width: 0.6"/>
      </g>
     </g>
    </g>
    <g id="xtick_61">
     <g id="line2d_78">
      <g>
       <use xlink:href="#me190918d31" x="373.065383" y="223.138828" style="stroke: #000000; stroke-width: 0.6"/>
      </g>
     </g>
    </g>
    <g id="xtick_62">
     <g id="line2d_79">
      <g>
       <use xlink:href="#me190918d31" x="375.576507" y="223.138828" style="stroke: #000000; stroke-width: 0.6"/>
      </g>
     </g>
    </g>
    <g id="text_17">
     <!-- $\frac{\eta}{4\gamma_\mathrm{TPA}}$ -->
     <g transform="translate(317.091875 122.525078) scale(0.12 -0.12)">
      <defs>
       <path id="DejaVuSans-Oblique-3b7" d="M 3703 2113 
L 3034 -1331 
L 2459 -1331 
L 3125 2094 
Q 3222 2591 3075 2838 
Q 2931 3084 2544 3084 
Q 2078 3084 1750 2788 
Q 1425 2491 1325 1978 
L 941 0 
L 363 0 
L 1044 3500 
L 1622 3500 
L 1516 2956 
Q 1781 3272 2094 3428 
Q 2403 3584 2769 3584 
Q 3372 3584 3609 3213 
Q 3844 2838 3703 2113 
z
" transform="scale(0.015625)"/>
      </defs>
      <use xlink:href="#DejaVuSans-Oblique-3b7" transform="translate(68 58.8) scale(0.7)"/>
      <use xlink:href="#DejaVuSans-34" transform="translate(0 -38.042187) scale(0.7)"/>
      <use xlink:href="#DejaVuSans-Oblique-3b3" transform="translate(44.536133 -38.042187) scale(0.7)"/>
      <use xlink:href="#DejaVuSans-54" transform="translate(85.961914 -49.526562) scale(0.49)"/>
      <use xlink:href="#DejaVuSans-50" transform="translate(115.893066 -49.526562) scale(0.49)"/>
      <use xlink:href="#DejaVuSans-41" transform="translate(145.441406 -49.526562) scale(0.49)"/>
      <path d="M 0 19.242188 
L 0 25.492188 
L 180.875488 25.492188 
L 180.875488 19.242188 
L 0 19.242188 
z
"/>
     </g>
    </g>
   </g>
   <g id="matplotlib.axis_4">
    <g id="ytick_7">
     <g id="line2d_80">
      <g>
       <use xlink:href="#mb434823681" x="274.731875" y="223.138828" style="stroke: #000000; stroke-width: 0.8"/>
      </g>
     </g>
     <g id="text_18">
      <!-- 200 -->
      <g transform="translate(244.826875 227.697891) scale(0.12 -0.12)">
       <use xlink:href="#DejaVuSans-32"/>
       <use xlink:href="#DejaVuSans-30" x="63.623047"/>
       <use xlink:href="#DejaVuSans-30" x="127.246094"/>
      </g>
     </g>
    </g>
    <g id="ytick_8">
     <g id="line2d_81">
      <g>
       <use xlink:href="#mb434823681" x="274.731875" y="199.138828" style="stroke: #000000; stroke-width: 0.8"/>
      </g>
     </g>
     <g id="text_19">
      <!-- 300 -->
      <g transform="translate(244.826875 203.697891) scale(0.12 -0.12)">
       <defs>
        <path id="DejaVuSans-33" d="M 2597 2516 
Q 3050 2419 3304 2112 
Q 3559 1806 3559 1356 
Q 3559 666 3084 287 
Q 2609 -91 1734 -91 
Q 1441 -91 1130 -33 
Q 819 25 488 141 
L 488 750 
Q 750 597 1062 519 
Q 1375 441 1716 441 
Q 2309 441 2620 675 
Q 2931 909 2931 1356 
Q 2931 1769 2642 2001 
Q 2353 2234 1838 2234 
L 1294 2234 
L 1294 2753 
L 1863 2753 
Q 2328 2753 2575 2939 
Q 2822 3125 2822 3475 
Q 2822 3834 2567 4026 
Q 2313 4219 1838 4219 
Q 1578 4219 1281 4162 
Q 984 4106 628 3988 
L 628 4550 
Q 988 4650 1302 4700 
Q 1616 4750 1894 4750 
Q 2613 4750 3031 4423 
Q 3450 4097 3450 3541 
Q 3450 3153 3228 2886 
Q 3006 2619 2597 2516 
z
" transform="scale(0.015625)"/>
       </defs>
       <use xlink:href="#DejaVuSans-33"/>
       <use xlink:href="#DejaVuSans-30" x="63.623047"/>
       <use xlink:href="#DejaVuSans-30" x="127.246094"/>
      </g>
     </g>
    </g>
    <g id="ytick_9">
     <g id="line2d_82">
      <g>
       <use xlink:href="#mb434823681" x="274.731875" y="175.138828" style="stroke: #000000; stroke-width: 0.8"/>
      </g>
     </g>
     <g id="text_20">
      <!-- 400 -->
      <g transform="translate(244.826875 179.697891) scale(0.12 -0.12)">
       <use xlink:href="#DejaVuSans-34"/>
       <use xlink:href="#DejaVuSans-30" x="63.623047"/>
       <use xlink:href="#DejaVuSans-30" x="127.246094"/>
      </g>
     </g>
    </g>
    <g id="ytick_10">
     <g id="line2d_83">
      <g>
       <use xlink:href="#mb434823681" x="274.731875" y="151.138828" style="stroke: #000000; stroke-width: 0.8"/>
      </g>
     </g>
     <g id="text_21">
      <!-- 500 -->
      <g transform="translate(244.826875 155.697891) scale(0.12 -0.12)">
       <defs>
        <path id="DejaVuSans-35" d="M 691 4666 
L 3169 4666 
L 3169 4134 
L 1269 4134 
L 1269 2991 
Q 1406 3038 1543 3061 
Q 1681 3084 1819 3084 
Q 2600 3084 3056 2656 
Q 3513 2228 3513 1497 
Q 3513 744 3044 326 
Q 2575 -91 1722 -91 
Q 1428 -91 1123 -41 
Q 819 9 494 109 
L 494 744 
Q 775 591 1075 516 
Q 1375 441 1709 441 
Q 2250 441 2565 725 
Q 2881 1009 2881 1497 
Q 2881 1984 2565 2268 
Q 2250 2553 1709 2553 
Q 1456 2553 1204 2497 
Q 953 2441 691 2322 
L 691 4666 
z
" transform="scale(0.015625)"/>
       </defs>
       <use xlink:href="#DejaVuSans-35"/>
       <use xlink:href="#DejaVuSans-30" x="63.623047"/>
       <use xlink:href="#DejaVuSans-30" x="127.246094"/>
      </g>
     </g>
    </g>
    <g id="text_22">
     <!-- $\frac{\gamma_\mathrm{TPA}}{c}$ for 99% -->
     <g transform="translate(237.466875 221.518828) rotate(-90) scale(0.12 -0.12)">
      <defs>
       <path id="DejaVuSans-66" d="M 2375 4863 
L 2375 4384 
L 1825 4384 
Q 1516 4384 1395 4259 
Q 1275 4134 1275 3809 
L 1275 3500 
L 2222 3500 
L 2222 3053 
L 1275 3053 
L 1275 0 
L 697 0 
L 697 3053 
L 147 3053 
L 147 3500 
L 697 3500 
L 697 3744 
Q 697 4328 969 4595 
Q 1241 4863 1831 4863 
L 2375 4863 
z
" transform="scale(0.015625)"/>
       <path id="DejaVuSans-39" d="M 703 97 
L 703 672 
Q 941 559 1184 500 
Q 1428 441 1663 441 
Q 2288 441 2617 861 
Q 2947 1281 2994 2138 
Q 2813 1869 2534 1725 
Q 2256 1581 1919 1581 
Q 1219 1581 811 2004 
Q 403 2428 403 3163 
Q 403 3881 828 4315 
Q 1253 4750 1959 4750 
Q 2769 4750 3195 4129 
Q 3622 3509 3622 2328 
Q 3622 1225 3098 567 
Q 2575 -91 1691 -91 
Q 1453 -91 1209 -44 
Q 966 3 703 97 
z
M 1959 2075 
Q 2384 2075 2632 2365 
Q 2881 2656 2881 3163 
Q 2881 3666 2632 3958 
Q 2384 4250 1959 4250 
Q 1534 4250 1286 3958 
Q 1038 3666 1038 3163 
Q 1038 2656 1286 2365 
Q 1534 2075 1959 2075 
z
" transform="scale(0.015625)"/>
       <path id="DejaVuSans-25" d="M 4653 2053 
Q 4381 2053 4226 1822 
Q 4072 1591 4072 1178 
Q 4072 772 4226 539 
Q 4381 306 4653 306 
Q 4919 306 5073 539 
Q 5228 772 5228 1178 
Q 5228 1588 5073 1820 
Q 4919 2053 4653 2053 
z
M 4653 2450 
Q 5147 2450 5437 2106 
Q 5728 1763 5728 1178 
Q 5728 594 5436 251 
Q 5144 -91 4653 -91 
Q 4153 -91 3862 251 
Q 3572 594 3572 1178 
Q 3572 1766 3864 2108 
Q 4156 2450 4653 2450 
z
M 1428 4353 
Q 1159 4353 1004 4120 
Q 850 3888 850 3481 
Q 850 3069 1003 2837 
Q 1156 2606 1428 2606 
Q 1700 2606 1854 2837 
Q 2009 3069 2009 3481 
Q 2009 3884 1853 4118 
Q 1697 4353 1428 4353 
z
M 4250 4750 
L 4750 4750 
L 1831 -91 
L 1331 -91 
L 4250 4750 
z
M 1428 4750 
Q 1922 4750 2215 4408 
Q 2509 4066 2509 3481 
Q 2509 2891 2217 2550 
Q 1925 2209 1428 2209 
Q 931 2209 642 2551 
Q 353 2894 353 3481 
Q 353 4063 643 4406 
Q 934 4750 1428 4750 
z
" transform="scale(0.015625)"/>
      </defs>
      <use xlink:href="#DejaVuSans-Oblique-3b3" transform="translate(0 58.71875) scale(0.7)"/>
      <use xlink:href="#DejaVuSans-54" transform="translate(41.425781 47.234375) scale(0.49)"/>
      <use xlink:href="#DejaVuSans-50" transform="translate(71.356934 47.234375) scale(0.49)"/>
      <use xlink:href="#DejaVuSans-41" transform="translate(100.905273 47.234375) scale(0.49)"/>
      <use xlink:href="#DejaVuSans-Oblique-63" transform="translate(49 -26.289062) scale(0.7)"/>
      <use xlink:href="#DejaVuSans-20" transform="translate(148.839355 0.364062)"/>
      <use xlink:href="#DejaVuSans-66" transform="translate(180.626465 0.364062)"/>
      <use xlink:href="#DejaVuSans-6f" transform="translate(215.831543 0.364062)"/>
      <use xlink:href="#DejaVuSans-72" transform="translate(277.013184 0.364062)"/>
      <use xlink:href="#DejaVuSans-20" transform="translate(318.126465 0.364062)"/>
      <use xlink:href="#DejaVuSans-39" transform="translate(349.913574 0.364062)"/>
      <use xlink:href="#DejaVuSans-39" transform="translate(413.536621 0.364062)"/>
      <use xlink:href="#DejaVuSans-25" transform="translate(477.159668 0.364062)"/>
      <path d="M 0 19.160938 
L 0 25.410938 
L 136.339355 25.410938 
L 136.339355 19.160938 
L 0 19.160938 
z
"/>
     </g>
    </g>
   </g>
   <g id="line2d_84">
    <defs>
     <path id="ma43811ebcf" d="M 0 -5 
L -1.12257 -1.545085 
L -4.755283 -1.545085 
L -1.816356 0.59017 
L -2.938926 4.045085 
L -0 1.90983 
L 2.938926 4.045085 
L 1.816356 0.59017 
L 4.755283 -1.545085 
L 1.12257 -1.545085 
z
" style="stroke: #ff0000; stroke-linejoin: bevel"/>
    </defs>
    <g clip-path="url(#pf6b9314e53)">
     <use xlink:href="#ma43811ebcf" x="279.640966" y="159.071967" style="fill: #ff0000; stroke: #ff0000; stroke-linejoin: bevel"/>
    </g>
   </g>
   <g id="line2d_85">
    <defs>
     <path id="mcd3da2fc07" d="M 0 -5 
L -1.12257 -1.545085 
L -4.755283 -1.545085 
L -1.816356 0.59017 
L -2.938926 4.045085 
L -0 1.90983 
L 2.938926 4.045085 
L 1.816356 0.59017 
L 4.755283 -1.545085 
L 1.12257 -1.545085 
z
" style="stroke: #e60000; stroke-linejoin: bevel"/>
    </defs>
    <g clip-path="url(#pf6b9314e53)">
     <use xlink:href="#mcd3da2fc07" x="290.550057" y="191.135417" style="fill: #e60000; stroke: #e60000; stroke-linejoin: bevel"/>
    </g>
   </g>
   <g id="line2d_86">
    <defs>
     <path id="m92c96ff8f4" d="M 0 -5 
L -1.12257 -1.545085 
L -4.755283 -1.545085 
L -1.816356 0.59017 
L -2.938926 4.045085 
L -0 1.90983 
L 2.938926 4.045085 
L 1.816356 0.59017 
L 4.755283 -1.545085 
L 1.12257 -1.545085 
z
" style="stroke: #cc0000; stroke-linejoin: bevel"/>
    </defs>
    <g clip-path="url(#pf6b9314e53)">
     <use xlink:href="#m92c96ff8f4" x="301.459148" y="202.859418" style="fill: #cc0000; stroke: #cc0000; stroke-linejoin: bevel"/>
    </g>
   </g>
   <g id="line2d_87">
    <defs>
     <path id="m0200c23dc2" d="M 0 -5 
L -1.12257 -1.545085 
L -4.755283 -1.545085 
L -1.816356 0.59017 
L -2.938926 4.045085 
L -0 1.90983 
L 2.938926 4.045085 
L 1.816356 0.59017 
L 4.755283 -1.545085 
L 1.12257 -1.545085 
z
" style="stroke: #b20000; stroke-linejoin: bevel"/>
    </defs>
    <g clip-path="url(#pf6b9314e53)">
     <use xlink:href="#m0200c23dc2" x="312.368239" y="208.378879" style="fill: #b20000; stroke: #b20000; stroke-linejoin: bevel"/>
    </g>
   </g>
   <g id="line2d_88">
    <defs>
     <path id="m425c80167f" d="M 0 -5 
L -1.12257 -1.545085 
L -4.755283 -1.545085 
L -1.816356 0.59017 
L -2.938926 4.045085 
L -0 1.90983 
L 2.938926 4.045085 
L 1.816356 0.59017 
L 4.755283 -1.545085 
L 1.12257 -1.545085 
z
" style="stroke: #990000; stroke-linejoin: bevel"/>
    </defs>
    <g clip-path="url(#pf6b9314e53)">
     <use xlink:href="#m425c80167f" x="323.27733" y="211.28024" style="fill: #990000; stroke: #990000; stroke-linejoin: bevel"/>
    </g>
   </g>
   <g id="line2d_89">
    <defs>
     <path id="m97a747fb38" d="M 0 -5 
L -1.12257 -1.545085 
L -4.755283 -1.545085 
L -1.816356 0.59017 
L -2.938926 4.045085 
L -0 1.90983 
L 2.938926 4.045085 
L 1.816356 0.59017 
L 4.755283 -1.545085 
L 1.12257 -1.545085 
z
" style="stroke: #800000; stroke-linejoin: bevel"/>
    </defs>
    <g clip-path="url(#pf6b9314e53)">
     <use xlink:href="#m97a747fb38" x="334.18642" y="212.897181" style="fill: #800000; stroke: #800000; stroke-linejoin: bevel"/>
    </g>
   </g>
   <g id="line2d_90">
    <defs>
     <path id="m4f6a607ffe" d="M 0 -5 
L -1.12257 -1.545085 
L -4.755283 -1.545085 
L -1.816356 0.59017 
L -2.938926 4.045085 
L -0 1.90983 
L 2.938926 4.045085 
L 1.816356 0.59017 
L 4.755283 -1.545085 
L 1.12257 -1.545085 
z
" style="stroke: #660000; stroke-linejoin: bevel"/>
    </defs>
    <g clip-path="url(#pf6b9314e53)">
     <use xlink:href="#m4f6a607ffe" x="345.095511" y="213.823943" style="fill: #660000; stroke: #660000; stroke-linejoin: bevel"/>
    </g>
   </g>
   <g id="line2d_91">
    <defs>
     <path id="m157fd21c21" d="M 0 -5 
L -1.12257 -1.545085 
L -4.755283 -1.545085 
L -1.816356 0.59017 
L -2.938926 4.045085 
L -0 1.90983 
L 2.938926 4.045085 
L 1.816356 0.59017 
L 4.755283 -1.545085 
L 1.12257 -1.545085 
z
" style="stroke: #4d0000; stroke-linejoin: bevel"/>
    </defs>
    <g clip-path="url(#pf6b9314e53)">
     <use xlink:href="#m157fd21c21" x="356.004602" y="214.365319" style="fill: #4d0000; stroke: #4d0000; stroke-linejoin: bevel"/>
    </g>
   </g>
   <g id="line2d_92">
    <defs>
     <path id="ma01a59d925" d="M 0 -5 
L -1.12257 -1.545085 
L -4.755283 -1.545085 
L -1.816356 0.59017 
L -2.938926 4.045085 
L -0 1.90983 
L 2.938926 4.045085 
L 1.816356 0.59017 
L 4.755283 -1.545085 
L 1.12257 -1.545085 
z
" style="stroke: #330000; stroke-linejoin: bevel"/>
    </defs>
    <g clip-path="url(#pf6b9314e53)">
     <use xlink:href="#ma01a59d925" x="366.913693" y="214.686474" style="fill: #330000; stroke: #330000; stroke-linejoin: bevel"/>
    </g>
   </g>
   <g id="line2d_93">
    <defs>
     <path id="m9417dddb5b" d="M 0 -5 
L -1.12257 -1.545085 
L -4.755283 -1.545085 
L -1.816356 0.59017 
L -2.938926 4.045085 
L -0 1.90983 
L 2.938926 4.045085 
L 1.816356 0.59017 
L 4.755283 -1.545085 
L 1.12257 -1.545085 
z
" style="stroke: #190000; stroke-linejoin: bevel"/>
    </defs>
    <g clip-path="url(#pf6b9314e53)">
     <use xlink:href="#m9417dddb5b" x="377.822784" y="214.876109" style="fill: #190000; stroke: #190000; stroke-linejoin: bevel"/>
    </g>
   </g>
   <g id="line2d_94">
    <path d="M 279.640966 215.159492 
L 377.822784 215.159492 
" clip-path="url(#pf6b9314e53)" style="fill: none; stroke-dasharray: 5.55,2.4; stroke-dashoffset: 0; stroke: #bfbf00; stroke-width: 1.5"/>
   </g>
   <g id="patch_8">
    <path d="M 274.731875 223.138828 
L 274.731875 151.138828 
" style="fill: none; stroke: #000000; stroke-width: 0.8; stroke-linejoin: miter; stroke-linecap: square"/>
   </g>
   <g id="patch_9">
    <path d="M 382.731875 223.138828 
L 382.731875 151.138828 
" style="fill: none; stroke: #000000; stroke-width: 0.8; stroke-linejoin: miter; stroke-linecap: square"/>
   </g>
   <g id="patch_10">
    <path d="M 274.731875 223.138828 
L 382.731875 223.138828 
" style="fill: none; stroke: #000000; stroke-width: 0.8; stroke-linejoin: miter; stroke-linecap: square"/>
   </g>
   <g id="patch_11">
    <path d="M 274.731875 151.138828 
L 382.731875 151.138828 
" style="fill: none; stroke: #000000; stroke-width: 0.8; stroke-linejoin: miter; stroke-linecap: square"/>
   </g>
  </g>
 </g>
 <defs>
  <clipPath id="p52ae17175a">
   <rect x="56.571875" y="12.898828" width="334.8" height="217.44"/>
  </clipPath>
  <clipPath id="pf6b9314e53">
   <rect x="274.731875" y="151.138828" width="108" height="72"/>
  </clipPath>
 </defs>
</svg>
