<?xml version="1.0" encoding="utf-8" standalone="no"?>
<!DOCTYPE svg PUBLIC "-//W3C//DTD SVG 1.1//EN"
  "http://www.w3.org/Graphics/SVG/1.1/DTD/svg11.dtd">
<svg xmlns:xlink="http://www.w3.org/1999/xlink" width="423.06875pt" height="287.806016pt" viewBox="0 0 423.06875 287.806016" xmlns="http://www.w3.org/2000/svg" version="1.1">
 <metadata>
  <rdf:RDF xmlns:dc="http://purl.org/dc/elements/1.1/" xmlns:cc="http://creativecommons.org/ns#" xmlns:rdf="http://www.w3.org/1999/02/22-rdf-syntax-ns#">
   <cc:Work>
    <dc:type rdf:resource="http://purl.org/dc/dcmitype/StillImage"/>
    <dc:date>2026-01-20T22:01:07.582166</dc:date>
    <dc:format>image/svg+xml</dc:format>
    <dc:creator>
     <cc:Agent>
      <dc:title>Matplotlib v3.6.3, https://matplotlib.org/</dc:title>
     </cc:Agent>
    </dc:creator>
   </cc:Work>
  </rdf:RDF>
 </metadata>
 <defs>
  <style type="text/css">*{stroke-linejoin: round; stroke-linecap: butt}</style>
 </defs>
 <g id="figure_1">
  <g id="patch_1">
   <path d="M 0 287.806016 
L 423.06875 287.806016 
L 423.06875 0 
L 0 0 
L 0 287.806016 
z
" style="fill: none"/>
  </g>
  <g id="axes_1">
   <g id="patch_2">
    <path d="M 69.141406 230.338828 
L 403.941406 230.338828 
L 403.941406 12.898828 
L 69.141406 12.898828 
z
" style="fill: #ffffff"/>
   </g>
   <g id="matplotlib.axis_1">
    <g id="xtick_1">
     <g id="line2d_1">
      <defs>
       <path id="m40329913df" d="M 0 0 
L 0 3.5 
" style="stroke: #000000; stroke-width: 0.8"/>
      </defs>
      <g>
       <use xlink:href="#m40329913df" x="69.141406" y="230.338828" style="stroke: #000000; stroke-width: 0.8"/>
      </g>
     </g>
     <g id="text_1">
      <!-- 0.0 -->
      <g transform="translate(57.214063 248.736484) scale(0.15 -0.15)">
       <defs>
        <path id="DejaVuSans-30" d="M 2034 4250 
Q 1547 4250 1301 3770 
Q 1056 3291 1056 2328 
Q 1056 1369 1301 889 
Q 1547 409 2034 409 
Q 2525 409 2770 889 
Q 3016 1369 3016 2328 
Q 3016 3291 2770 3770 
Q 2525 4250 2034 4250 
z
M 2034 4750 
Q 2819 4750 3233 4129 
Q 3647 3509 3647 2328 
Q 3647 1150 3233 529 
Q 2819 -91 2034 -91 
Q 1250 -91 836 529 
Q 422 1150 422 2328 
Q 422 3509 836 4129 
Q 1250 4750 2034 4750 
z
" transform="scale(0.015625)"/>
        <path id="DejaVuSans-2e" d="M 684 794 
L 1344 794 
L 1344 0 
L 684 0 
L 684 794 
z
" transform="scale(0.015625)"/>
       </defs>
       <use xlink:href="#DejaVuSans-30"/>
       <use xlink:href="#DejaVuSans-2e" x="63.623047"/>
       <use xlink:href="#DejaVuSans-30" x="95.410156"/>
      </g>
     </g>
    </g>
    <g id="xtick_2">
     <g id="line2d_2">
      <g>
       <use xlink:href="#m40329913df" x="124.941406" y="230.338828" style="stroke: #000000; stroke-width: 0.8"/>
      </g>
     </g>
     <g id="text_2">
      <!-- 0.5 -->
      <g transform="translate(113.014062 248.736484) scale(0.15 -0.15)">
       <defs>
        <path id="DejaVuSans-35" d="M 691 4666 
L 3169 4666 
L 3169 4134 
L 1269 4134 
L 1269 2991 
Q 1406 3038 1543 3061 
Q 1681 3084 1819 3084 
Q 2600 3084 3056 2656 
Q 3513 2228 3513 1497 
Q 3513 744 3044 326 
Q 2575 -91 1722 -91 
Q 1428 -91 1123 -41 
Q 819 9 494 109 
L 494 744 
Q 775 591 1075 516 
Q 1375 441 1709 441 
Q 2250 441 2565 725 
Q 2881 1009 2881 1497 
Q 2881 1984 2565 2268 
Q 2250 2553 1709 2553 
Q 1456 2553 1204 2497 
Q 953 2441 691 2322 
L 691 4666 
z
" transform="scale(0.015625)"/>
       </defs>
       <use xlink:href="#DejaVuSans-30"/>
       <use xlink:href="#DejaVuSans-2e" x="63.623047"/>
       <use xlink:href="#DejaVuSans-35" x="95.410156"/>
      </g>
     </g>
    </g>
    <g id="xtick_3">
     <g id="line2d_3">
      <g>
       <use xlink:href="#m40329913df" x="180.741406" y="230.338828" style="stroke: #000000; stroke-width: 0.8"/>
      </g>
     </g>
     <g id="text_3">
      <!-- 1.0 -->
      <g transform="translate(168.814063 248.736484) scale(0.15 -0.15)">
       <defs>
        <path id="DejaVuSans-31" d="M 794 531 
L 1825 531 
L 1825 4091 
L 703 3866 
L 703 4441 
L 1819 4666 
L 2450 4666 
L 2450 531 
L 3481 531 
L 3481 0 
L 794 0 
L 794 531 
z
" transform="scale(0.015625)"/>
       </defs>
       <use xlink:href="#DejaVuSans-31"/>
       <use xlink:href="#DejaVuSans-2e" x="63.623047"/>
       <use xlink:href="#DejaVuSans-30" x="95.410156"/>
      </g>
     </g>
    </g>
    <g id="xtick_4">
     <g id="line2d_4">
      <g>
       <use xlink:href="#m40329913df" x="236.541406" y="230.338828" style="stroke: #000000; stroke-width: 0.8"/>
      </g>
     </g>
     <g id="text_4">
      <!-- 1.5 -->
      <g transform="translate(224.614062 248.736484) scale(0.15 -0.15)">
       <use xlink:href="#DejaVuSans-31"/>
       <use xlink:href="#DejaVuSans-2e" x="63.623047"/>
       <use xlink:href="#DejaVuSans-35" x="95.410156"/>
      </g>
     </g>
    </g>
    <g id="xtick_5">
     <g id="line2d_5">
      <g>
       <use xlink:href="#m40329913df" x="292.341406" y="230.338828" style="stroke: #000000; stroke-width: 0.8"/>
      </g>
     </g>
     <g id="text_5">
      <!-- 2.0 -->
      <g transform="translate(280.414062 248.736484) scale(0.15 -0.15)">
       <defs>
        <path id="DejaVuSans-32" d="M 1228 531 
L 3431 531 
L 3431 0 
L 469 0 
L 469 531 
Q 828 903 1448 1529 
Q 2069 2156 2228 2338 
Q 2531 2678 2651 2914 
Q 2772 3150 2772 3378 
Q 2772 3750 2511 3984 
Q 2250 4219 1831 4219 
Q 1534 4219 1204 4116 
Q 875 4013 500 3803 
L 500 4441 
Q 881 4594 1212 4672 
Q 1544 4750 1819 4750 
Q 2544 4750 2975 4387 
Q 3406 4025 3406 3419 
Q 3406 3131 3298 2873 
Q 3191 2616 2906 2266 
Q 2828 2175 2409 1742 
Q 1991 1309 1228 531 
z
" transform="scale(0.015625)"/>
       </defs>
       <use xlink:href="#DejaVuSans-32"/>
       <use xlink:href="#DejaVuSans-2e" x="63.623047"/>
       <use xlink:href="#DejaVuSans-30" x="95.410156"/>
      </g>
     </g>
    </g>
    <g id="xtick_6">
     <g id="line2d_6">
      <g>
       <use xlink:href="#m40329913df" x="348.141406" y="230.338828" style="stroke: #000000; stroke-width: 0.8"/>
      </g>
     </g>
     <g id="text_6">
      <!-- 2.5 -->
      <g transform="translate(336.214063 248.736484) scale(0.15 -0.15)">
       <use xlink:href="#DejaVuSans-32"/>
       <use xlink:href="#DejaVuSans-2e" x="63.623047"/>
       <use xlink:href="#DejaVuSans-35" x="95.410156"/>
      </g>
     </g>
    </g>
    <g id="xtick_7">
     <g id="line2d_7">
      <g>
       <use xlink:href="#m40329913df" x="403.941406" y="230.338828" style="stroke: #000000; stroke-width: 0.8"/>
      </g>
     </g>
     <g id="text_7">
      <!-- 3.0 -->
      <g transform="translate(392.014062 248.736484) scale(0.15 -0.15)">
       <defs>
        <path id="DejaVuSans-33" d="M 2597 2516 
Q 3050 2419 3304 2112 
Q 3559 1806 3559 1356 
Q 3559 666 3084 287 
Q 2609 -91 1734 -91 
Q 1441 -91 1130 -33 
Q 819 25 488 141 
L 488 750 
Q 750 597 1062 519 
Q 1375 441 1716 441 
Q 2309 441 2620 675 
Q 2931 909 2931 1356 
Q 2931 1769 2642 2001 
Q 2353 2234 1838 2234 
L 1294 2234 
L 1294 2753 
L 1863 2753 
Q 2328 2753 2575 2939 
Q 2822 3125 2822 3475 
Q 2822 3834 2567 4026 
Q 2313 4219 1838 4219 
Q 1578 4219 1281 4162 
Q 984 4106 628 3988 
L 628 4550 
Q 988 4650 1302 4700 
Q 1616 4750 1894 4750 
Q 2613 4750 3031 4423 
Q 3450 4097 3450 3541 
Q 3450 3153 3228 2886 
Q 3006 2619 2597 2516 
z
" transform="scale(0.015625)"/>
       </defs>
       <use xlink:href="#DejaVuSans-33"/>
       <use xlink:href="#DejaVuSans-2e" x="63.623047"/>
       <use xlink:href="#DejaVuSans-30" x="95.410156"/>
      </g>
     </g>
    </g>
    <g id="text_8">
     <!-- $\frac{\sqrt{2}\gamma}{\pi}t$ -->
     <g transform="translate(221.691406 276.406016) scale(0.15 -0.15)">
      <defs>
       <path id="STIXSizeOneSym-Regular-221a" d="M 6970 9933 
L 3373 -1888 
L 3104 -1888 
L 1626 2918 
Q 1555 3149 1465 3251 
Q 1376 3354 1229 3354 
Q 1011 3354 794 3181 
L 717 3309 
L 1766 4115 
L 1926 4115 
L 3379 -602 
L 3405 -602 
L 6605 9933 
L 6970 9933 
z
" transform="scale(0.015625)"/>
       <path id="DejaVuSans-Oblique-3b3" d="M 1491 2950 
L 1838 788 
L 3456 3500 
L 4066 3500 
L 1972 0 
L 1713 -1331 
L 1138 -1331 
L 1397 0 
L 988 2613 
Q 925 3006 628 3006 
L 475 3006 
L 569 3500 
L 788 3500 
Q 1403 3500 1491 2950 
z
" transform="scale(0.015625)"/>
       <path id="DejaVuSans-Oblique-3c0" d="M 584 3500 
L 3938 3500 
L 3825 2925 
L 3384 2925 
L 2966 775 
Q 2922 550 2981 450 
Q 3038 353 3209 353 
Q 3256 353 3325 363 
Q 3397 369 3419 372 
L 3338 -44 
Q 3222 -84 3103 -103 
Q 2981 -122 2866 -122 
Q 2491 -122 2388 81 
Q 2284 288 2391 838 
L 2797 2925 
L 1506 2925 
L 938 0 
L 350 0 
L 919 2925 
L 472 2925 
L 584 3500 
z
" transform="scale(0.015625)"/>
       <path id="DejaVuSans-Oblique-74" d="M 2706 3500 
L 2619 3053 
L 1472 3053 
L 1100 1153 
Q 1081 1047 1072 975 
Q 1063 903 1063 863 
Q 1063 663 1183 572 
Q 1303 481 1569 481 
L 2150 481 
L 2053 0 
L 1503 0 
Q 991 0 739 200 
Q 488 400 488 806 
Q 488 878 497 964 
Q 506 1050 525 1153 
L 897 3053 
L 409 3053 
L 500 3500 
L 978 3500 
L 1172 4494 
L 1747 4494 
L 1556 3500 
L 2706 3500 
z
" transform="scale(0.015625)"/>
      </defs>
      <use xlink:href="#STIXSizeOneSym-Regular-221a" transform="translate(0 70.871875) scale(0.399712)"/>
      <use xlink:href="#DejaVuSans-32" transform="translate(51.016783 58.671875) scale(0.7)"/>
      <use xlink:href="#DejaVuSans-Oblique-3b3" transform="translate(104.302916 59.103125) scale(0.7)"/>
      <use xlink:href="#DejaVuSans-Oblique-3c0" transform="translate(52 -24.985937) scale(0.7)"/>
      <use xlink:href="#DejaVuSans-Oblique-74" transform="translate(158.228697 0.748438)"/>
      <path d="M 42.266783 128.25 
L 42.266783 132.625 
L 104.302916 132.625 
L 104.302916 128.25 
L 42.266783 128.25 
z
"/>
      <path d="M 0 19.545313 
L 0 25.795313 
L 145.728697 25.795313 
L 145.728697 19.545313 
L 0 19.545313 
z
"/>
     </g>
    </g>
   </g>
   <g id="matplotlib.axis_2">
    <g id="ytick_1">
     <g id="line2d_8">
      <defs>
       <path id="mfb0e793b28" d="M 0 0 
L -3.5 0 
" style="stroke: #000000; stroke-width: 0.8"/>
      </defs>
      <g>
       <use xlink:href="#mfb0e793b28" x="69.141406" y="230.338828" style="stroke: #000000; stroke-width: 0.8"/>
      </g>
     </g>
     <g id="text_9">
      <!-- −0.6 -->
      <g transform="translate(25.717188 236.037656) scale(0.15 -0.15)">
       <defs>
        <path id="DejaVuSans-2212" d="M 678 2272 
L 4684 2272 
L 4684 1741 
L 678 1741 
L 678 2272 
z
" transform="scale(0.015625)"/>
        <path id="DejaVuSans-36" d="M 2113 2584 
Q 1688 2584 1439 2293 
Q 1191 2003 1191 1497 
Q 1191 994 1439 701 
Q 1688 409 2113 409 
Q 2538 409 2786 701 
Q 3034 994 3034 1497 
Q 3034 2003 2786 2293 
Q 2538 2584 2113 2584 
z
M 3366 4563 
L 3366 3988 
Q 3128 4100 2886 4159 
Q 2644 4219 2406 4219 
Q 1781 4219 1451 3797 
Q 1122 3375 1075 2522 
Q 1259 2794 1537 2939 
Q 1816 3084 2150 3084 
Q 2853 3084 3261 2657 
Q 3669 2231 3669 1497 
Q 3669 778 3244 343 
Q 2819 -91 2113 -91 
Q 1303 -91 875 529 
Q 447 1150 447 2328 
Q 447 3434 972 4092 
Q 1497 4750 2381 4750 
Q 2619 4750 2861 4703 
Q 3103 4656 3366 4563 
z
" transform="scale(0.015625)"/>
       </defs>
       <use xlink:href="#DejaVuSans-2212"/>
       <use xlink:href="#DejaVuSans-30" x="83.789062"/>
       <use xlink:href="#DejaVuSans-2e" x="147.412109"/>
       <use xlink:href="#DejaVuSans-36" x="179.199219"/>
      </g>
     </g>
    </g>
    <g id="ytick_2">
     <g id="line2d_9">
      <g>
       <use xlink:href="#mfb0e793b28" x="69.141406" y="194.098828" style="stroke: #000000; stroke-width: 0.8"/>
      </g>
     </g>
     <g id="text_10">
      <!-- −0.4 -->
      <g transform="translate(25.717188 199.797656) scale(0.15 -0.15)">
       <defs>
        <path id="DejaVuSans-34" d="M 2419 4116 
L 825 1625 
L 2419 1625 
L 2419 4116 
z
M 2253 4666 
L 3047 4666 
L 3047 1625 
L 3713 1625 
L 3713 1100 
L 3047 1100 
L 3047 0 
L 2419 0 
L 2419 1100 
L 313 1100 
L 313 1709 
L 2253 4666 
z
" transform="scale(0.015625)"/>
       </defs>
       <use xlink:href="#DejaVuSans-2212"/>
       <use xlink:href="#DejaVuSans-30" x="83.789062"/>
       <use xlink:href="#DejaVuSans-2e" x="147.412109"/>
       <use xlink:href="#DejaVuSans-34" x="179.199219"/>
      </g>
     </g>
    </g>
    <g id="ytick_3">
     <g id="line2d_10">
      <g>
       <use xlink:href="#mfb0e793b28" x="69.141406" y="157.858828" style="stroke: #000000; stroke-width: 0.8"/>
      </g>
     </g>
     <g id="text_11">
      <!-- −0.2 -->
      <g transform="translate(25.717188 163.557656) scale(0.15 -0.15)">
       <use xlink:href="#DejaVuSans-2212"/>
       <use xlink:href="#DejaVuSans-30" x="83.789062"/>
       <use xlink:href="#DejaVuSans-2e" x="147.412109"/>
       <use xlink:href="#DejaVuSans-32" x="179.199219"/>
      </g>
     </g>
    </g>
    <g id="ytick_4">
     <g id="line2d_11">
      <g>
       <use xlink:href="#mfb0e793b28" x="69.141406" y="121.618828" style="stroke: #000000; stroke-width: 0.8"/>
      </g>
     </g>
     <g id="text_12">
      <!-- 0.0 -->
      <g transform="translate(38.286719 127.317656) scale(0.15 -0.15)">
       <use xlink:href="#DejaVuSans-30"/>
       <use xlink:href="#DejaVuSans-2e" x="63.623047"/>
       <use xlink:href="#DejaVuSans-30" x="95.410156"/>
      </g>
     </g>
    </g>
    <g id="ytick_5">
     <g id="line2d_12">
      <g>
       <use xlink:href="#mfb0e793b28" x="69.141406" y="85.378828" style="stroke: #000000; stroke-width: 0.8"/>
      </g>
     </g>
     <g id="text_13">
      <!-- 0.2 -->
      <g transform="translate(38.286719 91.077656) scale(0.15 -0.15)">
       <use xlink:href="#DejaVuSans-30"/>
       <use xlink:href="#DejaVuSans-2e" x="63.623047"/>
       <use xlink:href="#DejaVuSans-32" x="95.410156"/>
      </g>
     </g>
    </g>
    <g id="ytick_6">
     <g id="line2d_13">
      <g>
       <use xlink:href="#mfb0e793b28" x="69.141406" y="49.138828" style="stroke: #000000; stroke-width: 0.8"/>
      </g>
     </g>
     <g id="text_14">
      <!-- 0.4 -->
      <g transform="translate(38.286719 54.837656) scale(0.15 -0.15)">
       <use xlink:href="#DejaVuSans-30"/>
       <use xlink:href="#DejaVuSans-2e" x="63.623047"/>
       <use xlink:href="#DejaVuSans-34" x="95.410156"/>
      </g>
     </g>
    </g>
    <g id="ytick_7">
     <g id="line2d_14">
      <g>
       <use xlink:href="#mfb0e793b28" x="69.141406" y="12.898828" style="stroke: #000000; stroke-width: 0.8"/>
      </g>
     </g>
     <g id="text_15">
      <!-- 0.6 -->
      <g transform="translate(38.286719 18.597656) scale(0.15 -0.15)">
       <use xlink:href="#DejaVuSans-30"/>
       <use xlink:href="#DejaVuSans-2e" x="63.623047"/>
       <use xlink:href="#DejaVuSans-36" x="95.410156"/>
      </g>
     </g>
    </g>
    <g id="text_16">
     <!-- $\rho_{21}$ -->
     <g transform="translate(18.567188 133.318828) rotate(-90) scale(0.15 -0.15)">
      <defs>
       <path id="DejaVuSans-Oblique-3c1" d="M 1203 2875 
Q 1453 3194 1981 3475 
Q 2188 3584 2756 3584 
Q 3394 3584 3694 3078 
Q 3994 2572 3834 1747 
Q 3672 922 3175 415 
Q 2678 -91 2041 -91 
Q 1656 -91 1409 63 
Q 1163 213 1044 525 
L 681 -1331 
L 103 -1331 
L 697 1716 
Q 838 2438 1203 2875 
z
M 3238 1747 
Q 3359 2381 3169 2744 
Q 2978 3103 2522 3103 
Q 2066 3103 1734 2744 
Q 1403 2381 1281 1747 
Q 1156 1113 1347 750 
Q 1538 391 1994 391 
Q 2450 391 2781 750 
Q 3113 1113 3238 1747 
z
" transform="scale(0.015625)"/>
      </defs>
      <use xlink:href="#DejaVuSans-Oblique-3c1"/>
      <use xlink:href="#DejaVuSans-32" transform="translate(63.476562 -16.40625) scale(0.7)"/>
      <use xlink:href="#DejaVuSans-31" transform="translate(108.012695 -16.40625) scale(0.7)"/>
     </g>
    </g>
   </g>
   <g id="line2d_15">
    <path d="M 69.141406 31.018828 
L 70.823818 31.120419 
L 72.50623 31.424962 
L 74.188642 31.931776 
L 75.871054 32.639724 
L 77.553467 33.547217 
L 79.235879 34.652222 
L 80.918291 35.952259 
L 82.600703 37.444413 
L 84.283115 39.125338 
L 85.965527 40.991264 
L 87.647939 43.038007 
L 91.012763 47.655188 
L 94.377587 52.935485 
L 97.742411 58.831557 
L 101.107235 65.290545 
L 104.47206 72.254541 
L 107.836884 79.661109 
L 112.88412 91.454588 
L 117.931356 103.855978 
L 128.025828 129.475558 
L 134.755477 146.331761 
L 139.802713 158.425608 
L 143.167537 166.090555 
L 146.532361 173.356792 
L 149.897185 180.159177 
L 153.262009 186.436722 
L 156.626833 192.133146 
L 159.991658 197.197379 
L 163.356482 201.584017 
L 165.038894 203.5107 
L 166.721306 205.253732 
L 168.403718 206.809203 
L 170.08613 208.173624 
L 171.768542 209.343937 
L 173.450954 210.317515 
L 175.133366 211.092177 
L 176.815778 211.666184 
L 178.49819 212.038249 
L 180.180602 212.207538 
L 181.863014 212.173672 
L 183.545426 211.936726 
L 185.227838 211.497232 
L 186.91025 210.856174 
L 188.592663 210.014992 
L 190.275075 208.975571 
L 191.957487 207.740243 
L 193.639899 206.311777 
L 195.322311 204.693377 
L 197.004723 202.888673 
L 198.687135 200.901712 
L 202.051959 196.399242 
L 205.416783 191.226333 
L 208.781607 185.429362 
L 212.146431 179.060302 
L 215.511255 172.176254 
L 218.87608 164.838937 
L 223.923316 153.127946 
L 228.970552 140.781941 
L 237.382612 119.473589 
L 245.794673 98.284973 
L 250.841909 86.123524 
L 255.889145 74.677425 
L 259.253969 67.55876 
L 262.618793 60.924768 
L 265.983617 54.834924 
L 269.348441 49.343826 
L 272.713266 44.500706 
L 276.07809 40.348983 
L 277.760502 38.544279 
L 279.442914 36.925879 
L 281.125326 35.497414 
L 282.807738 34.262085 
L 284.49015 33.222664 
L 286.172562 32.381482 
L 287.854974 31.740425 
L 289.537386 31.30093 
L 291.219798 31.063984 
L 292.90221 31.030118 
L 294.584622 31.199407 
L 296.267034 31.571473 
L 297.949446 32.14548 
L 299.631859 32.920141 
L 301.314271 33.89372 
L 302.996683 35.064032 
L 304.679095 36.428453 
L 306.361507 37.983924 
L 308.043919 39.726956 
L 309.726331 41.65364 
L 313.091155 46.040278 
L 316.455979 51.10451 
L 319.820803 56.800935 
L 323.185627 63.078479 
L 326.550451 69.880864 
L 329.915276 77.147102 
L 334.962512 88.772685 
L 340.009748 101.060229 
L 348.421808 122.333967 
L 356.833869 143.567791 
L 361.881105 155.793811 
L 366.928341 167.331089 
L 370.293165 174.524437 
L 373.657989 181.243463 
L 377.022813 187.427928 
L 380.387637 193.022385 
L 383.752462 197.976679 
L 387.117286 202.246392 
L 388.799698 204.112318 
L 390.48211 205.793244 
L 392.164522 207.285398 
L 393.846934 208.585435 
L 395.529346 209.690439 
L 397.211758 210.597933 
L 398.89417 211.30588 
L 400.576582 211.812694 
L 402.258994 212.117238 
L 403.941406 212.218828 
L 403.941406 212.218828 
" clip-path="url(#p757b5f60b8)" style="fill: none; stroke: #ff00ff; stroke-width: 1.5; stroke-linecap: square"/>
   </g>
   <g id="line2d_16">
    <path d="M 69.141406 31.018828 
L 70.823818 31.120063 
L 72.50623 31.422128 
L 74.188642 31.922246 
L 75.871054 32.617229 
L 77.553467 33.503485 
L 79.235879 34.577035 
L 80.918291 35.833524 
L 82.600703 37.268232 
L 84.283115 38.876094 
L 85.965527 40.65171 
L 89.330351 44.683032 
L 92.695175 49.312938 
L 96.059999 54.487886 
L 99.424823 60.150612 
L 102.789647 66.240717 
L 106.154472 72.69527 
L 111.201708 82.918197 
L 117.931356 97.209768 
L 131.390652 126.070149 
L 136.437889 136.333116 
L 141.485125 145.985194 
L 144.849949 151.994515 
L 148.214773 157.609182 
L 151.579597 162.787602 
L 154.944421 167.492922 
L 158.309245 171.69325 
L 161.67407 175.361842 
L 165.038894 178.477227 
L 166.721306 179.822219 
L 168.403718 181.023287 
L 170.08613 182.079258 
L 171.768542 182.989295 
L 173.450954 183.752895 
L 175.133366 184.369889 
L 176.815778 184.840435 
L 178.49819 185.165017 
L 180.180602 185.344437 
L 181.863014 185.379817 
L 183.545426 185.272584 
L 185.227838 185.024472 
L 186.91025 184.637509 
L 188.592663 184.114011 
L 190.275075 183.456576 
L 191.957487 182.668073 
L 195.322311 180.710641 
L 198.687135 178.269733 
L 202.051959 175.377075 
L 205.416783 172.06774 
L 208.781607 168.379767 
L 212.146431 164.353761 
L 215.511255 160.03248 
L 220.558492 153.094602 
L 225.605728 145.747924 
L 234.017788 133.025496 
L 242.429848 120.335056 
L 247.477085 113.025223 
L 252.524321 106.113069 
L 255.889145 101.788077 
L 259.253969 97.729104 
L 262.618793 93.96662 
L 265.983617 90.527829 
L 269.348441 87.436496 
L 272.713266 84.71281 
L 276.07809 82.373276 
L 279.442914 80.430649 
L 282.807738 78.893897 
L 286.172562 77.768198 
L 289.537386 77.054977 
L 292.90221 76.751971 
L 296.267034 76.853323 
L 299.631859 77.349712 
L 302.996683 78.228506 
L 306.361507 79.473942 
L 309.726331 81.067335 
L 313.091155 82.987302 
L 316.455979 85.210005 
L 319.820803 87.709421 
L 323.185627 90.457611 
L 326.550451 93.425013 
L 331.597688 98.219272 
L 336.644924 103.328735 
L 345.056984 112.242708 
L 355.151457 122.96537 
L 360.198693 128.090113 
L 365.245929 132.927195 
L 370.293165 137.389596 
L 373.657989 140.117952 
L 377.022813 142.62536 
L 380.387637 144.894176 
L 383.752462 146.909241 
L 387.117286 148.657964 
L 390.48211 150.130379 
L 393.846934 151.319177 
L 397.211758 152.219721 
L 400.576582 152.830023 
L 403.941406 153.150716 
L 403.941406 153.150716 
" clip-path="url(#p757b5f60b8)" style="fill: none; stroke: #e600e6; stroke-width: 1.5; stroke-linecap: square"/>
   </g>
   <g id="line2d_17">
    <path d="M 69.141406 31.018828 
L 70.823818 31.11971 
L 72.50623 31.419323 
L 74.188642 31.912865 
L 75.871054 32.595201 
L 77.553467 33.460883 
L 79.235879 34.504172 
L 80.918291 35.719052 
L 82.600703 37.099255 
L 84.283115 38.638273 
L 87.647939 42.165665 
L 91.012763 46.245189 
L 94.377587 50.818266 
L 97.742411 55.824402 
L 101.107235 61.201795 
L 106.154472 69.827185 
L 111.201708 78.936248 
L 122.978592 100.920198 
L 129.70824 113.211876 
L 134.755477 121.988276 
L 139.802713 130.220387 
L 143.167537 135.342282 
L 146.532361 140.132546 
L 149.897185 144.562796 
L 153.262009 148.608977 
L 156.626833 152.251401 
L 159.991658 155.474733 
L 163.356482 158.267953 
L 166.721306 160.624268 
L 170.08613 162.541003 
L 173.450954 164.019452 
L 176.815778 165.064703 
L 180.180602 165.685438 
L 183.545426 165.893708 
L 186.91025 165.704687 
L 190.275075 165.136414 
L 193.639899 164.209512 
L 197.004723 162.946903 
L 200.369547 161.373512 
L 203.734371 159.515963 
L 207.099195 157.402278 
L 210.464019 155.061574 
L 215.511255 151.190427 
L 220.558492 146.978633 
L 227.28814 141.011016 
L 245.794673 124.322 
L 250.841909 120.111305 
L 255.889145 116.187726 
L 260.936381 112.610322 
L 264.301205 110.442185 
L 267.666029 108.461551 
L 271.030853 106.678081 
L 274.395678 105.099303 
L 277.760502 103.73064 
L 281.125326 102.575446 
L 284.49015 101.635063 
L 287.854974 100.908891 
L 291.219798 100.394474 
L 294.584622 100.087601 
L 297.949446 99.982407 
L 301.314271 100.071504 
L 304.679095 100.346099 
L 308.043919 100.796135 
L 311.408743 101.410428 
L 316.455979 102.613007 
L 321.503215 104.113182 
L 326.550451 105.863443 
L 333.2801 108.500467 
L 341.69216 112.116466 
L 361.881105 120.97344 
L 368.610753 123.629523 
L 375.340401 126.002129 
L 380.387637 127.559726 
L 385.434874 128.905979 
L 390.48211 130.027528 
L 395.529346 130.91622 
L 400.576582 131.568948 
L 403.941406 131.873656 
L 403.941406 131.873656 
" clip-path="url(#p757b5f60b8)" style="fill: none; stroke: #cc00cc; stroke-width: 1.5; stroke-linecap: square"/>
   </g>
   <g id="line2d_18">
    <path d="M 69.141406 31.018828 
L 70.823818 31.119358 
L 72.50623 31.416548 
L 74.188642 31.90363 
L 75.871054 32.573627 
L 77.553467 33.419375 
L 79.235879 34.433544 
L 80.918291 35.608661 
L 82.600703 36.937129 
L 85.965527 40.02324 
L 89.330351 43.629418 
L 92.695175 47.692505 
L 96.059999 52.14924 
L 99.424823 56.936812 
L 104.47206 64.603596 
L 111.201708 75.420057 
L 126.343416 100.131317 
L 131.390652 107.921082 
L 136.437889 115.270242 
L 139.802713 119.873975 
L 143.167537 124.211141 
L 146.532361 128.260372 
L 149.897185 132.004107 
L 153.262009 135.428513 
L 156.626833 138.523381 
L 159.991658 141.281988 
L 163.356482 143.700943 
L 166.721306 145.780016 
L 170.08613 147.521942 
L 173.450954 148.932218 
L 176.815778 150.018887 
L 180.180602 150.792312 
L 183.545426 151.26494 
L 186.91025 151.451074 
L 190.275075 151.366628 
L 193.639899 151.028895 
L 197.004723 150.456307 
L 200.369547 149.668212 
L 203.734371 148.684646 
L 207.099195 147.526115 
L 212.146431 145.505723 
L 217.193668 143.208617 
L 223.923316 139.834624 
L 234.017788 134.422219 
L 245.794673 128.135081 
L 252.524321 124.78415 
L 259.253969 121.724392 
L 264.301205 119.662509 
L 269.348441 117.824583 
L 274.395678 116.225715 
L 279.442914 114.875042 
L 284.49015 113.776107 
L 289.537386 112.927288 
L 294.584622 112.322305 
L 299.631859 111.950753 
L 304.679095 111.79868 
L 309.726331 111.849176 
L 314.773567 112.082963 
L 321.503215 112.643212 
L 328.232864 113.438697 
L 336.644924 114.680612 
L 348.421808 116.693919 
L 370.293165 120.481409 
L 380.387637 121.964676 
L 388.799698 122.987947 
L 397.211758 123.791092 
L 403.941406 124.268393 
L 403.941406 124.268393 
" clip-path="url(#p757b5f60b8)" style="fill: none; stroke: #b200b2; stroke-width: 1.5; stroke-linecap: square"/>
   </g>
   <g id="line2d_19">
    <path d="M 69.141406 31.018828 
L 70.823818 31.119008 
L 72.50623 31.413802 
L 74.188642 31.894539 
L 75.871054 32.552498 
L 77.553467 33.378929 
L 79.235879 34.365071 
L 80.918291 35.502175 
L 84.283115 38.194434 
L 87.647939 41.386608 
L 91.012763 45.010882 
L 94.377587 49.001201 
L 97.742411 53.293697 
L 102.789647 60.165689 
L 109.519296 69.83863 
L 122.978592 89.44546 
L 128.025828 96.461198 
L 133.073065 103.120853 
L 138.120301 109.340588 
L 141.485125 113.209575 
L 144.849949 116.838448 
L 148.214773 120.215395 
L 151.579597 123.331722 
L 154.944421 126.181678 
L 158.309245 128.762269 
L 161.67407 131.073055 
L 165.038894 133.115955 
L 168.403718 134.895035 
L 171.768542 136.416301 
L 175.133366 137.687491 
L 178.49819 138.717869 
L 181.863014 139.51802 
L 185.227838 140.099655 
L 188.592663 140.475418 
L 191.957487 140.658702 
L 195.322311 140.663474 
L 198.687135 140.504107 
L 203.734371 139.989321 
L 208.781607 139.18781 
L 213.828843 138.148766 
L 220.558492 136.476302 
L 228.970552 134.073929 
L 257.571557 125.533175 
L 265.983617 123.407523 
L 272.713266 121.930803 
L 279.442914 120.67267 
L 286.172562 119.640679 
L 292.90221 118.833767 
L 299.631859 118.243624 
L 306.361507 117.856089 
L 314.773567 117.627875 
L 323.185627 117.64385 
L 333.2801 117.918858 
L 345.056984 118.487947 
L 365.245929 119.753011 
L 387.117286 121.066599 
L 402.258994 121.753079 
L 403.941406 121.814975 
L 403.941406 121.814975 
" clip-path="url(#p757b5f60b8)" style="fill: none; stroke: #990099; stroke-width: 1.5; stroke-linecap: square"/>
   </g>
   <g id="line2d_20">
    <path d="M 69.141406 31.018828 
L 70.823818 31.11866 
L 72.50623 31.411084 
L 74.188642 31.885587 
L 75.871054 32.531801 
L 77.553467 33.339511 
L 79.235879 34.298673 
L 82.600703 36.632115 
L 85.965527 39.45567 
L 89.330351 42.696351 
L 92.695175 46.28491 
L 96.059999 50.156058 
L 101.107235 56.359972 
L 107.836884 65.085582 
L 121.29618 82.721621 
L 126.343416 89.024665 
L 131.390652 95.01488 
L 136.437889 100.626274 
L 141.485125 105.809556 
L 144.849949 109.009815 
L 148.214773 111.997677 
L 151.579597 114.768935 
L 154.944421 117.321644 
L 158.309245 119.655913 
L 161.67407 121.7737 
L 165.038894 123.678609 
L 168.403718 125.375695 
L 171.768542 126.871277 
L 175.133366 128.172758 
L 178.49819 129.288452 
L 181.863014 130.227426 
L 185.227838 130.999341 
L 190.275075 131.86621 
L 195.322311 132.41544 
L 200.369547 132.683179 
L 205.416783 132.705544 
L 210.464019 132.517952 
L 217.193668 132.000031 
L 223.923316 131.245454 
L 232.335376 130.074232 
L 247.477085 127.669614 
L 262.618793 125.30959 
L 272.713266 123.926398 
L 282.807738 122.758991 
L 292.90221 121.829238 
L 302.996683 121.136744 
L 313.091155 120.6649 
L 324.868039 120.35652 
L 338.327336 120.257986 
L 355.151457 120.394767 
L 383.752462 120.917909 
L 403.941406 121.288314 
L 403.941406 121.288314 
" clip-path="url(#p757b5f60b8)" style="fill: none; stroke: #800080; stroke-width: 1.5; stroke-linecap: square"/>
   </g>
   <g id="line2d_21">
    <path d="M 69.141406 31.018828 
L 70.823818 31.118314 
L 72.50623 31.408394 
L 74.188642 31.876774 
L 75.871054 32.511527 
L 77.553467 33.30109 
L 79.235879 34.234274 
L 82.600703 36.488613 
L 85.965527 39.192485 
L 89.330351 42.269782 
L 92.695175 45.65028 
L 97.742411 51.150103 
L 104.47206 58.989684 
L 121.29618 78.945673 
L 126.343416 84.585613 
L 131.390652 89.932124 
L 136.437889 94.937686 
L 141.485125 99.56924 
L 146.532361 103.8063 
L 151.579597 107.639158 
L 156.626833 111.0672 
L 161.67407 114.097354 
L 166.721306 116.742655 
L 171.768542 119.020954 
L 176.815778 120.953759 
L 181.863014 122.565212 
L 186.91025 123.881185 
L 191.957487 124.928512 
L 197.004723 125.734327 
L 202.051959 126.325516 
L 207.099195 126.728266 
L 213.828843 127.015377 
L 220.558492 127.067761 
L 228.970552 126.879933 
L 239.065024 126.395952 
L 254.206733 125.389153 
L 284.49015 123.322879 
L 299.631859 122.534405 
L 314.773567 121.962764 
L 331.597688 121.561715 
L 350.10422 121.345918 
L 375.340401 121.295822 
L 403.941406 121.391852 
L 403.941406 121.391852 
" clip-path="url(#p757b5f60b8)" style="fill: none; stroke: #660066; stroke-width: 1.5; stroke-linecap: square"/>
   </g>
   <g id="line2d_22">
    <path d="M 69.141406 31.018828 
L 70.823818 31.117969 
L 72.50623 31.405732 
L 74.188642 31.868097 
L 75.871054 32.491664 
L 77.553467 33.263636 
L 80.918291 35.204529 
L 84.283115 37.599881 
L 87.647939 40.367463 
L 91.012763 43.433205 
L 96.059999 48.447581 
L 102.789647 55.615931 
L 119.613768 73.880903 
L 126.343416 80.722257 
L 131.390652 85.543895 
L 136.437889 90.061713 
L 141.485125 94.25427 
L 146.532361 98.110254 
L 151.579597 101.626684 
L 156.626833 104.807309 
L 161.67407 107.661208 
L 166.721306 110.201566 
L 171.768542 112.444623 
L 176.815778 114.408775 
L 181.863014 116.113811 
L 186.91025 117.580285 
L 191.957487 118.828986 
L 197.004723 119.880518 
L 203.734371 121.010461 
L 210.464019 121.870855 
L 217.193668 122.503834 
L 225.605728 123.033424 
L 234.017788 123.333784 
L 244.112261 123.470671 
L 257.571557 123.401623 
L 277.760502 123.028931 
L 324.868039 122.089052 
L 353.469044 121.773393 
L 390.48211 121.608416 
L 403.941406 121.589084 
L 403.941406 121.589084 
" clip-path="url(#p757b5f60b8)" style="fill: none; stroke: #4d004d; stroke-width: 1.5; stroke-linecap: square"/>
   </g>
   <g id="line2d_23">
    <path d="M 69.141406 31.018828 
L 70.823818 31.117627 
L 72.50623 31.403097 
L 74.188642 31.859552 
L 75.871054 32.472203 
L 77.553467 33.227118 
L 80.918291 35.112081 
L 84.283115 37.4187 
L 87.647939 40.062597 
L 91.012763 42.969684 
L 96.059999 47.68442 
L 102.789647 54.355474 
L 116.248944 67.859623 
L 122.978592 74.274996 
L 128.025828 78.831024 
L 133.073065 83.132115 
L 138.120301 87.158574 
L 143.167537 90.899993 
L 148.214773 94.353364 
L 153.262009 97.52148 
L 158.309245 100.411592 
L 163.356482 103.034282 
L 168.403718 105.402534 
L 173.450954 107.530964 
L 178.49819 109.435197 
L 183.545426 111.131364 
L 188.592663 112.6357 
L 195.322311 114.370719 
L 202.051959 115.82982 
L 208.781607 117.047573 
L 215.511255 118.055995 
L 223.923316 119.06639 
L 232.335376 119.845891 
L 242.429848 120.537752 
L 254.206733 121.08792 
L 267.666029 121.47394 
L 284.49015 121.719362 
L 308.043919 121.820999 
L 356.833869 121.746643 
L 403.941406 121.664157 
L 403.941406 121.664157 
" clip-path="url(#p757b5f60b8)" style="fill: none; stroke: #330033; stroke-width: 1.5; stroke-linecap: square"/>
   </g>
   <g id="line2d_24">
    <path d="M 69.141406 31.018828 
L 70.823818 31.117286 
L 72.50623 31.40049 
L 74.188642 31.851138 
L 75.871054 32.453133 
L 77.553467 33.19151 
L 80.918291 35.022783 
L 84.283115 37.245279 
L 87.647939 39.773329 
L 92.695175 43.980782 
L 97.742411 48.509495 
L 121.29618 70.109941 
L 128.025828 75.728126 
L 133.073065 79.67789 
L 138.120301 83.386422 
L 143.167537 86.848333 
L 148.214773 90.063896 
L 153.262009 93.037634 
L 158.309245 95.777198 
L 163.356482 98.292451 
L 168.403718 100.594753 
L 173.450954 102.69639 
L 178.49819 104.610129 
L 185.227838 106.891786 
L 191.957487 108.892491 
L 198.687135 110.64126 
L 205.416783 112.165464 
L 212.146431 113.490528 
L 220.558492 114.902169 
L 228.970552 116.079889 
L 239.065024 117.234567 
L 249.159497 118.156912 
L 260.936381 118.997986 
L 274.395678 119.718299 
L 289.537386 120.299827 
L 308.043919 120.778762 
L 331.597688 121.148808 
L 363.563517 121.407201 
L 403.941406 121.542609 
L 403.941406 121.542609 
" clip-path="url(#p757b5f60b8)" style="fill: none; stroke: #190019; stroke-width: 1.5; stroke-linecap: square"/>
   </g>
   <g id="line2d_25">
    <path d="M 69.141406 31.018828 
L 72.50623 39.206682 
L 75.871054 46.65457 
L 79.235879 53.429365 
L 82.600703 59.591897 
L 85.965527 65.197498 
L 89.330351 70.296501 
L 92.695175 74.934687 
L 96.059999 79.153704 
L 99.424823 82.991433 
L 102.789647 86.482333 
L 106.154472 89.657747 
L 109.519296 92.546187 
L 112.88412 95.173588 
L 116.248944 97.563541 
L 119.613768 99.737506 
L 122.978592 101.715001 
L 128.025828 104.351262 
L 133.073065 106.63835 
L 138.120301 108.622514 
L 143.167537 110.343875 
L 148.214773 111.837242 
L 153.262009 113.132813 
L 159.991658 114.597329 
L 166.721306 115.809099 
L 173.450954 116.811741 
L 181.863014 117.825333 
L 190.275075 118.625205 
L 200.369547 119.365699 
L 212.146431 120.001468 
L 225.605728 120.511545 
L 242.429848 120.929265 
L 264.301205 121.246279 
L 296.267034 121.467339 
L 350.10422 121.585548 
L 403.941406 121.611517 
L 403.941406 121.611517 
" clip-path="url(#p757b5f60b8)" style="fill: none; stroke-dasharray: 5.55,2.4; stroke-dashoffset: 0; stroke: #bfbf00; stroke-width: 1.5"/>
   </g>
   <g id="patch_3">
    <path d="M 69.141406 230.338828 
L 69.141406 12.898828 
" style="fill: none; stroke: #000000; stroke-width: 0.8; stroke-linejoin: miter; stroke-linecap: square"/>
   </g>
   <g id="patch_4">
    <path d="M 403.941406 230.338828 
L 403.941406 12.898828 
" style="fill: none; stroke: #000000; stroke-width: 0.8; stroke-linejoin: miter; stroke-linecap: square"/>
   </g>
   <g id="patch_5">
    <path d="M 69.141406 230.338828 
L 403.941406 230.338828 
" style="fill: none; stroke: #000000; stroke-width: 0.8; stroke-linejoin: miter; stroke-linecap: square"/>
   </g>
   <g id="patch_6">
    <path d="M 69.141406 12.898828 
L 403.941406 12.898828 
" style="fill: none; stroke: #000000; stroke-width: 0.8; stroke-linejoin: miter; stroke-linecap: square"/>
   </g>
  </g>
  <g id="axes_2">
   <g id="patch_7">
    <path d="M 295.941406 194.338828 
L 360.741406 194.338828 
L 360.741406 151.138828 
L 295.941406 151.138828 
z
" style="fill: #ffffff"/>
   </g>
   <g id="matplotlib.axis_3">
    <g id="xtick_8">
     <g id="line2d_26">
      <g>
       <use xlink:href="#m40329913df" x="298.886861" y="194.338828" style="stroke: #000000; stroke-width: 0.8"/>
      </g>
     </g>
     <g id="text_17">
      <!-- 0 -->
      <g transform="translate(294.114986 212.736484) scale(0.15 -0.15)">
       <use xlink:href="#DejaVuSans-30"/>
      </g>
     </g>
    </g>
    <g id="xtick_9">
     <g id="line2d_27">
      <g>
       <use xlink:href="#m40329913df" x="357.795952" y="194.338828" style="stroke: #000000; stroke-width: 0.8"/>
      </g>
     </g>
     <g id="text_18">
      <!-- 1 -->
      <g transform="translate(353.024077 212.736484) scale(0.15 -0.15)">
       <use xlink:href="#DejaVuSans-31"/>
      </g>
     </g>
    </g>
    <g id="text_19">
     <!-- $\frac{\eta}{4\sqrt{2}\gamma}$ -->
     <g transform="translate(313.116406 215.556016) scale(0.15 -0.15)">
      <defs>
       <path id="DejaVuSans-Oblique-3b7" d="M 3703 2113 
L 3034 -1331 
L 2459 -1331 
L 3125 2094 
Q 3222 2591 3075 2838 
Q 2931 3084 2544 3084 
Q 2078 3084 1750 2788 
Q 1425 2491 1325 1978 
L 941 0 
L 363 0 
L 1044 3500 
L 1622 3500 
L 1516 2956 
Q 1781 3272 2094 3428 
Q 2403 3584 2769 3584 
Q 3372 3584 3609 3213 
Q 3844 2838 3703 2113 
z
" transform="scale(0.015625)"/>
      </defs>
      <use xlink:href="#DejaVuSans-Oblique-3b7" transform="translate(73 58.8) scale(0.7)"/>
      <use xlink:href="#DejaVuSans-34" transform="translate(0 -64.904687) scale(0.7)"/>
      <use xlink:href="#STIXSizeOneSym-Regular-221a" transform="translate(44.536133 -53.135938) scale(0.399712)"/>
      <use xlink:href="#DejaVuSans-32" transform="translate(95.552916 -65.335938) scale(0.7)"/>
      <use xlink:href="#DejaVuSans-Oblique-3b3" transform="translate(148.839049 -64.904687) scale(0.7)"/>
      <path d="M 0 19.242188 
L 0 25.492188 
L 190.26483 25.492188 
L 190.26483 19.242188 
L 0 19.242188 
z
"/>
      <path d="M 86.802916 4.242188 
L 86.802916 8.617188 
L 148.839049 8.617188 
L 148.839049 4.242188 
L 86.802916 4.242188 
z
"/>
     </g>
    </g>
   </g>
   <g id="matplotlib.axis_4">
    <g id="ytick_8">
     <g id="line2d_28">
      <g>
       <use xlink:href="#mfb0e793b28" x="295.941406" y="192.375192" style="stroke: #000000; stroke-width: 0.8"/>
      </g>
     </g>
     <g id="text_20">
      <!-- 0 -->
      <g transform="translate(279.397656 198.07402) scale(0.15 -0.15)">
       <use xlink:href="#DejaVuSans-30"/>
      </g>
     </g>
    </g>
    <g id="ytick_9">
     <g id="line2d_29">
      <g>
       <use xlink:href="#mfb0e793b28" x="295.941406" y="153.102464" style="stroke: #000000; stroke-width: 0.8"/>
      </g>
     </g>
     <g id="text_21">
      <!-- 1 -->
      <g transform="translate(279.397656 158.801293) scale(0.15 -0.15)">
       <use xlink:href="#DejaVuSans-31"/>
      </g>
     </g>
    </g>
    <g id="text_22">
     <!-- normalized  -->
     <g transform="translate(255.481406 216.797813) rotate(-90) scale(0.15 -0.15)">
      <defs>
       <path id="DejaVuSans-6e" d="M 3513 2113 
L 3513 0 
L 2938 0 
L 2938 2094 
Q 2938 2591 2744 2837 
Q 2550 3084 2163 3084 
Q 1697 3084 1428 2787 
Q 1159 2491 1159 1978 
L 1159 0 
L 581 0 
L 581 3500 
L 1159 3500 
L 1159 2956 
Q 1366 3272 1645 3428 
Q 1925 3584 2291 3584 
Q 2894 3584 3203 3211 
Q 3513 2838 3513 2113 
z
" transform="scale(0.015625)"/>
       <path id="DejaVuSans-6f" d="M 1959 3097 
Q 1497 3097 1228 2736 
Q 959 2375 959 1747 
Q 959 1119 1226 758 
Q 1494 397 1959 397 
Q 2419 397 2687 759 
Q 2956 1122 2956 1747 
Q 2956 2369 2687 2733 
Q 2419 3097 1959 3097 
z
M 1959 3584 
Q 2709 3584 3137 3096 
Q 3566 2609 3566 1747 
Q 3566 888 3137 398 
Q 2709 -91 1959 -91 
Q 1206 -91 779 398 
Q 353 888 353 1747 
Q 353 2609 779 3096 
Q 1206 3584 1959 3584 
z
" transform="scale(0.015625)"/>
       <path id="DejaVuSans-72" d="M 2631 2963 
Q 2534 3019 2420 3045 
Q 2306 3072 2169 3072 
Q 1681 3072 1420 2755 
Q 1159 2438 1159 1844 
L 1159 0 
L 581 0 
L 581 3500 
L 1159 3500 
L 1159 2956 
Q 1341 3275 1631 3429 
Q 1922 3584 2338 3584 
Q 2397 3584 2469 3576 
Q 2541 3569 2628 3553 
L 2631 2963 
z
" transform="scale(0.015625)"/>
       <path id="DejaVuSans-6d" d="M 3328 2828 
Q 3544 3216 3844 3400 
Q 4144 3584 4550 3584 
Q 5097 3584 5394 3201 
Q 5691 2819 5691 2113 
L 5691 0 
L 5113 0 
L 5113 2094 
Q 5113 2597 4934 2840 
Q 4756 3084 4391 3084 
Q 3944 3084 3684 2787 
Q 3425 2491 3425 1978 
L 3425 0 
L 2847 0 
L 2847 2094 
Q 2847 2600 2669 2842 
Q 2491 3084 2119 3084 
Q 1678 3084 1418 2786 
Q 1159 2488 1159 1978 
L 1159 0 
L 581 0 
L 581 3500 
L 1159 3500 
L 1159 2956 
Q 1356 3278 1631 3431 
Q 1906 3584 2284 3584 
Q 2666 3584 2933 3390 
Q 3200 3197 3328 2828 
z
" transform="scale(0.015625)"/>
       <path id="DejaVuSans-61" d="M 2194 1759 
Q 1497 1759 1228 1600 
Q 959 1441 959 1056 
Q 959 750 1161 570 
Q 1363 391 1709 391 
Q 2188 391 2477 730 
Q 2766 1069 2766 1631 
L 2766 1759 
L 2194 1759 
z
M 3341 1997 
L 3341 0 
L 2766 0 
L 2766 531 
Q 2569 213 2275 61 
Q 1981 -91 1556 -91 
Q 1019 -91 701 211 
Q 384 513 384 1019 
Q 384 1609 779 1909 
Q 1175 2209 1959 2209 
L 2766 2209 
L 2766 2266 
Q 2766 2663 2505 2880 
Q 2244 3097 1772 3097 
Q 1472 3097 1187 3025 
Q 903 2953 641 2809 
L 641 3341 
Q 956 3463 1253 3523 
Q 1550 3584 1831 3584 
Q 2591 3584 2966 3190 
Q 3341 2797 3341 1997 
z
" transform="scale(0.015625)"/>
       <path id="DejaVuSans-6c" d="M 603 4863 
L 1178 4863 
L 1178 0 
L 603 0 
L 603 4863 
z
" transform="scale(0.015625)"/>
       <path id="DejaVuSans-69" d="M 603 3500 
L 1178 3500 
L 1178 0 
L 603 0 
L 603 3500 
z
M 603 4863 
L 1178 4863 
L 1178 4134 
L 603 4134 
L 603 4863 
z
" transform="scale(0.015625)"/>
       <path id="DejaVuSans-7a" d="M 353 3500 
L 3084 3500 
L 3084 2975 
L 922 459 
L 3084 459 
L 3084 0 
L 275 0 
L 275 525 
L 2438 3041 
L 353 3041 
L 353 3500 
z
" transform="scale(0.015625)"/>
       <path id="DejaVuSans-65" d="M 3597 1894 
L 3597 1613 
L 953 1613 
Q 991 1019 1311 708 
Q 1631 397 2203 397 
Q 2534 397 2845 478 
Q 3156 559 3463 722 
L 3463 178 
Q 3153 47 2828 -22 
Q 2503 -91 2169 -91 
Q 1331 -91 842 396 
Q 353 884 353 1716 
Q 353 2575 817 3079 
Q 1281 3584 2069 3584 
Q 2775 3584 3186 3129 
Q 3597 2675 3597 1894 
z
M 3022 2063 
Q 3016 2534 2758 2815 
Q 2500 3097 2075 3097 
Q 1594 3097 1305 2825 
Q 1016 2553 972 2059 
L 3022 2063 
z
" transform="scale(0.015625)"/>
       <path id="DejaVuSans-64" d="M 2906 2969 
L 2906 4863 
L 3481 4863 
L 3481 0 
L 2906 0 
L 2906 525 
Q 2725 213 2448 61 
Q 2172 -91 1784 -91 
Q 1150 -91 751 415 
Q 353 922 353 1747 
Q 353 2572 751 3078 
Q 1150 3584 1784 3584 
Q 2172 3584 2448 3432 
Q 2725 3281 2906 2969 
z
M 947 1747 
Q 947 1113 1208 752 
Q 1469 391 1925 391 
Q 2381 391 2643 752 
Q 2906 1113 2906 1747 
Q 2906 2381 2643 2742 
Q 2381 3103 1925 3103 
Q 1469 3103 1208 2742 
Q 947 2381 947 1747 
z
" transform="scale(0.015625)"/>
       <path id="DejaVuSans-20" transform="scale(0.015625)"/>
      </defs>
      <use xlink:href="#DejaVuSans-6e"/>
      <use xlink:href="#DejaVuSans-6f" x="63.378906"/>
      <use xlink:href="#DejaVuSans-72" x="124.560547"/>
      <use xlink:href="#DejaVuSans-6d" x="163.923828"/>
      <use xlink:href="#DejaVuSans-61" x="261.335938"/>
      <use xlink:href="#DejaVuSans-6c" x="322.615234"/>
      <use xlink:href="#DejaVuSans-69" x="350.398438"/>
      <use xlink:href="#DejaVuSans-7a" x="378.181641"/>
      <use xlink:href="#DejaVuSans-65" x="430.671875"/>
      <use xlink:href="#DejaVuSans-64" x="492.195312"/>
      <use xlink:href="#DejaVuSans-20" x="555.671875"/>
     </g>
     <!--  frequency -->
     <g transform="translate(272.278125 212.737266) rotate(-90) scale(0.15 -0.15)">
      <defs>
       <path id="DejaVuSans-66" d="M 2375 4863 
L 2375 4384 
L 1825 4384 
Q 1516 4384 1395 4259 
Q 1275 4134 1275 3809 
L 1275 3500 
L 2222 3500 
L 2222 3053 
L 1275 3053 
L 1275 0 
L 697 0 
L 697 3053 
L 147 3053 
L 147 3500 
L 697 3500 
L 697 3744 
Q 697 4328 969 4595 
Q 1241 4863 1831 4863 
L 2375 4863 
z
" transform="scale(0.015625)"/>
       <path id="DejaVuSans-71" d="M 947 1747 
Q 947 1113 1208 752 
Q 1469 391 1925 391 
Q 2381 391 2643 752 
Q 2906 1113 2906 1747 
Q 2906 2381 2643 2742 
Q 2381 3103 1925 3103 
Q 1469 3103 1208 2742 
Q 947 2381 947 1747 
z
M 2906 525 
Q 2725 213 2448 61 
Q 2172 -91 1784 -91 
Q 1150 -91 751 415 
Q 353 922 353 1747 
Q 353 2572 751 3078 
Q 1150 3584 1784 3584 
Q 2172 3584 2448 3432 
Q 2725 3281 2906 2969 
L 2906 3500 
L 3481 3500 
L 3481 -1331 
L 2906 -1331 
L 2906 525 
z
" transform="scale(0.015625)"/>
       <path id="DejaVuSans-75" d="M 544 1381 
L 544 3500 
L 1119 3500 
L 1119 1403 
Q 1119 906 1312 657 
Q 1506 409 1894 409 
Q 2359 409 2629 706 
Q 2900 1003 2900 1516 
L 2900 3500 
L 3475 3500 
L 3475 0 
L 2900 0 
L 2900 538 
Q 2691 219 2414 64 
Q 2138 -91 1772 -91 
Q 1169 -91 856 284 
Q 544 659 544 1381 
z
M 1991 3584 
L 1991 3584 
z
" transform="scale(0.015625)"/>
       <path id="DejaVuSans-63" d="M 3122 3366 
L 3122 2828 
Q 2878 2963 2633 3030 
Q 2388 3097 2138 3097 
Q 1578 3097 1268 2742 
Q 959 2388 959 1747 
Q 959 1106 1268 751 
Q 1578 397 2138 397 
Q 2388 397 2633 464 
Q 2878 531 3122 666 
L 3122 134 
Q 2881 22 2623 -34 
Q 2366 -91 2075 -91 
Q 1284 -91 818 406 
Q 353 903 353 1747 
Q 353 2603 823 3093 
Q 1294 3584 2113 3584 
Q 2378 3584 2631 3529 
Q 2884 3475 3122 3366 
z
" transform="scale(0.015625)"/>
       <path id="DejaVuSans-79" d="M 2059 -325 
Q 1816 -950 1584 -1140 
Q 1353 -1331 966 -1331 
L 506 -1331 
L 506 -850 
L 844 -850 
Q 1081 -850 1212 -737 
Q 1344 -625 1503 -206 
L 1606 56 
L 191 3500 
L 800 3500 
L 1894 763 
L 2988 3500 
L 3597 3500 
L 2059 -325 
z
" transform="scale(0.015625)"/>
      </defs>
      <use xlink:href="#DejaVuSans-20"/>
      <use xlink:href="#DejaVuSans-66" x="31.787109"/>
      <use xlink:href="#DejaVuSans-72" x="66.992188"/>
      <use xlink:href="#DejaVuSans-65" x="105.855469"/>
      <use xlink:href="#DejaVuSans-71" x="167.378906"/>
      <use xlink:href="#DejaVuSans-75" x="230.855469"/>
      <use xlink:href="#DejaVuSans-65" x="294.234375"/>
      <use xlink:href="#DejaVuSans-6e" x="355.757812"/>
      <use xlink:href="#DejaVuSans-63" x="419.136719"/>
      <use xlink:href="#DejaVuSans-79" x="474.117188"/>
     </g>
    </g>
   </g>
   <g id="line2d_30">
    <defs>
     <path id="mca70938c38" d="M 0 -3 
L -0.673542 -0.927051 
L -2.85317 -0.927051 
L -1.089814 0.354102 
L -1.763356 2.427051 
L -0 1.145898 
L 1.763356 2.427051 
L 1.089814 0.354102 
L 2.85317 -0.927051 
L 0.673542 -0.927051 
z
" style="stroke: #ff00ff; stroke-linejoin: bevel"/>
    </defs>
    <g clip-path="url(#p11869aa44d)">
     <use xlink:href="#mca70938c38" x="298.886861" y="153.102464" style="fill: #ff00ff; stroke: #ff00ff; stroke-linejoin: bevel"/>
    </g>
   </g>
   <g id="line2d_31">
    <defs>
     <path id="m49105285c8" d="M 0 -3 
L -0.673542 -0.927051 
L -2.85317 -0.927051 
L -1.089814 0.354102 
L -1.763356 2.427051 
L -0 1.145898 
L 1.763356 2.427051 
L 1.089814 0.354102 
L 2.85317 -0.927051 
L 0.673542 -0.927051 
z
" style="stroke: #e600e6; stroke-linejoin: bevel"/>
    </defs>
    <g clip-path="url(#p11869aa44d)">
     <use xlink:href="#m49105285c8" x="305.432315" y="153.345642" style="fill: #e600e6; stroke: #e600e6; stroke-linejoin: bevel"/>
    </g>
   </g>
   <g id="line2d_32">
    <defs>
     <path id="m9744e5fac8" d="M 0 -3 
L -0.673542 -0.927051 
L -2.85317 -0.927051 
L -1.089814 0.354102 
L -1.763356 2.427051 
L -0 1.145898 
L 1.763356 2.427051 
L 1.089814 0.354102 
L 2.85317 -0.927051 
L 0.673542 -0.927051 
z
" style="stroke: #cc00cc; stroke-linejoin: bevel"/>
    </defs>
    <g clip-path="url(#p11869aa44d)">
     <use xlink:href="#m9744e5fac8" x="311.97777" y="154.084438" style="fill: #cc00cc; stroke: #cc00cc; stroke-linejoin: bevel"/>
    </g>
   </g>
   <g id="line2d_33">
    <defs>
     <path id="m467d1f2aa3" d="M 0 -3 
L -0.673542 -0.927051 
L -2.85317 -0.927051 
L -1.089814 0.354102 
L -1.763356 2.427051 
L -0 1.145898 
L 1.763356 2.427051 
L 1.089814 0.354102 
L 2.85317 -0.927051 
L 0.673542 -0.927051 
z
" style="stroke: #b200b2; stroke-linejoin: bevel"/>
    </defs>
    <g clip-path="url(#p11869aa44d)">
     <use xlink:href="#m467d1f2aa3" x="318.523224" y="155.348509" style="fill: #b200b2; stroke: #b200b2; stroke-linejoin: bevel"/>
    </g>
   </g>
   <g id="line2d_34">
    <defs>
     <path id="mf6554c1170" d="M 0 -3 
L -0.673542 -0.927051 
L -2.85317 -0.927051 
L -1.089814 0.354102 
L -1.763356 2.427051 
L -0 1.145898 
L 1.763356 2.427051 
L 1.089814 0.354102 
L 2.85317 -0.927051 
L 0.673542 -0.927051 
z
" style="stroke: #990099; stroke-linejoin: bevel"/>
    </defs>
    <g clip-path="url(#p11869aa44d)">
     <use xlink:href="#mf6554c1170" x="325.068679" y="157.194431" style="fill: #990099; stroke: #990099; stroke-linejoin: bevel"/>
    </g>
   </g>
   <g id="line2d_35">
    <defs>
     <path id="m0647655dfc" d="M 0 -3 
L -0.673542 -0.927051 
L -2.85317 -0.927051 
L -1.089814 0.354102 
L -1.763356 2.427051 
L -0 1.145898 
L 1.763356 2.427051 
L 1.089814 0.354102 
L 2.85317 -0.927051 
L 0.673542 -0.927051 
z
" style="stroke: #800080; stroke-linejoin: bevel"/>
    </defs>
    <g clip-path="url(#p11869aa44d)">
     <use xlink:href="#m0647655dfc" x="331.614134" y="159.720727" style="fill: #800080; stroke: #800080; stroke-linejoin: bevel"/>
    </g>
   </g>
   <g id="line2d_36">
    <defs>
     <path id="m3afd5a4db5" d="M 0 -3 
L -0.673542 -0.927051 
L -2.85317 -0.927051 
L -1.089814 0.354102 
L -1.763356 2.427051 
L -0 1.145898 
L 1.763356 2.427051 
L 1.089814 0.354102 
L 2.85317 -0.927051 
L 0.673542 -0.927051 
z
" style="stroke: #660066; stroke-linejoin: bevel"/>
    </defs>
    <g clip-path="url(#p11869aa44d)">
     <use xlink:href="#m3afd5a4db5" x="338.159588" y="163.103029" style="fill: #660066; stroke: #660066; stroke-linejoin: bevel"/>
    </g>
   </g>
   <g id="line2d_37">
    <defs>
     <path id="mb9b95f8a8d" d="M 0 -3 
L -0.673542 -0.927051 
L -2.85317 -0.927051 
L -1.089814 0.354102 
L -1.763356 2.427051 
L -0 1.145898 
L 1.763356 2.427051 
L 1.089814 0.354102 
L 2.85317 -0.927051 
L 0.673542 -0.927051 
z
" style="stroke: #4d004d; stroke-linejoin: bevel"/>
    </defs>
    <g clip-path="url(#p11869aa44d)">
     <use xlink:href="#mb9b95f8a8d" x="344.705043" y="167.690737" style="fill: #4d004d; stroke: #4d004d; stroke-linejoin: bevel"/>
    </g>
   </g>
   <g id="line2d_38">
    <defs>
     <path id="md35245d466" d="M 0 -3 
L -0.673542 -0.927051 
L -2.85317 -0.927051 
L -1.089814 0.354102 
L -1.763356 2.427051 
L -0 1.145898 
L 1.763356 2.427051 
L 1.089814 0.354102 
L 2.85317 -0.927051 
L 0.673542 -0.927051 
z
" style="stroke: #330033; stroke-linejoin: bevel"/>
    </defs>
    <g clip-path="url(#p11869aa44d)">
     <use xlink:href="#md35245d466" x="351.250497" y="174.383458" style="fill: #330033; stroke: #330033; stroke-linejoin: bevel"/>
    </g>
   </g>
   <g id="line2d_39">
    <defs>
     <path id="md6b2782325" d="M 0 -3 
L -0.673542 -0.927051 
L -2.85317 -0.927051 
L -1.089814 0.354102 
L -1.763356 2.427051 
L -0 1.145898 
L 1.763356 2.427051 
L 1.089814 0.354102 
L 2.85317 -0.927051 
L 0.673542 -0.927051 
z
" style="stroke: #190019; stroke-linejoin: bevel"/>
    </defs>
    <g clip-path="url(#p11869aa44d)">
     <use xlink:href="#md6b2782325" x="357.795952" y="192.375192" style="fill: #190019; stroke: #190019; stroke-linejoin: bevel"/>
    </g>
   </g>
   <g id="patch_8">
    <path d="M 295.941406 194.338828 
L 295.941406 151.138828 
" style="fill: none; stroke: #000000; stroke-width: 0.8; stroke-linejoin: miter; stroke-linecap: square"/>
   </g>
   <g id="patch_9">
    <path d="M 360.741406 194.338828 
L 360.741406 151.138828 
" style="fill: none; stroke: #000000; stroke-width: 0.8; stroke-linejoin: miter; stroke-linecap: square"/>
   </g>
   <g id="patch_10">
    <path d="M 295.941406 194.338828 
L 360.741406 194.338828 
" style="fill: none; stroke: #000000; stroke-width: 0.8; stroke-linejoin: miter; stroke-linecap: square"/>
   </g>
   <g id="patch_11">
    <path d="M 295.941406 151.138828 
L 360.741406 151.138828 
" style="fill: none; stroke: #000000; stroke-width: 0.8; stroke-linejoin: miter; stroke-linecap: square"/>
   </g>
  </g>
 </g>
 <defs>
  <clipPath id="p757b5f60b8">
   <rect x="69.141406" y="12.898828" width="334.8" height="217.44"/>
  </clipPath>
  <clipPath id="p11869aa44d">
   <rect x="295.941406" y="151.138828" width="64.8" height="43.2"/>
  </clipPath>
 </defs>
</svg>
