<?xml version="1.0" encoding="utf-8" standalone="no"?>
<!DOCTYPE svg PUBLIC "-//W3C//DTD SVG 1.1//EN"
  "http://www.w3.org/Graphics/SVG/1.1/DTD/svg11.dtd">
<svg xmlns:xlink="http://www.w3.org/1999/xlink" width="410.499219pt" height="287.806016pt" viewBox="0 0 410.499219 287.806016" xmlns="http://www.w3.org/2000/svg" version="1.1">
 <metadata>
  <rdf:RDF xmlns:dc="http://purl.org/dc/elements/1.1/" xmlns:cc="http://creativecommons.org/ns#" xmlns:rdf="http://www.w3.org/1999/02/22-rdf-syntax-ns#">
   <cc:Work>
    <dc:type rdf:resource="http://purl.org/dc/dcmitype/StillImage"/>
    <dc:date>2026-01-20T22:01:27.680875</dc:date>
    <dc:format>image/svg+xml</dc:format>
    <dc:creator>
     <cc:Agent>
      <dc:title>Matplotlib v3.6.3, https://matplotlib.org/</dc:title>
     </cc:Agent>
    </dc:creator>
   </cc:Work>
  </rdf:RDF>
 </metadata>
 <defs>
  <style type="text/css">*{stroke-linejoin: round; stroke-linecap: butt}</style>
 </defs>
 <g id="figure_1">
  <g id="patch_1">
   <path d="M 0 287.806016 
L 410.499219 287.806016 
L 410.499219 0 
L 0 0 
L 0 287.806016 
z
" style="fill: none"/>
  </g>
  <g id="axes_1">
   <g id="patch_2">
    <path d="M 56.571875 230.338828 
L 391.371875 230.338828 
L 391.371875 12.898828 
L 56.571875 12.898828 
z
" style="fill: #ffffff"/>
   </g>
   <g id="matplotlib.axis_1">
    <g id="xtick_1">
     <g id="line2d_1">
      <defs>
       <path id="m85ee22c020" d="M 0 0 
L 0 3.5 
" style="stroke: #000000; stroke-width: 0.8"/>
      </defs>
      <g>
       <use xlink:href="#m85ee22c020" x="56.571875" y="230.338828" style="stroke: #000000; stroke-width: 0.8"/>
      </g>
     </g>
     <g id="text_1">
      <!-- 0.0 -->
      <g transform="translate(44.644531 248.736484) scale(0.15 -0.15)">
       <defs>
        <path id="DejaVuSans-30" d="M 2034 4250 
Q 1547 4250 1301 3770 
Q 1056 3291 1056 2328 
Q 1056 1369 1301 889 
Q 1547 409 2034 409 
Q 2525 409 2770 889 
Q 3016 1369 3016 2328 
Q 3016 3291 2770 3770 
Q 2525 4250 2034 4250 
z
M 2034 4750 
Q 2819 4750 3233 4129 
Q 3647 3509 3647 2328 
Q 3647 1150 3233 529 
Q 2819 -91 2034 -91 
Q 1250 -91 836 529 
Q 422 1150 422 2328 
Q 422 3509 836 4129 
Q 1250 4750 2034 4750 
z
" transform="scale(0.015625)"/>
        <path id="DejaVuSans-2e" d="M 684 794 
L 1344 794 
L 1344 0 
L 684 0 
L 684 794 
z
" transform="scale(0.015625)"/>
       </defs>
       <use xlink:href="#DejaVuSans-30"/>
       <use xlink:href="#DejaVuSans-2e" x="63.623047"/>
       <use xlink:href="#DejaVuSans-30" x="95.410156"/>
      </g>
     </g>
    </g>
    <g id="xtick_2">
     <g id="line2d_2">
      <g>
       <use xlink:href="#m85ee22c020" x="112.371875" y="230.338828" style="stroke: #000000; stroke-width: 0.8"/>
      </g>
     </g>
     <g id="text_2">
      <!-- 0.5 -->
      <g transform="translate(100.444531 248.736484) scale(0.15 -0.15)">
       <defs>
        <path id="DejaVuSans-35" d="M 691 4666 
L 3169 4666 
L 3169 4134 
L 1269 4134 
L 1269 2991 
Q 1406 3038 1543 3061 
Q 1681 3084 1819 3084 
Q 2600 3084 3056 2656 
Q 3513 2228 3513 1497 
Q 3513 744 3044 326 
Q 2575 -91 1722 -91 
Q 1428 -91 1123 -41 
Q 819 9 494 109 
L 494 744 
Q 775 591 1075 516 
Q 1375 441 1709 441 
Q 2250 441 2565 725 
Q 2881 1009 2881 1497 
Q 2881 1984 2565 2268 
Q 2250 2553 1709 2553 
Q 1456 2553 1204 2497 
Q 953 2441 691 2322 
L 691 4666 
z
" transform="scale(0.015625)"/>
       </defs>
       <use xlink:href="#DejaVuSans-30"/>
       <use xlink:href="#DejaVuSans-2e" x="63.623047"/>
       <use xlink:href="#DejaVuSans-35" x="95.410156"/>
      </g>
     </g>
    </g>
    <g id="xtick_3">
     <g id="line2d_3">
      <g>
       <use xlink:href="#m85ee22c020" x="168.171875" y="230.338828" style="stroke: #000000; stroke-width: 0.8"/>
      </g>
     </g>
     <g id="text_3">
      <!-- 1.0 -->
      <g transform="translate(156.244531 248.736484) scale(0.15 -0.15)">
       <defs>
        <path id="DejaVuSans-31" d="M 794 531 
L 1825 531 
L 1825 4091 
L 703 3866 
L 703 4441 
L 1819 4666 
L 2450 4666 
L 2450 531 
L 3481 531 
L 3481 0 
L 794 0 
L 794 531 
z
" transform="scale(0.015625)"/>
       </defs>
       <use xlink:href="#DejaVuSans-31"/>
       <use xlink:href="#DejaVuSans-2e" x="63.623047"/>
       <use xlink:href="#DejaVuSans-30" x="95.410156"/>
      </g>
     </g>
    </g>
    <g id="xtick_4">
     <g id="line2d_4">
      <g>
       <use xlink:href="#m85ee22c020" x="223.971875" y="230.338828" style="stroke: #000000; stroke-width: 0.8"/>
      </g>
     </g>
     <g id="text_4">
      <!-- 1.5 -->
      <g transform="translate(212.044531 248.736484) scale(0.15 -0.15)">
       <use xlink:href="#DejaVuSans-31"/>
       <use xlink:href="#DejaVuSans-2e" x="63.623047"/>
       <use xlink:href="#DejaVuSans-35" x="95.410156"/>
      </g>
     </g>
    </g>
    <g id="xtick_5">
     <g id="line2d_5">
      <g>
       <use xlink:href="#m85ee22c020" x="279.771875" y="230.338828" style="stroke: #000000; stroke-width: 0.8"/>
      </g>
     </g>
     <g id="text_5">
      <!-- 2.0 -->
      <g transform="translate(267.844531 248.736484) scale(0.15 -0.15)">
       <defs>
        <path id="DejaVuSans-32" d="M 1228 531 
L 3431 531 
L 3431 0 
L 469 0 
L 469 531 
Q 828 903 1448 1529 
Q 2069 2156 2228 2338 
Q 2531 2678 2651 2914 
Q 2772 3150 2772 3378 
Q 2772 3750 2511 3984 
Q 2250 4219 1831 4219 
Q 1534 4219 1204 4116 
Q 875 4013 500 3803 
L 500 4441 
Q 881 4594 1212 4672 
Q 1544 4750 1819 4750 
Q 2544 4750 2975 4387 
Q 3406 4025 3406 3419 
Q 3406 3131 3298 2873 
Q 3191 2616 2906 2266 
Q 2828 2175 2409 1742 
Q 1991 1309 1228 531 
z
" transform="scale(0.015625)"/>
       </defs>
       <use xlink:href="#DejaVuSans-32"/>
       <use xlink:href="#DejaVuSans-2e" x="63.623047"/>
       <use xlink:href="#DejaVuSans-30" x="95.410156"/>
      </g>
     </g>
    </g>
    <g id="xtick_6">
     <g id="line2d_6">
      <g>
       <use xlink:href="#m85ee22c020" x="335.571875" y="230.338828" style="stroke: #000000; stroke-width: 0.8"/>
      </g>
     </g>
     <g id="text_6">
      <!-- 2.5 -->
      <g transform="translate(323.644531 248.736484) scale(0.15 -0.15)">
       <use xlink:href="#DejaVuSans-32"/>
       <use xlink:href="#DejaVuSans-2e" x="63.623047"/>
       <use xlink:href="#DejaVuSans-35" x="95.410156"/>
      </g>
     </g>
    </g>
    <g id="xtick_7">
     <g id="line2d_7">
      <g>
       <use xlink:href="#m85ee22c020" x="391.371875" y="230.338828" style="stroke: #000000; stroke-width: 0.8"/>
      </g>
     </g>
     <g id="text_7">
      <!-- 3.0 -->
      <g transform="translate(379.444531 248.736484) scale(0.15 -0.15)">
       <defs>
        <path id="DejaVuSans-33" d="M 2597 2516 
Q 3050 2419 3304 2112 
Q 3559 1806 3559 1356 
Q 3559 666 3084 287 
Q 2609 -91 1734 -91 
Q 1441 -91 1130 -33 
Q 819 25 488 141 
L 488 750 
Q 750 597 1062 519 
Q 1375 441 1716 441 
Q 2309 441 2620 675 
Q 2931 909 2931 1356 
Q 2931 1769 2642 2001 
Q 2353 2234 1838 2234 
L 1294 2234 
L 1294 2753 
L 1863 2753 
Q 2328 2753 2575 2939 
Q 2822 3125 2822 3475 
Q 2822 3834 2567 4026 
Q 2313 4219 1838 4219 
Q 1578 4219 1281 4162 
Q 984 4106 628 3988 
L 628 4550 
Q 988 4650 1302 4700 
Q 1616 4750 1894 4750 
Q 2613 4750 3031 4423 
Q 3450 4097 3450 3541 
Q 3450 3153 3228 2886 
Q 3006 2619 2597 2516 
z
" transform="scale(0.015625)"/>
       </defs>
       <use xlink:href="#DejaVuSans-33"/>
       <use xlink:href="#DejaVuSans-2e" x="63.623047"/>
       <use xlink:href="#DejaVuSans-30" x="95.410156"/>
      </g>
     </g>
    </g>
    <g id="text_8">
     <!-- $\frac{\sqrt{2}\gamma_\mathrm{TPA}}{\pi}t$ -->
     <g transform="translate(201.996875 276.406016) scale(0.15 -0.15)">
      <defs>
       <path id="STIXSizeOneSym-Regular-221a" d="M 6970 9933 
L 3373 -1888 
L 3104 -1888 
L 1626 2918 
Q 1555 3149 1465 3251 
Q 1376 3354 1229 3354 
Q 1011 3354 794 3181 
L 717 3309 
L 1766 4115 
L 1926 4115 
L 3379 -602 
L 3405 -602 
L 6605 9933 
L 6970 9933 
z
" transform="scale(0.015625)"/>
       <path id="DejaVuSans-Oblique-3b3" d="M 1491 2950 
L 1838 788 
L 3456 3500 
L 4066 3500 
L 1972 0 
L 1713 -1331 
L 1138 -1331 
L 1397 0 
L 988 2613 
Q 925 3006 628 3006 
L 475 3006 
L 569 3500 
L 788 3500 
Q 1403 3500 1491 2950 
z
" transform="scale(0.015625)"/>
       <path id="DejaVuSans-54" d="M -19 4666 
L 3928 4666 
L 3928 4134 
L 2272 4134 
L 2272 0 
L 1638 0 
L 1638 4134 
L -19 4134 
L -19 4666 
z
" transform="scale(0.015625)"/>
       <path id="DejaVuSans-50" d="M 1259 4147 
L 1259 2394 
L 2053 2394 
Q 2494 2394 2734 2622 
Q 2975 2850 2975 3272 
Q 2975 3691 2734 3919 
Q 2494 4147 2053 4147 
L 1259 4147 
z
M 628 4666 
L 2053 4666 
Q 2838 4666 3239 4311 
Q 3641 3956 3641 3272 
Q 3641 2581 3239 2228 
Q 2838 1875 2053 1875 
L 1259 1875 
L 1259 0 
L 628 0 
L 628 4666 
z
" transform="scale(0.015625)"/>
       <path id="DejaVuSans-41" d="M 2188 4044 
L 1331 1722 
L 3047 1722 
L 2188 4044 
z
M 1831 4666 
L 2547 4666 
L 4325 0 
L 3669 0 
L 3244 1197 
L 1141 1197 
L 716 0 
L 50 0 
L 1831 4666 
z
" transform="scale(0.015625)"/>
       <path id="DejaVuSans-Oblique-3c0" d="M 584 3500 
L 3938 3500 
L 3825 2925 
L 3384 2925 
L 2966 775 
Q 2922 550 2981 450 
Q 3038 353 3209 353 
Q 3256 353 3325 363 
Q 3397 369 3419 372 
L 3338 -44 
Q 3222 -84 3103 -103 
Q 2981 -122 2866 -122 
Q 2491 -122 2388 81 
Q 2284 288 2391 838 
L 2797 2925 
L 1506 2925 
L 938 0 
L 350 0 
L 919 2925 
L 472 2925 
L 584 3500 
z
" transform="scale(0.015625)"/>
       <path id="DejaVuSans-Oblique-74" d="M 2706 3500 
L 2619 3053 
L 1472 3053 
L 1100 1153 
Q 1081 1047 1072 975 
Q 1063 903 1063 863 
Q 1063 663 1183 572 
Q 1303 481 1569 481 
L 2150 481 
L 2053 0 
L 1503 0 
Q 991 0 739 200 
Q 488 400 488 806 
Q 488 878 497 964 
Q 506 1050 525 1153 
L 897 3053 
L 409 3053 
L 500 3500 
L 978 3500 
L 1172 4494 
L 1747 4494 
L 1556 3500 
L 2706 3500 
z
" transform="scale(0.015625)"/>
      </defs>
      <use xlink:href="#STIXSizeOneSym-Regular-221a" transform="translate(0 70.871875) scale(0.399712)"/>
      <use xlink:href="#DejaVuSans-32" transform="translate(51.016783 58.671875) scale(0.7)"/>
      <use xlink:href="#DejaVuSans-Oblique-3b3" transform="translate(104.302916 59.103125) scale(0.7)"/>
      <use xlink:href="#DejaVuSans-54" transform="translate(145.728697 47.61875) scale(0.49)"/>
      <use xlink:href="#DejaVuSans-50" transform="translate(175.65985 47.61875) scale(0.49)"/>
      <use xlink:href="#DejaVuSans-41" transform="translate(205.208189 47.61875) scale(0.49)"/>
      <use xlink:href="#DejaVuSans-Oblique-3c0" transform="translate(99 -24.985937) scale(0.7)"/>
      <use xlink:href="#DejaVuSans-Oblique-74" transform="translate(253.142271 0.748438)"/>
      <path d="M 42.266783 128.25 
L 42.266783 132.625 
L 104.302916 132.625 
L 104.302916 128.25 
L 42.266783 128.25 
z
"/>
      <path d="M 0 19.545313 
L 0 25.795313 
L 240.642271 25.795313 
L 240.642271 19.545313 
L 0 19.545313 
z
"/>
     </g>
    </g>
   </g>
   <g id="matplotlib.axis_2">
    <g id="ytick_1">
     <g id="line2d_8">
      <defs>
       <path id="m64bcb4cb85" d="M 0 0 
L -3.5 0 
" style="stroke: #000000; stroke-width: 0.8"/>
      </defs>
      <g>
       <use xlink:href="#m64bcb4cb85" x="56.571875" y="230.338828" style="stroke: #000000; stroke-width: 0.8"/>
      </g>
     </g>
     <g id="text_9">
      <!-- 0.0 -->
      <g transform="translate(25.717187 236.037656) scale(0.15 -0.15)">
       <use xlink:href="#DejaVuSans-30"/>
       <use xlink:href="#DejaVuSans-2e" x="63.623047"/>
       <use xlink:href="#DejaVuSans-30" x="95.410156"/>
      </g>
     </g>
    </g>
    <g id="ytick_2">
     <g id="line2d_9">
      <g>
       <use xlink:href="#m64bcb4cb85" x="56.571875" y="194.098828" style="stroke: #000000; stroke-width: 0.8"/>
      </g>
     </g>
     <g id="text_10">
      <!-- 0.1 -->
      <g transform="translate(25.717187 199.797656) scale(0.15 -0.15)">
       <use xlink:href="#DejaVuSans-30"/>
       <use xlink:href="#DejaVuSans-2e" x="63.623047"/>
       <use xlink:href="#DejaVuSans-31" x="95.410156"/>
      </g>
     </g>
    </g>
    <g id="ytick_3">
     <g id="line2d_10">
      <g>
       <use xlink:href="#m64bcb4cb85" x="56.571875" y="157.858828" style="stroke: #000000; stroke-width: 0.8"/>
      </g>
     </g>
     <g id="text_11">
      <!-- 0.2 -->
      <g transform="translate(25.717187 163.557656) scale(0.15 -0.15)">
       <use xlink:href="#DejaVuSans-30"/>
       <use xlink:href="#DejaVuSans-2e" x="63.623047"/>
       <use xlink:href="#DejaVuSans-32" x="95.410156"/>
      </g>
     </g>
    </g>
    <g id="ytick_4">
     <g id="line2d_11">
      <g>
       <use xlink:href="#m64bcb4cb85" x="56.571875" y="121.618828" style="stroke: #000000; stroke-width: 0.8"/>
      </g>
     </g>
     <g id="text_12">
      <!-- 0.3 -->
      <g transform="translate(25.717187 127.317656) scale(0.15 -0.15)">
       <use xlink:href="#DejaVuSans-30"/>
       <use xlink:href="#DejaVuSans-2e" x="63.623047"/>
       <use xlink:href="#DejaVuSans-33" x="95.410156"/>
      </g>
     </g>
    </g>
    <g id="ytick_5">
     <g id="line2d_12">
      <g>
       <use xlink:href="#m64bcb4cb85" x="56.571875" y="85.378828" style="stroke: #000000; stroke-width: 0.8"/>
      </g>
     </g>
     <g id="text_13">
      <!-- 0.4 -->
      <g transform="translate(25.717187 91.077656) scale(0.15 -0.15)">
       <defs>
        <path id="DejaVuSans-34" d="M 2419 4116 
L 825 1625 
L 2419 1625 
L 2419 4116 
z
M 2253 4666 
L 3047 4666 
L 3047 1625 
L 3713 1625 
L 3713 1100 
L 3047 1100 
L 3047 0 
L 2419 0 
L 2419 1100 
L 313 1100 
L 313 1709 
L 2253 4666 
z
" transform="scale(0.015625)"/>
       </defs>
       <use xlink:href="#DejaVuSans-30"/>
       <use xlink:href="#DejaVuSans-2e" x="63.623047"/>
       <use xlink:href="#DejaVuSans-34" x="95.410156"/>
      </g>
     </g>
    </g>
    <g id="ytick_6">
     <g id="line2d_13">
      <g>
       <use xlink:href="#m64bcb4cb85" x="56.571875" y="49.138828" style="stroke: #000000; stroke-width: 0.8"/>
      </g>
     </g>
     <g id="text_14">
      <!-- 0.5 -->
      <g transform="translate(25.717187 54.837656) scale(0.15 -0.15)">
       <use xlink:href="#DejaVuSans-30"/>
       <use xlink:href="#DejaVuSans-2e" x="63.623047"/>
       <use xlink:href="#DejaVuSans-35" x="95.410156"/>
      </g>
     </g>
    </g>
    <g id="ytick_7">
     <g id="line2d_14">
      <g>
       <use xlink:href="#m64bcb4cb85" x="56.571875" y="12.898828" style="stroke: #000000; stroke-width: 0.8"/>
      </g>
     </g>
     <g id="text_15">
      <!-- 0.6 -->
      <g transform="translate(25.717187 18.597656) scale(0.15 -0.15)">
       <defs>
        <path id="DejaVuSans-36" d="M 2113 2584 
Q 1688 2584 1439 2293 
Q 1191 2003 1191 1497 
Q 1191 994 1439 701 
Q 1688 409 2113 409 
Q 2538 409 2786 701 
Q 3034 994 3034 1497 
Q 3034 2003 2786 2293 
Q 2538 2584 2113 2584 
z
M 3366 4563 
L 3366 3988 
Q 3128 4100 2886 4159 
Q 2644 4219 2406 4219 
Q 1781 4219 1451 3797 
Q 1122 3375 1075 2522 
Q 1259 2794 1537 2939 
Q 1816 3084 2150 3084 
Q 2853 3084 3261 2657 
Q 3669 2231 3669 1497 
Q 3669 778 3244 343 
Q 2819 -91 2113 -91 
Q 1303 -91 875 529 
Q 447 1150 447 2328 
Q 447 3434 972 4092 
Q 1497 4750 2381 4750 
Q 2619 4750 2861 4703 
Q 3103 4656 3366 4563 
z
" transform="scale(0.015625)"/>
       </defs>
       <use xlink:href="#DejaVuSans-30"/>
       <use xlink:href="#DejaVuSans-2e" x="63.623047"/>
       <use xlink:href="#DejaVuSans-36" x="95.410156"/>
      </g>
     </g>
    </g>
    <g id="text_16">
     <!-- $\rho_{21}$ -->
     <g transform="translate(18.567187 133.318828) rotate(-90) scale(0.15 -0.15)">
      <defs>
       <path id="DejaVuSans-Oblique-3c1" d="M 1203 2875 
Q 1453 3194 1981 3475 
Q 2188 3584 2756 3584 
Q 3394 3584 3694 3078 
Q 3994 2572 3834 1747 
Q 3672 922 3175 415 
Q 2678 -91 2041 -91 
Q 1656 -91 1409 63 
Q 1163 213 1044 525 
L 681 -1331 
L 103 -1331 
L 697 1716 
Q 838 2438 1203 2875 
z
M 3238 1747 
Q 3359 2381 3169 2744 
Q 2978 3103 2522 3103 
Q 2066 3103 1734 2744 
Q 1403 2381 1281 1747 
Q 1156 1113 1347 750 
Q 1538 391 1994 391 
Q 2450 391 2781 750 
Q 3113 1113 3238 1747 
z
" transform="scale(0.015625)"/>
      </defs>
      <use xlink:href="#DejaVuSans-Oblique-3c1"/>
      <use xlink:href="#DejaVuSans-32" transform="translate(63.476562 -16.40625) scale(0.7)"/>
      <use xlink:href="#DejaVuSans-31" transform="translate(108.012695 -16.40625) scale(0.7)"/>
     </g>
    </g>
   </g>
   <g id="line2d_15">
    <path d="M 56.571875 49.138828 
L 58.254287 49.238197 
L 59.936699 49.527566 
L 61.619111 49.99431 
L 63.301523 50.626433 
L 64.983935 51.412536 
L 66.666347 52.341789 
L 70.031171 54.589144 
L 73.395996 57.292368 
L 76.76082 60.382962 
L 80.125644 63.799389 
L 83.490468 67.486462 
L 88.537704 73.417907 
L 93.58494 79.703342 
L 101.997001 90.643884 
L 120.503533 114.993026 
L 128.915594 125.58828 
L 135.645242 133.691268 
L 142.37489 141.40896 
L 149.104538 148.710605 
L 154.151774 153.903158 
L 159.199011 158.848847 
L 164.246247 163.547424 
L 169.293483 168.000943 
L 174.340719 172.213323 
L 179.387955 176.189972 
L 184.435192 179.937469 
L 189.482428 183.463289 
L 194.529664 186.775569 
L 199.5769 189.88292 
L 206.306548 193.722707 
L 213.036197 197.235581 
L 219.765845 200.44316 
L 226.495493 203.366778 
L 233.225141 206.02722 
L 239.95479 208.444523 
L 246.684438 210.637834 
L 253.414086 212.625323 
L 261.826146 214.846248 
L 270.238207 216.803402 
L 278.650267 218.525327 
L 287.062327 220.038034 
L 297.1568 221.610155 
L 307.251272 222.951248 
L 319.028156 224.266349 
L 330.805041 225.354422 
L 344.264337 226.36772 
L 359.406046 227.269447 
L 376.230166 228.038307 
L 391.371875 228.567281 
L 391.371875 228.567281 
" clip-path="url(#p0f53c6193f)" style="fill: none; stroke: #ff0000; stroke-width: 1.5; stroke-linecap: square"/>
   </g>
   <g id="line2d_16">
    <path d="M 56.571875 49.138828 
L 58.254287 49.321892 
L 59.936699 49.848248 
L 61.619111 50.685495 
L 63.301523 51.803574 
L 64.983935 53.174611 
L 66.666347 54.772777 
L 68.348759 56.574148 
L 71.713584 60.699601 
L 75.078408 65.393121 
L 78.443232 70.520066 
L 83.490468 78.777631 
L 90.220116 90.377061 
L 103.679413 113.728135 
L 110.409061 124.842409 
L 115.456297 132.777055 
L 120.503533 140.31959 
L 125.550769 147.445057 
L 130.598006 154.141526 
L 135.645242 160.407037 
L 140.692478 166.247137 
L 145.739714 171.672923 
L 150.78695 176.699467 
L 155.834187 181.344584 
L 160.881423 185.627851 
L 165.928659 189.569854 
L 170.975895 193.191597 
L 176.023131 196.514055 
L 181.070367 199.557842 
L 186.117604 202.342963 
L 191.16484 204.888642 
L 196.212076 207.213202 
L 201.259312 209.333994 
L 207.98896 211.872832 
L 214.718609 214.114228 
L 221.448257 216.090874 
L 228.177905 217.832377 
L 234.907553 219.365421 
L 243.319614 221.024836 
L 251.731674 222.437087 
L 260.143734 223.637957 
L 270.238207 224.843162 
L 280.332679 225.833526 
L 292.109563 226.767331 
L 305.56886 227.601309 
L 320.710568 228.310134 
L 339.217101 228.933026 
L 361.088458 229.428013 
L 388.007051 229.805253 
L 391.371875 229.839769 
L 391.371875 229.839769 
" clip-path="url(#p0f53c6193f)" style="fill: none; stroke: #e60000; stroke-width: 1.5; stroke-linecap: square"/>
   </g>
   <g id="line2d_17">
    <path d="M 56.571875 49.138828 
L 58.254287 49.438823 
L 59.936699 50.286052 
L 61.619111 51.60773 
L 63.301523 53.338853 
L 64.983935 55.42141 
L 66.666347 57.803678 
L 68.348759 60.439585 
L 71.713584 66.312883 
L 75.078408 72.765287 
L 80.125644 83.06854 
L 93.58494 111.000635 
L 98.632177 120.88295 
L 103.679413 130.227516 
L 108.726649 138.977164 
L 113.773885 147.109164 
L 117.138709 152.186986 
L 120.503533 156.994571 
L 123.868357 161.538447 
L 127.233182 165.826773 
L 130.598006 169.868848 
L 133.96283 173.674724 
L 137.327654 177.254907 
L 142.37489 182.225469 
L 147.422126 186.748532 
L 152.469362 190.859501 
L 157.516599 194.592365 
L 162.563835 197.979303 
L 167.611071 201.050477 
L 172.658307 203.833942 
L 177.705543 206.355636 
L 182.75278 208.639437 
L 187.800016 210.707246 
L 192.847252 212.579093 
L 199.5769 214.801417 
L 206.306548 216.746563 
L 213.036197 218.448793 
L 219.765845 219.938241 
L 228.177905 221.540826 
L 236.589965 222.896712 
L 245.002026 224.043779 
L 255.096498 225.189466 
L 266.873383 226.265412 
L 278.650267 227.116583 
L 292.109563 227.873859 
L 308.933684 228.575333 
L 327.440217 229.11874 
L 350.993986 229.575389 
L 381.277403 229.921016 
L 391.371875 229.997072 
L 391.371875 229.997072 
" clip-path="url(#p0f53c6193f)" style="fill: none; stroke: #cc0000; stroke-width: 1.5; stroke-linecap: square"/>
   </g>
   <g id="line2d_18">
    <path d="M 56.571875 49.138828 
L 58.254287 49.600585 
L 59.936699 50.872268 
L 61.619111 52.803549 
L 63.301523 55.267577 
L 64.983935 58.157438 
L 66.666347 61.383128 
L 70.031171 68.551564 
L 75.078408 80.290242 
L 85.17288 104.127215 
L 90.220116 115.326959 
L 95.267352 125.789395 
L 98.632177 132.323506 
L 101.997001 138.500591 
L 105.361825 144.325402 
L 108.726649 149.807478 
L 112.091473 154.959424 
L 115.456297 159.795689 
L 118.821121 164.33171 
L 122.185945 168.583315 
L 125.550769 172.566309 
L 128.915594 176.296202 
L 132.280418 179.788023 
L 135.645242 183.056205 
L 140.692478 187.569099 
L 145.739714 191.653181 
L 150.78695 195.348456 
L 155.834187 198.691481 
L 160.881423 201.715555 
L 165.928659 204.450937 
L 170.975895 206.92508 
L 176.023131 209.16287 
L 181.070367 211.186844 
L 186.117604 213.017408 
L 192.847252 215.188962 
L 199.5769 217.088294 
L 206.306548 218.749519 
L 213.036197 220.202481 
L 221.448257 221.765269 
L 229.860317 223.087114 
L 238.272378 224.205161 
L 248.36685 225.321696 
L 260.143734 226.370142 
L 271.920619 227.199491 
L 285.379915 227.937315 
L 302.204036 228.620746 
L 322.392981 229.189314 
L 345.946749 229.61955 
L 376.230166 229.945185 
L 391.371875 230.047619 
L 391.371875 230.047619 
" clip-path="url(#p0f53c6193f)" style="fill: none; stroke: #b20000; stroke-width: 1.5; stroke-linecap: square"/>
   </g>
   <g id="line2d_19">
    <path d="M 56.571875 49.138828 
L 58.254287 49.82126 
L 59.936699 51.636152 
L 61.619111 54.293833 
L 63.301523 57.569318 
L 64.983935 61.288134 
L 68.348759 69.546324 
L 81.808056 104.163827 
L 85.17288 112.109154 
L 88.537704 119.628832 
L 91.902528 126.715757 
L 95.267352 133.376786 
L 98.632177 139.626576 
L 101.997001 145.483869 
L 105.361825 150.96927 
L 108.726649 156.103924 
L 112.091473 160.908756 
L 115.456297 165.404034 
L 118.821121 169.60914 
L 122.185945 173.542465 
L 125.550769 177.221365 
L 128.915594 180.662169 
L 132.280418 183.880209 
L 137.327654 188.320782 
L 142.37489 192.336998 
L 147.422126 195.96937 
L 152.469362 199.254562 
L 157.516599 202.225749 
L 162.563835 204.912939 
L 167.611071 207.343277 
L 172.658307 209.54131 
L 177.705543 211.529245 
L 182.75278 213.327163 
L 189.482428 215.459944 
L 196.212076 217.325335 
L 202.941724 218.956859 
L 209.671372 220.383835 
L 218.083433 221.918668 
L 226.495493 223.216864 
L 236.589965 224.513303 
L 246.684438 225.573746 
L 258.461322 226.569521 
L 271.920619 227.455403 
L 287.062327 228.205726 
L 303.886448 228.812772 
L 324.075393 229.317792 
L 349.311573 229.720984 
L 382.959815 230.022603 
L 391.371875 230.071357 
L 391.371875 230.071357 
" clip-path="url(#p0f53c6193f)" style="fill: none; stroke: #990000; stroke-width: 1.5; stroke-linecap: square"/>
   </g>
   <g id="line2d_20">
    <path d="M 56.571875 49.138828 
L 58.254287 50.116435 
L 59.936699 52.594686 
L 61.619111 56.053309 
L 63.301523 60.133798 
L 66.666347 69.251949 
L 75.078408 92.706947 
L 78.443232 101.477104 
L 81.808056 109.755134 
L 85.17288 117.533377 
L 88.537704 124.825231 
L 91.902528 131.653098 
L 95.267352 138.042662 
L 98.632177 144.020221 
L 101.997001 149.611457 
L 105.361825 154.840915 
L 108.726649 159.731801 
L 112.091473 164.305936 
L 115.456297 168.583789 
L 118.821121 172.584527 
L 122.185945 176.326091 
L 125.550769 179.825266 
L 128.915594 183.097752 
L 132.280418 186.158233 
L 137.327654 190.381245 
L 142.37489 194.200599 
L 147.422126 197.65488 
L 152.469362 200.778982 
L 157.516599 203.604467 
L 162.563835 206.159877 
L 167.611071 208.471027 
L 172.658307 210.561266 
L 177.705543 212.451709 
L 184.435192 214.694247 
L 191.16484 216.655635 
L 197.894488 218.37112 
L 204.624136 219.871531 
L 213.036197 221.485349 
L 221.448257 222.850354 
L 229.860317 224.004905 
L 239.95479 225.157894 
L 250.049262 226.101 
L 261.826146 226.986592 
L 275.285443 227.774453 
L 290.427151 228.441753 
L 308.933684 229.026328 
L 330.805041 229.489597 
L 359.406046 229.858237 
L 391.371875 230.084475 
L 391.371875 230.084475 
" clip-path="url(#p0f53c6193f)" style="fill: none; stroke: #800000; stroke-width: 1.5; stroke-linecap: square"/>
   </g>
   <g id="line2d_21">
    <path d="M 56.571875 49.138828 
L 58.254287 50.500517 
L 59.936699 53.737001 
L 61.619111 57.986493 
L 64.983935 67.735541 
L 70.031171 82.706243 
L 73.395996 92.174917 
L 76.76082 101.093254 
L 80.125644 109.455282 
L 83.490468 117.282881 
L 86.855292 124.605857 
L 90.220116 131.455263 
L 93.58494 137.861223 
L 96.949764 143.852274 
L 100.314589 149.455232 
L 103.679413 154.695217 
L 107.044237 159.595737 
L 110.409061 164.178782 
L 113.773885 168.464917 
L 117.138709 172.473378 
L 120.503533 176.222154 
L 123.868357 179.728067 
L 127.233182 183.006853 
L 130.598006 186.073224 
L 135.645242 190.304362 
L 140.692478 194.131065 
L 145.739714 197.591992 
L 150.78695 200.722106 
L 155.834187 203.553027 
L 160.881423 206.113354 
L 165.928659 208.428951 
L 170.975895 210.523212 
L 176.023131 212.417292 
L 182.75278 214.664145 
L 189.482428 216.629307 
L 196.212076 218.348093 
L 202.941724 219.851391 
L 211.353785 221.468314 
L 219.765845 222.835945 
L 228.177905 223.992718 
L 238.272378 225.147925 
L 248.36685 226.092846 
L 260.143734 226.980142 
L 273.603031 227.769519 
L 288.744739 228.438103 
L 307.251272 229.023803 
L 329.122629 229.487963 
L 357.723634 229.857312 
L 391.371875 230.092378 
L 391.371875 230.092378 
" clip-path="url(#p0f53c6193f)" style="fill: none; stroke: #660000; stroke-width: 1.5; stroke-linecap: square"/>
   </g>
   <g id="line2d_22">
    <path d="M 56.571875 49.138828 
L 58.254287 50.981537 
L 59.936699 55.007811 
L 63.301523 65.146256 
L 68.348759 80.65385 
L 71.713584 90.327051 
L 75.078408 99.392624 
L 78.443232 107.87485 
L 81.808056 115.808383 
L 85.17288 123.228119 
L 88.537704 130.167207 
L 91.902528 136.656759 
L 95.267352 142.72589 
L 98.632177 148.401837 
L 101.997001 153.710072 
L 105.361825 158.674416 
L 108.726649 163.317149 
L 112.091473 167.659104 
L 115.456297 171.71977 
L 118.821121 175.517367 
L 122.185945 179.06894 
L 125.550769 182.390426 
L 128.915594 185.496732 
L 133.96283 189.782974 
L 139.010066 193.659515 
L 144.057302 197.165515 
L 149.104538 200.336394 
L 154.151774 203.204183 
L 159.199011 205.797854 
L 164.246247 208.143609 
L 169.293483 210.265144 
L 174.340719 212.183891 
L 181.070367 214.460007 
L 187.800016 216.450761 
L 194.529664 218.191932 
L 201.259312 219.714809 
L 209.671372 221.35279 
L 218.083433 222.738231 
L 226.495493 223.91007 
L 236.589965 225.080322 
L 246.684438 226.037548 
L 258.461322 226.936401 
L 271.920619 227.736057 
L 287.062327 228.413349 
L 305.56886 229.006677 
L 327.440217 229.476882 
L 356.041222 229.851041 
L 391.371875 230.097391 
L 391.371875 230.097391 
" clip-path="url(#p0f53c6193f)" style="fill: none; stroke: #4d0000; stroke-width: 1.5; stroke-linecap: square"/>
   </g>
   <g id="line2d_23">
    <path d="M 56.571875 49.138828 
L 58.254287 51.553334 
L 59.936699 56.302293 
L 66.666347 77.633307 
L 70.031171 87.521264 
L 73.395996 96.773096 
L 76.76082 105.426013 
L 80.125644 113.518403 
L 83.490468 121.086538 
L 86.855292 128.164376 
L 90.220116 134.783682 
L 93.58494 140.97416 
L 96.949764 146.763592 
L 100.314589 152.177959 
L 103.679413 157.24156 
L 107.044237 161.977119 
L 110.409061 166.405888 
L 113.773885 170.547742 
L 117.138709 174.421269 
L 120.503533 178.043851 
L 123.868357 181.431748 
L 127.233182 184.600161 
L 132.280418 188.972102 
L 137.327654 192.92615 
L 142.37489 196.502249 
L 147.422126 199.736526 
L 152.469362 202.661654 
L 157.516599 205.307183 
L 162.563835 207.699838 
L 167.611071 209.863791 
L 172.658307 211.820902 
L 179.387955 214.142526 
L 186.117604 216.173084 
L 192.847252 217.949067 
L 199.5769 219.502392 
L 206.306548 220.860974 
L 214.718609 222.322243 
L 223.130669 223.558217 
L 233.225141 224.792518 
L 243.319614 225.802135 
L 255.096498 226.750182 
L 268.555795 227.593605 
L 283.697503 228.307965 
L 302.204036 228.933767 
L 324.075393 229.429707 
L 350.993986 229.806823 
L 388.007051 230.084177 
L 391.371875 230.100675 
L 391.371875 230.100675 
" clip-path="url(#p0f53c6193f)" style="fill: none; stroke: #330000; stroke-width: 1.5; stroke-linecap: square"/>
   </g>
   <g id="line2d_24">
    <path d="M 56.571875 49.138828 
L 58.254287 52.187459 
L 61.619111 63.07218 
L 64.983935 73.883778 
L 68.348759 84.018691 
L 71.713584 93.497911 
L 75.078408 102.363059 
L 78.443232 110.653886 
L 81.808056 118.407598 
L 85.17288 125.65899 
L 88.537704 132.440605 
L 91.902528 138.782878 
L 95.267352 144.71427 
L 98.632177 150.261402 
L 101.997001 155.449166 
L 105.361825 160.300844 
L 108.726649 164.838209 
L 112.091473 169.081624 
L 115.456297 173.050132 
L 118.821121 176.761543 
L 122.185945 180.232513 
L 125.550769 183.478618 
L 128.915594 186.514426 
L 133.96283 190.703392 
L 139.010066 194.491954 
L 144.057302 197.918385 
L 149.104538 201.017301 
L 154.151774 203.820005 
L 159.199011 206.354813 
L 164.246247 208.647331 
L 169.293483 210.720717 
L 174.340719 212.595919 
L 181.070367 214.820377 
L 187.800016 216.765952 
L 194.529664 218.467606 
L 201.259312 219.955921 
L 209.671372 221.556728 
L 218.083433 222.910727 
L 226.495493 224.055971 
L 236.589965 225.199664 
L 248.36685 226.273612 
L 260.143734 227.123133 
L 273.603031 227.878903 
L 290.427151 228.578957 
L 308.933684 229.121254 
L 332.487453 229.576963 
L 362.77087 229.921878 
L 391.371875 230.102871 
L 391.371875 230.102871 
" clip-path="url(#p0f53c6193f)" style="fill: none; stroke: #190000; stroke-width: 1.5; stroke-linecap: square"/>
   </g>
   <g id="line2d_25">
    <path d="M 56.571875 49.138828 
L 59.936699 60.877752 
L 63.301523 71.856178 
L 66.666347 82.123374 
L 70.031171 91.725415 
L 73.395996 100.705395 
L 76.76082 109.103613 
L 80.125644 116.957758 
L 83.490468 124.303077 
L 86.855292 131.172534 
L 90.220116 137.596958 
L 93.58494 143.60518 
L 96.949764 149.224163 
L 100.314589 154.479124 
L 103.679413 159.393645 
L 107.044237 163.989783 
L 110.409061 168.288163 
L 113.773885 172.308075 
L 117.138709 176.067559 
L 120.503533 179.583488 
L 123.868357 182.87164 
L 127.233182 185.946771 
L 132.280418 190.189996 
L 137.327654 194.027631 
L 142.37489 197.498445 
L 147.422126 200.6375 
L 152.469362 203.476508 
L 157.516599 206.044149 
L 162.563835 208.366362 
L 167.611071 210.466605 
L 172.658307 212.366096 
L 179.387955 214.619367 
L 186.117604 216.590143 
L 192.847252 218.313839 
L 199.5769 219.821432 
L 207.98896 221.442974 
L 216.401021 222.814511 
L 224.813081 223.974589 
L 234.907553 225.133097 
L 245.002026 226.080716 
L 256.77891 226.970548 
L 270.238207 227.762179 
L 285.379915 228.432673 
L 303.886448 229.020046 
L 325.757805 229.485533 
L 354.35881 229.855937 
L 391.371875 230.107686 
L 391.371875 230.107686 
" clip-path="url(#p0f53c6193f)" style="fill: none; stroke-dasharray: 11.1,4.8; stroke-dashoffset: 0; stroke: #bfbf00; stroke-width: 3"/>
   </g>
   <g id="patch_3">
    <path d="M 56.571875 230.338828 
L 56.571875 12.898828 
" style="fill: none; stroke: #000000; stroke-width: 0.8; stroke-linejoin: miter; stroke-linecap: square"/>
   </g>
   <g id="patch_4">
    <path d="M 391.371875 230.338828 
L 391.371875 12.898828 
" style="fill: none; stroke: #000000; stroke-width: 0.8; stroke-linejoin: miter; stroke-linecap: square"/>
   </g>
   <g id="patch_5">
    <path d="M 56.571875 230.338828 
L 391.371875 230.338828 
" style="fill: none; stroke: #000000; stroke-width: 0.8; stroke-linejoin: miter; stroke-linecap: square"/>
   </g>
   <g id="patch_6">
    <path d="M 56.571875 12.898828 
L 391.371875 12.898828 
" style="fill: none; stroke: #000000; stroke-width: 0.8; stroke-linejoin: miter; stroke-linecap: square"/>
   </g>
  </g>
  <g id="axes_2">
   <g id="patch_7">
    <path d="M 261.771875 136.738828 
L 369.771875 136.738828 
L 369.771875 64.738828 
L 261.771875 64.738828 
z
" style="fill: #ffffff"/>
   </g>
   <g id="matplotlib.axis_3">
    <g id="xtick_8">
     <g id="line2d_26">
      <g>
       <use xlink:href="#m85ee22c020" x="294.629571" y="136.738828" style="stroke: #000000; stroke-width: 0.8"/>
      </g>
     </g>
     <g id="text_17">
      <!-- $\mathdefault{10^{1}}$ -->
      <g transform="translate(281.429571 155.136484) scale(0.15 -0.15)">
       <use xlink:href="#DejaVuSans-31" transform="translate(0 0.684375)"/>
       <use xlink:href="#DejaVuSans-30" transform="translate(63.623047 0.684375)"/>
       <use xlink:href="#DejaVuSans-31" transform="translate(128.203125 38.965625) scale(0.7)"/>
      </g>
     </g>
    </g>
    <g id="xtick_9">
     <g id="line2d_27">
      <g>
       <use xlink:href="#m85ee22c020" x="364.862784" y="136.738828" style="stroke: #000000; stroke-width: 0.8"/>
      </g>
     </g>
     <g id="text_18">
      <!-- $\mathdefault{10^{2}}$ -->
      <g transform="translate(351.662784 155.136484) scale(0.15 -0.15)">
       <use xlink:href="#DejaVuSans-31" transform="translate(0 0.765625)"/>
       <use xlink:href="#DejaVuSans-30" transform="translate(63.623047 0.765625)"/>
       <use xlink:href="#DejaVuSans-32" transform="translate(128.203125 39.046875) scale(0.7)"/>
      </g>
     </g>
    </g>
    <g id="xtick_10">
     <g id="line2d_28">
      <defs>
       <path id="m23e0e042ce" d="M 0 0 
L 0 2 
" style="stroke: #000000; stroke-width: 0.6"/>
      </defs>
      <g>
       <use xlink:href="#m23e0e042ce" x="266.680966" y="136.738828" style="stroke: #000000; stroke-width: 0.6"/>
      </g>
     </g>
    </g>
    <g id="xtick_11">
     <g id="line2d_29">
      <g>
       <use xlink:href="#m23e0e042ce" x="273.487267" y="136.738828" style="stroke: #000000; stroke-width: 0.6"/>
      </g>
     </g>
    </g>
    <g id="xtick_12">
     <g id="line2d_30">
      <g>
       <use xlink:href="#m23e0e042ce" x="279.048421" y="136.738828" style="stroke: #000000; stroke-width: 0.6"/>
      </g>
     </g>
    </g>
    <g id="xtick_13">
     <g id="line2d_31">
      <g>
       <use xlink:href="#m23e0e042ce" x="283.750309" y="136.738828" style="stroke: #000000; stroke-width: 0.6"/>
      </g>
     </g>
    </g>
    <g id="xtick_14">
     <g id="line2d_32">
      <g>
       <use xlink:href="#m23e0e042ce" x="287.82327" y="136.738828" style="stroke: #000000; stroke-width: 0.6"/>
      </g>
     </g>
    </g>
    <g id="xtick_15">
     <g id="line2d_33">
      <g>
       <use xlink:href="#m23e0e042ce" x="291.415876" y="136.738828" style="stroke: #000000; stroke-width: 0.6"/>
      </g>
     </g>
    </g>
    <g id="xtick_16">
     <g id="line2d_34">
      <g>
       <use xlink:href="#m23e0e042ce" x="315.771875" y="136.738828" style="stroke: #000000; stroke-width: 0.6"/>
      </g>
     </g>
    </g>
    <g id="xtick_17">
     <g id="line2d_35">
      <g>
       <use xlink:href="#m23e0e042ce" x="328.13933" y="136.738828" style="stroke: #000000; stroke-width: 0.6"/>
      </g>
     </g>
    </g>
    <g id="xtick_18">
     <g id="line2d_36">
      <g>
       <use xlink:href="#m23e0e042ce" x="336.914179" y="136.738828" style="stroke: #000000; stroke-width: 0.6"/>
      </g>
     </g>
    </g>
    <g id="xtick_19">
     <g id="line2d_37">
      <g>
       <use xlink:href="#m23e0e042ce" x="343.72048" y="136.738828" style="stroke: #000000; stroke-width: 0.6"/>
      </g>
     </g>
    </g>
    <g id="xtick_20">
     <g id="line2d_38">
      <g>
       <use xlink:href="#m23e0e042ce" x="349.281634" y="136.738828" style="stroke: #000000; stroke-width: 0.6"/>
      </g>
     </g>
    </g>
    <g id="xtick_21">
     <g id="line2d_39">
      <g>
       <use xlink:href="#m23e0e042ce" x="353.983522" y="136.738828" style="stroke: #000000; stroke-width: 0.6"/>
      </g>
     </g>
    </g>
    <g id="xtick_22">
     <g id="line2d_40">
      <g>
       <use xlink:href="#m23e0e042ce" x="358.056483" y="136.738828" style="stroke: #000000; stroke-width: 0.6"/>
      </g>
     </g>
    </g>
    <g id="xtick_23">
     <g id="line2d_41">
      <g>
       <use xlink:href="#m23e0e042ce" x="361.649089" y="136.738828" style="stroke: #000000; stroke-width: 0.6"/>
      </g>
     </g>
    </g>
    <g id="text_19">
     <!-- $\frac{\eta}{\gamma_\mathrm{TPA}}$ -->
     <g transform="translate(304.596875 176.956016) scale(0.15 -0.15)">
      <defs>
       <path id="DejaVuSans-Oblique-3b7" d="M 3703 2113 
L 3034 -1331 
L 2459 -1331 
L 3125 2094 
Q 3222 2591 3075 2838 
Q 2931 3084 2544 3084 
Q 2078 3084 1750 2788 
Q 1425 2491 1325 1978 
L 941 0 
L 363 0 
L 1044 3500 
L 1622 3500 
L 1516 2956 
Q 1781 3272 2094 3428 
Q 2403 3584 2769 3584 
Q 3372 3584 3609 3213 
Q 3844 2838 3703 2113 
z
" transform="scale(0.015625)"/>
      </defs>
      <use xlink:href="#DejaVuSans-Oblique-3b7" transform="translate(46 58.8) scale(0.7)"/>
      <use xlink:href="#DejaVuSans-Oblique-3b3" transform="translate(0 -25.289062) scale(0.7)"/>
      <use xlink:href="#DejaVuSans-54" transform="translate(41.425781 -36.773438) scale(0.49)"/>
      <use xlink:href="#DejaVuSans-50" transform="translate(71.356934 -36.773438) scale(0.49)"/>
      <use xlink:href="#DejaVuSans-41" transform="translate(100.905273 -36.773438) scale(0.49)"/>
      <path d="M 0 19.242188 
L 0 25.492188 
L 136.339355 25.492188 
L 136.339355 19.242188 
L 0 19.242188 
z
"/>
     </g>
    </g>
   </g>
   <g id="matplotlib.axis_4">
    <g id="ytick_8">
     <g id="line2d_42">
      <g>
       <use xlink:href="#m64bcb4cb85" x="261.771875" y="121.808411" style="stroke: #000000; stroke-width: 0.8"/>
      </g>
     </g>
     <g id="text_20">
      <!-- $\mathdefault{10^{0}}$ -->
      <g transform="translate(228.371875 127.507239) scale(0.15 -0.15)">
       <use xlink:href="#DejaVuSans-31" transform="translate(0 0.765625)"/>
       <use xlink:href="#DejaVuSans-30" transform="translate(63.623047 0.765625)"/>
       <use xlink:href="#DejaVuSans-30" transform="translate(128.203125 39.046875) scale(0.7)"/>
      </g>
     </g>
    </g>
    <g id="ytick_9">
     <g id="line2d_43">
      <defs>
       <path id="m420aea20a5" d="M 0 0 
L -2 0 
" style="stroke: #000000; stroke-width: 0.6"/>
      </defs>
      <g>
       <use xlink:href="#m420aea20a5" x="261.771875" y="133.80588" style="stroke: #000000; stroke-width: 0.6"/>
      </g>
     </g>
    </g>
    <g id="ytick_10">
     <g id="line2d_44">
      <g>
       <use xlink:href="#m420aea20a5" x="261.771875" y="129.314287" style="stroke: #000000; stroke-width: 0.6"/>
      </g>
     </g>
    </g>
    <g id="ytick_11">
     <g id="line2d_45">
      <g>
       <use xlink:href="#m420aea20a5" x="261.771875" y="125.352421" style="stroke: #000000; stroke-width: 0.6"/>
      </g>
     </g>
    </g>
    <g id="ytick_12">
     <g id="line2d_46">
      <g>
       <use xlink:href="#m420aea20a5" x="261.771875" y="98.493032" style="stroke: #000000; stroke-width: 0.6"/>
      </g>
     </g>
     <g id="text_21">
      <!-- $\mathdefault{2\times10^{0}}$ -->
      <g transform="translate(220.171875 102.29225) scale(0.1 -0.1)">
       <defs>
        <path id="DejaVuSans-d7" d="M 4488 3438 
L 3059 2003 
L 4488 575 
L 4116 197 
L 2681 1631 
L 1247 197 
L 878 575 
L 2303 2003 
L 878 3438 
L 1247 3816 
L 2681 2381 
L 4116 3816 
L 4488 3438 
z
" transform="scale(0.015625)"/>
       </defs>
       <use xlink:href="#DejaVuSans-32" transform="translate(0 0.765625)"/>
       <use xlink:href="#DejaVuSans-d7" transform="translate(83.105469 0.765625)"/>
       <use xlink:href="#DejaVuSans-31" transform="translate(186.376953 0.765625)"/>
       <use xlink:href="#DejaVuSans-30" transform="translate(250 0.765625)"/>
       <use xlink:href="#DejaVuSans-30" transform="translate(314.580078 39.046875) scale(0.7)"/>
      </g>
     </g>
    </g>
    <g id="ytick_13">
     <g id="line2d_47">
      <g>
       <use xlink:href="#m420aea20a5" x="261.771875" y="84.854409" style="stroke: #000000; stroke-width: 0.6"/>
      </g>
     </g>
     <g id="text_22">
      <!-- $\mathdefault{3\times10^{0}}$ -->
      <g transform="translate(220.171875 88.653628) scale(0.1 -0.1)">
       <use xlink:href="#DejaVuSans-33" transform="translate(0 0.765625)"/>
       <use xlink:href="#DejaVuSans-d7" transform="translate(83.105469 0.765625)"/>
       <use xlink:href="#DejaVuSans-31" transform="translate(186.376953 0.765625)"/>
       <use xlink:href="#DejaVuSans-30" transform="translate(250 0.765625)"/>
       <use xlink:href="#DejaVuSans-30" transform="translate(314.580078 39.046875) scale(0.7)"/>
      </g>
     </g>
    </g>
    <g id="ytick_14">
     <g id="line2d_48">
      <g>
       <use xlink:href="#m420aea20a5" x="261.771875" y="75.177652" style="stroke: #000000; stroke-width: 0.6"/>
      </g>
     </g>
     <g id="text_23">
      <!-- $\mathdefault{4\times10^{0}}$ -->
      <g transform="translate(220.171875 78.976871) scale(0.1 -0.1)">
       <use xlink:href="#DejaVuSans-34" transform="translate(0 0.765625)"/>
       <use xlink:href="#DejaVuSans-d7" transform="translate(83.105469 0.765625)"/>
       <use xlink:href="#DejaVuSans-31" transform="translate(186.376953 0.765625)"/>
       <use xlink:href="#DejaVuSans-30" transform="translate(250 0.765625)"/>
       <use xlink:href="#DejaVuSans-30" transform="translate(314.580078 39.046875) scale(0.7)"/>
      </g>
     </g>
    </g>
    <g id="ytick_15">
     <g id="line2d_49">
      <g>
       <use xlink:href="#m420aea20a5" x="261.771875" y="67.671776" style="stroke: #000000; stroke-width: 0.6"/>
      </g>
     </g>
    </g>
    <g id="text_24">
     <!-- $\frac{\gamma}{\gamma_\mathrm{TPA}}$ -->
     <g transform="translate(210.021875 111.913828) rotate(-90) scale(0.15 -0.15)">
      <use xlink:href="#DejaVuSans-Oblique-3b3" transform="translate(47 58.71875) scale(0.7)"/>
      <use xlink:href="#DejaVuSans-Oblique-3b3" transform="translate(0 -25.370312) scale(0.7)"/>
      <use xlink:href="#DejaVuSans-54" transform="translate(41.425781 -36.854688) scale(0.49)"/>
      <use xlink:href="#DejaVuSans-50" transform="translate(71.356934 -36.854688) scale(0.49)"/>
      <use xlink:href="#DejaVuSans-41" transform="translate(100.905273 -36.854688) scale(0.49)"/>
      <path d="M 0 19.160938 
L 0 25.410938 
L 136.339355 25.410938 
L 136.339355 19.160938 
L 0 19.160938 
z
"/>
     </g>
    </g>
   </g>
   <g id="line2d_50">
    <defs>
     <path id="ma939d00f09" d="M 0 -3 
L -0.673542 -0.927051 
L -2.85317 -0.927051 
L -1.089814 0.354102 
L -1.763356 2.427051 
L -0 1.145898 
L 1.763356 2.427051 
L 1.089814 0.354102 
L 2.85317 -0.927051 
L 0.673542 -0.927051 
z
" style="stroke: #ff0000; stroke-linejoin: bevel"/>
    </defs>
    <g clip-path="url(#pa671f4baa9)">
     <use xlink:href="#ma939d00f09" x="266.680966" y="133.466101" style="fill: #ff0000; stroke: #ff0000; stroke-linejoin: bevel"/>
    </g>
   </g>
   <g id="line2d_51">
    <defs>
     <path id="mab558dcfef" d="M 0 -3 
L -0.673542 -0.927051 
L -2.85317 -0.927051 
L -1.089814 0.354102 
L -1.763356 2.427051 
L -0 1.145898 
L 1.763356 2.427051 
L 1.089814 0.354102 
L 2.85317 -0.927051 
L 0.673542 -0.927051 
z
" style="stroke: #e60000; stroke-linejoin: bevel"/>
    </defs>
    <g clip-path="url(#pa671f4baa9)">
     <use xlink:href="#mab558dcfef" x="277.590057" y="123.029499" style="fill: #e60000; stroke: #e60000; stroke-linejoin: bevel"/>
    </g>
   </g>
   <g id="line2d_52">
    <defs>
     <path id="mcfe51d137d" d="M 0 -3 
L -0.673542 -0.927051 
L -2.85317 -0.927051 
L -1.089814 0.354102 
L -1.763356 2.427051 
L -0 1.145898 
L 1.763356 2.427051 
L 1.089814 0.354102 
L 2.85317 -0.927051 
L 0.673542 -0.927051 
z
" style="stroke: #cc0000; stroke-linejoin: bevel"/>
    </defs>
    <g clip-path="url(#pa671f4baa9)">
     <use xlink:href="#mcfe51d137d" x="288.499148" y="114.494014" style="fill: #cc0000; stroke: #cc0000; stroke-linejoin: bevel"/>
    </g>
   </g>
   <g id="line2d_53">
    <defs>
     <path id="mac1cf1b775" d="M 0 -3 
L -0.673542 -0.927051 
L -2.85317 -0.927051 
L -1.089814 0.354102 
L -1.763356 2.427051 
L -0 1.145898 
L 1.763356 2.427051 
L 1.089814 0.354102 
L 2.85317 -0.927051 
L 0.673542 -0.927051 
z
" style="stroke: #b20000; stroke-linejoin: bevel"/>
    </defs>
    <g clip-path="url(#pa671f4baa9)">
     <use xlink:href="#mac1cf1b775" x="299.408239" y="106.916875" style="fill: #b20000; stroke: #b20000; stroke-linejoin: bevel"/>
    </g>
   </g>
   <g id="line2d_54">
    <defs>
     <path id="m9a3fbd7f74" d="M 0 -3 
L -0.673542 -0.927051 
L -2.85317 -0.927051 
L -1.089814 0.354102 
L -1.763356 2.427051 
L -0 1.145898 
L 1.763356 2.427051 
L 1.089814 0.354102 
L 2.85317 -0.927051 
L 0.673542 -0.927051 
z
" style="stroke: #990000; stroke-linejoin: bevel"/>
    </defs>
    <g clip-path="url(#pa671f4baa9)">
     <use xlink:href="#m9a3fbd7f74" x="310.31733" y="99.889649" style="fill: #990000; stroke: #990000; stroke-linejoin: bevel"/>
    </g>
   </g>
   <g id="line2d_55">
    <defs>
     <path id="md868ceadf0" d="M 0 -3 
L -0.673542 -0.927051 
L -2.85317 -0.927051 
L -1.089814 0.354102 
L -1.763356 2.427051 
L -0 1.145898 
L 1.763356 2.427051 
L 1.089814 0.354102 
L 2.85317 -0.927051 
L 0.673542 -0.927051 
z
" style="stroke: #800000; stroke-linejoin: bevel"/>
    </defs>
    <g clip-path="url(#pa671f4baa9)">
     <use xlink:href="#md868ceadf0" x="321.22642" y="93.201257" style="fill: #800000; stroke: #800000; stroke-linejoin: bevel"/>
    </g>
   </g>
   <g id="line2d_56">
    <defs>
     <path id="ma005aa1813" d="M 0 -3 
L -0.673542 -0.927051 
L -2.85317 -0.927051 
L -1.089814 0.354102 
L -1.763356 2.427051 
L -0 1.145898 
L 1.763356 2.427051 
L 1.089814 0.354102 
L 2.85317 -0.927051 
L 0.673542 -0.927051 
z
" style="stroke: #660000; stroke-linejoin: bevel"/>
    </defs>
    <g clip-path="url(#pa671f4baa9)">
     <use xlink:href="#ma005aa1813" x="332.135511" y="86.730805" style="fill: #660000; stroke: #660000; stroke-linejoin: bevel"/>
    </g>
   </g>
   <g id="line2d_57">
    <defs>
     <path id="m6f0e9fd14b" d="M 0 -3 
L -0.673542 -0.927051 
L -2.85317 -0.927051 
L -1.089814 0.354102 
L -1.763356 2.427051 
L -0 1.145898 
L 1.763356 2.427051 
L 1.089814 0.354102 
L 2.85317 -0.927051 
L 0.673542 -0.927051 
z
" style="stroke: #4d0000; stroke-linejoin: bevel"/>
    </defs>
    <g clip-path="url(#pa671f4baa9)">
     <use xlink:href="#m6f0e9fd14b" x="343.044602" y="80.404413" style="fill: #4d0000; stroke: #4d0000; stroke-linejoin: bevel"/>
    </g>
   </g>
   <g id="line2d_58">
    <defs>
     <path id="m23aed98a56" d="M 0 -3 
L -0.673542 -0.927051 
L -2.85317 -0.927051 
L -1.089814 0.354102 
L -1.763356 2.427051 
L -0 1.145898 
L 1.763356 2.427051 
L 1.089814 0.354102 
L 2.85317 -0.927051 
L 0.673542 -0.927051 
z
" style="stroke: #330000; stroke-linejoin: bevel"/>
    </defs>
    <g clip-path="url(#pa671f4baa9)">
     <use xlink:href="#m23aed98a56" x="353.953693" y="74.174969" style="fill: #330000; stroke: #330000; stroke-linejoin: bevel"/>
    </g>
   </g>
   <g id="line2d_59">
    <defs>
     <path id="m36c7946320" d="M 0 -3 
L -0.673542 -0.927051 
L -2.85317 -0.927051 
L -1.089814 0.354102 
L -1.763356 2.427051 
L -0 1.145898 
L 1.763356 2.427051 
L 1.089814 0.354102 
L 2.85317 -0.927051 
L 0.673542 -0.927051 
z
" style="stroke: #190000; stroke-linejoin: bevel"/>
    </defs>
    <g clip-path="url(#pa671f4baa9)">
     <use xlink:href="#m36c7946320" x="364.862784" y="68.011555" style="fill: #190000; stroke: #190000; stroke-linejoin: bevel"/>
    </g>
   </g>
   <g id="patch_8">
    <path d="M 261.771875 136.738828 
L 261.771875 64.738828 
" style="fill: none; stroke: #000000; stroke-width: 0.8; stroke-linejoin: miter; stroke-linecap: square"/>
   </g>
   <g id="patch_9">
    <path d="M 369.771875 136.738828 
L 369.771875 64.738828 
" style="fill: none; stroke: #000000; stroke-width: 0.8; stroke-linejoin: miter; stroke-linecap: square"/>
   </g>
   <g id="patch_10">
    <path d="M 261.771875 136.738828 
L 369.771875 136.738828 
" style="fill: none; stroke: #000000; stroke-width: 0.8; stroke-linejoin: miter; stroke-linecap: square"/>
   </g>
   <g id="patch_11">
    <path d="M 261.771875 64.738828 
L 369.771875 64.738828 
" style="fill: none; stroke: #000000; stroke-width: 0.8; stroke-linejoin: miter; stroke-linecap: square"/>
   </g>
  </g>
 </g>
 <defs>
  <clipPath id="p0f53c6193f">
   <rect x="56.571875" y="12.898828" width="334.8" height="217.44"/>
  </clipPath>
  <clipPath id="pa671f4baa9">
   <rect x="261.771875" y="64.738828" width="108" height="72"/>
  </clipPath>
 </defs>
</svg>
