<?xml version="1.0" encoding="utf-8" standalone="no"?>
<!DOCTYPE svg PUBLIC "-//W3C//DTD SVG 1.1//EN"
  "http://www.w3.org/Graphics/SVG/1.1/DTD/svg11.dtd">
<svg xmlns:xlink="http://www.w3.org/1999/xlink" width="399.16354pt" height="271.113539pt" viewBox="0 0 399.16354 271.113539" xmlns="http://www.w3.org/2000/svg" version="1.1">
 <metadata>
  <rdf:RDF xmlns:dc="http://purl.org/dc/elements/1.1/" xmlns:cc="http://creativecommons.org/ns#" xmlns:rdf="http://www.w3.org/1999/02/22-rdf-syntax-ns#">
   <cc:Work>
    <dc:type rdf:resource="http://purl.org/dc/dcmitype/StillImage"/>
    <dc:date>2026-01-20T22:02:00.630942</dc:date>
    <dc:format>image/svg+xml</dc:format>
    <dc:creator>
     <cc:Agent>
      <dc:title>Matplotlib v3.6.3, https://matplotlib.org/</dc:title>
     </cc:Agent>
    </dc:creator>
   </cc:Work>
  </rdf:RDF>
 </metadata>
 <defs>
  <style type="text/css">*{stroke-linejoin: round; stroke-linecap: butt}</style>
 </defs>
 <g id="figure_1">
  <g id="patch_1">
   <path d="M 0 271.113539 
L 399.16354 271.113539 
L 399.16354 0 
L 0 0 
L 0 271.113539 
z
" style="fill: none"/>
  </g>
  <g id="axes_1">
   <g id="patch_2">
    <path d="M 52.153551 107.24263 
L 204.335369 107.24263 
L 204.335369 8.406266 
L 52.153551 8.406266 
z
" style="fill: #ffffff"/>
   </g>
   <g id="matplotlib.axis_1">
    <g id="xtick_1">
     <g id="line2d_1">
      <defs>
       <path id="me0e02e6900" d="M 0 0 
L 0 3.5 
" style="stroke: #000000; stroke-width: 0.8"/>
      </defs>
      <g>
       <use xlink:href="#me0e02e6900" x="59.070907" y="107.24263" style="stroke: #000000; stroke-width: 0.8"/>
      </g>
     </g>
    </g>
    <g id="xtick_2">
     <g id="line2d_2">
      <g>
       <use xlink:href="#me0e02e6900" x="128.24446" y="107.24263" style="stroke: #000000; stroke-width: 0.8"/>
      </g>
     </g>
    </g>
    <g id="xtick_3">
     <g id="line2d_3">
      <g>
       <use xlink:href="#me0e02e6900" x="197.418014" y="107.24263" style="stroke: #000000; stroke-width: 0.8"/>
      </g>
     </g>
    </g>
   </g>
   <g id="matplotlib.axis_2">
    <g id="ytick_1">
     <g id="line2d_4">
      <defs>
       <path id="m712f27f190" d="M 0 0 
L -3.5 0 
" style="stroke: #000000; stroke-width: 0.8"/>
      </defs>
      <g>
       <use xlink:href="#m712f27f190" x="52.153551" y="102.750068" style="stroke: #000000; stroke-width: 0.8"/>
      </g>
     </g>
     <g id="text_1">
      <!-- 0.0 -->
      <g transform="translate(21.298864 108.448896) scale(0.15 -0.15)">
       <defs>
        <path id="DejaVuSans-30" d="M 2034 4250 
Q 1547 4250 1301 3770 
Q 1056 3291 1056 2328 
Q 1056 1369 1301 889 
Q 1547 409 2034 409 
Q 2525 409 2770 889 
Q 3016 1369 3016 2328 
Q 3016 3291 2770 3770 
Q 2525 4250 2034 4250 
z
M 2034 4750 
Q 2819 4750 3233 4129 
Q 3647 3509 3647 2328 
Q 3647 1150 3233 529 
Q 2819 -91 2034 -91 
Q 1250 -91 836 529 
Q 422 1150 422 2328 
Q 422 3509 836 4129 
Q 1250 4750 2034 4750 
z
" transform="scale(0.015625)"/>
        <path id="DejaVuSans-2e" d="M 684 794 
L 1344 794 
L 1344 0 
L 684 0 
L 684 794 
z
" transform="scale(0.015625)"/>
       </defs>
       <use xlink:href="#DejaVuSans-30"/>
       <use xlink:href="#DejaVuSans-2e" x="63.623047"/>
       <use xlink:href="#DejaVuSans-30" x="95.410156"/>
      </g>
     </g>
    </g>
    <g id="ytick_2">
     <g id="line2d_5">
      <g>
       <use xlink:href="#m712f27f190" x="52.153551" y="57.824448" style="stroke: #000000; stroke-width: 0.8"/>
      </g>
     </g>
     <g id="text_2">
      <!-- 0.5 -->
      <g transform="translate(21.298864 63.523276) scale(0.15 -0.15)">
       <defs>
        <path id="DejaVuSans-35" d="M 691 4666 
L 3169 4666 
L 3169 4134 
L 1269 4134 
L 1269 2991 
Q 1406 3038 1543 3061 
Q 1681 3084 1819 3084 
Q 2600 3084 3056 2656 
Q 3513 2228 3513 1497 
Q 3513 744 3044 326 
Q 2575 -91 1722 -91 
Q 1428 -91 1123 -41 
Q 819 9 494 109 
L 494 744 
Q 775 591 1075 516 
Q 1375 441 1709 441 
Q 2250 441 2565 725 
Q 2881 1009 2881 1497 
Q 2881 1984 2565 2268 
Q 2250 2553 1709 2553 
Q 1456 2553 1204 2497 
Q 953 2441 691 2322 
L 691 4666 
z
" transform="scale(0.015625)"/>
       </defs>
       <use xlink:href="#DejaVuSans-30"/>
       <use xlink:href="#DejaVuSans-2e" x="63.623047"/>
       <use xlink:href="#DejaVuSans-35" x="95.410156"/>
      </g>
     </g>
    </g>
    <g id="ytick_3">
     <g id="line2d_6">
      <g>
       <use xlink:href="#m712f27f190" x="52.153551" y="12.898828" style="stroke: #000000; stroke-width: 0.8"/>
      </g>
     </g>
     <g id="text_3">
      <!-- 1.0 -->
      <g transform="translate(21.298864 18.597656) scale(0.15 -0.15)">
       <defs>
        <path id="DejaVuSans-31" d="M 794 531 
L 1825 531 
L 1825 4091 
L 703 3866 
L 703 4441 
L 1819 4666 
L 2450 4666 
L 2450 531 
L 3481 531 
L 3481 0 
L 794 0 
L 794 531 
z
" transform="scale(0.015625)"/>
       </defs>
       <use xlink:href="#DejaVuSans-31"/>
       <use xlink:href="#DejaVuSans-2e" x="63.623047"/>
       <use xlink:href="#DejaVuSans-30" x="95.410156"/>
      </g>
     </g>
    </g>
    <g id="text_4">
     <!-- Photon Number Probabilities -->
     <g transform="translate(18.597656 233.862637) rotate(-90) scale(0.15 -0.15)">
      <defs>
       <path id="DejaVuSans-50" d="M 1259 4147 
L 1259 2394 
L 2053 2394 
Q 2494 2394 2734 2622 
Q 2975 2850 2975 3272 
Q 2975 3691 2734 3919 
Q 2494 4147 2053 4147 
L 1259 4147 
z
M 628 4666 
L 2053 4666 
Q 2838 4666 3239 4311 
Q 3641 3956 3641 3272 
Q 3641 2581 3239 2228 
Q 2838 1875 2053 1875 
L 1259 1875 
L 1259 0 
L 628 0 
L 628 4666 
z
" transform="scale(0.015625)"/>
       <path id="DejaVuSans-68" d="M 3513 2113 
L 3513 0 
L 2938 0 
L 2938 2094 
Q 2938 2591 2744 2837 
Q 2550 3084 2163 3084 
Q 1697 3084 1428 2787 
Q 1159 2491 1159 1978 
L 1159 0 
L 581 0 
L 581 4863 
L 1159 4863 
L 1159 2956 
Q 1366 3272 1645 3428 
Q 1925 3584 2291 3584 
Q 2894 3584 3203 3211 
Q 3513 2838 3513 2113 
z
" transform="scale(0.015625)"/>
       <path id="DejaVuSans-6f" d="M 1959 3097 
Q 1497 3097 1228 2736 
Q 959 2375 959 1747 
Q 959 1119 1226 758 
Q 1494 397 1959 397 
Q 2419 397 2687 759 
Q 2956 1122 2956 1747 
Q 2956 2369 2687 2733 
Q 2419 3097 1959 3097 
z
M 1959 3584 
Q 2709 3584 3137 3096 
Q 3566 2609 3566 1747 
Q 3566 888 3137 398 
Q 2709 -91 1959 -91 
Q 1206 -91 779 398 
Q 353 888 353 1747 
Q 353 2609 779 3096 
Q 1206 3584 1959 3584 
z
" transform="scale(0.015625)"/>
       <path id="DejaVuSans-74" d="M 1172 4494 
L 1172 3500 
L 2356 3500 
L 2356 3053 
L 1172 3053 
L 1172 1153 
Q 1172 725 1289 603 
Q 1406 481 1766 481 
L 2356 481 
L 2356 0 
L 1766 0 
Q 1100 0 847 248 
Q 594 497 594 1153 
L 594 3053 
L 172 3053 
L 172 3500 
L 594 3500 
L 594 4494 
L 1172 4494 
z
" transform="scale(0.015625)"/>
       <path id="DejaVuSans-6e" d="M 3513 2113 
L 3513 0 
L 2938 0 
L 2938 2094 
Q 2938 2591 2744 2837 
Q 2550 3084 2163 3084 
Q 1697 3084 1428 2787 
Q 1159 2491 1159 1978 
L 1159 0 
L 581 0 
L 581 3500 
L 1159 3500 
L 1159 2956 
Q 1366 3272 1645 3428 
Q 1925 3584 2291 3584 
Q 2894 3584 3203 3211 
Q 3513 2838 3513 2113 
z
" transform="scale(0.015625)"/>
       <path id="DejaVuSans-20" transform="scale(0.015625)"/>
       <path id="DejaVuSans-4e" d="M 628 4666 
L 1478 4666 
L 3547 763 
L 3547 4666 
L 4159 4666 
L 4159 0 
L 3309 0 
L 1241 3903 
L 1241 0 
L 628 0 
L 628 4666 
z
" transform="scale(0.015625)"/>
       <path id="DejaVuSans-75" d="M 544 1381 
L 544 3500 
L 1119 3500 
L 1119 1403 
Q 1119 906 1312 657 
Q 1506 409 1894 409 
Q 2359 409 2629 706 
Q 2900 1003 2900 1516 
L 2900 3500 
L 3475 3500 
L 3475 0 
L 2900 0 
L 2900 538 
Q 2691 219 2414 64 
Q 2138 -91 1772 -91 
Q 1169 -91 856 284 
Q 544 659 544 1381 
z
M 1991 3584 
L 1991 3584 
z
" transform="scale(0.015625)"/>
       <path id="DejaVuSans-6d" d="M 3328 2828 
Q 3544 3216 3844 3400 
Q 4144 3584 4550 3584 
Q 5097 3584 5394 3201 
Q 5691 2819 5691 2113 
L 5691 0 
L 5113 0 
L 5113 2094 
Q 5113 2597 4934 2840 
Q 4756 3084 4391 3084 
Q 3944 3084 3684 2787 
Q 3425 2491 3425 1978 
L 3425 0 
L 2847 0 
L 2847 2094 
Q 2847 2600 2669 2842 
Q 2491 3084 2119 3084 
Q 1678 3084 1418 2786 
Q 1159 2488 1159 1978 
L 1159 0 
L 581 0 
L 581 3500 
L 1159 3500 
L 1159 2956 
Q 1356 3278 1631 3431 
Q 1906 3584 2284 3584 
Q 2666 3584 2933 3390 
Q 3200 3197 3328 2828 
z
" transform="scale(0.015625)"/>
       <path id="DejaVuSans-62" d="M 3116 1747 
Q 3116 2381 2855 2742 
Q 2594 3103 2138 3103 
Q 1681 3103 1420 2742 
Q 1159 2381 1159 1747 
Q 1159 1113 1420 752 
Q 1681 391 2138 391 
Q 2594 391 2855 752 
Q 3116 1113 3116 1747 
z
M 1159 2969 
Q 1341 3281 1617 3432 
Q 1894 3584 2278 3584 
Q 2916 3584 3314 3078 
Q 3713 2572 3713 1747 
Q 3713 922 3314 415 
Q 2916 -91 2278 -91 
Q 1894 -91 1617 61 
Q 1341 213 1159 525 
L 1159 0 
L 581 0 
L 581 4863 
L 1159 4863 
L 1159 2969 
z
" transform="scale(0.015625)"/>
       <path id="DejaVuSans-65" d="M 3597 1894 
L 3597 1613 
L 953 1613 
Q 991 1019 1311 708 
Q 1631 397 2203 397 
Q 2534 397 2845 478 
Q 3156 559 3463 722 
L 3463 178 
Q 3153 47 2828 -22 
Q 2503 -91 2169 -91 
Q 1331 -91 842 396 
Q 353 884 353 1716 
Q 353 2575 817 3079 
Q 1281 3584 2069 3584 
Q 2775 3584 3186 3129 
Q 3597 2675 3597 1894 
z
M 3022 2063 
Q 3016 2534 2758 2815 
Q 2500 3097 2075 3097 
Q 1594 3097 1305 2825 
Q 1016 2553 972 2059 
L 3022 2063 
z
" transform="scale(0.015625)"/>
       <path id="DejaVuSans-72" d="M 2631 2963 
Q 2534 3019 2420 3045 
Q 2306 3072 2169 3072 
Q 1681 3072 1420 2755 
Q 1159 2438 1159 1844 
L 1159 0 
L 581 0 
L 581 3500 
L 1159 3500 
L 1159 2956 
Q 1341 3275 1631 3429 
Q 1922 3584 2338 3584 
Q 2397 3584 2469 3576 
Q 2541 3569 2628 3553 
L 2631 2963 
z
" transform="scale(0.015625)"/>
       <path id="DejaVuSans-61" d="M 2194 1759 
Q 1497 1759 1228 1600 
Q 959 1441 959 1056 
Q 959 750 1161 570 
Q 1363 391 1709 391 
Q 2188 391 2477 730 
Q 2766 1069 2766 1631 
L 2766 1759 
L 2194 1759 
z
M 3341 1997 
L 3341 0 
L 2766 0 
L 2766 531 
Q 2569 213 2275 61 
Q 1981 -91 1556 -91 
Q 1019 -91 701 211 
Q 384 513 384 1019 
Q 384 1609 779 1909 
Q 1175 2209 1959 2209 
L 2766 2209 
L 2766 2266 
Q 2766 2663 2505 2880 
Q 2244 3097 1772 3097 
Q 1472 3097 1187 3025 
Q 903 2953 641 2809 
L 641 3341 
Q 956 3463 1253 3523 
Q 1550 3584 1831 3584 
Q 2591 3584 2966 3190 
Q 3341 2797 3341 1997 
z
" transform="scale(0.015625)"/>
       <path id="DejaVuSans-69" d="M 603 3500 
L 1178 3500 
L 1178 0 
L 603 0 
L 603 3500 
z
M 603 4863 
L 1178 4863 
L 1178 4134 
L 603 4134 
L 603 4863 
z
" transform="scale(0.015625)"/>
       <path id="DejaVuSans-6c" d="M 603 4863 
L 1178 4863 
L 1178 0 
L 603 0 
L 603 4863 
z
" transform="scale(0.015625)"/>
       <path id="DejaVuSans-73" d="M 2834 3397 
L 2834 2853 
Q 2591 2978 2328 3040 
Q 2066 3103 1784 3103 
Q 1356 3103 1142 2972 
Q 928 2841 928 2578 
Q 928 2378 1081 2264 
Q 1234 2150 1697 2047 
L 1894 2003 
Q 2506 1872 2764 1633 
Q 3022 1394 3022 966 
Q 3022 478 2636 193 
Q 2250 -91 1575 -91 
Q 1294 -91 989 -36 
Q 684 19 347 128 
L 347 722 
Q 666 556 975 473 
Q 1284 391 1588 391 
Q 1994 391 2212 530 
Q 2431 669 2431 922 
Q 2431 1156 2273 1281 
Q 2116 1406 1581 1522 
L 1381 1569 
Q 847 1681 609 1914 
Q 372 2147 372 2553 
Q 372 3047 722 3315 
Q 1072 3584 1716 3584 
Q 2034 3584 2315 3537 
Q 2597 3491 2834 3397 
z
" transform="scale(0.015625)"/>
      </defs>
      <use xlink:href="#DejaVuSans-50"/>
      <use xlink:href="#DejaVuSans-68" x="60.302734"/>
      <use xlink:href="#DejaVuSans-6f" x="123.681641"/>
      <use xlink:href="#DejaVuSans-74" x="184.863281"/>
      <use xlink:href="#DejaVuSans-6f" x="224.072266"/>
      <use xlink:href="#DejaVuSans-6e" x="285.253906"/>
      <use xlink:href="#DejaVuSans-20" x="348.632812"/>
      <use xlink:href="#DejaVuSans-4e" x="380.419922"/>
      <use xlink:href="#DejaVuSans-75" x="455.224609"/>
      <use xlink:href="#DejaVuSans-6d" x="518.603516"/>
      <use xlink:href="#DejaVuSans-62" x="616.015625"/>
      <use xlink:href="#DejaVuSans-65" x="679.492188"/>
      <use xlink:href="#DejaVuSans-72" x="741.015625"/>
      <use xlink:href="#DejaVuSans-20" x="782.128906"/>
      <use xlink:href="#DejaVuSans-50" x="813.916016"/>
      <use xlink:href="#DejaVuSans-72" x="872.46875"/>
      <use xlink:href="#DejaVuSans-6f" x="911.332031"/>
      <use xlink:href="#DejaVuSans-62" x="972.513672"/>
      <use xlink:href="#DejaVuSans-61" x="1035.990234"/>
      <use xlink:href="#DejaVuSans-62" x="1097.269531"/>
      <use xlink:href="#DejaVuSans-69" x="1160.746094"/>
      <use xlink:href="#DejaVuSans-6c" x="1188.529297"/>
      <use xlink:href="#DejaVuSans-69" x="1216.3125"/>
      <use xlink:href="#DejaVuSans-74" x="1244.095703"/>
      <use xlink:href="#DejaVuSans-69" x="1283.304688"/>
      <use xlink:href="#DejaVuSans-65" x="1311.087891"/>
      <use xlink:href="#DejaVuSans-73" x="1372.611328"/>
     </g>
    </g>
   </g>
   <g id="line2d_7">
    <path d="M 59.070907 102.750068 
L 68.803869 102.647979 
L 72.279927 102.417698 
L 75.755985 101.948055 
L 78.536831 101.339301 
L 81.317678 100.483097 
L 84.098524 99.356821 
L 86.87937 97.955592 
L 89.660217 96.294357 
L 93.136275 93.90732 
L 97.307544 90.735353 
L 104.954872 84.869789 
L 107.735718 82.993591 
L 110.516565 81.375399 
L 112.602199 80.367815 
L 114.687834 79.558988 
L 116.773469 78.962763 
L 118.859104 78.587102 
L 120.944738 78.434089 
L 123.030373 78.500162 
L 125.116008 78.776542 
L 127.201643 79.24983 
L 129.982489 80.156823 
L 132.763336 81.333605 
L 136.239394 83.099347 
L 140.410663 85.501182 
L 152.22926 92.503292 
L 156.40053 94.645354 
L 159.876588 96.211855 
L 163.352646 97.56563 
L 166.828704 98.708022 
L 170.999973 99.816747 
L 175.171243 100.6708 
L 179.342512 101.309862 
L 184.208994 101.838319 
L 190.465898 102.2657 
L 197.418014 102.523719 
L 197.418014 102.523719 
" clip-path="url(#p74e3e110bd)" style="fill: none; stroke: #000000; stroke-opacity: 0.5; stroke-width: 1.5; stroke-linecap: square"/>
   </g>
   <g id="line2d_8">
    <path d="M 59.070907 102.750068 
L 78.536831 102.658183 
L 83.403312 102.436038 
L 87.574582 102.025783 
L 91.05064 101.453874 
L 94.526698 100.616783 
L 97.307544 99.730734 
L 100.088391 98.643388 
L 103.564449 97.010324 
L 107.040507 95.112955 
L 111.906988 92.161063 
L 118.859104 87.903725 
L 122.335162 86.035817 
L 125.116008 84.77579 
L 127.896854 83.777389 
L 129.982489 83.222359 
L 132.068124 82.844685 
L 134.153759 82.649261 
L 136.239394 82.636145 
L 138.325028 82.800767 
L 141.105875 83.280955 
L 143.886721 84.030101 
L 146.667567 85.008266 
L 150.143625 86.482711 
L 155.010107 88.845661 
L 165.438281 94.049058 
L 169.60955 95.876485 
L 173.78082 97.462082 
L 177.952089 98.78586 
L 182.123359 99.852595 
L 186.294628 100.684244 
L 191.16111 101.400172 
L 196.722802 101.95244 
L 197.418014 102.005409 
L 197.418014 102.005409 
" clip-path="url(#p74e3e110bd)" style="fill: none; stroke: #000000; stroke-opacity: 0.5; stroke-width: 1.5; stroke-linecap: square"/>
   </g>
   <g id="line2d_9">
    <path d="M 59.070907 102.750068 
L 88.965005 102.643579 
L 94.526698 102.404349 
L 98.697967 102.033888 
L 102.174025 101.540151 
L 105.650083 100.834016 
L 109.126141 99.884282 
L 112.602199 98.677459 
L 116.078257 97.224094 
L 120.249527 95.210315 
L 134.153759 88.141938 
L 136.934605 87.057294 
L 139.715452 86.195921 
L 142.496298 85.590094 
L 145.277144 85.259645 
L 148.057991 85.211136 
L 150.838837 85.438046 
L 153.619683 85.921895 
L 156.40053 86.634124 
L 159.876588 87.789882 
L 164.047857 89.458424 
L 171.695185 92.859496 
L 177.952089 95.527656 
L 182.81857 97.334437 
L 186.98984 98.641034 
L 191.16111 99.713794 
L 195.332379 100.563905 
L 197.418014 100.912696 
L 197.418014 100.912696 
" clip-path="url(#p74e3e110bd)" style="fill: none; stroke: #000000; stroke-opacity: 0.5; stroke-width: 1.5; stroke-linecap: square"/>
   </g>
   <g id="line2d_10">
    <path d="M 59.070907 102.750068 
L 98.002756 102.650123 
L 104.25966 102.411893 
L 109.126141 102.009555 
L 113.297411 101.432601 
L 116.773469 100.743549 
L 120.249527 99.839712 
L 123.725585 98.713671 
L 127.896854 97.089935 
L 132.763336 94.911938 
L 142.496298 90.433131 
L 145.972356 89.09797 
L 148.753202 88.228048 
L 151.534049 87.572108 
L 154.314895 87.154323 
L 157.095741 86.987338 
L 159.876588 87.071854 
L 162.657434 87.397116 
L 165.438281 87.942198 
L 168.914339 88.887625 
L 173.085608 90.316595 
L 178.647301 92.505446 
L 187.685052 96.072807 
L 192.551533 97.735258 
L 196.722802 98.942758 
L 197.418014 99.123241 
L 197.418014 99.123241 
" clip-path="url(#p74e3e110bd)" style="fill: none; stroke: #000000; stroke-opacity: 0.5; stroke-width: 1.5; stroke-linecap: square"/>
   </g>
   <g id="line2d_11">
    <path d="M 59.070907 102.750068 
L 107.040507 102.643746 
L 113.992623 102.377017 
L 118.859104 101.975232 
L 123.030373 101.416287 
L 127.201643 100.60741 
L 130.677701 99.719613 
L 134.84897 98.395942 
L 139.02024 96.825103 
L 145.277144 94.188506 
L 151.534049 91.597907 
L 155.010107 90.361346 
L 158.486165 89.370682 
L 161.267011 88.797434 
L 164.047857 88.442942 
L 166.828704 88.318063 
L 169.60955 88.422732 
L 172.390397 88.746418 
L 175.171243 89.269316 
L 178.647301 90.160953 
L 182.81857 91.493784 
L 189.075475 93.777971 
L 196.722802 96.550078 
L 197.418014 96.784177 
L 197.418014 96.784177 
" clip-path="url(#p74e3e110bd)" style="fill: none; stroke: #000000; stroke-opacity: 0.5; stroke-width: 1.5; stroke-linecap: square"/>
   </g>
   <g id="line2d_12">
    <path d="M 59.070907 102.750068 
L 115.383046 102.641452 
L 122.335162 102.389063 
L 127.201643 102.017411 
L 131.372912 101.505501 
L 135.544182 100.768212 
L 139.715452 99.776922 
L 143.886721 98.530395 
L 148.753202 96.802714 
L 163.352646 91.342798 
L 166.828704 90.405224 
L 169.60955 89.854062 
L 172.390397 89.503236 
L 175.171243 89.364321 
L 177.952089 89.43877 
L 180.732936 89.718197 
L 184.208994 90.328754 
L 187.685052 91.183003 
L 191.856321 92.443781 
L 197.418014 94.338499 
L 197.418014 94.338499 
" clip-path="url(#p74e3e110bd)" style="fill: none; stroke: #000000; stroke-opacity: 0.5; stroke-width: 1.5; stroke-linecap: square"/>
   </g>
   <g id="line2d_13">
    <path d="M 59.070907 102.750068 
L 123.030373 102.644085 
L 129.982489 102.409462 
L 135.544182 102.002998 
L 140.410663 101.400911 
L 144.581933 100.652537 
L 148.753202 99.666832 
L 152.924472 98.450117 
L 157.790953 96.79531 
L 170.304762 92.379774 
L 173.78082 91.433143 
L 177.256878 90.731016 
L 180.037724 90.3752 
L 182.81857 90.216515 
L 185.599417 90.258001 
L 188.380263 90.493368 
L 191.856321 91.036949 
L 195.332379 91.815637 
L 197.418014 92.37271 
L 197.418014 92.37271 
" clip-path="url(#p74e3e110bd)" style="fill: none; stroke: #000000; stroke-opacity: 0.5; stroke-width: 1.5; stroke-linecap: square"/>
   </g>
   <g id="line2d_14">
    <path d="M 59.070907 102.750068 
L 129.982489 102.651937 
L 137.629817 102.406169 
L 143.19151 102.011255 
L 148.057991 101.43327 
L 152.22926 100.720159 
L 156.40053 99.785562 
L 160.571799 98.636076 
L 166.133492 96.841055 
L 177.256878 93.131307 
L 181.428147 92.045591 
L 184.904205 91.390868 
L 187.685052 91.061407 
L 190.465898 90.917942 
L 193.246744 90.963295 
L 196.722802 91.275605 
L 197.418014 91.370022 
L 197.418014 91.370022 
" clip-path="url(#p74e3e110bd)" style="fill: none; stroke: #000000; stroke-opacity: 0.5; stroke-width: 1.5; stroke-linecap: square"/>
   </g>
   <g id="line2d_15">
    <path d="M 59.070907 102.750068 
L 137.629817 102.640627 
L 145.277144 102.38374 
L 150.838837 101.982274 
L 155.705318 101.405027 
L 159.876588 100.701913 
L 164.047857 99.789931 
L 168.914339 98.476439 
L 175.171243 96.50712 
L 183.513782 93.863815 
L 187.685052 92.779915 
L 191.16111 92.098982 
L 194.637168 91.667081 
L 197.418014 91.518413 
L 197.418014 91.518413 
" clip-path="url(#p74e3e110bd)" style="fill: none; stroke: #000000; stroke-opacity: 0.5; stroke-width: 1.5; stroke-linecap: square"/>
   </g>
   <g id="line2d_16">
    <path d="M 59.070907 102.750068 
L 143.886721 102.649187 
L 151.534049 102.415087 
L 157.095741 102.048858 
L 161.962223 101.520307 
L 166.828704 100.746572 
L 170.999973 99.86974 
L 175.866454 98.611922 
L 182.123359 96.733679 
L 190.465898 94.22487 
L 194.637168 93.201748 
L 197.418014 92.672614 
L 197.418014 92.672614 
" clip-path="url(#p74e3e110bd)" style="fill: none; stroke: #000000; stroke-opacity: 0.5; stroke-width: 1.5; stroke-linecap: square"/>
   </g>
   <g id="line2d_17">
    <path d="M 59.070907 102.750068 
L 150.838837 102.640381 
L 158.486165 102.397676 
L 164.047857 102.025911 
L 168.914339 101.496816 
L 173.78082 100.730967 
L 178.647301 99.709927 
L 183.513782 98.457235 
L 191.856321 96.012589 
L 197.418014 94.461694 
L 197.418014 94.461694 
" clip-path="url(#p74e3e110bd)" style="fill: none; stroke: #000000; stroke-opacity: 0.5; stroke-width: 1.5; stroke-linecap: square"/>
   </g>
   <g id="line2d_18">
    <path d="M 59.070907 102.750068 
L 157.095741 102.639714 
L 164.743069 102.401591 
L 170.304762 102.040165 
L 175.171243 101.528403 
L 180.037724 100.790135 
L 184.904205 99.80813 
L 190.465898 98.418807 
L 197.418014 96.457532 
L 197.418014 96.457532 
" clip-path="url(#p74e3e110bd)" style="fill: none; stroke: #000000; stroke-opacity: 0.5; stroke-width: 1.5; stroke-linecap: square"/>
   </g>
   <g id="line2d_19">
    <path d="M 59.070907 102.750068 
L 162.657434 102.647347 
L 170.999973 102.394498 
L 177.256878 101.973944 
L 182.123359 101.438763 
L 186.98984 100.680713 
L 191.856321 99.68989 
L 197.418014 98.314008 
L 197.418014 98.314008 
" clip-path="url(#p74e3e110bd)" style="fill: none; stroke: #000000; stroke-opacity: 0.5; stroke-width: 1.5; stroke-linecap: square"/>
   </g>
   <g id="line2d_20">
    <path d="M 59.070907 102.750068 
L 168.914339 102.639508 
L 177.256878 102.377392 
L 183.513782 101.949348 
L 188.380263 101.411221 
L 193.246744 100.656401 
L 197.418014 99.831257 
L 197.418014 99.831257 
" clip-path="url(#p74e3e110bd)" style="fill: none; stroke: #000000; stroke-opacity: 0.5; stroke-width: 1.5; stroke-linecap: square"/>
   </g>
   <g id="line2d_21">
    <path d="M 59.070907 102.750068 
L 174.476031 102.640605 
L 182.81857 102.384941 
L 189.075475 101.969564 
L 194.637168 101.357626 
L 197.418014 100.949599 
L 197.418014 100.949599 
" clip-path="url(#p74e3e110bd)" style="fill: none; stroke: #000000; stroke-opacity: 0.5; stroke-width: 1.5; stroke-linecap: square"/>
   </g>
   <g id="line2d_22">
    <path d="M 59.070907 102.750068 
L 179.342512 102.650373 
L 187.685052 102.415907 
L 193.941956 102.03198 
L 197.418014 101.704779 
L 197.418014 101.704779 
" clip-path="url(#p74e3e110bd)" style="fill: none; stroke: #000000; stroke-opacity: 0.5; stroke-width: 1.5; stroke-linecap: square"/>
   </g>
   <g id="line2d_23">
    <path d="M 59.070907 102.750068 
L 184.904205 102.646237 
L 193.246744 102.407938 
L 197.418014 102.176924 
L 197.418014 102.176924 
" clip-path="url(#p74e3e110bd)" style="fill: none; stroke: #000000; stroke-opacity: 0.5; stroke-width: 1.5; stroke-linecap: square"/>
   </g>
   <g id="line2d_24">
    <path d="M 59.070907 102.750068 
L 190.465898 102.639685 
L 197.418014 102.452347 
L 197.418014 102.452347 
" clip-path="url(#p74e3e110bd)" style="fill: none; stroke: #000000; stroke-opacity: 0.5; stroke-width: 1.5; stroke-linecap: square"/>
   </g>
   <g id="line2d_25">
    <path d="M 59.070907 102.750068 
L 195.332379 102.642555 
L 197.418014 102.603148 
L 197.418014 102.603148 
" clip-path="url(#p74e3e110bd)" style="fill: none; stroke: #000000; stroke-opacity: 0.5; stroke-width: 1.5; stroke-linecap: square"/>
   </g>
   <g id="line2d_26">
    <path d="M 59.070907 102.750068 
L 197.418014 102.681019 
L 197.418014 102.681019 
" clip-path="url(#p74e3e110bd)" style="fill: none; stroke: #000000; stroke-opacity: 0.5; stroke-width: 1.5; stroke-linecap: square"/>
   </g>
   <g id="line2d_27">
    <path d="M 59.070907 102.750068 
L 197.418014 102.71909 
L 197.418014 102.71909 
" clip-path="url(#p74e3e110bd)" style="fill: none; stroke: #000000; stroke-opacity: 0.5; stroke-width: 1.5; stroke-linecap: square"/>
   </g>
   <g id="line2d_28">
    <path d="M 59.070907 102.750068 
L 197.418014 102.736777 
L 197.418014 102.736777 
" clip-path="url(#p74e3e110bd)" style="fill: none; stroke: #000000; stroke-opacity: 0.5; stroke-width: 1.5; stroke-linecap: square"/>
   </g>
   <g id="line2d_29">
    <path d="M 59.070907 102.750068 
L 197.418014 102.744599 
L 197.418014 102.744599 
" clip-path="url(#p74e3e110bd)" style="fill: none; stroke: #000000; stroke-opacity: 0.5; stroke-width: 1.5; stroke-linecap: square"/>
   </g>
   <g id="line2d_30">
    <path d="M 59.070907 102.750068 
L 197.418014 102.747913 
L 197.418014 102.747913 
" clip-path="url(#p74e3e110bd)" style="fill: none; stroke: #000000; stroke-opacity: 0.5; stroke-width: 1.5; stroke-linecap: square"/>
   </g>
   <g id="line2d_31">
    <path d="M 59.070907 102.750068 
L 197.418014 102.749244 
L 197.418014 102.749244 
" clip-path="url(#p74e3e110bd)" style="fill: none; stroke: #000000; stroke-opacity: 0.5; stroke-width: 1.5; stroke-linecap: square"/>
   </g>
   <g id="line2d_32">
    <path d="M 59.070907 102.750068 
L 197.418014 102.749774 
L 197.418014 102.749774 
" clip-path="url(#p74e3e110bd)" style="fill: none; stroke: #000000; stroke-opacity: 0.5; stroke-width: 1.5; stroke-linecap: square"/>
   </g>
   <g id="line2d_33">
    <path d="M 59.070907 102.750068 
L 197.418014 102.749956 
L 197.418014 102.749956 
" clip-path="url(#p74e3e110bd)" style="fill: none; stroke: #000000; stroke-opacity: 0.5; stroke-width: 1.5; stroke-linecap: square"/>
   </g>
   <g id="line2d_34">
    <path d="M 59.070907 102.750068 
L 197.418014 102.750038 
L 197.418014 102.750038 
" clip-path="url(#p74e3e110bd)" style="fill: none; stroke: #000000; stroke-opacity: 0.5; stroke-width: 1.5; stroke-linecap: square"/>
   </g>
   <g id="line2d_35">
    <path d="M 59.070907 102.750068 
L 197.418014 102.750047 
L 197.418014 102.750047 
" clip-path="url(#p74e3e110bd)" style="fill: none; stroke: #000000; stroke-opacity: 0.5; stroke-width: 1.5; stroke-linecap: square"/>
   </g>
   <g id="line2d_36">
    <path d="M 59.070907 12.898828 
L 60.46133 12.988357 
L 61.851753 13.256407 
L 63.242176 13.70138 
L 64.632599 14.320629 
L 66.718234 15.567967 
L 68.803869 17.182435 
L 70.889504 19.142917 
L 72.975138 21.424134 
L 75.060773 23.997193 
L 77.84162 27.826421 
L 80.622466 32.035678 
L 84.098524 37.699929 
L 89.660217 47.290536 
L 97.307544 60.472935 
L 101.478814 67.205585 
L 104.954872 72.408267 
L 108.43093 77.170179 
L 111.211776 80.635018 
L 113.992623 83.782415 
L 116.773469 86.611103 
L 119.554315 89.127024 
L 122.335162 91.342081 
L 125.116008 93.272862 
L 127.896854 94.939404 
L 130.677701 96.364022 
L 133.458547 97.570274 
L 136.934605 98.80738 
L 140.410663 99.786189 
L 143.886721 100.549592 
L 148.057991 101.235948 
L 152.924472 101.793105 
L 158.486165 102.200306 
L 166.133492 102.506532 
L 176.561666 102.677264 
L 197.418014 102.74542 
L 197.418014 102.74542 
" clip-path="url(#p74e3e110bd)" style="fill: none; stroke: #1f77b4; stroke-width: 1.5; stroke-linecap: square"/>
   </g>
   <g id="line2d_37">
    <path d="M 59.070907 102.750068 
L 60.46133 102.660584 
L 61.851753 102.393201 
L 63.242176 101.95111 
L 64.632599 101.339576 
L 66.718234 100.120973 
L 68.803869 98.570232 
L 70.889504 96.728149 
L 73.67035 93.902508 
L 77.146408 89.959324 
L 86.184159 79.436025 
L 88.965005 76.633063 
L 91.05064 74.785848 
L 93.136275 73.195031 
L 95.221909 71.886221 
L 97.307544 70.876954 
L 99.393179 70.176707 
L 101.478814 69.787164 
L 103.564449 69.702716 
L 105.650083 69.91114 
L 107.735718 70.394441 
L 109.821353 71.1298 
L 111.906988 72.090584 
L 114.687834 73.671206 
L 117.468681 75.526053 
L 120.944738 78.115319 
L 127.896854 83.671229 
L 133.458547 87.970094 
L 137.629817 90.887207 
L 141.105875 93.049834 
L 144.581933 94.944542 
L 148.057991 96.56743 
L 151.534049 97.928291 
L 155.010107 99.046672 
L 158.486165 99.948247 
L 162.657434 100.784407 
L 166.828704 101.399942 
L 171.695185 101.901744 
L 177.952089 102.302214 
L 185.599417 102.557315 
L 197.418014 102.7042 
L 197.418014 102.7042 
" clip-path="url(#p74e3e110bd)" style="fill: none; stroke: #ff7f0e; stroke-width: 1.5; stroke-linecap: square"/>
   </g>
   <g id="patch_3">
    <path d="M 52.153551 107.24263 
L 52.153551 8.406266 
" style="fill: none; stroke: #000000; stroke-width: 0.8; stroke-linejoin: miter; stroke-linecap: square"/>
   </g>
   <g id="patch_4">
    <path d="M 204.335369 107.24263 
L 204.335369 8.406266 
" style="fill: none; stroke: #000000; stroke-width: 0.8; stroke-linejoin: miter; stroke-linecap: square"/>
   </g>
   <g id="patch_5">
    <path d="M 52.153551 107.24263 
L 204.335369 107.24263 
" style="fill: none; stroke: #000000; stroke-width: 0.8; stroke-linejoin: miter; stroke-linecap: square"/>
   </g>
   <g id="patch_6">
    <path d="M 52.153551 8.406266 
L 204.335369 8.406266 
" style="fill: none; stroke: #000000; stroke-width: 0.8; stroke-linejoin: miter; stroke-linecap: square"/>
   </g>
   <g id="text_5">
    <!-- $\frac{\gamma}{c}=0$ -->
    <g transform="translate(155.913882 30.869076) scale(0.15 -0.15)">
     <defs>
      <path id="DejaVuSans-Oblique-3b3" d="M 1491 2950 
L 1838 788 
L 3456 3500 
L 4066 3500 
L 1972 0 
L 1713 -1331 
L 1138 -1331 
L 1397 0 
L 988 2613 
Q 925 3006 628 3006 
L 475 3006 
L 569 3500 
L 788 3500 
Q 1403 3500 1491 2950 
z
" transform="scale(0.015625)"/>
      <path id="DejaVuSans-Oblique-63" d="M 3431 3366 
L 3316 2797 
Q 3109 2947 2876 3022 
Q 2644 3097 2394 3097 
Q 2119 3097 1870 3000 
Q 1622 2903 1453 2725 
Q 1184 2453 1037 2087 
Q 891 1722 891 1331 
Q 891 859 1127 628 
Q 1363 397 1844 397 
Q 2081 397 2348 469 
Q 2616 541 2906 684 
L 2797 116 
Q 2547 13 2283 -39 
Q 2019 -91 1741 -91 
Q 1044 -91 669 257 
Q 294 606 294 1253 
Q 294 1797 489 2255 
Q 684 2713 1069 3078 
Q 1331 3328 1684 3456 
Q 2038 3584 2456 3584 
Q 2700 3584 2940 3529 
Q 3181 3475 3431 3366 
z
" transform="scale(0.015625)"/>
      <path id="DejaVuSans-3d" d="M 678 2906 
L 4684 2906 
L 4684 2381 
L 678 2381 
L 678 2906 
z
M 678 1631 
L 4684 1631 
L 4684 1100 
L 678 1100 
L 678 1631 
z
" transform="scale(0.015625)"/>
     </defs>
     <use xlink:href="#DejaVuSans-Oblique-3b3" transform="translate(0 58.71875) scale(0.7)"/>
     <use xlink:href="#DejaVuSans-Oblique-63" transform="translate(1 -26.289062) scale(0.7)"/>
     <use xlink:href="#DejaVuSans-3d" transform="translate(73.408203 0.364062)"/>
     <use xlink:href="#DejaVuSans-30" transform="translate(176.679688 0.364062)"/>
     <path d="M 0 19.160938 
L 0 25.410938 
L 41.425781 25.410938 
L 41.425781 19.160938 
L 0 19.160938 
z
"/>
    </g>
   </g>
  </g>
  <g id="axes_2">
   <g id="patch_7">
    <path d="M 234.771733 107.24263 
L 386.953551 107.24263 
L 386.953551 8.406266 
L 234.771733 8.406266 
z
" style="fill: #ffffff"/>
   </g>
   <g id="matplotlib.axis_3">
    <g id="xtick_4">
     <g id="line2d_38">
      <g>
       <use xlink:href="#me0e02e6900" x="241.689088" y="107.24263" style="stroke: #000000; stroke-width: 0.8"/>
      </g>
     </g>
    </g>
    <g id="xtick_5">
     <g id="line2d_39">
      <g>
       <use xlink:href="#me0e02e6900" x="310.862642" y="107.24263" style="stroke: #000000; stroke-width: 0.8"/>
      </g>
     </g>
    </g>
    <g id="xtick_6">
     <g id="line2d_40">
      <g>
       <use xlink:href="#me0e02e6900" x="380.036196" y="107.24263" style="stroke: #000000; stroke-width: 0.8"/>
      </g>
     </g>
    </g>
   </g>
   <g id="matplotlib.axis_4">
    <g id="ytick_4">
     <g id="line2d_41">
      <g>
       <use xlink:href="#m712f27f190" x="234.771733" y="102.750068" style="stroke: #000000; stroke-width: 0.8"/>
      </g>
     </g>
    </g>
    <g id="ytick_5">
     <g id="line2d_42">
      <g>
       <use xlink:href="#m712f27f190" x="234.771733" y="57.824448" style="stroke: #000000; stroke-width: 0.8"/>
      </g>
     </g>
    </g>
    <g id="ytick_6">
     <g id="line2d_43">
      <g>
       <use xlink:href="#m712f27f190" x="234.771733" y="12.898828" style="stroke: #000000; stroke-width: 0.8"/>
      </g>
     </g>
    </g>
   </g>
   <g id="line2d_44">
    <path d="M 241.689088 102.750068 
L 251.422051 102.661434 
L 255.59332 102.41774 
L 259.069378 102.013757 
L 262.545436 101.375371 
L 266.021494 100.473721 
L 269.497552 99.302492 
L 272.97361 97.877941 
L 277.14488 95.886045 
L 282.011361 93.289361 
L 295.220381 86.080506 
L 299.391651 84.114349 
L 303.56292 82.41162 
L 307.038978 81.215406 
L 310.515036 80.226642 
L 313.991094 79.439567 
L 318.162364 78.741516 
L 322.333633 78.279248 
L 327.200115 77.982294 
L 332.761807 77.877467 
L 340.409135 77.973417 
L 367.522387 78.498358 
L 380.036196 78.506263 
L 380.036196 78.506263 
" clip-path="url(#pd1695c9208)" style="fill: none; stroke: #000000; stroke-opacity: 0.5; stroke-width: 1.5; stroke-linecap: square"/>
   </g>
   <g id="line2d_45">
    <path d="M 241.689088 102.750068 
L 265.326283 102.644607 
L 272.97361 102.384812 
L 279.925726 101.943677 
L 287.573054 101.23691 
L 300.086862 99.80071 
L 311.210248 98.601665 
L 319.552787 97.928557 
L 327.895326 97.492695 
L 336.933077 97.256102 
L 348.751674 97.189685 
L 380.036196 97.311795 
L 380.036196 97.311795 
" clip-path="url(#pd1695c9208)" style="fill: none; stroke: #000000; stroke-opacity: 0.5; stroke-width: 1.5; stroke-linecap: square"/>
   </g>
   <g id="line2d_46">
    <path d="M 241.689088 102.750068 
L 290.3539 102.640175 
L 350.142097 102.228179 
L 380.036196 102.237051 
L 380.036196 102.237051 
" clip-path="url(#pd1695c9208)" style="fill: none; stroke: #000000; stroke-opacity: 0.5; stroke-width: 1.5; stroke-linecap: square"/>
   </g>
   <g id="line2d_47">
    <path d="M 241.689088 102.750068 
L 380.036196 102.726387 
L 380.036196 102.726387 
" clip-path="url(#pd1695c9208)" style="fill: none; stroke: #000000; stroke-opacity: 0.5; stroke-width: 1.5; stroke-linecap: square"/>
   </g>
   <g id="line2d_48">
    <path d="M 241.689088 102.750068 
L 380.036196 102.749464 
L 380.036196 102.749464 
" clip-path="url(#pd1695c9208)" style="fill: none; stroke: #000000; stroke-opacity: 0.5; stroke-width: 1.5; stroke-linecap: square"/>
   </g>
   <g id="line2d_49">
    <path d="M 241.689088 102.750068 
L 380.036196 102.750058 
L 380.036196 102.750058 
" clip-path="url(#pd1695c9208)" style="fill: none; stroke: #000000; stroke-opacity: 0.5; stroke-width: 1.5; stroke-linecap: square"/>
   </g>
   <g id="line2d_50">
    <path d="M 241.689088 102.750068 
L 380.036196 102.750068 
L 380.036196 102.750068 
" clip-path="url(#pd1695c9208)" style="fill: none; stroke: #000000; stroke-opacity: 0.5; stroke-width: 1.5; stroke-linecap: square"/>
   </g>
   <g id="line2d_51">
    <path d="M 241.689088 102.750068 
L 380.036196 102.750068 
L 380.036196 102.750068 
" clip-path="url(#pd1695c9208)" style="fill: none; stroke: #000000; stroke-opacity: 0.5; stroke-width: 1.5; stroke-linecap: square"/>
   </g>
   <g id="line2d_52">
    <path d="M 241.689088 102.750068 
L 380.036196 102.750068 
L 380.036196 102.750068 
" clip-path="url(#pd1695c9208)" style="fill: none; stroke: #000000; stroke-opacity: 0.5; stroke-width: 1.5; stroke-linecap: square"/>
   </g>
   <g id="line2d_53">
    <path d="M 241.689088 102.750068 
L 380.036196 102.750068 
L 380.036196 102.750068 
" clip-path="url(#pd1695c9208)" style="fill: none; stroke: #000000; stroke-opacity: 0.5; stroke-width: 1.5; stroke-linecap: square"/>
   </g>
   <g id="line2d_54">
    <path d="M 241.689088 102.750068 
L 380.036196 102.750068 
L 380.036196 102.750068 
" clip-path="url(#pd1695c9208)" style="fill: none; stroke: #000000; stroke-opacity: 0.5; stroke-width: 1.5; stroke-linecap: square"/>
   </g>
   <g id="line2d_55">
    <path d="M 241.689088 102.750068 
L 380.036196 102.750068 
L 380.036196 102.750068 
" clip-path="url(#pd1695c9208)" style="fill: none; stroke: #000000; stroke-opacity: 0.5; stroke-width: 1.5; stroke-linecap: square"/>
   </g>
   <g id="line2d_56">
    <path d="M 241.689088 102.750068 
L 380.036196 102.750068 
L 380.036196 102.750068 
" clip-path="url(#pd1695c9208)" style="fill: none; stroke: #000000; stroke-opacity: 0.5; stroke-width: 1.5; stroke-linecap: square"/>
   </g>
   <g id="line2d_57">
    <path d="M 241.689088 102.750068 
L 380.036196 102.750068 
L 380.036196 102.750068 
" clip-path="url(#pd1695c9208)" style="fill: none; stroke: #000000; stroke-opacity: 0.5; stroke-width: 1.5; stroke-linecap: square"/>
   </g>
   <g id="line2d_58">
    <path d="M 241.689088 102.750068 
L 380.036196 102.750068 
L 380.036196 102.750068 
" clip-path="url(#pd1695c9208)" style="fill: none; stroke: #000000; stroke-opacity: 0.5; stroke-width: 1.5; stroke-linecap: square"/>
   </g>
   <g id="line2d_59">
    <path d="M 241.689088 102.750068 
L 380.036196 102.750068 
L 380.036196 102.750068 
" clip-path="url(#pd1695c9208)" style="fill: none; stroke: #000000; stroke-opacity: 0.5; stroke-width: 1.5; stroke-linecap: square"/>
   </g>
   <g id="line2d_60">
    <path d="M 241.689088 102.750068 
L 380.036196 102.750068 
L 380.036196 102.750068 
" clip-path="url(#pd1695c9208)" style="fill: none; stroke: #000000; stroke-opacity: 0.5; stroke-width: 1.5; stroke-linecap: square"/>
   </g>
   <g id="line2d_61">
    <path d="M 241.689088 102.750068 
L 380.036196 102.750068 
L 380.036196 102.750068 
" clip-path="url(#pd1695c9208)" style="fill: none; stroke: #000000; stroke-opacity: 0.5; stroke-width: 1.5; stroke-linecap: square"/>
   </g>
   <g id="line2d_62">
    <path d="M 241.689088 102.750068 
L 380.036196 102.750068 
L 380.036196 102.750068 
" clip-path="url(#pd1695c9208)" style="fill: none; stroke: #000000; stroke-opacity: 0.5; stroke-width: 1.5; stroke-linecap: square"/>
   </g>
   <g id="line2d_63">
    <path d="M 241.689088 102.750068 
L 380.036196 102.750068 
L 380.036196 102.750068 
" clip-path="url(#pd1695c9208)" style="fill: none; stroke: #000000; stroke-opacity: 0.5; stroke-width: 1.5; stroke-linecap: square"/>
   </g>
   <g id="line2d_64">
    <path d="M 241.689088 102.750068 
L 380.036196 102.750068 
L 380.036196 102.750068 
" clip-path="url(#pd1695c9208)" style="fill: none; stroke: #000000; stroke-opacity: 0.5; stroke-width: 1.5; stroke-linecap: square"/>
   </g>
   <g id="line2d_65">
    <path d="M 241.689088 102.750068 
L 380.036196 102.750068 
L 380.036196 102.750068 
" clip-path="url(#pd1695c9208)" style="fill: none; stroke: #000000; stroke-opacity: 0.5; stroke-width: 1.5; stroke-linecap: square"/>
   </g>
   <g id="line2d_66">
    <path d="M 241.689088 102.750068 
L 380.036196 102.750068 
L 380.036196 102.750068 
" clip-path="url(#pd1695c9208)" style="fill: none; stroke: #000000; stroke-opacity: 0.5; stroke-width: 1.5; stroke-linecap: square"/>
   </g>
   <g id="line2d_67">
    <path d="M 241.689088 102.750068 
L 380.036196 102.750068 
L 380.036196 102.750068 
" clip-path="url(#pd1695c9208)" style="fill: none; stroke: #000000; stroke-opacity: 0.5; stroke-width: 1.5; stroke-linecap: square"/>
   </g>
   <g id="line2d_68">
    <path d="M 241.689088 102.750068 
L 380.036196 102.750068 
L 380.036196 102.750068 
" clip-path="url(#pd1695c9208)" style="fill: none; stroke: #000000; stroke-opacity: 0.5; stroke-width: 1.5; stroke-linecap: square"/>
   </g>
   <g id="line2d_69">
    <path d="M 241.689088 102.750068 
L 380.036196 102.750068 
L 380.036196 102.750068 
" clip-path="url(#pd1695c9208)" style="fill: none; stroke: #000000; stroke-opacity: 0.5; stroke-width: 1.5; stroke-linecap: square"/>
   </g>
   <g id="line2d_70">
    <path d="M 241.689088 102.750068 
L 380.036196 102.750068 
L 380.036196 102.750068 
" clip-path="url(#pd1695c9208)" style="fill: none; stroke: #000000; stroke-opacity: 0.5; stroke-width: 1.5; stroke-linecap: square"/>
   </g>
   <g id="line2d_71">
    <path d="M 241.689088 102.750068 
L 380.036196 102.750068 
L 380.036196 102.750068 
" clip-path="url(#pd1695c9208)" style="fill: none; stroke: #000000; stroke-opacity: 0.5; stroke-width: 1.5; stroke-linecap: square"/>
   </g>
   <g id="line2d_72">
    <path d="M 241.689088 102.750068 
L 380.036196 102.750068 
L 380.036196 102.750068 
" clip-path="url(#pd1695c9208)" style="fill: none; stroke: #000000; stroke-opacity: 0.5; stroke-width: 1.5; stroke-linecap: square"/>
   </g>
   <g id="line2d_73">
    <path d="M 241.689088 12.898828 
L 243.079512 12.988356 
L 244.469935 13.256393 
L 245.860358 13.701274 
L 247.250781 14.320191 
L 249.336416 15.565905 
L 251.422051 17.175862 
L 253.507685 19.126401 
L 255.59332 21.388825 
L 257.678955 23.930026 
L 260.459801 27.688026 
L 263.935859 32.845962 
L 268.802341 40.578568 
L 276.449668 52.797646 
L 279.925726 57.9798 
L 283.401784 62.754175 
L 286.18263 66.222621 
L 288.963477 69.34793 
L 291.744323 72.115023 
L 294.52517 74.52056 
L 297.306016 76.57155 
L 300.086862 78.283739 
L 302.867709 79.679864 
L 305.648555 80.787886 
L 308.429401 81.639268 
L 311.210248 82.267373 
L 314.686306 82.79001 
L 318.162364 83.080732 
L 322.333633 83.206621 
L 327.895326 83.139443 
L 354.313367 82.49352 
L 368.91281 82.596656 
L 380.036196 82.692934 
L 380.036196 82.692934 
" clip-path="url(#pd1695c9208)" style="fill: none; stroke: #1f77b4; stroke-width: 1.5; stroke-linecap: square"/>
   </g>
   <g id="line2d_74">
    <path d="M 241.689088 102.750068 
L 243.079512 102.660583 
L 244.469935 102.393186 
L 245.860358 101.950998 
L 247.250781 101.339108 
L 249.336416 100.118702 
L 251.422051 98.562766 
L 253.507685 96.708796 
L 256.288532 93.848441 
L 259.069378 90.648226 
L 263.240648 85.470535 
L 270.192764 76.784019 
L 273.668822 72.814825 
L 276.449668 69.950749 
L 279.230514 67.415947 
L 282.011361 65.239895 
L 284.096996 63.851446 
L 286.18263 62.671792 
L 288.268265 61.69624 
L 290.3539 60.916369 
L 292.439535 60.320643 
L 295.220381 59.788252 
L 298.001228 59.519891 
L 300.782074 59.473918 
L 304.258132 59.663925 
L 308.429401 60.147659 
L 315.381517 61.252009 
L 323.724057 62.54233 
L 329.285749 63.180558 
L 334.847442 63.59063 
L 341.104346 63.799527 
L 348.056462 63.796676 
L 359.87506 63.524933 
L 375.864926 63.20781 
L 380.036196 63.175351 
L 380.036196 63.175351 
" clip-path="url(#pd1695c9208)" style="fill: none; stroke: #ff7f0e; stroke-width: 1.5; stroke-linecap: square"/>
   </g>
   <g id="patch_8">
    <path d="M 234.771733 107.24263 
L 234.771733 8.406266 
" style="fill: none; stroke: #000000; stroke-width: 0.8; stroke-linejoin: miter; stroke-linecap: square"/>
   </g>
   <g id="patch_9">
    <path d="M 386.953551 107.24263 
L 386.953551 8.406266 
" style="fill: none; stroke: #000000; stroke-width: 0.8; stroke-linejoin: miter; stroke-linecap: square"/>
   </g>
   <g id="patch_10">
    <path d="M 234.771733 107.24263 
L 386.953551 107.24263 
" style="fill: none; stroke: #000000; stroke-width: 0.8; stroke-linejoin: miter; stroke-linecap: square"/>
   </g>
   <g id="patch_11">
    <path d="M 234.771733 8.406266 
L 386.953551 8.406266 
" style="fill: none; stroke: #000000; stroke-width: 0.8; stroke-linejoin: miter; stroke-linecap: square"/>
   </g>
   <g id="text_6">
    <!-- $\frac{\gamma}{c}=1$ -->
    <g transform="translate(338.532064 30.869076) scale(0.15 -0.15)">
     <use xlink:href="#DejaVuSans-Oblique-3b3" transform="translate(0 58.71875) scale(0.7)"/>
     <use xlink:href="#DejaVuSans-Oblique-63" transform="translate(1 -26.289062) scale(0.7)"/>
     <use xlink:href="#DejaVuSans-3d" transform="translate(73.408203 0.364062)"/>
     <use xlink:href="#DejaVuSans-31" transform="translate(176.679688 0.364062)"/>
     <path d="M 0 19.160938 
L 0 25.410938 
L 41.425781 25.410938 
L 41.425781 19.160938 
L 0 19.160938 
z
"/>
    </g>
   </g>
  </g>
  <g id="axes_3">
   <g id="patch_12">
    <path d="M 52.153551 225.846266 
L 204.335369 225.846266 
L 204.335369 127.009903 
L 52.153551 127.009903 
z
" style="fill: #ffffff"/>
   </g>
   <g id="matplotlib.axis_5">
    <g id="xtick_7">
     <g id="line2d_75">
      <g>
       <use xlink:href="#me0e02e6900" x="59.070907" y="225.846266" style="stroke: #000000; stroke-width: 0.8"/>
      </g>
     </g>
     <g id="text_7">
      <!-- 0.0 -->
      <g transform="translate(47.143563 244.243922) scale(0.15 -0.15)">
       <use xlink:href="#DejaVuSans-30"/>
       <use xlink:href="#DejaVuSans-2e" x="63.623047"/>
       <use xlink:href="#DejaVuSans-30" x="95.410156"/>
      </g>
     </g>
    </g>
    <g id="xtick_8">
     <g id="line2d_76">
      <g>
       <use xlink:href="#me0e02e6900" x="128.24446" y="225.846266" style="stroke: #000000; stroke-width: 0.8"/>
      </g>
     </g>
     <g id="text_8">
      <!-- 0.5 -->
      <g transform="translate(116.317116 244.243922) scale(0.15 -0.15)">
       <use xlink:href="#DejaVuSans-30"/>
       <use xlink:href="#DejaVuSans-2e" x="63.623047"/>
       <use xlink:href="#DejaVuSans-35" x="95.410156"/>
      </g>
     </g>
    </g>
    <g id="xtick_9">
     <g id="line2d_77">
      <g>
       <use xlink:href="#me0e02e6900" x="197.418014" y="225.846266" style="stroke: #000000; stroke-width: 0.8"/>
      </g>
     </g>
     <g id="text_9">
      <!-- 1.0 -->
      <g transform="translate(185.49067 244.243922) scale(0.15 -0.15)">
       <use xlink:href="#DejaVuSans-31"/>
       <use xlink:href="#DejaVuSans-2e" x="63.623047"/>
       <use xlink:href="#DejaVuSans-30" x="95.410156"/>
      </g>
     </g>
    </g>
   </g>
   <g id="matplotlib.axis_6">
    <g id="ytick_7">
     <g id="line2d_78">
      <g>
       <use xlink:href="#m712f27f190" x="52.153551" y="221.353704" style="stroke: #000000; stroke-width: 0.8"/>
      </g>
     </g>
     <g id="text_10">
      <!-- 0.0 -->
      <g transform="translate(21.298864 227.052532) scale(0.15 -0.15)">
       <use xlink:href="#DejaVuSans-30"/>
       <use xlink:href="#DejaVuSans-2e" x="63.623047"/>
       <use xlink:href="#DejaVuSans-30" x="95.410156"/>
      </g>
     </g>
    </g>
    <g id="ytick_8">
     <g id="line2d_79">
      <g>
       <use xlink:href="#m712f27f190" x="52.153551" y="176.428084" style="stroke: #000000; stroke-width: 0.8"/>
      </g>
     </g>
     <g id="text_11">
      <!-- 0.5 -->
      <g transform="translate(21.298864 182.126912) scale(0.15 -0.15)">
       <use xlink:href="#DejaVuSans-30"/>
       <use xlink:href="#DejaVuSans-2e" x="63.623047"/>
       <use xlink:href="#DejaVuSans-35" x="95.410156"/>
      </g>
     </g>
    </g>
    <g id="ytick_9">
     <g id="line2d_80">
      <g>
       <use xlink:href="#m712f27f190" x="52.153551" y="131.502464" style="stroke: #000000; stroke-width: 0.8"/>
      </g>
     </g>
     <g id="text_12">
      <!-- 1.0 -->
      <g transform="translate(21.298864 137.201293) scale(0.15 -0.15)">
       <use xlink:href="#DejaVuSans-31"/>
       <use xlink:href="#DejaVuSans-2e" x="63.623047"/>
       <use xlink:href="#DejaVuSans-30" x="95.410156"/>
      </g>
     </g>
    </g>
   </g>
   <g id="line2d_81">
    <path d="M 59.070907 221.353704 
L 74.365562 221.248481 
L 88.269794 220.892704 
L 118.859104 220.040883 
L 132.763336 219.935318 
L 147.362779 220.057463 
L 175.866454 220.597189 
L 194.637168 220.809779 
L 197.418014 220.819471 
L 197.418014 220.819471 
" clip-path="url(#pcf32535087)" style="fill: none; stroke: #000000; stroke-opacity: 0.5; stroke-width: 1.5; stroke-linecap: square"/>
   </g>
   <g id="line2d_82">
    <path d="M 59.070907 221.353704 
L 197.418014 221.351919 
L 197.418014 221.351919 
" clip-path="url(#pcf32535087)" style="fill: none; stroke: #000000; stroke-opacity: 0.5; stroke-width: 1.5; stroke-linecap: square"/>
   </g>
   <g id="line2d_83">
    <path d="M 59.070907 221.353704 
L 197.418014 221.353702 
L 197.418014 221.353702 
" clip-path="url(#pcf32535087)" style="fill: none; stroke: #000000; stroke-opacity: 0.5; stroke-width: 1.5; stroke-linecap: square"/>
   </g>
   <g id="line2d_84">
    <path d="M 59.070907 221.353704 
L 197.418014 221.353704 
L 197.418014 221.353704 
" clip-path="url(#pcf32535087)" style="fill: none; stroke: #000000; stroke-opacity: 0.5; stroke-width: 1.5; stroke-linecap: square"/>
   </g>
   <g id="line2d_85">
    <path d="M 59.070907 221.353704 
L 197.418014 221.353704 
L 197.418014 221.353704 
" clip-path="url(#pcf32535087)" style="fill: none; stroke: #000000; stroke-opacity: 0.5; stroke-width: 1.5; stroke-linecap: square"/>
   </g>
   <g id="line2d_86">
    <path d="M 59.070907 221.353704 
L 197.418014 221.353704 
L 197.418014 221.353704 
" clip-path="url(#pcf32535087)" style="fill: none; stroke: #000000; stroke-opacity: 0.5; stroke-width: 1.5; stroke-linecap: square"/>
   </g>
   <g id="line2d_87">
    <path d="M 59.070907 221.353704 
L 197.418014 221.353704 
L 197.418014 221.353704 
" clip-path="url(#pcf32535087)" style="fill: none; stroke: #000000; stroke-opacity: 0.5; stroke-width: 1.5; stroke-linecap: square"/>
   </g>
   <g id="line2d_88">
    <path d="M 59.070907 221.353704 
L 197.418014 221.353704 
L 197.418014 221.353704 
" clip-path="url(#pcf32535087)" style="fill: none; stroke: #000000; stroke-opacity: 0.5; stroke-width: 1.5; stroke-linecap: square"/>
   </g>
   <g id="line2d_89">
    <path d="M 59.070907 221.353704 
L 197.418014 221.353704 
L 197.418014 221.353704 
" clip-path="url(#pcf32535087)" style="fill: none; stroke: #000000; stroke-opacity: 0.5; stroke-width: 1.5; stroke-linecap: square"/>
   </g>
   <g id="line2d_90">
    <path d="M 59.070907 221.353704 
L 197.418014 221.353704 
L 197.418014 221.353704 
" clip-path="url(#pcf32535087)" style="fill: none; stroke: #000000; stroke-opacity: 0.5; stroke-width: 1.5; stroke-linecap: square"/>
   </g>
   <g id="line2d_91">
    <path d="M 59.070907 221.353704 
L 197.418014 221.353704 
L 197.418014 221.353704 
" clip-path="url(#pcf32535087)" style="fill: none; stroke: #000000; stroke-opacity: 0.5; stroke-width: 1.5; stroke-linecap: square"/>
   </g>
   <g id="line2d_92">
    <path d="M 59.070907 221.353704 
L 197.418014 221.353704 
L 197.418014 221.353704 
" clip-path="url(#pcf32535087)" style="fill: none; stroke: #000000; stroke-opacity: 0.5; stroke-width: 1.5; stroke-linecap: square"/>
   </g>
   <g id="line2d_93">
    <path d="M 59.070907 221.353704 
L 197.418014 221.353704 
L 197.418014 221.353704 
" clip-path="url(#pcf32535087)" style="fill: none; stroke: #000000; stroke-opacity: 0.5; stroke-width: 1.5; stroke-linecap: square"/>
   </g>
   <g id="line2d_94">
    <path d="M 59.070907 221.353704 
L 197.418014 221.353704 
L 197.418014 221.353704 
" clip-path="url(#pcf32535087)" style="fill: none; stroke: #000000; stroke-opacity: 0.5; stroke-width: 1.5; stroke-linecap: square"/>
   </g>
   <g id="line2d_95">
    <path d="M 59.070907 221.353704 
L 197.418014 221.353704 
L 197.418014 221.353704 
" clip-path="url(#pcf32535087)" style="fill: none; stroke: #000000; stroke-opacity: 0.5; stroke-width: 1.5; stroke-linecap: square"/>
   </g>
   <g id="line2d_96">
    <path d="M 59.070907 221.353704 
L 197.418014 221.353704 
L 197.418014 221.353704 
" clip-path="url(#pcf32535087)" style="fill: none; stroke: #000000; stroke-opacity: 0.5; stroke-width: 1.5; stroke-linecap: square"/>
   </g>
   <g id="line2d_97">
    <path d="M 59.070907 221.353704 
L 197.418014 221.353704 
L 197.418014 221.353704 
" clip-path="url(#pcf32535087)" style="fill: none; stroke: #000000; stroke-opacity: 0.5; stroke-width: 1.5; stroke-linecap: square"/>
   </g>
   <g id="line2d_98">
    <path d="M 59.070907 221.353704 
L 197.418014 221.353704 
L 197.418014 221.353704 
" clip-path="url(#pcf32535087)" style="fill: none; stroke: #000000; stroke-opacity: 0.5; stroke-width: 1.5; stroke-linecap: square"/>
   </g>
   <g id="line2d_99">
    <path d="M 59.070907 221.353704 
L 197.418014 221.353704 
L 197.418014 221.353704 
" clip-path="url(#pcf32535087)" style="fill: none; stroke: #000000; stroke-opacity: 0.5; stroke-width: 1.5; stroke-linecap: square"/>
   </g>
   <g id="line2d_100">
    <path d="M 59.070907 221.353704 
L 197.418014 221.353704 
L 197.418014 221.353704 
" clip-path="url(#pcf32535087)" style="fill: none; stroke: #000000; stroke-opacity: 0.5; stroke-width: 1.5; stroke-linecap: square"/>
   </g>
   <g id="line2d_101">
    <path d="M 59.070907 221.353704 
L 197.418014 221.353704 
L 197.418014 221.353704 
" clip-path="url(#pcf32535087)" style="fill: none; stroke: #000000; stroke-opacity: 0.5; stroke-width: 1.5; stroke-linecap: square"/>
   </g>
   <g id="line2d_102">
    <path d="M 59.070907 221.353704 
L 197.418014 221.353704 
L 197.418014 221.353704 
" clip-path="url(#pcf32535087)" style="fill: none; stroke: #000000; stroke-opacity: 0.5; stroke-width: 1.5; stroke-linecap: square"/>
   </g>
   <g id="line2d_103">
    <path d="M 59.070907 221.353704 
L 197.418014 221.353704 
L 197.418014 221.353704 
" clip-path="url(#pcf32535087)" style="fill: none; stroke: #000000; stroke-opacity: 0.5; stroke-width: 1.5; stroke-linecap: square"/>
   </g>
   <g id="line2d_104">
    <path d="M 59.070907 221.353704 
L 197.418014 221.353704 
L 197.418014 221.353704 
" clip-path="url(#pcf32535087)" style="fill: none; stroke: #000000; stroke-opacity: 0.5; stroke-width: 1.5; stroke-linecap: square"/>
   </g>
   <g id="line2d_105">
    <path d="M 59.070907 221.353704 
L 197.418014 221.353704 
L 197.418014 221.353704 
" clip-path="url(#pcf32535087)" style="fill: none; stroke: #000000; stroke-opacity: 0.5; stroke-width: 1.5; stroke-linecap: square"/>
   </g>
   <g id="line2d_106">
    <path d="M 59.070907 221.353704 
L 197.418014 221.353704 
L 197.418014 221.353704 
" clip-path="url(#pcf32535087)" style="fill: none; stroke: #000000; stroke-opacity: 0.5; stroke-width: 1.5; stroke-linecap: square"/>
   </g>
   <g id="line2d_107">
    <path d="M 59.070907 221.353704 
L 197.418014 221.353704 
L 197.418014 221.353704 
" clip-path="url(#pcf32535087)" style="fill: none; stroke: #000000; stroke-opacity: 0.5; stroke-width: 1.5; stroke-linecap: square"/>
   </g>
   <g id="line2d_108">
    <path d="M 59.070907 221.353704 
L 197.418014 221.353704 
L 197.418014 221.353704 
" clip-path="url(#pcf32535087)" style="fill: none; stroke: #000000; stroke-opacity: 0.5; stroke-width: 1.5; stroke-linecap: square"/>
   </g>
   <g id="line2d_109">
    <path d="M 59.070907 221.353704 
L 197.418014 221.353704 
L 197.418014 221.353704 
" clip-path="url(#pcf32535087)" style="fill: none; stroke: #000000; stroke-opacity: 0.5; stroke-width: 1.5; stroke-linecap: square"/>
   </g>
   <g id="line2d_110">
    <path d="M 59.070907 131.502464 
L 60.46133 131.591989 
L 61.851753 131.859942 
L 63.242176 132.304377 
L 64.632599 132.922024 
L 66.718234 134.163196 
L 68.803869 135.76448 
L 70.889504 137.70244 
L 72.975138 139.950423 
L 75.060773 142.479269 
L 77.84162 146.233943 
L 80.622466 150.354677 
L 84.098524 155.897017 
L 89.660217 165.289511 
L 97.307544 178.204028 
L 101.478814 184.750789 
L 104.954872 189.731675 
L 107.735718 193.328397 
L 110.516565 196.530437 
L 112.602199 198.650162 
L 114.687834 200.514016 
L 116.773469 202.112042 
L 118.859104 203.437005 
L 120.944738 204.484386 
L 123.030373 205.252347 
L 125.116008 205.741669 
L 127.201643 205.955676 
L 129.287278 205.900128 
L 131.372912 205.583105 
L 133.458547 205.014865 
L 135.544182 204.207687 
L 137.629817 203.175703 
L 139.715452 201.934716 
L 142.496298 199.985009 
L 145.277144 197.739015 
L 148.753202 194.587565 
L 152.924472 190.430786 
L 159.181376 183.790443 
L 166.133492 176.464924 
L 170.304762 172.3867 
L 173.78082 169.291504 
L 176.561666 167.061645 
L 179.342512 165.081389 
L 182.123359 163.373643 
L 184.904205 161.956028 
L 187.685052 160.840789 
L 190.465898 160.034796 
L 192.551533 159.634394 
L 194.637168 159.407711 
L 196.722802 159.351954 
L 197.418014 159.370653 
L 197.418014 159.370653 
" clip-path="url(#pcf32535087)" style="fill: none; stroke: #1f77b4; stroke-width: 1.5; stroke-linecap: square"/>
   </g>
   <g id="line2d_111">
    <path d="M 59.070907 221.353704 
L 60.46133 221.264216 
L 61.851753 220.996705 
L 63.242176 220.553797 
L 64.632599 219.939442 
L 66.718234 218.707664 
L 68.803869 217.122092 
L 70.889504 215.206651 
L 72.975138 212.988011 
L 75.060773 210.49506 
L 77.84162 206.797648 
L 80.622466 202.743686 
L 84.098524 197.295897 
L 89.660217 188.072993 
L 97.307544 175.4075 
L 100.783602 170.024864 
L 104.25966 165.053631 
L 107.040507 161.445065 
L 109.821353 158.214675 
L 112.602199 155.40091 
L 114.687834 153.582502 
L 116.773469 152.025289 
L 118.859104 150.736259 
L 120.944738 149.719739 
L 123.030373 148.977427 
L 125.116008 148.508449 
L 127.201643 148.309446 
L 129.287278 148.374668 
L 131.372912 148.696095 
L 133.458547 149.263579 
L 135.544182 150.064992 
L 137.629817 151.086394 
L 139.715452 152.312216 
L 142.496298 154.235042 
L 145.277144 156.447209 
L 148.753202 159.54785 
L 152.924472 163.633451 
L 159.181376 170.152873 
L 166.133492 177.336255 
L 170.304762 181.331214 
L 173.78082 184.360806 
L 176.561666 186.541747 
L 179.342512 188.476989 
L 182.123359 190.144213 
L 184.904205 191.52629 
L 187.685052 192.611368 
L 190.465898 193.392865 
L 192.551533 193.77873 
L 194.637168 193.994213 
L 197.418014 194.021537 
L 197.418014 194.021537 
" clip-path="url(#pcf32535087)" style="fill: none; stroke: #ff7f0e; stroke-width: 1.5; stroke-linecap: square"/>
   </g>
   <g id="patch_13">
    <path d="M 52.153551 225.846266 
L 52.153551 127.009903 
" style="fill: none; stroke: #000000; stroke-width: 0.8; stroke-linejoin: miter; stroke-linecap: square"/>
   </g>
   <g id="patch_14">
    <path d="M 204.335369 225.846266 
L 204.335369 127.009903 
" style="fill: none; stroke: #000000; stroke-width: 0.8; stroke-linejoin: miter; stroke-linecap: square"/>
   </g>
   <g id="patch_15">
    <path d="M 52.153551 225.846266 
L 204.335369 225.846266 
" style="fill: none; stroke: #000000; stroke-width: 0.8; stroke-linejoin: miter; stroke-linecap: square"/>
   </g>
   <g id="patch_16">
    <path d="M 52.153551 127.009903 
L 204.335369 127.009903 
" style="fill: none; stroke: #000000; stroke-width: 0.8; stroke-linejoin: miter; stroke-linecap: square"/>
   </g>
   <g id="text_13">
    <!-- $\frac{\gamma}{c}=10$ -->
    <g transform="translate(155.913882 149.472712) scale(0.15 -0.15)">
     <use xlink:href="#DejaVuSans-Oblique-3b3" transform="translate(0 58.71875) scale(0.7)"/>
     <use xlink:href="#DejaVuSans-Oblique-63" transform="translate(1 -26.289062) scale(0.7)"/>
     <use xlink:href="#DejaVuSans-3d" transform="translate(73.408203 0.364062)"/>
     <use xlink:href="#DejaVuSans-31" transform="translate(176.679688 0.364062)"/>
     <use xlink:href="#DejaVuSans-30" transform="translate(240.302734 0.364062)"/>
     <path d="M 0 19.160938 
L 0 25.410938 
L 41.425781 25.410938 
L 41.425781 19.160938 
L 0 19.160938 
z
"/>
    </g>
   </g>
  </g>
  <g id="axes_4">
   <g id="patch_17">
    <path d="M 234.771733 225.846266 
L 386.953551 225.846266 
L 386.953551 127.009903 
L 234.771733 127.009903 
z
" style="fill: #ffffff"/>
   </g>
   <g id="matplotlib.axis_7">
    <g id="xtick_10">
     <g id="line2d_112">
      <g>
       <use xlink:href="#me0e02e6900" x="241.689088" y="225.846266" style="stroke: #000000; stroke-width: 0.8"/>
      </g>
     </g>
     <g id="text_14">
      <!-- 0.0 -->
      <g transform="translate(229.761745 244.243922) scale(0.15 -0.15)">
       <use xlink:href="#DejaVuSans-30"/>
       <use xlink:href="#DejaVuSans-2e" x="63.623047"/>
       <use xlink:href="#DejaVuSans-30" x="95.410156"/>
      </g>
     </g>
    </g>
    <g id="xtick_11">
     <g id="line2d_113">
      <g>
       <use xlink:href="#me0e02e6900" x="310.862642" y="225.846266" style="stroke: #000000; stroke-width: 0.8"/>
      </g>
     </g>
     <g id="text_15">
      <!-- 0.5 -->
      <g transform="translate(298.935298 244.243922) scale(0.15 -0.15)">
       <use xlink:href="#DejaVuSans-30"/>
       <use xlink:href="#DejaVuSans-2e" x="63.623047"/>
       <use xlink:href="#DejaVuSans-35" x="95.410156"/>
      </g>
     </g>
    </g>
    <g id="xtick_12">
     <g id="line2d_114">
      <g>
       <use xlink:href="#me0e02e6900" x="380.036196" y="225.846266" style="stroke: #000000; stroke-width: 0.8"/>
      </g>
     </g>
     <g id="text_16">
      <!-- 1.0 -->
      <g transform="translate(368.108852 244.243922) scale(0.15 -0.15)">
       <use xlink:href="#DejaVuSans-31"/>
       <use xlink:href="#DejaVuSans-2e" x="63.623047"/>
       <use xlink:href="#DejaVuSans-30" x="95.410156"/>
      </g>
     </g>
    </g>
    <g id="text_17">
     <!-- $\frac{tc}{\pi}$ -->
     <g transform="translate(213.628551 259.713539) scale(0.15 -0.15)">
      <defs>
       <path id="DejaVuSans-Oblique-74" d="M 2706 3500 
L 2619 3053 
L 1472 3053 
L 1100 1153 
Q 1081 1047 1072 975 
Q 1063 903 1063 863 
Q 1063 663 1183 572 
Q 1303 481 1569 481 
L 2150 481 
L 2053 0 
L 1503 0 
Q 991 0 739 200 
Q 488 400 488 806 
Q 488 878 497 964 
Q 506 1050 525 1153 
L 897 3053 
L 409 3053 
L 500 3500 
L 978 3500 
L 1172 4494 
L 1747 4494 
L 1556 3500 
L 2706 3500 
z
" transform="scale(0.015625)"/>
       <path id="DejaVuSans-Oblique-3c0" d="M 584 3500 
L 3938 3500 
L 3825 2925 
L 3384 2925 
L 2966 775 
Q 2922 550 2981 450 
Q 3038 353 3209 353 
Q 3256 353 3325 363 
Q 3397 369 3419 372 
L 3338 -44 
Q 3222 -84 3103 -103 
Q 2981 -122 2866 -122 
Q 2491 -122 2388 81 
Q 2284 288 2391 838 
L 2797 2925 
L 1506 2925 
L 938 0 
L 350 0 
L 919 2925 
L 472 2925 
L 584 3500 
z
" transform="scale(0.015625)"/>
      </defs>
      <use xlink:href="#DejaVuSans-Oblique-74" transform="translate(0 44.846875) scale(0.7)"/>
      <use xlink:href="#DejaVuSans-Oblique-63" transform="translate(27.446289 44.846875) scale(0.7)"/>
      <use xlink:href="#DejaVuSans-Oblique-3c0" transform="translate(12 -25.679688) scale(0.7)"/>
      <path d="M 0 18.851562 
L 0 25.101562 
L 65.932617 25.101562 
L 65.932617 18.851562 
L 0 18.851562 
z
"/>
     </g>
    </g>
   </g>
   <g id="matplotlib.axis_8">
    <g id="ytick_10">
     <g id="line2d_115">
      <g>
       <use xlink:href="#m712f27f190" x="234.771733" y="221.353704" style="stroke: #000000; stroke-width: 0.8"/>
      </g>
     </g>
    </g>
    <g id="ytick_11">
     <g id="line2d_116">
      <g>
       <use xlink:href="#m712f27f190" x="234.771733" y="176.428084" style="stroke: #000000; stroke-width: 0.8"/>
      </g>
     </g>
    </g>
    <g id="ytick_12">
     <g id="line2d_117">
      <g>
       <use xlink:href="#m712f27f190" x="234.771733" y="131.502464" style="stroke: #000000; stroke-width: 0.8"/>
      </g>
     </g>
    </g>
   </g>
   <g id="line2d_118">
    <path d="M 241.689088 221.353704 
L 380.036196 221.353461 
L 380.036196 221.353461 
" clip-path="url(#p8af8c62da2)" style="fill: none; stroke: #000000; stroke-opacity: 0.5; stroke-width: 1.5; stroke-linecap: square"/>
   </g>
   <g id="line2d_119">
    <path d="M 241.689088 221.353704 
L 380.036196 221.353704 
L 380.036196 221.353704 
" clip-path="url(#p8af8c62da2)" style="fill: none; stroke: #000000; stroke-opacity: 0.5; stroke-width: 1.5; stroke-linecap: square"/>
   </g>
   <g id="line2d_120">
    <path d="M 241.689088 221.353704 
L 380.036196 221.353704 
L 380.036196 221.353704 
" clip-path="url(#p8af8c62da2)" style="fill: none; stroke: #000000; stroke-opacity: 0.5; stroke-width: 1.5; stroke-linecap: square"/>
   </g>
   <g id="line2d_121">
    <path d="M 241.689088 221.353704 
L 380.036196 221.353704 
L 380.036196 221.353704 
" clip-path="url(#p8af8c62da2)" style="fill: none; stroke: #000000; stroke-opacity: 0.5; stroke-width: 1.5; stroke-linecap: square"/>
   </g>
   <g id="line2d_122">
    <path d="M 241.689088 221.353704 
L 380.036196 221.353704 
L 380.036196 221.353704 
" clip-path="url(#p8af8c62da2)" style="fill: none; stroke: #000000; stroke-opacity: 0.5; stroke-width: 1.5; stroke-linecap: square"/>
   </g>
   <g id="line2d_123">
    <path d="M 241.689088 221.353704 
L 380.036196 221.353704 
L 380.036196 221.353704 
" clip-path="url(#p8af8c62da2)" style="fill: none; stroke: #000000; stroke-opacity: 0.5; stroke-width: 1.5; stroke-linecap: square"/>
   </g>
   <g id="line2d_124">
    <path d="M 241.689088 221.353704 
L 380.036196 221.353704 
L 380.036196 221.353704 
" clip-path="url(#p8af8c62da2)" style="fill: none; stroke: #000000; stroke-opacity: 0.5; stroke-width: 1.5; stroke-linecap: square"/>
   </g>
   <g id="line2d_125">
    <path d="M 241.689088 221.353704 
L 380.036196 221.353704 
L 380.036196 221.353704 
" clip-path="url(#p8af8c62da2)" style="fill: none; stroke: #000000; stroke-opacity: 0.5; stroke-width: 1.5; stroke-linecap: square"/>
   </g>
   <g id="line2d_126">
    <path d="M 241.689088 221.353704 
L 380.036196 221.353704 
L 380.036196 221.353704 
" clip-path="url(#p8af8c62da2)" style="fill: none; stroke: #000000; stroke-opacity: 0.5; stroke-width: 1.5; stroke-linecap: square"/>
   </g>
   <g id="line2d_127">
    <path d="M 241.689088 221.353704 
L 380.036196 221.353704 
L 380.036196 221.353704 
" clip-path="url(#p8af8c62da2)" style="fill: none; stroke: #000000; stroke-opacity: 0.5; stroke-width: 1.5; stroke-linecap: square"/>
   </g>
   <g id="line2d_128">
    <path d="M 241.689088 221.353704 
L 380.036196 221.353704 
L 380.036196 221.353704 
" clip-path="url(#p8af8c62da2)" style="fill: none; stroke: #000000; stroke-opacity: 0.5; stroke-width: 1.5; stroke-linecap: square"/>
   </g>
   <g id="line2d_129">
    <path d="M 241.689088 221.353704 
L 380.036196 221.353704 
L 380.036196 221.353704 
" clip-path="url(#p8af8c62da2)" style="fill: none; stroke: #000000; stroke-opacity: 0.5; stroke-width: 1.5; stroke-linecap: square"/>
   </g>
   <g id="line2d_130">
    <path d="M 241.689088 221.353704 
L 380.036196 221.353704 
L 380.036196 221.353704 
" clip-path="url(#p8af8c62da2)" style="fill: none; stroke: #000000; stroke-opacity: 0.5; stroke-width: 1.5; stroke-linecap: square"/>
   </g>
   <g id="line2d_131">
    <path d="M 241.689088 221.353704 
L 380.036196 221.353704 
L 380.036196 221.353704 
" clip-path="url(#p8af8c62da2)" style="fill: none; stroke: #000000; stroke-opacity: 0.5; stroke-width: 1.5; stroke-linecap: square"/>
   </g>
   <g id="line2d_132">
    <path d="M 241.689088 221.353704 
L 380.036196 221.353704 
L 380.036196 221.353704 
" clip-path="url(#p8af8c62da2)" style="fill: none; stroke: #000000; stroke-opacity: 0.5; stroke-width: 1.5; stroke-linecap: square"/>
   </g>
   <g id="line2d_133">
    <path d="M 241.689088 221.353704 
L 380.036196 221.353704 
L 380.036196 221.353704 
" clip-path="url(#p8af8c62da2)" style="fill: none; stroke: #000000; stroke-opacity: 0.5; stroke-width: 1.5; stroke-linecap: square"/>
   </g>
   <g id="line2d_134">
    <path d="M 241.689088 221.353704 
L 380.036196 221.353704 
L 380.036196 221.353704 
" clip-path="url(#p8af8c62da2)" style="fill: none; stroke: #000000; stroke-opacity: 0.5; stroke-width: 1.5; stroke-linecap: square"/>
   </g>
   <g id="line2d_135">
    <path d="M 241.689088 221.353704 
L 380.036196 221.353704 
L 380.036196 221.353704 
" clip-path="url(#p8af8c62da2)" style="fill: none; stroke: #000000; stroke-opacity: 0.5; stroke-width: 1.5; stroke-linecap: square"/>
   </g>
   <g id="line2d_136">
    <path d="M 241.689088 221.353704 
L 380.036196 221.353704 
L 380.036196 221.353704 
" clip-path="url(#p8af8c62da2)" style="fill: none; stroke: #000000; stroke-opacity: 0.5; stroke-width: 1.5; stroke-linecap: square"/>
   </g>
   <g id="line2d_137">
    <path d="M 241.689088 221.353704 
L 380.036196 221.353704 
L 380.036196 221.353704 
" clip-path="url(#p8af8c62da2)" style="fill: none; stroke: #000000; stroke-opacity: 0.5; stroke-width: 1.5; stroke-linecap: square"/>
   </g>
   <g id="line2d_138">
    <path d="M 241.689088 221.353704 
L 380.036196 221.353704 
L 380.036196 221.353704 
" clip-path="url(#p8af8c62da2)" style="fill: none; stroke: #000000; stroke-opacity: 0.5; stroke-width: 1.5; stroke-linecap: square"/>
   </g>
   <g id="line2d_139">
    <path d="M 241.689088 221.353704 
L 380.036196 221.353704 
L 380.036196 221.353704 
" clip-path="url(#p8af8c62da2)" style="fill: none; stroke: #000000; stroke-opacity: 0.5; stroke-width: 1.5; stroke-linecap: square"/>
   </g>
   <g id="line2d_140">
    <path d="M 241.689088 221.353704 
L 380.036196 221.353704 
L 380.036196 221.353704 
" clip-path="url(#p8af8c62da2)" style="fill: none; stroke: #000000; stroke-opacity: 0.5; stroke-width: 1.5; stroke-linecap: square"/>
   </g>
   <g id="line2d_141">
    <path d="M 241.689088 221.353704 
L 380.036196 221.353704 
L 380.036196 221.353704 
" clip-path="url(#p8af8c62da2)" style="fill: none; stroke: #000000; stroke-opacity: 0.5; stroke-width: 1.5; stroke-linecap: square"/>
   </g>
   <g id="line2d_142">
    <path d="M 241.689088 221.353704 
L 380.036196 221.353704 
L 380.036196 221.353704 
" clip-path="url(#p8af8c62da2)" style="fill: none; stroke: #000000; stroke-opacity: 0.5; stroke-width: 1.5; stroke-linecap: square"/>
   </g>
   <g id="line2d_143">
    <path d="M 241.689088 221.353704 
L 380.036196 221.353704 
L 380.036196 221.353704 
" clip-path="url(#p8af8c62da2)" style="fill: none; stroke: #000000; stroke-opacity: 0.5; stroke-width: 1.5; stroke-linecap: square"/>
   </g>
   <g id="line2d_144">
    <path d="M 241.689088 221.353704 
L 380.036196 221.353704 
L 380.036196 221.353704 
" clip-path="url(#p8af8c62da2)" style="fill: none; stroke: #000000; stroke-opacity: 0.5; stroke-width: 1.5; stroke-linecap: square"/>
   </g>
   <g id="line2d_145">
    <path d="M 241.689088 221.353704 
L 380.036196 221.353704 
L 380.036196 221.353704 
" clip-path="url(#p8af8c62da2)" style="fill: none; stroke: #000000; stroke-opacity: 0.5; stroke-width: 1.5; stroke-linecap: square"/>
   </g>
   <g id="line2d_146">
    <path d="M 241.689088 221.353704 
L 380.036196 221.353704 
L 380.036196 221.353704 
" clip-path="url(#p8af8c62da2)" style="fill: none; stroke: #000000; stroke-opacity: 0.5; stroke-width: 1.5; stroke-linecap: square"/>
   </g>
   <g id="line2d_147">
    <path d="M 241.689088 131.502464 
L 243.079512 131.591988 
L 244.469935 131.860062 
L 245.860358 132.305395 
L 247.250781 132.925988 
L 248.641204 133.719146 
L 250.726839 135.224873 
L 252.812474 137.096905 
L 254.898109 139.317781 
L 256.983743 141.866943 
L 259.069378 144.720933 
L 261.850225 148.954886 
L 264.631071 153.615374 
L 268.107129 159.925655 
L 272.278399 167.998237 
L 284.792207 192.646308 
L 288.268265 198.850385 
L 291.049112 203.405544 
L 293.829958 207.52001 
L 295.915593 210.27764 
L 298.001228 212.726844 
L 300.086862 214.846264 
L 302.172497 216.617538 
L 304.258132 218.025457 
L 306.343767 219.058094 
L 307.73419 219.533671 
L 309.124613 219.83691 
L 310.515036 219.96682 
L 311.905459 219.923103 
L 313.295883 219.706152 
L 314.686306 219.317049 
L 316.076729 218.757563 
L 317.467152 218.030138 
L 319.552787 216.631097 
L 321.638422 214.87458 
L 323.724057 212.776999 
L 325.809691 210.35779 
L 327.895326 207.639235 
L 330.676173 203.592271 
L 333.457019 199.123343 
L 336.933077 193.05428 
L 341.104346 185.265837 
L 354.313367 160.092269 
L 357.789425 154.129851 
L 360.570271 149.76568 
L 363.351117 145.836835 
L 365.436752 143.213125 
L 367.522387 140.891974 
L 369.608022 138.893604 
L 371.693657 137.235305 
L 373.779291 135.931291 
L 375.864926 134.992573 
L 377.255349 134.573652 
L 378.645773 134.322045 
L 380.036196 134.238541 
L 380.036196 134.238541 
" clip-path="url(#p8af8c62da2)" style="fill: none; stroke: #1f77b4; stroke-width: 1.5; stroke-linecap: square"/>
   </g>
   <g id="line2d_148">
    <path d="M 241.689088 221.353704 
L 243.079512 221.264186 
L 244.469935 220.996132 
L 245.860358 220.550836 
L 247.250781 219.930295 
L 248.641204 219.137203 
L 250.726839 217.631606 
L 252.812474 215.759735 
L 254.898109 213.539053 
L 256.983743 210.990114 
L 259.069378 208.136373 
L 261.850225 203.902792 
L 264.631071 199.242714 
L 268.107129 192.932991 
L 272.278399 184.861124 
L 284.792207 160.215246 
L 288.268265 154.011725 
L 291.049112 149.456973 
L 293.829958 145.342877 
L 295.915593 142.585496 
L 298.001228 140.136514 
L 300.086862 138.017287 
L 302.172497 136.246174 
L 304.258132 134.838386 
L 306.343767 133.805844 
L 307.73419 133.330313 
L 309.124613 133.027104 
L 310.515036 132.897209 
L 311.905459 132.940926 
L 313.295883 133.157861 
L 314.686306 133.546932 
L 316.076729 134.106372 
L 317.467152 134.833735 
L 319.552787 136.232656 
L 321.638422 137.989022 
L 323.724057 140.086421 
L 325.809691 142.505418 
L 327.895326 145.223735 
L 330.676173 149.270344 
L 333.457019 153.738879 
L 336.933077 159.807406 
L 341.104346 167.595159 
L 354.313367 192.766487 
L 357.789425 198.728372 
L 360.570271 203.092151 
L 363.351117 207.020642 
L 365.436752 209.644115 
L 367.522387 211.965056 
L 369.608022 213.963245 
L 371.693657 215.621392 
L 373.779291 216.925285 
L 375.864926 217.863915 
L 377.255349 218.282796 
L 378.645773 218.534378 
L 380.036196 218.617871 
L 380.036196 218.617871 
" clip-path="url(#p8af8c62da2)" style="fill: none; stroke: #ff7f0e; stroke-width: 1.5; stroke-linecap: square"/>
   </g>
   <g id="patch_18">
    <path d="M 234.771733 225.846266 
L 234.771733 127.009903 
" style="fill: none; stroke: #000000; stroke-width: 0.8; stroke-linejoin: miter; stroke-linecap: square"/>
   </g>
   <g id="patch_19">
    <path d="M 386.953551 225.846266 
L 386.953551 127.009903 
" style="fill: none; stroke: #000000; stroke-width: 0.8; stroke-linejoin: miter; stroke-linecap: square"/>
   </g>
   <g id="patch_20">
    <path d="M 234.771733 225.846266 
L 386.953551 225.846266 
" style="fill: none; stroke: #000000; stroke-width: 0.8; stroke-linejoin: miter; stroke-linecap: square"/>
   </g>
   <g id="patch_21">
    <path d="M 234.771733 127.009903 
L 386.953551 127.009903 
" style="fill: none; stroke: #000000; stroke-width: 0.8; stroke-linejoin: miter; stroke-linecap: square"/>
   </g>
   <g id="text_18">
    <!-- $\frac{\gamma}{c}=150$ -->
    <g transform="translate(283.193221 176.428084) scale(0.15 -0.15)">
     <use xlink:href="#DejaVuSans-Oblique-3b3" transform="translate(0 58.71875) scale(0.7)"/>
     <use xlink:href="#DejaVuSans-Oblique-63" transform="translate(1 -26.289062) scale(0.7)"/>
     <use xlink:href="#DejaVuSans-3d" transform="translate(73.408203 0.364062)"/>
     <use xlink:href="#DejaVuSans-31" transform="translate(176.679688 0.364062)"/>
     <use xlink:href="#DejaVuSans-35" transform="translate(240.302734 0.364062)"/>
     <use xlink:href="#DejaVuSans-30" transform="translate(303.925781 0.364062)"/>
     <path d="M 0 19.160938 
L 0 25.410938 
L 41.425781 25.410938 
L 41.425781 19.160938 
L 0 19.160938 
z
"/>
    </g>
   </g>
  </g>
 </g>
 <defs>
  <clipPath id="p74e3e110bd">
   <rect x="52.153551" y="8.406266" width="152.181818" height="98.836364"/>
  </clipPath>
  <clipPath id="pd1695c9208">
   <rect x="234.771733" y="8.406266" width="152.181818" height="98.836364"/>
  </clipPath>
  <clipPath id="pcf32535087">
   <rect x="52.153551" y="127.009903" width="152.181818" height="98.836364"/>
  </clipPath>
  <clipPath id="p8af8c62da2">
   <rect x="234.771733" y="127.009903" width="152.181818" height="98.836364"/>
  </clipPath>
 </defs>
</svg>
