<?xml version="1.0" encoding="utf-8" standalone="no"?>
<!DOCTYPE svg PUBLIC "-//W3C//DTD SVG 1.1//EN"
  "http://www.w3.org/Graphics/SVG/1.1/DTD/svg11.dtd">
<svg xmlns:xlink="http://www.w3.org/1999/xlink" width="399.16354pt" height="271.113539pt" viewBox="0 0 399.16354 271.113539" xmlns="http://www.w3.org/2000/svg" version="1.1">
 <metadata>
  <rdf:RDF xmlns:dc="http://purl.org/dc/elements/1.1/" xmlns:cc="http://creativecommons.org/ns#" xmlns:rdf="http://www.w3.org/1999/02/22-rdf-syntax-ns#">
   <cc:Work>
    <dc:type rdf:resource="http://purl.org/dc/dcmitype/StillImage"/>
    <dc:date>2026-01-20T22:03:53.317237</dc:date>
    <dc:format>image/svg+xml</dc:format>
    <dc:creator>
     <cc:Agent>
      <dc:title>Matplotlib v3.6.3, https://matplotlib.org/</dc:title>
     </cc:Agent>
    </dc:creator>
   </cc:Work>
  </rdf:RDF>
 </metadata>
 <defs>
  <style type="text/css">*{stroke-linejoin: round; stroke-linecap: butt}</style>
 </defs>
 <g id="figure_1">
  <g id="patch_1">
   <path d="M 0 271.113539 
L 399.16354 271.113539 
L 399.16354 0 
L 0 0 
L 0 271.113539 
z
" style="fill: none"/>
  </g>
  <g id="axes_1">
   <g id="patch_2">
    <path d="M 52.153551 107.24263 
L 204.335369 107.24263 
L 204.335369 8.406266 
L 52.153551 8.406266 
z
" style="fill: #ffffff"/>
   </g>
   <g id="matplotlib.axis_1">
    <g id="xtick_1">
     <g id="line2d_1">
      <defs>
       <path id="m3ac0e33be9" d="M 0 0 
L 0 3.5 
" style="stroke: #000000; stroke-width: 0.8"/>
      </defs>
      <g>
       <use xlink:href="#m3ac0e33be9" x="59.070907" y="107.24263" style="stroke: #000000; stroke-width: 0.8"/>
      </g>
     </g>
    </g>
    <g id="xtick_2">
     <g id="line2d_2">
      <g>
       <use xlink:href="#m3ac0e33be9" x="128.24446" y="107.24263" style="stroke: #000000; stroke-width: 0.8"/>
      </g>
     </g>
    </g>
    <g id="xtick_3">
     <g id="line2d_3">
      <g>
       <use xlink:href="#m3ac0e33be9" x="197.418014" y="107.24263" style="stroke: #000000; stroke-width: 0.8"/>
      </g>
     </g>
    </g>
   </g>
   <g id="matplotlib.axis_2">
    <g id="ytick_1">
     <g id="line2d_4">
      <defs>
       <path id="m8518364ad2" d="M 0 0 
L -3.5 0 
" style="stroke: #000000; stroke-width: 0.8"/>
      </defs>
      <g>
       <use xlink:href="#m8518364ad2" x="52.153551" y="102.750068" style="stroke: #000000; stroke-width: 0.8"/>
      </g>
     </g>
     <g id="text_1">
      <!-- 0.0 -->
      <g transform="translate(21.298864 108.448896) scale(0.15 -0.15)">
       <defs>
        <path id="DejaVuSans-30" d="M 2034 4250 
Q 1547 4250 1301 3770 
Q 1056 3291 1056 2328 
Q 1056 1369 1301 889 
Q 1547 409 2034 409 
Q 2525 409 2770 889 
Q 3016 1369 3016 2328 
Q 3016 3291 2770 3770 
Q 2525 4250 2034 4250 
z
M 2034 4750 
Q 2819 4750 3233 4129 
Q 3647 3509 3647 2328 
Q 3647 1150 3233 529 
Q 2819 -91 2034 -91 
Q 1250 -91 836 529 
Q 422 1150 422 2328 
Q 422 3509 836 4129 
Q 1250 4750 2034 4750 
z
" transform="scale(0.015625)"/>
        <path id="DejaVuSans-2e" d="M 684 794 
L 1344 794 
L 1344 0 
L 684 0 
L 684 794 
z
" transform="scale(0.015625)"/>
       </defs>
       <use xlink:href="#DejaVuSans-30"/>
       <use xlink:href="#DejaVuSans-2e" x="63.623047"/>
       <use xlink:href="#DejaVuSans-30" x="95.410156"/>
      </g>
     </g>
    </g>
    <g id="ytick_2">
     <g id="line2d_5">
      <g>
       <use xlink:href="#m8518364ad2" x="52.153551" y="57.824448" style="stroke: #000000; stroke-width: 0.8"/>
      </g>
     </g>
     <g id="text_2">
      <!-- 0.5 -->
      <g transform="translate(21.298864 63.523276) scale(0.15 -0.15)">
       <defs>
        <path id="DejaVuSans-35" d="M 691 4666 
L 3169 4666 
L 3169 4134 
L 1269 4134 
L 1269 2991 
Q 1406 3038 1543 3061 
Q 1681 3084 1819 3084 
Q 2600 3084 3056 2656 
Q 3513 2228 3513 1497 
Q 3513 744 3044 326 
Q 2575 -91 1722 -91 
Q 1428 -91 1123 -41 
Q 819 9 494 109 
L 494 744 
Q 775 591 1075 516 
Q 1375 441 1709 441 
Q 2250 441 2565 725 
Q 2881 1009 2881 1497 
Q 2881 1984 2565 2268 
Q 2250 2553 1709 2553 
Q 1456 2553 1204 2497 
Q 953 2441 691 2322 
L 691 4666 
z
" transform="scale(0.015625)"/>
       </defs>
       <use xlink:href="#DejaVuSans-30"/>
       <use xlink:href="#DejaVuSans-2e" x="63.623047"/>
       <use xlink:href="#DejaVuSans-35" x="95.410156"/>
      </g>
     </g>
    </g>
    <g id="ytick_3">
     <g id="line2d_6">
      <g>
       <use xlink:href="#m8518364ad2" x="52.153551" y="12.898828" style="stroke: #000000; stroke-width: 0.8"/>
      </g>
     </g>
     <g id="text_3">
      <!-- 1.0 -->
      <g transform="translate(21.298864 18.597656) scale(0.15 -0.15)">
       <defs>
        <path id="DejaVuSans-31" d="M 794 531 
L 1825 531 
L 1825 4091 
L 703 3866 
L 703 4441 
L 1819 4666 
L 2450 4666 
L 2450 531 
L 3481 531 
L 3481 0 
L 794 0 
L 794 531 
z
" transform="scale(0.015625)"/>
       </defs>
       <use xlink:href="#DejaVuSans-31"/>
       <use xlink:href="#DejaVuSans-2e" x="63.623047"/>
       <use xlink:href="#DejaVuSans-30" x="95.410156"/>
      </g>
     </g>
    </g>
    <g id="text_4">
     <!-- Photon Number Probabilities -->
     <g transform="translate(18.597656 233.862637) rotate(-90) scale(0.15 -0.15)">
      <defs>
       <path id="DejaVuSans-50" d="M 1259 4147 
L 1259 2394 
L 2053 2394 
Q 2494 2394 2734 2622 
Q 2975 2850 2975 3272 
Q 2975 3691 2734 3919 
Q 2494 4147 2053 4147 
L 1259 4147 
z
M 628 4666 
L 2053 4666 
Q 2838 4666 3239 4311 
Q 3641 3956 3641 3272 
Q 3641 2581 3239 2228 
Q 2838 1875 2053 1875 
L 1259 1875 
L 1259 0 
L 628 0 
L 628 4666 
z
" transform="scale(0.015625)"/>
       <path id="DejaVuSans-68" d="M 3513 2113 
L 3513 0 
L 2938 0 
L 2938 2094 
Q 2938 2591 2744 2837 
Q 2550 3084 2163 3084 
Q 1697 3084 1428 2787 
Q 1159 2491 1159 1978 
L 1159 0 
L 581 0 
L 581 4863 
L 1159 4863 
L 1159 2956 
Q 1366 3272 1645 3428 
Q 1925 3584 2291 3584 
Q 2894 3584 3203 3211 
Q 3513 2838 3513 2113 
z
" transform="scale(0.015625)"/>
       <path id="DejaVuSans-6f" d="M 1959 3097 
Q 1497 3097 1228 2736 
Q 959 2375 959 1747 
Q 959 1119 1226 758 
Q 1494 397 1959 397 
Q 2419 397 2687 759 
Q 2956 1122 2956 1747 
Q 2956 2369 2687 2733 
Q 2419 3097 1959 3097 
z
M 1959 3584 
Q 2709 3584 3137 3096 
Q 3566 2609 3566 1747 
Q 3566 888 3137 398 
Q 2709 -91 1959 -91 
Q 1206 -91 779 398 
Q 353 888 353 1747 
Q 353 2609 779 3096 
Q 1206 3584 1959 3584 
z
" transform="scale(0.015625)"/>
       <path id="DejaVuSans-74" d="M 1172 4494 
L 1172 3500 
L 2356 3500 
L 2356 3053 
L 1172 3053 
L 1172 1153 
Q 1172 725 1289 603 
Q 1406 481 1766 481 
L 2356 481 
L 2356 0 
L 1766 0 
Q 1100 0 847 248 
Q 594 497 594 1153 
L 594 3053 
L 172 3053 
L 172 3500 
L 594 3500 
L 594 4494 
L 1172 4494 
z
" transform="scale(0.015625)"/>
       <path id="DejaVuSans-6e" d="M 3513 2113 
L 3513 0 
L 2938 0 
L 2938 2094 
Q 2938 2591 2744 2837 
Q 2550 3084 2163 3084 
Q 1697 3084 1428 2787 
Q 1159 2491 1159 1978 
L 1159 0 
L 581 0 
L 581 3500 
L 1159 3500 
L 1159 2956 
Q 1366 3272 1645 3428 
Q 1925 3584 2291 3584 
Q 2894 3584 3203 3211 
Q 3513 2838 3513 2113 
z
" transform="scale(0.015625)"/>
       <path id="DejaVuSans-20" transform="scale(0.015625)"/>
       <path id="DejaVuSans-4e" d="M 628 4666 
L 1478 4666 
L 3547 763 
L 3547 4666 
L 4159 4666 
L 4159 0 
L 3309 0 
L 1241 3903 
L 1241 0 
L 628 0 
L 628 4666 
z
" transform="scale(0.015625)"/>
       <path id="DejaVuSans-75" d="M 544 1381 
L 544 3500 
L 1119 3500 
L 1119 1403 
Q 1119 906 1312 657 
Q 1506 409 1894 409 
Q 2359 409 2629 706 
Q 2900 1003 2900 1516 
L 2900 3500 
L 3475 3500 
L 3475 0 
L 2900 0 
L 2900 538 
Q 2691 219 2414 64 
Q 2138 -91 1772 -91 
Q 1169 -91 856 284 
Q 544 659 544 1381 
z
M 1991 3584 
L 1991 3584 
z
" transform="scale(0.015625)"/>
       <path id="DejaVuSans-6d" d="M 3328 2828 
Q 3544 3216 3844 3400 
Q 4144 3584 4550 3584 
Q 5097 3584 5394 3201 
Q 5691 2819 5691 2113 
L 5691 0 
L 5113 0 
L 5113 2094 
Q 5113 2597 4934 2840 
Q 4756 3084 4391 3084 
Q 3944 3084 3684 2787 
Q 3425 2491 3425 1978 
L 3425 0 
L 2847 0 
L 2847 2094 
Q 2847 2600 2669 2842 
Q 2491 3084 2119 3084 
Q 1678 3084 1418 2786 
Q 1159 2488 1159 1978 
L 1159 0 
L 581 0 
L 581 3500 
L 1159 3500 
L 1159 2956 
Q 1356 3278 1631 3431 
Q 1906 3584 2284 3584 
Q 2666 3584 2933 3390 
Q 3200 3197 3328 2828 
z
" transform="scale(0.015625)"/>
       <path id="DejaVuSans-62" d="M 3116 1747 
Q 3116 2381 2855 2742 
Q 2594 3103 2138 3103 
Q 1681 3103 1420 2742 
Q 1159 2381 1159 1747 
Q 1159 1113 1420 752 
Q 1681 391 2138 391 
Q 2594 391 2855 752 
Q 3116 1113 3116 1747 
z
M 1159 2969 
Q 1341 3281 1617 3432 
Q 1894 3584 2278 3584 
Q 2916 3584 3314 3078 
Q 3713 2572 3713 1747 
Q 3713 922 3314 415 
Q 2916 -91 2278 -91 
Q 1894 -91 1617 61 
Q 1341 213 1159 525 
L 1159 0 
L 581 0 
L 581 4863 
L 1159 4863 
L 1159 2969 
z
" transform="scale(0.015625)"/>
       <path id="DejaVuSans-65" d="M 3597 1894 
L 3597 1613 
L 953 1613 
Q 991 1019 1311 708 
Q 1631 397 2203 397 
Q 2534 397 2845 478 
Q 3156 559 3463 722 
L 3463 178 
Q 3153 47 2828 -22 
Q 2503 -91 2169 -91 
Q 1331 -91 842 396 
Q 353 884 353 1716 
Q 353 2575 817 3079 
Q 1281 3584 2069 3584 
Q 2775 3584 3186 3129 
Q 3597 2675 3597 1894 
z
M 3022 2063 
Q 3016 2534 2758 2815 
Q 2500 3097 2075 3097 
Q 1594 3097 1305 2825 
Q 1016 2553 972 2059 
L 3022 2063 
z
" transform="scale(0.015625)"/>
       <path id="DejaVuSans-72" d="M 2631 2963 
Q 2534 3019 2420 3045 
Q 2306 3072 2169 3072 
Q 1681 3072 1420 2755 
Q 1159 2438 1159 1844 
L 1159 0 
L 581 0 
L 581 3500 
L 1159 3500 
L 1159 2956 
Q 1341 3275 1631 3429 
Q 1922 3584 2338 3584 
Q 2397 3584 2469 3576 
Q 2541 3569 2628 3553 
L 2631 2963 
z
" transform="scale(0.015625)"/>
       <path id="DejaVuSans-61" d="M 2194 1759 
Q 1497 1759 1228 1600 
Q 959 1441 959 1056 
Q 959 750 1161 570 
Q 1363 391 1709 391 
Q 2188 391 2477 730 
Q 2766 1069 2766 1631 
L 2766 1759 
L 2194 1759 
z
M 3341 1997 
L 3341 0 
L 2766 0 
L 2766 531 
Q 2569 213 2275 61 
Q 1981 -91 1556 -91 
Q 1019 -91 701 211 
Q 384 513 384 1019 
Q 384 1609 779 1909 
Q 1175 2209 1959 2209 
L 2766 2209 
L 2766 2266 
Q 2766 2663 2505 2880 
Q 2244 3097 1772 3097 
Q 1472 3097 1187 3025 
Q 903 2953 641 2809 
L 641 3341 
Q 956 3463 1253 3523 
Q 1550 3584 1831 3584 
Q 2591 3584 2966 3190 
Q 3341 2797 3341 1997 
z
" transform="scale(0.015625)"/>
       <path id="DejaVuSans-69" d="M 603 3500 
L 1178 3500 
L 1178 0 
L 603 0 
L 603 3500 
z
M 603 4863 
L 1178 4863 
L 1178 4134 
L 603 4134 
L 603 4863 
z
" transform="scale(0.015625)"/>
       <path id="DejaVuSans-6c" d="M 603 4863 
L 1178 4863 
L 1178 0 
L 603 0 
L 603 4863 
z
" transform="scale(0.015625)"/>
       <path id="DejaVuSans-73" d="M 2834 3397 
L 2834 2853 
Q 2591 2978 2328 3040 
Q 2066 3103 1784 3103 
Q 1356 3103 1142 2972 
Q 928 2841 928 2578 
Q 928 2378 1081 2264 
Q 1234 2150 1697 2047 
L 1894 2003 
Q 2506 1872 2764 1633 
Q 3022 1394 3022 966 
Q 3022 478 2636 193 
Q 2250 -91 1575 -91 
Q 1294 -91 989 -36 
Q 684 19 347 128 
L 347 722 
Q 666 556 975 473 
Q 1284 391 1588 391 
Q 1994 391 2212 530 
Q 2431 669 2431 922 
Q 2431 1156 2273 1281 
Q 2116 1406 1581 1522 
L 1381 1569 
Q 847 1681 609 1914 
Q 372 2147 372 2553 
Q 372 3047 722 3315 
Q 1072 3584 1716 3584 
Q 2034 3584 2315 3537 
Q 2597 3491 2834 3397 
z
" transform="scale(0.015625)"/>
      </defs>
      <use xlink:href="#DejaVuSans-50"/>
      <use xlink:href="#DejaVuSans-68" x="60.302734"/>
      <use xlink:href="#DejaVuSans-6f" x="123.681641"/>
      <use xlink:href="#DejaVuSans-74" x="184.863281"/>
      <use xlink:href="#DejaVuSans-6f" x="224.072266"/>
      <use xlink:href="#DejaVuSans-6e" x="285.253906"/>
      <use xlink:href="#DejaVuSans-20" x="348.632812"/>
      <use xlink:href="#DejaVuSans-4e" x="380.419922"/>
      <use xlink:href="#DejaVuSans-75" x="455.224609"/>
      <use xlink:href="#DejaVuSans-6d" x="518.603516"/>
      <use xlink:href="#DejaVuSans-62" x="616.015625"/>
      <use xlink:href="#DejaVuSans-65" x="679.492188"/>
      <use xlink:href="#DejaVuSans-72" x="741.015625"/>
      <use xlink:href="#DejaVuSans-20" x="782.128906"/>
      <use xlink:href="#DejaVuSans-50" x="813.916016"/>
      <use xlink:href="#DejaVuSans-72" x="872.46875"/>
      <use xlink:href="#DejaVuSans-6f" x="911.332031"/>
      <use xlink:href="#DejaVuSans-62" x="972.513672"/>
      <use xlink:href="#DejaVuSans-61" x="1035.990234"/>
      <use xlink:href="#DejaVuSans-62" x="1097.269531"/>
      <use xlink:href="#DejaVuSans-69" x="1160.746094"/>
      <use xlink:href="#DejaVuSans-6c" x="1188.529297"/>
      <use xlink:href="#DejaVuSans-69" x="1216.3125"/>
      <use xlink:href="#DejaVuSans-74" x="1244.095703"/>
      <use xlink:href="#DejaVuSans-69" x="1283.304688"/>
      <use xlink:href="#DejaVuSans-65" x="1311.087891"/>
      <use xlink:href="#DejaVuSans-73" x="1372.611328"/>
     </g>
    </g>
   </g>
   <g id="line2d_7">
    <path d="M 59.070907 102.750068 
L 68.803869 102.648385 
L 72.279927 102.420086 
L 75.755985 101.956997 
L 78.536831 101.360093 
L 81.317678 100.525166 
L 84.098524 99.432987 
L 86.87937 98.081232 
L 89.660217 96.485406 
L 93.136275 94.19799 
L 97.307544 91.149862 
L 107.735718 83.342421 
L 111.211776 81.044176 
L 114.687834 79.014525 
L 118.163892 77.278212 
L 121.63995 75.831126 
L 125.116008 74.645842 
L 128.592066 73.679074 
L 132.763336 72.735503 
L 139.02024 71.58693 
L 149.448414 69.94758 
L 156.40053 69.050608 
L 160.571799 68.704035 
L 164.047857 68.594001 
L 167.523915 68.694715 
L 170.999973 69.044507 
L 173.78082 69.522102 
L 176.561666 70.183197 
L 180.037724 71.266383 
L 183.513782 72.618482 
L 186.98984 74.205887 
L 191.16111 76.353242 
L 197.418014 79.855409 
L 197.418014 79.855409 
" clip-path="url(#p03c117ad6e)" style="fill: none; stroke: #000000; stroke-opacity: 0.5; stroke-width: 1.5; stroke-linecap: square"/>
   </g>
   <g id="line2d_8">
    <path d="M 59.070907 102.750068 
L 79.232043 102.643728 
L 84.793736 102.359434 
L 88.965005 101.916772 
L 92.441063 101.341036 
L 95.917121 100.546406 
L 99.393179 99.521851 
L 102.869237 98.276694 
L 107.040507 96.533687 
L 112.602199 93.924379 
L 123.725585 88.616589 
L 128.592066 86.602565 
L 132.763336 85.140531 
L 136.239394 84.143603 
L 139.715452 83.37174 
L 143.19151 82.845279 
L 146.667567 82.583132 
L 149.448414 82.574833 
L 152.22926 82.752343 
L 155.010107 83.118488 
L 157.790953 83.671554 
L 161.267011 84.613871 
L 164.743069 85.807409 
L 168.914339 87.506349 
L 175.171243 90.370633 
L 182.123359 93.519383 
L 186.294628 95.152773 
L 189.770686 96.272148 
L 193.246744 97.12503 
L 196.027591 97.596598 
L 197.418014 97.75936 
L 197.418014 97.75936 
" clip-path="url(#p03c117ad6e)" style="fill: none; stroke: #000000; stroke-opacity: 0.5; stroke-width: 1.5; stroke-linecap: square"/>
   </g>
   <g id="line2d_9">
    <path d="M 59.070907 102.750068 
L 89.660217 102.650386 
L 96.612333 102.387917 
L 102.174025 101.957486 
L 107.735718 101.285825 
L 113.992623 100.267968 
L 129.982489 97.470758 
L 134.153759 97.028149 
L 138.325028 96.820502 
L 141.801086 96.851707 
L 145.277144 97.07499 
L 149.448414 97.581085 
L 154.314895 98.433125 
L 167.523915 100.937849 
L 170.999973 101.285457 
L 174.476031 101.377364 
L 177.256878 101.240464 
L 180.037724 100.906814 
L 182.81857 100.378798 
L 186.294628 99.46604 
L 189.770686 98.316165 
L 194.637168 96.431201 
L 197.418014 95.280349 
L 197.418014 95.280349 
" clip-path="url(#p03c117ad6e)" style="fill: none; stroke: #000000; stroke-opacity: 0.5; stroke-width: 1.5; stroke-linecap: square"/>
   </g>
   <g id="line2d_10">
    <path d="M 59.070907 102.750068 
L 102.174025 102.641513 
L 113.297411 102.340985 
L 129.287278 101.854307 
L 136.239394 101.903523 
L 143.886721 102.20154 
L 154.314895 102.610642 
L 159.181376 102.551436 
L 163.352646 102.27505 
L 167.523915 101.764135 
L 171.695185 101.031038 
L 177.256878 99.793716 
L 190.465898 96.69324 
L 195.332379 95.839357 
L 197.418014 95.549785 
L 197.418014 95.549785 
" clip-path="url(#p03c117ad6e)" style="fill: none; stroke: #000000; stroke-opacity: 0.5; stroke-width: 1.5; stroke-linecap: square"/>
   </g>
   <g id="line2d_11">
    <path d="M 59.070907 102.750068 
L 150.838837 102.646342 
L 158.486165 102.342645 
L 180.037724 101.287529 
L 189.770686 101.226758 
L 197.418014 101.113131 
L 197.418014 101.113131 
" clip-path="url(#p03c117ad6e)" style="fill: none; stroke: #000000; stroke-opacity: 0.5; stroke-width: 1.5; stroke-linecap: square"/>
   </g>
   <g id="line2d_12">
    <path d="M 59.070907 102.750068 
L 173.78082 102.642933 
L 181.428147 102.49405 
L 187.685052 102.148911 
L 193.941956 101.560656 
L 197.418014 101.141393 
L 197.418014 101.141393 
" clip-path="url(#p03c117ad6e)" style="fill: none; stroke: #000000; stroke-opacity: 0.5; stroke-width: 1.5; stroke-linecap: square"/>
   </g>
   <g id="line2d_13">
    <path d="M 59.070907 102.750068 
L 173.085608 102.640149 
L 185.599417 102.31271 
L 197.418014 101.894164 
L 197.418014 101.894164 
" clip-path="url(#p03c117ad6e)" style="fill: none; stroke: #000000; stroke-opacity: 0.5; stroke-width: 1.5; stroke-linecap: square"/>
   </g>
   <g id="line2d_14">
    <path d="M 59.070907 102.750068 
L 197.418014 102.711048 
L 197.418014 102.711048 
" clip-path="url(#p03c117ad6e)" style="fill: none; stroke: #000000; stroke-opacity: 0.5; stroke-width: 1.5; stroke-linecap: square"/>
   </g>
   <g id="line2d_15">
    <path d="M 59.070907 102.750068 
L 193.941956 102.64148 
L 197.418014 102.606236 
L 197.418014 102.606236 
" clip-path="url(#p03c117ad6e)" style="fill: none; stroke: #000000; stroke-opacity: 0.5; stroke-width: 1.5; stroke-linecap: square"/>
   </g>
   <g id="line2d_16">
    <path d="M 59.070907 12.898828 
L 60.46133 12.988357 
L 61.851753 13.256407 
L 63.242176 13.701379 
L 64.632599 14.32062 
L 66.718234 15.567907 
L 68.803869 17.182187 
L 70.889504 19.142139 
L 72.975138 21.42213 
L 75.060773 23.992711 
L 77.84162 27.815287 
L 80.622466 32.011662 
L 84.098524 37.645906 
L 90.355428 48.33609 
L 96.612333 58.900321 
L 100.783602 65.468065 
L 104.25966 70.499053 
L 107.040507 74.184955 
L 109.821353 77.546608 
L 112.602199 80.574291 
L 115.383046 83.267836 
L 118.163892 85.635115 
L 120.944738 87.690386 
L 123.725585 89.452613 
L 126.506431 90.943867 
L 129.287278 92.187875 
L 132.068124 93.208791 
L 134.84897 94.030197 
L 138.325028 94.810164 
L 141.801086 95.352552 
L 145.277144 95.691777 
L 149.448414 95.871652 
L 153.619683 95.843207 
L 158.486165 95.593329 
L 164.047857 95.081121 
L 170.999973 94.202143 
L 191.16111 91.464494 
L 196.722802 91.000853 
L 197.418014 90.958122 
L 197.418014 90.958122 
" clip-path="url(#p03c117ad6e)" style="fill: none; stroke: #1f77b4; stroke-width: 1.5; stroke-linecap: square"/>
   </g>
   <g id="line2d_17">
    <path d="M 59.070907 102.750068 
L 60.46133 102.660584 
L 61.851753 102.393201 
L 63.242176 101.951109 
L 64.632599 101.33957 
L 66.718234 100.120931 
L 68.803869 98.570054 
L 70.889504 96.727574 
L 73.67035 93.90044 
L 77.146408 89.95179 
L 86.184159 79.350107 
L 88.965005 76.480564 
L 91.745851 73.97057 
L 93.831486 72.363732 
L 95.917121 71.013537 
L 98.002756 69.929444 
L 100.088391 69.113062 
L 102.174025 68.558728 
L 104.25966 68.254311 
L 106.345295 68.182168 
L 108.43093 68.320198 
L 110.516565 68.642946 
L 113.297411 69.312521 
L 116.773469 70.437227 
L 121.63995 72.31236 
L 129.287278 75.266884 
L 133.458547 76.593636 
L 136.934605 77.451273 
L 140.410663 78.049504 
L 143.886721 78.374776 
L 147.362779 78.428733 
L 150.838837 78.22624 
L 154.314895 77.793613 
L 158.486165 77.022174 
L 163.352646 75.873876 
L 177.256878 72.386885 
L 181.428147 71.639318 
L 184.904205 71.217369 
L 188.380263 71.006337 
L 191.856321 71.022013 
L 195.332379 71.270471 
L 197.418014 71.53051 
L 197.418014 71.53051 
" clip-path="url(#p03c117ad6e)" style="fill: none; stroke: #ff7f0e; stroke-width: 1.5; stroke-linecap: square"/>
   </g>
   <g id="patch_3">
    <path d="M 52.153551 107.24263 
L 52.153551 8.406266 
" style="fill: none; stroke: #000000; stroke-width: 0.8; stroke-linejoin: miter; stroke-linecap: square"/>
   </g>
   <g id="patch_4">
    <path d="M 204.335369 107.24263 
L 204.335369 8.406266 
" style="fill: none; stroke: #000000; stroke-width: 0.8; stroke-linejoin: miter; stroke-linecap: square"/>
   </g>
   <g id="patch_5">
    <path d="M 52.153551 107.24263 
L 204.335369 107.24263 
" style="fill: none; stroke: #000000; stroke-width: 0.8; stroke-linejoin: miter; stroke-linecap: square"/>
   </g>
   <g id="patch_6">
    <path d="M 52.153551 8.406266 
L 204.335369 8.406266 
" style="fill: none; stroke: #000000; stroke-width: 0.8; stroke-linejoin: miter; stroke-linecap: square"/>
   </g>
   <g id="text_5">
    <!-- $\frac{\gamma}{c}=0.5$ -->
    <g transform="translate(148.996526 30.869076) scale(0.15 -0.15)">
     <defs>
      <path id="DejaVuSans-Oblique-3b3" d="M 1491 2950 
L 1838 788 
L 3456 3500 
L 4066 3500 
L 1972 0 
L 1713 -1331 
L 1138 -1331 
L 1397 0 
L 988 2613 
Q 925 3006 628 3006 
L 475 3006 
L 569 3500 
L 788 3500 
Q 1403 3500 1491 2950 
z
" transform="scale(0.015625)"/>
      <path id="DejaVuSans-Oblique-63" d="M 3431 3366 
L 3316 2797 
Q 3109 2947 2876 3022 
Q 2644 3097 2394 3097 
Q 2119 3097 1870 3000 
Q 1622 2903 1453 2725 
Q 1184 2453 1037 2087 
Q 891 1722 891 1331 
Q 891 859 1127 628 
Q 1363 397 1844 397 
Q 2081 397 2348 469 
Q 2616 541 2906 684 
L 2797 116 
Q 2547 13 2283 -39 
Q 2019 -91 1741 -91 
Q 1044 -91 669 257 
Q 294 606 294 1253 
Q 294 1797 489 2255 
Q 684 2713 1069 3078 
Q 1331 3328 1684 3456 
Q 2038 3584 2456 3584 
Q 2700 3584 2940 3529 
Q 3181 3475 3431 3366 
z
" transform="scale(0.015625)"/>
      <path id="DejaVuSans-3d" d="M 678 2906 
L 4684 2906 
L 4684 2381 
L 678 2381 
L 678 2906 
z
M 678 1631 
L 4684 1631 
L 4684 1100 
L 678 1100 
L 678 1631 
z
" transform="scale(0.015625)"/>
     </defs>
     <use xlink:href="#DejaVuSans-Oblique-3b3" transform="translate(0 58.71875) scale(0.7)"/>
     <use xlink:href="#DejaVuSans-Oblique-63" transform="translate(1 -26.289062) scale(0.7)"/>
     <use xlink:href="#DejaVuSans-3d" transform="translate(73.408203 0.364062)"/>
     <use xlink:href="#DejaVuSans-30" transform="translate(176.679688 0.364062)"/>
     <use xlink:href="#DejaVuSans-2e" transform="translate(240.302734 0.364062)"/>
     <use xlink:href="#DejaVuSans-35" transform="translate(272.089844 0.364062)"/>
     <path d="M 0 19.160938 
L 0 25.410938 
L 41.425781 25.410938 
L 41.425781 19.160938 
L 0 19.160938 
z
"/>
    </g>
   </g>
  </g>
  <g id="axes_2">
   <g id="patch_7">
    <path d="M 234.771733 107.24263 
L 386.953551 107.24263 
L 386.953551 8.406266 
L 234.771733 8.406266 
z
" style="fill: #ffffff"/>
   </g>
   <g id="matplotlib.axis_3">
    <g id="xtick_4">
     <g id="line2d_18">
      <g>
       <use xlink:href="#m3ac0e33be9" x="241.689088" y="107.24263" style="stroke: #000000; stroke-width: 0.8"/>
      </g>
     </g>
    </g>
    <g id="xtick_5">
     <g id="line2d_19">
      <g>
       <use xlink:href="#m3ac0e33be9" x="310.862642" y="107.24263" style="stroke: #000000; stroke-width: 0.8"/>
      </g>
     </g>
    </g>
    <g id="xtick_6">
     <g id="line2d_20">
      <g>
       <use xlink:href="#m3ac0e33be9" x="380.036196" y="107.24263" style="stroke: #000000; stroke-width: 0.8"/>
      </g>
     </g>
    </g>
   </g>
   <g id="matplotlib.axis_4">
    <g id="ytick_4">
     <g id="line2d_21">
      <g>
       <use xlink:href="#m8518364ad2" x="234.771733" y="102.750068" style="stroke: #000000; stroke-width: 0.8"/>
      </g>
     </g>
    </g>
    <g id="ytick_5">
     <g id="line2d_22">
      <g>
       <use xlink:href="#m8518364ad2" x="234.771733" y="57.824448" style="stroke: #000000; stroke-width: 0.8"/>
      </g>
     </g>
    </g>
    <g id="ytick_6">
     <g id="line2d_23">
      <g>
       <use xlink:href="#m8518364ad2" x="234.771733" y="12.898828" style="stroke: #000000; stroke-width: 0.8"/>
      </g>
     </g>
    </g>
   </g>
   <g id="line2d_24">
    <path d="M 241.689088 102.750068 
L 251.422051 102.649596 
L 255.59332 102.35863 
L 259.069378 101.861432 
L 261.850225 101.248136 
L 264.631071 100.420388 
L 267.411917 99.37291 
L 270.192764 98.11591 
L 273.668822 96.288018 
L 277.840091 93.814206 
L 291.744323 85.27296 
L 295.220381 83.507502 
L 298.001228 82.303136 
L 300.782074 81.315883 
L 303.56292 80.570319 
L 306.343767 80.084827 
L 309.124613 79.870152 
L 311.905459 79.928113 
L 314.686306 80.25079 
L 317.467152 80.820438 
L 320.247999 81.610218 
L 323.724057 82.853931 
L 327.895326 84.616791 
L 341.104346 90.488138 
L 344.580404 91.694155 
L 347.361251 92.447796 
L 350.142097 92.973377 
L 352.922944 93.239484 
L 355.70379 93.22354 
L 358.484636 92.915269 
L 361.265483 92.319674 
L 364.046329 91.458774 
L 366.827175 90.371446 
L 370.303233 88.776289 
L 380.036196 83.95576 
L 380.036196 83.95576 
" clip-path="url(#pb08b13a485)" style="fill: none; stroke: #000000; stroke-opacity: 0.5; stroke-width: 1.5; stroke-linecap: square"/>
   </g>
   <g id="line2d_25">
    <path d="M 241.689088 102.750068 
L 262.545436 102.641485 
L 268.802341 102.360854 
L 274.364033 101.886792 
L 281.316149 101.046948 
L 289.658688 100.050651 
L 293.829958 99.749338 
L 298.001228 99.667505 
L 302.172497 99.825094 
L 307.038978 100.265466 
L 318.857575 101.512579 
L 322.333633 101.608166 
L 325.809691 101.472392 
L 329.285749 101.084012 
L 332.761807 100.454143 
L 336.933077 99.441474 
L 344.580404 97.25789 
L 350.142097 95.790485 
L 355.008578 94.742793 
L 368.217599 92.126884 
L 371.693657 91.097457 
L 375.169715 89.809408 
L 378.645773 88.268262 
L 380.036196 87.592048 
L 380.036196 87.592048 
" clip-path="url(#pb08b13a485)" style="fill: none; stroke: #000000; stroke-opacity: 0.5; stroke-width: 1.5; stroke-linecap: square"/>
   </g>
   <g id="line2d_26">
    <path d="M 241.689088 102.750068 
L 279.230514 102.640921 
L 291.744323 102.628547 
L 305.648555 102.691323 
L 310.515036 102.435493 
L 314.686306 101.975882 
L 318.857575 101.260489 
L 323.028845 100.292018 
L 327.200115 99.103418 
L 332.761807 97.271741 
L 345.970828 92.7729 
L 349.446886 91.840566 
L 352.922944 91.143169 
L 355.70379 90.797629 
L 358.484636 90.668189 
L 361.265483 90.768439 
L 364.046329 91.098111 
L 366.827175 91.641925 
L 370.303233 92.576673 
L 374.474503 93.961409 
L 380.036196 95.979946 
L 380.036196 95.979946 
" clip-path="url(#pb08b13a485)" style="fill: none; stroke: #000000; stroke-opacity: 0.5; stroke-width: 1.5; stroke-linecap: square"/>
   </g>
   <g id="line2d_27">
    <path d="M 241.689088 102.750068 
L 304.258132 102.649248 
L 331.371384 102.237736 
L 343.189981 102.534719 
L 352.922944 102.693533 
L 367.522387 102.631186 
L 380.036196 102.697787 
L 380.036196 102.697787 
" clip-path="url(#pb08b13a485)" style="fill: none; stroke: #000000; stroke-opacity: 0.5; stroke-width: 1.5; stroke-linecap: square"/>
   </g>
   <g id="line2d_28">
    <path d="M 241.689088 102.750068 
L 329.980961 102.647093 
L 351.53252 102.412975 
L 366.827175 102.615185 
L 380.036196 102.744639 
L 380.036196 102.744639 
" clip-path="url(#pb08b13a485)" style="fill: none; stroke: #000000; stroke-opacity: 0.5; stroke-width: 1.5; stroke-linecap: square"/>
   </g>
   <g id="line2d_29">
    <path d="M 241.689088 102.750068 
L 380.036196 102.737689 
L 380.036196 102.737689 
" clip-path="url(#pb08b13a485)" style="fill: none; stroke: #000000; stroke-opacity: 0.5; stroke-width: 1.5; stroke-linecap: square"/>
   </g>
   <g id="line2d_30">
    <path d="M 241.689088 102.750068 
L 380.036196 102.747921 
L 380.036196 102.747921 
" clip-path="url(#pb08b13a485)" style="fill: none; stroke: #000000; stroke-opacity: 0.5; stroke-width: 1.5; stroke-linecap: square"/>
   </g>
   <g id="line2d_31">
    <path d="M 241.689088 102.750068 
L 380.036196 102.74775 
L 380.036196 102.74775 
" clip-path="url(#pb08b13a485)" style="fill: none; stroke: #000000; stroke-opacity: 0.5; stroke-width: 1.5; stroke-linecap: square"/>
   </g>
   <g id="line2d_32">
    <path d="M 241.689088 102.750068 
L 380.036196 102.747505 
L 380.036196 102.747505 
" clip-path="url(#pb08b13a485)" style="fill: none; stroke: #000000; stroke-opacity: 0.5; stroke-width: 1.5; stroke-linecap: square"/>
   </g>
   <g id="line2d_33">
    <path d="M 241.689088 12.898828 
L 243.079512 12.988357 
L 244.469935 13.256407 
L 245.860358 13.701374 
L 247.250781 14.320593 
L 249.336416 15.567729 
L 251.422051 17.181448 
L 253.507685 19.13984 
L 255.59332 21.416241 
L 257.678955 23.979622 
L 260.459801 27.783063 
L 263.935859 33.027 
L 268.107129 39.781088 
L 277.14488 54.587555 
L 280.620938 59.833113 
L 283.401784 63.698698 
L 286.18263 67.213924 
L 288.963477 70.341985 
L 291.744323 73.060078 
L 293.829958 74.823409 
L 295.915593 76.35109 
L 298.001228 77.647275 
L 300.086862 78.719412 
L 302.172497 79.577917 
L 304.258132 80.235859 
L 306.343767 80.70862 
L 309.124613 81.081152 
L 311.905459 81.200956 
L 314.686306 81.11699 
L 318.162364 80.802949 
L 324.419268 79.94941 
L 330.676173 79.168788 
L 334.847442 78.899235 
L 338.3235 78.90606 
L 341.799558 79.161743 
L 345.275616 79.688906 
L 348.056462 80.31359 
L 351.53252 81.34773 
L 355.008578 82.650953 
L 358.484636 84.195489 
L 362.655906 86.30296 
L 370.303233 90.506324 
L 375.169715 93.052509 
L 378.645773 94.632868 
L 380.036196 95.185553 
L 380.036196 95.185553 
" clip-path="url(#pb08b13a485)" style="fill: none; stroke: #1f77b4; stroke-width: 1.5; stroke-linecap: square"/>
   </g>
   <g id="line2d_34">
    <path d="M 241.689088 102.750068 
L 243.079512 102.660584 
L 244.469935 102.393201 
L 245.860358 101.951106 
L 247.250781 101.339552 
L 249.336416 100.120806 
L 251.422051 98.569522 
L 253.507685 96.725858 
L 256.288532 93.894313 
L 259.76459 89.929715 
L 270.887975 76.80362 
L 273.668822 73.958377 
L 276.449668 71.42092 
L 279.230514 69.215551 
L 282.011361 67.344073 
L 284.792207 65.789447 
L 287.573054 64.520495 
L 290.3539 63.497107 
L 293.829958 62.496453 
L 297.306016 61.728819 
L 301.477286 61.020417 
L 307.038978 60.319929 
L 312.600671 59.85816 
L 317.467152 59.691289 
L 321.638422 59.768003 
L 325.809691 60.065625 
L 330.676173 60.665043 
L 345.970828 62.842365 
L 349.446886 62.99412 
L 352.922944 62.920162 
L 356.399002 62.629077 
L 361.265483 61.955515 
L 368.91281 60.85282 
L 372.388868 60.616643 
L 375.169715 60.646275 
L 377.950561 60.906924 
L 380.036196 61.262909 
L 380.036196 61.262909 
" clip-path="url(#pb08b13a485)" style="fill: none; stroke: #ff7f0e; stroke-width: 1.5; stroke-linecap: square"/>
   </g>
   <g id="patch_8">
    <path d="M 234.771733 107.24263 
L 234.771733 8.406266 
" style="fill: none; stroke: #000000; stroke-width: 0.8; stroke-linejoin: miter; stroke-linecap: square"/>
   </g>
   <g id="patch_9">
    <path d="M 386.953551 107.24263 
L 386.953551 8.406266 
" style="fill: none; stroke: #000000; stroke-width: 0.8; stroke-linejoin: miter; stroke-linecap: square"/>
   </g>
   <g id="patch_10">
    <path d="M 234.771733 107.24263 
L 386.953551 107.24263 
" style="fill: none; stroke: #000000; stroke-width: 0.8; stroke-linejoin: miter; stroke-linecap: square"/>
   </g>
   <g id="patch_11">
    <path d="M 234.771733 8.406266 
L 386.953551 8.406266 
" style="fill: none; stroke: #000000; stroke-width: 0.8; stroke-linejoin: miter; stroke-linecap: square"/>
   </g>
   <g id="text_6">
    <!-- $\frac{\gamma}{c}=1$ -->
    <g transform="translate(338.532064 30.869076) scale(0.15 -0.15)">
     <use xlink:href="#DejaVuSans-Oblique-3b3" transform="translate(0 58.71875) scale(0.7)"/>
     <use xlink:href="#DejaVuSans-Oblique-63" transform="translate(1 -26.289062) scale(0.7)"/>
     <use xlink:href="#DejaVuSans-3d" transform="translate(73.408203 0.364062)"/>
     <use xlink:href="#DejaVuSans-31" transform="translate(176.679688 0.364062)"/>
     <path d="M 0 19.160938 
L 0 25.410938 
L 41.425781 25.410938 
L 41.425781 19.160938 
L 0 19.160938 
z
"/>
    </g>
   </g>
  </g>
  <g id="axes_3">
   <g id="patch_12">
    <path d="M 52.153551 225.846266 
L 204.335369 225.846266 
L 204.335369 127.009903 
L 52.153551 127.009903 
z
" style="fill: #ffffff"/>
   </g>
   <g id="matplotlib.axis_5">
    <g id="xtick_7">
     <g id="line2d_35">
      <g>
       <use xlink:href="#m3ac0e33be9" x="59.070907" y="225.846266" style="stroke: #000000; stroke-width: 0.8"/>
      </g>
     </g>
     <g id="text_7">
      <!-- 0.0 -->
      <g transform="translate(47.143563 244.243922) scale(0.15 -0.15)">
       <use xlink:href="#DejaVuSans-30"/>
       <use xlink:href="#DejaVuSans-2e" x="63.623047"/>
       <use xlink:href="#DejaVuSans-30" x="95.410156"/>
      </g>
     </g>
    </g>
    <g id="xtick_8">
     <g id="line2d_36">
      <g>
       <use xlink:href="#m3ac0e33be9" x="128.24446" y="225.846266" style="stroke: #000000; stroke-width: 0.8"/>
      </g>
     </g>
     <g id="text_8">
      <!-- 0.5 -->
      <g transform="translate(116.317116 244.243922) scale(0.15 -0.15)">
       <use xlink:href="#DejaVuSans-30"/>
       <use xlink:href="#DejaVuSans-2e" x="63.623047"/>
       <use xlink:href="#DejaVuSans-35" x="95.410156"/>
      </g>
     </g>
    </g>
    <g id="xtick_9">
     <g id="line2d_37">
      <g>
       <use xlink:href="#m3ac0e33be9" x="197.418014" y="225.846266" style="stroke: #000000; stroke-width: 0.8"/>
      </g>
     </g>
     <g id="text_9">
      <!-- 1.0 -->
      <g transform="translate(185.49067 244.243922) scale(0.15 -0.15)">
       <use xlink:href="#DejaVuSans-31"/>
       <use xlink:href="#DejaVuSans-2e" x="63.623047"/>
       <use xlink:href="#DejaVuSans-30" x="95.410156"/>
      </g>
     </g>
    </g>
   </g>
   <g id="matplotlib.axis_6">
    <g id="ytick_7">
     <g id="line2d_38">
      <g>
       <use xlink:href="#m8518364ad2" x="52.153551" y="221.353704" style="stroke: #000000; stroke-width: 0.8"/>
      </g>
     </g>
     <g id="text_10">
      <!-- 0.0 -->
      <g transform="translate(21.298864 227.052532) scale(0.15 -0.15)">
       <use xlink:href="#DejaVuSans-30"/>
       <use xlink:href="#DejaVuSans-2e" x="63.623047"/>
       <use xlink:href="#DejaVuSans-30" x="95.410156"/>
      </g>
     </g>
    </g>
    <g id="ytick_8">
     <g id="line2d_39">
      <g>
       <use xlink:href="#m8518364ad2" x="52.153551" y="176.428084" style="stroke: #000000; stroke-width: 0.8"/>
      </g>
     </g>
     <g id="text_11">
      <!-- 0.5 -->
      <g transform="translate(21.298864 182.126912) scale(0.15 -0.15)">
       <use xlink:href="#DejaVuSans-30"/>
       <use xlink:href="#DejaVuSans-2e" x="63.623047"/>
       <use xlink:href="#DejaVuSans-35" x="95.410156"/>
      </g>
     </g>
    </g>
    <g id="ytick_9">
     <g id="line2d_40">
      <g>
       <use xlink:href="#m8518364ad2" x="52.153551" y="131.502464" style="stroke: #000000; stroke-width: 0.8"/>
      </g>
     </g>
     <g id="text_12">
      <!-- 1.0 -->
      <g transform="translate(21.298864 137.201293) scale(0.15 -0.15)">
       <use xlink:href="#DejaVuSans-31"/>
       <use xlink:href="#DejaVuSans-2e" x="63.623047"/>
       <use xlink:href="#DejaVuSans-30" x="95.410156"/>
      </g>
     </g>
    </g>
   </g>
   <g id="line2d_41">
    <path d="M 59.070907 221.353704 
L 70.194292 221.253084 
L 79.927254 221.096541 
L 88.965005 221.299113 
L 97.307544 221.348544 
L 148.057991 221.320986 
L 159.181376 221.342215 
L 172.390397 221.241462 
L 180.732936 221.093962 
L 188.380263 221.244067 
L 197.418014 221.352657 
L 197.418014 221.352657 
" clip-path="url(#p646fed1bc3)" style="fill: none; stroke: #000000; stroke-opacity: 0.5; stroke-width: 1.5; stroke-linecap: square"/>
   </g>
   <g id="line2d_42">
    <path d="M 59.070907 221.353704 
L 197.418014 221.353667 
L 197.418014 221.353667 
" clip-path="url(#p646fed1bc3)" style="fill: none; stroke: #000000; stroke-opacity: 0.5; stroke-width: 1.5; stroke-linecap: square"/>
   </g>
   <g id="line2d_43">
    <path d="M 59.070907 221.353704 
L 197.418014 221.351401 
L 197.418014 221.351401 
" clip-path="url(#p646fed1bc3)" style="fill: none; stroke: #000000; stroke-opacity: 0.5; stroke-width: 1.5; stroke-linecap: square"/>
   </g>
   <g id="line2d_44">
    <path d="M 59.070907 221.353704 
L 197.418014 221.341089 
L 197.418014 221.341089 
" clip-path="url(#p646fed1bc3)" style="fill: none; stroke: #000000; stroke-opacity: 0.5; stroke-width: 1.5; stroke-linecap: square"/>
   </g>
   <g id="line2d_45">
    <path d="M 59.070907 221.353704 
L 197.418014 221.353698 
L 197.418014 221.353698 
" clip-path="url(#p646fed1bc3)" style="fill: none; stroke: #000000; stroke-opacity: 0.5; stroke-width: 1.5; stroke-linecap: square"/>
   </g>
   <g id="line2d_46">
    <path d="M 59.070907 221.353704 
L 197.418014 221.353698 
L 197.418014 221.353698 
" clip-path="url(#p646fed1bc3)" style="fill: none; stroke: #000000; stroke-opacity: 0.5; stroke-width: 1.5; stroke-linecap: square"/>
   </g>
   <g id="line2d_47">
    <path d="M 59.070907 221.353704 
L 197.418014 221.353704 
L 197.418014 221.353704 
" clip-path="url(#p646fed1bc3)" style="fill: none; stroke: #000000; stroke-opacity: 0.5; stroke-width: 1.5; stroke-linecap: square"/>
   </g>
   <g id="line2d_48">
    <path d="M 59.070907 221.353704 
L 197.418014 221.353699 
L 197.418014 221.353699 
" clip-path="url(#p646fed1bc3)" style="fill: none; stroke: #000000; stroke-opacity: 0.5; stroke-width: 1.5; stroke-linecap: square"/>
   </g>
   <g id="line2d_49">
    <path d="M 59.070907 221.353704 
L 197.418014 221.353704 
L 197.418014 221.353704 
" clip-path="url(#p646fed1bc3)" style="fill: none; stroke: #000000; stroke-opacity: 0.5; stroke-width: 1.5; stroke-linecap: square"/>
   </g>
   <g id="line2d_50">
    <path d="M 59.070907 131.502464 
L 60.46133 131.591993 
L 61.851753 131.86003 
L 63.242176 132.304864 
L 64.632599 132.923442 
L 66.718234 134.166526 
L 68.803869 135.766911 
L 70.889504 137.693494 
L 72.975138 139.909529 
L 75.755985 143.249658 
L 78.536831 146.961561 
L 81.317678 150.997628 
L 84.793736 156.474907 
L 88.269794 162.436202 
L 91.745851 168.864263 
L 96.612333 178.441038 
L 102.869237 190.806107 
L 106.345295 197.134165 
L 109.126141 201.689993 
L 111.211776 204.741632 
L 113.297411 207.442985 
L 115.383046 209.772957 
L 117.468681 211.724359 
L 119.554315 213.30491 
L 121.63995 214.5356 
L 123.725585 215.445993 
L 125.81122 216.067331 
L 127.896854 216.425293 
L 129.982489 216.534363 
L 132.068124 216.395133 
L 134.153759 215.994866 
L 136.239394 215.31077 
L 138.325028 214.314969 
L 140.410663 212.980058 
L 142.496298 211.284254 
L 144.581933 209.21538 
L 146.667567 206.773173 
L 148.753202 203.969753 
L 150.838837 200.828658 
L 153.619683 196.174223 
L 156.40053 191.08253 
L 160.571799 182.911322 
L 168.219127 167.825067 
L 171.695185 161.499681 
L 175.171243 155.647203 
L 178.647301 150.255216 
L 182.123359 145.323032 
L 184.904205 141.752766 
L 187.685052 138.590613 
L 189.770686 136.538905 
L 191.856321 134.802259 
L 193.941956 133.412758 
L 195.332379 132.691941 
L 196.722802 132.142093 
L 197.418014 131.932554 
L 197.418014 131.932554 
" clip-path="url(#p646fed1bc3)" style="fill: none; stroke: #1f77b4; stroke-width: 1.5; stroke-linecap: square"/>
   </g>
   <g id="line2d_51">
    <path d="M 59.070907 221.353704 
L 60.46133 221.26422 
L 61.851753 220.996828 
L 63.242176 220.554639 
L 64.632599 219.942614 
L 66.718234 218.720646 
L 68.803869 217.157563 
L 70.889504 215.281901 
L 72.975138 213.121833 
L 75.755985 209.843969 
L 78.536831 206.159414 
L 81.317678 202.108133 
L 84.098524 197.715634 
L 87.574582 191.770229 
L 91.05064 185.364023 
L 95.917121 175.827486 
L 103.564449 160.753143 
L 106.345295 155.733533 
L 109.126141 151.191244 
L 111.211776 148.163964 
L 113.297411 145.494514 
L 115.383046 143.195025 
L 117.468681 141.263175 
L 119.554315 139.685523 
L 121.63995 138.441867 
L 123.725585 137.509591 
L 125.81122 136.867284 
L 127.896854 136.497603 
L 129.982489 136.389769 
L 132.068124 136.541703 
L 134.153759 136.961037 
L 136.239394 137.664033 
L 138.325028 138.672317 
L 140.410663 140.008547 
L 142.496298 141.692507 
L 144.581933 143.738286 
L 146.667567 146.152083 
L 148.753202 148.929917 
L 150.838837 152.055197 
L 153.619683 156.707258 
L 156.40053 161.809138 
L 160.571799 169.986363 
L 168.219127 185.091136 
L 171.695185 191.49178 
L 175.171243 197.437265 
L 178.647301 202.883119 
L 181.428147 206.86109 
L 184.208994 210.47545 
L 186.98984 213.680402 
L 189.075475 215.77792 
L 191.16111 217.580338 
L 193.246744 219.058633 
L 195.332379 220.186061 
L 196.722802 220.731195 
L 197.418014 220.939636 
L 197.418014 220.939636 
" clip-path="url(#p646fed1bc3)" style="fill: none; stroke: #ff7f0e; stroke-width: 1.5; stroke-linecap: square"/>
   </g>
   <g id="patch_13">
    <path d="M 52.153551 225.846266 
L 52.153551 127.009903 
" style="fill: none; stroke: #000000; stroke-width: 0.8; stroke-linejoin: miter; stroke-linecap: square"/>
   </g>
   <g id="patch_14">
    <path d="M 204.335369 225.846266 
L 204.335369 127.009903 
" style="fill: none; stroke: #000000; stroke-width: 0.8; stroke-linejoin: miter; stroke-linecap: square"/>
   </g>
   <g id="patch_15">
    <path d="M 52.153551 225.846266 
L 204.335369 225.846266 
" style="fill: none; stroke: #000000; stroke-width: 0.8; stroke-linejoin: miter; stroke-linecap: square"/>
   </g>
   <g id="patch_16">
    <path d="M 52.153551 127.009903 
L 204.335369 127.009903 
" style="fill: none; stroke: #000000; stroke-width: 0.8; stroke-linejoin: miter; stroke-linecap: square"/>
   </g>
   <g id="text_13">
    <!-- $\frac{\gamma}{c}=5$ -->
    <g transform="translate(103.341981 176.428084) scale(0.15 -0.15)">
     <use xlink:href="#DejaVuSans-Oblique-3b3" transform="translate(0 58.71875) scale(0.7)"/>
     <use xlink:href="#DejaVuSans-Oblique-63" transform="translate(1 -26.289062) scale(0.7)"/>
     <use xlink:href="#DejaVuSans-3d" transform="translate(73.408203 0.364062)"/>
     <use xlink:href="#DejaVuSans-35" transform="translate(176.679688 0.364062)"/>
     <path d="M 0 19.160938 
L 0 25.410938 
L 41.425781 25.410938 
L 41.425781 19.160938 
L 0 19.160938 
z
"/>
    </g>
   </g>
  </g>
  <g id="axes_4">
   <g id="patch_17">
    <path d="M 234.771733 225.846266 
L 386.953551 225.846266 
L 386.953551 127.009903 
L 234.771733 127.009903 
z
" style="fill: #ffffff"/>
   </g>
   <g id="matplotlib.axis_7">
    <g id="xtick_10">
     <g id="line2d_52">
      <g>
       <use xlink:href="#m3ac0e33be9" x="241.689088" y="225.846266" style="stroke: #000000; stroke-width: 0.8"/>
      </g>
     </g>
     <g id="text_14">
      <!-- 0.0 -->
      <g transform="translate(229.761745 244.243922) scale(0.15 -0.15)">
       <use xlink:href="#DejaVuSans-30"/>
       <use xlink:href="#DejaVuSans-2e" x="63.623047"/>
       <use xlink:href="#DejaVuSans-30" x="95.410156"/>
      </g>
     </g>
    </g>
    <g id="xtick_11">
     <g id="line2d_53">
      <g>
       <use xlink:href="#m3ac0e33be9" x="310.862642" y="225.846266" style="stroke: #000000; stroke-width: 0.8"/>
      </g>
     </g>
     <g id="text_15">
      <!-- 0.5 -->
      <g transform="translate(298.935298 244.243922) scale(0.15 -0.15)">
       <use xlink:href="#DejaVuSans-30"/>
       <use xlink:href="#DejaVuSans-2e" x="63.623047"/>
       <use xlink:href="#DejaVuSans-35" x="95.410156"/>
      </g>
     </g>
    </g>
    <g id="xtick_12">
     <g id="line2d_54">
      <g>
       <use xlink:href="#m3ac0e33be9" x="380.036196" y="225.846266" style="stroke: #000000; stroke-width: 0.8"/>
      </g>
     </g>
     <g id="text_16">
      <!-- 1.0 -->
      <g transform="translate(368.108852 244.243922) scale(0.15 -0.15)">
       <use xlink:href="#DejaVuSans-31"/>
       <use xlink:href="#DejaVuSans-2e" x="63.623047"/>
       <use xlink:href="#DejaVuSans-30" x="95.410156"/>
      </g>
     </g>
    </g>
    <g id="text_17">
     <!-- $\frac{t c}{\pi}$ -->
     <g transform="translate(213.628551 259.713539) scale(0.15 -0.15)">
      <defs>
       <path id="DejaVuSans-Oblique-74" d="M 2706 3500 
L 2619 3053 
L 1472 3053 
L 1100 1153 
Q 1081 1047 1072 975 
Q 1063 903 1063 863 
Q 1063 663 1183 572 
Q 1303 481 1569 481 
L 2150 481 
L 2053 0 
L 1503 0 
Q 991 0 739 200 
Q 488 400 488 806 
Q 488 878 497 964 
Q 506 1050 525 1153 
L 897 3053 
L 409 3053 
L 500 3500 
L 978 3500 
L 1172 4494 
L 1747 4494 
L 1556 3500 
L 2706 3500 
z
" transform="scale(0.015625)"/>
       <path id="DejaVuSans-Oblique-3c0" d="M 584 3500 
L 3938 3500 
L 3825 2925 
L 3384 2925 
L 2966 775 
Q 2922 550 2981 450 
Q 3038 353 3209 353 
Q 3256 353 3325 363 
Q 3397 369 3419 372 
L 3338 -44 
Q 3222 -84 3103 -103 
Q 2981 -122 2866 -122 
Q 2491 -122 2388 81 
Q 2284 288 2391 838 
L 2797 2925 
L 1506 2925 
L 938 0 
L 350 0 
L 919 2925 
L 472 2925 
L 584 3500 
z
" transform="scale(0.015625)"/>
      </defs>
      <use xlink:href="#DejaVuSans-Oblique-74" transform="translate(0 44.846875) scale(0.7)"/>
      <use xlink:href="#DejaVuSans-Oblique-63" transform="translate(27.446289 44.846875) scale(0.7)"/>
      <use xlink:href="#DejaVuSans-Oblique-3c0" transform="translate(12 -25.679688) scale(0.7)"/>
      <path d="M 0 18.851562 
L 0 25.101562 
L 65.932617 25.101562 
L 65.932617 18.851562 
L 0 18.851562 
z
"/>
     </g>
    </g>
   </g>
   <g id="matplotlib.axis_8">
    <g id="ytick_10">
     <g id="line2d_55">
      <g>
       <use xlink:href="#m8518364ad2" x="234.771733" y="221.353704" style="stroke: #000000; stroke-width: 0.8"/>
      </g>
     </g>
    </g>
    <g id="ytick_11">
     <g id="line2d_56">
      <g>
       <use xlink:href="#m8518364ad2" x="234.771733" y="176.428084" style="stroke: #000000; stroke-width: 0.8"/>
      </g>
     </g>
    </g>
    <g id="ytick_12">
     <g id="line2d_57">
      <g>
       <use xlink:href="#m8518364ad2" x="234.771733" y="131.502464" style="stroke: #000000; stroke-width: 0.8"/>
      </g>
     </g>
    </g>
   </g>
   <g id="line2d_58">
    <path d="M 241.689088 221.353704 
L 380.036196 221.335735 
L 380.036196 221.335735 
" clip-path="url(#p9de9bdc1f9)" style="fill: none; stroke: #000000; stroke-opacity: 0.5; stroke-width: 1.5; stroke-linecap: square"/>
   </g>
   <g id="line2d_59">
    <path d="M 241.689088 221.353704 
L 380.036196 221.353697 
L 380.036196 221.353697 
" clip-path="url(#p9de9bdc1f9)" style="fill: none; stroke: #000000; stroke-opacity: 0.5; stroke-width: 1.5; stroke-linecap: square"/>
   </g>
   <g id="line2d_60">
    <path d="M 241.689088 221.353704 
L 380.036196 221.353524 
L 380.036196 221.353524 
" clip-path="url(#p9de9bdc1f9)" style="fill: none; stroke: #000000; stroke-opacity: 0.5; stroke-width: 1.5; stroke-linecap: square"/>
   </g>
   <g id="line2d_61">
    <path d="M 241.689088 221.353704 
L 380.036196 221.353047 
L 380.036196 221.353047 
" clip-path="url(#p9de9bdc1f9)" style="fill: none; stroke: #000000; stroke-opacity: 0.5; stroke-width: 1.5; stroke-linecap: square"/>
   </g>
   <g id="line2d_62">
    <path d="M 241.689088 221.353704 
L 380.036196 221.353704 
L 380.036196 221.353704 
" clip-path="url(#p9de9bdc1f9)" style="fill: none; stroke: #000000; stroke-opacity: 0.5; stroke-width: 1.5; stroke-linecap: square"/>
   </g>
   <g id="line2d_63">
    <path d="M 241.689088 221.353704 
L 380.036196 221.353704 
L 380.036196 221.353704 
" clip-path="url(#p9de9bdc1f9)" style="fill: none; stroke: #000000; stroke-opacity: 0.5; stroke-width: 1.5; stroke-linecap: square"/>
   </g>
   <g id="line2d_64">
    <path d="M 241.689088 221.353704 
L 380.036196 221.353704 
L 380.036196 221.353704 
" clip-path="url(#p9de9bdc1f9)" style="fill: none; stroke: #000000; stroke-opacity: 0.5; stroke-width: 1.5; stroke-linecap: square"/>
   </g>
   <g id="line2d_65">
    <path d="M 241.689088 221.353704 
L 380.036196 221.353704 
L 380.036196 221.353704 
" clip-path="url(#p9de9bdc1f9)" style="fill: none; stroke: #000000; stroke-opacity: 0.5; stroke-width: 1.5; stroke-linecap: square"/>
   </g>
   <g id="line2d_66">
    <path d="M 241.689088 221.353704 
L 380.036196 221.353704 
L 380.036196 221.353704 
" clip-path="url(#p9de9bdc1f9)" style="fill: none; stroke: #000000; stroke-opacity: 0.5; stroke-width: 1.5; stroke-linecap: square"/>
   </g>
   <g id="line2d_67">
    <path d="M 241.689088 131.502464 
L 243.079512 131.591992 
L 244.469935 131.859992 
L 245.860358 132.304489 
L 247.250781 132.92174 
L 249.336416 134.159393 
L 251.422051 135.753235 
L 253.507685 137.689507 
L 255.59332 139.964107 
L 257.678955 142.573917 
L 259.76459 145.503983 
L 262.545436 149.852333 
L 265.326283 154.609941 
L 269.497552 162.280203 
L 274.364033 171.719649 
L 286.18263 195.011241 
L 288.963477 199.870777 
L 291.744323 204.295045 
L 294.52517 208.280256 
L 297.306016 211.836069 
L 299.391651 214.194006 
L 301.477286 216.235623 
L 303.56292 217.907575 
L 304.953343 218.795628 
L 306.343767 219.493112 
L 307.73419 219.996759 
L 309.124613 220.307573 
L 310.515036 220.430796 
L 311.905459 220.375396 
L 313.295883 220.152633 
L 315.381517 219.528278 
L 317.467152 218.574552 
L 319.552787 217.288277 
L 321.638422 215.647295 
L 323.724057 213.630601 
L 325.809691 211.234833 
L 327.895326 208.479036 
L 329.980961 205.402577 
L 332.761807 200.898306 
L 336.237865 194.815372 
L 340.409135 187.057447 
L 345.275616 177.473561 
L 353.618155 160.854523 
L 357.094213 154.519064 
L 359.87506 149.859313 
L 362.655906 145.590327 
L 365.436752 141.762428 
L 367.522387 139.226278 
L 369.608022 137.013181 
L 371.693657 135.152392 
L 373.779291 133.668042 
L 375.169715 132.894837 
L 376.560138 132.2956 
L 377.950561 131.868447 
L 379.340984 131.610905 
L 380.036196 131.545266 
L 380.036196 131.545266 
" clip-path="url(#p9de9bdc1f9)" style="fill: none; stroke: #1f77b4; stroke-width: 1.5; stroke-linecap: square"/>
   </g>
   <g id="line2d_68">
    <path d="M 241.689088 221.353704 
L 243.079512 221.26422 
L 244.469935 220.9968 
L 245.860358 220.554332 
L 247.250781 219.940971 
L 249.336416 218.710645 
L 251.422051 217.120538 
L 253.507685 215.181081 
L 255.59332 212.899426 
L 257.678955 210.28425 
L 259.76459 207.352521 
L 262.545436 203.004001 
L 265.326283 198.247778 
L 269.497552 190.588856 
L 274.364033 181.144982 
L 286.18263 157.847096 
L 288.963477 152.993981 
L 291.744323 148.571608 
L 294.52517 144.580597 
L 297.306016 141.022237 
L 299.391651 138.666076 
L 301.477286 136.624892 
L 303.56292 134.950858 
L 304.953343 134.061693 
L 306.343767 133.364533 
L 307.73419 132.862634 
L 309.124613 132.553975 
L 310.515036 132.431973 
L 311.905459 132.48692 
L 313.295883 132.707986 
L 315.381517 133.33048 
L 317.467152 134.286082 
L 319.552787 135.57582 
L 321.638422 137.217006 
L 323.724057 139.230176 
L 325.809691 141.623011 
L 327.895326 144.379071 
L 329.980961 147.456778 
L 332.761807 151.960604 
L 336.237865 158.046448 
L 340.409135 165.812011 
L 345.275616 175.386011 
L 353.618155 192.00409 
L 357.094213 198.348743 
L 359.87506 203.014184 
L 362.655906 207.277958 
L 365.436752 211.097409 
L 367.522387 213.631102 
L 369.608022 215.844037 
L 371.693657 217.704925 
L 373.779291 219.191285 
L 375.169715 219.968151 
L 376.560138 220.572432 
L 377.950561 221.004276 
L 379.340984 221.264166 
L 380.036196 221.329716 
L 380.036196 221.329716 
" clip-path="url(#p9de9bdc1f9)" style="fill: none; stroke: #ff7f0e; stroke-width: 1.5; stroke-linecap: square"/>
   </g>
   <g id="patch_18">
    <path d="M 234.771733 225.846266 
L 234.771733 127.009903 
" style="fill: none; stroke: #000000; stroke-width: 0.8; stroke-linejoin: miter; stroke-linecap: square"/>
   </g>
   <g id="patch_19">
    <path d="M 386.953551 225.846266 
L 386.953551 127.009903 
" style="fill: none; stroke: #000000; stroke-width: 0.8; stroke-linejoin: miter; stroke-linecap: square"/>
   </g>
   <g id="patch_20">
    <path d="M 234.771733 225.846266 
L 386.953551 225.846266 
" style="fill: none; stroke: #000000; stroke-width: 0.8; stroke-linejoin: miter; stroke-linecap: square"/>
   </g>
   <g id="patch_21">
    <path d="M 234.771733 127.009903 
L 386.953551 127.009903 
" style="fill: none; stroke: #000000; stroke-width: 0.8; stroke-linejoin: miter; stroke-linecap: square"/>
   </g>
   <g id="text_18">
    <!-- $\frac{\gamma}{c}=10$ -->
    <g transform="translate(283.193221 176.428084) scale(0.15 -0.15)">
     <use xlink:href="#DejaVuSans-Oblique-3b3" transform="translate(0 58.71875) scale(0.7)"/>
     <use xlink:href="#DejaVuSans-Oblique-63" transform="translate(1 -26.289062) scale(0.7)"/>
     <use xlink:href="#DejaVuSans-3d" transform="translate(73.408203 0.364062)"/>
     <use xlink:href="#DejaVuSans-31" transform="translate(176.679688 0.364062)"/>
     <use xlink:href="#DejaVuSans-30" transform="translate(240.302734 0.364062)"/>
     <path d="M 0 19.160938 
L 0 25.410938 
L 41.425781 25.410938 
L 41.425781 19.160938 
L 0 19.160938 
z
"/>
    </g>
   </g>
  </g>
 </g>
 <defs>
  <clipPath id="p03c117ad6e">
   <rect x="52.153551" y="8.406266" width="152.181818" height="98.836364"/>
  </clipPath>
  <clipPath id="pb08b13a485">
   <rect x="234.771733" y="8.406266" width="152.181818" height="98.836364"/>
  </clipPath>
  <clipPath id="p646fed1bc3">
   <rect x="52.153551" y="127.009903" width="152.181818" height="98.836364"/>
  </clipPath>
  <clipPath id="p9de9bdc1f9">
   <rect x="234.771733" y="127.009903" width="152.181818" height="98.836364"/>
  </clipPath>
 </defs>
</svg>
