<svg width="640" height="440" viewBox="0 0 640 440" fill="none" xmlns="http://www.w3.org/2000/svg">
<rect x="0.5" y="0.5" width="639" height="439" fill="#F6F3ED"/>
<rect x="0.5" y="0.5" width="639" height="439" stroke="#E0DBC8"/>
<path d="M140.232 350.52H586.632V60.6H140.232V350.52Z" fill="white"/>
<path d="M158.484 350.52V355.187V350.52Z" fill="black"/>
<path d="M158.484 350.52V355.187" stroke="black" stroke-width="1.06667"/>
<path d="M148.937 361.769C147.922 361.769 147.159 362.269 146.646 363.269C146.136 364.267 145.881 365.769 145.881 367.775C145.881 369.773 146.136 371.272 146.646 372.272C147.159 373.272 147.922 373.772 148.937 373.772C149.96 373.772 150.727 373.272 151.237 372.272C151.75 371.272 152.006 369.773 152.006 367.775C152.006 365.769 151.75 364.267 151.237 363.269C150.727 362.269 149.96 361.769 148.937 361.769ZM148.937 360.206C150.572 360.206 151.821 360.853 152.684 362.147C153.546 363.439 153.978 365.315 153.978 367.775C153.978 370.229 153.546 372.103 152.684 373.397C151.821 374.689 150.572 375.335 148.937 375.335C147.304 375.335 146.056 374.689 145.193 373.397C144.331 372.103 143.9 370.229 143.9 367.775C143.9 365.315 144.331 363.439 145.193 362.147C146.056 360.853 147.304 360.206 148.937 360.206Z" fill="black"/>
<path d="M157.443 372.569H159.505V375.05H157.443V372.569Z" fill="black"/>
<path d="M168.019 361.769C167.004 361.769 166.241 362.269 165.728 363.269C165.218 364.267 164.963 365.769 164.963 367.775C164.963 369.773 165.218 371.272 165.728 372.272C166.241 373.272 167.004 373.772 168.019 373.772C169.042 373.772 169.809 373.272 170.319 372.272C170.832 371.272 171.088 369.773 171.088 367.775C171.088 365.769 170.832 364.267 170.319 363.269C169.809 362.269 169.042 361.769 168.019 361.769ZM168.019 360.206C169.654 360.206 170.903 360.853 171.766 362.147C172.628 363.439 173.06 365.315 173.06 367.775C173.06 370.229 172.628 372.103 171.766 373.397C170.903 374.689 169.654 375.335 168.019 375.335C166.386 375.335 165.138 374.689 164.275 373.397C163.413 372.103 162.982 370.229 162.982 367.775C162.982 365.315 163.413 363.439 164.275 362.147C165.138 360.853 166.386 360.206 168.019 360.206Z" fill="black"/>
<path d="M240.463 350.52V355.187V350.52Z" fill="black"/>
<path d="M240.463 350.52V355.187" stroke="black" stroke-width="1.06667"/>
<path d="M322.443 350.52V355.187V350.52Z" fill="black"/>
<path d="M322.443 350.52V355.187" stroke="black" stroke-width="1.06667"/>
<path d="M404.422 350.52V355.187V350.52Z" fill="black"/>
<path d="M404.422 350.52V355.187" stroke="black" stroke-width="1.06667"/>
<path d="M486.401 350.52V355.187V350.52Z" fill="black"/>
<path d="M486.401 350.52V355.187" stroke="black" stroke-width="1.06667"/>
<path d="M568.381 350.52V355.187V350.52Z" fill="black"/>
<path d="M568.381 350.52V355.187" stroke="black" stroke-width="1.06667"/>
<path d="M554.959 373.391H558.181V362.266L554.674 362.969V361.172L558.162 360.469H560.134V373.391H563.356V375.05H554.959V373.391Z" fill="black"/>
<path d="M567.34 372.569H569.402V375.05H567.34V372.569Z" fill="black"/>
<path d="M577.916 361.769C576.901 361.769 576.138 362.269 575.625 363.269C575.115 364.267 574.86 365.769 574.86 367.775C574.86 369.773 575.115 371.272 575.625 372.272C576.138 373.272 576.901 373.772 577.916 373.772C578.939 373.772 579.705 373.272 580.216 372.272C580.728 371.272 580.985 369.773 580.985 367.775C580.985 365.769 580.728 364.267 580.216 363.269C579.705 362.269 578.939 361.769 577.916 361.769ZM577.916 360.206C579.551 360.206 580.8 360.853 581.663 362.147C582.525 363.439 582.956 365.315 582.956 367.775C582.956 370.229 582.525 372.103 581.663 373.397C580.8 374.689 579.551 375.335 577.916 375.335C576.283 375.335 575.035 374.689 574.172 373.397C573.31 372.103 572.878 370.229 572.878 367.775C572.878 365.315 573.31 363.439 574.172 362.147C575.035 360.853 576.283 360.206 577.916 360.206Z" fill="black"/>
<path d="M363.289 400.99C363.662 401.618 364.588 401.933 366.068 401.933H367.88L367.26 405H365.001C362.529 405 360.854 404.371 359.975 403.114C359.11 401.832 358.965 399.802 359.541 397.023L361.662 386.614H353L353.738 383H375L374.262 386.614H365.535L363.354 397.243C362.968 399.142 362.946 400.39 363.289 400.99Z" fill="black"/>
<path d="M140.232 339.394H135.566H140.232Z" fill="black"/>
<path d="M140.232 339.394H135.566" stroke="black" stroke-width="1.06667"/>
<path d="M84.4521 339.892H96.9708V341.552H84.4521V339.892Z" fill="black"/>
<path d="M101.572 345.333H104.794V334.208L101.288 334.911V333.114L104.776 332.411H106.747V345.333H109.969V346.992H101.572V345.333Z" fill="black"/>
<path d="M113.953 344.511H116.016V346.992H113.953V344.511Z" fill="black"/>
<path d="M124.529 333.711C123.515 333.711 122.751 334.211 122.239 335.211C121.728 336.209 121.473 337.711 121.473 339.717C121.473 341.715 121.728 343.214 122.239 344.214C122.751 345.214 123.515 345.714 124.529 345.714C125.552 345.714 126.319 345.214 126.829 344.214C127.342 343.214 127.598 341.715 127.598 339.717C127.598 337.711 127.342 336.209 126.829 335.211C126.319 334.211 125.552 333.711 124.529 333.711ZM124.529 332.148C126.165 332.148 127.414 332.795 128.276 334.089C129.139 335.381 129.57 337.257 129.57 339.717C129.57 342.171 129.139 344.045 128.276 345.339C127.414 346.631 126.165 347.277 124.529 347.277C122.896 347.277 121.648 346.631 120.786 345.339C119.923 344.045 119.492 342.171 119.492 339.717C119.492 337.257 119.923 335.381 120.786 334.089C121.648 332.795 122.896 332.148 124.529 332.148Z" fill="black"/>
<path d="M140.232 272.731H135.566H140.232Z" fill="black"/>
<path d="M140.232 272.731H135.566" stroke="black" stroke-width="1.06667"/>
<path d="M140.232 206.069H135.566H140.232Z" fill="black"/>
<path d="M140.232 206.069H135.566" stroke="black" stroke-width="1.06667"/>
<path d="M105.449 200.386C104.434 200.386 103.671 200.886 103.158 201.886C102.648 202.884 102.393 204.386 102.393 206.392C102.393 208.39 102.648 209.889 103.158 210.889C103.671 211.889 104.434 212.389 105.449 212.389C106.472 212.389 107.239 211.889 107.749 210.889C108.261 209.889 108.518 208.39 108.518 206.392C108.518 204.386 108.261 202.884 107.749 201.886C107.239 200.886 106.472 200.386 105.449 200.386ZM105.449 198.824C107.084 198.824 108.333 199.471 109.196 200.764C110.058 202.056 110.49 203.932 110.49 206.392C110.49 208.847 110.058 210.721 109.196 212.014C108.333 213.306 107.084 213.952 105.449 213.952C103.816 213.952 102.568 213.306 101.705 212.014C100.843 210.721 100.411 208.847 100.411 206.392C100.411 203.932 100.843 202.056 101.705 200.764C102.568 199.471 103.816 198.824 105.449 198.824Z" fill="black"/>
<path d="M113.955 211.186H116.017V213.667H113.955V211.186Z" fill="black"/>
<path d="M124.531 200.386C123.516 200.386 122.753 200.886 122.24 201.886C121.73 202.884 121.475 204.386 121.475 206.392C121.475 208.39 121.73 209.889 122.24 210.889C122.753 211.889 123.516 212.389 124.531 212.389C125.554 212.389 126.321 211.889 126.831 210.889C127.343 209.889 127.6 208.39 127.6 206.392C127.6 204.386 127.343 202.884 126.831 201.886C126.321 200.886 125.554 200.386 124.531 200.386ZM124.531 198.824C126.166 198.824 127.415 199.471 128.278 200.764C129.14 202.056 129.572 203.932 129.572 206.392C129.572 208.847 129.14 210.721 128.278 212.014C127.415 213.306 126.166 213.952 124.531 213.952C122.898 213.952 121.65 213.306 120.787 212.014C119.925 210.721 119.493 208.847 119.493 206.392C119.493 203.932 119.925 202.056 120.787 200.764C121.65 199.471 122.898 198.824 124.531 198.824Z" fill="black"/>
<path d="M140.232 139.407H135.566H140.232Z" fill="black"/>
<path d="M140.232 139.407H135.566" stroke="black" stroke-width="1.06667"/>
<path d="M140.232 72.7443H135.566H140.232Z" fill="black"/>
<path d="M140.232 72.7443H135.566" stroke="black" stroke-width="1.06667"/>
<path d="M101.574 78.6834H104.796V67.5584L101.29 68.2615V66.4646L104.777 65.7615H106.749V78.6834H109.971V80.3427H101.574V78.6834Z" fill="black"/>
<path d="M113.955 77.8615H116.017V80.3427H113.955V77.8615Z" fill="black"/>
<path d="M124.531 67.0615C123.516 67.0615 122.753 67.5615 122.24 68.5615C121.73 69.5594 121.475 71.0615 121.475 73.0677C121.475 75.0656 121.73 76.5646 122.24 77.5646C122.753 78.5646 123.516 79.0646 124.531 79.0646C125.554 79.0646 126.321 78.5646 126.831 77.5646C127.343 76.5646 127.6 75.0656 127.6 73.0677C127.6 71.0615 127.343 69.5594 126.831 68.5615C126.321 67.5615 125.554 67.0615 124.531 67.0615ZM124.531 65.499C126.166 65.499 127.415 66.1459 128.278 67.4396C129.14 68.7313 129.572 70.6073 129.572 73.0677C129.572 75.5219 129.14 77.3959 128.278 78.6896C127.415 79.9813 126.166 80.6271 124.531 80.6271C122.898 80.6271 121.65 79.9813 120.787 78.6896C119.925 77.3959 119.493 75.5219 119.493 73.0677C119.493 70.6073 119.925 68.7313 120.787 67.4396C121.65 66.1459 122.898 65.499 124.531 65.499Z" fill="black"/>
<mask id="mask0_1238_1215" style="mask-type:luminance" maskUnits="userSpaceOnUse" x="140" y="60" width="447" height="291">
<path d="M586.632 60.6H140.232V350.52H586.632V60.6Z" fill="white"/>
</mask>
<g mask="url(#mask0_1238_1215)">
<path d="M160.523 337.342L166.641 331.539L172.759 326.198L178.877 321.244L184.995 316.617L193.152 310.872L201.309 305.525L209.466 300.497L219.663 294.564L231.898 287.829L248.213 279.264L291.038 257.085L303.273 250.32L313.47 244.353L321.627 239.289L329.784 233.896L337.941 228.095L344.059 223.417L350.177 218.403L356.295 212.991L362.413 207.103L368.531 201.053L374.648 195.491L380.766 190.352L386.884 185.568L395.041 179.651L403.198 174.164L411.356 169.024L421.552 162.984L433.788 156.157L448.063 148.581L474.573 134.972L492.927 125.4L505.163 118.722L515.359 112.856L525.556 106.613L533.713 101.266L541.87 95.5207L547.988 90.894L554.106 85.9402L560.224 80.5989L566.341 74.7963" stroke="#5090C9" stroke-width="2" stroke-linecap="square"/>
</g>
<mask id="mask1_1238_1215" style="mask-type:luminance" maskUnits="userSpaceOnUse" x="140" y="60" width="447" height="291">
<path d="M585.966 61.267V349.853H140.899V61.267H585.966Z" fill="white" stroke="white" stroke-width="1.33333"/>
</mask>
<g mask="url(#mask1_1238_1215)">
<path d="M160.523 204.017L166.641 198.215L172.759 192.873L178.877 187.919L184.995 183.293L193.152 177.548L201.309 172.2L209.466 167.172L219.663 161.24L231.898 154.505L248.213 145.939L291.038 123.76L303.273 116.996L313.47 111.028L321.627 105.964L329.784 100.571L337.941 94.7701L344.059 90.0926L350.177 85.0787L356.295 79.666L362.413 73.7782H364.452L370.57 79.666L376.688 85.0787L382.806 90.0926L388.923 94.7701L397.081 100.571L405.238 105.964L413.395 111.028L423.591 116.996L435.827 123.76L450.102 131.292L501.084 157.828L511.281 163.572L521.477 169.65L529.634 174.829L537.791 180.365L545.949 186.343L552.066 191.182L558.184 196.387L564.302 202.026L566.341 204.017" stroke="#D75E5E" stroke-width="2" stroke-linecap="square"/>
</g>
<path d="M140.232 350.52V60.6" stroke="black" stroke-width="1.06667" stroke-linecap="square"/>
<path d="M586.632 350.52V60.6" stroke="black" stroke-width="1.06667" stroke-linecap="square"/>
<path d="M140.232 350.52H586.632" stroke="black" stroke-width="1.06667" stroke-linecap="square"/>
<path d="M140.232 60.6H586.632" stroke="black" stroke-width="1.06667" stroke-linecap="square"/>
<path opacity="0.8" d="M154.232 135.356H259.232C261.899 135.356 263.232 134.023 263.232 131.356V74.6C263.232 71.9333 261.899 70.6 259.232 70.6H154.232C151.566 70.6 150.232 71.9333 150.232 74.6V131.356C150.232 134.023 151.566 135.356 154.232 135.356Z" fill="white" stroke="#CCCCCC" stroke-width="1.33333"/>
<path d="M158.232 86.8H178.232H198.232" stroke="#5090C9" stroke-width="2" stroke-linecap="square"/>
<path d="M223.579 78.6L222.789 82.6344C224.091 82.6344 225.076 83.1323 225.745 84.1281C226.436 85.1448 226.609 86.5479 226.264 88.3375C225.911 90.1271 225.192 91.5302 224.104 92.5469C223.05 93.5427 221.872 94.0406 220.57 94.0406L219.807 97.9563H218.023L218.782 94.0406C217.486 94.0406 216.5 93.5427 215.823 92.5469C215.133 91.5302 214.965 90.1271 215.317 88.3375C215.663 86.5479 216.378 85.1448 217.464 84.1281C218.526 83.1323 219.705 82.6344 221.001 82.6344L221.792 78.6H223.579ZM220.882 92.4406C221.618 92.4406 222.301 92.1052 222.932 91.4344C223.624 90.6844 224.103 89.6521 224.37 88.3375C224.63 87.0354 224.552 86.0031 224.135 85.2406C223.765 84.5719 223.211 84.2375 222.476 84.2375L220.882 92.4406ZM219.095 92.4406L220.689 84.2375C219.959 84.2375 219.279 84.5719 218.648 85.2406C217.938 86.0031 217.458 87.0354 217.21 88.3375C216.963 89.6521 217.041 90.6844 217.445 91.4344C217.809 92.1052 218.359 92.4406 219.095 92.4406Z" fill="black"/>
<path d="M233.626 78.6219C232.755 80.1177 232.107 81.599 231.682 83.0656C231.259 84.5302 231.048 86.0146 231.048 87.5188C231.048 89.0208 231.261 90.5094 231.688 91.9844C232.115 93.4594 232.761 94.9427 233.626 96.4344H232.063C231.088 94.9031 230.358 93.399 229.873 91.9219C229.387 90.4448 229.144 88.9771 229.144 87.5188C229.144 86.0667 229.385 84.6052 229.866 83.1344C230.35 81.6615 231.082 80.1573 232.063 78.6219H233.626Z" fill="black"/>
<path d="M241.8 91.8032C241.977 92.1157 242.417 92.2719 243.119 92.2719H243.978L243.685 93.7969H242.613C241.44 93.7969 240.645 93.4844 240.228 92.8594C239.818 92.2219 239.749 91.2125 240.022 89.8313L241.028 84.6563H236.919L237.269 82.8594H247.357L247.007 84.6563H242.866L241.832 89.9407C241.648 90.8844 241.638 91.5052 241.8 91.8032Z" fill="black"/>
<path d="M248.873 78.6219H250.435C251.41 80.1573 252.14 81.6615 252.626 83.1344C253.111 84.6052 253.354 86.0667 253.354 87.5188C253.354 88.9771 253.111 90.4448 252.626 91.9219C252.14 93.399 251.41 94.9031 250.435 96.4344H248.873C249.737 94.9427 250.383 93.4594 250.81 91.9844C251.237 90.5094 251.451 89.0208 251.451 87.5188C251.451 86.0146 251.237 84.5302 250.81 83.0656C250.383 81.599 249.737 80.1177 248.873 78.6219Z" fill="black"/>
<path d="M158.232 116.197H178.232H198.232" stroke="#D75E5E" stroke-width="2" stroke-linecap="square"/>
<path d="M224.954 112.653L224.595 114.431C224.164 114.119 223.705 113.884 223.22 113.728C222.736 113.572 222.234 113.494 221.714 113.494C221.141 113.494 220.595 113.595 220.076 113.797C219.559 113.999 219.125 114.285 218.773 114.656C218.213 115.223 217.779 115.888 217.473 116.65C217.169 117.41 217.017 118.198 217.017 119.013C217.017 119.996 217.263 120.728 217.754 121.209C218.246 121.691 218.993 121.931 219.995 121.931C220.489 121.931 221.014 121.856 221.57 121.706C222.128 121.556 222.709 121.332 223.314 121.034L222.973 122.809C222.452 123.024 221.917 123.185 221.367 123.294C220.817 123.402 220.252 123.456 219.673 123.456C218.221 123.456 217.104 123.094 216.323 122.369C215.542 121.642 215.151 120.604 215.151 119.256C215.151 118.123 215.354 117.079 215.76 116.125C216.167 115.171 216.771 114.314 217.573 113.553C218.119 113.032 218.759 112.639 219.495 112.372C220.232 112.105 221.036 111.972 221.907 111.972C222.416 111.972 222.92 112.029 223.42 112.144C223.922 112.256 224.433 112.426 224.954 112.653Z" fill="black"/>
<path d="M231.428 107.997C230.558 109.493 229.91 110.974 229.485 112.441C229.062 113.905 228.85 115.39 228.85 116.894C228.85 118.396 229.064 119.884 229.491 121.359C229.918 122.834 230.564 124.318 231.428 125.809H229.866C228.891 124.278 228.161 122.774 227.675 121.297C227.19 119.82 226.947 118.352 226.947 116.894C226.947 115.442 227.188 113.98 227.669 112.509C228.152 111.036 228.885 109.532 229.866 107.997H231.428Z" fill="black"/>
<path d="M239.603 121.178C239.78 121.491 240.22 121.647 240.922 121.647H241.781L241.487 123.172H240.416C239.243 123.172 238.448 122.859 238.031 122.234C237.621 121.597 237.552 120.587 237.825 119.206L238.831 114.031H234.722L235.072 112.234H245.159L244.809 114.031H240.669L239.634 119.316C239.451 120.259 239.441 120.88 239.603 121.178Z" fill="black"/>
<path d="M246.675 107.997H248.238C249.213 109.532 249.943 111.036 250.428 112.509C250.914 113.98 251.157 115.442 251.157 116.894C251.157 118.352 250.914 119.82 250.428 121.297C249.943 122.774 249.213 124.278 248.238 125.809H246.675C247.54 124.318 248.186 122.834 248.613 121.359C249.04 119.884 249.253 118.396 249.253 116.894C249.253 115.39 249.04 113.905 248.613 112.441C248.186 110.974 247.54 109.493 246.675 107.997Z" fill="black"/>
<path d="M58 392.372L42.38 392.372L42.38 385.75C42.38 385.031 42.5267 384.371 42.82 383.77C43.1133 383.169 43.5093 382.648 44.008 382.208C44.5067 381.753 45.064 381.401 45.68 381.152C46.296 380.903 46.9267 380.778 47.572 380.778C48.452 380.778 49.288 380.983 50.08 381.394C50.872 381.805 51.5173 382.369 52.016 383.088C52.5147 383.807 52.764 384.657 52.764 385.64L52.764 389.336L58 389.336L58 392.372ZM50.102 389.336L50.102 385.816C50.102 385.449 49.9993 385.119 49.794 384.826C49.5887 384.533 49.2953 384.298 48.914 384.122C48.518 383.946 48.0707 383.858 47.572 383.858C47.0293 383.858 46.5673 383.961 46.186 384.166C45.8047 384.357 45.5187 384.613 45.328 384.936C45.1373 385.244 45.042 385.581 45.042 385.948L45.042 389.336L50.102 389.336ZM54.59 379.893C53.842 379.893 53.1893 379.688 52.632 379.277C52.06 378.852 51.62 378.265 51.312 377.517C51.004 376.769 50.85 375.911 50.85 374.943C50.85 374.459 50.8867 373.968 50.96 373.469C51.0333 372.971 51.1507 372.538 51.312 372.171L50.696 372.171C49.9627 372.171 49.398 372.391 49.002 372.831C48.606 373.257 48.408 373.895 48.408 374.745C48.408 375.376 48.518 375.977 48.738 376.549C48.958 377.121 49.2807 377.723 49.706 378.353L47.77 379.299C47.2713 378.537 46.8973 377.759 46.648 376.967C46.3987 376.161 46.274 375.317 46.274 374.437C46.274 372.795 46.6847 371.519 47.506 370.609C48.3273 369.685 49.5007 369.223 51.026 369.223L54.7 369.223C55.008 369.223 55.228 369.172 55.36 369.069C55.492 368.952 55.5727 368.769 55.602 368.519L58 368.519C58.044 368.783 58.0807 369.025 58.11 369.245C58.1393 369.451 58.154 369.627 58.154 369.773C58.154 370.36 58.022 370.807 57.758 371.115C57.494 371.409 57.1713 371.592 56.79 371.665L56.196 371.731C56.8413 372.23 57.34 372.853 57.692 373.601C58.044 374.349 58.22 375.112 58.22 375.889C58.22 376.652 58.066 377.341 57.758 377.957C57.4353 378.559 57.0027 379.035 56.46 379.387C55.9027 379.725 55.2793 379.893 54.59 379.893ZM55.184 372.721C55.008 372.56 54.832 372.428 54.656 372.325C54.48 372.223 54.3187 372.171 54.172 372.171L53.006 372.171C52.8593 372.523 52.7493 372.905 52.676 373.315C52.588 373.726 52.544 374.115 52.544 374.481C52.544 375.244 52.7127 375.875 53.05 376.373C53.3727 376.857 53.8053 377.099 54.348 377.099C54.6413 377.099 54.92 377.019 55.184 376.857C55.448 376.696 55.6607 376.461 55.822 376.153C55.9833 375.845 56.064 375.479 56.064 375.053C56.064 374.613 55.9833 374.181 55.822 373.755C55.646 373.33 55.4333 372.985 55.184 372.721ZM49.024 359.605C49.024 360.499 49.2 361.299 49.552 362.003C49.8893 362.707 50.3807 363.213 51.026 363.521L58 363.521L58 366.469L46.472 366.469L46.472 363.763L48.936 363.763C48.144 363.352 47.5207 362.831 47.066 362.201C46.6113 361.57 46.362 360.903 46.318 360.199C46.318 360.037 46.318 359.913 46.318 359.825C46.318 359.737 46.3253 359.663 46.34 359.605L49.024 359.605ZM54.59 358.817C53.842 358.817 53.1893 358.612 52.632 358.201C52.06 357.776 51.62 357.189 51.312 356.441C51.004 355.693 50.85 354.835 50.85 353.867C50.85 353.383 50.8867 352.892 50.96 352.393C51.0333 351.895 51.1507 351.462 51.312 351.095L50.696 351.095C49.9627 351.095 49.398 351.315 49.002 351.755C48.606 352.181 48.408 352.819 48.408 353.669C48.408 354.3 48.518 354.901 48.738 355.473C48.958 356.045 49.2807 356.647 49.706 357.277L47.77 358.223C47.2713 357.461 46.8973 356.683 46.648 355.891C46.3987 355.085 46.274 354.241 46.274 353.361C46.274 351.719 46.6847 350.443 47.506 349.533C48.3273 348.609 49.5007 348.147 51.026 348.147L54.7 348.147C55.008 348.147 55.228 348.096 55.36 347.993C55.492 347.876 55.5727 347.693 55.602 347.443L58 347.443C58.044 347.707 58.0807 347.949 58.11 348.169C58.1393 348.375 58.154 348.551 58.154 348.697C58.154 349.284 58.022 349.731 57.758 350.039C57.494 350.333 57.1713 350.516 56.79 350.589L56.196 350.655C56.8413 351.154 57.34 351.777 57.692 352.525C58.044 353.273 58.22 354.036 58.22 354.813C58.22 355.576 58.066 356.265 57.758 356.881C57.4353 357.483 57.0027 357.959 56.46 358.311C55.9027 358.649 55.2793 358.817 54.59 358.817ZM55.184 351.645C55.008 351.484 54.832 351.352 54.656 351.249C54.48 351.147 54.3187 351.095 54.172 351.095L53.006 351.095C52.8593 351.447 52.7493 351.829 52.676 352.239C52.588 352.65 52.544 353.039 52.544 353.405C52.544 354.168 52.7127 354.799 53.05 355.297C53.3727 355.781 53.8053 356.023 54.348 356.023C54.6413 356.023 54.92 355.943 55.184 355.781C55.448 355.62 55.6607 355.385 55.822 355.077C55.9833 354.769 56.064 354.403 56.064 353.977C56.064 353.537 55.9833 353.105 55.822 352.679C55.646 352.254 55.4333 351.909 55.184 351.645ZM58 327.484L58 330.432L51.532 330.432C50.6227 330.432 49.9553 330.594 49.53 330.916C49.09 331.224 48.87 331.657 48.87 332.214C48.87 332.786 49.0973 333.336 49.552 333.864C49.992 334.378 50.5713 334.744 51.29 334.964L58 334.964L58 337.912L51.532 337.912C50.608 337.912 49.9333 338.074 49.508 338.396C49.0827 338.704 48.87 339.137 48.87 339.694C48.87 340.266 49.09 340.816 49.53 341.344C49.97 341.858 50.5493 342.224 51.268 342.444L58 342.444L58 345.392L46.472 345.392L46.472 342.73L48.606 342.73C47.858 342.29 47.286 341.704 46.89 340.97C46.4793 340.237 46.274 339.394 46.274 338.44C46.274 337.487 46.5087 336.746 46.978 336.218C47.4473 335.676 48.0267 335.331 48.716 335.184C47.924 334.715 47.3227 334.121 46.912 333.402C46.4867 332.669 46.274 331.848 46.274 330.938C46.274 330.22 46.406 329.64 46.67 329.2C46.9193 328.746 47.264 328.394 47.704 328.144C48.1293 327.895 48.6133 327.726 49.156 327.638C49.6987 327.536 50.2487 327.484 50.806 327.484L58 327.484ZM58.22 319.572C58.22 320.496 58.066 321.332 57.758 322.08C57.4353 322.828 57.0027 323.466 56.46 323.994C55.9027 324.522 55.272 324.932 54.568 325.226C53.8493 325.504 53.094 325.644 52.302 325.644C51.202 325.644 50.1973 325.402 49.288 324.918C48.3787 324.419 47.6527 323.715 47.11 322.806C46.5527 321.882 46.274 320.796 46.274 319.55C46.274 318.288 46.5527 317.21 47.11 316.316C47.6527 315.421 48.3787 314.739 49.288 314.27C50.1827 313.786 51.1507 313.544 52.192 313.544C52.368 313.544 52.5513 313.551 52.742 313.566C52.918 313.58 53.0647 313.595 53.182 313.61L53.182 322.52C53.7687 322.461 54.282 322.292 54.722 322.014C55.162 321.72 55.4993 321.354 55.734 320.914C55.954 320.459 56.064 319.975 56.064 319.462C56.064 318.875 55.9247 318.325 55.646 317.812C55.3527 317.284 54.9713 316.924 54.502 316.734L55.206 314.204C55.7927 314.482 56.3133 314.886 56.768 315.414C57.2227 315.927 57.582 316.536 57.846 317.24C58.0953 317.944 58.22 318.721 58.22 319.572ZM51.312 322.586L51.312 316.558C50.7253 316.616 50.2193 316.785 49.794 317.064C49.354 317.328 49.0167 317.68 48.782 318.12C48.5327 318.56 48.408 319.051 48.408 319.594C48.408 320.122 48.5327 320.606 48.782 321.046C49.0167 321.471 49.354 321.823 49.794 322.102C50.2193 322.366 50.7253 322.527 51.312 322.586ZM57.406 304.947C57.5087 305.197 57.626 305.497 57.758 305.849C57.89 306.201 57.9927 306.583 58.066 306.993C58.154 307.389 58.198 307.793 58.198 308.203C58.198 308.746 58.1027 309.245 57.912 309.699C57.7213 310.154 57.4207 310.521 57.01 310.799C56.5847 311.063 56.0347 311.195 55.36 311.195L48.738 311.195L48.738 312.713L46.472 312.713L46.472 311.195L42.732 311.195L42.732 308.247L46.472 308.247L46.472 305.827L48.738 305.827L48.738 308.247L54.37 308.247C54.766 308.233 55.052 308.123 55.228 307.917C55.404 307.712 55.492 307.455 55.492 307.147C55.492 306.839 55.4407 306.539 55.338 306.245C55.2353 305.952 55.1473 305.717 55.074 305.541L57.406 304.947ZM58.22 298.195C58.22 299.119 58.066 299.955 57.758 300.703C57.4353 301.451 57.0027 302.089 56.46 302.617C55.9027 303.145 55.272 303.555 54.568 303.849C53.8493 304.127 53.094 304.267 52.302 304.267C51.202 304.267 50.1973 304.025 49.288 303.541C48.3787 303.042 47.6527 302.338 47.11 301.429C46.5527 300.505 46.274 299.419 46.274 298.173C46.274 296.911 46.5527 295.833 47.11 294.939C47.6527 294.044 48.3787 293.362 49.288 292.893C50.1827 292.409 51.1507 292.167 52.192 292.167C52.368 292.167 52.5513 292.174 52.742 292.189C52.918 292.203 53.0647 292.218 53.182 292.233L53.182 301.143C53.7687 301.084 54.282 300.915 54.722 300.637C55.162 300.343 55.4993 299.977 55.734 299.537C55.954 299.082 56.064 298.598 56.064 298.085C56.064 297.498 55.9247 296.948 55.646 296.435C55.3527 295.907 54.9713 295.547 54.502 295.357L55.206 292.827C55.7927 293.105 56.3133 293.509 56.768 294.037C57.2227 294.55 57.582 295.159 57.846 295.863C58.0953 296.567 58.22 297.344 58.22 298.195ZM51.312 301.209L51.312 295.181C50.7253 295.239 50.2193 295.408 49.794 295.687C49.354 295.951 49.0167 296.303 48.782 296.743C48.5327 297.183 48.408 297.674 48.408 298.217C48.408 298.745 48.5327 299.229 48.782 299.669C49.0167 300.094 49.354 300.446 49.794 300.725C50.2193 300.989 50.7253 301.15 51.312 301.209ZM49.024 283.507C49.024 284.402 49.2 285.201 49.552 285.905C49.8893 286.609 50.3807 287.115 51.026 287.423L58 287.423L58 290.371L46.472 290.371L46.472 287.665L48.936 287.665C48.144 287.254 47.5207 286.734 47.066 286.103C46.6113 285.472 46.362 284.805 46.318 284.101C46.318 283.94 46.318 283.815 46.318 283.727C46.318 283.639 46.3253 283.566 46.34 283.507L49.024 283.507ZM58.22 277.617C58.22 278.6 58.0587 279.538 57.736 280.433C57.4133 281.328 56.9367 282.098 56.306 282.743L54.392 281.687C54.9493 280.998 55.36 280.323 55.624 279.663C55.888 278.988 56.02 278.343 56.02 277.727C56.02 277.155 55.9173 276.7 55.712 276.363C55.5067 276.011 55.1987 275.835 54.788 275.835C54.5093 275.835 54.2967 275.93 54.15 276.121C53.9887 276.312 53.8493 276.59 53.732 276.957C53.6147 277.309 53.4827 277.742 53.336 278.255C53.0573 279.106 52.786 279.817 52.522 280.389C52.258 280.961 51.928 281.394 51.532 281.687C51.1213 281.966 50.6007 282.105 49.97 282.105C49.2073 282.105 48.5547 281.914 48.012 281.533C47.4547 281.137 47.022 280.594 46.714 279.905C46.406 279.201 46.252 278.38 46.252 277.441C46.252 276.62 46.384 275.842 46.648 275.109C46.8973 274.376 47.308 273.708 47.88 273.107L49.75 274.295C49.2953 274.882 48.9653 275.439 48.76 275.967C48.54 276.495 48.43 277.03 48.43 277.573C48.43 277.881 48.4667 278.174 48.54 278.453C48.6133 278.717 48.738 278.937 48.914 279.113C49.0753 279.274 49.31 279.355 49.618 279.355C49.8967 279.355 50.1167 279.282 50.278 279.135C50.4247 278.974 50.5567 278.739 50.674 278.431C50.7913 278.108 50.9233 277.72 51.07 277.265C51.334 276.341 51.6053 275.564 51.884 274.933C52.1627 274.288 52.5073 273.804 52.918 273.481C53.314 273.158 53.864 272.997 54.568 272.997C55.712 272.997 56.6067 273.415 57.252 274.251C57.8973 275.087 58.22 276.209 58.22 277.617ZM58 254.993L58 257.941L51.532 257.941C50.608 257.941 49.9333 258.102 49.508 258.425C49.0827 258.747 48.87 259.195 48.87 259.767C48.87 260.163 48.9727 260.566 49.178 260.977C49.3833 261.373 49.6693 261.732 50.036 262.055C50.388 262.377 50.7987 262.612 51.268 262.759L58 262.759L58 265.707L46.472 265.707L46.472 263.045L48.606 263.045C48.1073 262.751 47.6893 262.377 47.352 261.923C47 261.468 46.736 260.947 46.56 260.361C46.3693 259.759 46.274 259.129 46.274 258.469C46.274 257.75 46.406 257.163 46.67 256.709C46.9193 256.239 47.264 255.887 47.704 255.653C48.1293 255.403 48.6133 255.235 49.156 255.147C49.6987 255.044 50.2487 254.993 50.806 254.993L58 254.993ZM58.22 247.105C58.22 248.044 58.066 248.887 57.758 249.635C57.4353 250.383 56.9953 251.021 56.438 251.549C55.8807 252.063 55.2427 252.459 54.524 252.737C53.8053 253.016 53.05 253.155 52.258 253.155C51.4513 253.155 50.6887 253.016 49.97 252.737C49.2513 252.459 48.6133 252.063 48.056 251.549C47.4987 251.021 47.066 250.383 46.758 249.635C46.4353 248.887 46.274 248.044 46.274 247.105C46.274 246.167 46.4353 245.331 46.758 244.597C47.066 243.849 47.4987 243.211 48.056 242.683C48.6133 242.155 49.2513 241.759 49.97 241.495C50.6887 241.217 51.4513 241.077 52.258 241.077C53.05 241.077 53.8053 241.217 54.524 241.495C55.2427 241.759 55.8807 242.155 56.438 242.683C56.9953 243.197 57.4353 243.827 57.758 244.575C58.066 245.323 58.22 246.167 58.22 247.105ZM52.258 250.119C52.9327 250.119 53.534 249.987 54.062 249.723C54.5753 249.459 54.9787 249.1 55.272 248.645C55.5653 248.191 55.712 247.677 55.712 247.105C55.712 246.548 55.5653 246.042 55.272 245.587C54.964 245.133 54.5533 244.773 54.04 244.509C53.512 244.231 52.9107 244.091 52.236 244.091C51.576 244.091 50.982 244.231 50.454 244.509C49.926 244.773 49.5153 245.133 49.222 245.587C48.9287 246.042 48.782 246.548 48.782 247.105C48.782 247.677 48.936 248.191 49.244 248.645C49.5373 249.1 49.948 249.459 50.476 249.723C50.9893 249.987 51.5833 250.119 52.258 250.119ZM49.024 232.224C49.024 233.118 49.2 233.918 49.552 234.622C49.8893 235.326 50.3807 235.832 51.026 236.14L58 236.14L58 239.088L46.472 239.088L46.472 236.382L48.936 236.382C48.144 235.971 47.5207 235.45 47.066 234.82C46.6113 234.189 46.362 233.522 46.318 232.818C46.318 232.656 46.318 232.532 46.318 232.444C46.318 232.356 46.3253 232.282 46.34 232.224L49.024 232.224ZM58 212.672L58 215.62L51.532 215.62C50.6227 215.62 49.9553 215.781 49.53 216.104C49.09 216.412 48.87 216.845 48.87 217.402C48.87 217.974 49.0973 218.524 49.552 219.052C49.992 219.565 50.5713 219.932 51.29 220.152L58 220.152L58 223.1L51.532 223.1C50.608 223.1 49.9333 223.261 49.508 223.584C49.0827 223.892 48.87 224.325 48.87 224.882C48.87 225.454 49.09 226.004 49.53 226.532C49.97 227.045 50.5493 227.412 51.268 227.632L58 227.632L58 230.58L46.472 230.58L46.472 227.918L48.606 227.918C47.858 227.478 47.286 226.891 46.89 226.158C46.4793 225.425 46.274 224.581 46.274 223.628C46.274 222.675 46.5087 221.934 46.978 221.406C47.4473 220.863 48.0267 220.519 48.716 220.372C47.924 219.903 47.3227 219.309 46.912 218.59C46.4867 217.857 46.274 217.035 46.274 216.126C46.274 215.407 46.406 214.828 46.67 214.388C46.9193 213.933 47.264 213.581 47.704 213.332C48.1293 213.083 48.6133 212.914 49.156 212.826C49.6987 212.723 50.2487 212.672 50.806 212.672L58 212.672ZM54.59 210.897C53.842 210.897 53.1893 210.692 52.632 210.281C52.06 209.856 51.62 209.269 51.312 208.521C51.004 207.773 50.85 206.915 50.85 205.947C50.85 205.463 50.8867 204.972 50.96 204.473C51.0333 203.975 51.1507 203.542 51.312 203.175L50.696 203.175C49.9627 203.175 49.398 203.395 49.002 203.835C48.606 204.261 48.408 204.899 48.408 205.749C48.408 206.38 48.518 206.981 48.738 207.553C48.958 208.125 49.2807 208.727 49.706 209.357L47.77 210.303C47.2713 209.541 46.8973 208.763 46.648 207.971C46.3987 207.165 46.274 206.321 46.274 205.441C46.274 203.799 46.6847 202.523 47.506 201.613C48.3273 200.689 49.5007 200.227 51.026 200.227L54.7 200.227C55.008 200.227 55.228 200.176 55.36 200.073C55.492 199.956 55.5727 199.773 55.602 199.523L58 199.523C58.044 199.787 58.0807 200.029 58.11 200.249C58.1393 200.455 58.154 200.631 58.154 200.777C58.154 201.364 58.022 201.811 57.758 202.119C57.494 202.413 57.1713 202.596 56.79 202.669L56.196 202.735C56.8413 203.234 57.34 203.857 57.692 204.605C58.044 205.353 58.22 206.116 58.22 206.893C58.22 207.656 58.066 208.345 57.758 208.961C57.4353 209.563 57.0027 210.039 56.46 210.391C55.9027 210.729 55.2793 210.897 54.59 210.897ZM55.184 203.725C55.008 203.564 54.832 203.432 54.656 203.329C54.48 203.227 54.3187 203.175 54.172 203.175L53.006 203.175C52.8593 203.527 52.7493 203.909 52.676 204.319C52.588 204.73 52.544 205.119 52.544 205.485C52.544 206.248 52.7127 206.879 53.05 207.377C53.3727 207.861 53.8053 208.103 54.348 208.103C54.6413 208.103 54.92 208.023 55.184 207.861C55.448 207.7 55.6607 207.465 55.822 207.157C55.9833 206.849 56.064 206.483 56.064 206.057C56.064 205.617 55.9833 205.185 55.822 204.759C55.646 204.334 55.4333 203.989 55.184 203.725ZM41.94 197.494L41.94 194.546L54.304 194.546C54.832 194.546 55.1913 194.458 55.382 194.282C55.558 194.106 55.646 193.864 55.646 193.556C55.646 193.322 55.6167 193.08 55.558 192.83C55.4993 192.581 55.426 192.361 55.338 192.17L57.582 191.774C57.7727 192.17 57.9193 192.632 58.022 193.16C58.1247 193.688 58.176 194.165 58.176 194.59C58.176 195.514 57.934 196.233 57.45 196.746C56.9513 197.245 56.2473 197.494 55.338 197.494L41.94 197.494ZM58 190.49L46.472 190.49L46.472 187.542L58 187.542L58 190.49ZM44.866 190.49L41.94 190.49L41.94 187.542L44.866 187.542L44.866 190.49ZM56.196 185.653L48.54 179.295L48.54 185.389L46.472 185.389L46.472 176.127L48.276 176.127L55.932 182.441L55.932 176.017L58 176.017L58 185.653L56.196 185.653ZM58.22 168.88C58.22 169.804 58.066 170.64 57.758 171.388C57.4353 172.136 57.0027 172.774 56.46 173.302C55.9027 173.83 55.272 174.241 54.568 174.534C53.8493 174.813 53.094 174.952 52.302 174.952C51.202 174.952 50.1973 174.71 49.288 174.226C48.3787 173.728 47.6527 173.024 47.11 172.114C46.5527 171.19 46.274 170.105 46.274 168.858C46.274 167.597 46.5527 166.519 47.11 165.624C47.6527 164.73 48.3787 164.048 49.288 163.578C50.1827 163.094 51.1507 162.852 52.192 162.852C52.368 162.852 52.5513 162.86 52.742 162.874C52.918 162.889 53.0647 162.904 53.182 162.918L53.182 171.828C53.7687 171.77 54.282 171.601 54.722 171.322C55.162 171.029 55.4993 170.662 55.734 170.222C55.954 169.768 56.064 169.284 56.064 168.77C56.064 168.184 55.9247 167.634 55.646 167.12C55.3527 166.592 54.9713 166.233 54.502 166.042L55.206 163.512C55.7927 163.791 56.3133 164.194 56.768 164.722C57.2227 165.236 57.582 165.844 57.846 166.548C58.0953 167.252 58.22 168.03 58.22 168.88ZM51.312 171.894L51.312 165.866C50.7253 165.925 50.2193 166.094 49.794 166.372C49.354 166.636 49.0167 166.988 48.782 167.428C48.5327 167.868 48.408 168.36 48.408 168.902C48.408 169.43 48.5327 169.914 48.782 170.354C49.0167 170.78 49.354 171.132 49.794 171.41C50.2193 171.674 50.7253 171.836 51.312 171.894ZM52.236 161.76C51.1213 161.76 50.1167 161.54 49.222 161.1C48.3127 160.66 47.594 160.052 47.066 159.274C46.538 158.497 46.274 157.61 46.274 156.612C46.274 155.762 46.4867 154.999 46.912 154.324C47.3227 153.635 47.8507 153.1 48.496 152.718L41.94 152.718L41.94 149.77L54.7 149.77C55.008 149.77 55.228 149.719 55.36 149.616C55.492 149.514 55.5727 149.338 55.602 149.088L58 149.088C58.1027 149.602 58.154 150.02 58.154 150.342C58.154 150.87 58.022 151.31 57.758 151.662C57.494 152 57.1493 152.19 56.724 152.234L55.998 152.278C56.7167 152.704 57.2667 153.283 57.648 154.016C58.0293 154.735 58.22 155.49 58.22 156.282C58.22 157.074 58.066 157.808 57.758 158.482C57.45 159.142 57.0247 159.722 56.482 160.22C55.9393 160.704 55.3087 161.086 54.59 161.364C53.8567 161.628 53.072 161.76 52.236 161.76ZM53.776 152.718L51.026 152.718C50.6007 152.865 50.2193 153.1 49.882 153.422C49.5447 153.745 49.2807 154.104 49.09 154.5C48.8847 154.896 48.782 155.292 48.782 155.688C48.782 156.143 48.8773 156.554 49.068 156.92C49.2587 157.287 49.5153 157.61 49.838 157.888C50.1607 158.152 50.5347 158.358 50.96 158.504C51.3853 158.636 51.8327 158.702 52.302 158.702C52.7713 158.702 53.2187 158.629 53.644 158.482C54.0547 158.321 54.414 158.094 54.722 157.8C55.03 157.507 55.272 157.17 55.448 156.788C55.624 156.392 55.712 155.967 55.712 155.512C55.712 155.234 55.668 154.955 55.58 154.676C55.4773 154.383 55.3453 154.112 55.184 153.862C55.008 153.598 54.8027 153.371 54.568 153.18C54.3187 152.975 54.0547 152.821 53.776 152.718ZM58.22 135.036C58.22 135.916 58.022 136.7 57.626 137.39C57.23 138.079 56.6873 138.622 55.998 139.018L58 139.018L58 141.592L41.94 141.592L41.94 138.644L48.496 138.644C47.8067 138.233 47.264 137.698 46.868 137.038C46.472 136.363 46.274 135.578 46.274 134.684C46.274 133.936 46.4353 133.254 46.758 132.638C47.066 132.022 47.4987 131.494 48.056 131.054C48.6133 130.599 49.2513 130.254 49.97 130.02C50.6887 129.77 51.4587 129.646 52.28 129.646C53.1013 129.646 53.8713 129.785 54.59 130.064C55.3087 130.328 55.9467 130.702 56.504 131.186C57.0467 131.67 57.472 132.242 57.78 132.902C58.0733 133.547 58.22 134.258 58.22 135.036ZM55.712 135.85C55.712 135.38 55.624 134.955 55.448 134.574C55.2573 134.178 55.008 133.84 54.7 133.562C54.392 133.268 54.0327 133.048 53.622 132.902C53.1967 132.74 52.7567 132.66 52.302 132.66C51.6713 132.66 51.092 132.792 50.564 133.056C50.0213 133.305 49.5887 133.657 49.266 134.112C48.9433 134.552 48.782 135.072 48.782 135.674C48.782 136.099 48.8847 136.51 49.09 136.906C49.2807 137.287 49.5447 137.632 49.882 137.94C50.2193 138.233 50.6007 138.468 51.026 138.644L53.776 138.644C54.0693 138.556 54.3333 138.416 54.568 138.226C54.8027 138.02 55.008 137.786 55.184 137.522C55.3453 137.258 55.4773 136.986 55.58 136.708C55.668 136.414 55.712 136.128 55.712 135.85ZM60.244 127.793C60.3027 127.529 60.354 127.287 60.398 127.067C60.442 126.832 60.464 126.634 60.464 126.473C60.464 126.194 60.3907 125.967 60.244 125.791C60.112 125.6 59.8627 125.417 59.496 125.241C59.144 125.065 58.6453 124.882 58 124.691L46.472 129.245L46.472 126.187L54.986 123.085L46.472 120.357L46.472 117.541L60.288 122.381C60.8013 122.557 61.2633 122.828 61.674 123.195C62.0993 123.547 62.4293 123.994 62.664 124.537C62.9133 125.065 63.038 125.659 63.038 126.319C63.038 126.554 63.016 126.788 62.972 127.023C62.9427 127.258 62.884 127.514 62.796 127.793L60.244 127.793Z" fill="black"/>
<path d="M41 94.1849L23.96 94.1849L23.96 86.6489C23.96 85.8649 24.12 85.1449 24.44 84.4889C24.76 83.8169 25.192 83.2409 25.736 82.7609C26.28 82.2649 26.888 81.8889 27.56 81.6329C28.232 81.3609 28.92 81.2249 29.624 81.2249C30.344 81.2249 31.04 81.3529 31.712 81.6089C32.368 81.8489 32.944 82.2009 33.44 82.6649C33.936 83.1289 34.32 83.6729 34.592 84.2969L41 80.4089L41 84.0569L35.288 87.5609L35.288 90.8729L41 90.8729L41 94.1849ZM32.384 90.8729L32.384 86.7209C32.384 86.3049 32.264 85.9369 32.024 85.6169C31.768 85.2969 31.432 85.0409 31.016 84.8489C30.6 84.6569 30.136 84.5609 29.624 84.5609C29.08 84.5609 28.608 84.6729 28.208 84.8969C27.792 85.1209 27.464 85.4089 27.224 85.7609C26.984 86.0969 26.864 86.4649 26.864 86.8649L26.864 90.8729L32.384 90.8729Z" fill="black"/>
<path d="M44.514 72.7363C44.598 72.9403 44.694 73.1863 44.802 73.4743C44.91 73.7623 44.994 74.0743 45.054 74.4103C45.126 74.7343 45.162 75.0643 45.162 75.4003C45.162 75.8443 45.084 76.2523 44.928 76.6243C44.772 76.9963 44.526 77.2963 44.19 77.5243C43.842 77.7403 43.392 77.8483 42.84 77.8483L37.422 77.8483L37.422 79.0903L35.568 79.0903L35.568 77.8483L32.508 77.8483L32.508 75.4363L35.568 75.4363L35.568 73.4563L37.422 73.4563L37.422 75.4363L42.03 75.4363C42.354 75.4243 42.588 75.3343 42.732 75.1663C42.876 74.9983 42.948 74.7883 42.948 74.5363C42.948 74.2843 42.906 74.0383 42.822 73.7983C42.738 73.5583 42.666 73.3663 42.606 73.2223L44.514 72.7363ZM45.18 67.2296C45.18 67.9976 45.054 68.6876 44.802 69.2996C44.538 69.9116 44.178 70.4336 43.722 70.8656C43.266 71.2856 42.744 71.6096 42.156 71.8376C41.568 72.0656 40.95 72.1796 40.302 72.1796C39.642 72.1796 39.018 72.0656 38.43 71.8376C37.842 71.6096 37.32 71.2856 36.864 70.8656C36.408 70.4336 36.054 69.9116 35.802 69.2996C35.538 68.6876 35.406 67.9976 35.406 67.2296C35.406 66.4616 35.538 65.7776 35.802 65.1776C36.054 64.5656 36.408 64.0436 36.864 63.6116C37.32 63.1796 37.842 62.8556 38.43 62.6396C39.018 62.4116 39.642 62.2976 40.302 62.2976C40.95 62.2976 41.568 62.4116 42.156 62.6396C42.744 62.8556 43.266 63.1796 43.722 63.6116C44.178 64.0316 44.538 64.5476 44.802 65.1596C45.054 65.7716 45.18 66.4616 45.18 67.2296ZM40.302 69.6956C40.854 69.6956 41.346 69.5876 41.778 69.3716C42.198 69.1556 42.528 68.8616 42.768 68.4896C43.008 68.1176 43.128 67.6976 43.128 67.2296C43.128 66.7736 43.008 66.3596 42.768 65.9876C42.516 65.6156 42.18 65.3216 41.76 65.1056C41.328 64.8776 40.836 64.7636 40.284 64.7636C39.744 64.7636 39.258 64.8776 38.826 65.1056C38.394 65.3216 38.058 65.6156 37.818 65.9876C37.578 66.3596 37.458 66.7736 37.458 67.2296C37.458 67.6976 37.584 68.1176 37.836 68.4896C38.076 68.8616 38.412 69.1556 38.844 69.3716C39.264 69.5876 39.75 69.6956 40.302 69.6956ZM44.514 55.1582C44.598 55.3622 44.694 55.6082 44.802 55.8962C44.91 56.1842 44.994 56.4962 45.054 56.8322C45.126 57.1562 45.162 57.4862 45.162 57.8222C45.162 58.2662 45.084 58.6742 44.928 59.0462C44.772 59.4182 44.526 59.7182 44.19 59.9462C43.842 60.1622 43.392 60.2702 42.84 60.2702L37.422 60.2702L37.422 61.5122L35.568 61.5122L35.568 60.2702L32.508 60.2702L32.508 57.8582L35.568 57.8582L35.568 55.8782L37.422 55.8782L37.422 57.8582L42.03 57.8582C42.354 57.8462 42.588 57.7562 42.732 57.5882C42.876 57.4202 42.948 57.2102 42.948 56.9582C42.948 56.7062 42.906 56.4602 42.822 56.2202C42.738 55.9802 42.666 55.7882 42.606 55.6442L44.514 55.1582Z" fill="black"/>
<path d="M73 93.3324L73 96.5484L65.944 96.5484C64.936 96.5484 64.2 96.7244 63.736 97.0764C63.272 97.4284 63.04 97.9164 63.04 98.5404C63.04 98.9724 63.152 99.4124 63.376 99.8604C63.6 100.292 63.912 100.684 64.312 101.036C64.696 101.388 65.144 101.644 65.656 101.804L73 101.804L73 105.02L60.424 105.02L60.424 102.116L62.752 102.116C62.208 101.796 61.752 101.388 61.384 100.892C61 100.396 60.712 99.8284 60.52 99.1884C60.312 98.5324 60.208 97.8444 60.208 97.1244C60.208 96.3404 60.352 95.7004 60.64 95.2044C60.912 94.6924 61.288 94.3084 61.768 94.0524C62.232 93.7804 62.76 93.5964 63.352 93.5004C63.944 93.3884 64.544 93.3324 65.152 93.3324L73 93.3324Z" fill="black"/>
<path d="M77.18 85.7229C77.18 86.4909 77.054 87.1809 76.802 87.7929C76.538 88.4049 76.178 88.9269 75.722 89.3589C75.254 89.7909 74.726 90.1269 74.138 90.3669C73.55 90.5949 72.932 90.7089 72.284 90.7089C71.396 90.7089 70.586 90.5109 69.854 90.1149C69.11 89.7069 68.516 89.1309 68.072 88.3869C67.628 87.6429 67.406 86.7609 67.406 85.7409C67.406 84.7209 67.628 83.8449 68.072 83.1129C68.516 82.3809 69.098 81.8349 69.818 81.4749L70.538 83.8329C70.19 84.0369 69.926 84.3069 69.746 84.6429C69.554 84.9789 69.458 85.3509 69.458 85.7589C69.458 86.2149 69.578 86.6349 69.818 87.0189C70.046 87.3909 70.376 87.6849 70.808 87.9009C71.228 88.1169 71.72 88.2249 72.284 88.2249C72.836 88.2249 73.328 88.1169 73.76 87.9009C74.18 87.6729 74.516 87.3729 74.768 87.0009C75.008 86.6289 75.128 86.2149 75.128 85.7589C75.128 85.4709 75.08 85.2009 74.984 84.9489C74.888 84.6849 74.756 84.4509 74.588 84.2469C74.42 84.0429 74.228 83.8929 74.012 83.7969L74.732 81.4389C75.2 81.6549 75.62 81.9729 75.992 82.3929C76.364 82.8009 76.658 83.2869 76.874 83.8509C77.078 84.4029 77.18 85.0269 77.18 85.7229ZM78.836 79.9325C78.884 79.7165 78.926 79.5185 78.962 79.3385C78.998 79.1465 79.016 78.9845 79.016 78.8525C79.016 78.6245 78.956 78.4385 78.836 78.2945C78.728 78.1385 78.524 77.9885 78.224 77.8445C77.936 77.7005 77.528 77.5505 77 77.3945L67.568 81.1205L67.568 78.6185L74.534 76.0805L67.568 73.8485L67.568 71.5445L78.872 75.5045C79.292 75.6485 79.67 75.8705 80.006 76.1705C80.354 76.4585 80.624 76.8245 80.816 77.2685C81.02 77.7005 81.122 78.1865 81.122 78.7265C81.122 78.9185 81.104 79.1105 81.068 79.3025C81.044 79.4945 80.996 79.7045 80.924 79.9325L78.836 79.9325ZM77.18 66.1584C77.18 66.9264 77.054 67.6164 76.802 68.2284C76.538 68.8404 76.178 69.3624 75.722 69.7944C75.254 70.2264 74.726 70.5624 74.138 70.8024C73.55 71.0304 72.932 71.1444 72.284 71.1444C71.396 71.1444 70.586 70.9464 69.854 70.5504C69.11 70.1424 68.516 69.5664 68.072 68.8224C67.628 68.0784 67.406 67.1964 67.406 66.1764C67.406 65.1564 67.628 64.2804 68.072 63.5484C68.516 62.8164 69.098 62.2704 69.818 61.9104L70.538 64.2684C70.19 64.4724 69.926 64.7424 69.746 65.0784C69.554 65.4144 69.458 65.7864 69.458 66.1944C69.458 66.6504 69.578 67.0704 69.818 67.4544C70.046 67.8264 70.376 68.1204 70.808 68.3364C71.228 68.5524 71.72 68.6604 72.284 68.6604C72.836 68.6604 73.328 68.5524 73.76 68.3364C74.18 68.1084 74.516 67.8084 74.768 67.4364C75.008 67.0644 75.128 66.6504 75.128 66.1944C75.128 65.9064 75.08 65.6364 74.984 65.3844C74.888 65.1204 74.756 64.8864 74.588 64.6824C74.42 64.4784 74.228 64.3284 74.012 64.2324L74.732 61.8744C75.2 62.0904 75.62 62.4084 75.992 62.8284C76.364 63.2364 76.658 63.7224 76.874 64.2864C77.078 64.8384 77.18 65.4624 77.18 66.1584ZM63.86 60.4083L63.86 57.9963L73.976 57.9963C74.408 57.9963 74.702 57.9243 74.858 57.7803C75.002 57.6363 75.074 57.4383 75.074 57.1863C75.074 56.9943 75.05 56.7963 75.002 56.5923C74.954 56.3883 74.894 56.2083 74.822 56.0523L76.658 55.7283C76.814 56.0523 76.934 56.4303 77.018 56.8623C77.102 57.2943 77.144 57.6843 77.144 58.0323C77.144 58.7883 76.946 59.3763 76.55 59.7963C76.142 60.2043 75.566 60.4083 74.822 60.4083L63.86 60.4083ZM77.18 50.3034C77.18 51.0594 77.054 51.7434 76.802 52.3554C76.538 52.9674 76.184 53.4894 75.74 53.9214C75.284 54.3534 74.768 54.6894 74.192 54.9294C73.604 55.1574 72.986 55.2714 72.338 55.2714C71.438 55.2714 70.616 55.0734 69.872 54.6774C69.128 54.2694 68.534 53.6934 68.09 52.9494C67.634 52.1934 67.406 51.3054 67.406 50.2854C67.406 49.2534 67.634 48.3714 68.09 47.6394C68.534 46.9074 69.128 46.3494 69.872 45.9654C70.604 45.5694 71.396 45.3714 72.248 45.3714C72.392 45.3714 72.542 45.3774 72.698 45.3894C72.842 45.4014 72.962 45.4134 73.058 45.4254L73.058 52.7154C73.538 52.6674 73.958 52.5294 74.318 52.3014C74.678 52.0614 74.954 51.7614 75.146 51.4014C75.326 51.0294 75.416 50.6334 75.416 50.2134C75.416 49.7334 75.302 49.2834 75.074 48.8634C74.834 48.4314 74.522 48.1374 74.138 47.9814L74.714 45.9114C75.194 46.1394 75.62 46.4694 75.992 46.9014C76.364 47.3214 76.658 47.8194 76.874 48.3954C77.078 48.9714 77.18 49.6074 77.18 50.3034ZM71.528 52.7694L71.528 47.8374C71.048 47.8854 70.634 48.0234 70.286 48.2514C69.926 48.4674 69.65 48.7554 69.458 49.1154C69.254 49.4754 69.152 49.8774 69.152 50.3214C69.152 50.7534 69.254 51.1494 69.458 51.5094C69.65 51.8574 69.926 52.1454 70.286 52.3734C70.634 52.5894 71.048 52.7214 71.528 52.7694Z" fill="black"/>
<line x1="50" y1="107" x2="50" y2="45" stroke="black" stroke-width="2"/>
</svg>
