<svg width="400" height="400" viewBox="0 0 400 400" fill="none" xmlns="http://www.w3.org/2000/svg">
<rect x="0.5" y="0.5" width="399" height="399" fill="#F6F3ED"/>
<rect x="0.5" y="0.5" width="399" height="399" stroke="#E0DBC8"/>
<path d="M293 134C307.912 134 320 121.912 320 107C320 92.0883 307.912 80 293 80C278.088 80 266 92.0883 266 107C266 121.912 278.088 134 293 134Z" fill="black" stroke="black"/>
<path d="M133.345 108.534C147.984 108.469 162.623 108.405 177.26 108.34L133.345 108.534Z" fill="black"/>
<path d="M133.345 108.534C147.984 108.469 162.623 108.405 177.26 108.34" stroke="black"/>
<path d="M227.761 109.784C243.756 109.749 259.75 109.713 275.743 109.677L227.761 109.784Z" fill="black"/>
<path d="M227.761 109.784C243.756 109.749 259.75 109.713 275.743 109.677" stroke="black"/>
<path d="M107 235C121.912 235 134 222.912 134 208C134 193.088 121.912 181 107 181C92.0883 181 80 193.088 80 208C80 222.912 92.0883 235 107 235Z" fill="black" stroke="black"/>
<path d="M129.48 301.17C144.12 301.105 158.758 301.041 173.395 300.976L129.48 301.17Z" fill="black"/>
<path d="M129.48 301.17C144.12 301.105 158.758 301.041 173.395 300.976" stroke="black"/>
<path d="M223.897 302.42C239.892 302.386 255.886 302.349 271.879 302.313L223.897 302.42Z" fill="black"/>
<path d="M223.897 302.42C239.892 302.386 255.886 302.349 271.879 302.313" stroke="black"/>
<path d="M129.48 209.365C144.12 209.3 158.758 209.236 173.395 209.171L129.48 209.365Z" fill="black"/>
<path d="M129.48 209.365C144.12 209.3 158.758 209.236 173.395 209.171" stroke="black"/>
<path d="M182.275 187.489C163.162 167.441 144.047 147.393 124.931 127.343L182.275 187.489Z" fill="black"/>
<path d="M182.275 187.489C163.162 167.441 144.047 147.393 124.931 127.343" stroke="black"/>
<path d="M121.109 187.956C142.369 167.489 163.63 147.022 174.26 136.788C184.89 126.555 184.89 126.555 184.89 126.555" fill="black"/>
<path d="M121.109 187.956C142.369 167.489 163.63 147.022 174.26 136.788C184.89 126.555 184.89 126.555 184.89 126.555" stroke="black"/>
<path d="M123.432 225.596C142.609 243.923 161.785 262.25 180.96 280.576L123.432 225.596Z" fill="black"/>
<path d="M123.432 225.596C142.609 243.923 161.785 262.25 180.96 280.576" stroke="black"/>
<path d="M117.891 277.142C138.5 260.068 159.109 242.995 179.718 225.922L117.891 277.142Z" fill="black"/>
<path d="M117.891 277.142C138.5 260.068 159.109 242.995 179.718 225.922" stroke="black"/>
<path d="M117.891 277.142C140.224 226.946 162.557 176.751 184.89 126.555L117.891 277.142Z" fill="black"/>
<path d="M117.891 277.142C140.224 226.946 162.557 176.751 184.89 126.555" stroke="black"/>
<path d="M124.931 127.343C143.608 178.422 162.284 229.499 171.621 255.039C180.957 280.579 180.95 280.587 180.95 280.587" fill="black"/>
<path d="M124.931 127.343C143.608 178.422 162.284 229.499 171.621 255.039C180.957 280.579 180.95 280.587 180.95 280.587" stroke="black"/>
<path d="M270.41 209.365C255.77 209.3 241.132 209.236 226.495 209.171L270.41 209.365Z" fill="black"/>
<path d="M270.41 209.365C255.77 209.3 241.132 209.236 226.495 209.171" stroke="black"/>
<path d="M217.615 187.489C236.728 167.441 255.843 147.393 274.959 127.343L217.615 187.489Z" fill="black"/>
<path d="M217.615 187.489C236.728 167.441 255.843 147.393 274.959 127.343" stroke="black"/>
<path d="M278.781 187.956C257.521 167.489 236.26 147.022 225.63 136.788C215 126.555 215 126.555 215 126.555" fill="black"/>
<path d="M278.781 187.956C257.521 167.489 236.26 147.022 225.63 136.788C215 126.555 215 126.555 215 126.555" stroke="black"/>
<path d="M276.458 225.596C257.281 243.923 238.105 262.25 218.93 280.576L276.458 225.596Z" fill="black"/>
<path d="M276.458 225.596C257.281 243.923 238.105 262.25 218.93 280.576" stroke="black"/>
<path d="M281.999 277.142C261.39 260.068 240.781 242.995 220.172 225.922L281.999 277.142Z" fill="black"/>
<path d="M281.999 277.142C261.39 260.068 240.781 242.995 220.172 225.922" stroke="black"/>
<path d="M281.999 277.142C259.666 226.946 237.333 176.751 215 126.555L281.999 277.142Z" fill="black"/>
<path d="M281.999 277.142C259.666 226.946 237.333 176.751 215 126.555" stroke="black"/>
<path d="M274.959 127.343C256.282 178.422 237.606 229.499 228.269 255.039C218.933 280.579 218.94 280.587 218.94 280.587" fill="black"/>
<path d="M274.959 127.343C256.282 178.422 237.606 229.499 228.269 255.039C218.933 280.579 218.94 280.587 218.94 280.587" stroke="black"/>
<path d="M200 134C214.912 134 227 121.912 227 107C227 92.0883 214.912 80 200 80C185.088 80 173 92.0883 173 107C173 121.912 185.088 134 200 134Z" fill="white" stroke="black"/>
<path d="M200 235C214.912 235 227 222.912 227 208C227 193.088 214.912 181 200 181C185.088 181 173 193.088 173 208C173 222.912 185.088 235 200 235Z" fill="white" stroke="black"/>
<path d="M200 327C214.912 327 227 314.912 227 300C227 285.088 214.912 273 200 273C185.088 273 173 285.088 173 300C173 314.912 185.088 327 200 327Z" fill="white" stroke="black"/>
<path d="M107 134C121.912 134 134 121.912 134 107C134 92.0883 121.912 80 107 80C92.0883 80 80 92.0883 80 107C80 121.912 92.0883 134 107 134Z" fill="#D3DAE6" stroke="black"/>
<path d="M293 235C307.912 235 320 222.912 320 208C320 193.088 307.912 181 293 181C278.088 181 266 193.088 266 208C266 222.912 278.088 235 293 235Z" fill="#D3DAE6" stroke="black"/>
<path d="M107 327C121.912 327 134 314.912 134 300C134 285.088 121.912 273 107 273C92.0883 273 80 285.088 80 300C80 314.912 92.0883 327 107 327Z" fill="#D3DAE6" stroke="black"/>
<path d="M293 327C307.912 327 320 314.912 320 300C320 285.088 307.912 273 293 273C278.088 273 266 285.088 266 300C266 314.912 278.088 327 293 327Z" fill="#D3DAE6" stroke="black"/>
<rect x="58.5" y="74.5" width="283" height="66" rx="15.5" stroke="#D75E5E"/>
</svg>
