<svg width="400" height="435" viewBox="0 0 400 435" fill="none" xmlns="http://www.w3.org/2000/svg">
<rect x="0.5" y="0.5" width="399" height="434" fill="#F6F3ED"/>
<rect x="0.5" y="0.5" width="399" height="434" stroke="#E0DBC8"/>
<path d="M293 98C307.912 98 320 85.9117 320 71C320 56.0883 307.912 44 293 44C278.088 44 266 56.0883 266 71C266 85.9117 278.088 98 293 98Z" fill="black" stroke="black"/>
<path d="M133.345 72.5336C147.984 72.4691 162.623 72.4046 177.26 72.3401L133.345 72.5336Z" fill="black"/>
<path d="M133.345 72.5336C147.984 72.4691 162.623 72.4046 177.26 72.3401" stroke="black"/>
<path d="M227.761 73.7841C243.756 73.7485 259.75 73.713 275.743 73.6775L227.761 73.7841Z" fill="black"/>
<path d="M227.761 73.7841C243.756 73.7485 259.75 73.713 275.743 73.6775" stroke="black"/>
<path d="M200 98C214.912 98 227 85.9117 227 71C227 56.0883 214.912 44 200 44C185.088 44 173 56.0883 173 71C173 85.9117 185.088 98 200 98Z" fill="white" stroke="black"/>
<path d="M107 198C121.912 198 134 185.912 134 171C134 156.088 121.912 144 107 144C92.0883 144 80 156.088 80 171C80 185.912 92.0883 198 107 198Z" fill="black" stroke="black"/>
<path d="M107 98C121.912 98 134 85.9117 134 71C134 56.0883 121.912 44 107 44C92.0883 44 80 56.0883 80 71C80 85.9117 92.0883 98 107 98Z" fill="black" stroke="black"/>
<path d="M107 391C121.912 391 134 378.912 134 364C134 349.088 121.912 337 107 337C92.0883 337 80 349.088 80 364C80 378.912 92.0883 391 107 391Z" fill="black" stroke="black"/>
<path d="M293 391C307.912 391 320 378.912 320 364C320 349.088 307.912 337 293 337C278.088 337 266 349.088 266 364C266 378.912 278.088 391 293 391Z" fill="black" stroke="black"/>
<line x1="106.64" y1="363.653" x2="292.64" y2="170.653" stroke="black"/>
<line y1="-0.5" x2="268.039" y2="-0.5" transform="matrix(0.693928 0.720044 0.720044 -0.693928 107 171)" stroke="black"/>
<line x1="107" y1="171.5" x2="293" y2="171.5" stroke="black"/>
<line x1="292.5" y1="364" x2="292.5" y2="172" stroke="black"/>
<path d="M293 198C307.912 198 320 185.912 320 171C320 156.088 307.912 144 293 144C278.088 144 266 156.088 266 171C266 185.912 278.088 198 293 198Z" fill="white" stroke="black"/>
<path d="M200 294C214.912 294 227 281.912 227 267C227 252.088 214.912 240 200 240C185.088 240 173 252.088 173 267C173 281.912 185.088 294 200 294Z" fill="white" stroke="black"/>
<path d="M116.534 70.28C116.534 72.6267 116.094 74.72 115.214 76.56C114.361 78.3733 113.174 79.8 111.654 80.84C110.134 81.88 108.414 82.4 106.494 82.4C104.574 82.4 102.854 81.88 101.334 80.84C99.8406 79.8 98.6539 78.3733 97.7739 76.56C96.8939 74.72 96.4539 72.6267 96.4539 70.28C96.4539 67.9333 96.8939 65.8533 97.7739 64.04C98.6539 62.2 99.8406 60.76 101.334 59.72C102.854 58.6533 104.574 58.12 106.494 58.12C108.414 58.12 110.134 58.6533 111.654 59.72C113.174 60.76 114.361 62.2 115.214 64.04C116.094 65.8533 116.534 67.9333 116.534 70.28ZM113.774 70.28C113.774 68.3867 113.467 66.72 112.854 65.28C112.241 63.84 111.387 62.72 110.294 61.92C109.201 61.0933 107.934 60.68 106.494 60.68C105.054 60.68 103.787 61.0933 102.694 61.92C101.601 62.72 100.734 63.84 100.094 65.28C99.4806 66.72 99.1739 68.3867 99.1739 70.28C99.1739 72.1733 99.4806 73.84 100.094 75.28C100.734 76.72 101.601 77.84 102.694 78.64C103.787 79.44 105.054 79.84 106.494 79.84C107.934 79.84 109.201 79.44 110.294 78.64C111.387 77.8133 112.241 76.6933 112.854 75.28C113.467 73.84 113.774 72.1733 113.774 70.28Z" fill="white"/>
<path d="M116.534 170.28C116.534 172.627 116.094 174.72 115.214 176.56C114.361 178.373 113.174 179.8 111.654 180.84C110.134 181.88 108.414 182.4 106.494 182.4C104.574 182.4 102.854 181.88 101.334 180.84C99.8406 179.8 98.6539 178.373 97.7739 176.56C96.8939 174.72 96.4539 172.627 96.4539 170.28C96.4539 167.933 96.8939 165.853 97.7739 164.04C98.6539 162.2 99.8406 160.76 101.334 159.72C102.854 158.653 104.574 158.12 106.494 158.12C108.414 158.12 110.134 158.653 111.654 159.72C113.174 160.76 114.361 162.2 115.214 164.04C116.094 165.853 116.534 167.933 116.534 170.28ZM113.774 170.28C113.774 168.387 113.467 166.72 112.854 165.28C112.241 163.84 111.387 162.72 110.294 161.92C109.201 161.093 107.934 160.68 106.494 160.68C105.054 160.68 103.787 161.093 102.694 161.92C101.601 162.72 100.734 163.84 100.094 165.28C99.4806 166.72 99.1739 168.387 99.1739 170.28C99.1739 172.173 99.4806 173.84 100.094 175.28C100.734 176.72 101.601 177.84 102.694 178.64C103.787 179.44 105.054 179.84 106.494 179.84C107.934 179.84 109.201 179.44 110.294 178.64C111.387 177.813 112.241 176.693 112.854 175.28C113.467 173.84 113.774 172.173 113.774 170.28Z" fill="white"/>
<path d="M110.036 361.56C111.236 361.747 112.263 362.173 113.116 362.84C113.97 363.507 114.636 364.347 115.116 365.36C115.596 366.373 115.836 367.52 115.836 368.8C115.836 370.4 115.45 371.813 114.676 373.04C113.903 374.267 112.823 375.213 111.436 375.88C110.05 376.547 108.436 376.88 106.596 376.88C104.57 376.88 102.796 376.467 101.276 375.64C99.7564 374.84 98.6097 373.72 97.8364 372.28L99.7164 370.56C100.303 371.707 101.17 372.627 102.316 373.32C103.463 374.04 104.89 374.4 106.596 374.4C108.57 374.4 110.13 373.907 111.276 372.92C112.45 371.96 113.036 370.573 113.036 368.76C113.036 366.947 112.423 365.507 111.196 364.44C109.996 363.347 108.276 362.8 106.036 362.8H105.036V360.48H106.116C108.17 360.48 109.743 360 110.836 359.04C111.93 358.08 112.476 356.853 112.476 355.36C112.476 354.267 112.223 353.36 111.716 352.64C111.21 351.92 110.516 351.373 109.636 351C108.783 350.627 107.796 350.44 106.676 350.44C105.156 350.44 103.81 350.787 102.636 351.48C101.49 352.147 100.623 353.08 100.036 354.28L98.2764 352.6C98.7297 351.667 99.3831 350.853 100.236 350.16C101.09 349.467 102.09 348.933 103.236 348.56C104.383 348.16 105.61 347.96 106.916 347.96C108.57 347.96 110.023 348.267 111.276 348.88C112.53 349.467 113.516 350.293 114.236 351.36C114.956 352.427 115.316 353.68 115.316 355.12C115.316 356.187 115.103 357.173 114.676 358.08C114.25 358.987 113.636 359.747 112.836 360.36C112.063 360.973 111.13 361.373 110.036 361.56Z" fill="white"/>
<path d="M295.322 376.08V368.96H282.002V366.56L296.202 348.16H298.042V366.48H301.562V368.96H298.042V376.08H295.322ZM284.882 366.48H295.602V352.44L284.882 366.48Z" fill="white"/>
<path d="M206.685 79.52V82H193.125V79.52H198.805V62.4C198.592 62.72 198.232 63.0667 197.725 63.44C197.219 63.8133 196.632 64.16 195.965 64.48C195.325 64.8 194.685 65.0667 194.045 65.28C193.405 65.4933 192.819 65.6 192.285 65.6V62.96C192.899 62.96 193.565 62.7867 194.285 62.44C195.005 62.0933 195.699 61.6933 196.365 61.24C197.032 60.7867 197.592 60.36 198.045 59.96C198.499 59.56 198.752 59.2933 198.805 59.16H201.605V79.52H206.685Z" fill="black"/>
<path d="M301.685 179.52V182H288.125V179.52H293.805V162.4C293.592 162.72 293.232 163.067 292.725 163.44C292.219 163.813 291.632 164.16 290.965 164.48C290.325 164.8 289.685 165.067 289.045 165.28C288.405 165.493 287.819 165.6 287.285 165.6V162.96C287.899 162.96 288.565 162.787 289.285 162.44C290.005 162.093 290.699 161.693 291.365 161.24C292.032 160.787 292.592 160.36 293.045 159.96C293.499 159.56 293.752 159.293 293.805 159.16H296.605V179.52H301.685Z" fill="black"/>
<path d="M191.83 278C191.83 277.093 191.91 276.187 192.07 275.28C192.23 274.347 192.537 273.427 192.99 272.52C193.444 271.613 194.11 270.747 194.99 269.92C195.87 269.067 197.03 268.267 198.47 267.52C199.244 267.12 200.044 266.733 200.87 266.36C201.697 265.96 202.47 265.533 203.19 265.08C203.937 264.6 204.524 264.067 204.95 263.48C205.404 262.867 205.63 262.147 205.63 261.32C205.63 260.653 205.43 260 205.03 259.36C204.657 258.72 204.07 258.2 203.27 257.8C202.497 257.4 201.524 257.2 200.35 257.2C199.497 257.2 198.724 257.32 198.03 257.56C197.337 257.8 196.724 258.107 196.19 258.48C195.657 258.827 195.204 259.187 194.83 259.56C194.457 259.907 194.15 260.2 193.91 260.44L192.19 258.56C192.324 258.4 192.617 258.12 193.07 257.72C193.55 257.293 194.15 256.853 194.87 256.4C195.617 255.947 196.484 255.56 197.47 255.24C198.484 254.92 199.59 254.76 200.79 254.76C202.417 254.76 203.804 255.053 204.95 255.64C206.124 256.2 207.017 256.96 207.63 257.92C208.244 258.88 208.55 259.92 208.55 261.04C208.55 262.133 208.31 263.08 207.83 263.88C207.377 264.653 206.777 265.333 206.03 265.92C205.31 266.48 204.55 266.973 203.75 267.4C202.977 267.8 202.27 268.147 201.63 268.44C200.377 269.027 199.324 269.613 198.47 270.2C197.617 270.787 196.937 271.387 196.43 272C195.924 272.587 195.524 273.173 195.23 273.76C194.964 274.32 194.777 274.907 194.67 275.52H208.99V278H191.83Z" fill="black"/>
<path d="M283.83 82C283.83 81.0933 283.91 80.1867 284.07 79.28C284.23 78.3467 284.537 77.4267 284.99 76.52C285.444 75.6133 286.11 74.7467 286.99 73.92C287.87 73.0667 289.03 72.2667 290.47 71.52C291.244 71.12 292.044 70.7333 292.87 70.36C293.697 69.96 294.47 69.5333 295.19 69.08C295.937 68.6 296.524 68.0667 296.95 67.48C297.404 66.8667 297.63 66.1467 297.63 65.32C297.63 64.6533 297.43 64 297.03 63.36C296.657 62.72 296.07 62.2 295.27 61.8C294.497 61.4 293.524 61.2 292.35 61.2C291.497 61.2 290.724 61.32 290.03 61.56C289.337 61.8 288.724 62.1067 288.19 62.48C287.657 62.8267 287.204 63.1867 286.83 63.56C286.457 63.9067 286.15 64.2 285.91 64.44L284.19 62.56C284.324 62.4 284.617 62.12 285.07 61.72C285.55 61.2933 286.15 60.8533 286.87 60.4C287.617 59.9467 288.484 59.56 289.47 59.24C290.484 58.92 291.59 58.76 292.79 58.76C294.417 58.76 295.804 59.0533 296.95 59.64C298.124 60.2 299.017 60.96 299.63 61.92C300.244 62.88 300.55 63.92 300.55 65.04C300.55 66.1333 300.31 67.08 299.83 67.88C299.377 68.6533 298.777 69.3333 298.03 69.92C297.31 70.48 296.55 70.9733 295.75 71.4C294.977 71.8 294.27 72.1467 293.63 72.44C292.377 73.0267 291.324 73.6133 290.47 74.2C289.617 74.7867 288.937 75.3867 288.43 76C287.924 76.5867 287.524 77.1733 287.23 77.76C286.964 78.32 286.777 78.9067 286.67 79.52H300.99V82H283.83Z" fill="white"/>
</svg>
