<svg width="872" height="896" viewBox="0 0 872 896" fill="none" xmlns="http://www.w3.org/2000/svg">
<rect width="872" height="896" fill="white"/>
<rect x="24.5" y="24.5" width="823" height="208" fill="#F6F3ED" stroke="#E0DBC8"/>
<rect x="24.5" y="257.5" width="823" height="614" fill="#F6F3ED" stroke="#E0DBC8"/>
<path d="M529.5 306L529.5 716L441 798L441 843" stroke="black"/>
<path d="M793.5 330.5L616 411.5V457.5L442 541V586L266 669.5V716L86.5 798" stroke="black"/>
<path d="M444 330L354 412.5V843.5" stroke="black"/>
<path d="M618 329.5L440.5 412V458L266 541.5V586.5L173.5 669.5V842" stroke="black"/>
<path d="M704 284V458L616 540.5V587.5L442 669.5V715.5L266.5 798V843.5" stroke="black"/>
<path d="M440.955 283C427.248 283 426.121 329.334 411.226 329.334H471.289C456.395 329.334 455.267 283 441.56 283H440.955Z" fill="#C2E5F9" stroke="black"/>
<path d="M440.955 411.706C427.248 411.706 426.121 458.039 411.226 458.039H471.289C456.395 458.039 455.267 411.706 441.56 411.706H440.955Z" fill="#C2E5F9" stroke="black"/>
<path d="M440.955 540.41C427.248 540.41 426.121 586.744 411.226 586.744H471.289C456.395 586.744 455.267 540.41 441.56 540.41H440.955Z" fill="#C2E5F9" stroke="black"/>
<path d="M440.955 669.116C427.248 669.116 426.121 715.45 411.226 715.45H471.289C456.395 715.45 455.267 669.116 441.56 669.116H440.955Z" fill="#C2E5F9" stroke="black"/>
<path d="M440.955 797.821C427.248 797.821 426.121 844.155 411.226 844.155H471.289C456.395 844.155 455.267 797.821 441.56 797.821H440.955Z" fill="#C2E5F9" stroke="black"/>
<path d="M615.994 283C602.287 283 601.16 329.334 586.266 329.334H646.328C631.434 329.334 630.306 283 616.599 283H615.994Z" fill="#C2E5F9" stroke="black"/>
<path d="M615.994 411.706C602.287 411.706 601.16 458.039 586.266 458.039H646.328C631.434 458.039 630.306 411.706 616.599 411.706H615.994Z" fill="#C2E5F9" stroke="black"/>
<path d="M615.994 540.41C602.287 540.41 601.16 586.744 586.266 586.744H646.328C631.434 586.744 630.306 540.41 616.599 540.41H615.994Z" fill="#C2E5F9" stroke="black"/>
<path d="M173.248 669.116C159.541 669.116 158.414 715.45 143.52 715.45H203.582C188.688 715.45 187.56 669.116 173.853 669.116H173.248Z" fill="#C2E5F9" stroke="black"/>
<path d="M173.248 797.821C159.541 797.821 158.414 844.155 143.52 844.155H203.582C188.688 844.155 187.56 797.821 173.853 797.821H173.248Z" fill="#C2E5F9" stroke="black"/>
<path d="M528.475 283C514.768 283 513.64 329.334 498.746 329.334H558.808C543.914 329.334 542.787 283 529.079 283H528.475Z" fill="#C2E5F9" stroke="black"/>
<path d="M528.729 411.706C515.022 411.706 513.894 458.039 499 458.039H559.062C544.168 458.039 543.041 411.706 529.333 411.706H528.729Z" fill="#C2E5F9" stroke="black"/>
<path d="M528.475 540.41C514.768 540.41 513.64 586.744 498.746 586.744H558.808C543.914 586.744 542.787 540.41 529.079 540.41H528.475Z" fill="#C2E5F9" stroke="black"/>
<path d="M528.475 669.116C514.768 669.116 513.64 715.45 498.746 715.45H558.808C543.914 715.45 542.787 669.116 529.079 669.116H528.475Z" fill="#C2E5F9" stroke="black"/>
<path d="M85.729 797.821C72.0216 797.821 70.8941 844.155 56 844.155H116.062C101.168 844.155 100.041 797.821 86.3335 797.821H85.729Z" fill="#C2E5F9" stroke="black"/>
<path d="M703.514 283C689.807 283 688.679 329.334 673.785 329.334H733.847C718.953 329.334 717.826 283 704.118 283H703.514Z" fill="#C2E5F9" stroke="black"/>
<path d="M703.514 411.706C689.807 411.706 688.679 458.039 673.785 458.039H733.847C718.953 458.039 717.826 411.706 704.118 411.706H703.514Z" fill="#C2E5F9" stroke="black"/>
<path d="M265.916 540.41C252.209 540.41 251.081 586.744 236.187 586.744H296.25C281.356 586.744 280.228 540.41 266.521 540.41H265.916Z" fill="#C2E5F9" stroke="black"/>
<path d="M265.916 669.116C252.209 669.116 251.081 715.45 236.187 715.45H296.25C281.356 715.45 280.228 669.116 266.521 669.116H265.916Z" fill="#C2E5F9" stroke="black"/>
<path d="M265.916 797.821C252.209 797.821 251.081 844.155 236.187 844.155H296.25C281.356 844.155 280.228 797.821 266.521 797.821H265.916Z" fill="#C2E5F9" stroke="black"/>
<path d="M791.034 283C777.326 283 776.199 329.334 761.305 329.334H821.367C806.473 329.334 805.345 283 791.638 283H791.034Z" fill="#C2E5F9" stroke="black"/>
<path d="M353.436 411.706C339.728 411.706 338.601 458.039 323.707 458.039H383.769C368.875 458.039 367.748 411.706 354.04 411.706H353.436Z" fill="#C2E5F9" stroke="black"/>
<path d="M353.436 540.41C339.728 540.41 338.601 586.744 323.707 586.744H383.769C368.875 586.744 367.748 540.41 354.04 540.41H353.436Z" fill="#C2E5F9" stroke="black"/>
<path d="M353.436 669.116C339.728 669.116 338.601 715.45 323.707 715.45H383.769C368.875 715.45 367.748 669.116 354.04 669.116H353.436Z" fill="#C2E5F9" stroke="black"/>
<path d="M353.436 797.821C339.728 797.821 338.601 844.155 323.707 844.155H383.769C368.875 844.155 367.748 797.821 354.04 797.821H353.436Z" fill="#C2E5F9" stroke="black"/>
<line x1="187" y1="55.5" x2="688" y2="55.5" stroke="black"/>
<line x1="303" y1="132.5" x2="403" y2="132.5" stroke="black"/>
<line x1="714" y1="69.5" x2="814" y2="69.5" stroke="black"/>
<line x1="58" y1="69.5" x2="158" y2="69.5" stroke="black"/>
<path d="M565 167H581.327L658.88 89H672" stroke="black"/>
<path d="M435 133H447.36L506.068 75H516" stroke="black"/>
<path d="M435 146H447.36L506.068 204H516" stroke="black"/>
<path d="M275 133H262.64L203.932 75H194" stroke="black"/>
<rect x="272.5" y="112.5" width="58" height="57" rx="7.5" fill="white" stroke="black"/>
<path d="M296.553 146V134.64H300.585C301.812 134.64 302.836 134.896 303.657 135.408C304.479 135.909 305.092 136.592 305.497 137.456C305.913 138.309 306.121 139.259 306.121 140.304C306.121 141.456 305.892 142.459 305.433 143.312C304.985 144.165 304.345 144.827 303.513 145.296C302.681 145.765 301.705 146 300.585 146H296.553ZM304.297 140.304C304.297 139.504 304.148 138.8 303.849 138.192C303.561 137.573 303.14 137.093 302.585 136.752C302.041 136.4 301.375 136.224 300.585 136.224H298.345V144.416H300.585C301.385 144.416 302.057 144.235 302.601 143.872C303.156 143.509 303.577 143.019 303.865 142.4C304.153 141.781 304.297 141.083 304.297 140.304Z" fill="black"/>
<rect x="379.5" y="112.5" width="58" height="57" rx="7.5" fill="white" stroke="black"/>
<path d="M407.219 137.312C407.112 137.195 406.957 137.072 406.755 136.944C406.552 136.805 406.312 136.677 406.035 136.56C405.757 136.443 405.459 136.347 405.139 136.272C404.819 136.197 404.488 136.16 404.147 136.16C403.4 136.16 402.845 136.299 402.483 136.576C402.12 136.853 401.939 137.237 401.939 137.728C401.939 138.091 402.04 138.379 402.243 138.592C402.445 138.795 402.755 138.965 403.171 139.104C403.587 139.243 404.109 139.392 404.739 139.552C405.507 139.733 406.173 139.952 406.739 140.208C407.304 140.453 407.736 140.784 408.035 141.2C408.333 141.616 408.483 142.165 408.483 142.848C408.483 143.424 408.376 143.92 408.163 144.336C407.949 144.752 407.651 145.093 407.267 145.36C406.883 145.616 406.44 145.808 405.939 145.936C405.437 146.053 404.899 146.112 404.323 146.112C403.757 146.112 403.192 146.053 402.627 145.936C402.072 145.819 401.539 145.648 401.027 145.424C400.525 145.189 400.061 144.907 399.635 144.576L400.451 143.04C400.589 143.179 400.787 143.333 401.043 143.504C401.309 143.664 401.613 143.819 401.955 143.968C402.307 144.117 402.685 144.245 403.091 144.352C403.507 144.448 403.928 144.496 404.355 144.496C405.069 144.496 405.613 144.373 405.987 144.128C406.371 143.872 406.563 143.509 406.563 143.04C406.563 142.656 406.44 142.352 406.195 142.128C405.949 141.893 405.592 141.696 405.123 141.536C404.653 141.376 404.093 141.216 403.443 141.056C402.696 140.853 402.072 140.635 401.571 140.4C401.069 140.155 400.691 139.845 400.435 139.472C400.189 139.088 400.067 138.603 400.067 138.016C400.067 137.269 400.248 136.64 400.611 136.128C400.973 135.605 401.464 135.216 402.083 134.96C402.712 134.693 403.416 134.56 404.195 134.56C404.707 134.56 405.192 134.619 405.651 134.736C406.109 134.843 406.536 134.992 406.931 135.184C407.336 135.376 407.704 135.595 408.035 135.84L407.219 137.312ZM409.64 146C409.64 145.552 409.677 145.141 409.752 144.768C409.827 144.384 409.955 144.021 410.136 143.68C410.328 143.339 410.589 143.019 410.92 142.72C411.261 142.411 411.693 142.117 412.216 141.84C412.589 141.627 412.941 141.44 413.272 141.28C413.603 141.109 413.896 140.944 414.152 140.784C414.408 140.613 414.605 140.432 414.744 140.24C414.893 140.048 414.968 139.829 414.968 139.584C414.968 139.349 414.904 139.131 414.776 138.928C414.648 138.725 414.456 138.565 414.2 138.448C413.944 138.32 413.635 138.256 413.272 138.256C412.984 138.256 412.717 138.293 412.472 138.368C412.237 138.443 412.019 138.544 411.816 138.672C411.624 138.789 411.448 138.923 411.288 139.072C411.128 139.211 410.989 139.349 410.872 139.488L409.768 138.224C409.875 138.096 410.04 137.952 410.264 137.792C410.499 137.621 410.776 137.456 411.096 137.296C411.427 137.125 411.8 136.987 412.216 136.88C412.632 136.763 413.085 136.704 413.576 136.704C414.269 136.704 414.861 136.821 415.352 137.056C415.843 137.28 416.216 137.595 416.472 138C416.739 138.395 416.872 138.843 416.872 139.344C416.872 139.739 416.792 140.085 416.632 140.384C416.483 140.683 416.285 140.949 416.04 141.184C415.795 141.408 415.533 141.605 415.256 141.776C414.989 141.936 414.739 142.08 414.504 142.208C414.088 142.411 413.725 142.597 413.416 142.768C413.117 142.939 412.861 143.109 412.648 143.28C412.435 143.44 412.259 143.611 412.12 143.792C411.981 143.963 411.864 144.171 411.768 144.416H417.048V146H409.64Z" fill="black"/>
<rect x="513.5" y="159.5" width="58" height="57" rx="7.5" fill="white" stroke="black"/>
<path d="M537.553 193V181.64H541.585C542.812 181.64 543.836 181.896 544.657 182.408C545.479 182.909 546.092 183.592 546.497 184.456C546.913 185.309 547.121 186.259 547.121 187.304C547.121 188.456 546.892 189.459 546.433 190.312C545.985 191.165 545.345 191.827 544.513 192.296C543.681 192.765 542.705 193 541.585 193H537.553ZM545.297 187.304C545.297 186.504 545.148 185.8 544.849 185.192C544.561 184.573 544.14 184.093 543.585 183.752C543.041 183.4 542.375 183.224 541.585 183.224H539.345V191.416H541.585C542.385 191.416 543.057 191.235 543.601 190.872C544.156 190.509 544.577 190.019 544.865 189.4C545.153 188.781 545.297 188.083 545.297 187.304Z" fill="black"/>
<rect x="665.5" y="41.5" width="58" height="57" rx="7.5" fill="white" stroke="black"/>
<path d="M693.094 66.312C692.987 66.1947 692.832 66.072 692.63 65.944C692.427 65.8053 692.187 65.6773 691.91 65.56C691.632 65.4427 691.334 65.3467 691.014 65.272C690.694 65.1973 690.363 65.16 690.022 65.16C689.275 65.16 688.72 65.2987 688.358 65.576C687.995 65.8533 687.814 66.2373 687.814 66.728C687.814 67.0907 687.915 67.3787 688.118 67.592C688.32 67.7947 688.63 67.9653 689.046 68.104C689.462 68.2427 689.984 68.392 690.614 68.552C691.382 68.7333 692.048 68.952 692.614 69.208C693.179 69.4533 693.611 69.784 693.91 70.2C694.208 70.616 694.358 71.1653 694.358 71.848C694.358 72.424 694.251 72.92 694.038 73.336C693.824 73.752 693.526 74.0933 693.142 74.36C692.758 74.616 692.315 74.808 691.814 74.936C691.312 75.0533 690.774 75.112 690.198 75.112C689.632 75.112 689.067 75.0533 688.502 74.936C687.947 74.8187 687.414 74.648 686.902 74.424C686.4 74.1893 685.936 73.9067 685.51 73.576L686.326 72.04C686.464 72.1787 686.662 72.3333 686.918 72.504C687.184 72.664 687.488 72.8187 687.83 72.968C688.182 73.1173 688.56 73.2453 688.966 73.352C689.382 73.448 689.803 73.496 690.23 73.496C690.944 73.496 691.488 73.3733 691.862 73.128C692.246 72.872 692.438 72.5093 692.438 72.04C692.438 71.656 692.315 71.352 692.07 71.128C691.824 70.8933 691.467 70.696 690.998 70.536C690.528 70.376 689.968 70.216 689.318 70.056C688.571 69.8533 687.947 69.6347 687.446 69.4C686.944 69.1547 686.566 68.8453 686.31 68.472C686.064 68.088 685.942 67.6027 685.942 67.016C685.942 66.2693 686.123 65.64 686.486 65.128C686.848 64.6053 687.339 64.216 687.958 63.96C688.587 63.6933 689.291 63.56 690.07 63.56C690.582 63.56 691.067 63.6187 691.526 63.736C691.984 63.8427 692.411 63.992 692.806 64.184C693.211 64.376 693.579 64.5947 693.91 64.84L693.094 66.312ZM700.139 77.032V74.488H695.227V72.92L700.699 65.864H701.899V72.888H703.307V74.488H701.899V77.032H700.139ZM697.019 72.888H700.331V68.552L697.019 72.888Z" fill="black"/>
<rect x="513.5" y="41.5" width="58" height="57" rx="7.5" fill="white" stroke="black"/>
<path d="M541.242 66.312C541.136 66.1947 540.981 66.072 540.778 65.944C540.576 65.8053 540.336 65.6773 540.058 65.56C539.781 65.4427 539.482 65.3467 539.162 65.272C538.842 65.1973 538.512 65.16 538.17 65.16C537.424 65.16 536.869 65.2987 536.506 65.576C536.144 65.8533 535.962 66.2373 535.962 66.728C535.962 67.0907 536.064 67.3787 536.266 67.592C536.469 67.7947 536.778 67.9653 537.194 68.104C537.61 68.2427 538.133 68.392 538.762 68.552C539.53 68.7333 540.197 68.952 540.762 69.208C541.328 69.4533 541.76 69.784 542.058 70.2C542.357 70.616 542.506 71.1653 542.506 71.848C542.506 72.424 542.4 72.92 542.186 73.336C541.973 73.752 541.674 74.0933 541.29 74.36C540.906 74.616 540.464 74.808 539.962 74.936C539.461 75.0533 538.922 75.112 538.346 75.112C537.781 75.112 537.216 75.0533 536.65 74.936C536.096 74.8187 535.562 74.648 535.05 74.424C534.549 74.1893 534.085 73.9067 533.658 73.576L534.474 72.04C534.613 72.1787 534.81 72.3333 535.066 72.504C535.333 72.664 535.637 72.8187 535.978 72.968C536.33 73.1173 536.709 73.2453 537.114 73.352C537.53 73.448 537.952 73.496 538.378 73.496C539.093 73.496 539.637 73.3733 540.01 73.128C540.394 72.872 540.586 72.5093 540.586 72.04C540.586 71.656 540.464 71.352 540.218 71.128C539.973 70.8933 539.616 70.696 539.146 70.536C538.677 70.376 538.117 70.216 537.466 70.056C536.72 69.8533 536.096 69.6347 535.594 69.4C535.093 69.1547 534.714 68.8453 534.458 68.472C534.213 68.088 534.09 67.6027 534.09 67.016C534.09 66.2693 534.272 65.64 534.634 65.128C534.997 64.6053 535.488 64.216 536.106 63.96C536.736 63.6933 537.44 63.56 538.218 63.56C538.73 63.56 539.216 63.6187 539.674 63.736C540.133 63.8427 540.56 63.992 540.954 64.184C541.36 64.376 541.728 64.5947 542.058 64.84L541.242 66.312ZM548.881 71.224C549.329 71.2987 549.718 71.4693 550.049 71.736C550.39 71.992 550.651 72.3227 550.833 72.728C551.014 73.1227 551.105 73.5707 551.105 74.072C551.105 74.7333 550.939 75.3093 550.609 75.8C550.289 76.2907 549.83 76.6693 549.233 76.936C548.635 77.2133 547.931 77.352 547.121 77.352C546.31 77.352 545.595 77.208 544.977 76.92C544.358 76.6427 543.862 76.2373 543.489 75.704L544.561 74.488C544.817 74.872 545.147 75.176 545.553 75.4C545.958 75.6347 546.47 75.752 547.089 75.752C547.782 75.752 548.321 75.6027 548.705 75.304C549.089 75.0053 549.281 74.5573 549.281 73.96C549.281 73.3413 549.067 72.856 548.641 72.504C548.225 72.152 547.595 71.976 546.753 71.976H546.321V70.6H546.801C547.515 70.6 548.065 70.4347 548.449 70.104C548.833 69.7627 549.025 69.336 549.025 68.824C549.025 68.4827 548.945 68.2053 548.785 67.992C548.635 67.768 548.422 67.6027 548.145 67.496C547.867 67.3893 547.547 67.336 547.185 67.336C546.641 67.336 546.161 67.4533 545.745 67.688C545.329 67.9227 544.998 68.2587 544.753 68.696L543.649 67.496C543.862 67.1547 544.155 66.856 544.529 66.6C544.902 66.344 545.329 66.1467 545.809 66.008C546.299 65.8587 546.817 65.784 547.361 65.784C548.065 65.784 548.683 65.9013 549.217 66.136C549.75 66.3707 550.161 66.7013 550.449 67.128C550.747 67.5547 550.897 68.056 550.897 68.632C550.897 69.048 550.817 69.4427 550.657 69.816C550.497 70.1787 550.262 70.488 549.953 70.744C549.643 70.9893 549.286 71.1493 548.881 71.224Z" fill="black"/>
<rect x="138.5" y="41.5" width="58" height="57" rx="7.5" fill="white" stroke="black"/>
<path d="M166.344 66.312C166.237 66.1947 166.082 66.072 165.88 65.944C165.677 65.8053 165.437 65.6773 165.16 65.56C164.882 65.4427 164.584 65.3467 164.264 65.272C163.944 65.1973 163.613 65.16 163.272 65.16C162.525 65.16 161.97 65.2987 161.608 65.576C161.245 65.8533 161.064 66.2373 161.064 66.728C161.064 67.0907 161.165 67.3787 161.368 67.592C161.57 67.7947 161.88 67.9653 162.296 68.104C162.712 68.2427 163.234 68.392 163.864 68.552C164.632 68.7333 165.298 68.952 165.864 69.208C166.429 69.4533 166.861 69.784 167.16 70.2C167.458 70.616 167.608 71.1653 167.608 71.848C167.608 72.424 167.501 72.92 167.288 73.336C167.074 73.752 166.776 74.0933 166.392 74.36C166.008 74.616 165.565 74.808 165.064 74.936C164.562 75.0533 164.024 75.112 163.448 75.112C162.882 75.112 162.317 75.0533 161.752 74.936C161.197 74.8187 160.664 74.648 160.152 74.424C159.65 74.1893 159.186 73.9067 158.76 73.576L159.576 72.04C159.714 72.1787 159.912 72.3333 160.168 72.504C160.434 72.664 160.738 72.8187 161.08 72.968C161.432 73.1173 161.81 73.2453 162.216 73.352C162.632 73.448 163.053 73.496 163.48 73.496C164.194 73.496 164.738 73.3733 165.112 73.128C165.496 72.872 165.688 72.5093 165.688 72.04C165.688 71.656 165.565 71.352 165.32 71.128C165.074 70.8933 164.717 70.696 164.248 70.536C163.778 70.376 163.218 70.216 162.568 70.056C161.821 69.8533 161.197 69.6347 160.696 69.4C160.194 69.1547 159.816 68.8453 159.56 68.472C159.314 68.088 159.192 67.6027 159.192 67.016C159.192 66.2693 159.373 65.64 159.736 65.128C160.098 64.6053 160.589 64.216 161.208 63.96C161.837 63.6933 162.541 63.56 163.32 63.56C163.832 63.56 164.317 63.6187 164.776 63.736C165.234 63.8427 165.661 63.992 166.056 64.184C166.461 64.376 166.829 64.5947 167.16 64.84L166.344 66.312ZM175.277 73.416V75H169.165V73.416H171.437V67.832C171.341 67.96 171.192 68.0933 170.989 68.232C170.786 68.3707 170.557 68.504 170.301 68.632C170.056 68.7493 169.805 68.8453 169.549 68.92C169.293 68.9947 169.058 69.032 168.845 69.032V67.384C169.058 67.384 169.304 67.32 169.581 67.192C169.858 67.064 170.13 66.9147 170.397 66.744C170.674 66.5627 170.909 66.392 171.101 66.232C171.293 66.0613 171.405 65.9387 171.437 65.864H173.245V73.416H175.277Z" fill="black"/>
<path d="M449.027 311.624C449.027 313.501 448.675 315.176 447.971 316.648C447.288 318.099 446.339 319.24 445.123 320.072C443.907 320.904 442.531 321.32 440.995 321.32C439.459 321.32 438.083 320.904 436.867 320.072C435.672 319.24 434.723 318.099 434.019 316.648C433.315 315.176 432.963 313.501 432.963 311.624C432.963 309.747 433.315 308.083 434.019 306.632C434.723 305.16 435.672 304.008 436.867 303.176C438.083 302.323 439.459 301.896 440.995 301.896C442.531 301.896 443.907 302.323 445.123 303.176C446.339 304.008 447.288 305.16 447.971 306.632C448.675 308.083 449.027 309.747 449.027 311.624ZM446.819 311.624C446.819 310.109 446.574 308.776 446.083 307.624C445.592 306.472 444.91 305.576 444.035 304.936C443.16 304.275 442.147 303.944 440.995 303.944C439.843 303.944 438.83 304.275 437.955 304.936C437.08 305.576 436.387 306.472 435.875 307.624C435.384 308.776 435.139 310.109 435.139 311.624C435.139 313.139 435.384 314.472 435.875 315.624C436.387 316.776 437.08 317.672 437.955 318.312C438.83 318.952 439.843 319.272 440.995 319.272C442.147 319.272 443.16 318.952 444.035 318.312C444.91 317.651 445.592 316.755 446.083 315.624C446.574 314.472 446.819 313.139 446.819 311.624Z" fill="black"/>
<path d="M362.027 440.624C362.027 442.501 361.675 444.176 360.971 445.648C360.288 447.099 359.339 448.24 358.123 449.072C356.907 449.904 355.531 450.32 353.995 450.32C352.459 450.32 351.083 449.904 349.867 449.072C348.672 448.24 347.723 447.099 347.019 445.648C346.315 444.176 345.963 442.501 345.963 440.624C345.963 438.747 346.315 437.083 347.019 435.632C347.723 434.16 348.672 433.008 349.867 432.176C351.083 431.323 352.459 430.896 353.995 430.896C355.531 430.896 356.907 431.323 358.123 432.176C359.339 433.008 360.288 434.16 360.971 435.632C361.675 437.083 362.027 438.747 362.027 440.624ZM359.819 440.624C359.819 439.109 359.574 437.776 359.083 436.624C358.592 435.472 357.91 434.576 357.035 433.936C356.16 433.275 355.147 432.944 353.995 432.944C352.843 432.944 351.83 433.275 350.955 433.936C350.08 434.576 349.387 435.472 348.875 436.624C348.384 437.776 348.139 439.109 348.139 440.624C348.139 442.139 348.384 443.472 348.875 444.624C349.387 445.776 350.08 446.672 350.955 447.312C351.83 447.952 352.843 448.272 353.995 448.272C355.147 448.272 356.16 447.952 357.035 447.312C357.91 446.651 358.592 445.755 359.083 444.624C359.574 443.472 359.819 442.139 359.819 440.624Z" fill="black"/>
<path d="M362.027 569.624C362.027 571.501 361.675 573.176 360.971 574.648C360.288 576.099 359.339 577.24 358.123 578.072C356.907 578.904 355.531 579.32 353.995 579.32C352.459 579.32 351.083 578.904 349.867 578.072C348.672 577.24 347.723 576.099 347.019 574.648C346.315 573.176 345.963 571.501 345.963 569.624C345.963 567.747 346.315 566.083 347.019 564.632C347.723 563.16 348.672 562.008 349.867 561.176C351.083 560.323 352.459 559.896 353.995 559.896C355.531 559.896 356.907 560.323 358.123 561.176C359.339 562.008 360.288 563.16 360.971 564.632C361.675 566.083 362.027 567.747 362.027 569.624ZM359.819 569.624C359.819 568.109 359.574 566.776 359.083 565.624C358.592 564.472 357.91 563.576 357.035 562.936C356.16 562.275 355.147 561.944 353.995 561.944C352.843 561.944 351.83 562.275 350.955 562.936C350.08 563.576 349.387 564.472 348.875 565.624C348.384 566.776 348.139 568.109 348.139 569.624C348.139 571.139 348.384 572.472 348.875 573.624C349.387 574.776 350.08 575.672 350.955 576.312C351.83 576.952 352.843 577.272 353.995 577.272C355.147 577.272 356.16 576.952 357.035 576.312C357.91 575.651 358.592 574.755 359.083 573.624C359.574 572.472 359.819 571.139 359.819 569.624Z" fill="black"/>
<path d="M362.027 698.624C362.027 700.501 361.675 702.176 360.971 703.648C360.288 705.099 359.339 706.24 358.123 707.072C356.907 707.904 355.531 708.32 353.995 708.32C352.459 708.32 351.083 707.904 349.867 707.072C348.672 706.24 347.723 705.099 347.019 703.648C346.315 702.176 345.963 700.501 345.963 698.624C345.963 696.747 346.315 695.083 347.019 693.632C347.723 692.16 348.672 691.008 349.867 690.176C351.083 689.323 352.459 688.896 353.995 688.896C355.531 688.896 356.907 689.323 358.123 690.176C359.339 691.008 360.288 692.16 360.971 693.632C361.675 695.083 362.027 696.747 362.027 698.624ZM359.819 698.624C359.819 697.109 359.574 695.776 359.083 694.624C358.592 693.472 357.91 692.576 357.035 691.936C356.16 691.275 355.147 690.944 353.995 690.944C352.843 690.944 351.83 691.275 350.955 691.936C350.08 692.576 349.387 693.472 348.875 694.624C348.384 695.776 348.139 697.109 348.139 698.624C348.139 700.139 348.384 701.472 348.875 702.624C349.387 703.776 350.08 704.672 350.955 705.312C351.83 705.952 352.843 706.272 353.995 706.272C355.147 706.272 356.16 705.952 357.035 705.312C357.91 704.651 358.592 703.755 359.083 702.624C359.574 701.472 359.819 700.139 359.819 698.624Z" fill="black"/>
<path d="M362.027 827.624C362.027 829.501 361.675 831.176 360.971 832.648C360.288 834.099 359.339 835.24 358.123 836.072C356.907 836.904 355.531 837.32 353.995 837.32C352.459 837.32 351.083 836.904 349.867 836.072C348.672 835.24 347.723 834.099 347.019 832.648C346.315 831.176 345.963 829.501 345.963 827.624C345.963 825.747 346.315 824.083 347.019 822.632C347.723 821.16 348.672 820.008 349.867 819.176C351.083 818.323 352.459 817.896 353.995 817.896C355.531 817.896 356.907 818.323 358.123 819.176C359.339 820.008 360.288 821.16 360.971 822.632C361.675 824.083 362.027 825.747 362.027 827.624ZM359.819 827.624C359.819 826.109 359.574 824.776 359.083 823.624C358.592 822.472 357.91 821.576 357.035 820.936C356.16 820.275 355.147 819.944 353.995 819.944C352.843 819.944 351.83 820.275 350.955 820.936C350.08 821.576 349.387 822.472 348.875 823.624C348.384 824.776 348.139 826.109 348.139 827.624C348.139 829.139 348.384 830.472 348.875 831.624C349.387 832.776 350.08 833.672 350.955 834.312C351.83 834.952 352.843 835.272 353.995 835.272C355.147 835.272 356.16 834.952 357.035 834.312C357.91 833.651 358.592 832.755 359.083 831.624C359.574 830.472 359.819 829.139 359.819 827.624Z" fill="black"/>
<path d="M535.148 319.016V321H524.3V319.016H528.844V305.32C528.674 305.576 528.386 305.853 527.98 306.152C527.575 306.451 527.106 306.728 526.572 306.984C526.06 307.24 525.548 307.453 525.036 307.624C524.524 307.795 524.055 307.88 523.628 307.88V305.768C524.119 305.768 524.652 305.629 525.228 305.352C525.804 305.075 526.359 304.755 526.892 304.392C527.426 304.029 527.874 303.688 528.236 303.368C528.599 303.048 528.802 302.835 528.844 302.728H531.084V319.016H535.148Z" fill="black"/>
<path d="M535.148 448.016V450H524.3V448.016H528.844V434.32C528.674 434.576 528.386 434.853 527.98 435.152C527.575 435.451 527.106 435.728 526.572 435.984C526.06 436.24 525.548 436.453 525.036 436.624C524.524 436.795 524.055 436.88 523.628 436.88V434.768C524.119 434.768 524.652 434.629 525.228 434.352C525.804 434.075 526.359 433.755 526.892 433.392C527.426 433.029 527.874 432.688 528.236 432.368C528.599 432.048 528.802 431.835 528.844 431.728H531.084V448.016H535.148Z" fill="black"/>
<path d="M535.148 577.016V579H524.3V577.016H528.844V563.32C528.674 563.576 528.386 563.853 527.98 564.152C527.575 564.451 527.106 564.728 526.572 564.984C526.06 565.24 525.548 565.453 525.036 565.624C524.524 565.795 524.055 565.88 523.628 565.88V563.768C524.119 563.768 524.652 563.629 525.228 563.352C525.804 563.075 526.359 562.755 526.892 562.392C527.426 562.029 527.874 561.688 528.236 561.368C528.599 561.048 528.802 560.835 528.844 560.728H531.084V577.016H535.148Z" fill="black"/>
<path d="M535.148 706.016V708H524.3V706.016H528.844V692.32C528.674 692.576 528.386 692.853 527.98 693.152C527.575 693.451 527.106 693.728 526.572 693.984C526.06 694.24 525.548 694.453 525.036 694.624C524.524 694.795 524.055 694.88 523.628 694.88V692.768C524.119 692.768 524.652 692.629 525.228 692.352C525.804 692.075 526.359 691.755 526.892 691.392C527.426 691.029 527.874 690.688 528.236 690.368C528.599 690.048 528.802 689.835 528.844 689.728H531.084V706.016H535.148Z" fill="black"/>
<path d="M447.148 834.016V836H436.3V834.016H440.844V820.32C440.674 820.576 440.386 820.853 439.98 821.152C439.575 821.451 439.106 821.728 438.572 821.984C438.06 822.24 437.548 822.453 437.036 822.624C436.524 822.795 436.055 822.88 435.628 822.88V820.768C436.119 820.768 436.652 820.629 437.228 820.352C437.804 820.075 438.359 819.755 438.892 819.392C439.426 819.029 439.874 818.688 440.236 818.368C440.599 818.048 440.802 817.835 440.844 817.728H443.084V834.016H447.148Z" fill="black"/>
<path d="M609.564 321C609.564 320.275 609.628 319.549 609.756 318.824C609.884 318.077 610.13 317.341 610.492 316.616C610.855 315.891 611.388 315.197 612.092 314.536C612.796 313.853 613.724 313.213 614.876 312.616C615.495 312.296 616.135 311.987 616.796 311.688C617.458 311.368 618.076 311.027 618.652 310.664C619.25 310.28 619.719 309.853 620.06 309.384C620.423 308.893 620.604 308.317 620.604 307.656C620.604 307.123 620.444 306.6 620.124 306.088C619.826 305.576 619.356 305.16 618.716 304.84C618.098 304.52 617.319 304.36 616.38 304.36C615.698 304.36 615.079 304.456 614.524 304.648C613.97 304.84 613.479 305.085 613.052 305.384C612.626 305.661 612.263 305.949 611.964 306.248C611.666 306.525 611.42 306.76 611.228 306.952L609.852 305.448C609.959 305.32 610.194 305.096 610.556 304.776C610.94 304.435 611.42 304.083 611.996 303.72C612.594 303.357 613.287 303.048 614.076 302.792C614.887 302.536 615.772 302.408 616.732 302.408C618.034 302.408 619.143 302.643 620.06 303.112C620.999 303.56 621.714 304.168 622.204 304.936C622.695 305.704 622.94 306.536 622.94 307.432C622.94 308.307 622.748 309.064 622.364 309.704C622.002 310.323 621.522 310.867 620.924 311.336C620.348 311.784 619.74 312.179 619.1 312.52C618.482 312.84 617.916 313.117 617.404 313.352C616.402 313.821 615.559 314.291 614.876 314.76C614.194 315.229 613.65 315.709 613.244 316.2C612.839 316.669 612.519 317.139 612.284 317.608C612.071 318.056 611.922 318.525 611.836 319.016H623.292V321H609.564Z" fill="black"/>
<path d="M434.564 450C434.564 449.275 434.628 448.549 434.756 447.824C434.884 447.077 435.13 446.341 435.492 445.616C435.855 444.891 436.388 444.197 437.092 443.536C437.796 442.853 438.724 442.213 439.876 441.616C440.495 441.296 441.135 440.987 441.796 440.688C442.458 440.368 443.076 440.027 443.652 439.664C444.25 439.28 444.719 438.853 445.06 438.384C445.423 437.893 445.604 437.317 445.604 436.656C445.604 436.123 445.444 435.6 445.124 435.088C444.826 434.576 444.356 434.16 443.716 433.84C443.098 433.52 442.319 433.36 441.38 433.36C440.698 433.36 440.079 433.456 439.524 433.648C438.97 433.84 438.479 434.085 438.052 434.384C437.626 434.661 437.263 434.949 436.964 435.248C436.666 435.525 436.42 435.76 436.228 435.952L434.852 434.448C434.959 434.32 435.194 434.096 435.556 433.776C435.94 433.435 436.42 433.083 436.996 432.72C437.594 432.357 438.287 432.048 439.076 431.792C439.887 431.536 440.772 431.408 441.732 431.408C443.034 431.408 444.143 431.643 445.06 432.112C445.999 432.56 446.714 433.168 447.204 433.936C447.695 434.704 447.94 435.536 447.94 436.432C447.94 437.307 447.748 438.064 447.364 438.704C447.002 439.323 446.522 439.867 445.924 440.336C445.348 440.784 444.74 441.179 444.1 441.52C443.482 441.84 442.916 442.117 442.404 442.352C441.402 442.821 440.559 443.291 439.876 443.76C439.194 444.229 438.65 444.709 438.244 445.2C437.839 445.669 437.519 446.139 437.284 446.608C437.071 447.056 436.922 447.525 436.836 448.016H448.292V450H434.564Z" fill="black"/>
<path d="M258.564 579C258.564 578.275 258.628 577.549 258.756 576.824C258.884 576.077 259.13 575.341 259.492 574.616C259.855 573.891 260.388 573.197 261.092 572.536C261.796 571.853 262.724 571.213 263.876 570.616C264.495 570.296 265.135 569.987 265.796 569.688C266.458 569.368 267.076 569.027 267.652 568.664C268.25 568.28 268.719 567.853 269.06 567.384C269.423 566.893 269.604 566.317 269.604 565.656C269.604 565.123 269.444 564.6 269.124 564.088C268.826 563.576 268.356 563.16 267.716 562.84C267.098 562.52 266.319 562.36 265.38 562.36C264.698 562.36 264.079 562.456 263.524 562.648C262.97 562.84 262.479 563.085 262.052 563.384C261.626 563.661 261.263 563.949 260.964 564.248C260.666 564.525 260.42 564.76 260.228 564.952L258.852 563.448C258.959 563.32 259.194 563.096 259.556 562.776C259.94 562.435 260.42 562.083 260.996 561.72C261.594 561.357 262.287 561.048 263.076 560.792C263.887 560.536 264.772 560.408 265.732 560.408C267.034 560.408 268.143 560.643 269.06 561.112C269.999 561.56 270.714 562.168 271.204 562.936C271.695 563.704 271.94 564.536 271.94 565.432C271.94 566.307 271.748 567.064 271.364 567.704C271.002 568.323 270.522 568.867 269.924 569.336C269.348 569.784 268.74 570.179 268.1 570.52C267.482 570.84 266.916 571.117 266.404 571.352C265.402 571.821 264.559 572.291 263.876 572.76C263.194 573.229 262.65 573.709 262.244 574.2C261.839 574.669 261.519 575.139 261.284 575.608C261.071 576.056 260.922 576.525 260.836 577.016H272.292V579H258.564Z" fill="black"/>
<path d="M166.564 707C166.564 706.275 166.628 705.549 166.756 704.824C166.884 704.077 167.13 703.341 167.492 702.616C167.855 701.891 168.388 701.197 169.092 700.536C169.796 699.853 170.724 699.213 171.876 698.616C172.495 698.296 173.135 697.987 173.796 697.688C174.458 697.368 175.076 697.027 175.652 696.664C176.25 696.28 176.719 695.853 177.06 695.384C177.423 694.893 177.604 694.317 177.604 693.656C177.604 693.123 177.444 692.6 177.124 692.088C176.826 691.576 176.356 691.16 175.716 690.84C175.098 690.52 174.319 690.36 173.38 690.36C172.698 690.36 172.079 690.456 171.524 690.648C170.97 690.84 170.479 691.085 170.052 691.384C169.626 691.661 169.263 691.949 168.964 692.248C168.666 692.525 168.42 692.76 168.228 692.952L166.852 691.448C166.959 691.32 167.194 691.096 167.556 690.776C167.94 690.435 168.42 690.083 168.996 689.72C169.594 689.357 170.287 689.048 171.076 688.792C171.887 688.536 172.772 688.408 173.732 688.408C175.034 688.408 176.143 688.643 177.06 689.112C177.999 689.56 178.714 690.168 179.204 690.936C179.695 691.704 179.94 692.536 179.94 693.432C179.94 694.307 179.748 695.064 179.364 695.704C179.002 696.323 178.522 696.867 177.924 697.336C177.348 697.784 176.74 698.179 176.1 698.52C175.482 698.84 174.916 699.117 174.404 699.352C173.402 699.821 172.559 700.291 171.876 700.76C171.194 701.229 170.65 701.709 170.244 702.2C169.839 702.669 169.519 703.139 169.284 703.608C169.071 704.056 168.922 704.525 168.836 705.016H180.292V707H166.564Z" fill="black"/>
<path d="M166.564 836C166.564 835.275 166.628 834.549 166.756 833.824C166.884 833.077 167.13 832.341 167.492 831.616C167.855 830.891 168.388 830.197 169.092 829.536C169.796 828.853 170.724 828.213 171.876 827.616C172.495 827.296 173.135 826.987 173.796 826.688C174.458 826.368 175.076 826.027 175.652 825.664C176.25 825.28 176.719 824.853 177.06 824.384C177.423 823.893 177.604 823.317 177.604 822.656C177.604 822.123 177.444 821.6 177.124 821.088C176.826 820.576 176.356 820.16 175.716 819.84C175.098 819.52 174.319 819.36 173.38 819.36C172.698 819.36 172.079 819.456 171.524 819.648C170.97 819.84 170.479 820.085 170.052 820.384C169.626 820.661 169.263 820.949 168.964 821.248C168.666 821.525 168.42 821.76 168.228 821.952L166.852 820.448C166.959 820.32 167.194 820.096 167.556 819.776C167.94 819.435 168.42 819.083 168.996 818.72C169.594 818.357 170.287 818.048 171.076 817.792C171.887 817.536 172.772 817.408 173.732 817.408C175.034 817.408 176.143 817.643 177.06 818.112C177.999 818.56 178.714 819.168 179.204 819.936C179.695 820.704 179.94 821.536 179.94 822.432C179.94 823.307 179.748 824.064 179.364 824.704C179.002 825.323 178.522 825.867 177.924 826.336C177.348 826.784 176.74 827.179 176.1 827.52C175.482 827.84 174.916 828.117 174.404 828.352C173.402 828.821 172.559 829.291 171.876 829.76C171.194 830.229 170.65 830.709 170.244 831.2C169.839 831.669 169.519 832.139 169.284 832.608C169.071 833.056 168.922 833.525 168.836 834.016H180.292V836H166.564Z" fill="black"/>
<path d="M705.429 313.448C706.389 313.597 707.21 313.939 707.893 314.472C708.576 315.005 709.109 315.677 709.493 316.488C709.877 317.299 710.069 318.216 710.069 319.24C710.069 320.52 709.76 321.651 709.141 322.632C708.522 323.613 707.658 324.371 706.549 324.904C705.44 325.437 704.149 325.704 702.677 325.704C701.056 325.704 699.637 325.373 698.421 324.712C697.205 324.072 696.288 323.176 695.669 322.024L697.173 320.648C697.642 321.565 698.336 322.301 699.253 322.856C700.17 323.432 701.312 323.72 702.677 323.72C704.256 323.72 705.504 323.325 706.421 322.536C707.36 321.768 707.829 320.659 707.829 319.208C707.829 317.757 707.338 316.605 706.357 315.752C705.397 314.877 704.021 314.44 702.229 314.44H701.429V312.584H702.293C703.936 312.584 705.194 312.2 706.069 311.432C706.944 310.664 707.381 309.683 707.381 308.488C707.381 307.613 707.178 306.888 706.773 306.312C706.368 305.736 705.813 305.299 705.109 305C704.426 304.701 703.637 304.552 702.741 304.552C701.525 304.552 700.448 304.829 699.509 305.384C698.592 305.917 697.898 306.664 697.429 307.624L696.021 306.28C696.384 305.533 696.906 304.883 697.589 304.328C698.272 303.773 699.072 303.347 699.989 303.048C700.906 302.728 701.888 302.568 702.933 302.568C704.256 302.568 705.418 302.813 706.421 303.304C707.424 303.773 708.213 304.435 708.789 305.288C709.365 306.141 709.653 307.144 709.653 308.296C709.653 309.149 709.482 309.939 709.141 310.664C708.8 311.389 708.309 311.997 707.669 312.488C707.05 312.979 706.304 313.299 705.429 313.448Z" fill="black"/>
<path d="M705.429 442.448C706.389 442.597 707.21 442.939 707.893 443.472C708.576 444.005 709.109 444.677 709.493 445.488C709.877 446.299 710.069 447.216 710.069 448.24C710.069 449.52 709.76 450.651 709.141 451.632C708.522 452.613 707.658 453.371 706.549 453.904C705.44 454.437 704.149 454.704 702.677 454.704C701.056 454.704 699.637 454.373 698.421 453.712C697.205 453.072 696.288 452.176 695.669 451.024L697.173 449.648C697.642 450.565 698.336 451.301 699.253 451.856C700.17 452.432 701.312 452.72 702.677 452.72C704.256 452.72 705.504 452.325 706.421 451.536C707.36 450.768 707.829 449.659 707.829 448.208C707.829 446.757 707.338 445.605 706.357 444.752C705.397 443.877 704.021 443.44 702.229 443.44H701.429V441.584H702.293C703.936 441.584 705.194 441.2 706.069 440.432C706.944 439.664 707.381 438.683 707.381 437.488C707.381 436.613 707.178 435.888 706.773 435.312C706.368 434.736 705.813 434.299 705.109 434C704.426 433.701 703.637 433.552 702.741 433.552C701.525 433.552 700.448 433.829 699.509 434.384C698.592 434.917 697.898 435.664 697.429 436.624L696.021 435.28C696.384 434.533 696.906 433.883 697.589 433.328C698.272 432.773 699.072 432.347 699.989 432.048C700.906 431.728 701.888 431.568 702.933 431.568C704.256 431.568 705.418 431.813 706.421 432.304C707.424 432.773 708.213 433.435 708.789 434.288C709.365 435.141 709.653 436.144 709.653 437.296C709.653 438.149 709.482 438.939 709.141 439.664C708.8 440.389 708.309 440.997 707.669 441.488C707.05 441.979 706.304 442.299 705.429 442.448Z" fill="black"/>
<path d="M619.429 571.448C620.389 571.597 621.21 571.939 621.893 572.472C622.576 573.005 623.109 573.677 623.493 574.488C623.877 575.299 624.069 576.216 624.069 577.24C624.069 578.52 623.76 579.651 623.141 580.632C622.522 581.613 621.658 582.371 620.549 582.904C619.44 583.437 618.149 583.704 616.677 583.704C615.056 583.704 613.637 583.373 612.421 582.712C611.205 582.072 610.288 581.176 609.669 580.024L611.173 578.648C611.642 579.565 612.336 580.301 613.253 580.856C614.17 581.432 615.312 581.72 616.677 581.72C618.256 581.72 619.504 581.325 620.421 580.536C621.36 579.768 621.829 578.659 621.829 577.208C621.829 575.757 621.338 574.605 620.357 573.752C619.397 572.877 618.021 572.44 616.229 572.44H615.429V570.584H616.293C617.936 570.584 619.194 570.2 620.069 569.432C620.944 568.664 621.381 567.683 621.381 566.488C621.381 565.613 621.178 564.888 620.773 564.312C620.368 563.736 619.813 563.299 619.109 563C618.426 562.701 617.637 562.552 616.741 562.552C615.525 562.552 614.448 562.829 613.509 563.384C612.592 563.917 611.898 564.664 611.429 565.624L610.021 564.28C610.384 563.533 610.906 562.883 611.589 562.328C612.272 561.773 613.072 561.347 613.989 561.048C614.906 560.728 615.888 560.568 616.933 560.568C618.256 560.568 619.418 560.813 620.421 561.304C621.424 561.773 622.213 562.435 622.789 563.288C623.365 564.141 623.653 565.144 623.653 566.296C623.653 567.149 623.482 567.939 623.141 568.664C622.8 569.389 622.309 569.997 621.669 570.488C621.05 570.979 620.304 571.299 619.429 571.448Z" fill="black"/>
<path d="M443.429 699.448C444.389 699.597 445.21 699.939 445.893 700.472C446.576 701.005 447.109 701.677 447.493 702.488C447.877 703.299 448.069 704.216 448.069 705.24C448.069 706.52 447.76 707.651 447.141 708.632C446.522 709.613 445.658 710.371 444.549 710.904C443.44 711.437 442.149 711.704 440.677 711.704C439.056 711.704 437.637 711.373 436.421 710.712C435.205 710.072 434.288 709.176 433.669 708.024L435.173 706.648C435.642 707.565 436.336 708.301 437.253 708.856C438.17 709.432 439.312 709.72 440.677 709.72C442.256 709.72 443.504 709.325 444.421 708.536C445.36 707.768 445.829 706.659 445.829 705.208C445.829 703.757 445.338 702.605 444.357 701.752C443.397 700.877 442.021 700.44 440.229 700.44H439.429V698.584H440.293C441.936 698.584 443.194 698.2 444.069 697.432C444.944 696.664 445.381 695.683 445.381 694.488C445.381 693.613 445.178 692.888 444.773 692.312C444.368 691.736 443.813 691.299 443.109 691C442.426 690.701 441.637 690.552 440.741 690.552C439.525 690.552 438.448 690.829 437.509 691.384C436.592 691.917 435.898 692.664 435.429 693.624L434.021 692.28C434.384 691.533 434.906 690.883 435.589 690.328C436.272 689.773 437.072 689.347 437.989 689.048C438.906 688.728 439.888 688.568 440.933 688.568C442.256 688.568 443.418 688.813 444.421 689.304C445.424 689.773 446.213 690.435 446.789 691.288C447.365 692.141 447.653 693.144 447.653 694.296C447.653 695.149 447.482 695.939 447.141 696.664C446.8 697.389 446.309 697.997 445.669 698.488C445.05 698.979 444.304 699.299 443.429 699.448Z" fill="black"/>
<path d="M268.429 829.448C269.389 829.597 270.21 829.939 270.893 830.472C271.576 831.005 272.109 831.677 272.493 832.488C272.877 833.299 273.069 834.216 273.069 835.24C273.069 836.52 272.76 837.651 272.141 838.632C271.522 839.613 270.658 840.371 269.549 840.904C268.44 841.437 267.149 841.704 265.677 841.704C264.056 841.704 262.637 841.373 261.421 840.712C260.205 840.072 259.288 839.176 258.669 838.024L260.173 836.648C260.642 837.565 261.336 838.301 262.253 838.856C263.17 839.432 264.312 839.72 265.677 839.72C267.256 839.72 268.504 839.325 269.421 838.536C270.36 837.768 270.829 836.659 270.829 835.208C270.829 833.757 270.338 832.605 269.357 831.752C268.397 830.877 267.021 830.44 265.229 830.44H264.429V828.584H265.293C266.936 828.584 268.194 828.2 269.069 827.432C269.944 826.664 270.381 825.683 270.381 824.488C270.381 823.613 270.178 822.888 269.773 822.312C269.368 821.736 268.813 821.299 268.109 821C267.426 820.701 266.637 820.552 265.741 820.552C264.525 820.552 263.448 820.829 262.509 821.384C261.592 821.917 260.898 822.664 260.429 823.624L259.021 822.28C259.384 821.533 259.906 820.883 260.589 820.328C261.272 819.773 262.072 819.347 262.989 819.048C263.906 818.728 264.888 818.568 265.933 818.568C267.256 818.568 268.418 818.813 269.421 819.304C270.424 819.773 271.213 820.435 271.789 821.288C272.365 822.141 272.653 823.144 272.653 824.296C272.653 825.149 272.482 825.939 272.141 826.664C271.8 827.389 271.309 827.997 270.669 828.488C270.05 828.979 269.304 829.299 268.429 829.448Z" fill="black"/>
<path d="M793.658 325.064V319.368H783.002V317.448L794.362 302.728H795.834V317.384H798.65V319.368H795.834V325.064H793.658ZM785.306 317.384H793.882V306.152L785.306 317.384Z" fill="black"/>
<path d="M618.658 454.064V448.368H608.002V446.448L619.362 431.728H620.834V446.384H623.65V448.368H620.834V454.064H618.658ZM610.306 446.384H618.882V435.152L610.306 446.384Z" fill="black"/>
<path d="M442.658 583.064V577.368H432.002V575.448L443.362 560.728H444.834V575.384H447.65V577.368H444.834V583.064H442.658ZM434.306 575.384H442.882V564.152L434.306 575.384Z" fill="black"/>
<path d="M268.658 711.064V705.368H258.002V703.448L269.362 688.728H270.834V703.384H273.65V705.368H270.834V711.064H268.658ZM260.306 703.384H268.882V692.152L260.306 703.384Z" fill="black"/>
<path d="M88.6576 840.064V834.368H78.0016V832.448L89.3616 817.728H90.8336V832.384H93.6496V834.368H90.8336V840.064H88.6576ZM80.3056 832.384H88.8816V821.152L80.3056 832.384Z" fill="black"/>
<line x1="549" y1="302" x2="597" y2="302" stroke="#D75E5E" stroke-width="2" stroke-linecap="round" stroke-dasharray="0.1 4"/>
<line x1="374" y1="434" x2="422" y2="434" stroke="#D75E5E" stroke-width="2" stroke-linecap="round" stroke-dasharray="0.1 4"/>
<line x1="374" y1="564" x2="422" y2="564" stroke="#D75E5E" stroke-width="2" stroke-linecap="round" stroke-dasharray="0.1 4"/>
<line x1="196" y1="691" x2="244" y2="691" stroke="#D75E5E" stroke-width="2" stroke-linecap="round" stroke-dasharray="0.1 4"/>
<line x1="196" y1="824" x2="244" y2="824" stroke="#D75E5E" stroke-width="2" stroke-linecap="round" stroke-dasharray="0.1 4"/>
<line x1="374" y1="824" x2="422" y2="824" stroke="#D75E5E" stroke-width="2" stroke-linecap="round" stroke-dasharray="0.1 4"/>
<line x1="374" y1="691" x2="422" y2="691" stroke="#D75E5E" stroke-width="2" stroke-linecap="round" stroke-dasharray="0.1 4"/>
<line x1="549" y1="564" x2="597" y2="564" stroke="#D75E5E" stroke-width="2" stroke-linecap="round" stroke-dasharray="0.1 4"/>
<line x1="549" y1="434" x2="597" y2="434" stroke="#D75E5E" stroke-width="2" stroke-linecap="round" stroke-dasharray="0.1 4"/>
<line x1="724" y1="302" x2="772" y2="302" stroke="#D75E5E" stroke-width="2" stroke-linecap="round" stroke-dasharray="0.1 4"/>
</svg>
