<?xml version="1.0" encoding="UTF-8" standalone="no"?>
<svg
   width="1187"
   height="628"
   viewBox="0 0 1187 628"
   fill="none"
   version="1.1"
   id="svg21482"
   sodipodi:docname="gadget-1-2-v2.svg"
   inkscape:version="1.2.2 (b0a84865, 2022-12-01)"
   xmlns:inkscape="http://www.inkscape.org/namespaces/inkscape"
   xmlns:sodipodi="http://sodipodi.sourceforge.net/DTD/sodipodi-0.dtd"
   xmlns="http://www.w3.org/2000/svg"
   xmlns:svg="http://www.w3.org/2000/svg">
  <defs
     id="defs21486" />
  <sodipodi:namedview
     id="namedview21484"
     pagecolor="#ffffff"
     bordercolor="#000000"
     borderopacity="0.25"
     inkscape:showpageshadow="2"
     inkscape:pageopacity="0.0"
     inkscape:pagecheckerboard="0"
     inkscape:deskcolor="#d1d1d1"
     showgrid="false"
     inkscape:zoom="0.50000001"
     inkscape:cx="551.99998"
     inkscape:cy="472.99999"
     inkscape:window-width="1512"
     inkscape:window-height="857"
     inkscape:window-x="0"
     inkscape:window-y="38"
     inkscape:window-maximized="0"
     inkscape:current-layer="svg21482" />
  <rect
     width="1187"
     height="628"
     fill="white"
     id="rect21358" />
  <rect
     x="32.5"
     y="428.5"
     width="1122"
     height="167"
     fill="#F6F3ED"
     stroke="#E0DBC8"
     id="rect21360" />
  <rect
     x="32.5"
     y="32.5"
     width="1122"
     height="339"
     fill="#F6F3ED"
     stroke="#E0DBC8"
     id="rect21362" />
  <rect
     x="274"
     y="157"
     width="639"
     height="138"
     rx="24"
     stroke="black"
     id="rect21364" />
  <path
     d="M1154.5 427.5L847.5 328.5H728L34 427.5H1154.5Z"
     fill="#F6F3ED"
     fill-opacity="0.5"
     id="path21366" />
  <path
     d="M 560.17391,315 32,428"
     stroke="#000000"
     id="path21370"
     style="stroke-width:0.923388" />
  <path
     d="M55 513H126.873C131.116 513 135.186 511.314 138.186 508.314L167.814 478.686C170.814 475.686 174.884 474 179.127 474H273.373C277.616 474 281.686 475.686 284.686 478.686L351.814 545.814C354.814 548.814 358.884 550.5 363.127 550.5H462.873C467.116 550.5 471.186 548.814 474.186 545.814L502.314 517.686C505.314 514.686 509.384 513 513.627 513H583.5"
     stroke="black"
     id="path21372" />
  <path
     d="M604 513H675.873C680.116 513 684.186 511.314 687.186 508.314L716.814 478.686C719.814 475.686 723.884 474 728.127 474H822.373C826.616 474 830.686 475.686 833.686 478.686L900.814 545.814C903.814 548.814 907.884 550.5 912.127 550.5H1011.87C1016.12 550.5 1020.19 548.814 1023.19 545.814L1051.31 517.686C1054.31 514.686 1058.38 513 1062.63 513H1132.5"
     stroke="black"
     id="path21374" />
  <path
     d="M133.5 512.5L167.814 546.814C170.814 549.814 174.884 551.5 179.127 551.5H273.373C277.616 551.5 281.686 549.814 284.686 546.814L351.814 479.686C354.814 476.686 358.884 475 363.127 475H462.873C467.116 475 471.186 476.686 474.186 479.686L507 512.5"
     stroke="black"
     id="path21376" />
  <path
     d="M682.5 512.5L716.814 546.814C719.814 549.814 723.884 551.5 728.127 551.5H822.373C826.616 551.5 830.686 549.814 833.686 546.814L900.814 479.686C903.814 476.686 907.884 475 912.127 475H1011.87C1016.12 475 1020.19 476.686 1023.19 479.686L1056 512.5"
     stroke="black"
     id="path21378" />
  <rect
     x="110.5"
     y="484.5"
     width="58"
     height="57"
     rx="7.5"
     fill="white"
     stroke="black"
     id="rect21380" />
  <path
     d="M138.344 509.312C138.237 509.195 138.082 509.072 137.88 508.944C137.677 508.805 137.437 508.677 137.16 508.56C136.882 508.443 136.584 508.347 136.264 508.272C135.944 508.197 135.613 508.16 135.272 508.16C134.525 508.16 133.97 508.299 133.608 508.576C133.245 508.853 133.064 509.237 133.064 509.728C133.064 510.091 133.165 510.379 133.368 510.592C133.57 510.795 133.88 510.965 134.296 511.104C134.712 511.243 135.234 511.392 135.864 511.552C136.632 511.733 137.298 511.952 137.864 512.208C138.429 512.453 138.861 512.784 139.16 513.2C139.458 513.616 139.608 514.165 139.608 514.848C139.608 515.424 139.501 515.92 139.288 516.336C139.074 516.752 138.776 517.093 138.392 517.36C138.008 517.616 137.565 517.808 137.064 517.936C136.562 518.053 136.024 518.112 135.448 518.112C134.882 518.112 134.317 518.053 133.752 517.936C133.197 517.819 132.664 517.648 132.152 517.424C131.65 517.189 131.186 516.907 130.76 516.576L131.576 515.04C131.714 515.179 131.912 515.333 132.168 515.504C132.434 515.664 132.738 515.819 133.08 515.968C133.432 516.117 133.81 516.245 134.216 516.352C134.632 516.448 135.053 516.496 135.48 516.496C136.194 516.496 136.738 516.373 137.112 516.128C137.496 515.872 137.688 515.509 137.688 515.04C137.688 514.656 137.565 514.352 137.32 514.128C137.074 513.893 136.717 513.696 136.248 513.536C135.778 513.376 135.218 513.216 134.568 513.056C133.821 512.853 133.197 512.635 132.696 512.4C132.194 512.155 131.816 511.845 131.56 511.472C131.314 511.088 131.192 510.603 131.192 510.016C131.192 509.269 131.373 508.64 131.736 508.128C132.098 507.605 132.589 507.216 133.208 506.96C133.837 506.693 134.541 506.56 135.32 506.56C135.832 506.56 136.317 506.619 136.776 506.736C137.234 506.843 137.661 506.992 138.056 507.184C138.461 507.376 138.829 507.595 139.16 507.84L138.344 509.312ZM147.277 516.416V518H141.165V516.416H143.437V510.832C143.341 510.96 143.192 511.093 142.989 511.232C142.786 511.371 142.557 511.504 142.301 511.632C142.056 511.749 141.805 511.845 141.549 511.92C141.293 511.995 141.058 512.032 140.845 512.032V510.384C141.058 510.384 141.304 510.32 141.581 510.192C141.858 510.064 142.13 509.915 142.397 509.744C142.674 509.563 142.909 509.392 143.101 509.232C143.293 509.061 143.405 508.939 143.437 508.864H145.245V516.416H147.277Z"
     fill="black"
     id="path21382" />
  <rect
     x="474.5"
     y="484.5"
     width="58"
     height="57"
     rx="7.5"
     fill="white"
     stroke="black"
     id="rect21384" />
  <path
     d="M502.219 509.312C502.112 509.195 501.957 509.072 501.755 508.944C501.552 508.805 501.312 508.677 501.035 508.56C500.757 508.443 500.459 508.347 500.139 508.272C499.819 508.197 499.488 508.16 499.147 508.16C498.4 508.16 497.845 508.299 497.483 508.576C497.12 508.853 496.939 509.237 496.939 509.728C496.939 510.091 497.04 510.379 497.243 510.592C497.445 510.795 497.755 510.965 498.171 511.104C498.587 511.243 499.109 511.392 499.739 511.552C500.507 511.733 501.173 511.952 501.739 512.208C502.304 512.453 502.736 512.784 503.035 513.2C503.333 513.616 503.483 514.165 503.483 514.848C503.483 515.424 503.376 515.92 503.163 516.336C502.949 516.752 502.651 517.093 502.267 517.36C501.883 517.616 501.44 517.808 500.939 517.936C500.437 518.053 499.899 518.112 499.323 518.112C498.757 518.112 498.192 518.053 497.627 517.936C497.072 517.819 496.539 517.648 496.027 517.424C495.525 517.189 495.061 516.907 494.635 516.576L495.451 515.04C495.589 515.179 495.787 515.333 496.043 515.504C496.309 515.664 496.613 515.819 496.955 515.968C497.307 516.117 497.685 516.245 498.091 516.352C498.507 516.448 498.928 516.496 499.355 516.496C500.069 516.496 500.613 516.373 500.987 516.128C501.371 515.872 501.563 515.509 501.563 515.04C501.563 514.656 501.44 514.352 501.195 514.128C500.949 513.893 500.592 513.696 500.123 513.536C499.653 513.376 499.093 513.216 498.443 513.056C497.696 512.853 497.072 512.635 496.571 512.4C496.069 512.155 495.691 511.845 495.435 511.472C495.189 511.088 495.067 510.603 495.067 510.016C495.067 509.269 495.248 508.64 495.611 508.128C495.973 507.605 496.464 507.216 497.083 506.96C497.712 506.693 498.416 506.56 499.195 506.56C499.707 506.56 500.192 506.619 500.651 506.736C501.109 506.843 501.536 506.992 501.931 507.184C502.336 507.376 502.704 507.595 503.035 507.84L502.219 509.312ZM504.64 518C504.64 517.552 504.677 517.141 504.752 516.768C504.827 516.384 504.955 516.021 505.136 515.68C505.328 515.339 505.589 515.019 505.92 514.72C506.261 514.411 506.693 514.117 507.216 513.84C507.589 513.627 507.941 513.44 508.272 513.28C508.603 513.109 508.896 512.944 509.152 512.784C509.408 512.613 509.605 512.432 509.744 512.24C509.893 512.048 509.968 511.829 509.968 511.584C509.968 511.349 509.904 511.131 509.776 510.928C509.648 510.725 509.456 510.565 509.2 510.448C508.944 510.32 508.635 510.256 508.272 510.256C507.984 510.256 507.717 510.293 507.472 510.368C507.237 510.443 507.019 510.544 506.816 510.672C506.624 510.789 506.448 510.923 506.288 511.072C506.128 511.211 505.989 511.349 505.872 511.488L504.768 510.224C504.875 510.096 505.04 509.952 505.264 509.792C505.499 509.621 505.776 509.456 506.096 509.296C506.427 509.125 506.8 508.987 507.216 508.88C507.632 508.763 508.085 508.704 508.576 508.704C509.269 508.704 509.861 508.821 510.352 509.056C510.843 509.28 511.216 509.595 511.472 510C511.739 510.395 511.872 510.843 511.872 511.344C511.872 511.739 511.792 512.085 511.632 512.384C511.483 512.683 511.285 512.949 511.04 513.184C510.795 513.408 510.533 513.605 510.256 513.776C509.989 513.936 509.739 514.08 509.504 514.208C509.088 514.411 508.725 514.597 508.416 514.768C508.117 514.939 507.861 515.109 507.648 515.28C507.435 515.44 507.259 515.611 507.12 515.792C506.981 515.963 506.864 516.171 506.768 516.416H512.048V518H504.64Z"
     fill="black"
     id="path21386" />
  <rect
     x="651.5"
     y="484.5"
     width="58"
     height="57"
     rx="7.5"
     fill="white"
     stroke="black"
     id="rect21388" />
  <path
     d="M679.242 509.312C679.136 509.195 678.981 509.072 678.778 508.944C678.576 508.805 678.336 508.677 678.058 508.56C677.781 508.443 677.482 508.347 677.162 508.272C676.842 508.197 676.512 508.16 676.17 508.16C675.424 508.16 674.869 508.299 674.506 508.576C674.144 508.853 673.962 509.237 673.962 509.728C673.962 510.091 674.064 510.379 674.266 510.592C674.469 510.795 674.778 510.965 675.194 511.104C675.61 511.243 676.133 511.392 676.762 511.552C677.53 511.733 678.197 511.952 678.762 512.208C679.328 512.453 679.76 512.784 680.058 513.2C680.357 513.616 680.506 514.165 680.506 514.848C680.506 515.424 680.4 515.92 680.186 516.336C679.973 516.752 679.674 517.093 679.29 517.36C678.906 517.616 678.464 517.808 677.962 517.936C677.461 518.053 676.922 518.112 676.346 518.112C675.781 518.112 675.216 518.053 674.65 517.936C674.096 517.819 673.562 517.648 673.05 517.424C672.549 517.189 672.085 516.907 671.658 516.576L672.474 515.04C672.613 515.179 672.81 515.333 673.066 515.504C673.333 515.664 673.637 515.819 673.978 515.968C674.33 516.117 674.709 516.245 675.114 516.352C675.53 516.448 675.952 516.496 676.378 516.496C677.093 516.496 677.637 516.373 678.01 516.128C678.394 515.872 678.586 515.509 678.586 515.04C678.586 514.656 678.464 514.352 678.218 514.128C677.973 513.893 677.616 513.696 677.146 513.536C676.677 513.376 676.117 513.216 675.466 513.056C674.72 512.853 674.096 512.635 673.594 512.4C673.093 512.155 672.714 511.845 672.458 511.472C672.213 511.088 672.09 510.603 672.09 510.016C672.09 509.269 672.272 508.64 672.634 508.128C672.997 507.605 673.488 507.216 674.106 506.96C674.736 506.693 675.44 506.56 676.218 506.56C676.73 506.56 677.216 506.619 677.674 506.736C678.133 506.843 678.56 506.992 678.954 507.184C679.36 507.376 679.728 507.595 680.058 507.84L679.242 509.312ZM686.881 514.224C687.329 514.299 687.718 514.469 688.049 514.736C688.39 514.992 688.651 515.323 688.833 515.728C689.014 516.123 689.105 516.571 689.105 517.072C689.105 517.733 688.939 518.309 688.609 518.8C688.289 519.291 687.83 519.669 687.233 519.936C686.635 520.213 685.931 520.352 685.121 520.352C684.31 520.352 683.595 520.208 682.977 519.92C682.358 519.643 681.862 519.237 681.489 518.704L682.561 517.488C682.817 517.872 683.147 518.176 683.553 518.4C683.958 518.635 684.47 518.752 685.089 518.752C685.782 518.752 686.321 518.603 686.705 518.304C687.089 518.005 687.281 517.557 687.281 516.96C687.281 516.341 687.067 515.856 686.641 515.504C686.225 515.152 685.595 514.976 684.753 514.976H684.321V513.6H684.801C685.515 513.6 686.065 513.435 686.449 513.104C686.833 512.763 687.025 512.336 687.025 511.824C687.025 511.483 686.945 511.205 686.785 510.992C686.635 510.768 686.422 510.603 686.145 510.496C685.867 510.389 685.547 510.336 685.185 510.336C684.641 510.336 684.161 510.453 683.745 510.688C683.329 510.923 682.998 511.259 682.753 511.696L681.649 510.496C681.862 510.155 682.155 509.856 682.529 509.6C682.902 509.344 683.329 509.147 683.809 509.008C684.299 508.859 684.817 508.784 685.361 508.784C686.065 508.784 686.683 508.901 687.217 509.136C687.75 509.371 688.161 509.701 688.449 510.128C688.747 510.555 688.897 511.056 688.897 511.632C688.897 512.048 688.817 512.443 688.657 512.816C688.497 513.179 688.262 513.488 687.953 513.744C687.643 513.989 687.286 514.149 686.881 514.224Z"
     fill="black"
     id="path21390" />
  <rect
     x="1025.5"
     y="484.5"
     width="58"
     height="57"
     rx="7.5"
     fill="white"
     stroke="black"
     id="rect21392" />
  <path
     d="M1053.09 509.312C1052.99 509.195 1052.83 509.072 1052.63 508.944C1052.43 508.805 1052.19 508.677 1051.91 508.56C1051.63 508.443 1051.33 508.347 1051.01 508.272C1050.69 508.197 1050.36 508.16 1050.02 508.16C1049.28 508.16 1048.72 508.299 1048.36 508.576C1048 508.853 1047.81 509.237 1047.81 509.728C1047.81 510.091 1047.92 510.379 1048.12 510.592C1048.32 510.795 1048.63 510.965 1049.05 511.104C1049.46 511.243 1049.98 511.392 1050.61 511.552C1051.38 511.733 1052.05 511.952 1052.61 512.208C1053.18 512.453 1053.61 512.784 1053.91 513.2C1054.21 513.616 1054.36 514.165 1054.36 514.848C1054.36 515.424 1054.25 515.92 1054.04 516.336C1053.82 516.752 1053.53 517.093 1053.14 517.36C1052.76 517.616 1052.32 517.808 1051.81 517.936C1051.31 518.053 1050.77 518.112 1050.2 518.112C1049.63 518.112 1049.07 518.053 1048.5 517.936C1047.95 517.819 1047.41 517.648 1046.9 517.424C1046.4 517.189 1045.94 516.907 1045.51 516.576L1046.33 515.04C1046.46 515.179 1046.66 515.333 1046.92 515.504C1047.18 515.664 1047.49 515.819 1047.83 515.968C1048.18 516.117 1048.56 516.245 1048.97 516.352C1049.38 516.448 1049.8 516.496 1050.23 516.496C1050.94 516.496 1051.49 516.373 1051.86 516.128C1052.25 515.872 1052.44 515.509 1052.44 515.04C1052.44 514.656 1052.32 514.352 1052.07 514.128C1051.82 513.893 1051.47 513.696 1051 513.536C1050.53 513.376 1049.97 513.216 1049.32 513.056C1048.57 512.853 1047.95 512.635 1047.45 512.4C1046.94 512.155 1046.57 511.845 1046.31 511.472C1046.06 511.088 1045.94 510.603 1045.94 510.016C1045.94 509.269 1046.12 508.64 1046.49 508.128C1046.85 507.605 1047.34 507.216 1047.96 506.96C1048.59 506.693 1049.29 506.56 1050.07 506.56C1050.58 506.56 1051.07 506.619 1051.53 506.736C1051.98 506.843 1052.41 506.992 1052.81 507.184C1053.21 507.376 1053.58 507.595 1053.91 507.84L1053.09 509.312ZM1060.14 520.032V517.488H1055.23V515.92L1060.7 508.864H1061.9V515.888H1063.31V517.488H1061.9V520.032H1060.14ZM1057.02 515.888H1060.33V511.552L1057.02 515.888Z"
     fill="black"
     id="path21394" />
  <rect
     x="193.5"
     y="445.5"
     width="58"
     height="57"
     rx="7.5"
     fill="white"
     stroke="black"
     id="rect21396" />
  <path
     d="M217.553 479V467.64H221.585C222.812 467.64 223.836 467.896 224.657 468.408C225.479 468.909 226.092 469.592 226.497 470.456C226.913 471.309 227.121 472.259 227.121 473.304C227.121 474.456 226.892 475.459 226.433 476.312C225.985 477.165 225.345 477.827 224.513 478.296C223.681 478.765 222.705 479 221.585 479H217.553ZM225.297 473.304C225.297 472.504 225.148 471.8 224.849 471.192C224.561 470.573 224.14 470.093 223.585 469.752C223.041 469.4 222.375 469.224 221.585 469.224H219.345V477.416H221.585C222.385 477.416 223.057 477.235 223.601 476.872C224.156 476.509 224.577 476.019 224.865 475.4C225.153 474.781 225.297 474.083 225.297 473.304Z"
     fill="black"
     id="path21398" />
  <rect
     x="744.5"
     y="445.5"
     width="58"
     height="57"
     rx="7.5"
     fill="white"
     stroke="black"
     id="rect21400" />
  <rect
     x="381.5"
     y="522.5"
     width="58"
     height="57"
     rx="7.5"
     fill="white"
     stroke="black"
     id="rect21404" />
  <rect
     x="932.5"
     y="522.5"
     width="58"
     height="57"
     rx="7.5"
     fill="white"
     stroke="black"
     id="rect21408" />
  <path
     d="M956.553 556V544.64H960.585C961.812 544.64 962.836 544.896 963.657 545.408C964.479 545.909 965.092 546.592 965.497 547.456C965.913 548.309 966.121 549.259 966.121 550.304C966.121 551.456 965.892 552.459 965.433 553.312C964.985 554.165 964.345 554.827 963.513 555.296C962.681 555.765 961.705 556 960.585 556H956.553ZM964.297 550.304C964.297 549.504 964.148 548.8 963.849 548.192C963.561 547.573 963.14 547.093 962.585 546.752C962.041 546.4 961.375 546.224 960.585 546.224H958.345V554.416H960.585C961.385 554.416 962.057 554.235 962.601 553.872C963.156 553.509 963.577 553.019 963.865 552.4C964.153 551.781 964.297 551.083 964.297 550.304Z"
     fill="black"
     id="path21410" />
  <rect
     x="268.5"
     y="495.5"
     width="100"
     height="35"
     rx="7.5"
     fill="white"
     stroke="black"
     id="rect21412" />
  <path
     d="M318.419 515.072C318.419 515.68 318.259 516.203 317.939 516.64C317.63 517.077 317.208 517.413 316.675 517.648C316.142 517.883 315.555 518 314.915 518H309.491V506.64H315.347C315.88 506.64 316.339 506.784 316.723 507.072C317.118 507.349 317.416 507.712 317.619 508.16C317.832 508.597 317.939 509.056 317.939 509.536C317.939 510.091 317.795 510.613 317.507 511.104C317.23 511.584 316.83 511.941 316.307 512.176C316.958 512.368 317.47 512.72 317.843 513.232C318.227 513.733 318.419 514.347 318.419 515.072ZM316.579 514.736C316.579 514.416 316.51 514.128 316.371 513.872C316.243 513.605 316.062 513.392 315.827 513.232C315.603 513.061 315.336 512.976 315.027 512.976H311.283V516.448H314.915C315.235 516.448 315.518 516.373 315.763 516.224C316.019 516.064 316.216 515.856 316.355 515.6C316.504 515.333 316.579 515.045 316.579 514.736ZM311.283 508.192V511.536H314.579C314.878 511.536 315.144 511.467 315.379 511.328C315.614 511.179 315.8 510.981 315.939 510.736C316.078 510.48 316.147 510.192 316.147 509.872C316.147 509.541 316.083 509.253 315.955 509.008C315.827 508.752 315.651 508.555 315.427 508.416C315.214 508.267 314.963 508.192 314.675 508.192H311.283ZM327.008 509.312C326.901 509.195 326.746 509.072 326.544 508.944C326.341 508.805 326.101 508.677 325.824 508.56C325.546 508.443 325.248 508.347 324.928 508.272C324.608 508.197 324.277 508.16 323.936 508.16C323.189 508.16 322.634 508.299 322.272 508.576C321.909 508.853 321.728 509.237 321.728 509.728C321.728 510.091 321.829 510.379 322.032 510.592C322.234 510.795 322.544 510.965 322.96 511.104C323.376 511.243 323.898 511.392 324.528 511.552C325.296 511.733 325.962 511.952 326.528 512.208C327.093 512.453 327.525 512.784 327.824 513.2C328.122 513.616 328.272 514.165 328.272 514.848C328.272 515.424 328.165 515.92 327.952 516.336C327.738 516.752 327.44 517.093 327.056 517.36C326.672 517.616 326.229 517.808 325.728 517.936C325.226 518.053 324.688 518.112 324.112 518.112C323.546 518.112 322.981 518.053 322.416 517.936C321.861 517.819 321.328 517.648 320.816 517.424C320.314 517.189 319.85 516.907 319.424 516.576L320.24 515.04C320.378 515.179 320.576 515.333 320.832 515.504C321.098 515.664 321.402 515.819 321.744 515.968C322.096 516.117 322.474 516.245 322.88 516.352C323.296 516.448 323.717 516.496 324.144 516.496C324.858 516.496 325.402 516.373 325.776 516.128C326.16 515.872 326.352 515.509 326.352 515.04C326.352 514.656 326.229 514.352 325.984 514.128C325.738 513.893 325.381 513.696 324.912 513.536C324.442 513.376 323.882 513.216 323.232 513.056C322.485 512.853 321.861 512.635 321.36 512.4C320.858 512.155 320.48 511.845 320.224 511.472C319.978 511.088 319.856 510.603 319.856 510.016C319.856 509.269 320.037 508.64 320.4 508.128C320.762 507.605 321.253 507.216 321.872 506.96C322.501 506.693 323.205 506.56 323.984 506.56C324.496 506.56 324.981 506.619 325.44 506.736C325.898 506.843 326.325 506.992 326.72 507.184C327.125 507.376 327.493 507.595 327.824 507.84L327.008 509.312Z"
     fill="black"
     id="path21414" />
  <rect
     x="562.5"
     y="483.5"
     width="58"
     height="57"
     rx="7.5"
     fill="white"
     stroke="black"
     id="rect21416" />
  <path
     d="M579.008 499.312C578.901 499.195 578.746 499.072 578.544 498.944C578.341 498.805 578.101 498.677 577.824 498.56C577.546 498.443 577.248 498.347 576.928 498.272C576.608 498.197 576.277 498.16 575.936 498.16C575.189 498.16 574.634 498.299 574.272 498.576C573.909 498.853 573.728 499.237 573.728 499.728C573.728 500.091 573.829 500.379 574.032 500.592C574.234 500.795 574.544 500.965 574.96 501.104C575.376 501.243 575.898 501.392 576.528 501.552C577.296 501.733 577.962 501.952 578.528 502.208C579.093 502.453 579.525 502.784 579.824 503.2C580.122 503.616 580.272 504.165 580.272 504.848C580.272 505.424 580.165 505.92 579.952 506.336C579.738 506.752 579.44 507.093 579.056 507.36C578.672 507.616 578.229 507.808 577.728 507.936C577.226 508.053 576.688 508.112 576.112 508.112C575.546 508.112 574.981 508.053 574.416 507.936C573.861 507.819 573.328 507.648 572.816 507.424C572.314 507.189 571.85 506.907 571.424 506.576L572.24 505.04C572.378 505.179 572.576 505.333 572.832 505.504C573.098 505.664 573.402 505.819 573.744 505.968C574.096 506.117 574.474 506.245 574.88 506.352C575.296 506.448 575.717 506.496 576.144 506.496C576.858 506.496 577.402 506.373 577.776 506.128C578.16 505.872 578.352 505.509 578.352 505.04C578.352 504.656 578.229 504.352 577.984 504.128C577.738 503.893 577.381 503.696 576.912 503.536C576.442 503.376 575.882 503.216 575.232 503.056C574.485 502.853 573.861 502.635 573.36 502.4C572.858 502.155 572.48 501.845 572.224 501.472C571.978 501.088 571.856 500.603 571.856 500.016C571.856 499.269 572.037 498.64 572.4 498.128C572.762 497.605 573.253 497.216 573.872 496.96C574.501 496.693 575.205 496.56 575.984 496.56C576.496 496.56 576.981 496.619 577.44 496.736C577.898 496.843 578.325 496.992 578.72 497.184C579.125 497.376 579.493 497.595 579.824 497.84L579.008 499.312ZM582.069 508V496.64H589.637V498.224H583.861V501.616H588.693V503.104H583.861V508H582.069ZM595.787 508.08C595.041 508.08 594.342 507.925 593.691 507.616C593.041 507.307 592.47 506.88 591.979 506.336C591.499 505.792 591.121 505.173 590.843 504.48C590.577 503.787 590.443 503.051 590.443 502.272C590.443 501.493 590.577 500.763 590.843 500.08C591.121 499.397 591.499 498.789 591.979 498.256C592.47 497.723 593.041 497.307 593.691 497.008C594.353 496.709 595.073 496.56 595.851 496.56C596.929 496.56 597.835 496.789 598.571 497.248C599.318 497.696 599.878 498.293 600.251 499.04L598.875 500.032C598.577 499.413 598.15 498.949 597.595 498.64C597.051 498.331 596.454 498.176 595.803 498.176C595.27 498.176 594.785 498.288 594.347 498.512C593.91 498.736 593.531 499.045 593.211 499.44C592.902 499.824 592.667 500.267 592.507 500.768C592.347 501.259 592.267 501.776 592.267 502.32C592.267 502.896 592.358 503.435 592.539 503.936C592.721 504.437 592.977 504.88 593.307 505.264C593.638 505.637 594.027 505.931 594.475 506.144C594.923 506.357 595.409 506.464 595.931 506.464C596.55 506.464 597.137 506.309 597.691 506C598.257 505.68 598.785 505.205 599.275 504.576V506.4C598.283 507.52 597.121 508.08 595.787 508.08ZM599.099 503.584H596.715V502.256H600.603V508H599.099V503.584ZM611.543 496.64L603.751 508H601.799L609.591 496.64H611.543ZM586.21 517.224H582.434V527H580.626V517.224H576.834V515.64H586.21V517.224ZM587.733 527V515.64H592.501C593.013 515.64 593.482 515.747 593.909 515.96C594.336 516.173 594.709 516.456 595.029 516.808C595.349 517.16 595.594 517.555 595.765 517.992C595.936 518.429 596.021 518.877 596.021 519.336C596.021 519.965 595.877 520.568 595.589 521.144C595.312 521.709 594.912 522.168 594.389 522.52C593.877 522.872 593.28 523.048 592.597 523.048H589.525V527H587.733ZM589.525 521.464H592.485C592.826 521.464 593.125 521.373 593.381 521.192C593.637 521 593.834 520.744 593.973 520.424C594.122 520.104 594.197 519.741 594.197 519.336C594.197 518.92 594.112 518.552 593.941 518.232C593.77 517.912 593.546 517.667 593.269 517.496C593.002 517.315 592.709 517.224 592.389 517.224H589.525V521.464ZM600.169 515.64H601.865L606.281 527H604.393L603.193 523.912H598.809L597.625 527H595.721L600.169 515.64ZM602.841 522.584L601.017 517.608L599.129 522.584H602.841Z"
     fill="black"
     id="path21418" />
  <rect
     x="819.5"
     y="495.5"
     width="100"
     height="35"
     rx="7.5"
     fill="white"
     stroke="black"
     id="rect21420" />
  <path
     d="M869.419 515.072C869.419 515.68 869.259 516.203 868.939 516.64C868.63 517.077 868.208 517.413 867.675 517.648C867.142 517.883 866.555 518 865.915 518H860.491V506.64H866.347C866.88 506.64 867.339 506.784 867.723 507.072C868.118 507.349 868.416 507.712 868.619 508.16C868.832 508.597 868.939 509.056 868.939 509.536C868.939 510.091 868.795 510.613 868.507 511.104C868.23 511.584 867.83 511.941 867.307 512.176C867.958 512.368 868.47 512.72 868.843 513.232C869.227 513.733 869.419 514.347 869.419 515.072ZM867.579 514.736C867.579 514.416 867.51 514.128 867.371 513.872C867.243 513.605 867.062 513.392 866.827 513.232C866.603 513.061 866.336 512.976 866.027 512.976H862.283V516.448H865.915C866.235 516.448 866.518 516.373 866.763 516.224C867.019 516.064 867.216 515.856 867.355 515.6C867.504 515.333 867.579 515.045 867.579 514.736ZM862.283 508.192V511.536H865.579C865.878 511.536 866.144 511.467 866.379 511.328C866.614 511.179 866.8 510.981 866.939 510.736C867.078 510.48 867.147 510.192 867.147 509.872C867.147 509.541 867.083 509.253 866.955 509.008C866.827 508.752 866.651 508.555 866.427 508.416C866.214 508.267 865.963 508.192 865.675 508.192H862.283ZM878.008 509.312C877.901 509.195 877.746 509.072 877.544 508.944C877.341 508.805 877.101 508.677 876.824 508.56C876.546 508.443 876.248 508.347 875.928 508.272C875.608 508.197 875.277 508.16 874.936 508.16C874.189 508.16 873.634 508.299 873.272 508.576C872.909 508.853 872.728 509.237 872.728 509.728C872.728 510.091 872.829 510.379 873.032 510.592C873.234 510.795 873.544 510.965 873.96 511.104C874.376 511.243 874.898 511.392 875.528 511.552C876.296 511.733 876.962 511.952 877.528 512.208C878.093 512.453 878.525 512.784 878.824 513.2C879.122 513.616 879.272 514.165 879.272 514.848C879.272 515.424 879.165 515.92 878.952 516.336C878.738 516.752 878.44 517.093 878.056 517.36C877.672 517.616 877.229 517.808 876.728 517.936C876.226 518.053 875.688 518.112 875.112 518.112C874.546 518.112 873.981 518.053 873.416 517.936C872.861 517.819 872.328 517.648 871.816 517.424C871.314 517.189 870.85 516.907 870.424 516.576L871.24 515.04C871.378 515.179 871.576 515.333 871.832 515.504C872.098 515.664 872.402 515.819 872.744 515.968C873.096 516.117 873.474 516.245 873.88 516.352C874.296 516.448 874.717 516.496 875.144 516.496C875.858 516.496 876.402 516.373 876.776 516.128C877.16 515.872 877.352 515.509 877.352 515.04C877.352 514.656 877.229 514.352 876.984 514.128C876.738 513.893 876.381 513.696 875.912 513.536C875.442 513.376 874.882 513.216 874.232 513.056C873.485 512.853 872.861 512.635 872.36 512.4C871.858 512.155 871.48 511.845 871.224 511.472C870.978 511.088 870.856 510.603 870.856 510.016C870.856 509.269 871.037 508.64 871.4 508.128C871.762 507.605 872.253 507.216 872.872 506.96C873.501 506.693 874.205 506.56 874.984 506.56C875.496 506.56 875.981 506.619 876.44 506.736C876.898 506.843 877.325 506.992 877.72 507.184C878.125 507.376 878.493 507.595 878.824 507.84L878.008 509.312Z"
     fill="black"
     id="path21422" />
  <path
     d="M925.79 493.325C926.251 493.376 926.558 493.376 927.275 493.632C927.993 493.837 929.017 494.093 929.684 494.093C930.708 494.093 930.913 493.274 930.913 493.018C930.913 492.556 930.606 491.89 929.684 491.89C929.427 491.89 928.813 491.942 927.737 492.249C926.609 492.556 926.302 492.556 925.79 492.659C925.79 492.095 925.841 491.224 926.148 489.226C926.302 488.048 926.558 486.562 926.558 485.383C926.558 485.076 926.558 484 925.482 484C924.355 484 924.355 485.076 924.355 485.383C924.355 486.511 924.662 488.509 924.765 489.38C925.072 491.327 925.124 492.044 925.124 492.659C924.662 492.556 924.355 492.556 923.586 492.351C922.92 492.147 921.896 491.89 921.23 491.89C920.154 491.89 920 492.659 920 492.966C920 493.427 920.256 494.093 921.23 494.093C921.486 494.093 922.101 493.991 923.125 493.735C924.304 493.427 924.611 493.376 925.124 493.325C925.072 493.991 925.021 494.35 924.714 496.092C924.355 497.987 924.355 498.346 924.355 499.934C924.355 505.109 924.765 510.643 925.021 513.461C925.021 513.922 925.072 514.127 925.431 514.127C925.841 514.127 925.841 513.973 925.892 513.512C926.046 512.026 926.199 510.079 926.251 508.491C926.302 507.927 926.558 503.521 926.558 499.934C926.558 498.346 926.558 497.987 926.199 496.092C925.841 494.401 925.841 493.991 925.79 493.325Z"
     fill="black"
     id="path21424" />
  <circle
     cx="584"
     cy="113"
     r="44.5"
     stroke="black"
     id="circle21426" />
  <circle
     cx="594"
     cy="113"
     r="44.5"
     stroke="black"
     id="circle21428" />
  <circle
     cx="604"
     cy="113"
     r="44.5"
     stroke="black"
     id="circle21430" />
  <rect
     x="450.5"
     y="266.5"
     width="58"
     height="57"
     rx="7.5"
     fill="white"
     stroke="black"
     id="rect21432" />
  <path
     d="M469.566 289.624L476.43 281.224H469.726V279.64H478.558V281.016L471.87 289.416H478.574V291H469.566V289.624ZM489.341 288.072C489.341 288.68 489.181 289.203 488.861 289.64C488.552 290.077 488.13 290.413 487.597 290.648C487.064 290.883 486.477 291 485.837 291H480.413V279.64H486.269C486.802 279.64 487.261 279.784 487.645 280.072C488.04 280.349 488.338 280.712 488.541 281.16C488.754 281.597 488.861 282.056 488.861 282.536C488.861 283.091 488.717 283.613 488.429 284.104C488.152 284.584 487.752 284.941 487.229 285.176C487.88 285.368 488.392 285.72 488.765 286.232C489.149 286.733 489.341 287.347 489.341 288.072ZM487.501 287.736C487.501 287.416 487.432 287.128 487.293 286.872C487.165 286.605 486.984 286.392 486.749 286.232C486.525 286.061 486.258 285.976 485.949 285.976H482.205V289.448H485.837C486.157 289.448 486.44 289.373 486.685 289.224C486.941 289.064 487.138 288.856 487.277 288.6C487.426 288.333 487.501 288.045 487.501 287.736ZM482.205 281.192V284.536H485.501C485.8 284.536 486.066 284.467 486.301 284.328C486.536 284.179 486.722 283.981 486.861 283.736C487 283.48 487.069 283.192 487.069 282.872C487.069 282.541 487.005 282.253 486.877 282.008C486.749 281.752 486.573 281.555 486.349 281.416C486.136 281.267 485.885 281.192 485.597 281.192H482.205ZM461.163 310V298.64H465.195C466.422 298.64 467.446 298.896 468.267 299.408C469.088 299.909 469.702 300.592 470.107 301.456C470.523 302.309 470.731 303.259 470.731 304.304C470.731 305.456 470.502 306.459 470.043 307.312C469.595 308.165 468.955 308.827 468.123 309.296C467.291 309.765 466.315 310 465.195 310H461.163ZM468.907 304.304C468.907 303.504 468.758 302.8 468.459 302.192C468.171 301.573 467.75 301.093 467.195 300.752C466.651 300.4 465.984 300.224 465.195 300.224H462.955V308.416H465.195C465.995 308.416 466.667 308.235 467.211 307.872C467.766 307.509 468.187 307.019 468.475 306.4C468.763 305.781 468.907 305.083 468.907 304.304ZM477.08 303.152C476.398 303.163 475.79 303.317 475.256 303.616C474.734 303.915 474.36 304.336 474.136 304.88V310H472.376V301.632H474.008V303.504C474.296 302.928 474.675 302.469 475.144 302.128C475.614 301.776 476.11 301.584 476.632 301.552C476.739 301.552 476.824 301.552 476.888 301.552C476.963 301.552 477.027 301.557 477.08 301.568V303.152ZM478.361 310V301.632H480.121V310H478.361ZM478.361 300.256V298.32H480.121V300.256H478.361ZM484.572 310L481.388 301.632H483.212L485.596 308.368L487.98 301.632H489.676L486.492 310H484.572ZM494.45 310.16C493.799 310.16 493.207 310.048 492.674 309.824C492.151 309.589 491.698 309.275 491.314 308.88C490.93 308.475 490.631 308.016 490.418 307.504C490.215 306.981 490.114 306.427 490.114 305.84C490.114 305.051 490.295 304.331 490.658 303.68C491.02 303.019 491.527 302.491 492.178 302.096C492.828 301.691 493.591 301.488 494.466 301.488C495.34 301.488 496.092 301.691 496.722 302.096C497.362 302.491 497.858 303.013 498.21 303.664C498.562 304.315 498.738 305.013 498.738 305.76C498.738 305.888 498.732 306.011 498.722 306.128C498.711 306.235 498.7 306.325 498.69 306.4H491.986C492.018 306.891 492.151 307.323 492.386 307.696C492.631 308.059 492.94 308.347 493.314 308.56C493.687 308.763 494.087 308.864 494.514 308.864C494.983 308.864 495.426 308.747 495.842 308.512C496.268 308.277 496.556 307.968 496.706 307.584L498.21 308.016C498.028 308.421 497.751 308.789 497.378 309.12C497.015 309.44 496.583 309.696 496.082 309.888C495.58 310.069 495.036 310.16 494.45 310.16ZM491.938 305.232H496.994C496.962 304.752 496.823 304.331 496.578 303.968C496.343 303.595 496.039 303.307 495.666 303.104C495.303 302.891 494.898 302.784 494.45 302.784C494.012 302.784 493.607 302.891 493.234 303.104C492.871 303.307 492.572 303.595 492.338 303.968C492.103 304.331 491.97 304.752 491.938 305.232Z"
     fill="black"
     id="path21434" />
  <rect
     x="559.5"
     y="266.5"
     width="118"
     height="57"
     rx="7.5"
     fill="white"
     stroke="black"
     id="rect21436" />
  <path
     d="M585.356 291.16C584.705 291.16 584.113 291.048 583.58 290.824C583.057 290.589 582.604 290.269 582.22 289.864C581.836 289.459 581.537 288.995 581.324 288.472C581.121 287.949 581.02 287.395 581.02 286.808C581.02 286.019 581.196 285.299 581.548 284.648C581.911 283.997 582.412 283.475 583.052 283.08C583.703 282.685 584.471 282.488 585.356 282.488C586.209 282.488 586.951 282.68 587.58 283.064C588.22 283.437 588.689 283.939 588.988 284.568L587.276 285.112C587.084 284.76 586.812 284.488 586.46 284.296C586.119 284.093 585.74 283.992 585.324 283.992C584.855 283.992 584.428 284.115 584.044 284.36C583.671 284.595 583.372 284.925 583.148 285.352C582.935 285.768 582.828 286.253 582.828 286.808C582.828 287.341 582.94 287.827 583.164 288.264C583.388 288.691 583.687 289.032 584.06 289.288C584.444 289.533 584.871 289.656 585.34 289.656C585.628 289.656 585.905 289.608 586.172 289.512C586.449 289.405 586.689 289.267 586.892 289.096C587.095 288.915 587.239 288.717 587.324 288.504L589.052 289.016C588.871 289.432 588.599 289.8 588.236 290.12C587.884 290.44 587.463 290.696 586.972 290.888C586.492 291.069 585.953 291.16 585.356 291.16ZM594.183 291.16C593.522 291.16 592.93 291.048 592.407 290.824C591.885 290.589 591.431 290.269 591.047 289.864C590.674 289.459 590.386 289 590.183 288.488C589.981 287.965 589.879 287.411 589.879 286.824C589.879 286.237 589.981 285.683 590.183 285.16C590.386 284.637 590.674 284.179 591.047 283.784C591.431 283.379 591.885 283.064 592.407 282.84C592.941 282.605 593.533 282.488 594.183 282.488C594.834 282.488 595.421 282.605 595.943 282.84C596.477 283.064 596.93 283.379 597.303 283.784C597.687 284.179 597.981 284.637 598.183 285.16C598.386 285.683 598.487 286.237 598.487 286.824C598.487 287.411 598.386 287.965 598.183 288.488C597.981 289 597.687 289.459 597.303 289.864C596.93 290.269 596.477 290.589 595.943 290.824C595.421 291.048 594.834 291.16 594.183 291.16ZM591.687 286.84C591.687 287.373 591.799 287.853 592.023 288.28C592.247 288.707 592.546 289.043 592.919 289.288C593.293 289.533 593.714 289.656 594.183 289.656C594.642 289.656 595.058 289.533 595.431 289.288C595.815 289.032 596.119 288.691 596.343 288.264C596.567 287.827 596.679 287.347 596.679 286.824C596.679 286.291 596.567 285.811 596.343 285.384C596.119 284.957 595.815 284.621 595.431 284.376C595.058 284.12 594.642 283.992 594.183 283.992C593.714 283.992 593.293 284.12 592.919 284.376C592.546 284.632 592.247 284.973 592.023 285.4C591.799 285.816 591.687 286.296 591.687 286.84ZM607.552 291H605.792V286.312C605.792 285.533 605.664 284.963 605.408 284.6C605.163 284.237 604.795 284.056 604.304 284.056C603.963 284.056 603.622 284.141 603.28 284.312C602.95 284.483 602.651 284.717 602.384 285.016C602.118 285.304 601.926 285.64 601.808 286.024V291H600.048V282.632H601.648V284.312C601.862 283.939 602.139 283.619 602.48 283.352C602.832 283.075 603.227 282.861 603.664 282.712C604.102 282.563 604.566 282.488 605.056 282.488C605.558 282.488 605.968 282.579 606.288 282.76C606.619 282.941 606.875 283.192 607.056 283.512C607.248 283.821 607.376 284.184 607.44 284.6C607.515 285.005 607.552 285.437 607.552 285.896V291ZM612.571 291.16C611.867 291.16 611.2 291.048 610.571 290.824C609.942 290.589 609.403 290.243 608.955 289.784L609.611 288.6C610.091 289.027 610.571 289.336 611.051 289.528C611.542 289.72 612.027 289.816 612.507 289.816C612.998 289.816 613.398 289.725 613.707 289.544C614.016 289.352 614.171 289.075 614.171 288.712C614.171 288.445 614.091 288.248 613.931 288.12C613.771 287.992 613.536 287.88 613.227 287.784C612.928 287.688 612.566 287.581 612.139 287.464C611.542 287.283 611.04 287.096 610.635 286.904C610.23 286.701 609.926 286.456 609.723 286.168C609.52 285.88 609.419 285.512 609.419 285.064C609.419 284.52 609.558 284.056 609.835 283.672C610.112 283.288 610.496 282.995 610.987 282.792C611.488 282.589 612.064 282.488 612.715 282.488C613.323 282.488 613.883 282.584 614.395 282.776C614.918 282.957 615.376 283.245 615.771 283.64L615.019 284.808C614.646 284.467 614.262 284.216 613.867 284.056C613.483 283.896 613.067 283.816 612.619 283.816C612.363 283.816 612.118 283.848 611.883 283.912C611.648 283.965 611.451 284.072 611.291 284.232C611.142 284.381 611.067 284.595 611.067 284.872C611.067 285.096 611.131 285.277 611.259 285.416C611.387 285.555 611.579 285.672 611.835 285.768C612.091 285.864 612.406 285.971 612.779 286.088C613.43 286.28 613.984 286.472 614.443 286.664C614.902 286.845 615.254 287.085 615.499 287.384C615.755 287.672 615.883 288.072 615.883 288.584C615.883 289.395 615.579 290.029 614.971 290.488C614.374 290.936 613.574 291.16 612.571 291.16ZM622.095 290.568C621.946 290.643 621.759 290.723 621.535 290.808C621.311 290.893 621.055 290.968 620.767 291.032C620.49 291.096 620.202 291.128 619.903 291.128C619.54 291.128 619.204 291.064 618.895 290.936C618.586 290.808 618.335 290.605 618.143 290.328C617.962 290.04 617.871 289.672 617.871 289.224V283.992H616.767V282.632H617.871V279.88H619.631V282.632H621.455V283.992H619.631V288.664C619.652 288.952 619.743 289.165 619.903 289.304C620.074 289.443 620.282 289.512 620.527 289.512C620.772 289.512 621.007 289.469 621.231 289.384C621.455 289.299 621.62 289.229 621.727 289.176L622.095 290.568ZM628.018 284.152C627.335 284.163 626.727 284.317 626.194 284.616C625.671 284.915 625.298 285.336 625.074 285.88V291H623.314V282.632H624.946V284.504C625.234 283.928 625.613 283.469 626.082 283.128C626.551 282.776 627.047 282.584 627.57 282.552C627.677 282.552 627.762 282.552 627.826 282.552C627.901 282.552 627.965 282.557 628.018 282.568V284.152ZM628.675 288.552C628.675 288.019 628.824 287.555 629.123 287.16C629.432 286.755 629.853 286.445 630.387 286.232C630.92 286.008 631.539 285.896 632.243 285.896C632.616 285.896 632.995 285.923 633.379 285.976C633.773 286.029 634.12 286.115 634.419 286.232V285.704C634.419 285.117 634.243 284.659 633.891 284.328C633.539 283.997 633.032 283.832 632.371 283.832C631.901 283.832 631.459 283.917 631.043 284.088C630.627 284.248 630.184 284.477 629.715 284.776L629.123 283.592C629.677 283.219 630.232 282.941 630.787 282.76C631.352 282.579 631.944 282.488 632.563 282.488C633.683 282.488 634.563 282.787 635.203 283.384C635.853 283.971 636.179 284.808 636.179 285.896V289.016C636.179 289.219 636.211 289.363 636.275 289.448C636.349 289.533 636.472 289.581 636.643 289.592V291C636.483 291.032 636.339 291.053 636.211 291.064C636.083 291.075 635.976 291.08 635.891 291.08C635.517 291.08 635.235 290.989 635.043 290.808C634.851 290.627 634.739 290.413 634.707 290.168L634.659 289.688C634.296 290.157 633.832 290.52 633.267 290.776C632.701 291.032 632.131 291.16 631.555 291.16C631 291.16 630.504 291.048 630.067 290.824C629.629 290.589 629.288 290.275 629.043 289.88C628.797 289.485 628.675 289.043 628.675 288.552ZM634.003 289.064C634.131 288.925 634.232 288.787 634.307 288.648C634.381 288.509 634.419 288.387 634.419 288.28V287.32C634.12 287.203 633.805 287.117 633.475 287.064C633.144 287 632.819 286.968 632.499 286.968C631.859 286.968 631.336 287.096 630.931 287.352C630.536 287.608 630.339 287.96 630.339 288.408C630.339 288.653 630.403 288.888 630.531 289.112C630.669 289.336 630.861 289.517 631.107 289.656C631.363 289.795 631.677 289.864 632.051 289.864C632.435 289.864 632.803 289.789 633.155 289.64C633.507 289.491 633.789 289.299 634.003 289.064ZM638.314 291V282.632H640.074V291H638.314ZM638.314 281.256V279.32H640.074V281.256H638.314ZM649.693 291H647.933V286.312C647.933 285.533 647.805 284.963 647.549 284.6C647.304 284.237 646.936 284.056 646.445 284.056C646.104 284.056 645.762 284.141 645.421 284.312C645.09 284.483 644.792 284.717 644.525 285.016C644.258 285.304 644.066 285.64 643.949 286.024V291H642.189V282.632H643.789V284.312C644.002 283.939 644.28 283.619 644.621 283.352C644.973 283.075 645.368 282.861 645.805 282.712C646.242 282.563 646.706 282.488 647.197 282.488C647.698 282.488 648.109 282.579 648.429 282.76C648.76 282.941 649.016 283.192 649.197 283.512C649.389 283.821 649.517 284.184 649.581 284.6C649.656 285.005 649.693 285.437 649.693 285.896V291ZM656.329 290.568C656.18 290.643 655.993 290.723 655.769 290.808C655.545 290.893 655.289 290.968 655.001 291.032C654.724 291.096 654.436 291.128 654.137 291.128C653.775 291.128 653.439 291.064 653.129 290.936C652.82 290.808 652.569 290.605 652.377 290.328C652.196 290.04 652.105 289.672 652.105 289.224V283.992H651.001V282.632H652.105V279.88H653.865V282.632H655.689V283.992H653.865V288.664C653.887 288.952 653.977 289.165 654.137 289.304C654.308 289.443 654.516 289.512 654.761 289.512C655.007 289.512 655.241 289.469 655.465 289.384C655.689 289.299 655.855 289.229 655.961 289.176L656.329 290.568ZM608.922 310.08C608.016 310.08 607.248 309.925 606.618 309.616C606 309.307 605.498 308.885 605.114 308.352C604.741 307.819 604.464 307.211 604.282 306.528C604.112 305.845 604.026 305.136 604.026 304.4V298.64H605.818V304.4C605.818 304.923 605.872 305.429 605.978 305.92C606.085 306.4 606.256 306.832 606.49 307.216C606.725 307.6 607.04 307.904 607.434 308.128C607.84 308.352 608.336 308.464 608.922 308.464C609.52 308.464 610.016 308.352 610.41 308.128C610.816 307.893 611.13 307.584 611.354 307.2C611.589 306.805 611.76 306.368 611.866 305.888C611.973 305.408 612.026 304.912 612.026 304.4V298.64H613.834V304.4C613.834 305.179 613.738 305.915 613.546 306.608C613.365 307.291 613.077 307.893 612.682 308.416C612.298 308.928 611.797 309.333 611.178 309.632C610.56 309.931 609.808 310.08 608.922 310.08ZM623.357 310H621.597V305.312C621.597 304.533 621.469 303.963 621.213 303.6C620.968 303.237 620.6 303.056 620.109 303.056C619.768 303.056 619.426 303.141 619.085 303.312C618.754 303.483 618.456 303.717 618.189 304.016C617.922 304.304 617.73 304.64 617.613 305.024V310H615.853V301.632H617.453V303.312C617.666 302.939 617.944 302.619 618.285 302.352C618.637 302.075 619.032 301.861 619.469 301.712C619.906 301.563 620.37 301.488 620.861 301.488C621.362 301.488 621.773 301.579 622.093 301.76C622.424 301.941 622.68 302.192 622.861 302.512C623.053 302.821 623.181 303.184 623.245 303.6C623.32 304.005 623.357 304.437 623.357 304.896V310ZM625.4 310V301.632H627.16V310H625.4ZM625.4 300.256V298.32H627.16V300.256H625.4ZM633.931 309.568C633.781 309.643 633.595 309.723 633.371 309.808C633.147 309.893 632.891 309.968 632.603 310.032C632.325 310.096 632.037 310.128 631.739 310.128C631.376 310.128 631.04 310.064 630.731 309.936C630.421 309.808 630.171 309.605 629.979 309.328C629.797 309.04 629.707 308.672 629.707 308.224V302.992H628.603V301.632H629.707V298.88H631.467V301.632H633.291V302.992H631.467V307.664C631.488 307.952 631.579 308.165 631.739 308.304C631.909 308.443 632.117 308.512 632.363 308.512C632.608 308.512 632.843 308.469 633.067 308.384C633.291 308.299 633.456 308.229 633.563 308.176L633.931 309.568Z"
     fill="black"
     id="path21438" />
  <rect
     x="728.5"
     y="249.5"
     width="118"
     height="91"
     rx="7.5"
     fill="white"
     stroke="black"
     id="rect21440" />
  <path
     d="M758.289 272.312C758.182 272.195 758.028 272.072 757.825 271.944C757.622 271.805 757.382 271.677 757.105 271.56C756.828 271.443 756.529 271.347 756.209 271.272C755.889 271.197 755.558 271.16 755.217 271.16C754.47 271.16 753.916 271.299 753.553 271.576C753.19 271.853 753.009 272.237 753.009 272.728C753.009 273.091 753.11 273.379 753.313 273.592C753.516 273.795 753.825 273.965 754.241 274.104C754.657 274.243 755.18 274.392 755.809 274.552C756.577 274.733 757.244 274.952 757.809 275.208C758.374 275.453 758.806 275.784 759.105 276.2C759.404 276.616 759.553 277.165 759.553 277.848C759.553 278.424 759.446 278.92 759.233 279.336C759.02 279.752 758.721 280.093 758.337 280.36C757.953 280.616 757.51 280.808 757.009 280.936C756.508 281.053 755.969 281.112 755.393 281.112C754.828 281.112 754.262 281.053 753.697 280.936C753.142 280.819 752.609 280.648 752.097 280.424C751.596 280.189 751.132 279.907 750.705 279.576L751.521 278.04C751.66 278.179 751.857 278.333 752.113 278.504C752.38 278.664 752.684 278.819 753.025 278.968C753.377 279.117 753.756 279.245 754.161 279.352C754.577 279.448 754.998 279.496 755.425 279.496C756.14 279.496 756.684 279.373 757.057 279.128C757.441 278.872 757.633 278.509 757.633 278.04C757.633 277.656 757.51 277.352 757.265 277.128C757.02 276.893 756.662 276.696 756.193 276.536C755.724 276.376 755.164 276.216 754.513 276.056C753.766 275.853 753.142 275.635 752.641 275.4C752.14 275.155 751.761 274.845 751.505 274.472C751.26 274.088 751.137 273.603 751.137 273.016C751.137 272.269 751.318 271.64 751.681 271.128C752.044 270.605 752.534 270.216 753.153 269.96C753.782 269.693 754.486 269.56 755.265 269.56C755.777 269.56 756.262 269.619 756.721 269.736C757.18 269.843 757.606 269.992 758.001 270.184C758.406 270.376 758.774 270.595 759.105 270.84L758.289 272.312ZM771.308 272.632H772.988L769.468 281H767.964L766.46 277.224L764.956 281H763.452L759.916 272.632H761.596L764.284 279.288L765.468 276.2L764.028 272.648H765.516L766.46 275.256L767.388 272.648H768.876L767.452 276.2L768.636 279.288L771.308 272.632ZM774.158 281V272.632H775.918V281H774.158ZM774.158 271.256V269.32H775.918V271.256H774.158ZM782.689 280.568C782.539 280.643 782.353 280.723 782.129 280.808C781.905 280.893 781.649 280.968 781.361 281.032C781.083 281.096 780.795 281.128 780.497 281.128C780.134 281.128 779.798 281.064 779.489 280.936C779.179 280.808 778.929 280.605 778.737 280.328C778.555 280.04 778.465 279.672 778.465 279.224V273.992H777.361V272.632H778.465V269.88H780.225V272.632H782.049V273.992H780.225V278.664C780.246 278.952 780.337 279.165 780.497 279.304C780.667 279.443 780.875 279.512 781.121 279.512C781.366 279.512 781.601 279.469 781.825 279.384C782.049 279.299 782.214 279.229 782.321 279.176L782.689 280.568ZM787.59 281.16C786.94 281.16 786.348 281.048 785.814 280.824C785.292 280.589 784.838 280.269 784.454 279.864C784.07 279.459 783.772 278.995 783.558 278.472C783.356 277.949 783.254 277.395 783.254 276.808C783.254 276.019 783.43 275.299 783.782 274.648C784.145 273.997 784.646 273.475 785.286 273.08C785.937 272.685 786.705 272.488 787.59 272.488C788.444 272.488 789.185 272.68 789.814 273.064C790.454 273.437 790.924 273.939 791.222 274.568L789.51 275.112C789.318 274.76 789.046 274.488 788.694 274.296C788.353 274.093 787.974 273.992 787.558 273.992C787.089 273.992 786.662 274.115 786.278 274.36C785.905 274.595 785.606 274.925 785.382 275.352C785.169 275.768 785.062 276.253 785.062 276.808C785.062 277.341 785.174 277.827 785.398 278.264C785.622 278.691 785.921 279.032 786.294 279.288C786.678 279.533 787.105 279.656 787.574 279.656C787.862 279.656 788.14 279.608 788.406 279.512C788.684 279.405 788.924 279.267 789.126 279.096C789.329 278.915 789.473 278.717 789.558 278.504L791.286 279.016C791.105 279.432 790.833 279.8 790.47 280.12C790.118 280.44 789.697 280.696 789.206 280.888C788.726 281.069 788.188 281.16 787.59 281.16ZM800.24 281H798.48V276.312C798.48 275.555 798.341 274.989 798.064 274.616C797.786 274.243 797.397 274.056 796.896 274.056C796.586 274.056 796.266 274.141 795.936 274.312C795.605 274.483 795.312 274.717 795.056 275.016C794.8 275.304 794.613 275.64 794.496 276.024V281H792.736V269.32H794.496V274.312C794.816 273.747 795.253 273.304 795.808 272.984C796.362 272.653 796.96 272.488 797.6 272.488C798.122 272.488 798.554 272.579 798.896 272.76C799.237 272.941 799.504 273.192 799.696 273.512C799.898 273.821 800.037 274.184 800.112 274.6C800.197 275.005 800.24 275.437 800.24 275.896V281ZM802.283 281V272.632H804.043V281H802.283ZM802.283 271.256V269.32H804.043V271.256H802.283ZM813.662 281H811.902V276.312C811.902 275.533 811.774 274.963 811.518 274.6C811.272 274.237 810.904 274.056 810.414 274.056C810.072 274.056 809.731 274.141 809.39 274.312C809.059 274.483 808.76 274.717 808.494 275.016C808.227 275.304 808.035 275.64 807.918 276.024V281H806.158V272.632H807.758V274.312C807.971 273.939 808.248 273.619 808.59 273.352C808.942 273.075 809.336 272.861 809.774 272.712C810.211 272.563 810.675 272.488 811.166 272.488C811.667 272.488 812.078 272.579 812.398 272.76C812.728 272.941 812.984 273.192 813.166 273.512C813.358 273.821 813.486 274.184 813.55 274.6C813.624 275.005 813.662 275.437 813.662 275.896V281ZM819.016 281.08C818.451 281.08 817.934 280.968 817.464 280.744C816.995 280.509 816.59 280.195 816.248 279.8C815.918 279.405 815.656 278.952 815.464 278.44C815.283 277.928 815.192 277.389 815.192 276.824C815.192 276.227 815.288 275.667 815.48 275.144C815.672 274.621 815.939 274.163 816.28 273.768C816.632 273.363 817.043 273.048 817.512 272.824C817.982 272.6 818.504 272.488 819.08 272.488C819.752 272.488 820.339 272.648 820.84 272.968C821.352 273.288 821.774 273.704 822.104 274.216V272.632H823.656V280.76C823.656 281.571 823.459 282.259 823.064 282.824C822.68 283.389 822.152 283.821 821.48 284.12C820.808 284.419 820.051 284.568 819.208 284.568C818.28 284.568 817.512 284.408 816.904 284.088C816.296 283.768 815.779 283.331 815.352 282.776L816.344 281.848C816.664 282.296 817.075 282.637 817.576 282.872C818.088 283.107 818.632 283.224 819.208 283.224C819.688 283.224 820.131 283.133 820.536 282.952C820.952 282.781 821.283 282.509 821.528 282.136C821.774 281.773 821.896 281.315 821.896 280.76V279.48C821.598 279.981 821.187 280.376 820.664 280.664C820.142 280.941 819.592 281.08 819.016 281.08ZM819.592 279.656C819.859 279.656 820.115 279.613 820.36 279.528C820.606 279.432 820.83 279.309 821.032 279.16C821.246 279 821.427 278.824 821.576 278.632C821.726 278.429 821.832 278.216 821.896 277.992V275.8C821.758 275.437 821.56 275.123 821.304 274.856C821.048 274.579 820.76 274.365 820.44 274.216C820.12 274.067 819.795 273.992 819.464 273.992C819.08 273.992 818.734 274.077 818.424 274.248C818.126 274.408 817.87 274.627 817.656 274.904C817.443 275.171 817.278 275.475 817.16 275.816C817.043 276.157 816.984 276.509 816.984 276.872C816.984 277.256 817.048 277.613 817.176 277.944C817.315 278.275 817.502 278.573 817.736 278.84C817.971 279.096 818.248 279.299 818.568 279.448C818.888 279.587 819.23 279.656 819.592 279.656ZM746.768 297.552C746.768 297.019 746.918 296.555 747.216 296.16C747.526 295.755 747.947 295.445 748.48 295.232C749.014 295.008 749.632 294.896 750.336 294.896C750.71 294.896 751.088 294.923 751.472 294.976C751.867 295.029 752.214 295.115 752.512 295.232V294.704C752.512 294.117 752.336 293.659 751.984 293.328C751.632 292.997 751.126 292.832 750.464 292.832C749.995 292.832 749.552 292.917 749.136 293.088C748.72 293.248 748.278 293.477 747.808 293.776L747.216 292.592C747.771 292.219 748.326 291.941 748.88 291.76C749.446 291.579 750.038 291.488 750.656 291.488C751.776 291.488 752.656 291.787 753.296 292.384C753.947 292.971 754.272 293.808 754.272 294.896V298.016C754.272 298.219 754.304 298.363 754.368 298.448C754.443 298.533 754.566 298.581 754.736 298.592V300C754.576 300.032 754.432 300.053 754.304 300.064C754.176 300.075 754.07 300.08 753.984 300.08C753.611 300.08 753.328 299.989 753.136 299.808C752.944 299.627 752.832 299.413 752.8 299.168L752.752 298.688C752.39 299.157 751.926 299.52 751.36 299.776C750.795 300.032 750.224 300.16 749.648 300.16C749.094 300.16 748.598 300.048 748.16 299.824C747.723 299.589 747.382 299.275 747.136 298.88C746.891 298.485 746.768 298.043 746.768 297.552ZM752.096 298.064C752.224 297.925 752.326 297.787 752.4 297.648C752.475 297.509 752.512 297.387 752.512 297.28V296.32C752.214 296.203 751.899 296.117 751.568 296.064C751.238 296 750.912 295.968 750.592 295.968C749.952 295.968 749.43 296.096 749.024 296.352C748.63 296.608 748.432 296.96 748.432 297.408C748.432 297.653 748.496 297.888 748.624 298.112C748.763 298.336 748.955 298.517 749.2 298.656C749.456 298.795 749.771 298.864 750.144 298.864C750.528 298.864 750.896 298.789 751.248 298.64C751.6 298.491 751.883 298.299 752.096 298.064ZM763.912 300H762.152V295.312C762.152 294.533 762.024 293.963 761.768 293.6C761.522 293.237 761.154 293.056 760.664 293.056C760.322 293.056 759.981 293.141 759.64 293.312C759.309 293.483 759.01 293.717 758.744 294.016C758.477 294.304 758.285 294.64 758.168 295.024V300H756.408V291.632H758.008V293.312C758.221 292.939 758.498 292.619 758.84 292.352C759.192 292.075 759.586 291.861 760.024 291.712C760.461 291.563 760.925 291.488 761.416 291.488C761.917 291.488 762.328 291.579 762.648 291.76C762.978 291.941 763.234 292.192 763.416 292.512C763.608 292.821 763.736 293.184 763.8 293.6C763.874 294.005 763.912 294.437 763.912 294.896V300ZM765.426 295.824C765.426 295.024 765.586 294.299 765.906 293.648C766.237 292.987 766.685 292.464 767.25 292.08C767.816 291.685 768.466 291.488 769.202 291.488C769.842 291.488 770.418 291.653 770.93 291.984C771.453 292.315 771.858 292.725 772.146 293.216V288.32H773.906V298.016C773.906 298.219 773.944 298.363 774.018 298.448C774.093 298.533 774.216 298.581 774.386 298.592V300C774.056 300.053 773.8 300.08 773.618 300.08C773.288 300.08 773.005 299.984 772.77 299.792C772.546 299.6 772.429 299.371 772.418 299.104L772.402 298.48C772.082 299.013 771.65 299.429 771.106 299.728C770.562 300.016 769.997 300.16 769.41 300.16C768.834 300.16 768.301 300.048 767.81 299.824C767.33 299.6 766.909 299.285 766.546 298.88C766.194 298.475 765.917 298.011 765.714 297.488C765.522 296.965 765.426 296.411 765.426 295.824ZM772.146 296.992V294.8C772.029 294.459 771.837 294.155 771.57 293.888C771.314 293.611 771.021 293.392 770.69 293.232C770.37 293.072 770.05 292.992 769.73 292.992C769.357 292.992 769.016 293.072 768.706 293.232C768.408 293.392 768.146 293.605 767.922 293.872C767.709 294.139 767.544 294.443 767.426 294.784C767.309 295.125 767.25 295.483 767.25 295.856C767.25 296.24 767.314 296.603 767.442 296.944C767.57 297.275 767.752 297.573 767.986 297.84C768.232 298.096 768.509 298.299 768.818 298.448C769.138 298.587 769.485 298.656 769.858 298.656C770.093 298.656 770.328 298.613 770.562 298.528C770.808 298.443 771.037 298.325 771.25 298.176C771.474 298.027 771.661 297.851 771.81 297.648C771.97 297.445 772.082 297.227 772.146 296.992ZM779.567 295.824C779.567 295.024 779.727 294.299 780.047 293.648C780.378 292.987 780.826 292.464 781.391 292.08C781.956 291.685 782.607 291.488 783.343 291.488C783.983 291.488 784.559 291.653 785.071 291.984C785.594 292.315 785.999 292.725 786.287 293.216V288.32H788.047V298.016C788.047 298.219 788.084 298.363 788.159 298.448C788.234 298.533 788.356 298.581 788.527 298.592V300C788.196 300.053 787.94 300.08 787.759 300.08C787.428 300.08 787.146 299.984 786.911 299.792C786.687 299.6 786.57 299.371 786.559 299.104L786.543 298.48C786.223 299.013 785.791 299.429 785.247 299.728C784.703 300.016 784.138 300.16 783.551 300.16C782.975 300.16 782.442 300.048 781.951 299.824C781.471 299.6 781.05 299.285 780.687 298.88C780.335 298.475 780.058 298.011 779.855 297.488C779.663 296.965 779.567 296.411 779.567 295.824ZM786.287 296.992V294.8C786.17 294.459 785.978 294.155 785.711 293.888C785.455 293.611 785.162 293.392 784.831 293.232C784.511 293.072 784.191 292.992 783.871 292.992C783.498 292.992 783.156 293.072 782.847 293.232C782.548 293.392 782.287 293.605 782.063 293.872C781.85 294.139 781.684 294.443 781.567 294.784C781.45 295.125 781.391 295.483 781.391 295.856C781.391 296.24 781.455 296.603 781.583 296.944C781.711 297.275 781.892 297.573 782.127 297.84C782.372 298.096 782.65 298.299 782.959 298.448C783.279 298.587 783.626 298.656 783.999 298.656C784.234 298.656 784.468 298.613 784.703 298.528C784.948 298.443 785.178 298.325 785.391 298.176C785.615 298.027 785.802 297.851 785.951 297.648C786.111 297.445 786.223 297.227 786.287 296.992ZM794.075 300.16C793.424 300.16 792.832 300.048 792.299 299.824C791.776 299.589 791.323 299.275 790.939 298.88C790.555 298.475 790.256 298.016 790.043 297.504C789.84 296.981 789.739 296.427 789.739 295.84C789.739 295.051 789.92 294.331 790.283 293.68C790.645 293.019 791.152 292.491 791.803 292.096C792.453 291.691 793.216 291.488 794.091 291.488C794.965 291.488 795.717 291.691 796.347 292.096C796.987 292.491 797.483 293.013 797.835 293.664C798.187 294.315 798.363 295.013 798.363 295.76C798.363 295.888 798.357 296.011 798.347 296.128C798.336 296.235 798.325 296.325 798.315 296.4H791.611C791.643 296.891 791.776 297.323 792.011 297.696C792.256 298.059 792.565 298.347 792.939 298.56C793.312 298.763 793.712 298.864 794.139 298.864C794.608 298.864 795.051 298.747 795.467 298.512C795.893 298.277 796.181 297.968 796.331 297.584L797.835 298.016C797.653 298.421 797.376 298.789 797.003 299.12C796.64 299.44 796.208 299.696 795.707 299.888C795.205 300.069 794.661 300.16 794.075 300.16ZM791.563 295.232H796.619C796.587 294.752 796.448 294.331 796.203 293.968C795.968 293.595 795.664 293.307 795.291 293.104C794.928 292.891 794.523 292.784 794.075 292.784C793.637 292.784 793.232 292.891 792.859 293.104C792.496 293.307 792.197 293.595 791.963 293.968C791.728 294.331 791.595 294.752 791.563 295.232ZM799.814 288.32H801.574V297.584C801.574 298.011 801.638 298.283 801.766 298.4C801.894 298.517 802.054 298.576 802.246 298.576C802.46 298.576 802.657 298.555 802.838 298.512C803.03 298.469 803.196 298.416 803.334 298.352L803.59 299.744C803.334 299.851 803.03 299.941 802.678 300.016C802.326 300.091 802.012 300.128 801.734 300.128C801.137 300.128 800.668 299.963 800.326 299.632C799.985 299.291 799.814 298.821 799.814 298.224V288.32ZM804.003 297.552C804.003 297.019 804.152 296.555 804.451 296.16C804.76 295.755 805.181 295.445 805.715 295.232C806.248 295.008 806.867 294.896 807.571 294.896C807.944 294.896 808.323 294.923 808.707 294.976C809.101 295.029 809.448 295.115 809.747 295.232V294.704C809.747 294.117 809.571 293.659 809.219 293.328C808.867 292.997 808.36 292.832 807.699 292.832C807.229 292.832 806.787 292.917 806.371 293.088C805.955 293.248 805.512 293.477 805.043 293.776L804.451 292.592C805.005 292.219 805.56 291.941 806.115 291.76C806.68 291.579 807.272 291.488 807.891 291.488C809.011 291.488 809.891 291.787 810.531 292.384C811.181 292.971 811.507 293.808 811.507 294.896V298.016C811.507 298.219 811.539 298.363 811.603 298.448C811.677 298.533 811.8 298.581 811.971 298.592V300C811.811 300.032 811.667 300.053 811.539 300.064C811.411 300.075 811.304 300.08 811.219 300.08C810.845 300.08 810.563 299.989 810.371 299.808C810.179 299.627 810.067 299.413 810.035 299.168L809.987 298.688C809.624 299.157 809.16 299.52 808.595 299.776C808.029 300.032 807.459 300.16 806.883 300.16C806.328 300.16 805.832 300.048 805.395 299.824C804.957 299.589 804.616 299.275 804.371 298.88C804.125 298.485 804.003 298.043 804.003 297.552ZM809.331 298.064C809.459 297.925 809.56 297.787 809.635 297.648C809.709 297.509 809.747 297.387 809.747 297.28V296.32C809.448 296.203 809.133 296.117 808.803 296.064C808.472 296 808.147 295.968 807.827 295.968C807.187 295.968 806.664 296.096 806.259 296.352C805.864 296.608 805.667 296.96 805.667 297.408C805.667 297.653 805.731 297.888 805.859 298.112C805.997 298.336 806.189 298.517 806.435 298.656C806.691 298.795 807.005 298.864 807.379 298.864C807.763 298.864 808.131 298.789 808.483 298.64C808.835 298.491 809.117 298.299 809.331 298.064ZM813.633 301.968C813.793 301.989 813.948 302.011 814.097 302.032C814.257 302.064 814.385 302.08 814.481 302.08C814.662 302.08 814.817 302.021 814.945 301.904C815.084 301.797 815.222 301.595 815.361 301.296C815.5 300.997 815.67 300.565 815.873 300L812.433 291.632H814.273L816.833 298.208L819.105 291.632H820.801L817.009 301.936C816.892 302.245 816.721 302.528 816.497 302.784C816.273 303.051 815.996 303.259 815.665 303.408C815.334 303.557 814.945 303.632 814.497 303.632C814.369 303.632 814.236 303.621 814.097 303.6C813.958 303.579 813.804 303.547 813.633 303.504V301.968ZM824.852 300.16C824.148 300.16 823.482 300.048 822.852 299.824C822.223 299.589 821.684 299.243 821.236 298.784L821.892 297.6C822.372 298.027 822.852 298.336 823.332 298.528C823.823 298.72 824.308 298.816 824.788 298.816C825.279 298.816 825.679 298.725 825.988 298.544C826.298 298.352 826.452 298.075 826.452 297.712C826.452 297.445 826.372 297.248 826.212 297.12C826.052 296.992 825.818 296.88 825.508 296.784C825.21 296.688 824.847 296.581 824.42 296.464C823.823 296.283 823.322 296.096 822.916 295.904C822.511 295.701 822.207 295.456 822.004 295.168C821.802 294.88 821.7 294.512 821.7 294.064C821.7 293.52 821.839 293.056 822.116 292.672C822.394 292.288 822.778 291.995 823.268 291.792C823.77 291.589 824.346 291.488 824.996 291.488C825.604 291.488 826.164 291.584 826.676 291.776C827.199 291.957 827.658 292.245 828.052 292.64L827.3 293.808C826.927 293.467 826.543 293.216 826.148 293.056C825.764 292.896 825.348 292.816 824.9 292.816C824.644 292.816 824.399 292.848 824.164 292.912C823.93 292.965 823.732 293.072 823.572 293.232C823.423 293.381 823.348 293.595 823.348 293.872C823.348 294.096 823.412 294.277 823.54 294.416C823.668 294.555 823.86 294.672 824.116 294.768C824.372 294.864 824.687 294.971 825.06 295.088C825.711 295.28 826.266 295.472 826.724 295.664C827.183 295.845 827.535 296.085 827.78 296.384C828.036 296.672 828.164 297.072 828.164 297.584C828.164 298.395 827.86 299.029 827.252 299.488C826.655 299.936 825.855 300.16 824.852 300.16ZM755.282 318.568C755.133 318.643 754.946 318.723 754.722 318.808C754.498 318.893 754.242 318.968 753.954 319.032C753.677 319.096 753.389 319.128 753.09 319.128C752.728 319.128 752.392 319.064 752.082 318.936C751.773 318.808 751.522 318.605 751.33 318.328C751.149 318.04 751.058 317.672 751.058 317.224V311.992H749.954V310.632H751.058V307.88H752.818V310.632H754.642V311.992H752.818V316.664C752.84 316.952 752.93 317.165 753.09 317.304C753.261 317.443 753.469 317.512 753.714 317.512C753.96 317.512 754.194 317.469 754.418 317.384C754.642 317.299 754.808 317.229 754.914 317.176L755.282 318.568ZM760.152 319.16C759.491 319.16 758.899 319.048 758.376 318.824C757.853 318.589 757.4 318.269 757.016 317.864C756.643 317.459 756.355 317 756.152 316.488C755.949 315.965 755.848 315.411 755.848 314.824C755.848 314.237 755.949 313.683 756.152 313.16C756.355 312.637 756.643 312.179 757.016 311.784C757.4 311.379 757.853 311.064 758.376 310.84C758.909 310.605 759.501 310.488 760.152 310.488C760.803 310.488 761.389 310.605 761.912 310.84C762.445 311.064 762.899 311.379 763.272 311.784C763.656 312.179 763.949 312.637 764.152 313.16C764.355 313.683 764.456 314.237 764.456 314.824C764.456 315.411 764.355 315.965 764.152 316.488C763.949 317 763.656 317.459 763.272 317.864C762.899 318.269 762.445 318.589 761.912 318.824C761.389 319.048 760.803 319.16 760.152 319.16ZM757.656 314.84C757.656 315.373 757.768 315.853 757.992 316.28C758.216 316.707 758.515 317.043 758.888 317.288C759.261 317.533 759.683 317.656 760.152 317.656C760.611 317.656 761.027 317.533 761.4 317.288C761.784 317.032 762.088 316.691 762.312 316.264C762.536 315.827 762.648 315.347 762.648 314.824C762.648 314.291 762.536 313.811 762.312 313.384C762.088 312.957 761.784 312.621 761.4 312.376C761.027 312.12 760.611 311.992 760.152 311.992C759.683 311.992 759.261 312.12 758.888 312.376C758.515 312.632 758.216 312.973 757.992 313.4C757.768 313.816 757.656 314.296 757.656 314.84ZM774.674 312.152C773.991 312.163 773.383 312.317 772.85 312.616C772.327 312.915 771.954 313.336 771.73 313.88V319H769.97V310.632H771.602V312.504C771.89 311.928 772.269 311.469 772.738 311.128C773.207 310.776 773.703 310.584 774.226 310.552C774.333 310.552 774.418 310.552 774.482 310.552C774.557 310.552 774.621 310.557 774.674 310.568V312.152ZM779.59 319.16C778.94 319.16 778.348 319.048 777.814 318.824C777.292 318.589 776.838 318.275 776.454 317.88C776.07 317.475 775.772 317.016 775.558 316.504C775.356 315.981 775.254 315.427 775.254 314.84C775.254 314.051 775.436 313.331 775.798 312.68C776.161 312.019 776.668 311.491 777.318 311.096C777.969 310.691 778.732 310.488 779.606 310.488C780.481 310.488 781.233 310.691 781.862 311.096C782.502 311.491 782.998 312.013 783.35 312.664C783.702 313.315 783.878 314.013 783.878 314.76C783.878 314.888 783.873 315.011 783.862 315.128C783.852 315.235 783.841 315.325 783.83 315.4H777.126C777.158 315.891 777.292 316.323 777.526 316.696C777.772 317.059 778.081 317.347 778.454 317.56C778.828 317.763 779.228 317.864 779.654 317.864C780.124 317.864 780.566 317.747 780.982 317.512C781.409 317.277 781.697 316.968 781.846 316.584L783.35 317.016C783.169 317.421 782.892 317.789 782.518 318.12C782.156 318.44 781.724 318.696 781.222 318.888C780.721 319.069 780.177 319.16 779.59 319.16ZM777.078 314.232H782.134C782.102 313.752 781.964 313.331 781.718 312.968C781.484 312.595 781.18 312.307 780.806 312.104C780.444 311.891 780.038 311.784 779.59 311.784C779.153 311.784 778.748 311.891 778.374 312.104C778.012 312.307 777.713 312.595 777.478 312.968C777.244 313.331 777.11 313.752 777.078 314.232ZM789.074 319.16C788.412 319.16 787.82 319.048 787.298 318.824C786.775 318.589 786.322 318.269 785.938 317.864C785.564 317.459 785.276 317 785.074 316.488C784.871 315.965 784.77 315.411 784.77 314.824C784.77 314.237 784.871 313.683 785.074 313.16C785.276 312.637 785.564 312.179 785.938 311.784C786.322 311.379 786.775 311.064 787.298 310.84C787.831 310.605 788.423 310.488 789.074 310.488C789.724 310.488 790.311 310.605 790.834 310.84C791.367 311.064 791.82 311.379 792.194 311.784C792.578 312.179 792.871 312.637 793.074 313.16C793.276 313.683 793.378 314.237 793.378 314.824C793.378 315.411 793.276 315.965 793.074 316.488C792.871 317 792.578 317.459 792.194 317.864C791.82 318.269 791.367 318.589 790.834 318.824C790.311 319.048 789.724 319.16 789.074 319.16ZM786.578 314.84C786.578 315.373 786.69 315.853 786.914 316.28C787.138 316.707 787.436 317.043 787.81 317.288C788.183 317.533 788.604 317.656 789.074 317.656C789.532 317.656 789.948 317.533 790.322 317.288C790.706 317.032 791.01 316.691 791.234 316.264C791.458 315.827 791.57 315.347 791.57 314.824C791.57 314.291 791.458 313.811 791.234 313.384C791.01 312.957 790.706 312.621 790.322 312.376C789.948 312.12 789.532 311.992 789.074 311.992C788.604 311.992 788.183 312.12 787.81 312.376C787.436 312.632 787.138 312.973 786.914 313.4C786.69 313.816 786.578 314.296 786.578 314.84ZM799.643 312.152C798.96 312.163 798.352 312.317 797.819 312.616C797.296 312.915 796.923 313.336 796.699 313.88V319H794.939V310.632H796.571V312.504C796.859 311.928 797.237 311.469 797.707 311.128C798.176 310.776 798.672 310.584 799.195 310.552C799.301 310.552 799.387 310.552 799.451 310.552C799.525 310.552 799.589 310.557 799.643 310.568V312.152ZM800.27 314.824C800.27 314.024 800.43 313.299 800.75 312.648C801.081 311.987 801.529 311.464 802.094 311.08C802.66 310.685 803.31 310.488 804.046 310.488C804.686 310.488 805.262 310.653 805.774 310.984C806.297 311.315 806.702 311.725 806.99 312.216V307.32H808.75V317.016C808.75 317.219 808.788 317.363 808.862 317.448C808.937 317.533 809.06 317.581 809.23 317.592V319C808.9 319.053 808.644 319.08 808.462 319.08C808.132 319.08 807.849 318.984 807.614 318.792C807.39 318.6 807.273 318.371 807.262 318.104L807.246 317.48C806.926 318.013 806.494 318.429 805.95 318.728C805.406 319.016 804.841 319.16 804.254 319.16C803.678 319.16 803.145 319.048 802.654 318.824C802.174 318.6 801.753 318.285 801.39 317.88C801.038 317.475 800.761 317.011 800.558 316.488C800.366 315.965 800.27 315.411 800.27 314.824ZM806.99 315.992V313.8C806.873 313.459 806.681 313.155 806.414 312.888C806.158 312.611 805.865 312.392 805.534 312.232C805.214 312.072 804.894 311.992 804.574 311.992C804.201 311.992 803.86 312.072 803.55 312.232C803.252 312.392 802.99 312.605 802.766 312.872C802.553 313.139 802.388 313.443 802.27 313.784C802.153 314.125 802.094 314.483 802.094 314.856C802.094 315.24 802.158 315.603 802.286 315.944C802.414 316.275 802.596 316.573 802.83 316.84C803.076 317.096 803.353 317.299 803.662 317.448C803.982 317.587 804.329 317.656 804.702 317.656C804.937 317.656 805.172 317.613 805.406 317.528C805.652 317.443 805.881 317.325 806.094 317.176C806.318 317.027 806.505 316.851 806.654 316.648C806.814 316.445 806.926 316.227 806.99 315.992ZM814.778 319.16C814.127 319.16 813.535 319.048 813.002 318.824C812.479 318.589 812.026 318.275 811.642 317.88C811.258 317.475 810.959 317.016 810.746 316.504C810.543 315.981 810.442 315.427 810.442 314.84C810.442 314.051 810.623 313.331 810.986 312.68C811.348 312.019 811.855 311.491 812.506 311.096C813.156 310.691 813.919 310.488 814.794 310.488C815.668 310.488 816.42 310.691 817.05 311.096C817.69 311.491 818.186 312.013 818.538 312.664C818.89 313.315 819.066 314.013 819.066 314.76C819.066 314.888 819.06 315.011 819.05 315.128C819.039 315.235 819.028 315.325 819.018 315.4H812.314C812.346 315.891 812.479 316.323 812.714 316.696C812.959 317.059 813.268 317.347 813.642 317.56C814.015 317.763 814.415 317.864 814.842 317.864C815.311 317.864 815.754 317.747 816.17 317.512C816.596 317.277 816.884 316.968 817.034 316.584L818.538 317.016C818.356 317.421 818.079 317.789 817.706 318.12C817.343 318.44 816.911 318.696 816.41 318.888C815.908 319.069 815.364 319.16 814.778 319.16ZM812.266 314.232H817.322C817.29 313.752 817.151 313.331 816.906 312.968C816.671 312.595 816.367 312.307 815.994 312.104C815.631 311.891 815.226 311.784 814.778 311.784C814.34 311.784 813.935 311.891 813.562 312.104C813.199 312.307 812.9 312.595 812.666 312.968C812.431 313.331 812.298 313.752 812.266 314.232ZM825.205 312.152C824.523 312.163 823.915 312.317 823.381 312.616C822.859 312.915 822.485 313.336 822.261 313.88V319H820.501V310.632H822.133V312.504C822.421 311.928 822.8 311.469 823.269 311.128C823.739 310.776 824.235 310.584 824.757 310.552C824.864 310.552 824.949 310.552 825.013 310.552C825.088 310.552 825.152 310.557 825.205 310.568V312.152Z"
     fill="black"
     id="path21442" />
  <rect
     x="341.5"
     y="268.5"
     width="58"
     height="57"
     rx="7.5"
     fill="white"
     stroke="black"
     id="rect21444" />
  <path
     d="M348.819 293V281.64H353.587C354.099 281.64 354.568 281.747 354.995 281.96C355.422 282.173 355.795 282.456 356.115 282.808C356.435 283.16 356.68 283.555 356.851 283.992C357.022 284.429 357.107 284.877 357.107 285.336C357.107 285.965 356.963 286.568 356.675 287.144C356.398 287.709 355.998 288.168 355.475 288.52C354.963 288.872 354.366 289.048 353.683 289.048H350.611V293H348.819ZM350.611 287.464H353.571C353.912 287.464 354.211 287.373 354.467 287.192C354.723 287 354.92 286.744 355.059 286.424C355.208 286.104 355.283 285.741 355.283 285.336C355.283 284.92 355.198 284.552 355.027 284.232C354.856 283.912 354.632 283.667 354.355 283.496C354.088 283.315 353.795 283.224 353.475 283.224H350.611V287.464ZM366.068 293H364.308V288.312C364.308 287.555 364.169 286.989 363.892 286.616C363.615 286.243 363.225 286.056 362.724 286.056C362.415 286.056 362.095 286.141 361.764 286.312C361.433 286.483 361.14 286.717 360.884 287.016C360.628 287.304 360.441 287.64 360.324 288.024V293H358.564V281.32H360.324V286.312C360.644 285.747 361.081 285.304 361.636 284.984C362.191 284.653 362.788 284.488 363.428 284.488C363.951 284.488 364.383 284.579 364.724 284.76C365.065 284.941 365.332 285.192 365.524 285.512C365.727 285.821 365.865 286.184 365.94 286.6C366.025 287.005 366.068 287.437 366.068 287.896V293ZM367.503 290.552C367.503 290.019 367.652 289.555 367.951 289.16C368.26 288.755 368.681 288.445 369.215 288.232C369.748 288.008 370.367 287.896 371.071 287.896C371.444 287.896 371.823 287.923 372.207 287.976C372.601 288.029 372.948 288.115 373.247 288.232V287.704C373.247 287.117 373.071 286.659 372.719 286.328C372.367 285.997 371.86 285.832 371.199 285.832C370.729 285.832 370.287 285.917 369.871 286.088C369.455 286.248 369.012 286.477 368.543 286.776L367.951 285.592C368.505 285.219 369.06 284.941 369.615 284.76C370.18 284.579 370.772 284.488 371.391 284.488C372.511 284.488 373.391 284.787 374.031 285.384C374.681 285.971 375.007 286.808 375.007 287.896V291.016C375.007 291.219 375.039 291.363 375.103 291.448C375.177 291.533 375.3 291.581 375.471 291.592V293C375.311 293.032 375.167 293.053 375.039 293.064C374.911 293.075 374.804 293.08 374.719 293.08C374.345 293.08 374.063 292.989 373.871 292.808C373.679 292.627 373.567 292.413 373.535 292.168L373.487 291.688C373.124 292.157 372.66 292.52 372.095 292.776C371.529 293.032 370.959 293.16 370.383 293.16C369.828 293.16 369.332 293.048 368.895 292.824C368.457 292.589 368.116 292.275 367.871 291.88C367.625 291.485 367.503 291.043 367.503 290.552ZM372.831 291.064C372.959 290.925 373.06 290.787 373.135 290.648C373.209 290.509 373.247 290.387 373.247 290.28V289.32C372.948 289.203 372.633 289.117 372.303 289.064C371.972 289 371.647 288.968 371.327 288.968C370.687 288.968 370.164 289.096 369.759 289.352C369.364 289.608 369.167 289.96 369.167 290.408C369.167 290.653 369.231 290.888 369.359 291.112C369.497 291.336 369.689 291.517 369.935 291.656C370.191 291.795 370.505 291.864 370.879 291.864C371.263 291.864 371.631 291.789 371.983 291.64C372.335 291.491 372.617 291.299 372.831 291.064ZM380.118 293.16C379.414 293.16 378.747 293.048 378.118 292.824C377.489 292.589 376.95 292.243 376.502 291.784L377.158 290.6C377.638 291.027 378.118 291.336 378.598 291.528C379.089 291.72 379.574 291.816 380.054 291.816C380.545 291.816 380.945 291.725 381.254 291.544C381.563 291.352 381.718 291.075 381.718 290.712C381.718 290.445 381.638 290.248 381.478 290.12C381.318 289.992 381.083 289.88 380.774 289.784C380.475 289.688 380.113 289.581 379.686 289.464C379.089 289.283 378.587 289.096 378.182 288.904C377.777 288.701 377.473 288.456 377.27 288.168C377.067 287.88 376.966 287.512 376.966 287.064C376.966 286.52 377.105 286.056 377.382 285.672C377.659 285.288 378.043 284.995 378.534 284.792C379.035 284.589 379.611 284.488 380.262 284.488C380.87 284.488 381.43 284.584 381.942 284.776C382.465 284.957 382.923 285.245 383.318 285.64L382.566 286.808C382.193 286.467 381.809 286.216 381.414 286.056C381.03 285.896 380.614 285.816 380.166 285.816C379.91 285.816 379.665 285.848 379.43 285.912C379.195 285.965 378.998 286.072 378.838 286.232C378.689 286.381 378.614 286.595 378.614 286.872C378.614 287.096 378.678 287.277 378.806 287.416C378.934 287.555 379.126 287.672 379.382 287.768C379.638 287.864 379.953 287.971 380.326 288.088C380.977 288.28 381.531 288.472 381.99 288.664C382.449 288.845 382.801 289.085 383.046 289.384C383.302 289.672 383.43 290.072 383.43 290.584C383.43 291.395 383.126 292.029 382.518 292.488C381.921 292.936 381.121 293.16 380.118 293.16ZM388.793 293.16C388.143 293.16 387.551 293.048 387.017 292.824C386.495 292.589 386.041 292.275 385.657 291.88C385.273 291.475 384.975 291.016 384.761 290.504C384.559 289.981 384.457 289.427 384.457 288.84C384.457 288.051 384.639 287.331 385.001 286.68C385.364 286.019 385.871 285.491 386.521 285.096C387.172 284.691 387.935 284.488 388.809 284.488C389.684 284.488 390.436 284.691 391.065 285.096C391.705 285.491 392.201 286.013 392.553 286.664C392.905 287.315 393.081 288.013 393.081 288.76C393.081 288.888 393.076 289.011 393.065 289.128C393.055 289.235 393.044 289.325 393.033 289.4H386.329C386.361 289.891 386.495 290.323 386.729 290.696C386.975 291.059 387.284 291.347 387.657 291.56C388.031 291.763 388.431 291.864 388.857 291.864C389.327 291.864 389.769 291.747 390.185 291.512C390.612 291.277 390.9 290.968 391.049 290.584L392.553 291.016C392.372 291.421 392.095 291.789 391.721 292.12C391.359 292.44 390.927 292.696 390.425 292.888C389.924 293.069 389.38 293.16 388.793 293.16ZM386.281 288.232H391.337C391.305 287.752 391.167 287.331 390.921 286.968C390.687 286.595 390.383 286.307 390.009 286.104C389.647 285.891 389.241 285.784 388.793 285.784C388.356 285.784 387.951 285.891 387.577 286.104C387.215 286.307 386.916 286.595 386.681 286.968C386.447 287.331 386.313 287.752 386.281 288.232ZM361.117 303.312C361.011 303.195 360.856 303.072 360.653 302.944C360.451 302.805 360.211 302.677 359.933 302.56C359.656 302.443 359.357 302.347 359.037 302.272C358.717 302.197 358.387 302.16 358.045 302.16C357.299 302.16 356.744 302.299 356.381 302.576C356.019 302.853 355.837 303.237 355.837 303.728C355.837 304.091 355.939 304.379 356.141 304.592C356.344 304.795 356.653 304.965 357.069 305.104C357.485 305.243 358.008 305.392 358.637 305.552C359.405 305.733 360.072 305.952 360.637 306.208C361.203 306.453 361.635 306.784 361.933 307.2C362.232 307.616 362.381 308.165 362.381 308.848C362.381 309.424 362.275 309.92 362.061 310.336C361.848 310.752 361.549 311.093 361.165 311.36C360.781 311.616 360.339 311.808 359.837 311.936C359.336 312.053 358.797 312.112 358.221 312.112C357.656 312.112 357.091 312.053 356.525 311.936C355.971 311.819 355.437 311.648 354.925 311.424C354.424 311.189 353.96 310.907 353.533 310.576L354.349 309.04C354.488 309.179 354.685 309.333 354.941 309.504C355.208 309.664 355.512 309.819 355.853 309.968C356.205 310.117 356.584 310.245 356.989 310.352C357.405 310.448 357.827 310.496 358.253 310.496C358.968 310.496 359.512 310.373 359.885 310.128C360.269 309.872 360.461 309.509 360.461 309.04C360.461 308.656 360.339 308.352 360.093 308.128C359.848 307.893 359.491 307.696 359.021 307.536C358.552 307.376 357.992 307.216 357.341 307.056C356.595 306.853 355.971 306.635 355.469 306.4C354.968 306.155 354.589 305.845 354.333 305.472C354.088 305.088 353.965 304.603 353.965 304.016C353.965 303.269 354.147 302.64 354.509 302.128C354.872 301.605 355.363 301.216 355.981 300.96C356.611 300.693 357.315 300.56 358.093 300.56C358.605 300.56 359.091 300.619 359.549 300.736C360.008 300.843 360.435 300.992 360.829 301.184C361.235 301.376 361.603 301.595 361.933 301.84L361.117 303.312ZM371.443 312H369.683V307.312C369.683 306.555 369.544 305.989 369.267 305.616C368.99 305.243 368.6 305.056 368.099 305.056C367.79 305.056 367.47 305.141 367.139 305.312C366.808 305.483 366.515 305.717 366.259 306.016C366.003 306.304 365.816 306.64 365.699 307.024V312H363.939V300.32H365.699V305.312C366.019 304.747 366.456 304.304 367.011 303.984C367.566 303.653 368.163 303.488 368.803 303.488C369.326 303.488 369.758 303.579 370.099 303.76C370.44 303.941 370.707 304.192 370.899 304.512C371.102 304.821 371.24 305.184 371.315 305.6C371.4 306.005 371.443 306.437 371.443 306.896V312ZM373.486 312V303.632H375.246V312H373.486ZM373.486 302.256V300.32H375.246V302.256H373.486ZM377.841 312V305.2H376.721V303.84H377.841V303.504C377.841 302.821 377.947 302.229 378.161 301.728C378.385 301.227 378.694 300.843 379.089 300.576C379.494 300.299 379.969 300.16 380.513 300.16C380.854 300.16 381.19 300.208 381.521 300.304C381.851 300.389 382.166 300.512 382.465 300.672L382.081 301.984C381.921 301.877 381.729 301.797 381.505 301.744C381.291 301.68 381.083 301.648 380.881 301.648C380.475 301.648 380.161 301.803 379.937 302.112C379.713 302.421 379.601 302.869 379.601 303.456V303.84H381.745V305.2H379.601V312H377.841ZM387.72 311.568C387.571 311.643 387.384 311.723 387.16 311.808C386.936 311.893 386.68 311.968 386.392 312.032C386.115 312.096 385.827 312.128 385.528 312.128C385.165 312.128 384.829 312.064 384.52 311.936C384.211 311.808 383.96 311.605 383.768 311.328C383.587 311.04 383.496 310.672 383.496 310.224V304.992H382.392V303.632H383.496V300.88H385.256V303.632H387.08V304.992H385.256V309.664C385.277 309.952 385.368 310.165 385.528 310.304C385.699 310.443 385.907 310.512 386.152 310.512C386.397 310.512 386.632 310.469 386.856 310.384C387.08 310.299 387.245 310.229 387.352 310.176L387.72 311.568Z"
     fill="black"
     id="path21446" />
  <path
     d="M321.324 130C313.336 130 312.679 157 304 157H339C330.321 157 329.664 130 321.676 130H321.324Z"
     fill="#C2E5F9"
     stroke="black"
     id="path21448" />
  <path
     d="M423.324 130C415.336 130 414.679 157 406 157H441C432.321 157 431.664 130 423.676 130H423.324Z"
     fill="#C2E5F9"
     stroke="black"
     id="path21450" />
  <path
     d="M372.324 130C364.336 130 363.679 157 355 157H390C381.321 157 380.664 130 372.676 130H372.324Z"
     fill="#C2E5F9"
     stroke="black"
     id="path21452" />
  <path
     d="M474.324 130C466.336 130 465.679 157 457 157H492C483.321 157 482.664 130 474.676 130H474.324Z"
     fill="#C2E5F9"
     stroke="black"
     id="path21454" />
  <path
     d="M424.324 268C416.336 268 415.679 295 407 295H442C433.321 295 432.664 268 424.676 268H424.324Z"
     fill="#C2E5F9"
     stroke="black"
     id="path21456" />
  <path
     d="M533.324 268C525.336 268 524.679 295 516 295H551C542.321 295 541.664 268 533.676 268H533.324Z"
     fill="#C2E5F9"
     stroke="black"
     id="path21458" />
  <path
     d="M703.324 268C695.336 268 694.679 295 686 295H721C712.321 295 711.664 268 703.676 268H703.324Z"
     fill="#C2E5F9"
     stroke="black"
     id="path21460" />
  <path
     d="M712.324 130C704.336 130 703.679 157 695 157H730C721.321 157 720.664 130 712.676 130H712.324Z"
     fill="#C2E5F9"
     stroke="black"
     id="path21462" />
  <path
     d="M814.324 130C806.336 130 805.679 157 797 157H832C823.321 157 822.664 130 814.676 130H814.324Z"
     fill="#C2E5F9"
     stroke="black"
     id="path21464" />
  <path
     d="M763.324 130C755.336 130 754.679 157 746 157H781C772.321 157 771.664 130 763.676 130H763.324Z"
     fill="#C2E5F9"
     stroke="black"
     id="path21466" />
  <path
     d="M865.324 130C857.336 130 856.679 157 848 157H883C874.321 157 873.664 130 865.676 130H865.324Z"
     fill="#C2E5F9"
     stroke="black"
     id="path21468" />
  <circle
     cx="504"
     cy="138"
     r="3.5"
     fill="#C2E5F9"
     stroke="black"
     id="circle21470" />
  <circle
     cx="516"
     cy="138"
     r="3.5"
     fill="#C2E5F9"
     stroke="black"
     id="circle21472" />
  <circle
     cx="528"
     cy="138"
     r="3.5"
     fill="#C2E5F9"
     stroke="black"
     id="circle21474" />
  <circle
     cx="659"
     cy="138"
     r="3.5"
     fill="#C2E5F9"
     stroke="black"
     id="circle21476" />
  <circle
     cx="671"
     cy="138"
     r="3.5"
     fill="#C2E5F9"
     stroke="black"
     id="circle21478" />
  <circle
     cx="683"
     cy="138"
     r="3.5"
     fill="#C2E5F9"
     stroke="black"
     id="circle21480" />
  <text
     xml:space="preserve"
     style="text-align:center;text-anchor:middle;fill:#000000;stroke:#000000;stroke-width:20"
     x="411.60101"
     y="553.87201"
     id="text21607"><tspan
       sodipodi:role="line"
       id="tspan21605"
       x="411.60101"
       y="553.87201" /></text>
  <text
     xml:space="preserve"
     style="font-size:15.3319px;text-align:center;text-anchor:middle;fill:#000000;fill-opacity:1;stroke:none;stroke-width:25.5532"
     x="410.24921"
     y="555.6864"
     id="text21665"><tspan
       sodipodi:role="line"
       id="tspan21663"
       x="410.24921"
       y="555.6864"
       style="stroke-width:25.5532">D/2</tspan></text>
  <text
     xml:space="preserve"
     style="font-size:15.3319px;text-align:center;text-anchor:middle;fill:#000000;fill-opacity:1;stroke:none;stroke-width:25.5532"
     x="773.24921"
     y="478.6864"
     id="text21665-1"><tspan
       sodipodi:role="line"
       id="tspan21663-8"
       x="773.24921"
       y="478.6864"
       style="stroke-width:25.5532">D/2</tspan></text>
  <line
     x1="678.11139"
     y1="315.47501"
     x2="1155.16"
     y2="427.52499"
     stroke="#000000"
     id="line21368"
     style="stroke-width:1.31084" />
</svg>
