<svg width="640" height="440" viewBox="0 0 640 440" fill="none" xmlns="http://www.w3.org/2000/svg">
<rect x="0.5" y="0.5" width="639" height="439" fill="#F6F3ED"/>
<rect x="0.5" y="0.5" width="639" height="439" stroke="#E0DBC8"/>
<path d="M126.769 181.001H329.678V49.2188H126.769V181.001Z" fill="white"/>
<path d="M182.108 181.001V185.667Z" fill="black"/>
<path d="M182.108 181.001V185.667" stroke="black" stroke-width="1.06667"/>
<path d="M274.339 181.001V185.667Z" fill="black"/>
<path d="M274.339 181.001V185.667" stroke="black" stroke-width="1.06667"/>
<path d="M126.769 175.011H122.102Z" fill="black"/>
<path d="M126.769 175.011H122.102" stroke="black" stroke-width="1.06667"/>
<path d="M91.9857 169.328C90.9712 169.328 90.2076 169.828 89.6951 170.828C89.1847 171.826 88.9295 173.328 88.9295 175.334C88.9295 177.332 89.1847 178.831 89.6951 179.831C90.2076 180.831 90.9712 181.331 91.9857 181.331C93.0087 181.331 93.7753 180.831 94.2857 179.831C94.7982 178.831 95.0545 177.332 95.0545 175.334C95.0545 173.328 94.7982 171.826 94.2857 170.828C93.7753 169.828 93.0087 169.328 91.9857 169.328ZM91.9857 167.765C93.6212 167.765 94.8701 168.412 95.7326 169.706C96.5951 170.998 97.0264 172.874 97.0264 175.334C97.0264 177.788 96.5951 179.662 95.7326 180.956C94.8701 182.248 93.6212 182.893 91.9857 182.893C90.3524 182.893 89.1045 182.248 88.242 180.956C87.3795 179.662 86.9482 177.788 86.9482 175.334C86.9482 172.874 87.3795 170.998 88.242 169.706C89.1045 168.412 90.3524 167.765 91.9857 167.765Z" fill="black"/>
<path d="M100.492 180.128H102.554V182.609H100.492V180.128Z" fill="black"/>
<path d="M111.068 169.328C110.053 169.328 109.29 169.828 108.777 170.828C108.267 171.826 108.012 173.328 108.012 175.334C108.012 177.332 108.267 178.831 108.777 179.831C109.29 180.831 110.053 181.331 111.068 181.331C112.091 181.331 112.857 180.831 113.368 179.831C113.88 178.831 114.137 177.332 114.137 175.334C114.137 173.328 113.88 171.826 113.368 170.828C112.857 169.828 112.091 169.328 111.068 169.328ZM111.068 167.765C112.703 167.765 113.952 168.412 114.815 169.706C115.677 170.998 116.108 172.874 116.108 175.334C116.108 177.788 115.677 179.662 114.815 180.956C113.952 182.248 112.703 182.893 111.068 182.893C109.434 182.893 108.187 182.248 107.324 180.956C106.462 179.662 106.03 177.788 106.03 175.334C106.03 172.874 106.462 170.998 107.324 169.706C108.187 168.412 109.434 167.765 111.068 167.765Z" fill="black"/>
<path d="M126.769 115.104H122.102Z" fill="black"/>
<path d="M126.769 115.104H122.102" stroke="black" stroke-width="1.06667"/>
<path d="M126.769 55.1985H122.102Z" fill="black"/>
<path d="M126.769 55.1985H122.102" stroke="black" stroke-width="1.06667"/>
<path d="M88.1105 61.1375H91.3324V50.0125L87.8262 50.7156V48.9187L91.3137 48.2156H93.2855V61.1375H96.5074V62.7969H88.1105V61.1375Z" fill="black"/>
<path d="M100.491 60.3156H102.554V62.7969H100.491V60.3156Z" fill="black"/>
<path d="M111.068 49.5157C110.053 49.5157 109.289 50.0157 108.777 51.0157C108.266 52.0136 108.011 53.5157 108.011 55.5219C108.011 57.5198 108.266 59.0188 108.777 60.0188C109.289 61.0188 110.053 61.5188 111.068 61.5188C112.09 61.5188 112.857 61.0188 113.368 60.0188C113.88 59.0188 114.136 57.5198 114.136 55.5219C114.136 53.5157 113.88 52.0136 113.368 51.0157C112.857 50.0157 112.09 49.5157 111.068 49.5157ZM111.068 47.9532C112.703 47.9532 113.952 48.6 114.814 49.8938C115.677 51.1855 116.108 53.0615 116.108 55.5219C116.108 57.9761 115.677 59.85 114.814 61.1438C113.952 62.4355 112.703 63.0813 111.068 63.0813C109.434 63.0813 108.186 62.4355 107.324 61.1438C106.461 59.85 106.03 57.9761 106.03 55.5219C106.03 53.0615 106.461 51.1855 107.324 49.8938C108.186 48.6 109.434 47.9532 111.068 47.9532Z" fill="black"/>
<mask id="mask0_1270_27" style="mask-type:luminance" maskUnits="userSpaceOnUse" x="126" y="49" width="204" height="133">
<path d="M329.678 49.2188H126.769V181.001H329.678V49.2188Z" fill="white"/>
</mask>
<g mask="url(#mask0_1270_27)">
<path d="M135.992 175.008L149.896 174.848L153.604 174.55L156.385 174.025L158.239 173.396L160.093 172.398L161.947 170.849L162.874 169.794L163.801 168.506L164.728 166.946L165.655 165.077L167.508 160.263L169.362 153.867L171.216 145.969L174.924 128.907L175.851 125.602L176.778 123.262L177.705 122.177L178.632 122.566L179.559 124.52L180.486 127.942L182.34 137.645L183.267 142.624L184.194 146.639L185.12 149.016L186.047 149.424L186.974 148.042L188.828 143.35L189.755 142.505L190.682 144.002L191.609 147.994L194.39 164.561L195.317 167.029L196.244 166.933L197.171 164.894L198.098 162.146L199.025 160.173L199.952 160.208L200.879 162.577L201.806 166.22L202.733 169.061L203.659 169.384L204.586 167.088L207.367 155.603L208.294 153.528L209.221 155.074L212.002 169.896L212.929 171.179L213.856 170.972L214.783 170.184L215.71 170.049L216.637 172.081L217.564 174.513L218.491 174.813L219.418 173.634L220.345 171.175L221.271 165.12L222.198 155.082L223.125 158.688L224.052 168.364L224.979 173.643L225.906 174.204L227.76 171.557L228.687 174.355L229.614 172.504L230.541 168.794L231.468 171.635L232.395 172.485L234.249 175.004L235.176 170.429L236.103 162.992L237.03 168.796L237.957 172.478L238.884 171.879L239.81 174.115L240.737 172.367L241.664 174.325L242.591 172.951L243.518 174.982L244.445 165.85L245.372 172.563L246.299 174.41L247.226 174.971L248.153 170.995L249.08 173.623L250.007 174.078L250.934 171.59L251.861 165.524L252.788 174.686L255.569 168.946L256.496 171.348L257.422 170.369L258.349 174.094L259.276 169.647L260.203 169.351L261.13 174.131L262.057 174.365L262.984 175.004L263.911 173.868L264.838 174.366L265.765 172.509L266.692 171.32L267.619 173.13L268.546 167.196L269.473 171.846L270.4 173.604L271.327 170.403L272.254 170.773L273.181 174.729L274.108 165.471L275.035 174.593L275.961 171.148L276.888 172.191L277.815 171.989L278.742 173.924L279.669 174.616L280.596 163.253L281.523 174.217L282.45 170.175L283.377 174.762L284.304 172.686L285.231 172.52L286.158 169.527L287.085 173.11L288.012 174.292L288.939 170.019L289.866 173.731L290.793 172.408L291.72 174.845L292.647 172.727L293.573 173.337L294.5 174.872L295.427 174.444L296.354 173.62L297.281 174.2L298.208 170.174L299.135 173.914L300.062 169.197L300.989 167.845L301.916 164.754L302.843 169.227L303.77 172.62L304.697 169.728L305.624 174.751L306.551 169.839L307.478 174.862L308.405 170.195L309.332 174.417L310.259 168.897L311.186 164.553L312.112 172.596L313.039 170.338L313.966 174.344L314.893 174.671L315.82 173.266L316.747 168.055L317.674 172.634L318.601 169.781L319.528 170.95L320.455 173.871" stroke="#5090C9" stroke-width="2" stroke-linecap="square"/>
</g>
<mask id="mask1_1270_27" style="mask-type:luminance" maskUnits="userSpaceOnUse" x="126" y="49" width="204" height="133">
<path d="M329.678 49.2188H126.769V181.001H329.678V49.2188Z" fill="white"/>
</mask>
<g mask="url(#mask1_1270_27)">
<path d="M135.992 175.008L149.896 174.848L153.604 174.549L156.385 174.022L158.239 173.39L160.093 172.387L161.947 170.83L162.874 169.769L163.801 168.473L164.728 166.904L165.655 165.023L167.508 160.183L169.362 153.765L171.216 145.883L174.924 129.334L175.851 126.384L176.778 124.549L177.705 124.144L178.632 125.404L179.559 128.409L180.486 133.01L183.267 150.638L184.194 154.693L185.12 156.21L186.047 154.687L186.974 150.302L188.828 137.545L189.755 132.705L190.682 131.003L191.609 132.923L192.536 137.684L194.39 148.563L195.317 151.428L196.244 151.778L197.171 149.897L198.098 146.142L199.025 140.733L200.879 127.334L201.806 122.225L202.733 120.884L203.659 124.551L204.586 131.425L205.513 135.842L206.44 132.704L208.294 115.681L210.148 102.258L211.075 95.5669L212.002 92.095L212.929 92.3524L213.856 101.974L214.783 119.871L215.71 126.514L216.637 117.317L217.564 117.395L219.418 153.936L220.345 157.161L221.271 152.781L222.198 156.841L223.125 166.017L224.052 172.439L224.979 173.868L225.906 172.442L226.833 170.295L227.76 165.98L228.687 169.231L229.614 171.556L230.541 171.747L231.468 173.459L232.395 171.108L233.322 169.626L234.249 162.741L235.176 163.199L236.103 172.694L237.03 171.928L237.957 161.17L238.884 153.525L239.81 166.768L240.737 174.562L241.664 155.51L242.591 174.4L243.518 151.427L244.445 167.12L245.372 174.355L246.299 168.161L247.226 153.427L248.153 160.558L249.08 170.993L250.007 169.754L250.934 166.889L251.861 174.642L252.788 140.745L253.715 168.693L254.642 128.119L255.569 158.645L256.496 158.218L257.422 159.978L258.349 139.612L259.276 165.475L260.203 170.931L261.13 171.864L262.057 168.325L262.984 158.374L263.911 127.622L264.838 161.709L265.765 174.229L266.692 170.979L267.619 164.762L268.546 149.377L269.473 122.992L270.4 165.719L271.327 172.861L272.254 166.236L273.181 129.623L274.108 162.796L275.035 160.034L275.961 166.227L276.888 156.231L277.815 159.603L278.742 151.985L279.669 173.997L280.596 169.756L281.523 174.635L282.45 155.801L283.377 153.717L284.304 127.223L285.231 167.941L286.158 169.26L287.085 146.31L288.012 146.413L288.939 171.761L289.866 158.914L290.793 164.148L291.72 147.314L292.647 144.419L293.573 174.803L294.5 162.871L295.427 143.126L296.354 173.281L297.281 135.113L298.208 147.405L299.135 173.001L300.062 160.247L300.989 150.259L301.916 171.861L302.843 158.943L303.77 161.586L304.697 145.126L305.624 170.286L306.551 170.925L307.478 170.517L308.405 172.759L309.332 147.689L310.259 167.201L311.186 154.114L312.112 156.365L313.039 168.518L313.966 158.788L314.893 163.957L315.82 172.776L316.747 174.967L317.674 158.483L318.601 168.196L319.528 174.703L320.455 136.912" stroke="#D75E5E" stroke-width="2" stroke-dasharray="7.4 3.2"/>
</g>
<path d="M126.769 181.001V49.2188" stroke="black" stroke-width="1.06667" stroke-linecap="square"/>
<path d="M329.678 181.001V49.2188" stroke="black" stroke-width="1.06667" stroke-linecap="square"/>
<path d="M126.769 181.001H329.678" stroke="black" stroke-width="1.06667" stroke-linecap="square"/>
<path d="M126.769 49.2188H329.678" stroke="black" stroke-width="1.06667" stroke-linecap="square"/>
<path d="M186.108 72.4015L184.827 79.0046H183.021L184.302 72.4703C184.36 72.164 184.405 71.8942 184.436 71.6609C184.47 71.4255 184.486 71.2401 184.486 71.1046C184.486 70.5567 184.313 70.1307 183.967 69.8265C183.624 69.5203 183.142 69.3671 182.524 69.3671C181.559 69.3671 180.729 69.688 180.033 70.3296C179.337 70.9692 178.881 71.839 178.664 72.939L177.464 79.0046H175.667L177.786 68.0671H179.583L179.224 69.7859C179.724 69.1546 180.325 68.6671 181.027 68.3234C181.731 67.9776 182.471 67.8046 183.246 67.8046C184.21 67.8046 184.957 68.0651 185.486 68.5859C186.017 69.1067 186.283 69.839 186.283 70.7828C186.283 71.0161 186.269 71.2661 186.239 71.5328C186.21 71.7994 186.166 72.089 186.108 72.4015Z" fill="black"/>
<path d="M194.47 74.9228V76.0997C194.114 75.9028 193.757 75.7555 193.4 75.6578C193.043 75.5601 192.682 75.5112 192.317 75.5112C191.5 75.5112 190.866 75.7701 190.414 76.2878C189.963 76.804 189.738 77.5296 189.738 78.4644C189.738 79.3992 189.963 80.1254 190.414 80.6431C190.866 81.1594 191.5 81.4175 192.317 81.4175C192.682 81.4175 193.043 81.3686 193.4 81.2709C193.757 81.1732 194.114 81.0259 194.47 80.829V81.9928C194.118 82.1561 193.754 82.2786 193.378 82.3603C193.003 82.4434 192.604 82.485 192.179 82.485C191.026 82.485 190.109 82.1226 189.43 81.3978C188.751 80.673 188.412 79.6952 188.412 78.4644C188.412 77.216 188.755 76.2346 189.44 75.52C190.127 74.8039 191.068 74.4459 192.262 74.4459C192.649 74.4459 193.027 74.486 193.395 74.5662C193.764 74.645 194.122 74.7638 194.47 74.9228Z" fill="black"/>
<path d="M199.841 82.9969C199.487 83.9083 199.141 84.5026 198.802 84.7797C198.465 85.0582 198.015 85.1975 197.45 85.1975H196.444V84.1453H197.184C197.529 84.1453 197.798 84.0629 197.989 83.8981C198.181 83.7348 198.393 83.3476 198.625 82.7366L198.85 82.1634L195.755 74.6297H197.087L199.48 80.6169L201.874 74.6297H203.206L199.841 82.9969Z" fill="black"/>
<path d="M210.452 74.9228V76.0997C210.096 75.9028 209.74 75.7555 209.382 75.6578C209.025 75.5601 208.664 75.5112 208.299 75.5112C207.483 75.5112 206.848 75.7701 206.396 76.2878C205.946 76.804 205.72 77.5296 205.72 78.4644C205.72 79.3992 205.946 80.1254 206.396 80.6431C206.848 81.1594 207.483 81.4175 208.299 81.4175C208.664 81.4175 209.025 81.3686 209.382 81.2709C209.74 81.1732 210.096 81.0259 210.452 80.829V81.9928C210.101 82.1561 209.737 82.2786 209.36 82.3603C208.986 82.4434 208.586 82.485 208.162 82.485C207.008 82.485 206.092 82.1226 205.412 81.3978C204.734 80.673 204.395 79.6952 204.395 78.4644C204.395 77.216 204.737 76.2346 205.423 75.52C206.11 74.8039 207.05 74.4459 208.245 74.4459C208.631 74.4459 209.009 74.486 209.378 74.5662C209.747 74.645 210.105 74.7638 210.452 74.9228Z" fill="black"/>
<path d="M212.639 71.6481H213.897V82.2859H212.639V71.6481Z" fill="black"/>
<path d="M223.078 78.1428V78.7575H217.294C217.35 79.6237 217.611 80.2836 218.077 80.7372C218.544 81.1907 219.194 81.4175 220.029 81.4175C220.511 81.4175 220.979 81.3584 221.433 81.2403C221.886 81.1222 222.337 80.9443 222.785 80.7065V81.8965C222.333 82.0876 221.87 82.2334 221.396 82.334C220.922 82.4347 220.441 82.485 219.954 82.485C218.732 82.485 217.765 82.1299 217.051 81.4197C216.338 80.708 215.982 79.7455 215.982 78.5322C215.982 77.2795 216.32 76.2856 216.997 75.5506C217.673 74.8142 218.586 74.4459 219.735 74.4459C220.765 74.4459 221.58 74.7777 222.179 75.4412C222.778 76.1033 223.078 77.0038 223.078 78.1428ZM221.82 77.7731C221.811 77.0862 221.619 76.5379 221.243 76.1281C220.866 75.7169 220.368 75.5112 219.749 75.5112C219.047 75.5112 218.486 75.7096 218.064 76.1062C217.643 76.5029 217.4 77.0614 217.336 77.7819L221.82 77.7731Z" fill="black"/>
<path d="M230.385 69.9234H242.904V71.564H230.385V69.9234ZM230.385 73.9078H242.904V75.5671H230.385V73.9078Z" fill="black"/>
<path d="M251.402 77.3453H254.623V66.2203L251.117 66.9234V65.1265L254.605 64.4234H256.577V77.3453H259.798V79.0046H251.402V77.3453Z" fill="black"/>
<path d="M268.001 65.7234C266.987 65.7234 266.223 66.2234 265.711 67.2234C265.2 68.2214 264.945 69.7234 264.945 71.7297C264.945 73.7276 265.2 75.2266 265.711 76.2266C266.223 77.2266 266.987 77.7266 268.001 77.7266C269.024 77.7266 269.791 77.2266 270.301 76.2266C270.814 75.2266 271.07 73.7276 271.07 71.7297C271.07 69.7234 270.814 68.2214 270.301 67.2234C269.791 66.2234 269.024 65.7234 268.001 65.7234ZM268.001 64.1609C269.637 64.1609 270.886 64.8078 271.748 66.1016C272.611 67.3932 273.042 69.2693 273.042 71.7297C273.042 74.1839 272.611 76.0578 271.748 77.3516C270.886 78.6432 269.637 79.2891 268.001 79.2891C266.368 79.2891 265.12 78.6432 264.258 77.3516C263.395 76.0578 262.964 74.1839 262.964 71.7297C262.964 69.2693 263.395 67.3932 264.258 66.1016C265.12 64.8078 266.368 64.1609 268.001 64.1609Z" fill="black"/>
<path d="M370.26 181.001H573.169V49.2188H370.26V181.001Z" fill="white"/>
<path d="M425.599 181.001V185.667Z" fill="black"/>
<path d="M425.599 181.001V185.667" stroke="black" stroke-width="1.06667"/>
<path d="M517.83 181.001V185.667Z" fill="black"/>
<path d="M517.83 181.001V185.667" stroke="black" stroke-width="1.06667"/>
<path d="M370.26 175.011H365.593Z" fill="black"/>
<path d="M370.26 175.011H365.593" stroke="black" stroke-width="1.06667"/>
<path d="M370.26 115.104H365.593Z" fill="black"/>
<path d="M370.26 115.104H365.593" stroke="black" stroke-width="1.06667"/>
<path d="M370.26 55.1985H365.593Z" fill="black"/>
<path d="M370.26 55.1985H365.593" stroke="black" stroke-width="1.06667"/>
<mask id="mask2_1270_27" style="mask-type:luminance" maskUnits="userSpaceOnUse" x="370" y="49" width="204" height="133">
<path d="M573.169 49.2188H370.26V181.001H573.169V49.2188Z" fill="white"/>
</mask>
<g mask="url(#mask2_1270_27)">
<path d="M379.483 175.009L394.314 174.87L398.022 174.611L400.803 174.152L402.657 173.598L404.511 172.714L406.365 171.331L407.292 170.383L408.219 169.22L409.146 167.803L410.072 166.095L410.999 164.055L412.853 158.847L414.707 152.033L416.561 143.827L419.342 131.041L420.269 127.588L421.196 125.076L422.123 123.855L423.05 124.225L423.977 126.372L424.904 130.29L425.831 135.705L427.684 148.367L428.611 153.607L429.538 156.61L430.465 156.491L431.392 152.93L432.319 146.416L434.173 130.587L435.1 125.31L436.027 123.888L436.954 126.502L439.735 143.497L440.662 146.672L441.589 148.076L442.516 148.614L443.443 148.761L444.37 147.675L445.297 143.153L446.223 133.057L448.077 104.534L449.004 100.257L449.931 107.511L450.858 117.538L451.785 118.889L452.712 110.171L453.639 99.1214L454.566 91.847L455.493 90.4242L457.347 98.9828L458.274 96.2915L459.201 91.7299L460.128 92.5124L461.055 89.5055L461.982 78.0239L462.909 69.6073L463.835 74.3045L464.762 85.3567L465.689 80.6887L466.616 70.5412L467.543 69.3081L468.47 70.538L469.397 70.9377L470.324 72.9245L472.178 64.2602L473.105 67.0838L474.032 65.8776L474.959 62.8926L475.886 64.9956L476.813 63.4966L477.74 63.5148L478.667 66.348L479.594 65.001L480.521 69.4685L481.448 76.6254L482.374 85.0174L484.228 107.739L485.155 115.625L486.082 121.142L487.009 125.076L487.936 126.552L488.863 124.168L489.79 123.486L490.717 127.829L491.644 136.285L492.571 150.16L493.498 161.698L494.425 160.177L495.352 172.481L496.279 172.61L497.206 174.086L498.133 175.008L500.913 175.003L501.84 174.795L503.694 174.975L504.621 174.444L505.548 174.558L506.475 174.998L507.402 170.043L508.329 173.235L510.183 168.433L511.11 169.26L512.037 151.303L512.964 159.332L513.891 163.964L514.818 171.768L515.745 169.554L516.672 171.544L517.599 174.188L518.525 167.018L519.452 174.01L520.379 170.87L521.306 169.558L522.233 167.558L523.16 167.555L524.087 173.99L525.014 165.534L525.941 172.827L526.868 168.625L527.795 172.33L528.722 171.567L529.649 169.126L530.576 170.449L531.503 174.091L532.43 173.537L533.357 174.454L534.284 173.616L535.211 174.095L536.137 171.994L537.064 174.627L537.991 174.044L539.845 169.736L540.772 173.976L541.699 168.84L542.626 173.59L543.553 173.045L544.48 170.035L545.407 173.755L546.334 171.912L547.261 169.501L548.188 173.933L549.115 174.639L550.042 172.992L550.969 169.586L551.896 174.33L552.823 173.472L553.75 174.663L554.676 170.302L555.603 173.894L556.53 167.915L557.457 170.561L558.384 173.944L559.311 174.896L560.238 170.214L561.165 175.003L562.092 168.331L563.019 173.135L563.946 165.866" stroke="#E7BF52" stroke-width="2" stroke-linecap="square"/>
</g>
<mask id="mask3_1270_27" style="mask-type:luminance" maskUnits="userSpaceOnUse" x="370" y="49" width="204" height="133">
<path d="M573.169 49.2188H370.26V181.001H573.169V49.2188Z" fill="white"/>
</mask>
<g mask="url(#mask3_1270_27)">
<path d="M379.483 175.009L394.314 174.87L398.022 174.611L400.803 174.152L402.657 173.599L404.511 172.715L406.365 171.333L407.292 170.386L408.219 169.224L409.146 167.809L410.072 166.103L410.999 164.066L412.853 158.868L414.707 152.07L416.561 143.893L419.342 131.19L420.269 127.779L421.196 125.32L422.123 124.162L423.05 124.605L423.977 126.836L424.904 130.845L425.831 136.355L427.684 149.183L428.611 154.469L429.538 157.473L430.465 157.291L431.392 153.591L432.319 146.857L434.173 130.411L435.1 124.822L436.027 123.178L436.954 125.741L437.881 131.41L439.735 144.199L440.662 148.37L441.589 150.809L442.516 152.108L443.443 152.333L444.37 150.312L445.297 143.943L446.223 131.904L447.15 116.341L448.077 104.046L449.004 102.474L450.858 120.604L451.785 118.985L453.639 96.4407L454.566 91.4574L455.493 93.7763L456.42 100.138L457.347 101.501L458.274 94.0514L459.201 89.4612L460.128 92.927L461.055 89.6994L461.982 77.2285L462.909 69.8924L463.835 78.1822L464.762 88.1387L466.616 70.5643L467.543 70.3708L468.47 69.956L470.324 73.1662L471.251 64.582L472.178 64.4298L473.105 69.2018L474.032 64.0365L474.959 63.2717L475.886 63.7393L476.813 62.576L477.74 62.151L478.667 61.1671L479.594 60.6831L480.521 60.6886L481.448 59.2943L482.374 60.1243L483.301 58.3062L484.228 58.9087L486.082 58.0061L488.863 57.444L489.79 56.4944L490.717 57.0738L491.644 56.6022L492.571 56.6169L494.425 56.387L495.352 56.4965L497.206 56.0361L498.133 56.4236L499.06 56.9737L499.986 59.3806L500.913 69.9703L501.84 97.273L502.767 104.41L503.694 75.7386L504.621 150.436L505.548 167.037L506.475 156.762L507.402 102.618L508.329 121.734L509.256 170.61L510.183 101.32L511.11 159.584L512.037 132.899L512.964 159.327L513.891 171.197L514.818 140.657L515.745 159.664L516.672 173.583L517.599 167.901L518.525 167.022L519.452 172.368L520.379 171.795L521.306 166.179L522.233 143.632L523.16 161.486L524.087 171.285L525.014 164.142L525.941 154.656L526.868 169.347L527.795 168.341L528.722 173.049L529.649 169.343L530.576 140.784L531.503 162.393L532.43 166.521L533.357 172.319L534.284 157.558L535.211 136.4L536.137 162.131L537.064 171.907L537.991 128.444L538.918 174.638L539.845 172.996L540.772 170.779L541.699 171.636L542.626 166.925L543.553 168.332L544.48 165.25L545.407 174.281L546.334 146.271L547.261 163.716L548.188 154.205L549.115 159.101L550.042 161.06L551.896 174.609L552.823 167.088L553.75 151.61L554.676 174.19L555.603 170.103L556.53 150.072L557.457 167.813L558.384 143.093L559.311 170.713L560.238 171.799L561.165 171.997L562.092 161.33L563.019 171.681L563.946 172.227" stroke="#48B4B4" stroke-width="2" stroke-dasharray="7.4 3.2"/>
</g>
<path d="M370.26 181.001V49.2188" stroke="black" stroke-width="1.06667" stroke-linecap="square"/>
<path d="M573.169 181.001V49.2188" stroke="black" stroke-width="1.06667" stroke-linecap="square"/>
<path d="M370.26 181.001H573.169" stroke="black" stroke-width="1.06667" stroke-linecap="square"/>
<path d="M370.26 49.2188H573.169" stroke="black" stroke-width="1.06667" stroke-linecap="square"/>
<path d="M390.627 72.0839L389.346 78.687H387.539L388.821 72.1526C388.879 71.8464 388.924 71.5766 388.955 71.3433C388.988 71.1078 389.005 70.9224 389.005 70.787C389.005 70.2391 388.832 69.8131 388.486 69.5089C388.143 69.2026 387.661 69.0495 387.043 69.0495C386.078 69.0495 385.248 69.3703 384.552 70.012C383.856 70.6516 383.4 71.5214 383.183 72.6214L381.983 78.687H380.186L382.305 67.7495H384.102L383.743 69.4683C384.243 68.837 384.844 68.3495 385.546 68.0058C386.25 67.6599 386.989 67.487 387.764 67.487C388.729 67.487 389.476 67.7474 390.005 68.2683C390.536 68.7891 390.802 69.5214 390.802 70.4651C390.802 70.6985 390.787 70.9485 390.758 71.2151C390.729 71.4818 390.685 71.7714 390.627 72.0839Z" fill="black"/>
<path d="M398.988 74.6052V75.782C398.633 75.5852 398.276 75.4379 397.919 75.3402C397.561 75.2425 397.2 75.1936 396.836 75.1936C396.019 75.1936 395.385 75.4525 394.933 75.9702C394.482 76.4864 394.257 77.2119 394.257 78.1467C394.257 79.0815 394.482 79.8078 394.933 80.3255C395.385 80.8417 396.019 81.0999 396.836 81.0999C397.2 81.0999 397.561 81.051 397.919 80.9533C398.276 80.8556 398.633 80.7083 398.988 80.5114V81.6752C398.637 81.8385 398.273 81.961 397.897 82.0427C397.522 82.1258 397.122 82.1674 396.698 82.1674C395.544 82.1674 394.628 81.805 393.948 81.0802C393.27 80.3554 392.931 79.3776 392.931 78.1467C392.931 76.8984 393.274 75.9169 393.959 75.2024C394.646 74.4863 395.587 74.1283 396.781 74.1283C397.168 74.1283 397.545 74.1684 397.914 74.2486C398.283 74.3274 398.641 74.4462 398.988 74.6052Z" fill="black"/>
<path d="M404.36 82.6793C404.006 83.5907 403.659 84.185 403.321 84.4621C402.984 84.7406 402.534 84.8799 401.969 84.8799H400.963V83.8277H401.702C402.048 83.8277 402.316 83.7453 402.507 83.5805C402.7 83.4172 402.912 83.03 403.144 82.4189L403.369 81.8458L400.274 74.3121H401.606L403.999 80.2993L406.392 74.3121H407.725L404.36 82.6793Z" fill="black"/>
<path d="M414.971 74.6052V75.782C414.615 75.5852 414.258 75.4379 413.901 75.3402C413.544 75.2425 413.183 75.1936 412.818 75.1936C412.002 75.1936 411.367 75.4525 410.915 75.9702C410.465 76.4864 410.239 77.2119 410.239 78.1467C410.239 79.0815 410.465 79.8078 410.915 80.3255C411.367 80.8417 412.002 81.0999 412.818 81.0999C413.183 81.0999 413.544 81.051 413.901 80.9533C414.258 80.8556 414.615 80.7083 414.971 80.5114V81.6752C414.619 81.8385 414.255 81.961 413.879 82.0427C413.504 82.1258 413.105 82.1674 412.68 82.1674C411.527 82.1674 410.61 81.805 409.931 81.0802C409.253 80.3554 408.914 79.3776 408.914 78.1467C408.914 76.8984 409.256 75.9169 409.942 75.2024C410.629 74.4863 411.569 74.1283 412.764 74.1283C413.15 74.1283 413.528 74.1684 413.897 74.2486C414.266 74.3274 414.624 74.4462 414.971 74.6052Z" fill="black"/>
<path d="M417.158 71.3304H418.416V81.9683H417.158V71.3304Z" fill="black"/>
<path d="M427.597 77.8252V78.4399H421.813C421.868 79.3061 422.129 79.966 422.596 80.4195C423.063 80.8731 423.713 81.0999 424.547 81.0999C425.03 81.0999 425.498 81.0408 425.952 80.9227C426.405 80.8045 426.856 80.6266 427.304 80.3889V81.5789C426.852 81.77 426.389 81.9158 425.915 82.0164C425.441 82.117 424.96 82.1674 424.473 82.1674C423.251 82.1674 422.283 81.8123 421.57 81.102C420.857 80.3904 420.5 79.4279 420.5 78.2145C420.5 76.9618 420.839 75.968 421.515 75.233C422.192 74.4965 423.105 74.1283 424.254 74.1283C425.284 74.1283 426.098 74.4601 426.698 75.1236C427.297 75.7857 427.597 76.6862 427.597 77.8252ZM426.339 77.4555C426.33 76.7686 426.138 76.2203 425.761 75.8105C425.385 75.3992 424.887 75.1936 424.267 75.1936C423.566 75.1936 423.004 75.3919 422.583 75.7886C422.162 76.1853 421.919 76.7438 421.855 77.4642L426.339 77.4555Z" fill="black"/>
<path d="M434.904 69.6058H447.422V71.2464H434.904V69.6058ZM434.904 73.5901H447.422V75.2495H434.904V73.5901Z" fill="black"/>
<path d="M381.965 101.308H385.186V90.1827L381.68 90.8858V89.0889L385.168 88.3858H387.14V101.308H390.361V102.967H381.965V101.308Z" fill="black"/>
<path d="M398.564 89.6858C397.55 89.6858 396.786 90.1858 396.273 91.1858C395.763 92.1838 395.508 93.6858 395.508 95.6921C395.508 97.69 395.763 99.189 396.273 100.189C396.786 101.189 397.55 101.689 398.564 101.689C399.587 101.689 400.354 101.189 400.864 100.189C401.377 99.189 401.633 97.69 401.633 95.6921C401.633 93.6858 401.377 92.1838 400.864 91.1858C400.354 90.1858 399.587 89.6858 398.564 89.6858ZM398.564 88.1233C400.2 88.1233 401.448 88.7702 402.311 90.064C403.173 91.3556 403.605 93.2317 403.605 95.6921C403.605 98.1463 403.173 100.02 402.311 101.314C401.448 102.606 400.2 103.251 398.564 103.251C396.931 103.251 395.683 102.606 394.82 101.314C393.958 100.02 393.527 98.1463 393.527 95.6921C393.527 93.2317 393.958 91.3556 394.82 90.064C395.683 88.7702 396.931 88.1233 398.564 88.1233Z" fill="black"/>
<path d="M411.289 89.6858C410.274 89.6858 409.511 90.1858 408.998 91.1858C408.488 92.1838 408.232 93.6858 408.232 95.6921C408.232 97.69 408.488 99.189 408.998 100.189C409.511 101.189 410.274 101.689 411.289 101.689C412.312 101.689 413.078 101.189 413.589 100.189C414.101 99.189 414.357 97.69 414.357 95.6921C414.357 93.6858 414.101 92.1838 413.589 91.1858C413.078 90.1858 412.312 89.6858 411.289 89.6858ZM411.289 88.1233C412.924 88.1233 414.173 88.7702 415.036 90.064C415.898 91.3556 416.329 93.2317 416.329 95.6921C416.329 98.1463 415.898 100.02 415.036 101.314C414.173 102.606 412.924 103.251 411.289 103.251C409.655 103.251 408.407 102.606 407.545 101.314C406.682 100.02 406.251 98.1463 406.251 95.6921C406.251 93.2317 406.682 91.3556 407.545 90.064C408.407 88.7702 409.655 88.1233 411.289 88.1233Z" fill="black"/>
<path d="M126.769 339.139H329.678V207.357H126.769V339.139Z" fill="white"/>
<path d="M182.108 339.139V343.805Z" fill="black"/>
<path d="M182.108 339.139V343.805" stroke="black" stroke-width="1.06667"/>
<path d="M166.989 361.856H170.211V350.731L166.705 351.434V349.638L170.192 348.934H172.164V361.856H175.386V363.516H166.989V361.856Z" fill="black"/>
<path d="M183.589 350.235C182.574 350.235 181.811 350.735 181.298 351.735C180.788 352.732 180.533 354.235 180.533 356.241C180.533 358.239 180.788 359.738 181.298 360.738C181.811 361.738 182.574 362.238 183.589 362.238C184.612 362.238 185.378 361.738 185.889 360.738C186.401 359.738 186.658 358.239 186.658 356.241C186.658 354.235 186.401 352.732 185.889 351.735C185.378 350.735 184.612 350.235 183.589 350.235ZM183.589 348.672C185.224 348.672 186.473 349.319 187.336 350.613C188.198 351.904 188.629 353.78 188.629 356.241C188.629 358.695 188.198 360.569 187.336 361.863C186.473 363.154 185.224 363.8 183.589 363.8C181.955 363.8 180.708 363.154 179.845 361.863C178.983 360.569 178.551 358.695 178.551 356.241C178.551 353.78 178.983 351.904 179.845 350.613C180.708 349.319 181.955 348.672 183.589 348.672Z" fill="black"/>
<path d="M194.598 346.563C193.888 346.563 193.353 346.913 192.995 347.613C192.637 348.311 192.459 349.363 192.459 350.767C192.459 352.166 192.637 353.215 192.995 353.915C193.353 354.615 193.888 354.965 194.598 354.965C195.314 354.965 195.851 354.615 196.208 353.915C196.567 353.215 196.746 352.166 196.746 350.767C196.746 349.363 196.567 348.311 196.208 347.613C195.851 346.913 195.314 346.563 194.598 346.563ZM194.598 345.469C195.743 345.469 196.617 345.922 197.221 346.827C197.825 347.732 198.126 349.045 198.126 350.767C198.126 352.485 197.825 353.797 197.221 354.702C196.617 355.607 195.743 356.059 194.598 356.059C193.455 356.059 192.581 355.607 191.977 354.702C191.374 353.797 191.072 352.485 191.072 350.767C191.072 349.045 191.374 347.732 191.977 346.827C192.581 345.922 193.455 345.469 194.598 345.469Z" fill="black"/>
<path d="M274.339 339.139V343.805Z" fill="black"/>
<path d="M274.339 339.139V343.805" stroke="black" stroke-width="1.06667"/>
<path d="M259.221 361.856H262.443V350.731L258.936 351.434V349.637L262.424 348.934H264.396V361.856H267.618V363.516H259.221V361.856Z" fill="black"/>
<path d="M275.82 350.234C274.806 350.234 274.042 350.734 273.53 351.734C273.019 352.732 272.764 354.234 272.764 356.241C272.764 358.239 273.019 359.738 273.53 360.738C274.042 361.738 274.806 362.238 275.82 362.238C276.843 362.238 277.61 361.738 278.12 360.738C278.633 359.738 278.889 358.239 278.889 356.241C278.889 354.234 278.633 352.732 278.12 351.734C277.61 350.734 276.843 350.234 275.82 350.234ZM275.82 348.672C277.456 348.672 278.705 349.319 279.567 350.613C280.43 351.904 280.861 353.78 280.861 356.241C280.861 358.695 280.43 360.569 279.567 361.863C278.705 363.154 277.456 363.8 275.82 363.8C274.187 363.8 272.939 363.154 272.076 361.863C271.214 360.569 270.783 358.695 270.783 356.241C270.783 353.78 271.214 351.904 272.076 350.613C272.939 349.319 274.187 348.672 275.82 348.672Z" fill="black"/>
<path d="M285.066 354.698H289.885V355.859H283.406V354.698C283.93 354.155 284.643 353.428 285.548 352.515C286.453 351.6 287.022 351.01 287.254 350.745C287.696 350.249 288.004 349.829 288.179 349.485C288.356 349.141 288.444 348.802 288.444 348.47C288.444 347.927 288.254 347.486 287.873 347.144C287.492 346.802 286.996 346.63 286.385 346.63C285.952 346.63 285.495 346.705 285.014 346.856C284.534 347.006 284.021 347.234 283.474 347.54V346.145C284.029 345.922 284.549 345.753 285.031 345.639C285.515 345.526 285.958 345.469 286.359 345.469C287.416 345.469 288.259 345.733 288.888 346.263C289.516 346.791 289.831 347.497 289.831 348.38C289.831 348.8 289.752 349.198 289.594 349.575C289.438 349.949 289.153 350.392 288.737 350.902C288.623 351.035 288.261 351.417 287.65 352.049C287.04 352.68 286.179 353.563 285.066 354.698Z" fill="black"/>
<path d="M126.769 333.149H122.102Z" fill="black"/>
<path d="M126.769 333.149H122.102" stroke="black" stroke-width="1.06667"/>
<path d="M91.9857 327.466C90.9712 327.466 90.2076 327.966 89.6951 328.966C89.1847 329.964 88.9295 331.466 88.9295 333.472C88.9295 335.47 89.1847 336.969 89.6951 337.969C90.2076 338.969 90.9712 339.469 91.9857 339.469C93.0087 339.469 93.7753 338.969 94.2857 337.969C94.7982 336.969 95.0545 335.47 95.0545 333.472C95.0545 331.466 94.7982 329.964 94.2857 328.966C93.7753 327.966 93.0087 327.466 91.9857 327.466ZM91.9857 325.903C93.6212 325.903 94.8701 326.55 95.7326 327.844C96.5951 329.136 97.0264 331.012 97.0264 333.472C97.0264 335.926 96.5951 337.8 95.7326 339.094C94.8701 340.386 93.6212 341.032 91.9857 341.032C90.3524 341.032 89.1045 340.386 88.242 339.094C87.3795 337.8 86.9482 335.926 86.9482 333.472C86.9482 331.012 87.3795 329.136 88.242 327.844C89.1045 326.55 90.3524 325.903 91.9857 325.903Z" fill="black"/>
<path d="M100.492 338.266H102.554V340.747H100.492V338.266Z" fill="black"/>
<path d="M111.068 327.466C110.053 327.466 109.29 327.966 108.777 328.966C108.267 329.964 108.012 331.466 108.012 333.472C108.012 335.47 108.267 336.969 108.777 337.969C109.29 338.969 110.053 339.469 111.068 339.469C112.091 339.469 112.857 338.969 113.368 337.969C113.88 336.969 114.137 335.47 114.137 333.472C114.137 331.466 113.88 329.964 113.368 328.966C112.857 327.966 112.091 327.466 111.068 327.466ZM111.068 325.903C112.703 325.903 113.952 326.55 114.815 327.844C115.677 329.136 116.108 331.012 116.108 333.472C116.108 335.926 115.677 337.8 114.815 339.094C113.952 340.386 112.703 341.032 111.068 341.032C109.434 341.032 108.187 340.386 107.324 339.094C106.462 337.8 106.03 335.926 106.03 333.472C106.03 331.012 106.462 329.136 107.324 327.844C108.187 326.55 109.434 325.903 111.068 325.903Z" fill="black"/>
<path d="M126.769 273.243H122.102Z" fill="black"/>
<path d="M126.769 273.243H122.102" stroke="black" stroke-width="1.06667"/>
<path d="M126.769 213.337H122.103Z" fill="black"/>
<path d="M126.769 213.337H122.103" stroke="black" stroke-width="1.06667"/>
<path d="M88.1108 219.276H91.3327V208.151L87.8264 208.854V207.057L91.3139 206.354H93.2858V219.276H96.5077V220.935H88.1108V219.276Z" fill="black"/>
<path d="M100.492 218.454H102.554V220.935H100.492V218.454Z" fill="black"/>
<path d="M111.068 207.654C110.053 207.654 109.29 208.154 108.777 209.154C108.267 210.152 108.012 211.654 108.012 213.66C108.012 215.658 108.267 217.157 108.777 218.157C109.29 219.157 110.053 219.657 111.068 219.657C112.091 219.657 112.857 219.157 113.368 218.157C113.88 217.157 114.137 215.658 114.137 213.66C114.137 211.654 113.88 210.152 113.368 209.154C112.857 208.154 112.091 207.654 111.068 207.654ZM111.068 206.091C112.703 206.091 113.952 206.738 114.815 208.032C115.677 209.324 116.108 211.2 116.108 213.66C116.108 216.114 115.677 217.988 114.815 219.282C113.952 220.574 112.703 221.219 111.068 221.219C109.434 221.219 108.187 220.574 107.324 219.282C106.462 217.988 106.03 216.114 106.03 213.66C106.03 211.2 106.462 209.324 107.324 208.032C108.187 206.738 109.434 206.091 111.068 206.091Z" fill="black"/>
<mask id="mask4_1270_27" style="mask-type:luminance" maskUnits="userSpaceOnUse" x="126" y="207" width="204" height="133">
<path d="M329.678 207.357H126.769V339.139H329.678V207.357Z" fill="white"/>
</mask>
<g mask="url(#mask4_1270_27)">
<path d="M135.992 333.147L150.823 333.015L154.531 332.768L157.312 332.33L159.166 331.801L161.02 330.955L162.874 329.628L163.801 328.718L164.728 327.598L165.655 326.233L166.581 324.584L167.508 322.61L169.362 317.554L171.216 310.897L173.07 302.809L175.851 289.977L176.778 286.411L177.705 283.729L178.632 282.284L179.559 282.394L180.486 284.275L181.413 287.964L182.34 293.244L185.12 311.799L186.047 315.409L186.974 315.984L187.901 313.048L188.828 306.91L190.682 290.53L191.609 284.339L192.536 281.848L193.463 283.579L194.39 288.671L196.244 301.327L197.171 305.695L198.098 308.32L199.025 309.849L199.952 310.562L200.879 309.497L201.806 304.483L202.733 293.618L204.586 263.739L205.513 259.07L206.44 266.406L207.367 277.024L208.294 278.626L209.221 268.939L210.148 256.525L211.075 249.473L212.002 250.543L212.929 257.589L213.856 261.173L215.71 246.442L216.637 249.475L217.564 250.149L219.418 227.408L220.345 233.145L221.271 246.737L222.198 239.223L223.125 227.749L224.052 228.768L224.979 228.734L225.906 228.11L226.833 232.114L227.76 223.709L228.687 221.348L229.614 227.245L230.541 222.6L231.468 221.197L232.395 221.389L233.322 221.263L234.249 219.556L235.176 219.751L236.103 218.227L237.03 218.706L237.957 217.737L240.737 216.707L241.664 216.508L242.591 215.783L243.518 215.945L245.372 215.381L246.299 214.675L247.226 215.295L249.08 214.329L250.007 214.602L250.934 214.35L251.861 214.268L252.788 214.452L253.715 214.415L255.569 213.989L263.911 213.788L268.546 213.753L270.4 213.895L275.035 214.24L276.888 214.6L279.669 215.268L280.596 215.871L281.523 218.182L282.45 232.328L283.377 294.974L284.304 301.087L285.231 288.797L286.158 255.308L288.012 319.581L288.939 319.326L289.866 275.16L290.793 284.683L291.72 289.035L292.647 291.532L293.573 299.089L294.5 319.86L295.427 332.514L296.354 333.147L307.478 333.113L308.405 332.841L309.332 323.978L311.186 331.528L312.112 331.883L313.039 333.021L314.893 330.838L315.82 331.587L316.747 308.994L317.674 329.594L318.601 329.91L319.528 329.209L320.455 333.139" stroke="#5AA945" stroke-width="2" stroke-linecap="square"/>
</g>
<mask id="mask5_1270_27" style="mask-type:luminance" maskUnits="userSpaceOnUse" x="126" y="207" width="204" height="133">
<path d="M329.678 207.357H126.769V339.139H329.678V207.357Z" fill="white"/>
</mask>
<g mask="url(#mask5_1270_27)">
<path d="M135.992 333.147L150.823 333.015L154.531 332.768L157.312 332.33L159.166 331.801L161.02 330.955L162.874 329.628L163.801 328.718L164.728 327.599L165.655 326.234L166.581 324.585L167.508 322.612L169.362 317.556L171.216 310.901L173.07 302.816L175.851 289.993L176.778 286.43L177.705 283.753L178.632 282.315L179.559 282.432L180.486 284.32L181.413 288.018L182.34 293.307L185.12 311.883L186.047 315.495L186.974 316.065L187.901 313.117L188.828 306.959L190.682 290.518L191.609 284.294L192.536 281.777L193.463 283.497L194.39 288.602L196.244 301.377L197.171 305.845L198.098 308.577L199.025 310.187L199.952 310.917L200.879 309.768L201.806 304.574L202.733 293.506L204.586 263.641L205.513 259.234L206.44 266.775L207.367 277.352L208.294 278.688L209.221 268.731L210.148 256.259L211.075 249.431L212.002 250.897L212.929 258.174L213.856 261.483L215.71 246.176L216.637 249.531L217.564 250.262L219.418 227.392L220.345 233.484L221.271 247.021L222.198 239.034L223.125 227.731L224.052 228.939L224.979 228.663L225.906 228.13L226.833 232.141L227.76 223.418L228.687 221.498L229.614 227.361L230.541 222.561L231.468 221.194L232.395 221.357L233.322 221.319L234.249 219.445L235.176 219.675L236.103 218.465L237.03 218.536L237.957 217.729L238.884 217.556L239.81 216.62L240.737 216.813L241.664 216.486L242.591 215.862L243.518 215.841L245.372 215.334L246.299 214.713L247.226 215.065L248.153 214.816L249.08 214.208L250.007 214.5L250.934 214.444L251.861 214.214L253.715 214.383L257.422 213.761L281.523 213.371L294.5 213.352L299.135 213.348L300.989 214.564L301.916 215.447L302.843 225.127L303.77 299.221L304.697 263.473L305.624 244.07L306.551 253.339L307.478 247.757L308.405 269.481L309.332 255.572L310.259 257.176L311.186 242.073L312.112 266.445L313.039 295.74L313.966 276.574L314.893 298.439L315.82 288.663L316.747 318.999L317.674 330.033L318.601 329.186L319.528 330.605L320.455 320.14" stroke="#908FA8" stroke-width="2" stroke-dasharray="7.4 3.2"/>
</g>
<path d="M126.769 339.139V207.357" stroke="black" stroke-width="1.06667" stroke-linecap="square"/>
<path d="M329.678 339.139V207.357" stroke="black" stroke-width="1.06667" stroke-linecap="square"/>
<path d="M126.769 339.139H329.678" stroke="black" stroke-width="1.06667" stroke-linecap="square"/>
<path d="M126.769 207.357H329.678" stroke="black" stroke-width="1.06667" stroke-linecap="square"/>
<path d="M147.136 230.222L145.855 236.825H144.048L145.33 230.291C145.388 229.985 145.433 229.715 145.464 229.482C145.497 229.246 145.514 229.061 145.514 228.925C145.514 228.377 145.341 227.951 144.995 227.647C144.652 227.341 144.17 227.188 143.552 227.188C142.587 227.188 141.757 227.509 141.061 228.15C140.365 228.79 139.909 229.66 139.692 230.76L138.492 236.825H136.695L138.814 225.888H140.611L140.252 227.607C140.752 226.975 141.353 226.488 142.055 226.144C142.759 225.798 143.498 225.625 144.273 225.625C145.238 225.625 145.985 225.886 146.514 226.407C147.045 226.927 147.311 227.66 147.311 228.603C147.311 228.837 147.296 229.087 147.267 229.353C147.238 229.62 147.194 229.91 147.136 230.222Z" fill="black"/>
<path d="M155.497 232.743V233.92C155.142 233.723 154.785 233.576 154.428 233.478C154.07 233.381 153.709 233.332 153.345 233.332C152.528 233.332 151.894 233.591 151.442 234.108C150.991 234.625 150.766 235.35 150.766 236.285C150.766 237.22 150.991 237.946 151.442 238.464C151.894 238.98 152.528 239.238 153.345 239.238C153.709 239.238 154.07 239.189 154.428 239.091C154.785 238.994 155.142 238.846 155.497 238.65V239.813C155.146 239.977 154.782 240.099 154.406 240.181C154.031 240.264 153.631 240.306 153.207 240.306C152.054 240.306 151.137 239.943 150.457 239.218C149.779 238.494 149.44 237.516 149.44 236.285C149.44 235.037 149.783 234.055 150.468 233.341C151.155 232.625 152.096 232.266 153.29 232.266C153.677 232.266 154.054 232.307 154.423 232.387C154.792 232.466 155.15 232.584 155.497 232.743Z" fill="black"/>
<path d="M160.869 240.817C160.515 241.729 160.168 242.323 159.83 242.6C159.493 242.879 159.043 243.018 158.478 243.018H157.472V241.966H158.211C158.557 241.966 158.825 241.883 159.016 241.719C159.209 241.555 159.421 241.168 159.653 240.557L159.878 239.984L156.783 232.45H158.115L160.508 238.437L162.901 232.45H164.234L160.869 240.817Z" fill="black"/>
<path d="M171.48 232.743V233.92C171.124 233.723 170.767 233.576 170.41 233.478C170.053 233.381 169.692 233.332 169.327 233.332C168.511 233.332 167.876 233.591 167.424 234.108C166.974 234.625 166.748 235.35 166.748 236.285C166.748 237.22 166.974 237.946 167.424 238.464C167.876 238.98 168.511 239.238 169.327 239.238C169.692 239.238 170.053 239.189 170.41 239.091C170.767 238.994 171.124 238.846 171.48 238.65V239.813C171.128 239.977 170.764 240.099 170.388 240.181C170.013 240.264 169.614 240.306 169.189 240.306C168.036 240.306 167.119 239.943 166.44 239.218C165.762 238.494 165.423 237.516 165.423 236.285C165.423 235.037 165.765 234.055 166.451 233.341C167.138 232.625 168.078 232.266 169.273 232.266C169.659 232.266 170.037 232.307 170.406 232.387C170.775 232.466 171.133 232.584 171.48 232.743Z" fill="black"/>
<path d="M173.667 229.469H174.925V240.107H173.667V229.469Z" fill="black"/>
<path d="M184.106 235.963V236.578H178.322C178.377 237.444 178.638 238.104 179.105 238.558C179.572 239.011 180.222 239.238 181.056 239.238C181.539 239.238 182.007 239.179 182.461 239.061C182.914 238.943 183.365 238.765 183.813 238.527V239.717C183.361 239.908 182.898 240.054 182.424 240.155C181.95 240.255 181.469 240.306 180.982 240.306C179.76 240.306 178.792 239.95 178.079 239.24C177.366 238.529 177.01 237.566 177.01 236.353C177.01 235.1 177.348 234.106 178.025 233.371C178.701 232.635 179.614 232.266 180.763 232.266C181.793 232.266 182.607 232.598 183.207 233.262C183.806 233.924 184.106 234.824 184.106 235.963ZM182.848 235.594C182.839 234.907 182.647 234.358 182.27 233.949C181.894 233.537 181.396 233.332 180.776 233.332C180.075 233.332 179.513 233.53 179.092 233.927C178.671 234.323 178.428 234.882 178.364 235.602L182.848 235.594Z" fill="black"/>
<path d="M191.413 227.744H203.931V229.385H191.413V227.744ZM191.413 231.728H203.931V233.388H191.413V231.728Z" fill="black"/>
<path d="M138.473 259.446H141.695V248.321L138.189 249.024V247.227L141.676 246.524H143.648V259.446H146.87V261.105H138.473V259.446Z" fill="black"/>
<path d="M155.073 247.824C154.058 247.824 153.295 248.324 152.782 249.324C152.272 250.322 152.017 251.824 152.017 253.83C152.017 255.828 152.272 257.327 152.782 258.327C153.295 259.327 154.058 259.827 155.073 259.827C156.096 259.827 156.862 259.327 157.373 258.327C157.885 257.327 158.142 255.828 158.142 253.83C158.142 251.824 157.885 250.322 157.373 249.324C156.862 248.324 156.096 247.824 155.073 247.824ZM155.073 246.262C156.708 246.262 157.957 246.908 158.82 248.202C159.682 249.494 160.114 251.37 160.114 253.83C160.114 256.284 159.682 258.158 158.82 259.452C157.957 260.744 156.708 261.39 155.073 261.39C153.44 261.39 152.192 260.744 151.329 259.452C150.467 258.158 150.035 256.284 150.035 253.83C150.035 251.37 150.467 249.494 151.329 248.202C152.192 246.908 153.44 246.262 155.073 246.262Z" fill="black"/>
<path d="M167.798 247.824C166.783 247.824 166.019 248.324 165.507 249.324C164.996 250.322 164.741 251.824 164.741 253.83C164.741 255.828 164.996 257.327 165.507 258.327C166.019 259.327 166.783 259.827 167.798 259.827C168.82 259.827 169.587 259.327 170.098 258.327C170.61 257.327 170.866 255.828 170.866 253.83C170.866 251.824 170.61 250.322 170.098 249.324C169.587 248.324 168.82 247.824 167.798 247.824ZM167.798 246.262C169.433 246.262 170.682 246.908 171.544 248.202C172.407 249.494 172.838 251.37 172.838 253.83C172.838 256.284 172.407 258.158 171.544 259.452C170.682 260.744 169.433 261.39 167.798 261.39C166.164 261.39 164.916 260.744 164.054 259.452C163.191 258.158 162.76 256.284 162.76 253.83C162.76 251.37 163.191 249.494 164.054 248.202C164.916 246.908 166.164 246.262 167.798 246.262Z" fill="black"/>
<path d="M180.522 247.824C179.508 247.824 178.744 248.324 178.231 249.324C177.721 250.322 177.466 251.824 177.466 253.83C177.466 255.828 177.721 257.327 178.231 258.327C178.744 259.327 179.508 259.827 180.522 259.827C181.545 259.827 182.312 259.327 182.822 258.327C183.335 257.327 183.591 255.828 183.591 253.83C183.591 251.824 183.335 250.322 182.822 249.324C182.312 248.324 181.545 247.824 180.522 247.824ZM180.522 246.262C182.158 246.262 183.406 246.908 184.269 248.202C185.131 249.494 185.563 251.37 185.563 253.83C185.563 256.284 185.131 258.158 184.269 259.452C183.406 260.744 182.158 261.39 180.522 261.39C178.889 261.39 177.641 260.744 176.778 259.452C175.916 258.158 175.485 256.284 175.485 253.83C175.485 251.37 175.916 249.494 176.778 248.202C177.641 246.908 178.889 246.262 180.522 246.262Z" fill="black"/>
<path d="M370.26 339.139H573.169V207.357H370.26V339.139Z" fill="white"/>
<path d="M425.599 339.139V343.805Z" fill="black"/>
<path d="M425.599 339.139V343.805" stroke="black" stroke-width="1.06667"/>
<path d="M410.48 361.856H413.702V350.731L410.196 351.434V349.638L413.683 348.934H415.655V361.856H418.877V363.516H410.48V361.856Z" fill="black"/>
<path d="M427.079 350.235C426.065 350.235 425.301 350.735 424.789 351.735C424.278 352.732 424.023 354.235 424.023 356.241C424.023 358.239 424.278 359.738 424.789 360.738C425.301 361.738 426.065 362.238 427.079 362.238C428.102 362.238 428.869 361.738 429.379 360.738C429.892 359.738 430.148 358.239 430.148 356.241C430.148 354.235 429.892 352.732 429.379 351.735C428.869 350.735 428.102 350.235 427.079 350.235ZM427.079 348.672C428.715 348.672 429.964 349.319 430.826 350.613C431.689 351.904 432.12 353.78 432.12 356.241C432.12 358.695 431.689 360.569 430.826 361.863C429.964 363.154 428.715 363.8 427.079 363.8C425.446 363.8 424.198 363.154 423.336 361.863C422.473 360.569 422.042 358.695 422.042 356.241C422.042 353.78 422.473 351.904 423.336 350.613C424.198 349.319 425.446 348.672 427.079 348.672Z" fill="black"/>
<path d="M438.089 346.563C437.379 346.563 436.844 346.913 436.485 347.613C436.128 348.311 435.949 349.363 435.949 350.767C435.949 352.166 436.128 353.215 436.485 353.915C436.844 354.615 437.379 354.965 438.089 354.965C438.805 354.965 439.341 354.615 439.699 353.915C440.058 353.215 440.237 352.166 440.237 350.767C440.237 349.363 440.058 348.311 439.699 347.613C439.341 346.913 438.805 346.563 438.089 346.563ZM438.089 345.469C439.234 345.469 440.108 345.922 440.712 346.827C441.315 347.732 441.617 349.045 441.617 350.767C441.617 352.485 441.315 353.797 440.712 354.702C440.108 355.607 439.234 356.059 438.089 356.059C436.945 356.059 436.072 355.607 435.468 354.702C434.864 353.797 434.562 352.485 434.562 350.767C434.562 349.045 434.864 347.732 435.468 346.827C436.072 345.922 436.945 345.469 438.089 345.469Z" fill="black"/>
<path d="M517.83 339.139V343.805Z" fill="black"/>
<path d="M517.83 339.139V343.805" stroke="black" stroke-width="1.06667"/>
<path d="M502.711 361.856H505.933V350.731L502.427 351.434V349.637L505.915 348.934H507.886V361.856H511.108V363.516H502.711V361.856Z" fill="black"/>
<path d="M519.311 350.234C518.296 350.234 517.533 350.734 517.02 351.734C516.51 352.732 516.255 354.234 516.255 356.241C516.255 358.239 516.51 359.738 517.02 360.738C517.533 361.738 518.296 362.238 519.311 362.238C520.334 362.238 521.101 361.738 521.611 360.738C522.123 359.738 522.38 358.239 522.38 356.241C522.38 354.234 522.123 352.732 521.611 351.734C521.101 350.734 520.334 350.234 519.311 350.234ZM519.311 348.672C520.946 348.672 522.195 349.319 523.058 350.613C523.92 351.904 524.352 353.78 524.352 356.241C524.352 358.695 523.92 360.569 523.058 361.863C522.195 363.154 520.946 363.8 519.311 363.8C517.678 363.8 516.43 363.154 515.567 361.863C514.705 360.569 514.273 358.695 514.273 356.241C514.273 353.78 514.705 351.904 515.567 350.613C516.43 349.319 517.678 348.672 519.311 348.672Z" fill="black"/>
<path d="M528.557 354.698H533.376V355.859H526.897V354.698C527.42 354.155 528.134 353.428 529.038 352.515C529.944 351.6 530.513 351.01 530.745 350.745C531.186 350.249 531.495 349.829 531.67 349.485C531.846 349.141 531.935 348.802 531.935 348.47C531.935 347.927 531.744 347.486 531.364 347.144C530.983 346.802 530.487 346.63 529.876 346.63C529.443 346.63 528.986 346.705 528.505 346.856C528.025 347.006 527.511 347.234 526.965 347.54V346.145C527.52 345.922 528.039 345.753 528.522 345.639C529.006 345.526 529.449 345.469 529.85 345.469C530.907 345.469 531.75 345.733 532.379 346.263C533.007 346.791 533.321 347.497 533.321 348.38C533.321 348.8 533.243 349.198 533.085 349.575C532.929 349.949 532.643 350.392 532.228 350.902C532.114 351.035 531.752 351.417 531.14 352.049C530.531 352.68 529.67 353.563 528.557 354.698Z" fill="black"/>
<path d="M313.824 378.121L312.52 384.89H315.839C317.142 384.89 318.195 384.531 318.999 383.811C319.806 383.092 320.209 382.153 320.209 380.995C320.209 380.068 319.938 379.359 319.396 378.865C318.856 378.369 318.079 378.121 317.066 378.121H313.824ZM318.562 385.912C319.107 386.04 319.56 386.356 319.923 386.861C320.285 387.362 320.705 388.362 321.182 389.861L322.8 395.072H320.082L318.586 390.18C318.205 388.921 317.762 388.079 317.258 387.653C316.756 387.226 315.987 387.012 314.948 387.012H312.099L310.526 395.072H307.934L311.65 376H317.462C319.225 376 320.577 376.399 321.517 377.198C322.46 377.993 322.931 379.141 322.931 380.639C322.931 381.966 322.531 383.116 321.73 384.089C320.928 385.059 319.872 385.667 318.562 385.912Z" fill="black" stroke="black" stroke-width="0.5"/>
<path d="M328.761 386.506V389.35H332.149V390.629H328.761V396.065C328.761 396.882 328.873 397.406 329.096 397.639C329.319 397.872 329.774 397.988 330.461 397.988H332.149V399.364H330.461C329.191 399.364 328.314 399.128 327.832 398.655C327.349 398.18 327.108 397.317 327.108 396.065V390.629H325.9V389.35H327.108V386.506H328.761Z" fill="black" stroke="black" stroke-width="0.5"/>
<path d="M338.193 390.503C337.312 390.503 336.615 390.847 336.102 391.536C335.589 392.225 335.332 393.168 335.332 394.366C335.332 395.564 335.587 396.507 336.096 397.196C336.607 397.884 337.306 398.229 338.193 398.229C339.071 398.229 339.765 397.883 340.276 397.193C340.789 396.5 341.046 395.558 341.046 394.366C341.046 393.179 340.789 392.239 340.276 391.545C339.765 390.85 339.071 390.503 338.193 390.503ZM338.193 389.11C339.624 389.11 340.748 389.575 341.564 390.506C342.382 391.435 342.791 392.722 342.791 394.366C342.791 396.004 342.382 397.291 341.564 398.226C340.748 399.158 339.624 399.625 338.193 399.625C336.757 399.625 335.632 399.158 334.817 398.226C334.004 397.291 333.598 396.004 333.598 394.366C333.598 392.722 334.004 391.435 334.817 390.506C335.632 389.575 336.757 389.11 338.193 389.11Z" fill="black" stroke="black" stroke-width="0.5"/>
<path d="M347.145 386.506V389.35H350.533V390.629H347.145V396.065C347.145 396.882 347.257 397.406 347.48 397.639C347.703 397.872 348.158 397.988 348.845 397.988H350.533V399.364H348.845C347.574 399.364 346.698 399.128 346.215 398.655C345.732 398.18 345.491 397.317 345.491 396.065V390.629H344.284V389.35H345.491V386.506H347.145Z" fill="black" stroke="black" stroke-width="0.5"/>
<path d="M323.82 411.303H337.529L337.067 413.654H335.265L333.556 422.442C333.436 423.055 333.457 423.498 333.618 423.77C333.773 424.035 334.084 424.167 334.55 424.167C334.678 424.167 334.836 424.153 335.024 424.126C335.22 424.11 335.348 424.097 335.408 424.089L335.077 425.79C334.761 425.899 334.441 425.979 334.116 426.031C333.784 426.083 333.461 426.109 333.148 426.109C332.126 426.109 331.474 425.832 331.194 425.279C330.91 424.715 330.914 423.683 331.206 422.184L332.865 413.654H327.588L325.267 425.61H322.863L325.189 413.654H323.362L323.82 411.303Z" fill="black" stroke="black" stroke-width="0.5"/>
<path d="M307.231 408.968V406.632H351.687V408.968H307.231Z" fill="black" stroke="black" stroke-width="0.5"/>
<path d="M370.26 333.149H365.593Z" fill="black"/>
<path d="M370.26 333.149H365.593" stroke="black" stroke-width="1.06667"/>
<path d="M370.26 273.243H365.593Z" fill="black"/>
<path d="M370.26 273.243H365.593" stroke="black" stroke-width="1.06667"/>
<path d="M370.26 213.337H365.593Z" fill="black"/>
<path d="M370.26 213.337H365.593" stroke="black" stroke-width="1.06667"/>
<mask id="mask6_1270_27" style="mask-type:luminance" maskUnits="userSpaceOnUse" x="370" y="207" width="204" height="133">
<path d="M573.169 207.357H370.26V339.139H573.169V207.357Z" fill="white"/>
</mask>
<g mask="url(#mask6_1270_27)">
<path d="M379.483 333.146L393.387 332.986L397.095 332.688L399.876 332.163L401.73 331.534L403.584 330.536L405.438 328.987L406.365 327.932L407.292 326.644L408.219 325.085L409.146 323.215L410.999 318.401L412.853 312.005L414.707 304.107L418.415 287.045L419.342 283.74L420.269 281.401L421.196 280.315L422.123 280.704L423.05 282.658L423.977 286.08L425.831 295.783L426.758 300.762L427.684 304.777L428.611 307.155L429.538 307.562L430.465 306.18L432.319 301.488L433.246 300.643L434.173 302.141L435.1 306.133L437.881 322.699L438.808 325.168L439.735 325.071L440.662 323.032L441.589 320.284L442.516 318.312L443.443 318.346L444.37 320.715L445.297 324.358L446.223 327.199L447.15 327.523L448.077 325.226L450.858 313.741L451.785 311.667L452.712 313.212L455.493 328.035L456.42 329.317L457.347 329.11L458.274 328.323L459.201 328.187L460.128 330.219L461.055 332.651L461.982 332.951L462.909 331.772L463.835 329.313L464.762 323.258L465.689 313.22L466.616 316.827L467.543 326.502L468.47 331.781L469.397 332.342L471.251 329.695L472.178 332.493L473.105 330.642L474.032 326.932L474.959 329.773L475.886 330.623L477.74 333.143L478.667 328.568L479.594 321.13L480.521 326.934L481.448 330.617L482.374 330.017L483.301 332.253L484.228 330.505L485.155 332.464L486.082 331.089L487.009 333.12L487.936 323.989L488.863 330.702L489.79 332.548L490.717 333.109L491.644 329.134L492.571 331.761L493.498 332.216L494.425 329.728L495.352 323.662L496.279 332.824L499.06 327.084L499.986 329.486L500.913 328.507L501.84 332.232L502.767 327.786L503.694 327.49L504.621 332.269L505.548 332.503L506.475 333.142L507.402 332.006L508.329 332.504L509.256 330.647L510.183 329.458L511.11 331.268L512.037 325.334L512.964 329.985L513.891 331.743L514.818 328.541L515.745 328.912L516.672 332.867L517.599 323.609L518.525 332.731L519.452 329.287L520.379 330.329L521.306 330.128L522.233 332.062L523.16 332.754L524.087 321.391L525.014 332.355L525.941 328.313L526.868 332.9L527.795 330.824L528.722 330.658L529.649 327.665L530.576 331.249L531.503 332.43L532.43 328.157L533.357 331.869L534.284 330.546L535.211 332.983L536.137 330.865L537.064 331.475L537.991 333.01L538.918 332.582L539.845 331.759L540.772 332.338L541.699 328.312L542.626 332.052L543.553 327.335L544.48 325.983L545.407 322.892L546.334 327.365L547.261 330.758L548.188 327.866L549.115 332.89L550.042 327.977L550.969 333L551.896 328.333L552.823 332.555L553.75 327.035L554.676 322.692L555.603 330.734L556.53 328.476L557.457 332.482L558.384 332.809L559.311 331.404L560.238 326.193L561.165 330.772L562.092 327.919L563.019 329.088L563.946 332.01" stroke="#5090C9" stroke-width="2" stroke-linecap="square"/>
</g>
<mask id="mask7_1270_27" style="mask-type:luminance" maskUnits="userSpaceOnUse" x="370" y="207" width="204" height="133">
<path d="M573.169 207.357H370.26V339.139H573.169V207.357Z" fill="white"/>
</mask>
<g mask="url(#mask7_1270_27)">
<path d="M379.483 333.147L394.314 333.008L398.022 332.749L400.803 332.29L402.657 331.736L404.511 330.852L406.365 329.469L407.292 328.521L408.219 327.358L409.146 325.942L410.072 324.233L410.999 322.193L412.853 316.985L414.707 310.171L416.561 301.965L419.342 289.179L420.269 285.726L421.196 283.215L422.123 281.993L423.05 282.363L423.977 284.51L424.904 288.428L425.831 293.843L427.684 306.505L428.611 311.745L429.538 314.748L430.465 314.63L431.392 311.068L432.319 304.554L434.173 288.725L435.1 283.448L436.027 282.026L436.954 284.64L439.735 301.636L440.662 304.811L441.589 306.215L442.516 306.752L443.443 306.899L444.37 305.813L445.297 301.291L446.223 291.195L448.077 262.672L449.004 258.395L449.931 265.65L450.858 275.676L451.785 277.028L452.712 268.309L453.639 257.26L454.566 249.985L455.493 248.562L457.347 257.121L458.274 254.43L459.201 249.868L460.128 250.651L461.055 247.644L461.982 236.162L462.909 227.745L463.835 232.443L464.762 243.495L465.689 238.827L466.616 228.679L467.543 227.446L468.47 228.676L469.397 229.076L470.324 231.063L472.178 222.398L473.105 225.222L474.032 224.016L474.959 221.031L475.886 223.134L476.813 221.635L477.74 221.653L478.667 224.486L479.594 223.139L480.521 227.607L481.448 234.764L482.374 243.156L484.228 265.877L485.155 273.763L486.082 279.28L487.009 283.214L487.936 284.69L488.863 282.306L489.79 281.624L490.717 285.968L491.644 294.423L492.571 308.298L493.498 319.836L494.425 318.315L495.352 330.62L496.279 330.749L497.206 332.224L498.133 333.147L500.913 333.141L501.84 332.933L503.694 333.113L504.621 332.582L505.548 332.697L506.475 333.136L507.402 328.182L508.329 331.373L510.183 326.571L511.11 327.398L512.037 309.441L512.964 317.47L513.891 322.102L514.818 329.906L515.745 327.692L516.672 329.682L517.599 332.326L518.525 325.157L519.452 332.148L520.379 329.008L521.306 327.696L522.233 325.696L523.16 325.693L524.087 332.128L525.014 323.672L525.941 330.965L526.868 326.763L527.795 330.469L528.722 329.705L529.649 327.264L530.576 328.587L531.503 332.229L532.43 331.675L533.357 332.592L534.284 331.754L535.211 332.234L536.137 330.132L537.064 332.765L537.991 332.183L539.845 327.874L540.772 332.114L541.699 326.978L542.626 331.728L543.553 331.184L544.48 328.173L545.407 331.893L546.334 330.05L547.261 327.639L548.188 332.071L549.115 332.778L550.042 331.13L550.969 327.724L551.896 332.468L552.823 331.61L553.75 332.801L554.676 328.44L555.603 332.032L556.53 326.053L557.457 328.699L558.384 332.082L559.311 333.035L560.238 328.352L561.165 333.141L562.092 326.469L563.019 331.273L563.946 324.004" stroke="#E7BF52" stroke-width="2" stroke-linecap="square"/>
</g>
<mask id="mask8_1270_27" style="mask-type:luminance" maskUnits="userSpaceOnUse" x="370" y="207" width="204" height="133">
<path d="M573.169 207.357H370.26V339.139H573.169V207.357Z" fill="white"/>
</mask>
<g mask="url(#mask8_1270_27)">
<path d="M379.483 333.147L394.314 333.015L398.022 332.768L400.803 332.33L402.657 331.801L404.511 330.955L406.365 329.628L407.292 328.718L408.219 327.598L409.146 326.233L410.072 324.584L410.999 322.61L412.853 317.554L414.707 310.897L416.561 302.809L419.342 289.977L420.269 286.411L421.196 283.729L422.123 282.284L423.05 282.394L423.977 284.275L424.904 287.964L425.831 293.244L428.611 311.799L429.538 315.409L430.465 315.984L431.392 313.048L432.319 306.91L434.173 290.53L435.1 284.339L436.027 281.848L436.954 283.579L437.881 288.671L439.735 301.327L440.662 305.695L441.589 308.32L442.516 309.849L443.443 310.562L444.37 309.497L445.297 304.483L446.223 293.618L448.077 263.739L449.004 259.07L449.931 266.406L450.858 277.024L451.785 278.626L452.712 268.939L453.639 256.525L454.566 249.473L455.493 250.543L456.42 257.589L457.347 261.173L459.201 246.442L460.128 249.475L461.055 250.149L462.909 227.408L463.835 233.145L464.762 246.737L465.689 239.223L466.616 227.749L467.543 228.768L468.47 228.734L469.397 228.11L470.324 232.114L471.251 223.709L472.178 221.348L473.105 227.245L474.032 222.6L474.959 221.197L475.886 221.389L476.813 221.263L477.74 219.556L478.667 219.751L479.594 218.227L480.521 218.706L481.448 217.737L484.228 216.707L485.155 216.508L486.082 215.783L487.009 215.945L488.863 215.381L489.79 214.675L490.717 215.295L492.571 214.329L493.498 214.602L494.425 214.35L495.352 214.268L496.279 214.452L497.206 214.415L499.06 213.989L507.402 213.788L512.037 213.753L513.891 213.895L518.525 214.24L520.379 214.6L523.16 215.268L524.087 215.871L525.014 218.182L525.941 232.328L526.868 294.974L527.795 301.087L528.722 288.797L529.649 255.308L531.503 319.581L532.43 319.326L533.357 275.16L534.284 284.683L535.211 289.035L536.137 291.532L537.064 299.089L537.991 319.86L538.918 332.514L539.845 333.147L550.969 333.113L551.896 332.841L552.823 323.978L554.676 331.528L555.603 331.883L556.53 333.021L558.384 330.838L559.311 331.587L560.238 308.994L561.165 329.594L562.092 329.91L563.019 329.209L563.946 333.139" stroke="#5AA945" stroke-width="2" stroke-linecap="square"/>
</g>
<path d="M370.26 339.139V207.357" stroke="black" stroke-width="1.06667" stroke-linecap="square"/>
<path d="M573.169 339.139V207.357" stroke="black" stroke-width="1.06667" stroke-linecap="square"/>
<path d="M370.26 339.139H573.169" stroke="black" stroke-width="1.06667" stroke-linecap="square"/>
<path d="M370.26 207.357H573.169" stroke="black" stroke-width="1.06667" stroke-linecap="square"/>
<path d="M36.655 321.072C36.543 321.184 36.391 321.392 36.199 321.696C36.007 321.984 35.823 322.344 35.647 322.776C35.471 323.192 35.319 323.648 35.191 324.144C35.047 324.64 34.975 325.144 34.975 325.656C34.975 326.552 35.143 327.232 35.479 327.696C35.815 328.144 36.287 328.368 36.895 328.368C37.359 328.368 37.727 328.224 37.999 327.936C38.271 327.648 38.503 327.216 38.695 326.64C38.887 326.064 39.095 325.344 39.319 324.48C39.591 323.36 39.927 322.392 40.327 321.576C40.711 320.744 41.223 320.112 41.863 319.68C42.487 319.232 43.319 319.008 44.359 319.008C45.271 319.008 46.055 319.176 46.711 319.512C47.351 319.848 47.871 320.312 48.271 320.904C48.671 321.496 48.967 322.168 49.159 322.92C49.335 323.672 49.423 324.472 49.423 325.32C49.423 326.168 49.335 327.016 49.159 327.864C48.983 328.712 48.735 329.528 48.415 330.312C48.079 331.096 47.679 331.816 47.215 332.472L44.359 331.008C44.503 330.864 44.695 330.608 44.935 330.24C45.159 329.872 45.391 329.424 45.631 328.896C45.855 328.368 46.047 327.792 46.207 327.168C46.367 326.544 46.447 325.912 46.447 325.272C46.447 324.376 46.295 323.696 45.991 323.232C45.687 322.768 45.255 322.536 44.695 322.536C44.183 322.536 43.783 322.72 43.495 323.088C43.207 323.456 42.959 323.968 42.751 324.624C42.527 325.28 42.287 326.056 42.031 326.952C41.727 328.024 41.391 328.92 41.023 329.64C40.639 330.36 40.159 330.896 39.583 331.248C39.007 331.6 38.287 331.776 37.423 331.776C36.255 331.776 35.279 331.504 34.495 330.96C33.695 330.4 33.095 329.648 32.695 328.704C32.279 327.76 32.071 326.712 32.071 325.56C32.071 324.76 32.159 324.008 32.335 323.304C32.511 322.584 32.743 321.912 33.031 321.288C33.319 320.664 33.631 320.104 33.967 319.608L36.655 321.072ZM44.527 317.008L36.655 317.008L36.655 313.792L43.831 313.792C44.791 313.792 45.519 313.616 46.015 313.264C46.495 312.912 46.735 312.392 46.735 311.704C46.735 311.288 46.655 310.88 46.495 310.48C46.319 310.064 46.063 309.688 45.727 309.352C45.391 309 44.967 308.704 44.455 308.464L36.655 308.464L36.655 305.248L45.631 305.248C45.967 305.248 46.207 305.192 46.351 305.08C46.495 304.952 46.583 304.752 46.615 304.48L49.231 304.48C49.279 304.8 49.311 305.072 49.327 305.296C49.359 305.504 49.375 305.696 49.375 305.872C49.375 306.448 49.247 306.92 48.991 307.288C48.719 307.64 48.351 307.848 47.887 307.912L46.879 307.984C47.727 308.544 48.375 309.264 48.823 310.144C49.255 311.024 49.471 311.992 49.471 313.048C49.471 314.344 49.055 315.328 48.223 316C47.375 316.672 46.143 317.008 44.527 317.008ZM49.471 296.196C49.471 297.22 49.303 298.14 48.967 298.956C48.615 299.772 48.135 300.468 47.527 301.044C46.903 301.62 46.199 302.068 45.415 302.388C44.631 302.692 43.807 302.844 42.943 302.844C41.759 302.844 40.679 302.58 39.703 302.052C38.711 301.508 37.919 300.74 37.327 299.748C36.735 298.756 36.439 297.58 36.439 296.22C36.439 294.86 36.735 293.692 37.327 292.716C37.919 291.74 38.695 291.012 39.655 290.532L40.615 293.676C40.151 293.948 39.799 294.308 39.559 294.756C39.303 295.204 39.175 295.7 39.175 296.244C39.175 296.852 39.335 297.412 39.655 297.924C39.959 298.42 40.399 298.812 40.975 299.1C41.535 299.388 42.191 299.532 42.943 299.532C43.679 299.532 44.335 299.388 44.911 299.1C45.471 298.796 45.919 298.396 46.255 297.9C46.575 297.404 46.735 296.852 46.735 296.244C46.735 295.86 46.671 295.5 46.543 295.164C46.415 294.812 46.239 294.5 46.015 294.228C45.791 293.956 45.535 293.756 45.247 293.628L46.207 290.484C46.831 290.772 47.391 291.196 47.887 291.756C48.383 292.3 48.775 292.948 49.063 293.7C49.335 294.436 49.471 295.268 49.471 296.196ZM49.471 282.766C49.471 283.79 49.303 284.71 48.967 285.526C48.615 286.342 48.135 287.038 47.527 287.614C46.903 288.19 46.199 288.638 45.415 288.958C44.631 289.262 43.807 289.414 42.943 289.414C41.759 289.414 40.679 289.15 39.703 288.622C38.711 288.078 37.919 287.31 37.327 286.318C36.735 285.326 36.439 284.15 36.439 282.79C36.439 281.43 36.735 280.262 37.327 279.286C37.919 278.31 38.695 277.582 39.655 277.102L40.615 280.246C40.151 280.518 39.799 280.878 39.559 281.326C39.303 281.774 39.175 282.27 39.175 282.814C39.175 283.422 39.335 283.982 39.655 284.494C39.959 284.99 40.399 285.382 40.975 285.67C41.535 285.958 42.191 286.102 42.943 286.102C43.679 286.102 44.335 285.958 44.911 285.67C45.471 285.366 45.919 284.966 46.255 284.47C46.575 283.974 46.735 283.422 46.735 282.814C46.735 282.43 46.671 282.07 46.543 281.734C46.415 281.382 46.239 281.07 46.015 280.798C45.791 280.526 45.535 280.326 45.247 280.198L46.207 277.054C46.831 277.342 47.391 277.766 47.887 278.326C48.383 278.87 48.775 279.518 49.063 280.27C49.335 281.006 49.471 281.838 49.471 282.766ZM49.471 269.36C49.471 270.368 49.303 271.28 48.967 272.096C48.615 272.912 48.143 273.608 47.551 274.184C46.943 274.76 46.255 275.208 45.487 275.528C44.703 275.832 43.879 275.984 43.015 275.984C41.815 275.984 40.719 275.72 39.727 275.192C38.735 274.648 37.943 273.88 37.351 272.888C36.743 271.88 36.439 270.696 36.439 269.336C36.439 267.96 36.743 266.784 37.351 265.808C37.943 264.832 38.735 264.088 39.727 263.576C40.703 263.048 41.759 262.784 42.895 262.784C43.087 262.784 43.287 262.792 43.495 262.808C43.687 262.824 43.847 262.84 43.975 262.856L43.975 272.576C44.615 272.512 45.175 272.328 45.655 272.024C46.135 271.704 46.503 271.304 46.759 270.824C46.999 270.328 47.119 269.8 47.119 269.24C47.119 268.6 46.967 268 46.663 267.44C46.343 266.864 45.927 266.472 45.415 266.264L46.183 263.504C46.823 263.808 47.391 264.248 47.887 264.824C48.383 265.384 48.775 266.048 49.063 266.816C49.335 267.584 49.471 268.432 49.471 269.36ZM41.935 272.648L41.935 266.072C41.295 266.136 40.743 266.32 40.279 266.624C39.799 266.912 39.431 267.296 39.175 267.776C38.903 268.256 38.767 268.792 38.767 269.384C38.767 269.96 38.903 270.488 39.175 270.968C39.431 271.432 39.799 271.816 40.279 272.12C40.743 272.408 41.295 272.584 41.935 272.648ZM49.471 256.193C49.471 257.265 49.295 258.289 48.943 259.265C48.591 260.241 48.071 261.081 47.383 261.785L45.295 260.633C45.903 259.881 46.351 259.145 46.639 258.425C46.927 257.689 47.071 256.985 47.071 256.313C47.071 255.689 46.959 255.193 46.735 254.825C46.511 254.441 46.175 254.249 45.727 254.249C45.423 254.249 45.191 254.353 45.031 254.561C44.855 254.769 44.703 255.073 44.575 255.473C44.447 255.857 44.303 256.329 44.143 256.889C43.839 257.817 43.543 258.593 43.255 259.217C42.967 259.841 42.607 260.313 42.175 260.633C41.727 260.937 41.159 261.089 40.471 261.089C39.639 261.089 38.927 260.881 38.335 260.465C37.727 260.033 37.255 259.441 36.919 258.689C36.583 257.921 36.415 257.025 36.415 256.001C36.415 255.105 36.559 254.257 36.847 253.457C37.119 252.657 37.567 251.929 38.191 251.273L40.231 252.569C39.735 253.209 39.375 253.817 39.151 254.393C38.911 254.969 38.791 255.553 38.791 256.145C38.791 256.481 38.831 256.801 38.911 257.105C38.991 257.393 39.127 257.633 39.319 257.825C39.495 258.001 39.751 258.089 40.087 258.089C40.391 258.089 40.631 258.009 40.807 257.849C40.967 257.673 41.111 257.417 41.239 257.081C41.367 256.729 41.511 256.305 41.671 255.809C41.959 254.801 42.255 253.953 42.559 253.265C42.863 252.561 43.239 252.033 43.687 251.681C44.119 251.329 44.719 251.153 45.487 251.153C46.735 251.153 47.711 251.609 48.415 252.521C49.119 253.433 49.471 254.657 49.471 256.193ZM49.471 244.334C49.471 245.406 49.295 246.43 48.943 247.406C48.591 248.382 48.071 249.222 47.383 249.926L45.295 248.774C45.903 248.022 46.351 247.286 46.639 246.566C46.927 245.83 47.071 245.126 47.071 244.454C47.071 243.83 46.959 243.334 46.735 242.966C46.511 242.582 46.175 242.39 45.727 242.39C45.423 242.39 45.191 242.494 45.031 242.702C44.855 242.91 44.703 243.214 44.575 243.614C44.447 243.998 44.303 244.47 44.143 245.03C43.839 245.958 43.543 246.734 43.255 247.358C42.967 247.982 42.607 248.454 42.175 248.774C41.727 249.078 41.159 249.23 40.471 249.23C39.639 249.23 38.927 249.022 38.335 248.606C37.727 248.174 37.255 247.582 36.919 246.83C36.583 246.062 36.415 245.166 36.415 244.142C36.415 243.246 36.559 242.398 36.847 241.598C37.119 240.798 37.567 240.07 38.191 239.414L40.231 240.71C39.735 241.35 39.375 241.958 39.151 242.534C38.911 243.11 38.791 243.694 38.791 244.286C38.791 244.622 38.831 244.942 38.911 245.246C38.991 245.534 39.127 245.774 39.319 245.966C39.495 246.142 39.751 246.23 40.087 246.23C40.391 246.23 40.631 246.15 40.807 245.99C40.967 245.814 41.111 245.558 41.239 245.222C41.367 244.87 41.511 244.446 41.671 243.95C41.959 242.942 42.255 242.094 42.559 241.406C42.863 240.702 43.239 240.174 43.687 239.822C44.119 239.47 44.719 239.294 45.487 239.294C46.735 239.294 47.711 239.75 48.415 240.662C49.119 241.574 49.471 242.798 49.471 244.334ZM49.231 231.029L32.191 231.029L32.191 223.805C32.191 223.021 32.351 222.301 32.671 221.645C32.991 220.989 33.423 220.421 33.967 219.941C34.511 219.445 35.119 219.061 35.791 218.789C36.463 218.517 37.151 218.381 37.855 218.381C38.815 218.381 39.727 218.605 40.591 219.053C41.455 219.501 42.159 220.117 42.703 220.901C43.247 221.685 43.519 222.613 43.519 223.685L43.519 227.717L49.231 227.717L49.231 231.029ZM40.615 227.717L40.615 223.877C40.615 223.477 40.503 223.117 40.279 222.797C40.055 222.477 39.735 222.221 39.319 222.029C38.887 221.837 38.399 221.741 37.855 221.741C37.263 221.741 36.759 221.853 36.343 222.077C35.927 222.285 35.615 222.565 35.407 222.917C35.199 223.253 35.095 223.621 35.095 224.021L35.095 227.717L40.615 227.717ZM39.439 208.9C39.439 209.876 39.631 210.748 40.015 211.516C40.383 212.284 40.919 212.836 41.623 213.172L49.231 213.172L49.231 216.388L36.655 216.388L36.655 213.436L39.343 213.436C38.479 212.988 37.799 212.42 37.303 211.732C36.807 211.044 36.535 210.316 36.487 209.548C36.487 209.372 36.487 209.236 36.487 209.14C36.487 209.044 36.495 208.964 36.511 208.9L39.439 208.9ZM49.471 201.462C49.471 202.486 49.303 203.406 48.967 204.222C48.615 205.038 48.135 205.734 47.527 206.31C46.919 206.87 46.223 207.302 45.439 207.606C44.655 207.91 43.831 208.062 42.967 208.062C42.087 208.062 41.255 207.91 40.471 207.606C39.687 207.302 38.991 206.87 38.383 206.31C37.775 205.734 37.303 205.038 36.967 204.222C36.615 203.406 36.439 202.486 36.439 201.462C36.4389 200.438 36.615 199.526 36.967 198.726C37.303 197.91 37.775 197.214 38.383 196.638C38.991 196.062 39.687 195.63 40.471 195.342C41.255 195.038 42.087 194.886 42.967 194.886C43.831 194.886 44.655 195.038 45.439 195.342C46.223 195.63 46.919 196.062 47.527 196.638C48.135 197.198 48.615 197.886 48.967 198.702C49.303 199.518 49.471 200.438 49.471 201.462ZM42.967 204.75C43.703 204.75 44.359 204.606 44.935 204.318C45.495 204.03 45.935 203.638 46.255 203.142C46.575 202.646 46.735 202.086 46.735 201.462C46.735 200.854 46.575 200.302 46.255 199.806C45.919 199.31 45.471 198.918 44.911 198.63C44.335 198.326 43.679 198.174 42.943 198.174C42.223 198.174 41.575 198.326 40.999 198.63C40.423 198.918 39.975 199.31 39.655 199.806C39.335 200.302 39.175 200.854 39.175 201.462C39.175 202.086 39.343 202.646 39.679 203.142C39.999 203.638 40.447 204.03 41.023 204.318C41.583 204.606 42.231 204.75 42.967 204.75ZM49.471 185.564C49.471 186.524 49.255 187.38 48.823 188.132C48.391 188.884 47.799 189.476 47.047 189.908L49.231 189.908L49.231 192.716L31.711 192.716L31.711 189.5L38.863 189.5C38.111 189.052 37.5189 188.468 37.0869 187.748C36.6549 187.012 36.4389 186.156 36.4389 185.18C36.4389 184.364 36.6149 183.62 36.9669 182.948C37.3029 182.276 37.775 181.7 38.3829 181.22C38.9909 180.724 39.6869 180.348 40.471 180.092C41.255 179.82 42.0949 179.684 42.9909 179.684C43.8869 179.684 44.727 179.836 45.511 180.14C46.295 180.428 46.991 180.836 47.599 181.364C48.191 181.892 48.655 182.516 48.991 183.236C49.311 183.94 49.471 184.716 49.471 185.564ZM46.735 186.452C46.735 185.94 46.639 185.476 46.447 185.06C46.239 184.628 45.967 184.26 45.631 183.956C45.295 183.636 44.903 183.396 44.455 183.236C43.991 183.06 43.511 182.972 43.015 182.972C42.327 182.972 41.6949 183.116 41.1189 183.404C40.5269 183.676 40.0549 184.06 39.703 184.556C39.3509 185.036 39.1749 185.604 39.1749 186.26C39.1749 186.724 39.2869 187.172 39.5109 187.604C39.719 188.02 40.007 188.396 40.375 188.732C40.743 189.052 41.159 189.308 41.623 189.5L44.623 189.5C44.943 189.404 45.231 189.252 45.487 189.044C45.743 188.82 45.967 188.564 46.159 188.276C46.335 187.988 46.479 187.692 46.591 187.388C46.687 187.068 46.735 186.756 46.735 186.452ZM45.511 178.369C44.695 178.369 43.9829 178.145 43.3749 177.697C42.7509 177.233 42.2709 176.593 41.9349 175.777C41.5989 174.961 41.4309 174.025 41.4309 172.969C41.4309 172.441 41.4709 171.905 41.5509 171.361C41.6309 170.817 41.7589 170.345 41.9349 169.945L41.2629 169.945C40.4629 169.945 39.8469 170.185 39.4149 170.665C38.9829 171.129 38.7669 171.825 38.7669 172.753C38.7669 173.441 38.8869 174.097 39.1269 174.721C39.3669 175.345 39.7189 176.001 40.183 176.689L38.0709 177.721C37.5269 176.889 37.1189 176.041 36.8469 175.177C36.5749 174.297 36.4389 173.377 36.4389 172.417C36.4389 170.625 36.8869 169.233 37.7829 168.241C38.6789 167.233 39.9589 166.729 41.6229 166.729L45.6309 166.729C45.9669 166.729 46.2069 166.673 46.3509 166.561C46.4949 166.433 46.5829 166.233 46.6149 165.961L49.2309 165.961C49.2789 166.249 49.3189 166.513 49.3509 166.753C49.3829 166.977 49.3989 167.169 49.3989 167.329C49.3989 167.969 49.2549 168.457 48.9669 168.793C48.6789 169.113 48.3269 169.313 47.9109 169.393L47.2629 169.465C47.9669 170.009 48.5109 170.689 48.8949 171.505C49.279 172.321 49.471 173.153 49.471 174.001C49.471 174.833 49.303 175.585 48.967 176.257C48.615 176.913 48.143 177.433 47.551 177.817C46.943 178.185 46.263 178.369 45.511 178.369ZM46.1589 170.545C45.9669 170.369 45.7749 170.225 45.5829 170.113C45.3909 170.001 45.2149 169.945 45.0549 169.945L43.7829 169.945C43.6229 170.329 43.5029 170.745 43.4229 171.193C43.3269 171.641 43.2789 172.065 43.2789 172.465C43.2789 173.297 43.4629 173.985 43.8309 174.529C44.1829 175.057 44.6549 175.321 45.2469 175.321C45.5669 175.321 45.8709 175.233 46.1589 175.057C46.4469 174.881 46.6789 174.625 46.8549 174.289C47.0309 173.953 47.1189 173.553 47.1189 173.089C47.1189 172.609 47.0309 172.137 46.8549 171.673C46.6629 171.209 46.4309 170.833 46.1589 170.545ZM49.4709 156.571C49.4709 157.531 49.2549 158.387 48.8229 159.139C48.3909 159.891 47.7989 160.483 47.0469 160.915L49.2309 160.915L49.2309 163.723L31.7109 163.723L31.7109 160.507L38.8629 160.507C38.1109 160.059 37.5189 159.475 37.0869 158.755C36.6549 158.019 36.4389 157.163 36.4389 156.187C36.4389 155.371 36.6149 154.627 36.9669 153.955C37.3029 153.283 37.7749 152.707 38.3829 152.227C38.9909 151.731 39.6869 151.355 40.4709 151.099C41.2549 150.827 42.0949 150.691 42.9909 150.691C43.8869 150.691 44.7269 150.843 45.5109 151.147C46.2949 151.435 46.9909 151.843 47.5989 152.371C48.1909 152.899 48.6549 153.523 48.9909 154.243C49.3109 154.947 49.4709 155.723 49.4709 156.571ZM46.7349 157.459C46.7349 156.947 46.6389 156.483 46.4469 156.067C46.2389 155.635 45.9669 155.267 45.6309 154.963C45.2949 154.643 44.9029 154.403 44.4549 154.243C43.9909 154.067 43.5109 153.979 43.0149 153.979C42.3269 153.979 41.6949 154.123 41.1189 154.411C40.5269 154.683 40.0549 155.067 39.7029 155.563C39.3509 156.043 39.1749 156.611 39.1749 157.267C39.1749 157.731 39.2869 158.179 39.5109 158.611C39.7189 159.027 40.0069 159.403 40.3749 159.739C40.7429 160.059 41.1589 160.315 41.6229 160.507L44.6229 160.507C44.9429 160.411 45.2309 160.259 45.4869 160.051C45.7429 159.827 45.9669 159.571 46.1589 159.283C46.3349 158.995 46.4789 158.699 46.5909 158.395C46.6869 158.075 46.7349 157.763 46.7349 157.459ZM49.2309 148.513L36.6549 148.513L36.6549 145.297L49.2309 145.297L49.2309 148.513ZM34.9029 148.513L31.7109 148.513L31.7109 145.297L34.9029 145.297L34.9029 148.513ZM31.7109 142.419L31.7109 139.203L45.1989 139.203C45.7749 139.203 46.1669 139.107 46.3749 138.915C46.5669 138.723 46.6629 138.459 46.6629 138.123C46.6629 137.867 46.6309 137.603 46.5669 137.331C46.5029 137.059 46.4229 136.819 46.3269 136.611L48.7749 136.179C48.9829 136.611 49.1429 137.115 49.2549 137.691C49.3669 138.267 49.4229 138.787 49.4229 139.251C49.4229 140.259 49.1589 141.043 48.6309 141.603C48.0869 142.147 47.3189 142.419 46.3269 142.419L31.7109 142.419ZM49.2309 134.778L36.6549 134.778L36.6549 131.562L49.2309 131.562L49.2309 134.778ZM34.9029 134.778L31.7109 134.778L31.7109 131.562L34.9029 131.562L34.9029 134.778ZM48.5829 121.125C48.6949 121.397 48.8229 121.725 48.9669 122.109C49.1109 122.493 49.2229 122.909 49.3029 123.357C49.3989 123.789 49.4469 124.229 49.4469 124.677C49.4469 125.269 49.3429 125.813 49.1349 126.309C48.9269 126.805 48.5989 127.205 48.1509 127.509C47.6869 127.797 47.0869 127.941 46.3509 127.941L39.1269 127.941L39.1269 129.597L36.6549 129.597L36.6549 127.941L32.5749 127.941L32.5749 124.725L36.6549 124.725L36.6549 122.085L39.1269 122.085L39.1269 124.725L45.2709 124.725C45.7029 124.709 46.0149 124.589 46.2069 124.365C46.3989 124.141 46.4949 123.861 46.4949 123.525C46.4949 123.189 46.4389 122.861 46.3269 122.541C46.2149 122.221 46.1189 121.965 46.0389 121.773L48.5829 121.125ZM51.6789 119.233C51.7429 118.945 51.7989 118.681 51.8469 118.441C51.8949 118.185 51.9189 117.969 51.9189 117.793C51.9189 117.489 51.8389 117.241 51.6789 117.049C51.5349 116.841 51.2629 116.641 50.8629 116.449C50.4789 116.257 49.9349 116.057 49.2309 115.849L36.6549 120.817L36.6549 117.481L45.9429 114.097L36.6549 111.121L36.6549 108.049L51.7269 113.329C52.2869 113.521 52.7909 113.817 53.2389 114.217C53.7029 114.601 54.0629 115.089 54.3189 115.681C54.5909 116.257 54.7269 116.905 54.7269 117.625C54.7269 117.881 54.7029 118.137 54.6549 118.393C54.6229 118.649 54.5589 118.929 54.4629 119.233L51.6789 119.233Z" fill="black"/>
</svg>
