<svg width="640" height="440" viewBox="0 0 640 440" fill="none" xmlns="http://www.w3.org/2000/svg">
<rect x="0.5" y="0.5" width="639" height="439" fill="#F6F3ED"/>
<rect x="0.5" y="0.5" width="639" height="439" stroke="#E0DBC8"/>
<path d="M116.429 339.118H562.829V49.1985H116.429V339.118Z" fill="white"/>
<path d="M116.429 339.118V343.785V339.118Z" fill="black"/>
<path d="M116.429 339.118V343.785" stroke="black" stroke-width="1.06667"/>
<path d="M95.4104 361.836H98.6323V350.711L95.126 351.414V349.617L98.6135 348.914H100.585V361.836H103.807V363.495H95.4104V361.836Z" fill="black"/>
<path d="M112.01 350.214C110.995 350.214 110.232 350.714 109.719 351.714C109.209 352.712 108.954 354.214 108.954 356.22C108.954 358.218 109.209 359.717 109.719 360.717C110.232 361.717 110.995 362.217 112.01 362.217C113.033 362.217 113.8 361.717 114.31 360.717C114.823 359.717 115.079 358.218 115.079 356.22C115.079 354.214 114.823 352.712 114.31 351.714C113.8 350.714 113.033 350.214 112.01 350.214ZM112.01 348.652C113.645 348.652 114.894 349.299 115.757 350.592C116.619 351.884 117.051 353.76 117.051 356.22C117.051 358.675 116.619 360.549 115.757 361.842C114.894 363.134 113.645 363.78 112.01 363.78C110.377 363.78 109.129 363.134 108.266 361.842C107.404 360.549 106.973 358.675 106.973 356.22C106.973 353.76 107.404 351.884 108.266 350.592C109.129 349.299 110.377 348.652 112.01 348.652Z" fill="black"/>
<path d="M120.053 350.869H128.816V352.031H120.053V350.869Z" fill="black"/>
<path d="M132.986 354.678H137.806V355.839H131.326V354.678C131.85 354.135 132.564 353.407 133.468 352.495C134.373 351.58 134.942 350.99 135.174 350.725C135.616 350.229 135.924 349.809 136.099 349.465C136.276 349.121 136.364 348.782 136.364 348.45C136.364 347.907 136.174 347.465 135.793 347.124C135.412 346.782 134.917 346.61 134.306 346.61C133.872 346.61 133.415 346.685 132.934 346.835C132.454 346.986 131.941 347.214 131.394 347.52V346.125C131.95 345.901 132.469 345.733 132.951 345.619C133.436 345.505 133.878 345.449 134.279 345.449C135.337 345.449 136.18 345.713 136.808 346.243C137.437 346.771 137.751 347.476 137.751 348.36C137.751 348.78 137.672 349.178 137.515 349.555C137.359 349.929 137.073 350.372 136.657 350.882C136.543 351.015 136.181 351.397 135.57 352.029C134.96 352.66 134.099 353.543 132.986 354.678Z" fill="black"/>
<path d="M211.429 339.118V343.785V339.118Z" fill="black"/>
<path d="M211.429 339.118V343.785" stroke="black" stroke-width="1.06667"/>
<path d="M306.428 339.118V343.785V339.118Z" fill="black"/>
<path d="M306.428 339.118V343.785" stroke="black" stroke-width="1.06667"/>
<path d="M291.31 361.836H294.531V350.711L291.025 351.414V349.617L294.513 348.914H296.485V361.836H299.706V363.495H291.31V361.836Z" fill="black"/>
<path d="M307.909 350.214C306.895 350.214 306.131 350.714 305.618 351.714C305.108 352.712 304.853 354.214 304.853 356.22C304.853 358.218 305.108 359.717 305.618 360.717C306.131 361.717 306.895 362.217 307.909 362.217C308.932 362.217 309.699 361.717 310.209 360.717C310.722 359.717 310.978 358.218 310.978 356.22C310.978 354.214 310.722 352.712 310.209 351.714C309.699 350.714 308.932 350.214 307.909 350.214ZM307.909 348.652C309.545 348.652 310.793 349.299 311.656 350.592C312.518 351.884 312.95 353.76 312.95 356.22C312.95 358.675 312.518 360.549 311.656 361.842C310.793 363.134 309.545 363.78 307.909 363.78C306.276 363.78 305.028 363.134 304.165 361.842C303.303 360.549 302.872 358.675 302.872 356.22C302.872 353.76 303.303 351.884 304.165 350.592C305.028 349.299 306.276 348.652 307.909 348.652Z" fill="black"/>
<path d="M318.918 346.542C318.208 346.542 317.674 346.892 317.315 347.592C316.958 348.291 316.779 349.342 316.779 350.747C316.779 352.145 316.958 353.194 317.315 353.894C317.674 354.594 318.208 354.944 318.918 354.944C319.634 354.944 320.171 354.594 320.528 353.894C320.887 353.194 321.066 352.145 321.066 350.747C321.066 349.342 320.887 348.291 320.528 347.592C320.171 346.892 319.634 346.542 318.918 346.542ZM318.918 345.449C320.063 345.449 320.937 345.901 321.541 346.807C322.145 347.711 322.447 349.024 322.447 350.747C322.447 352.465 322.145 353.776 321.541 354.682C320.937 355.586 320.063 356.038 318.918 356.038C317.775 356.038 316.901 355.586 316.298 354.682C315.694 353.776 315.392 352.465 315.392 350.747C315.392 349.024 315.694 347.711 316.298 346.807C316.901 345.901 317.775 345.449 318.918 345.449Z" fill="black"/>
<path d="M401.428 339.118V343.785V339.118Z" fill="black"/>
<path d="M401.428 339.118V343.785" stroke="black" stroke-width="1.06667"/>
<path d="M496.427 339.118V343.785V339.118Z" fill="black"/>
<path d="M496.427 339.118V343.785" stroke="black" stroke-width="1.06667"/>
<path d="M481.309 361.836H484.53V350.711L481.024 351.414V349.617L484.512 348.914H486.484V361.836H489.705V363.495H481.309V361.836Z" fill="black"/>
<path d="M497.908 350.214C496.894 350.214 496.13 350.714 495.618 351.714C495.107 352.712 494.852 354.214 494.852 356.22C494.852 358.218 495.107 359.717 495.618 360.717C496.13 361.717 496.894 362.217 497.908 362.217C498.931 362.217 499.698 361.717 500.208 360.717C500.721 359.717 500.977 358.218 500.977 356.22C500.977 354.214 500.721 352.712 500.208 351.714C499.698 350.714 498.931 350.214 497.908 350.214ZM497.908 348.652C499.544 348.652 500.793 349.299 501.655 350.592C502.518 351.884 502.949 353.76 502.949 356.22C502.949 358.675 502.518 360.549 501.655 361.842C500.793 363.134 499.544 363.78 497.908 363.78C496.275 363.78 495.027 363.134 494.164 361.842C493.302 360.549 492.871 358.675 492.871 356.22C492.871 353.76 493.302 351.884 494.164 350.592C495.027 349.299 496.275 348.652 497.908 348.652Z" fill="black"/>
<path d="M507.154 354.678H511.973V355.839H505.494V354.678C506.017 354.135 506.731 353.407 507.635 352.495C508.541 351.58 509.11 350.99 509.342 350.725C509.784 350.229 510.092 349.809 510.267 349.465C510.443 349.121 510.532 348.782 510.532 348.45C510.532 347.907 510.341 347.465 509.961 347.124C509.58 346.782 509.084 346.61 508.473 346.61C508.04 346.61 507.583 346.685 507.102 346.835C506.622 346.986 506.109 347.214 505.562 347.52V346.125C506.117 345.901 506.637 345.733 507.119 345.619C507.603 345.505 508.046 345.449 508.447 345.449C509.504 345.449 510.347 345.713 510.976 346.243C511.604 346.771 511.919 347.476 511.919 348.36C511.919 348.78 511.84 349.178 511.682 349.555C511.526 349.929 511.24 350.372 510.825 350.882C510.711 351.015 510.349 351.397 509.738 352.029C509.128 352.66 508.267 353.543 507.154 354.678Z" fill="black"/>
<path d="M145.027 339.118V341.785V339.118Z" fill="black"/>
<path d="M145.027 339.118V341.785" stroke="black" stroke-width="0.8"/>
<path d="M161.755 339.118V341.785V339.118Z" fill="black"/>
<path d="M161.755 339.118V341.785" stroke="black" stroke-width="0.8"/>
<path d="M173.625 339.118V341.785V339.118Z" fill="black"/>
<path d="M173.625 339.118V341.785" stroke="black" stroke-width="0.8"/>
<path d="M182.831 339.118V341.785V339.118Z" fill="black"/>
<path d="M182.831 339.118V341.785" stroke="black" stroke-width="0.8"/>
<path d="M190.353 339.118V341.785V339.118Z" fill="black"/>
<path d="M190.353 339.118V341.785" stroke="black" stroke-width="0.8"/>
<path d="M196.713 339.118V341.785V339.118Z" fill="black"/>
<path d="M196.713 339.118V341.785" stroke="black" stroke-width="0.8"/>
<path d="M202.222 339.118V341.785V339.118Z" fill="black"/>
<path d="M202.222 339.118V341.785" stroke="black" stroke-width="0.8"/>
<path d="M207.082 339.118V341.785V339.118Z" fill="black"/>
<path d="M207.082 339.118V341.785" stroke="black" stroke-width="0.8"/>
<path d="M240.026 339.118V341.785V339.118Z" fill="black"/>
<path d="M240.026 339.118V341.785" stroke="black" stroke-width="0.8"/>
<path d="M256.755 339.118V341.785V339.118Z" fill="black"/>
<path d="M256.755 339.118V341.785" stroke="black" stroke-width="0.8"/>
<path d="M268.624 339.118V341.785V339.118Z" fill="black"/>
<path d="M268.624 339.118V341.785" stroke="black" stroke-width="0.8"/>
<path d="M277.831 339.118V341.785V339.118Z" fill="black"/>
<path d="M277.831 339.118V341.785" stroke="black" stroke-width="0.8"/>
<path d="M285.353 339.118V341.785V339.118Z" fill="black"/>
<path d="M285.353 339.118V341.785" stroke="black" stroke-width="0.8"/>
<path d="M291.713 339.118V341.785V339.118Z" fill="black"/>
<path d="M291.713 339.118V341.785" stroke="black" stroke-width="0.8"/>
<path d="M297.222 339.118V341.785V339.118Z" fill="black"/>
<path d="M297.222 339.118V341.785" stroke="black" stroke-width="0.8"/>
<path d="M302.081 339.118V341.785V339.118Z" fill="black"/>
<path d="M302.081 339.118V341.785" stroke="black" stroke-width="0.8"/>
<path d="M335.026 339.118V341.785V339.118Z" fill="black"/>
<path d="M335.026 339.118V341.785" stroke="black" stroke-width="0.8"/>
<path d="M351.755 339.118V341.785V339.118Z" fill="black"/>
<path d="M351.755 339.118V341.785" stroke="black" stroke-width="0.8"/>
<path d="M363.624 339.118V341.785V339.118Z" fill="black"/>
<path d="M363.624 339.118V341.785" stroke="black" stroke-width="0.8"/>
<path d="M372.83 339.118V341.785V339.118Z" fill="black"/>
<path d="M372.83 339.118V341.785" stroke="black" stroke-width="0.8"/>
<path d="M380.352 339.118V341.785V339.118Z" fill="black"/>
<path d="M380.352 339.118V341.785" stroke="black" stroke-width="0.8"/>
<path d="M386.712 339.118V341.785V339.118Z" fill="black"/>
<path d="M386.712 339.118V341.785" stroke="black" stroke-width="0.8"/>
<path d="M392.221 339.118V341.785V339.118Z" fill="black"/>
<path d="M392.221 339.118V341.785" stroke="black" stroke-width="0.8"/>
<path d="M397.081 339.118V341.785V339.118Z" fill="black"/>
<path d="M397.081 339.118V341.785" stroke="black" stroke-width="0.8"/>
<path d="M430.026 339.118V341.785V339.118Z" fill="black"/>
<path d="M430.026 339.118V341.785" stroke="black" stroke-width="0.8"/>
<path d="M446.754 339.118V341.785V339.118Z" fill="black"/>
<path d="M446.754 339.118V341.785" stroke="black" stroke-width="0.8"/>
<path d="M458.623 339.118V341.785V339.118Z" fill="black"/>
<path d="M458.623 339.118V341.785" stroke="black" stroke-width="0.8"/>
<path d="M467.83 339.118V341.785V339.118Z" fill="black"/>
<path d="M467.83 339.118V341.785" stroke="black" stroke-width="0.8"/>
<path d="M475.352 339.118V341.785V339.118Z" fill="black"/>
<path d="M475.352 339.118V341.785" stroke="black" stroke-width="0.8"/>
<path d="M481.712 339.118V341.785V339.118Z" fill="black"/>
<path d="M481.712 339.118V341.785" stroke="black" stroke-width="0.8"/>
<path d="M487.221 339.118V341.785V339.118Z" fill="black"/>
<path d="M487.221 339.118V341.785" stroke="black" stroke-width="0.8"/>
<path d="M492.08 339.118V341.785V339.118Z" fill="black"/>
<path d="M492.08 339.118V341.785" stroke="black" stroke-width="0.8"/>
<path d="M525.025 339.118V341.785V339.118Z" fill="black"/>
<path d="M525.025 339.118V341.785" stroke="black" stroke-width="0.8"/>
<path d="M541.754 339.118V341.785V339.118Z" fill="black"/>
<path d="M541.754 339.118V341.785" stroke="black" stroke-width="0.8"/>
<path d="M553.623 339.118V341.785V339.118Z" fill="black"/>
<path d="M553.623 339.118V341.785" stroke="black" stroke-width="0.8"/>
<path d="M562.829 339.118V341.785V339.118Z" fill="black"/>
<path d="M562.829 339.118V341.785" stroke="black" stroke-width="0.8"/>
<path d="M336.191 375.522L337.782 385.438L345.202 373H348L338.397 389.052L337.209 395.156H334.572L335.76 389.052L333.884 377.068C333.691 375.866 333.141 375.266 332.233 375.266H331.531L331.962 373H332.967C334.847 373 335.922 373.841 336.191 375.522Z" fill="black" stroke="black"/>
<path d="M345.507 409.259L344.98 411.868C344.347 411.41 343.674 411.066 342.962 410.836C342.252 410.607 341.516 410.492 340.751 410.492C339.91 410.492 339.109 410.641 338.348 410.937C337.59 411.234 336.952 411.654 336.436 412.199C335.613 413.03 334.977 414.005 334.528 415.125C334.081 416.24 333.858 417.396 333.858 418.592C333.858 420.035 334.219 421.109 334.941 421.816C335.662 422.522 336.758 422.875 338.229 422.875C338.954 422.875 339.724 422.765 340.54 422.545C341.36 422.325 342.213 421.996 343.099 421.559L342.6 424.164C341.835 424.479 341.049 424.716 340.242 424.875C339.435 425.034 338.606 425.113 337.757 425.113C335.625 425.113 333.987 424.581 332.84 423.517C331.694 422.45 331.12 420.928 331.12 418.949C331.12 417.286 331.418 415.754 332.015 414.354C332.611 412.954 333.498 411.696 334.675 410.58C335.476 409.815 336.416 409.237 337.495 408.846C338.577 408.455 339.758 408.259 341.036 408.259C341.782 408.259 342.522 408.343 343.255 408.511C343.992 408.676 344.743 408.926 345.507 409.259Z" fill="black" stroke="black"/>
<path d="M329.353 405.638V403.018H346.723V405.638H329.353Z" fill="black" stroke="black"/>
<path d="M116.429 339.118H111.762H116.429Z" fill="black"/>
<path d="M116.429 339.118H111.762" stroke="black" stroke-width="1.06667"/>
<path d="M81.6458 333.436C80.6312 333.436 79.8677 333.936 79.3552 334.936C78.8448 335.934 78.5896 337.436 78.5896 339.442C78.5896 341.44 78.8448 342.939 79.3552 343.939C79.8677 344.939 80.6312 345.439 81.6458 345.439C82.6687 345.439 83.4354 344.939 83.9458 343.939C84.4583 342.939 84.7146 341.44 84.7146 339.442C84.7146 337.436 84.4583 335.934 83.9458 334.936C83.4354 333.936 82.6687 333.436 81.6458 333.436ZM81.6458 331.873C83.2812 331.873 84.5302 332.52 85.3927 333.814C86.2552 335.106 86.6865 336.982 86.6865 339.442C86.6865 341.896 86.2552 343.77 85.3927 345.064C84.5302 346.356 83.2812 347.001 81.6458 347.001C80.0125 347.001 78.7646 346.356 77.9021 345.064C77.0396 343.77 76.6083 341.896 76.6083 339.442C76.6083 336.982 77.0396 335.106 77.9021 333.814C78.7646 332.52 80.0125 331.873 81.6458 331.873Z" fill="black"/>
<path d="M90.1517 344.236H92.2142V346.717H90.1517V344.236Z" fill="black"/>
<path d="M100.728 333.436C99.7133 333.436 98.9497 333.936 98.4372 334.936C97.9268 335.934 97.6716 337.436 97.6716 339.442C97.6716 341.44 97.9268 342.939 98.4372 343.939C98.9497 344.939 99.7133 345.439 100.728 345.439C101.751 345.439 102.517 344.939 103.028 343.939C103.54 342.939 103.797 341.44 103.797 339.442C103.797 337.436 103.54 335.934 103.028 334.936C102.517 333.936 101.751 333.436 100.728 333.436ZM100.728 331.873C102.363 331.873 103.612 332.52 104.475 333.814C105.337 335.106 105.768 336.982 105.768 339.442C105.768 341.896 105.337 343.77 104.475 345.064C103.612 346.356 102.363 347.001 100.728 347.001C99.0945 347.001 97.8466 346.356 96.9841 345.064C96.1216 343.77 95.6904 341.896 95.6904 339.442C95.6904 336.982 96.1216 335.106 96.9841 333.814C97.8466 332.52 99.0945 331.873 100.728 331.873Z" fill="black"/>
<path d="M116.429 281.135H111.762H116.429Z" fill="black"/>
<path d="M116.429 281.135H111.762" stroke="black" stroke-width="1.06667"/>
<path d="M116.429 223.151H111.762H116.429Z" fill="black"/>
<path d="M116.429 223.151H111.762" stroke="black" stroke-width="1.06667"/>
<path d="M116.429 165.167H111.762H116.429Z" fill="black"/>
<path d="M116.429 165.167H111.762" stroke="black" stroke-width="1.06667"/>
<path d="M116.429 107.182H111.762H116.429Z" fill="black"/>
<path d="M116.429 107.182H111.762" stroke="black" stroke-width="1.06667"/>
<path d="M116.429 49.1985H111.762H116.429Z" fill="black"/>
<path d="M116.429 49.1985H111.762" stroke="black" stroke-width="1.06667"/>
<path d="M77.7708 55.1375H80.9927V44.0125L77.4865 44.7156V42.9187L80.974 42.2156H82.9458V55.1375H86.1677V56.7969H77.7708V55.1375Z" fill="black"/>
<path d="M90.1517 54.3156H92.2142V56.7969H90.1517V54.3156Z" fill="black"/>
<path d="M100.728 43.5157C99.7133 43.5157 98.9497 44.0157 98.4372 45.0157C97.9268 46.0136 97.6716 47.5157 97.6716 49.5219C97.6716 51.5198 97.9268 53.0188 98.4372 54.0188C98.9497 55.0188 99.7133 55.5188 100.728 55.5188C101.751 55.5188 102.517 55.0188 103.028 54.0188C103.54 53.0188 103.797 51.5198 103.797 49.5219C103.797 47.5157 103.54 46.0136 103.028 45.0157C102.517 44.0157 101.751 43.5157 100.728 43.5157ZM100.728 41.9532C102.363 41.9532 103.612 42.6 104.475 43.8938C105.337 45.1855 105.768 47.0615 105.768 49.5219C105.768 51.9761 105.337 53.85 104.475 55.1438C103.612 56.4355 102.363 57.0813 100.728 57.0813C99.0945 57.0813 97.8466 56.4355 96.9841 55.1438C96.1216 53.85 95.6904 51.9761 95.6904 49.5219C95.6904 47.0615 96.1216 45.1855 96.9841 43.8938C97.8466 42.6 99.0945 41.9532 100.728 41.9532Z" fill="black"/>
<mask id="mask0_1238_1625" style="mask-type:luminance" maskUnits="userSpaceOnUse" x="116" y="49" width="447" height="291">
<path d="M562.829 49.1985H116.429V339.118H562.829V49.1985Z" fill="white"/>
</mask>
<g mask="url(#mask0_1238_1625)">
<path d="M116.429 278.442L172.51 278.278L194.942 277.932L208.401 277.451L217.374 276.902L226.347 276.052L233.076 275.118L239.806 273.818L244.292 272.678L248.779 271.258L253.265 269.487L257.752 267.283L262.238 264.546L266.725 261.163L268.968 259.19L271.211 257.009L273.454 254.606L275.698 251.969L277.941 249.088L282.427 242.581L286.914 235.134L291.4 226.958L300.373 210.29L302.616 206.553L304.859 203.184L307.103 200.277L309.346 197.918L311.589 196.181L313.832 195.125L316.075 194.79L318.319 195.182L320.562 196.245L327.291 200.808L329.535 200.955L331.778 199.138L334.021 194.661L336.264 187.145L338.508 176.655L340.751 163.687L345.237 133.592L349.724 103.76L351.967 90.9129L354.21 80.3418L356.453 72.4996L358.697 67.516L360.94 65.1229L363.183 64.6839L365.426 65.3281L367.669 66.1504L369.913 66.4071L372.156 65.6489L374.399 63.7963L378.885 58.4225L381.129 56.2183L383.372 55.0091L385.615 54.8044L387.858 55.1127L390.102 55.2074L392.345 54.627L396.831 52.4985L399.074 52.0829" stroke="#C2E5F9" stroke-width="2" stroke-linecap="square"/>
</g>
<mask id="mask1_1238_1625" style="mask-type:luminance" maskUnits="userSpaceOnUse" x="116" y="49" width="447" height="291">
<path d="M562.829 49.1985H116.429V339.118H562.829V49.1985Z" fill="white"/>
</mask>
<g mask="url(#mask1_1238_1625)">
<path d="M116.429 278.442L172.51 278.279L194.942 277.936L208.401 277.461L219.617 276.745L228.59 275.816L235.32 274.8L242.049 273.392L246.536 272.164L251.022 270.639L255.509 268.747L259.995 266.406L264.481 263.52L268.968 259.982L271.211 257.934L273.454 255.684L275.698 253.22L280.184 247.619L284.67 241.117L289.157 233.803L295.886 221.872L300.373 213.916L304.859 206.627L307.103 203.421L309.346 200.599L311.589 198.217L313.832 196.319L316.075 194.934L318.319 194.066L320.562 193.678L322.805 193.669L327.291 193.913L329.535 193.465L331.778 192.057L334.021 189.273L336.264 184.83L338.508 178.644L340.751 170.851L342.994 161.773L351.967 121.81L354.21 113.204L356.453 105.86L358.697 99.9111L360.94 95.3108L363.183 91.8504L365.426 89.2095L369.913 85.0014L374.399 80.6497L378.885 75.927L381.129 73.7568L383.372 71.8907L385.615 70.3542L390.102 67.8843L396.831 64.399L401.318 62.518L408.047 60.1868L412.534 58.8821L419.263 57.2288L425.993 55.883L434.966 54.4552L443.939 53.3492L455.155 52.3029L459.641 51.9658" stroke="#C2E5F9" stroke-width="2" stroke-linecap="square"/>
</g>
<mask id="mask2_1238_1625" style="mask-type:luminance" maskUnits="userSpaceOnUse" x="116" y="49" width="447" height="291">
<path d="M562.829 49.1985H116.429V339.118H562.829V49.1985Z" fill="white"/>
</mask>
<g mask="url(#mask2_1238_1625)">
<path d="M116.429 278.442L174.753 278.259L194.942 277.939L208.401 277.47L219.617 276.766L228.59 275.857L235.32 274.867L242.049 273.501L246.536 272.314L251.022 270.846L255.509 269.034L259.995 266.801L264.481 264.062L268.968 260.722L273.454 256.685L277.941 251.868L282.427 246.224L286.914 239.773L291.4 232.637L304.859 210.187L307.103 206.867L309.346 203.821L311.589 201.097L313.832 198.73L316.075 196.747L318.319 195.154L320.562 193.934L322.805 193.031L329.535 190.84L331.778 189.549L334.021 187.55L336.264 184.633L338.508 180.678L340.751 175.683L342.994 169.755L345.237 163.091L354.21 134.372L356.453 127.949L358.697 122.173L360.94 117.084L363.183 112.642L365.426 108.748L367.669 105.272L372.156 99.0902L376.642 93.4474L381.129 88.2777L385.615 83.772L390.102 79.9205L394.588 76.5231L399.074 73.4994L403.561 70.8416L408.047 68.4893L412.534 66.4031L419.263 63.7066L425.993 61.4468L432.723 59.5491L439.452 57.9525L446.182 56.6072L455.155 55.1347L464.128 53.9587L475.344 52.814L486.56 51.9467" stroke="#94C5E8" stroke-width="2" stroke-linecap="square"/>
</g>
<mask id="mask3_1238_1625" style="mask-type:luminance" maskUnits="userSpaceOnUse" x="116" y="49" width="447" height="291">
<path d="M562.829 49.1985H116.429V339.118H562.829V49.1985Z" fill="white"/>
</mask>
<g mask="url(#mask3_1238_1625)">
<path d="M116.429 278.442L174.753 278.26L194.942 277.943L208.401 277.479L219.617 276.787L228.59 275.897L235.32 274.931L242.049 273.605L246.536 272.458L251.022 271.045L255.509 269.307L259.995 267.175L264.481 264.573L268.968 261.415L273.454 257.615L277.941 253.102L282.427 247.832L286.914 241.816L291.4 235.15L298.13 224.389L304.859 213.694L309.346 207.242L311.589 204.352L313.832 201.735L316.075 199.413L318.319 197.398L320.562 195.684L322.805 194.242L327.291 191.892L329.535 190.754L331.778 189.434L334.021 187.763L336.264 185.589L338.508 182.799L340.751 179.34L342.994 175.225L345.237 170.527L349.724 159.896L356.453 143.212L360.94 133.108L365.426 124.313L369.913 116.676L374.399 109.883L378.885 103.724L383.372 98.1408L387.858 93.1319L392.345 88.6498L396.831 84.6244L401.318 81.0074L405.804 77.76L410.291 74.8434L414.777 72.2238L419.263 69.8708L423.75 67.7575L430.479 64.984L437.209 62.6233L443.939 60.6143L450.668 58.9049L457.398 57.4505L466.371 55.8436L475.344 54.5487L486.56 53.2783L497.776 52.309L502.262 51.989" stroke="#5090C9" stroke-width="2" stroke-linecap="square"/>
</g>
<mask id="mask4_1238_1625" style="mask-type:luminance" maskUnits="userSpaceOnUse" x="116" y="49" width="447" height="291">
<path d="M562.829 49.1985H116.429V339.118H562.829V49.1985Z" fill="white"/>
</mask>
<g mask="url(#mask4_1238_1625)">
<path d="M116.429 278.442L174.753 278.261L194.942 277.946L208.401 277.489L219.617 276.808L228.59 275.936L235.32 274.994L242.049 273.707L246.536 272.597L251.022 271.235L255.509 269.567L259.995 267.53L264.481 265.054L268.968 262.063L273.454 258.482L277.941 254.245L282.427 249.314L286.914 243.695L291.4 237.462L298.13 227.331L304.859 217.059L309.346 210.662L313.832 204.975L316.075 202.467L318.319 200.205L320.562 198.191L322.805 196.411L327.291 193.395L331.778 190.605L334.021 189.037L336.264 187.205L338.508 185.014L340.751 182.401L342.994 179.339L345.237 175.839L347.48 171.95L351.967 163.313L363.183 140.807L367.669 132.648L372.156 125.142L376.642 118.232L381.129 111.863L385.615 106.008L390.102 100.649L394.588 95.7554L399.074 91.2941L403.561 87.2328L408.047 83.5408L412.534 80.1887L417.02 77.1484L421.507 74.3937L425.993 71.9001L430.479 69.6447L437.209 66.6622L443.939 64.1035L450.668 61.9114L457.398 60.0354L464.128 58.4317L473.101 56.6515L482.073 55.2109L491.046 54.0462L502.262 52.9002L513.478 52.0237" stroke="#0E69A7" stroke-width="2" stroke-linecap="square"/>
</g>
<mask id="mask5_1238_1625" style="mask-type:luminance" maskUnits="userSpaceOnUse" x="116" y="49" width="447" height="291">
<path d="M562.829 49.1985H116.429V339.118H562.829V49.1985Z" fill="white"/>
</mask>
<g mask="url(#mask5_1238_1625)">
<path d="M116.429 278.442L174.753 278.262L194.942 277.95L208.401 277.498L219.617 276.828L228.59 275.974L235.32 275.055L242.049 273.804L246.536 272.731L251.022 271.417L255.509 269.815L259.995 267.866L264.481 265.507L268.968 262.671L273.454 259.29L277.941 255.305L282.427 250.682L286.914 245.423L291.4 239.588L298.13 230.052L307.103 217.053L311.589 211.03L316.075 205.645L320.562 201.044L325.048 197.233L329.535 194.004L334.021 190.898L336.264 189.2L338.508 187.304L340.751 185.151L342.994 182.698L345.237 179.931L347.48 176.857L351.967 169.92L356.453 162.266L367.669 142.606L374.399 131.596L378.885 124.753L383.372 118.326L387.858 112.322L392.345 106.74L396.831 101.571L401.318 96.8007L405.804 92.4106L410.291 88.3809L414.777 84.6905L419.263 81.3176L423.75 78.2405L428.236 75.4379L432.723 72.8892L439.452 69.4988L446.182 66.572L452.912 64.0513L459.641 61.8847L466.371 60.0256L473.101 58.4326L482.073 56.6604L491.046 55.2233L500.019 54.0596L511.235 52.913L522.451 52.0349" stroke="#074784" stroke-width="2" stroke-linecap="square"/>
</g>
<mask id="mask6_1238_1625" style="mask-type:luminance" maskUnits="userSpaceOnUse" x="116" y="49" width="447" height="291">
<path d="M562.829 49.1985H116.429V339.118H562.829V49.1985Z" fill="white"/>
</mask>
<g mask="url(#mask6_1238_1625)">
<path d="M116.429 278.442L174.753 278.262L194.942 277.953L208.401 277.506L219.617 276.848L228.59 276.011L235.32 275.114L242.049 273.898L246.536 272.859L251.022 271.592L255.509 270.051L259.995 268.185L264.481 265.936L268.968 263.242L273.454 260.044L277.941 256.289L282.427 251.946L286.914 247.015L291.4 241.542L295.886 235.632L311.589 214.219L316.075 208.799L320.562 204.013L325.048 199.901L329.535 196.353L338.508 189.642L342.994 185.623L345.237 183.3L347.48 180.748L351.967 174.982L356.453 168.486L363.183 157.936L374.399 140.06L381.129 129.893L387.858 120.408L392.345 114.514L396.831 108.979L401.318 103.808L405.804 98.9971L410.291 94.5381L414.777 90.4191L419.263 86.6256L423.75 83.141L428.236 79.948L432.723 77.0282L437.209 74.3636L443.939 70.8055L450.668 67.7218L457.398 65.0571L464.128 62.7603L470.857 60.7849L477.587 59.0889L486.56 57.1985L495.533 55.6627L504.506 54.4175L515.722 53.1888L526.938 52.247L529.181 52.0869" stroke="#022851" stroke-width="2" stroke-linecap="square"/>
</g>
<mask id="mask7_1238_1625" style="mask-type:luminance" maskUnits="userSpaceOnUse" x="116" y="49" width="447" height="291">
<path d="M562.829 49.1985H116.429V339.118H562.829V49.1985Z" fill="white"/>
</mask>
<g mask="url(#mask7_1238_1625)">
<path d="M116.429 278.442L174.753 278.263L197.185 277.901L210.644 277.411L221.86 276.692L230.833 275.784L237.563 274.816L244.292 273.511L248.779 272.4L253.265 271.053L257.752 269.424L262.238 267.462L266.725 265.114L271.211 262.325L275.698 259.043L280.184 255.229L284.67 250.866L289.157 245.97L293.643 240.603L300.373 231.923L311.589 217.24L316.075 211.851L320.562 206.969L325.048 202.657L329.535 198.865L342.994 188.281L347.48 184.002L351.967 179.036L356.453 173.411L360.94 167.253L367.669 157.389L383.372 133.976L390.102 124.552L396.831 115.754L401.318 110.28L405.804 105.133L410.291 100.318L414.777 95.8338L419.263 91.6732L423.75 87.8263L428.236 84.2806L432.723 81.0215L437.209 78.0332L441.696 75.2994L448.425 71.6394L455.155 68.4589L461.884 65.7042L468.614 63.3253L475.344 61.276L482.073 59.5142L488.803 58.0023L497.776 56.3179L506.749 54.95L517.965 53.5988L529.181 52.5617L535.911 52.0598" stroke="#4D004D" stroke-width="2" stroke-linecap="square"/>
</g>
<mask id="mask8_1238_1625" style="mask-type:luminance" maskUnits="userSpaceOnUse" x="116" y="49" width="447" height="291">
<path d="M562.829 49.1985H116.429V339.118H562.829V49.1985Z" fill="white"/>
</mask>
<g mask="url(#mask8_1238_1625)">
<path d="M116.429 278.442L174.753 278.264L197.185 277.905L210.644 277.421L221.86 276.714L230.833 275.825L237.563 274.881L244.292 273.613L248.779 272.539L253.265 271.239L257.752 269.673L262.238 267.794L266.725 265.554L271.211 262.903L275.698 259.794L280.184 256.193L284.67 252.082L289.157 247.473L293.643 242.417L300.373 234.205L313.832 217.375L318.319 212.244L322.805 207.56L327.291 203.359L331.778 199.584L345.237 188.858L349.724 184.697L354.21 179.994L358.697 174.745L363.183 169.02L369.913 159.783L394.588 124.896L401.318 116.255L408.047 108.257L412.534 103.308L417.02 98.6723L421.507 94.3502L425.993 90.3362L430.479 86.6219L434.966 83.1958L439.452 80.0446L443.939 77.1537L448.425 74.5078L455.155 70.9636L461.884 67.8821L468.614 65.2123L475.344 62.906L482.073 60.9186L488.803 59.2097L497.776 57.3022L506.749 55.7504L515.722 54.4907L526.938 53.2467L538.154 52.2922L542.64 51.9762" stroke="#330033" stroke-width="2" stroke-linecap="square"/>
</g>
<mask id="mask9_1238_1625" style="mask-type:luminance" maskUnits="userSpaceOnUse" x="116" y="49" width="447" height="291">
<path d="M562.829 49.1985H116.429V339.118H562.829V49.1985Z" fill="white"/>
</mask>
<g mask="url(#mask9_1238_1625)">
<path d="M116.429 278.442L174.753 278.265L197.185 277.909L210.644 277.431L221.86 276.736L230.833 275.865L237.563 274.944L244.292 273.712L251.022 272.073L255.509 270.698L259.995 269.05L264.481 267.085L268.968 264.759L273.454 262.027L277.941 258.851L282.427 255.207L286.914 251.09L291.4 246.523L295.886 241.565L302.616 233.607L313.832 220.085L318.319 215.005L322.805 210.283L327.291 205.971L331.778 202.049L338.508 196.656L345.237 191.296L349.724 187.417L354.21 183.133L358.697 178.387L363.183 173.185L367.669 167.584L374.399 158.619L387.858 139.845L396.831 127.614L403.561 118.939L410.291 110.835L417.02 103.372L421.507 98.7722L425.993 94.475L430.479 90.4775L434.966 86.7728L439.452 83.3511L443.939 80.2004L448.425 77.3069L452.912 74.6561L459.641 71.102L466.371 68.0088L473.101 65.3265L479.83 63.0078L486.56 61.0086L493.289 59.2887L502.262 57.3681L511.235 55.8049L520.208 54.5355L531.424 53.2815L542.64 52.3192L547.127 52.0005" stroke="#190019" stroke-width="2" stroke-linecap="square"/>
</g>
<mask id="mask10_1238_1625" style="mask-type:luminance" maskUnits="userSpaceOnUse" x="116" y="49" width="447" height="291">
<path d="M562.829 49.1985H116.429V339.118H562.829V49.1985Z" fill="white"/>
</mask>
<g mask="url(#mask10_1238_1625)">
<path d="M116.429 277.092L134.375 276.349L147.834 275.536L161.293 274.409L172.51 273.146L181.482 271.859L190.455 270.268L199.428 268.304L206.158 266.542L212.887 264.494L219.617 262.125L226.347 259.402L233.076 256.293L239.806 252.779L246.536 248.85L253.265 244.514L259.995 239.8L266.725 234.761L275.698 227.668L309.346 200.537L322.805 189.865L329.535 184.209L336.264 178.138L342.994 171.541L349.724 164.378L356.453 156.691L365.426 145.836L385.615 120.973L392.345 113.183L399.074 105.863L405.804 99.0891L412.534 92.9022L417.02 89.1102L421.507 85.5824L425.993 82.3128L430.479 79.2931L437.209 75.2084L443.939 71.621L450.668 68.4862L457.398 65.7589L464.128 63.3946L470.857 61.3514L477.587 59.5903L486.56 57.6199L495.533 56.0135L504.506 54.7072L515.722 53.4153L526.938 52.4229L531.424 52.094" stroke="#D75E5E" stroke-width="2" stroke-dasharray="7.4 3.2"/>
</g>
<path d="M116.429 339.118V49.1985" stroke="black" stroke-width="1.06667" stroke-linecap="square"/>
<path d="M562.829 339.118V49.1985" stroke="black" stroke-width="1.06667" stroke-linecap="square"/>
<path d="M116.429 339.118H562.829" stroke="black" stroke-width="1.06667" stroke-linecap="square"/>
<path d="M116.429 49.1985H562.829" stroke="black" stroke-width="1.06667" stroke-linecap="square"/>
<path d="M407.309 329.518H551.309V233.518H407.309V329.518Z" fill="white"/>
<path d="M413.855 233.518V228.852V233.518Z" fill="black"/>
<path d="M413.855 233.518V228.852" stroke="black" stroke-width="1.06667"/>
<path d="M406.217 210.233C405.405 210.233 404.795 210.633 404.385 211.433C403.976 212.231 403.772 213.433 403.772 215.038C403.772 216.636 403.976 217.835 404.385 218.635C404.795 219.435 405.405 219.835 406.217 219.835C407.035 219.835 407.649 219.435 408.057 218.635C408.467 217.835 408.672 216.636 408.672 215.038C408.672 213.433 408.467 212.231 408.057 211.433C407.649 210.633 407.035 210.233 406.217 210.233ZM406.217 208.983C407.525 208.983 408.525 209.5 409.215 210.535C409.905 211.569 410.25 213.069 410.25 215.038C410.25 217.001 409.905 218.5 409.215 219.535C408.525 220.569 407.525 221.085 406.217 221.085C404.91 221.085 403.912 220.569 403.222 219.535C402.532 218.5 402.187 217.001 402.187 215.038C402.187 213.069 402.532 211.569 403.222 210.535C403.912 209.5 404.91 208.983 406.217 208.983Z" fill="black"/>
<path d="M413.022 218.873H414.672V220.858H413.022V218.873Z" fill="black"/>
<path d="M421.483 210.233C420.671 210.233 420.06 210.633 419.65 211.433C419.242 212.231 419.038 213.433 419.038 215.038C419.038 216.636 419.242 217.835 419.65 218.635C420.06 219.435 420.671 219.835 421.483 219.835C422.301 219.835 422.914 219.435 423.323 218.635C423.733 217.835 423.938 216.636 423.938 215.038C423.938 213.433 423.733 212.231 423.323 211.433C422.914 210.633 422.301 210.233 421.483 210.233ZM421.483 208.983C422.791 208.983 423.79 209.5 424.48 210.535C425.17 211.569 425.515 213.069 425.515 215.038C425.515 217.001 425.17 218.5 424.48 219.535C423.79 220.569 422.791 221.085 421.483 221.085C420.176 221.085 419.178 220.569 418.488 219.535C417.798 218.5 417.453 217.001 417.453 215.038C417.453 213.069 417.798 211.569 418.488 210.535C419.178 209.5 420.176 208.983 421.483 208.983Z" fill="black"/>
<path d="M479.309 233.518V228.852V233.518Z" fill="black"/>
<path d="M479.309 233.518V228.852" stroke="black" stroke-width="1.06667"/>
<path d="M544.764 233.518V228.852V233.518Z" fill="black"/>
<path d="M544.764 233.518V228.852" stroke="black" stroke-width="1.06667"/>
<path d="M534.026 219.53H536.604V210.63L533.799 211.193V209.755L536.589 209.193H538.166V219.53H540.744V220.858H534.026V219.53Z" fill="black"/>
<path d="M543.931 218.873H545.581V220.858H543.931V218.873Z" fill="black"/>
<path d="M552.392 210.233C551.58 210.233 550.969 210.633 550.559 211.433C550.151 212.231 549.947 213.433 549.947 215.038C549.947 216.636 550.151 217.835 550.559 218.635C550.969 219.435 551.58 219.835 552.392 219.835C553.21 219.835 553.823 219.435 554.232 218.635C554.642 217.835 554.847 216.636 554.847 215.038C554.847 213.433 554.642 212.231 554.232 211.433C553.823 210.633 553.21 210.233 552.392 210.233ZM552.392 208.983C553.7 208.983 554.699 209.5 555.389 210.535C556.079 211.569 556.424 213.069 556.424 215.038C556.424 217.001 556.079 218.5 555.389 219.535C554.699 220.569 553.7 221.085 552.392 221.085C551.085 221.085 550.087 220.569 549.397 219.535C548.707 218.5 548.362 217.001 548.362 215.038C548.362 213.069 548.707 211.569 549.397 210.535C550.087 209.5 551.085 208.983 552.392 208.983Z" fill="black"/>
<path d="M481.229 180.261L480.059 186.288H479.052L480.218 180.294C480.331 179.715 480.302 179.281 480.13 178.992C479.962 178.705 479.653 178.562 479.201 178.562C478.657 178.562 478.194 178.735 477.812 179.08C477.432 179.426 477.185 179.899 477.068 180.497L476.396 183.959H475.384L476.576 177.834H477.588L477.402 178.786C477.711 178.417 478.048 178.142 478.414 177.96C478.774 177.778 479.168 177.687 479.595 177.687C480.298 177.687 480.788 177.903 481.065 178.336C481.339 178.774 481.394 179.415 481.229 180.261Z" fill="black" stroke="black"/>
<path d="M467.302 196.549L464.513 200.908H467.302V196.549ZM467.012 195.586H468.401V200.908H469.567V201.827H468.401V203.752H467.302V201.827H463.617V200.761L467.012 195.586Z" fill="black" stroke="black"/>
<path d="M477.16 191.943L473.566 203.755H473.297L471.82 198.953C471.772 198.799 471.719 198.688 471.659 198.62C471.6 198.551 471.521 198.517 471.423 198.517C471.278 198.517 471.133 198.575 470.988 198.69L470.911 198.562L471.96 197.757H472.12L473.572 202.47H473.598L476.795 191.943H477.16Z" fill="black" stroke="black"/>
<path d="M480.507 202.891H484.362V203.821H479.178V202.891C479.597 202.457 480.168 201.875 480.892 201.145C481.616 200.413 482.071 199.941 482.257 199.729C482.61 199.332 482.857 198.996 482.997 198.721C483.138 198.446 483.209 198.175 483.209 197.909C483.209 197.475 483.056 197.122 482.752 196.849C482.447 196.574 482.051 196.437 481.562 196.437C481.215 196.437 480.85 196.497 480.465 196.618C480.081 196.738 479.67 196.92 479.233 197.165V196.049C479.677 195.87 480.092 195.736 480.479 195.645C480.866 195.554 481.22 195.508 481.541 195.508C482.387 195.508 483.061 195.72 483.564 196.143C484.067 196.566 484.318 197.13 484.318 197.837C484.318 198.173 484.255 198.492 484.129 198.793C484.004 199.093 483.776 199.447 483.443 199.855C483.352 199.961 483.062 200.267 482.573 200.772C482.086 201.277 481.397 201.984 480.507 202.891Z" fill="black" stroke="black"/>
<path d="M489.493 198.589L490.1 202.373L492.931 197.627H493.999L490.334 203.752L489.881 206.081H488.875L489.328 203.752L488.612 199.179C488.539 198.72 488.329 198.491 487.982 198.491H487.715L487.879 197.627H488.262C488.98 197.627 489.39 197.947 489.493 198.589Z" fill="black" stroke="black"/>
<path d="M463.069 190.288V189.288H493.512V190.288H463.069Z" fill="black" stroke="black"/>
<path d="M476.958 192.688V191.988H486.883V192.688H476.958Z" fill="black" stroke="black"/>
<path d="M407.309 323.768H402.642H407.309Z" fill="black"/>
<path d="M407.309 323.768H402.642" stroke="black" stroke-width="1.06667"/>
<path d="M371.801 328.409H374.378V319.509L371.573 320.072V318.634L374.363 318.072H375.941V328.409H378.518V329.737H371.801V328.409Z" fill="black"/>
<path d="M385.081 319.112C384.269 319.112 383.658 319.512 383.248 320.312C382.84 321.11 382.636 322.312 382.636 323.917C382.636 325.515 382.84 326.714 383.248 327.514C383.658 328.314 384.269 328.714 385.081 328.714C385.899 328.714 386.512 328.314 386.921 327.514C387.331 326.714 387.536 325.515 387.536 323.917C387.536 322.312 387.331 321.11 386.921 320.312C386.512 319.512 385.899 319.112 385.081 319.112ZM385.081 317.862C386.389 317.862 387.388 318.379 388.078 319.414C388.768 320.448 389.113 321.949 389.113 323.917C389.113 325.88 388.768 327.379 388.078 328.414C387.388 329.448 386.389 329.964 385.081 329.964C383.774 329.964 382.776 329.448 382.086 328.414C381.396 327.379 381.051 325.88 381.051 323.917C381.051 321.949 381.396 320.448 382.086 319.414C382.776 318.379 383.774 317.862 385.081 317.862Z" fill="black"/>
<path d="M391.718 322.683H393.522V316.453L391.559 316.846V315.84L393.512 315.446H394.616V322.683H396.42V323.612H391.718V322.683Z" fill="black"/>
<path d="M407.309 267.768H402.642H407.309Z" fill="black"/>
<path d="M407.309 267.768H402.642" stroke="black" stroke-width="1.06667"/>
<path d="M371.801 272.397H374.378V263.497L371.573 264.059V262.622L374.363 262.059H375.941V272.397H378.518V273.724H371.801V272.397Z" fill="black"/>
<path d="M385.081 263.099C384.269 263.099 383.658 263.499 383.248 264.299C382.84 265.097 382.636 266.299 382.636 267.904C382.636 269.502 382.84 270.702 383.248 271.502C383.658 272.302 384.269 272.702 385.081 272.702C385.899 272.702 386.512 272.302 386.921 271.502C387.331 270.702 387.536 269.502 387.536 267.904C387.536 266.299 387.331 265.097 386.921 264.299C386.512 263.499 385.899 263.099 385.081 263.099ZM385.081 261.849C386.389 261.849 387.388 262.367 388.078 263.402C388.768 264.435 389.113 265.936 389.113 267.904C389.113 269.867 388.768 271.367 388.078 272.402C387.388 273.435 386.389 273.952 385.081 273.952C383.774 273.952 382.776 273.435 382.086 272.402C381.396 271.367 381.051 269.867 381.051 267.904C381.051 265.936 381.396 264.435 382.086 263.402C382.776 262.367 383.774 261.849 385.081 261.849Z" fill="black"/>
<path d="M392.477 266.67H396.333V267.599H391.149V266.67C391.568 266.236 392.139 265.654 392.862 264.923C393.587 264.192 394.042 263.72 394.227 263.508C394.581 263.111 394.828 262.775 394.968 262.5C395.109 262.224 395.179 261.954 395.179 261.688C395.179 261.254 395.027 260.9 394.723 260.627C394.418 260.353 394.021 260.216 393.533 260.216C393.186 260.216 392.82 260.276 392.435 260.396C392.051 260.516 391.641 260.699 391.203 260.944V259.827C391.648 259.649 392.063 259.514 392.449 259.423C392.837 259.332 393.191 259.287 393.512 259.287C394.357 259.287 395.032 259.498 395.535 259.922C396.037 260.344 396.289 260.909 396.289 261.616C396.289 261.952 396.226 262.27 396.1 262.571C395.975 262.871 395.746 263.225 395.414 263.634C395.323 263.74 395.033 264.045 394.544 264.551C394.056 265.056 393.367 265.762 392.477 266.67Z" fill="black"/>
<path d="M407.309 329.194H404.642H407.309Z" fill="black"/>
<path d="M407.309 329.194H404.642" stroke="black" stroke-width="0.8"/>
<path d="M407.309 326.33H404.642H407.309Z" fill="black"/>
<path d="M407.309 326.33H404.642" stroke="black" stroke-width="0.8"/>
<path d="M407.309 306.91H404.642H407.309Z" fill="black"/>
<path d="M407.309 306.91H404.642" stroke="black" stroke-width="0.8"/>
<path d="M407.309 297.049H404.642H407.309Z" fill="black"/>
<path d="M407.309 297.049H404.642" stroke="black" stroke-width="0.8"/>
<path d="M407.309 290.052H404.642H407.309Z" fill="black"/>
<path d="M407.309 290.052H404.642" stroke="black" stroke-width="0.8"/>
<path d="M407.309 284.625H404.642H407.309Z" fill="black"/>
<path d="M407.309 284.625H404.642" stroke="black" stroke-width="0.8"/>
<path d="M407.309 280.191H404.642H407.309Z" fill="black"/>
<path d="M407.309 280.191H404.642" stroke="black" stroke-width="0.8"/>
<path d="M407.309 276.442H404.642H407.309Z" fill="black"/>
<path d="M407.309 276.442H404.642" stroke="black" stroke-width="0.8"/>
<path d="M407.309 273.195H404.642H407.309Z" fill="black"/>
<path d="M407.309 273.195H404.642" stroke="black" stroke-width="0.8"/>
<path d="M407.309 270.33H404.642H407.309Z" fill="black"/>
<path d="M407.309 270.33H404.642" stroke="black" stroke-width="0.8"/>
<path d="M407.309 250.91H404.642H407.309Z" fill="black"/>
<path d="M407.309 250.91H404.642" stroke="black" stroke-width="0.8"/>
<path d="M407.309 241.049H404.642H407.309Z" fill="black"/>
<path d="M407.309 241.049H404.642" stroke="black" stroke-width="0.8"/>
<path d="M407.309 234.053H404.642H407.309Z" fill="black"/>
<path d="M407.309 234.053H404.642" stroke="black" stroke-width="0.8"/>
<path d="M345.445 317.149L349.228 316.542L344.482 313.71V312.643L350.607 316.307L352.937 316.761V317.767L350.607 317.314L346.035 318.029C345.576 318.103 345.347 318.313 345.347 318.659V318.927L344.482 318.763V318.379C344.482 317.662 344.803 317.252 345.445 317.149Z" fill="black"/>
<path d="M358.318 313.594L359.314 313.795C359.139 314.037 359.008 314.294 358.92 314.565C358.833 314.836 358.789 315.117 358.789 315.409C358.789 315.73 358.846 316.035 358.959 316.326C359.072 316.615 359.232 316.858 359.44 317.056C359.757 317.369 360.13 317.612 360.557 317.784C360.982 317.954 361.423 318.039 361.88 318.039C362.43 318.039 362.84 317.901 363.11 317.626C363.379 317.351 363.514 316.933 363.514 316.371C363.514 316.095 363.472 315.801 363.388 315.489C363.304 315.177 363.179 314.851 363.012 314.513L364.006 314.704C364.126 314.995 364.216 315.295 364.277 315.603C364.338 315.911 364.368 316.227 364.368 316.552C364.368 317.365 364.165 317.99 363.759 318.428C363.352 318.865 362.771 319.084 362.016 319.084C361.381 319.084 360.797 318.97 360.263 318.743C359.728 318.515 359.248 318.177 358.822 317.728C358.531 317.422 358.31 317.063 358.161 316.651C358.011 316.238 357.937 315.788 357.937 315.3C357.937 315.016 357.969 314.733 358.033 314.453C358.096 314.172 358.191 313.886 358.318 313.594Z" fill="black"/>
<path d="M347.787 300.107H348.984V301.482C348.984 301.997 349.088 302.355 349.297 302.557C349.505 302.757 349.88 302.857 350.422 302.857H351.194V300.489H352.312V302.857H359.944V304.302H352.312V305.677H351.194V304.302H350.584C349.611 304.302 348.902 304.075 348.457 303.622C348.01 303.169 347.787 302.45 347.787 301.467V300.107Z" fill="black"/>
<path d="M352.202 295.514C352.202 296.284 352.503 296.893 353.104 297.342C353.706 297.79 354.53 298.014 355.577 298.014C356.623 298.014 357.448 297.792 358.049 297.347C358.651 296.9 358.952 296.289 358.952 295.514C358.952 294.747 358.65 294.141 358.047 293.694C357.442 293.246 356.618 293.022 355.577 293.022C354.54 293.022 353.718 293.246 353.112 293.694C352.505 294.141 352.202 294.747 352.202 295.514ZM350.984 295.514C350.984 294.264 351.391 293.282 352.204 292.569C353.016 291.854 354.14 291.497 355.577 291.497C357.008 291.497 358.133 291.854 358.949 292.569C359.764 293.282 360.172 294.264 360.172 295.514C360.172 296.769 359.764 297.752 358.949 298.464C358.133 299.174 357.008 299.529 355.577 299.529C354.14 299.529 353.016 299.174 352.204 298.464C351.391 297.752 350.984 296.769 350.984 295.514Z" fill="black"/>
<path d="M352.537 284.045C352.443 284.207 352.375 284.382 352.332 284.572C352.287 284.762 352.264 284.972 352.264 285.2C352.264 286.013 352.528 286.637 353.057 287.072C353.585 287.507 354.344 287.725 355.334 287.725H359.944V289.17H351.194V287.725H352.554C352.023 287.422 351.628 287.028 351.372 286.545C351.113 286.06 350.984 285.471 350.984 284.777C350.984 284.679 350.991 284.57 351.004 284.45C351.016 284.33 351.035 284.197 351.062 284.052L352.537 284.045Z" fill="black"/>
<path d="M359.702 277.201H358.264C358.453 276.804 358.596 276.403 358.694 275.998C358.793 275.592 358.842 275.193 358.842 274.801C358.842 273.759 358.492 272.964 357.792 272.416C357.092 271.866 356.028 271.552 354.599 271.473C355.048 271.775 355.392 272.158 355.632 272.623C355.872 273.087 355.992 273.599 355.992 274.161C355.992 275.328 355.639 276.251 354.934 276.931C354.228 277.611 353.262 277.951 352.037 277.951C350.84 277.951 349.88 277.597 349.157 276.888C348.432 276.18 348.069 275.238 348.069 274.061C348.069 272.711 348.587 271.681 349.622 270.971C350.655 270.259 352.156 269.903 354.124 269.903C355.963 269.903 357.43 270.34 358.527 271.213C359.623 272.085 360.172 273.258 360.172 274.731C360.172 275.128 360.133 275.529 360.054 275.936C359.976 276.341 359.858 276.763 359.702 277.201ZM354.757 274.061C354.757 273.353 354.515 272.792 354.032 272.378C353.547 271.963 352.882 271.756 352.037 271.756C351.198 271.756 350.536 271.963 350.049 272.378C349.563 272.792 349.319 273.353 349.319 274.061C349.319 274.769 349.563 275.33 350.049 275.743C350.536 276.157 351.198 276.363 352.037 276.363C352.882 276.363 353.547 276.157 354.032 275.743C354.515 275.33 354.757 274.769 354.757 274.061Z" fill="black"/>
<path d="M359.702 267.021H358.264C358.453 266.625 358.596 266.224 358.694 265.819C358.793 265.412 358.842 265.013 358.842 264.621C358.842 263.58 358.492 262.785 357.792 262.236C357.092 261.686 356.028 261.372 354.599 261.294C355.048 261.595 355.392 261.979 355.632 262.444C355.872 262.907 355.992 263.42 355.992 263.981C355.992 265.148 355.639 266.071 354.934 266.751C354.228 267.431 353.262 267.771 352.037 267.771C350.84 267.771 349.88 267.417 349.157 266.709C348.432 266 348.069 265.058 348.069 263.881C348.069 262.531 348.587 261.501 349.622 260.791C350.655 260.08 352.156 259.724 354.124 259.724C355.963 259.724 357.43 260.16 358.527 261.034C359.623 261.905 360.172 263.078 360.172 264.551C360.172 264.948 360.133 265.35 360.054 265.756C359.976 266.161 359.858 266.583 359.702 267.021ZM354.757 263.881C354.757 263.173 354.515 262.612 354.032 262.199C353.547 261.784 352.882 261.576 352.037 261.576C351.198 261.576 350.536 261.784 350.049 262.199C349.563 262.612 349.319 263.173 349.319 263.881C349.319 264.59 349.563 265.15 350.049 265.564C350.536 265.977 351.198 266.184 352.037 266.184C352.882 266.184 353.547 265.977 354.032 265.564C354.515 265.15 354.757 264.59 354.757 263.881Z" fill="black"/>
<path d="M354.812 246.967C354.812 247.42 355.004 247.776 355.389 248.034C355.774 248.291 356.311 248.419 356.999 248.419C357.676 248.419 358.208 248.291 358.597 248.034C358.985 247.776 359.179 247.42 359.179 246.967C359.179 246.523 358.985 246.173 358.597 245.917C358.208 245.658 357.676 245.529 356.999 245.529C356.316 245.529 355.781 245.658 355.394 245.917C355.006 246.173 354.812 246.523 354.812 246.967ZM353.819 246.967C353.819 246.143 354.106 245.49 354.679 245.007C355.251 244.522 356.024 244.279 356.999 244.279C357.973 244.279 358.745 244.522 359.317 245.009C359.887 245.496 360.172 246.148 360.172 246.967C360.172 247.8 359.887 248.459 359.317 248.944C358.745 249.427 357.973 249.669 356.999 249.669C356.019 249.669 355.244 249.426 354.674 248.939C354.104 248.452 353.819 247.795 353.819 246.967ZM349.062 255.029C349.062 255.477 349.256 255.831 349.644 256.089C350.031 256.346 350.563 256.474 351.242 256.474C351.928 256.474 352.465 256.347 352.852 256.092C353.237 255.837 353.429 255.482 353.429 255.029C353.429 254.576 353.237 254.221 352.852 253.964C352.465 253.706 351.928 253.577 351.242 253.577C350.57 253.577 350.039 253.707 349.649 253.967C349.258 254.227 349.062 254.581 349.062 255.029ZM348.069 247.974V246.724L360.172 254.022V255.272L348.069 247.974ZM348.069 255.029C348.069 254.206 348.354 253.55 348.924 253.062C349.494 252.572 350.267 252.327 351.242 252.327C352.225 252.327 353.001 252.57 353.569 253.057C354.138 253.543 354.422 254.201 354.422 255.029C354.422 255.857 354.137 256.512 353.567 256.994C352.995 257.476 352.22 257.717 351.242 257.717C350.272 257.717 349.501 257.475 348.929 256.992C348.356 256.507 348.069 255.852 348.069 255.029Z" fill="black"/>
<path d="M356.937 319.758H355.937V313.13H356.937V319.758Z" fill="black"/>
<mask id="mask11_1238_1625" style="mask-type:luminance" maskUnits="userSpaceOnUse" x="407" y="233" width="145" height="97">
<path d="M551.309 233.518H407.309V329.518H551.309V233.518Z" fill="white"/>
</mask>
<g mask="url(#mask11_1238_1625)">
<path d="M413.855 318.488L412.358 323.095H407.514L411.433 325.942L409.936 330.548L413.855 327.701L417.773 330.548L416.276 325.942L420.195 323.095H415.351L413.855 318.488Z" fill="#C2E5F9" stroke="#C2E5F9" stroke-width="1.33333" stroke-linejoin="bevel"/>
</g>
<mask id="mask12_1238_1625" style="mask-type:luminance" maskUnits="userSpaceOnUse" x="407" y="233" width="145" height="97">
<path d="M551.309 233.518H407.309V329.518H551.309V233.518Z" fill="white"/>
</mask>
<g mask="url(#mask12_1238_1625)">
<path d="M428.4 282.786L426.903 287.392H422.06L425.978 290.239L424.482 294.846L428.4 291.999L432.319 294.846L430.822 290.239L434.74 287.392H429.897L428.4 282.786Z" fill="#C2E5F9" stroke="#C2E5F9" stroke-width="1.33333" stroke-linejoin="bevel"/>
</g>
<mask id="mask13_1238_1625" style="mask-type:luminance" maskUnits="userSpaceOnUse" x="407" y="233" width="145" height="97">
<path d="M551.309 233.518H407.309V329.518H551.309V233.518Z" fill="white"/>
</mask>
<g mask="url(#mask13_1238_1625)">
<path d="M442.946 266.918L441.449 271.524H436.605L440.524 274.371L439.027 278.978L442.946 276.131L446.864 278.978L445.367 274.371L449.286 271.524H444.442L442.946 266.918Z" fill="#94C5E8" stroke="#94C5E8" stroke-width="1.33333" stroke-linejoin="bevel"/>
</g>
<mask id="mask14_1238_1625" style="mask-type:luminance" maskUnits="userSpaceOnUse" x="407" y="233" width="145" height="97">
<path d="M551.309 233.518H407.309V329.518H551.309V233.518Z" fill="white"/>
</mask>
<g mask="url(#mask14_1238_1625)">
<path d="M457.491 257.662L455.994 262.268H451.151L455.069 265.115L453.572 269.722L457.491 266.875L461.41 269.722L459.913 265.115L463.831 262.268H458.988L457.491 257.662Z" fill="#5090C9" stroke="#5090C9" stroke-width="1.33333" stroke-linejoin="bevel"/>
</g>
<mask id="mask15_1238_1625" style="mask-type:luminance" maskUnits="userSpaceOnUse" x="407" y="233" width="145" height="97">
<path d="M551.309 233.518H407.309V329.518H551.309V233.518Z" fill="white"/>
</mask>
<g mask="url(#mask15_1238_1625)">
<path d="M472.036 251.05L470.54 255.657H465.696L469.615 258.504L468.118 263.11L472.036 260.263L475.955 263.11L474.458 258.504L478.377 255.657H473.533L472.036 251.05Z" fill="#0E69A7" stroke="#0E69A7" stroke-width="1.33333" stroke-linejoin="bevel"/>
</g>
<mask id="mask16_1238_1625" style="mask-type:luminance" maskUnits="userSpaceOnUse" x="407" y="233" width="145" height="97">
<path d="M551.309 233.518H407.309V329.518H551.309V233.518Z" fill="white"/>
</mask>
<g mask="url(#mask16_1238_1625)">
<path d="M486.582 245.761L485.085 250.367H480.242L484.16 253.214L482.663 257.821L486.582 254.974L490.5 257.821L489.004 253.214L492.922 250.367H488.079L486.582 245.761Z" fill="#074784" stroke="#074784" stroke-width="1.33333" stroke-linejoin="bevel"/>
</g>
<mask id="mask17_1238_1625" style="mask-type:luminance" maskUnits="userSpaceOnUse" x="407" y="233" width="145" height="97">
<path d="M551.309 233.518H407.309V329.518H551.309V233.518Z" fill="white"/>
</mask>
<g mask="url(#mask17_1238_1625)">
<path d="M501.127 241.794L499.631 246.4H494.787L498.706 249.248L497.209 253.854L501.127 251.007L505.046 253.854L503.549 249.248L507.468 246.4H502.624L501.127 241.794Z" fill="#022851" stroke="#022851" stroke-width="1.33333" stroke-linejoin="bevel"/>
</g>
<mask id="mask18_1238_1625" style="mask-type:luminance" maskUnits="userSpaceOnUse" x="407" y="233" width="145" height="97">
<path d="M551.309 233.518H407.309V329.518H551.309V233.518Z" fill="white"/>
</mask>
<g mask="url(#mask18_1238_1625)">
<path d="M515.673 237.827L514.176 242.434H509.332L513.251 245.281L511.754 249.887L515.673 247.04L519.591 249.887L518.095 245.281L522.013 242.434H517.17L515.673 237.827Z" fill="#4D004D" stroke="#4D004D" stroke-width="1.33333" stroke-linejoin="bevel"/>
</g>
<mask id="mask19_1238_1625" style="mask-type:luminance" maskUnits="userSpaceOnUse" x="407" y="233" width="145" height="97">
<path d="M551.309 233.518H407.309V329.518H551.309V233.518Z" fill="white"/>
</mask>
<g mask="url(#mask19_1238_1625)">
<path d="M530.218 233.86L528.722 238.467H523.878L527.796 241.314L526.3 245.92L530.218 243.073L534.137 245.92L532.64 241.314L536.559 238.467H531.715L530.218 233.86Z" fill="#330033" stroke="#330033" stroke-width="1.33333" stroke-linejoin="bevel"/>
</g>
<mask id="mask20_1238_1625" style="mask-type:luminance" maskUnits="userSpaceOnUse" x="407" y="233" width="145" height="97">
<path d="M551.309 233.518H407.309V329.518H551.309V233.518Z" fill="white"/>
</mask>
<g mask="url(#mask20_1238_1625)">
<path d="M544.764 231.215L543.267 235.822H538.423L542.342 238.669L540.845 243.276L544.764 240.429L548.682 243.276L547.186 238.669L551.104 235.822H546.26L544.764 231.215Z" fill="#190019" stroke="#190019" stroke-width="1.33333" stroke-linejoin="bevel"/>
</g>
<mask id="mask21_1238_1625" style="mask-type:luminance" maskUnits="userSpaceOnUse" x="407" y="233" width="145" height="97">
<path d="M551.309 233.518H407.309V329.518H551.309V233.518Z" fill="white"/>
</mask>
<g mask="url(#mask21_1238_1625)">
<path d="M413.855 247.138H544.764" stroke="#D75E5E" stroke-width="2" stroke-dasharray="7.4 3.2"/>
</g>
<path d="M407.309 329.518V233.518" stroke="black" stroke-width="1.06667" stroke-linecap="square"/>
<path d="M551.309 329.518V233.518" stroke="black" stroke-width="1.06667" stroke-linecap="square"/>
<path d="M407.309 329.518H551.309" stroke="black" stroke-width="1.06667" stroke-linecap="square"/>
<path d="M407.309 233.518H551.309" stroke="black" stroke-width="1.06667" stroke-linecap="square"/>
<path d="M36.424 321.072C36.312 321.184 36.16 321.392 35.968 321.696C35.776 321.984 35.592 322.344 35.416 322.776C35.24 323.192 35.088 323.648 34.96 324.144C34.816 324.64 34.744 325.144 34.744 325.656C34.744 326.552 34.912 327.232 35.248 327.696C35.584 328.144 36.056 328.368 36.664 328.368C37.128 328.368 37.496 328.224 37.768 327.936C38.04 327.648 38.272 327.216 38.464 326.64C38.656 326.064 38.864 325.344 39.088 324.48C39.36 323.36 39.696 322.392 40.096 321.576C40.48 320.744 40.992 320.112 41.632 319.68C42.256 319.232 43.088 319.008 44.128 319.008C45.04 319.008 45.824 319.176 46.48 319.512C47.12 319.848 47.64 320.312 48.04 320.904C48.44 321.496 48.736 322.168 48.928 322.92C49.104 323.672 49.192 324.472 49.192 325.32C49.192 326.168 49.104 327.016 48.928 327.864C48.752 328.712 48.504 329.528 48.184 330.312C47.848 331.096 47.448 331.816 46.984 332.472L44.128 331.008C44.272 330.864 44.464 330.608 44.704 330.24C44.928 329.872 45.16 329.424 45.4 328.896C45.624 328.368 45.816 327.792 45.976 327.168C46.136 326.544 46.216 325.912 46.216 325.272C46.216 324.376 46.064 323.696 45.76 323.232C45.456 322.768 45.024 322.536 44.464 322.536C43.952 322.536 43.552 322.72 43.264 323.088C42.976 323.456 42.728 323.968 42.52 324.624C42.296 325.28 42.056 326.056 41.8 326.952C41.496 328.024 41.16 328.92 40.792 329.64C40.408 330.36 39.928 330.896 39.352 331.248C38.776 331.6 38.056 331.776 37.192 331.776C36.024 331.776 35.048 331.504 34.264 330.96C33.464 330.4 32.864 329.648 32.464 328.704C32.048 327.76 31.84 326.712 31.84 325.56C31.84 324.76 31.928 324.008 32.104 323.304C32.28 322.584 32.512 321.912 32.8 321.288C33.088 320.664 33.4 320.104 33.736 319.608L36.424 321.072ZM44.296 317.008L36.424 317.008L36.424 313.792L43.6 313.792C44.56 313.792 45.288 313.616 45.784 313.264C46.264 312.912 46.504 312.392 46.504 311.704C46.504 311.288 46.424 310.88 46.264 310.48C46.088 310.064 45.832 309.688 45.496 309.352C45.16 309 44.736 308.704 44.224 308.464L36.424 308.464L36.424 305.248L45.4 305.248C45.736 305.248 45.976 305.192 46.12 305.08C46.264 304.952 46.352 304.752 46.384 304.48L49 304.48C49.048 304.8 49.08 305.072 49.096 305.296C49.128 305.504 49.144 305.696 49.144 305.872C49.144 306.448 49.016 306.92 48.76 307.288C48.488 307.64 48.12 307.848 47.656 307.912L46.648 307.984C47.496 308.544 48.144 309.264 48.592 310.144C49.024 311.024 49.24 311.992 49.24 313.048C49.24 314.344 48.824 315.328 47.992 316C47.144 316.672 45.912 317.008 44.296 317.008ZM49.24 296.196C49.24 297.22 49.072 298.14 48.736 298.956C48.384 299.772 47.904 300.468 47.296 301.044C46.672 301.62 45.968 302.068 45.184 302.388C44.4 302.692 43.576 302.844 42.712 302.844C41.528 302.844 40.448 302.58 39.472 302.052C38.48 301.508 37.688 300.74 37.096 299.748C36.504 298.756 36.208 297.58 36.208 296.22C36.208 294.86 36.504 293.692 37.096 292.716C37.688 291.74 38.464 291.012 39.424 290.532L40.384 293.676C39.92 293.948 39.568 294.308 39.328 294.756C39.072 295.204 38.944 295.7 38.944 296.244C38.944 296.852 39.104 297.412 39.424 297.924C39.728 298.42 40.168 298.812 40.744 299.1C41.304 299.388 41.96 299.532 42.712 299.532C43.448 299.532 44.104 299.388 44.68 299.1C45.24 298.796 45.688 298.396 46.024 297.9C46.344 297.404 46.504 296.852 46.504 296.244C46.504 295.86 46.44 295.5 46.312 295.164C46.184 294.812 46.008 294.5 45.784 294.228C45.56 293.956 45.304 293.756 45.016 293.628L45.976 290.484C46.6 290.772 47.16 291.196 47.656 291.756C48.152 292.3 48.544 292.948 48.832 293.7C49.104 294.436 49.24 295.268 49.24 296.196ZM49.24 282.766C49.24 283.79 49.072 284.71 48.736 285.526C48.384 286.342 47.904 287.038 47.296 287.614C46.672 288.19 45.968 288.638 45.184 288.958C44.4 289.262 43.576 289.414 42.712 289.414C41.528 289.414 40.448 289.15 39.472 288.622C38.48 288.078 37.688 287.31 37.096 286.318C36.504 285.326 36.208 284.15 36.208 282.79C36.208 281.43 36.504 280.262 37.096 279.286C37.688 278.31 38.464 277.582 39.424 277.102L40.384 280.246C39.92 280.518 39.568 280.878 39.328 281.326C39.072 281.774 38.944 282.27 38.944 282.814C38.944 283.422 39.104 283.982 39.424 284.494C39.728 284.99 40.168 285.382 40.744 285.67C41.304 285.958 41.96 286.102 42.712 286.102C43.448 286.102 44.104 285.958 44.68 285.67C45.24 285.366 45.688 284.966 46.024 284.47C46.344 283.974 46.504 283.422 46.504 282.814C46.504 282.43 46.44 282.07 46.312 281.734C46.184 281.382 46.008 281.07 45.784 280.798C45.56 280.526 45.304 280.326 45.016 280.198L45.976 277.054C46.6 277.342 47.16 277.766 47.656 278.326C48.152 278.87 48.544 279.518 48.832 280.27C49.104 281.006 49.24 281.838 49.24 282.766ZM49.24 269.36C49.24 270.368 49.072 271.28 48.736 272.096C48.384 272.912 47.912 273.608 47.32 274.184C46.712 274.76 46.024 275.208 45.256 275.528C44.472 275.832 43.648 275.984 42.784 275.984C41.584 275.984 40.488 275.72 39.496 275.192C38.504 274.648 37.712 273.88 37.12 272.888C36.512 271.88 36.208 270.696 36.208 269.336C36.208 267.96 36.512 266.784 37.12 265.808C37.712 264.832 38.504 264.088 39.496 263.576C40.472 263.048 41.528 262.784 42.664 262.784C42.856 262.784 43.056 262.792 43.264 262.808C43.456 262.824 43.616 262.84 43.744 262.856L43.744 272.576C44.384 272.512 44.944 272.328 45.424 272.024C45.904 271.704 46.272 271.304 46.528 270.824C46.768 270.328 46.888 269.8 46.888 269.24C46.888 268.6 46.736 268 46.432 267.44C46.112 266.864 45.696 266.472 45.184 266.264L45.952 263.504C46.592 263.808 47.16 264.248 47.656 264.824C48.152 265.384 48.544 266.048 48.832 266.816C49.104 267.584 49.24 268.432 49.24 269.36ZM41.704 272.648L41.704 266.072C41.064 266.136 40.512 266.32 40.048 266.624C39.568 266.912 39.2 267.296 38.944 267.776C38.672 268.256 38.536 268.792 38.536 269.384C38.536 269.96 38.672 270.488 38.944 270.968C39.2 271.432 39.568 271.816 40.048 272.12C40.512 272.408 41.064 272.584 41.704 272.648ZM49.24 256.193C49.24 257.265 49.064 258.289 48.712 259.265C48.36 260.241 47.84 261.081 47.152 261.785L45.064 260.633C45.672 259.881 46.12 259.145 46.408 258.425C46.696 257.689 46.84 256.985 46.84 256.313C46.84 255.689 46.728 255.193 46.504 254.825C46.28 254.441 45.944 254.249 45.496 254.249C45.192 254.249 44.96 254.353 44.8 254.561C44.624 254.769 44.472 255.073 44.344 255.473C44.216 255.857 44.072 256.329 43.912 256.889C43.608 257.817 43.312 258.593 43.024 259.217C42.736 259.841 42.376 260.313 41.944 260.633C41.496 260.937 40.928 261.089 40.24 261.089C39.408 261.089 38.696 260.881 38.104 260.465C37.496 260.033 37.024 259.441 36.688 258.689C36.352 257.921 36.184 257.025 36.184 256.001C36.184 255.105 36.328 254.257 36.616 253.457C36.888 252.657 37.336 251.929 37.96 251.273L40 252.569C39.504 253.209 39.144 253.817 38.92 254.393C38.68 254.969 38.56 255.553 38.56 256.145C38.56 256.481 38.6 256.801 38.68 257.105C38.76 257.393 38.896 257.633 39.088 257.825C39.264 258.001 39.52 258.089 39.856 258.089C40.16 258.089 40.4 258.009 40.576 257.849C40.736 257.673 40.88 257.417 41.008 257.081C41.136 256.729 41.28 256.305 41.44 255.809C41.728 254.801 42.024 253.953 42.328 253.265C42.632 252.561 43.008 252.033 43.456 251.681C43.888 251.329 44.488 251.153 45.256 251.153C46.504 251.153 47.48 251.609 48.184 252.521C48.888 253.433 49.24 254.657 49.24 256.193ZM49.24 244.334C49.24 245.406 49.064 246.43 48.712 247.406C48.36 248.382 47.84 249.222 47.152 249.926L45.064 248.774C45.672 248.022 46.12 247.286 46.408 246.566C46.696 245.83 46.84 245.126 46.84 244.454C46.84 243.83 46.728 243.334 46.504 242.966C46.28 242.582 45.944 242.39 45.496 242.39C45.192 242.39 44.96 242.494 44.8 242.702C44.624 242.91 44.472 243.214 44.344 243.614C44.216 243.998 44.072 244.47 43.912 245.03C43.608 245.958 43.312 246.734 43.024 247.358C42.736 247.982 42.376 248.454 41.944 248.774C41.496 249.078 40.928 249.23 40.24 249.23C39.408 249.23 38.696 249.022 38.104 248.606C37.496 248.174 37.024 247.582 36.688 246.83C36.352 246.062 36.184 245.166 36.184 244.142C36.184 243.246 36.328 242.398 36.616 241.598C36.888 240.798 37.336 240.07 37.96 239.414L40 240.71C39.504 241.35 39.144 241.958 38.92 242.534C38.68 243.11 38.56 243.694 38.56 244.286C38.56 244.622 38.6 244.942 38.68 245.246C38.76 245.534 38.896 245.774 39.088 245.966C39.264 246.142 39.52 246.23 39.856 246.23C40.16 246.23 40.4 246.15 40.576 245.99C40.736 245.814 40.88 245.558 41.008 245.222C41.136 244.87 41.28 244.446 41.44 243.95C41.728 242.942 42.024 242.094 42.328 241.406C42.632 240.702 43.008 240.174 43.456 239.822C43.888 239.47 44.488 239.294 45.256 239.294C46.504 239.294 47.48 239.75 48.184 240.662C48.888 241.574 49.24 242.798 49.24 244.334ZM49 231.029L31.96 231.029L31.96 223.805C31.96 223.021 32.12 222.301 32.44 221.645C32.76 220.989 33.192 220.421 33.736 219.941C34.28 219.445 34.888 219.061 35.56 218.789C36.232 218.517 36.92 218.381 37.624 218.381C38.584 218.381 39.496 218.605 40.36 219.053C41.224 219.501 41.928 220.117 42.472 220.901C43.016 221.685 43.288 222.613 43.288 223.685L43.288 227.717L49 227.717L49 231.029ZM40.384 227.717L40.384 223.877C40.384 223.477 40.272 223.117 40.048 222.797C39.824 222.477 39.504 222.221 39.088 222.029C38.656 221.837 38.168 221.741 37.624 221.741C37.032 221.741 36.528 221.853 36.112 222.077C35.696 222.285 35.384 222.565 35.176 222.917C34.968 223.253 34.864 223.621 34.864 224.021L34.864 227.717L40.384 227.717ZM39.208 208.9C39.208 209.876 39.4 210.748 39.784 211.516C40.152 212.284 40.688 212.836 41.392 213.172L49 213.172L49 216.388L36.424 216.388L36.424 213.436L39.112 213.436C38.248 212.988 37.568 212.42 37.072 211.732C36.576 211.044 36.304 210.316 36.256 209.548C36.256 209.372 36.256 209.236 36.256 209.14C36.256 209.044 36.264 208.964 36.28 208.9L39.208 208.9ZM49.24 201.462C49.24 202.486 49.072 203.406 48.736 204.222C48.384 205.038 47.904 205.734 47.296 206.31C46.688 206.87 45.992 207.302 45.208 207.606C44.424 207.91 43.6 208.062 42.736 208.062C41.856 208.062 41.024 207.91 40.24 207.606C39.456 207.302 38.76 206.87 38.152 206.31C37.544 205.734 37.072 205.038 36.736 204.222C36.384 203.406 36.208 202.486 36.208 201.462C36.208 200.438 36.384 199.526 36.736 198.726C37.072 197.91 37.544 197.214 38.152 196.638C38.76 196.062 39.456 195.63 40.24 195.342C41.024 195.038 41.856 194.886 42.736 194.886C43.6 194.886 44.424 195.038 45.208 195.342C45.992 195.63 46.688 196.062 47.296 196.638C47.904 197.198 48.384 197.886 48.736 198.702C49.072 199.518 49.24 200.438 49.24 201.462ZM42.736 204.75C43.472 204.75 44.128 204.606 44.704 204.318C45.264 204.03 45.704 203.638 46.024 203.142C46.344 202.646 46.504 202.086 46.504 201.462C46.504 200.854 46.344 200.302 46.024 199.806C45.688 199.31 45.24 198.918 44.68 198.63C44.104 198.326 43.448 198.174 42.712 198.174C41.992 198.174 41.344 198.326 40.768 198.63C40.192 198.918 39.744 199.31 39.424 199.806C39.104 200.302 38.944 200.854 38.944 201.462C38.944 202.086 39.112 202.646 39.448 203.142C39.768 203.638 40.216 204.03 40.792 204.318C41.352 204.606 42 204.75 42.736 204.75ZM49.24 185.564C49.24 186.524 49.024 187.38 48.592 188.132C48.16 188.884 47.568 189.476 46.816 189.908L49 189.908L49 192.716L31.48 192.716L31.48 189.5L38.632 189.5C37.88 189.052 37.288 188.468 36.856 187.748C36.424 187.012 36.208 186.156 36.208 185.18C36.208 184.364 36.384 183.62 36.736 182.948C37.072 182.276 37.544 181.7 38.152 181.22C38.76 180.724 39.456 180.348 40.24 180.092C41.024 179.82 41.864 179.684 42.76 179.684C43.656 179.684 44.496 179.836 45.28 180.14C46.064 180.428 46.76 180.836 47.368 181.364C47.96 181.892 48.424 182.516 48.76 183.236C49.08 183.94 49.24 184.716 49.24 185.564ZM46.504 186.452C46.504 185.94 46.408 185.476 46.216 185.06C46.008 184.628 45.736 184.26 45.4 183.956C45.064 183.636 44.672 183.396 44.224 183.236C43.76 183.06 43.28 182.972 42.784 182.972C42.096 182.972 41.464 183.116 40.888 183.404C40.296 183.676 39.824 184.06 39.472 184.556C39.12 185.036 38.944 185.604 38.944 186.26C38.944 186.724 39.056 187.172 39.28 187.604C39.488 188.02 39.776 188.396 40.144 188.732C40.512 189.052 40.928 189.308 41.392 189.5L44.392 189.5C44.712 189.404 45 189.252 45.256 189.044C45.512 188.82 45.736 188.564 45.928 188.276C46.104 187.988 46.248 187.692 46.36 187.388C46.456 187.068 46.504 186.756 46.504 186.452ZM45.28 178.369C44.464 178.369 43.752 178.145 43.144 177.697C42.52 177.233 42.04 176.593 41.704 175.777C41.368 174.961 41.2 174.025 41.2 172.969C41.2 172.441 41.24 171.905 41.32 171.361C41.4 170.817 41.528 170.345 41.704 169.945L41.032 169.945C40.232 169.945 39.616 170.185 39.184 170.665C38.752 171.129 38.536 171.825 38.536 172.753C38.536 173.441 38.656 174.097 38.896 174.721C39.136 175.345 39.488 176.001 39.952 176.689L37.84 177.721C37.296 176.889 36.888 176.041 36.616 175.177C36.344 174.297 36.208 173.377 36.208 172.417C36.208 170.625 36.656 169.233 37.552 168.241C38.448 167.233 39.728 166.729 41.392 166.729L45.4 166.729C45.736 166.729 45.976 166.673 46.12 166.561C46.264 166.433 46.352 166.233 46.384 165.961L49 165.961C49.048 166.249 49.088 166.513 49.12 166.753C49.152 166.977 49.168 167.169 49.168 167.329C49.168 167.969 49.024 168.457 48.736 168.793C48.448 169.113 48.096 169.313 47.68 169.393L47.032 169.465C47.736 170.009 48.28 170.689 48.664 171.505C49.048 172.321 49.24 173.153 49.24 174.001C49.24 174.833 49.072 175.585 48.736 176.257C48.384 176.913 47.912 177.433 47.32 177.817C46.712 178.185 46.032 178.369 45.28 178.369ZM45.928 170.545C45.736 170.369 45.544 170.225 45.352 170.113C45.16 170.001 44.984 169.945 44.824 169.945L43.552 169.945C43.392 170.329 43.272 170.745 43.192 171.193C43.096 171.641 43.048 172.065 43.048 172.465C43.048 173.297 43.232 173.985 43.6 174.529C43.952 175.057 44.424 175.321 45.016 175.321C45.336 175.321 45.64 175.233 45.928 175.057C46.216 174.881 46.448 174.625 46.624 174.289C46.8 173.953 46.888 173.553 46.888 173.089C46.888 172.609 46.8 172.137 46.624 171.673C46.432 171.209 46.2 170.833 45.928 170.545ZM49.24 156.571C49.24 157.531 49.024 158.387 48.592 159.139C48.16 159.891 47.568 160.483 46.816 160.915L49 160.915L49 163.723L31.48 163.723L31.48 160.507L38.632 160.507C37.88 160.059 37.288 159.475 36.856 158.755C36.424 158.019 36.208 157.163 36.208 156.187C36.208 155.371 36.384 154.627 36.736 153.955C37.072 153.283 37.544 152.707 38.152 152.227C38.76 151.731 39.456 151.355 40.24 151.099C41.024 150.827 41.864 150.691 42.76 150.691C43.656 150.691 44.496 150.843 45.28 151.147C46.064 151.435 46.76 151.843 47.368 152.371C47.96 152.899 48.424 153.523 48.76 154.243C49.08 154.947 49.24 155.723 49.24 156.571ZM46.504 157.459C46.504 156.947 46.408 156.483 46.216 156.067C46.008 155.635 45.736 155.267 45.4 154.963C45.064 154.643 44.672 154.403 44.224 154.243C43.76 154.067 43.28 153.979 42.784 153.979C42.096 153.979 41.464 154.123 40.888 154.411C40.296 154.683 39.824 155.067 39.472 155.563C39.12 156.043 38.944 156.611 38.944 157.267C38.944 157.731 39.056 158.179 39.28 158.611C39.488 159.027 39.776 159.403 40.144 159.739C40.512 160.059 40.928 160.315 41.392 160.507L44.392 160.507C44.712 160.411 45 160.259 45.256 160.051C45.512 159.827 45.736 159.571 45.928 159.283C46.104 158.995 46.248 158.699 46.36 158.395C46.456 158.075 46.504 157.763 46.504 157.459ZM49 148.513L36.424 148.513L36.424 145.297L49 145.297L49 148.513ZM34.672 148.513L31.48 148.513L31.48 145.297L34.672 145.297L34.672 148.513ZM31.48 142.419L31.48 139.203L44.968 139.203C45.544 139.203 45.936 139.107 46.144 138.915C46.336 138.723 46.432 138.459 46.432 138.123C46.432 137.867 46.4 137.603 46.336 137.331C46.272 137.059 46.192 136.819 46.096 136.611L48.544 136.179C48.752 136.611 48.912 137.115 49.024 137.691C49.136 138.267 49.192 138.787 49.192 139.251C49.192 140.259 48.928 141.043 48.4 141.603C47.856 142.147 47.088 142.419 46.096 142.419L31.48 142.419ZM49 134.778L36.424 134.778L36.424 131.562L49 131.562L49 134.778ZM34.672 134.778L31.48 134.778L31.48 131.562L34.672 131.562L34.672 134.778ZM48.352 121.125C48.464 121.397 48.592 121.725 48.736 122.109C48.88 122.493 48.992 122.909 49.072 123.357C49.168 123.789 49.216 124.229 49.216 124.677C49.216 125.269 49.112 125.813 48.904 126.309C48.696 126.805 48.368 127.205 47.92 127.509C47.456 127.797 46.856 127.941 46.12 127.941L38.896 127.941L38.896 129.597L36.424 129.597L36.424 127.941L32.344 127.941L32.344 124.725L36.424 124.725L36.424 122.085L38.896 122.085L38.896 124.725L45.04 124.725C45.472 124.709 45.784 124.589 45.976 124.365C46.168 124.141 46.264 123.861 46.264 123.525C46.264 123.189 46.208 122.861 46.096 122.541C45.984 122.221 45.888 121.965 45.808 121.773L48.352 121.125ZM51.448 119.233C51.512 118.945 51.568 118.681 51.616 118.441C51.664 118.185 51.688 117.969 51.688 117.793C51.688 117.489 51.608 117.241 51.448 117.049C51.304 116.841 51.032 116.641 50.632 116.449C50.248 116.257 49.704 116.057 49 115.849L36.424 120.817L36.424 117.481L45.712 114.097L36.424 111.121L36.424 108.049L51.496 113.329C52.056 113.521 52.56 113.817 53.008 114.217C53.472 114.601 53.832 115.089 54.088 115.681C54.36 116.257 54.496 116.905 54.496 117.625C54.496 117.881 54.472 118.137 54.424 118.393C54.392 118.649 54.328 118.929 54.232 119.233L51.448 119.233Z" fill="black"/>
</svg>
