<svg width="640" height="440" viewBox="0 0 640 440" fill="none" xmlns="http://www.w3.org/2000/svg">
<rect x="0.5" y="0.5" width="639" height="439" fill="#F6F3ED"/>
<rect x="0.5" y="0.5" width="639" height="439" stroke="#E0DBC8"/>
<path d="M116.821 363.165H563.221V73.2453H116.821V363.165Z" fill="white"/>
<path d="M116.821 363.165V367.832V363.165Z" fill="black"/>
<path d="M116.821 363.165V367.832" stroke="black" stroke-width="1.06667"/>
<path d="M101.702 385.899H104.924V374.774L101.418 375.477V373.68L104.905 372.977H106.877V385.899H110.099V387.559H101.702V385.899Z" fill="black"/>
<path d="M118.302 374.277C117.287 374.277 116.524 374.777 116.011 375.777C115.501 376.775 115.245 378.277 115.245 380.284C115.245 382.281 115.501 383.78 116.011 384.78C116.524 385.78 117.287 386.28 118.302 386.28C119.325 386.28 120.091 385.78 120.602 384.78C121.114 383.78 121.37 382.281 121.37 380.284C121.37 378.277 121.114 376.775 120.602 375.777C120.091 374.777 119.325 374.277 118.302 374.277ZM118.302 372.715C119.937 372.715 121.186 373.362 122.049 374.655C122.911 375.947 123.342 377.823 123.342 380.284C123.342 382.738 122.911 384.612 122.049 385.905C121.186 387.197 119.937 387.843 118.302 387.843C116.668 387.843 115.42 387.197 114.558 385.905C113.695 384.612 113.264 382.738 113.264 380.284C113.264 377.823 113.695 375.947 114.558 374.655C115.42 373.362 116.668 372.715 118.302 372.715Z" fill="black"/>
<path d="M126.598 378.741H128.854V370.953L126.399 371.445V370.188L128.841 369.695H130.221V378.741H132.476V379.902H126.598V378.741Z" fill="black"/>
<path d="M220.61 363.165V367.832V363.165Z" fill="black"/>
<path d="M220.61 363.165V367.832" stroke="black" stroke-width="1.06667"/>
<path d="M324.399 363.165V367.832V363.165Z" fill="black"/>
<path d="M324.399 363.165V367.832" stroke="black" stroke-width="1.06667"/>
<path d="M428.188 363.165V367.832V363.165Z" fill="black"/>
<path d="M428.188 363.165V367.832" stroke="black" stroke-width="1.06667"/>
<path d="M531.977 363.165V367.832V363.165Z" fill="black"/>
<path d="M531.977 363.165V367.832" stroke="black" stroke-width="1.06667"/>
<path d="M516.858 385.899H520.08V374.774L516.574 375.477V373.68L520.062 372.977H522.033V385.899H525.255V387.559H516.858V385.899Z" fill="black"/>
<path d="M533.458 374.277C532.443 374.277 531.68 374.777 531.167 375.777C530.657 376.775 530.402 378.277 530.402 380.284C530.402 382.281 530.657 383.78 531.167 384.78C531.68 385.78 532.443 386.28 533.458 386.28C534.481 386.28 535.248 385.78 535.758 384.78C536.271 383.78 536.527 382.281 536.527 380.284C536.527 378.277 536.271 376.775 535.758 375.777C535.248 374.777 534.481 374.277 533.458 374.277ZM533.458 372.715C535.093 372.715 536.342 373.362 537.205 374.655C538.067 375.947 538.499 377.823 538.499 380.284C538.499 382.738 538.067 384.612 537.205 385.905C536.342 387.197 535.093 387.843 533.458 387.843C531.825 387.843 530.577 387.197 529.714 385.905C528.852 384.612 528.421 382.738 528.421 380.284C528.421 377.823 528.852 375.947 529.714 374.655C530.577 373.362 531.825 372.715 533.458 372.715Z" fill="black"/>
<path d="M541.529 369.695H546.95V370.859H542.794V373.36C542.994 373.291 543.193 373.24 543.393 373.206C543.594 373.173 543.796 373.156 543.997 373.156C545.136 373.156 546.038 373.468 546.703 374.092C547.369 374.716 547.703 375.562 547.703 376.628C547.703 377.726 547.361 378.58 546.677 379.189C545.993 379.797 545.029 380.101 543.785 380.101C543.356 380.101 542.919 380.065 542.474 379.992C542.031 379.919 541.572 379.81 541.099 379.664V378.275C541.508 378.498 541.932 378.664 542.369 378.774C542.807 378.883 543.269 378.938 543.756 378.938C544.545 378.938 545.169 378.731 545.629 378.316C546.09 377.902 546.32 377.339 546.32 376.628C546.32 375.917 546.09 375.355 545.629 374.941C545.169 374.525 544.545 374.318 543.756 374.318C543.387 374.318 543.019 374.358 542.652 374.44C542.286 374.522 541.912 374.649 541.529 374.823V369.695Z" fill="black"/>
<path d="M148.064 363.165V365.832V363.165Z" fill="black"/>
<path d="M148.064 363.165V365.832" stroke="black" stroke-width="0.8"/>
<path d="M166.341 363.165V365.832V363.165Z" fill="black"/>
<path d="M166.341 363.165V365.832" stroke="black" stroke-width="0.8"/>
<path d="M179.308 363.165V365.832V363.165Z" fill="black"/>
<path d="M179.308 363.165V365.832" stroke="black" stroke-width="0.8"/>
<path d="M189.366 363.165V365.832V363.165Z" fill="black"/>
<path d="M189.366 363.165V365.832" stroke="black" stroke-width="0.8"/>
<path d="M197.584 363.165V365.832V363.165Z" fill="black"/>
<path d="M197.584 363.165V365.832" stroke="black" stroke-width="0.8"/>
<path d="M204.533 363.165V365.832V363.165Z" fill="black"/>
<path d="M204.533 363.165V365.832" stroke="black" stroke-width="0.8"/>
<path d="M210.552 363.165V365.832V363.165Z" fill="black"/>
<path d="M210.552 363.165V365.832" stroke="black" stroke-width="0.8"/>
<path d="M215.861 363.165V365.832V363.165Z" fill="black"/>
<path d="M215.861 363.165V365.832" stroke="black" stroke-width="0.8"/>
<path d="M251.854 363.165V365.832V363.165Z" fill="black"/>
<path d="M251.854 363.165V365.832" stroke="black" stroke-width="0.8"/>
<path d="M270.13 363.165V365.832V363.165Z" fill="black"/>
<path d="M270.13 363.165V365.832" stroke="black" stroke-width="0.8"/>
<path d="M283.097 363.165V365.832V363.165Z" fill="black"/>
<path d="M283.097 363.165V365.832" stroke="black" stroke-width="0.8"/>
<path d="M293.155 363.165V365.832V363.165Z" fill="black"/>
<path d="M293.155 363.165V365.832" stroke="black" stroke-width="0.8"/>
<path d="M301.374 363.165V365.832V363.165Z" fill="black"/>
<path d="M301.374 363.165V365.832" stroke="black" stroke-width="0.8"/>
<path d="M308.322 363.165V365.832V363.165Z" fill="black"/>
<path d="M308.322 363.165V365.832" stroke="black" stroke-width="0.8"/>
<path d="M314.341 363.165V365.832V363.165Z" fill="black"/>
<path d="M314.341 363.165V365.832" stroke="black" stroke-width="0.8"/>
<path d="M319.65 363.165V365.832V363.165Z" fill="black"/>
<path d="M319.65 363.165V365.832" stroke="black" stroke-width="0.8"/>
<path d="M355.643 363.165V365.832V363.165Z" fill="black"/>
<path d="M355.643 363.165V365.832" stroke="black" stroke-width="0.8"/>
<path d="M373.919 363.165V365.832V363.165Z" fill="black"/>
<path d="M373.919 363.165V365.832" stroke="black" stroke-width="0.8"/>
<path d="M386.886 363.165V365.832V363.165Z" fill="black"/>
<path d="M386.886 363.165V365.832" stroke="black" stroke-width="0.8"/>
<path d="M396.944 363.165V365.832V363.165Z" fill="black"/>
<path d="M396.944 363.165V365.832" stroke="black" stroke-width="0.8"/>
<path d="M405.163 363.165V365.832V363.165Z" fill="black"/>
<path d="M405.163 363.165V365.832" stroke="black" stroke-width="0.8"/>
<path d="M412.111 363.165V365.832V363.165Z" fill="black"/>
<path d="M412.111 363.165V365.832" stroke="black" stroke-width="0.8"/>
<path d="M418.13 363.165V365.832V363.165Z" fill="black"/>
<path d="M418.13 363.165V365.832" stroke="black" stroke-width="0.8"/>
<path d="M423.439 363.165V365.832V363.165Z" fill="black"/>
<path d="M423.439 363.165V365.832" stroke="black" stroke-width="0.8"/>
<path d="M459.432 363.165V365.832V363.165Z" fill="black"/>
<path d="M459.432 363.165V365.832" stroke="black" stroke-width="0.8"/>
<path d="M477.708 363.165V365.832V363.165Z" fill="black"/>
<path d="M477.708 363.165V365.832" stroke="black" stroke-width="0.8"/>
<path d="M490.675 363.165V365.832V363.165Z" fill="black"/>
<path d="M490.675 363.165V365.832" stroke="black" stroke-width="0.8"/>
<path d="M500.734 363.165V365.832V363.165Z" fill="black"/>
<path d="M500.734 363.165V365.832" stroke="black" stroke-width="0.8"/>
<path d="M508.952 363.165V365.832V363.165Z" fill="black"/>
<path d="M508.952 363.165V365.832" stroke="black" stroke-width="0.8"/>
<path d="M515.9 363.165V365.832V363.165Z" fill="black"/>
<path d="M515.9 363.165V365.832" stroke="black" stroke-width="0.8"/>
<path d="M521.919 363.165V365.832V363.165Z" fill="black"/>
<path d="M521.919 363.165V365.832" stroke="black" stroke-width="0.8"/>
<path d="M527.228 363.165V365.832V363.165Z" fill="black"/>
<path d="M527.228 363.165V365.832" stroke="black" stroke-width="0.8"/>
<path d="M563.221 363.165V365.832V363.165Z" fill="black"/>
<path d="M563.221 363.165V365.832" stroke="black" stroke-width="0.8"/>
<path d="M116.821 362.202H112.154H116.821Z" fill="black"/>
<path d="M116.821 362.202H112.154" stroke="black" stroke-width="1.06667"/>
<path d="M82.0375 356.519C81.0229 356.519 80.2594 357.019 79.7469 358.019C79.2365 359.017 78.9813 360.519 78.9813 362.526C78.9813 364.523 79.2365 366.022 79.7469 367.022C80.2594 368.022 81.0229 368.522 82.0375 368.522C83.0604 368.522 83.8271 368.022 84.3375 367.022C84.85 366.022 85.1062 364.523 85.1062 362.526C85.1062 360.519 84.85 359.017 84.3375 358.019C83.8271 357.019 83.0604 356.519 82.0375 356.519ZM82.0375 354.957C83.6729 354.957 84.9219 355.604 85.7844 356.897C86.6469 358.189 87.0781 360.065 87.0781 362.526C87.0781 364.98 86.6469 366.854 85.7844 368.147C84.9219 369.439 83.6729 370.085 82.0375 370.085C80.4042 370.085 79.1562 369.439 78.2938 368.147C77.4313 366.854 77 364.98 77 362.526C77 360.065 77.4313 358.189 78.2938 356.897C79.1562 355.604 80.4042 354.957 82.0375 354.957Z" fill="black"/>
<path d="M90.5433 367.319H92.6058V369.801H90.5433V367.319Z" fill="black"/>
<path d="M101.12 356.519C100.105 356.519 99.3414 357.019 98.8289 358.019C98.3185 359.017 98.0633 360.519 98.0633 362.526C98.0633 364.523 98.3185 366.022 98.8289 367.022C99.3414 368.022 100.105 368.522 101.12 368.522C102.142 368.522 102.909 368.022 103.42 367.022C103.932 366.022 104.188 364.523 104.188 362.526C104.188 360.519 103.932 359.017 103.42 358.019C102.909 357.019 102.142 356.519 101.12 356.519ZM101.12 354.957C102.755 354.957 104.004 355.604 104.866 356.897C105.729 358.189 106.16 360.065 106.16 362.526C106.16 364.98 105.729 366.854 104.866 368.147C104.004 369.439 102.755 370.085 101.12 370.085C99.4862 370.085 98.2383 369.439 97.3758 368.147C96.5133 366.854 96.082 364.98 96.082 362.526C96.082 360.065 96.5133 358.189 97.3758 356.897C98.2383 355.604 99.4862 354.957 101.12 354.957Z" fill="black"/>
<path d="M116.821 314.043H112.154H116.821Z" fill="black"/>
<path d="M116.821 314.043H112.154" stroke="black" stroke-width="1.06667"/>
<path d="M116.821 265.883H112.154H116.821Z" fill="black"/>
<path d="M116.821 265.883H112.154" stroke="black" stroke-width="1.06667"/>
<path d="M116.821 217.724H112.154H116.821Z" fill="black"/>
<path d="M116.821 217.724H112.154" stroke="black" stroke-width="1.06667"/>
<path d="M116.821 169.564H112.154H116.821Z" fill="black"/>
<path d="M116.821 169.564H112.154" stroke="black" stroke-width="1.06667"/>
<path d="M116.821 121.405H112.154H116.821Z" fill="black"/>
<path d="M116.821 121.405H112.154" stroke="black" stroke-width="1.06667"/>
<path d="M116.821 73.2453H112.154H116.821Z" fill="black"/>
<path d="M116.821 73.2453H112.154" stroke="black" stroke-width="1.06667"/>
<path d="M83.7969 72.9812C84.7407 73.1833 85.4771 73.6042 86.0063 74.2437C86.5375 74.8812 86.8032 75.6687 86.8032 76.6062C86.8032 78.0437 86.3084 79.1573 85.3188 79.9469C84.3292 80.7344 82.923 81.1281 81.1 81.1281C80.4896 81.1281 79.8605 81.0677 79.2125 80.9469C78.5646 80.826 77.8959 80.6448 77.2063 80.4031V78.5C77.7521 78.8187 78.35 79.0594 79 79.2219C79.6521 79.3844 80.3334 79.4656 81.0438 79.4656C82.2792 79.4656 83.2209 79.2219 83.8688 78.7344C84.5167 78.2469 84.8407 77.5375 84.8407 76.6062C84.8407 75.7458 84.5396 75.0739 83.9375 74.5906C83.3355 74.1052 82.498 73.8625 81.425 73.8625H79.725V72.2406H81.5032C82.4719 72.2406 83.2136 72.0469 83.7282 71.6594C84.2428 71.2719 84.5 70.7135 84.5 69.9844C84.5 69.2364 84.2344 68.6625 83.7032 68.2625C83.174 67.8604 82.4146 67.6594 81.425 67.6594C80.8834 67.6594 80.3032 67.7187 79.6844 67.8375C79.0657 67.9542 78.3855 68.1354 77.6438 68.3812V66.625C78.3938 66.4167 79.0959 66.2604 79.75 66.1562C80.4042 66.0521 81.0209 66 81.6 66C83.098 66 84.2823 66.3406 85.1532 67.0219C86.0261 67.701 86.4625 68.6198 86.4625 69.7781C86.4625 70.5864 86.2313 71.2687 85.7688 71.825C85.3063 72.3812 84.649 72.7667 83.7969 72.9812Z" fill="black"/>
<path d="M90.5435 78.3625H92.606V80.8438H90.5435V78.3625Z" fill="black"/>
<path d="M101.12 67.5625C100.105 67.5625 99.3414 68.0625 98.8289 69.0625C98.3185 70.0604 98.0633 71.5625 98.0633 73.5687C98.0633 75.5667 98.3185 77.0656 98.8289 78.0656C99.3414 79.0656 100.105 79.5656 101.12 79.5656C102.142 79.5656 102.909 79.0656 103.42 78.0656C103.932 77.0656 104.188 75.5667 104.188 73.5687C104.188 71.5625 103.932 70.0604 103.42 69.0625C102.909 68.0625 102.142 67.5625 101.12 67.5625ZM101.12 66C102.755 66 104.004 66.6469 104.866 67.9406C105.729 69.2323 106.16 71.1083 106.16 73.5687C106.16 76.0229 105.729 77.8969 104.866 79.1906C104.004 80.4823 102.755 81.1281 101.12 81.1281C99.4862 81.1281 98.2383 80.4823 97.3758 79.1906C96.5133 77.8969 96.082 76.0229 96.082 73.5687C96.082 71.1083 96.5133 69.2323 97.3758 67.9406C98.2383 66.6469 99.4862 66 101.12 66Z" fill="black"/>
<mask id="mask0_1238_2817" style="mask-type:luminance" maskUnits="userSpaceOnUse" x="116" y="73" width="448" height="291">
<path d="M563.221 73.2453H116.821V363.165H563.221V73.2453Z" fill="white"/>
</mask>
<g mask="url(#mask0_1238_2817)">
<path d="M116.821 152.41L121.117 150.962L125.039 148.019L128.647 150.583L131.987 156.586L135.097 160.71L148.064 185.29L150.264 189.005L152.361 192.15L154.364 194.803L156.283 196.994L159.891 200.125L161.592 201.198L163.231 201.999L166.341 202.961L167.819 203.192L170.637 203.333L174.559 203.01L179.308 202.071L184.617 200.565L191.134 198.255L197.584 195.594L204.533 192.397L213.284 187.986L222.378 183.052L233.464 176.709L251.401 166.336L258.153 162.72L264.877 159.522L269.372 157.712L273.876 156.245L278.348 155.207L282.871 154.652L287.291 154.657L289.592 154.891L291.782 155.269L294.048 155.824L296.289 156.54L298.504 157.414L300.768 158.479L302.997 159.697L307.477 162.651L311.969 166.272L316.486 170.541L320.934 175.312L325.424 180.64L329.908 186.406L336.639 195.741L343.391 205.701L354.594 222.904L368.054 243.533L377.039 256.694L383.76 266.04L390.491 274.889L397.223 283.188L403.952 290.908L410.685 298.05L417.414 304.613L424.14 310.615L430.87 316.085L437.6 321.05L444.329 325.539L451.06 329.587L457.791 333.227L464.52 336.491L471.249 339.414L477.979 342.025L484.708 344.353L491.437 346.427L500.411 348.839L509.384 350.896L518.357 352.648L527.329 354.138L538.545 355.686L545.275 356.472" stroke="black" stroke-width="2" stroke-linecap="square"/>
</g>
<mask id="mask1_1238_2817" style="mask-type:luminance" maskUnits="userSpaceOnUse" x="116" y="73" width="448" height="291">
<path d="M563.221 73.2453H116.821V363.165H563.221V73.2453Z" fill="white"/>
</mask>
<g mask="url(#mask1_1238_2817)">
<path d="M116.821 149.149L121.117 149.729L125.039 149.694L128.647 152.428L131.987 158.044L135.097 162.898L138.006 169.434L140.739 175.141L143.315 179.846L145.752 183.353L148.064 186.095L150.264 188.165L152.361 189.545L154.364 190.379L156.283 190.749L159.891 190.67L163.231 189.969L176.996 185.704L181.507 184.796L195.272 182.375L201.881 180.764L206.424 179.388L211.112 177.734L217.821 174.977L224.494 171.862L235.776 166.108L244.792 161.58L251.401 158.651L255.944 156.98L260.446 155.698L264.877 154.879L269.372 154.573L271.608 154.638L273.876 154.861L276.036 155.225L278.348 155.785L280.547 156.484L282.871 157.401L285.081 158.444L287.291 159.654L291.782 162.625L296.289 166.274L300.768 170.525L305.258 175.36L309.717 180.671L314.228 186.492L320.934 195.817L327.701 205.821L338.884 223.019L352.347 243.664L361.331 256.824L368.054 266.17L374.797 275.029L381.519 283.31L388.251 291.026L394.982 298.158L401.705 304.707L408.436 310.706L415.167 316.169L421.9 321.128L428.628 325.609L435.357 329.649L442.088 333.283L448.818 336.542L455.546 339.459L462.277 342.065L469.006 344.389L475.735 346.459L484.708 348.866L493.681 350.92L502.654 352.668L511.627 354.155L522.843 355.7L529.573 356.485" stroke="#1A001A" stroke-width="2" stroke-linecap="square"/>
</g>
<mask id="mask2_1238_2817" style="mask-type:luminance" maskUnits="userSpaceOnUse" x="116" y="73" width="448" height="291">
<path d="M563.221 73.2453H116.821V363.165H563.221V73.2453Z" fill="white"/>
</mask>
<g mask="url(#mask2_1238_2817)">
<path d="M116.821 141.025L121.117 144.237L125.039 145.702L128.647 148.945L131.987 154.114L135.097 159.325L138.006 166.157L140.739 171.491L143.315 175.14L145.752 177.287L148.064 178.847L150.264 179.543L152.361 179.609L154.364 179.186L156.283 178.434L161.592 175.69L166.341 173.006L167.819 172.276L170.637 171.16L174.559 170.29L176.996 170.123L181.507 170.322L191.134 171.196L195.272 171.266L199.784 171.001L204.533 170.301L208.829 169.299L213.284 167.923L217.821 166.23L224.494 163.399L235.776 158.554L240.073 157.003L244.792 155.662L249.064 154.871L253.621 154.558L255.944 154.634L258.153 154.865L260.446 155.273L262.627 155.825L264.877 156.565L267.181 157.505L269.372 158.572L271.608 159.835L276.036 162.839L280.547 166.57L285.081 170.958L289.592 175.904L294.048 181.292L298.504 187.113L305.258 196.596L311.969 206.583L325.424 227.364L336.639 244.52L345.641 257.674L352.347 266.96L359.091 275.779L365.809 284.008L372.546 291.681L379.281 298.768L386.01 305.274L392.733 311.217L399.469 316.638L406.195 321.549L412.928 325.992L419.653 329.992L426.386 333.592L433.115 336.819L439.844 339.707L446.572 342.286L453.304 344.587L460.034 346.635L469.006 349.016L477.979 351.048L486.951 352.777L498.167 354.578L509.384 356.045L511.627 356.303" stroke="#330033" stroke-width="2" stroke-linecap="square"/>
</g>
<mask id="mask3_1238_2817" style="mask-type:luminance" maskUnits="userSpaceOnUse" x="116" y="73" width="448" height="291">
<path d="M563.221 73.2453H116.821V363.165H563.221V73.2453Z" fill="white"/>
</mask>
<g mask="url(#mask3_1238_2817)">
<path d="M116.821 127.857L121.117 134.103L125.039 134.975L128.647 137.237L131.987 142.016L135.097 147.08L138.006 153.857L140.739 158.604L143.315 162.266L148.064 166.291L150.264 166.965L152.361 167.055L154.364 166.539L156.283 165.639L166.341 159.645L167.819 159.013L170.637 158.253L173.289 158.078L174.559 158.163L176.996 158.562L181.507 159.817L188.456 161.915L192.835 162.851L197.584 163.3L201.881 163.153L206.424 162.447L211.112 161.227L217.821 158.975L224.494 156.741L228.828 155.574L233.464 154.769L237.976 154.546L240.073 154.659L242.355 154.948L244.792 155.455L246.853 156.049L249.064 156.861L251.401 157.909L253.621 159.089L255.944 160.511L260.446 163.815L264.877 167.725L269.372 172.315L273.876 177.48L278.348 183.092L282.871 189.187L289.592 198.849L298.504 212.386L320.934 246.947L327.701 256.827L334.421 266.187L341.147 275.04L347.864 283.323L354.594 291.044L361.331 298.186L368.054 304.738L374.797 310.747L381.519 316.203L388.251 321.159L394.982 325.64L401.705 329.675L408.436 333.307L415.167 336.564L421.9 339.481L428.628 342.084L435.357 344.407L442.088 346.475L451.06 348.88L460.034 350.932L469.006 352.678L477.979 354.163L489.194 355.707L495.924 356.491" stroke="#022851" stroke-width="2" stroke-linecap="square"/>
</g>
<mask id="mask4_1238_2817" style="mask-type:luminance" maskUnits="userSpaceOnUse" x="116" y="73" width="448" height="291">
<path d="M563.221 73.2453H116.821V363.165H563.221V73.2453Z" fill="white"/>
</mask>
<g mask="url(#mask4_1238_2817)">
<path d="M116.821 112.85L121.117 119.737L125.039 120.597L128.647 119.102L131.987 123.472L135.097 127.229L138.006 132.849L140.739 136.738L143.315 141.792L145.752 145.039L148.064 148.758L150.264 151.314L152.361 153.084L154.364 153.927L156.283 153.941L159.891 152.584L166.341 149.062L167.819 148.566L170.637 148.297L173.289 148.814L174.559 149.257L179.308 151.35L186.577 154.722L188.456 155.481L192.835 156.836L195.272 157.257L197.584 157.446L199.784 157.431L201.881 157.261L206.424 156.535L215.357 154.834L217.821 154.57L220.157 154.478L222.378 154.553L224.494 154.783L226.91 155.253L228.828 155.793L231.384 156.731L233.464 157.692L235.776 158.969L237.976 160.367L242.355 163.718L246.853 167.856L251.401 172.714L255.944 178.139L260.446 184.012L264.877 190.174L271.608 200.106L280.547 213.933L298.504 241.952L307.477 255.282L314.228 264.795L320.934 273.726L327.701 282.174L334.421 289.979L341.147 297.203L347.864 303.836L354.594 309.917L361.331 315.463L368.054 320.486L374.797 325.041L381.519 329.136L388.251 332.824L394.982 336.133L401.705 339.091L408.436 341.738L415.167 344.099L421.9 346.202L430.87 348.646L439.844 350.733L448.818 352.51L457.791 354.02L469.006 355.59L475.735 356.388" stroke="#074784" stroke-width="2" stroke-linecap="square"/>
</g>
<mask id="mask5_1238_2817" style="mask-type:luminance" maskUnits="userSpaceOnUse" x="116" y="73" width="448" height="291">
<path d="M563.221 73.2453H116.821V363.165H563.221V73.2453Z" fill="white"/>
</mask>
<g mask="url(#mask5_1238_2817)">
<path d="M116.821 101.523L121.117 104.967L125.039 108.791L128.647 102.453L131.987 105.187L135.097 107.995L138.006 110.258L140.739 111.847L143.315 117.343L145.752 120.638L148.064 124.948L150.264 129.679L152.361 133.143L154.364 136.013L156.283 138.223L159.891 139.961L161.592 139.686L167.819 137.007L170.637 137.297L173.289 139.065L179.308 144.962L181.507 146.723L184.617 148.757L188.456 150.761L191.134 151.789L192.835 152.246L197.584 152.956L204.533 153.574L206.424 153.883L208.829 154.464L211.112 155.236L213.284 156.19L215.357 157.307L217.821 158.914L220.157 160.667L224.494 164.587L228.828 169.267L233.464 174.943L237.976 181.056L244.792 191.097L251.401 201.455L280.547 247.957L287.291 257.931L294.048 267.41L300.768 276.271L307.477 284.525L314.228 292.226L320.934 299.276L327.701 305.799L334.421 311.712L341.147 317.094L347.864 321.963L354.594 326.371L361.331 330.344L368.054 333.907L374.797 337.109L381.519 339.965L388.251 342.519L394.982 344.795L401.705 346.819L410.685 349.176L419.653 351.183L428.628 352.893L439.844 354.673L451.06 356.121L453.304 356.377" stroke="#0E69A7" stroke-width="2" stroke-linecap="square"/>
</g>
<mask id="mask6_1238_2817" style="mask-type:luminance" maskUnits="userSpaceOnUse" x="116" y="73" width="448" height="291">
<path d="M563.221 73.2453H116.821V363.165H563.221V73.2453Z" fill="white"/>
</mask>
<g mask="url(#mask6_1238_2817)">
<path d="M116.821 103.456L121.117 105.35L125.039 116.176L128.647 102.522L131.987 96.7341L135.097 102.197L138.006 95.0165L140.739 93.7774L143.315 98.3479L145.752 99.4357L148.064 101.31L150.264 106.467L154.364 110.101L156.283 114.248L159.891 123.265L161.592 123.251L163.231 120.969L166.341 118.621L167.819 118.797L170.637 120.419L173.289 124.657L179.308 136.587L181.507 139.902L184.617 143.5L186.577 145.363L191.134 149.007L195.272 152.001L199.784 156.008L201.881 158.321L206.424 163.928L211.112 170.873L215.357 177.867L222.378 190.361L231.384 206.96L242.355 226.952L249.064 238.596L255.944 249.914L262.627 260.257L269.372 269.984L276.036 278.9L282.871 287.329L289.592 294.93L296.289 301.856L302.997 308.177L309.717 313.928L316.486 319.171L323.212 323.872L329.908 328.088L336.639 331.897L343.391 335.321L350.11 338.371L356.844 341.1L363.578 343.535L370.307 345.701L379.281 348.221L388.251 350.371L397.223 352.202L406.195 353.759L417.414 355.379L426.386 356.453" stroke="#5090C9" stroke-width="2" stroke-linecap="square"/>
</g>
<mask id="mask7_1238_2817" style="mask-type:luminance" maskUnits="userSpaceOnUse" x="116" y="73" width="448" height="291">
<path d="M563.221 73.2453H116.821V363.165H563.221V73.2453Z" fill="white"/>
</mask>
<g mask="url(#mask7_1238_2817)">
<path d="M116.821 149.757L121.117 154.475L125.039 171.529L131.987 132.767L135.097 141.693L138.006 114.949L140.739 112.519L143.315 115.227L145.752 114.645L148.064 113.465L150.264 117.803L152.361 114.997L154.364 109.07L156.283 110.416L159.891 131.12L161.592 127.461L163.231 114.69L166.341 101.938L167.819 100.807L170.637 102.207L173.289 110.241L174.559 115.12L176.996 123.44L179.308 130.339L184.617 144.029L188.456 153.703L192.835 165.984L195.272 172.189L197.584 178.826L199.784 184.368L201.881 190.248L206.424 201.864L213.284 219.055L217.821 229.814L224.494 244.304L228.828 253.033L233.464 261.65L237.976 269.442L242.355 276.463L246.853 283.111L251.401 289.336L255.944 295.061L260.446 300.305L264.877 305.064L269.372 309.526L273.876 313.652L278.348 317.431L282.871 320.957L287.291 324.138L294.048 328.542L300.768 332.425L307.477 335.863L314.228 338.932L320.934 341.635L327.701 344.052L334.421 346.18L343.391 348.647L352.347 350.741L361.331 352.526L370.307 354.038L381.519 355.608L386.01 356.15" stroke="#94C5E8" stroke-width="2" stroke-linecap="square"/>
</g>
<mask id="mask8_1238_2817" style="mask-type:luminance" maskUnits="userSpaceOnUse" x="116" y="73" width="448" height="291">
<path d="M563.221 73.2453H116.821V363.165H563.221V73.2453Z" fill="white"/>
</mask>
<g mask="url(#mask8_1238_2817)">
<path d="M116.821 264.822L121.117 268.684L125.039 279.843L128.647 266.651L131.987 251.88L135.097 257.881L138.006 231.68L140.739 229.774L143.315 231.025L145.752 230.939L148.064 229.487L150.264 231.009L152.361 227.4L154.364 218.752L156.283 215.906L159.891 235.356L161.592 229.763L163.231 212.649L166.341 190.192L167.819 183.082L170.637 178.129L173.289 184.718L174.559 190.748L179.308 206.464L181.507 212.555L186.577 224.811L188.456 228.596L191.134 237.999L197.584 257.703L199.784 263.015L201.881 268.482L204.533 274.034L211.112 285.517L215.357 292.158L217.821 295.844L224.494 304.786L228.828 310.102L233.464 315.266L237.976 319.862L242.355 323.928L246.853 327.7L251.401 331.154L255.944 334.254L260.446 337.021L264.877 339.467L269.372 341.696L276.036 344.585L282.871 347.097L289.592 349.192L296.289 350.968L302.997 352.485L311.969 354.176L320.934 355.552L323.212 355.86" stroke="#C2E5F9" stroke-width="2" stroke-linecap="square"/>
</g>
<mask id="mask9_1238_2817" style="mask-type:luminance" maskUnits="userSpaceOnUse" x="116" y="73" width="448" height="291">
<path d="M563.221 73.2453H116.821V363.165H563.221V73.2453Z" fill="white"/>
</mask>
<g mask="url(#mask9_1238_2817)">
<path d="M116.821 362.202H271.608" stroke="#C2E5F9" stroke-width="2" stroke-linecap="square"/>
</g>
<path d="M116.821 363.165V73.2453" stroke="black" stroke-width="1.06667" stroke-linecap="square"/>
<path d="M563.221 363.165V73.2453" stroke="black" stroke-width="1.06667" stroke-linecap="square"/>
<path d="M116.821 363.165H563.221" stroke="black" stroke-width="1.06667" stroke-linecap="square"/>
<path d="M116.821 73.2453H563.221" stroke="black" stroke-width="1.06667" stroke-linecap="square"/>
<path d="M30.96 345.472L44.064 340.864L30.96 336.304L30.96 332.824L48 339.28L48 342.472L30.96 348.952L30.96 345.472ZM48.24 327.173C48.24 328.197 48.072 329.117 47.736 329.933C47.384 330.749 46.904 331.445 46.296 332.021C45.688 332.581 44.992 333.013 44.208 333.317C43.424 333.621 42.6 333.773 41.736 333.773C40.856 333.773 40.024 333.621 39.24 333.317C38.456 333.013 37.76 332.581 37.152 332.021C36.544 331.445 36.072 330.749 35.736 329.933C35.384 329.117 35.208 328.197 35.208 327.173C35.208 326.149 35.384 325.237 35.736 324.437C36.072 323.621 36.544 322.925 37.152 322.349C37.76 321.773 38.456 321.341 39.24 321.053C40.024 320.749 40.856 320.597 41.736 320.597C42.6 320.597 43.424 320.749 44.208 321.053C44.992 321.341 45.688 321.773 46.296 322.349C46.904 322.909 47.384 323.597 47.736 324.413C48.072 325.229 48.24 326.149 48.24 327.173ZM41.736 330.461C42.472 330.461 43.128 330.317 43.704 330.029C44.264 329.741 44.704 329.349 45.024 328.853C45.344 328.357 45.504 327.797 45.504 327.173C45.504 326.565 45.344 326.013 45.024 325.517C44.688 325.021 44.24 324.629 43.68 324.341C43.104 324.037 42.448 323.885 41.712 323.885C40.992 323.885 40.344 324.037 39.768 324.341C39.192 324.629 38.744 325.021 38.424 325.517C38.104 326.013 37.944 326.565 37.944 327.173C37.944 327.797 38.112 328.357 38.448 328.853C38.768 329.349 39.216 329.741 39.792 330.029C40.352 330.317 41 330.461 41.736 330.461ZM48 306.739L48 309.955L40.944 309.955C39.936 309.955 39.2 310.131 38.736 310.483C38.272 310.835 38.04 311.323 38.04 311.947C38.04 312.379 38.152 312.819 38.376 313.267C38.6 313.699 38.912 314.091 39.312 314.443C39.696 314.795 40.144 315.051 40.656 315.211L48 315.211L48 318.427L35.424 318.427L35.424 315.523L37.752 315.523C37.208 315.203 36.752 314.795 36.384 314.299C36 313.803 35.712 313.235 35.52 312.595C35.312 311.939 35.208 311.251 35.208 310.531C35.208 309.747 35.352 309.107 35.64 308.611C35.912 308.099 36.288 307.715 36.768 307.459C37.232 307.187 37.76 307.003 38.352 306.907C38.944 306.795 39.544 306.739 40.152 306.739L48 306.739ZM37.056 294.553L48 294.553L48 297.865L30.96 297.865L30.96 295.225L42.192 286.417L30.984 286.417L30.984 283.105L48 283.105L48 285.865L37.056 294.553ZM48.24 274.251C48.24 275.259 48.072 276.171 47.736 276.987C47.384 277.803 46.912 278.499 46.32 279.075C45.712 279.651 45.024 280.099 44.256 280.419C43.472 280.723 42.648 280.875 41.784 280.875C40.584 280.875 39.488 280.611 38.496 280.083C37.504 279.539 36.712 278.771 36.12 277.779C35.512 276.771 35.208 275.587 35.208 274.227C35.208 272.851 35.512 271.675 36.12 270.699C36.712 269.723 37.504 268.979 38.496 268.467C39.472 267.939 40.528 267.675 41.664 267.675C41.856 267.675 42.056 267.683 42.264 267.699C42.456 267.715 42.616 267.731 42.744 267.747L42.744 277.467C43.384 277.403 43.944 277.219 44.424 276.915C44.904 276.595 45.272 276.195 45.528 275.715C45.768 275.219 45.888 274.691 45.888 274.131C45.888 273.491 45.736 272.891 45.432 272.331C45.112 271.755 44.696 271.363 44.184 271.155L44.952 268.395C45.592 268.699 46.16 269.139 46.656 269.715C47.152 270.275 47.544 270.939 47.832 271.707C48.104 272.475 48.24 273.323 48.24 274.251ZM40.704 277.539L40.704 270.963C40.064 271.027 39.512 271.211 39.048 271.515C38.568 271.803 38.2 272.187 37.944 272.667C37.672 273.147 37.536 273.683 37.536 274.275C37.536 274.851 37.672 275.379 37.944 275.859C38.2 276.323 38.568 276.707 39.048 277.011C39.512 277.299 40.064 277.475 40.704 277.539ZM43.296 265.836L35.424 265.836L35.424 262.62L42.6 262.62C43.56 262.62 44.288 262.444 44.784 262.092C45.264 261.74 45.504 261.22 45.504 260.532C45.504 260.116 45.424 259.708 45.264 259.308C45.088 258.892 44.832 258.516 44.496 258.18C44.16 257.828 43.736 257.532 43.224 257.292L35.424 257.292L35.424 254.076L44.4 254.076C44.736 254.076 44.976 254.02 45.12 253.908C45.264 253.78 45.352 253.58 45.384 253.308L48 253.308C48.048 253.628 48.08 253.9 48.096 254.124C48.128 254.332 48.144 254.524 48.144 254.7C48.144 255.276 48.016 255.748 47.76 256.116C47.488 256.468 47.12 256.676 46.656 256.74L45.648 256.812C46.496 257.372 47.144 258.092 47.592 258.972C48.024 259.852 48.24 260.82 48.24 261.876C48.24 263.172 47.824 264.156 46.992 264.828C46.144 265.5 44.912 265.836 43.296 265.836ZM48 231.344L48 234.56L40.944 234.56C39.952 234.56 39.224 234.736 38.76 235.088C38.28 235.424 38.04 235.896 38.04 236.504C38.04 237.128 38.288 237.728 38.784 238.304C39.264 238.864 39.896 239.264 40.68 239.504L48 239.504L48 242.72L40.944 242.72C39.936 242.72 39.2 242.896 38.736 243.248C38.272 243.584 38.04 244.056 38.04 244.664C38.04 245.288 38.28 245.888 38.76 246.464C39.24 247.024 39.872 247.424 40.656 247.664L48 247.664L48 250.88L35.424 250.88L35.424 247.976L37.752 247.976C36.936 247.496 36.312 246.856 35.88 246.056C35.432 245.256 35.208 244.336 35.208 243.296C35.208 242.256 35.464 241.448 35.976 240.872C36.488 240.28 37.12 239.904 37.872 239.744C37.008 239.232 36.352 238.584 35.904 237.8C35.44 237 35.208 236.104 35.208 235.112C35.208 234.328 35.352 233.696 35.64 233.216C35.912 232.72 36.288 232.336 36.768 232.064C37.232 231.792 37.76 231.608 38.352 231.512C38.944 231.4 39.544 231.344 40.152 231.344L48 231.344ZM44.28 229.408C43.464 229.408 42.752 229.184 42.144 228.736C41.52 228.272 41.04 227.632 40.704 226.816C40.368 226 40.2 225.064 40.2 224.008C40.2 223.48 40.24 222.944 40.32 222.4C40.4 221.856 40.528 221.384 40.704 220.984L40.032 220.984C39.232 220.984 38.616 221.224 38.184 221.704C37.752 222.168 37.536 222.864 37.536 223.792C37.536 224.48 37.656 225.136 37.896 225.76C38.136 226.384 38.488 227.04 38.952 227.728L36.84 228.76C36.296 227.928 35.888 227.08 35.616 226.216C35.344 225.336 35.208 224.416 35.208 223.456C35.208 221.664 35.656 220.272 36.552 219.28C37.448 218.272 38.728 217.768 40.392 217.768L44.4 217.768C44.736 217.768 44.976 217.712 45.12 217.6C45.264 217.472 45.352 217.272 45.384 217L48 217C48.048 217.288 48.088 217.552 48.12 217.792C48.152 218.016 48.168 218.208 48.168 218.368C48.168 219.008 48.024 219.496 47.736 219.832C47.448 220.152 47.096 220.352 46.68 220.432L46.032 220.504C46.736 221.048 47.28 221.728 47.664 222.544C48.048 223.36 48.24 224.192 48.24 225.04C48.24 225.872 48.072 226.624 47.736 227.296C47.384 227.952 46.912 228.472 46.32 228.856C45.712 229.224 45.032 229.408 44.28 229.408ZM44.928 221.584C44.736 221.408 44.544 221.264 44.352 221.152C44.16 221.04 43.984 220.984 43.824 220.984L42.552 220.984C42.392 221.368 42.272 221.784 42.192 222.232C42.096 222.68 42.048 223.104 42.048 223.504C42.048 224.336 42.232 225.024 42.6 225.568C42.952 226.096 43.424 226.36 44.016 226.36C44.336 226.36 44.64 226.272 44.928 226.096C45.216 225.92 45.448 225.664 45.624 225.328C45.8 224.992 45.888 224.592 45.888 224.128C45.888 223.648 45.8 223.176 45.624 222.712C45.432 222.248 45.2 221.872 44.928 221.584ZM48 203.075L48 206.291L40.944 206.291C39.936 206.291 39.2 206.467 38.736 206.819C38.272 207.171 38.04 207.659 38.04 208.283C38.04 208.715 38.152 209.155 38.376 209.603C38.6 210.035 38.912 210.427 39.312 210.779C39.696 211.131 40.144 211.387 40.656 211.547L48 211.547L48 214.763L35.424 214.763L35.424 211.859L37.752 211.859C37.208 211.539 36.752 211.131 36.384 210.635C36 210.139 35.712 209.571 35.52 208.931C35.312 208.275 35.208 207.587 35.208 206.867C35.208 206.083 35.352 205.443 35.64 204.947C35.912 204.435 36.288 204.051 36.768 203.795C37.232 203.523 37.76 203.339 38.352 203.243C38.944 203.131 39.544 203.075 40.152 203.075L48 203.075ZM48 188.59L48 191.806L40.944 191.806C39.936 191.806 39.2 191.982 38.736 192.334C38.272 192.686 38.04 193.174 38.04 193.798C38.04 194.23 38.152 194.67 38.376 195.118C38.6 195.55 38.912 195.942 39.312 196.294C39.696 196.646 40.144 196.902 40.656 197.062L48 197.062L48 200.278L35.424 200.278L35.424 197.374L37.752 197.374C37.208 197.054 36.752 196.646 36.384 196.15C36 195.654 35.712 195.086 35.52 194.446C35.312 193.79 35.208 193.102 35.208 192.382C35.208 191.598 35.352 190.958 35.64 190.462C35.912 189.95 36.288 189.566 36.768 189.31C37.232 189.038 37.76 188.854 38.352 188.758C38.944 188.646 39.544 188.59 40.152 188.59L48 188.59ZM48.24 174.196C48.24 175.204 48.072 176.116 47.736 176.932C47.384 177.748 46.912 178.444 46.32 179.02C45.712 179.596 45.024 180.044 44.256 180.364C43.472 180.668 42.648 180.82 41.784 180.82C40.584 180.82 39.488 180.556 38.496 180.028C37.504 179.484 36.712 178.716 36.12 177.724C35.512 176.716 35.208 175.532 35.208 174.172C35.208 172.796 35.512 171.62 36.12 170.644C36.712 169.668 37.504 168.924 38.496 168.412C39.472 167.884 40.528 167.62 41.664 167.62C41.856 167.62 42.056 167.628 42.264 167.644C42.456 167.66 42.616 167.676 42.744 167.692L42.744 177.412C43.384 177.348 43.944 177.164 44.424 176.86C44.904 176.54 45.272 176.14 45.528 175.66C45.768 175.164 45.888 174.636 45.888 174.076C45.888 173.436 45.736 172.836 45.432 172.276C45.112 171.7 44.696 171.308 44.184 171.1L44.952 168.34C45.592 168.644 46.16 169.084 46.656 169.66C47.152 170.22 47.544 170.884 47.832 171.652C48.104 172.42 48.24 173.268 48.24 174.196ZM40.704 177.484L40.704 170.908C40.064 170.972 39.512 171.156 39.048 171.46C38.568 171.748 38.2 172.132 37.944 172.612C37.672 173.092 37.536 173.628 37.536 174.22C37.536 174.796 37.672 175.324 37.944 175.804C38.2 176.268 38.568 176.652 39.048 176.956C39.512 177.244 40.064 177.42 40.704 177.484ZM48 153.973L48 157.189L40.944 157.189C39.936 157.189 39.2 157.365 38.736 157.717C38.272 158.069 38.04 158.557 38.04 159.181C38.04 159.613 38.152 160.053 38.376 160.501C38.6 160.933 38.912 161.325 39.312 161.677C39.696 162.029 40.144 162.285 40.656 162.445L48 162.445L48 165.661L35.424 165.661L35.424 162.757L37.752 162.757C37.208 162.437 36.752 162.029 36.384 161.533C36 161.037 35.712 160.469 35.52 159.829C35.312 159.173 35.208 158.485 35.208 157.765C35.208 156.981 35.352 156.341 35.64 155.845C35.912 155.333 36.288 154.949 36.768 154.693C37.232 154.421 37.76 154.237 38.352 154.141C38.944 154.029 39.544 153.973 40.152 153.973L48 153.973ZM47.352 143.711C47.464 143.983 47.592 144.311 47.736 144.695C47.88 145.079 47.992 145.495 48.072 145.943C48.168 146.375 48.216 146.815 48.216 147.263C48.216 147.855 48.112 148.399 47.904 148.895C47.696 149.391 47.368 149.791 46.92 150.095C46.456 150.383 45.856 150.527 45.12 150.527L37.896 150.527L37.896 152.183L35.424 152.183L35.424 150.527L31.344 150.527L31.344 147.311L35.424 147.311L35.424 144.671L37.896 144.671L37.896 147.311L44.04 147.311C44.472 147.295 44.784 147.175 44.976 146.951C45.168 146.727 45.264 146.447 45.264 146.111C45.264 145.775 45.208 145.447 45.096 145.127C44.984 144.807 44.888 144.551 44.808 144.359L47.352 143.711ZM38.208 134.548C38.208 135.524 38.4 136.396 38.784 137.164C39.152 137.932 39.688 138.484 40.392 138.82L48 138.82L48 142.036L35.424 142.036L35.424 139.084L38.112 139.084C37.248 138.636 36.568 138.068 36.072 137.38C35.576 136.692 35.304 135.964 35.256 135.196C35.256 135.02 35.256 134.884 35.256 134.788C35.256 134.692 35.264 134.612 35.28 134.548L38.208 134.548ZM48.24 127.111C48.24 128.135 48.072 129.055 47.736 129.871C47.384 130.687 46.904 131.383 46.296 131.959C45.688 132.519 44.992 132.951 44.208 133.255C43.424 133.559 42.6 133.711 41.736 133.711C40.856 133.711 40.024 133.559 39.24 133.255C38.456 132.951 37.76 132.519 37.152 131.959C36.544 131.383 36.072 130.687 35.736 129.871C35.384 129.055 35.208 128.135 35.208 127.111C35.208 126.087 35.384 125.175 35.736 124.375C36.072 123.559 36.544 122.863 37.152 122.287C37.76 121.711 38.456 121.279 39.24 120.991C40.024 120.687 40.856 120.535 41.736 120.535C42.6 120.535 43.424 120.687 44.208 120.991C44.992 121.279 45.688 121.711 46.296 122.287C46.904 122.847 47.384 123.535 47.736 124.351C48.072 125.167 48.24 126.087 48.24 127.111ZM41.736 130.399C42.472 130.399 43.128 130.255 43.704 129.967C44.264 129.679 44.704 129.287 45.024 128.791C45.344 128.295 45.504 127.735 45.504 127.111C45.504 126.503 45.344 125.951 45.024 125.455C44.688 124.959 44.24 124.567 43.68 124.279C43.104 123.975 42.448 123.823 41.712 123.823C40.992 123.823 40.344 123.975 39.768 124.279C39.192 124.567 38.744 124.959 38.424 125.455C38.104 125.951 37.944 126.503 37.944 127.111C37.944 127.735 38.112 128.295 38.448 128.791C38.768 129.287 39.216 129.679 39.792 129.967C40.352 130.255 41 130.399 41.736 130.399ZM48.24 110.828C48.24 111.804 48.024 112.668 47.592 113.42C47.144 114.156 46.544 114.732 45.792 115.148L53.112 115.148L53.112 118.364L35.424 118.364L35.424 115.556L37.584 115.556C36.848 115.076 36.272 114.468 35.856 113.732C35.424 112.996 35.208 112.156 35.208 111.212C35.208 110.364 35.376 109.588 35.712 108.884C36.048 108.164 36.52 107.54 37.128 107.012C37.72 106.484 38.408 106.076 39.192 105.788C39.96 105.484 40.792 105.332 41.688 105.332C42.904 105.332 44.008 105.572 45 106.052C45.992 106.516 46.784 107.164 47.376 107.996C47.952 108.812 48.24 109.756 48.24 110.828ZM45.504 111.908C45.504 111.412 45.4 110.964 45.192 110.564C44.984 110.164 44.704 109.82 44.352 109.532C43.984 109.228 43.576 109.004 43.128 108.86C42.664 108.7 42.184 108.62 41.688 108.62C41.16 108.62 40.672 108.708 40.224 108.884C39.776 109.044 39.384 109.284 39.048 109.604C38.696 109.924 38.424 110.3 38.232 110.732C38.04 111.148 37.944 111.604 37.944 112.1C37.944 112.404 38 112.716 38.112 113.036C38.208 113.34 38.352 113.636 38.544 113.924C38.736 114.212 38.96 114.468 39.216 114.692C39.472 114.9 39.752 115.052 40.056 115.148L43.008 115.148C43.472 114.956 43.896 114.7 44.28 114.38C44.664 114.044 44.968 113.66 45.192 113.228C45.4 112.796 45.504 112.356 45.504 111.908ZM50.448 103.311C50.512 103.023 50.568 102.759 50.616 102.519C50.664 102.263 50.688 102.047 50.688 101.871C50.688 101.567 50.608 101.319 50.448 101.127C50.304 100.919 50.032 100.719 49.632 100.527C49.248 100.335 48.704 100.135 48 99.9271L35.424 104.895L35.424 101.559L44.712 98.1751L35.424 95.1991L35.424 92.1271L50.496 97.4071C51.056 97.5991 51.56 97.8951 52.008 98.2951C52.472 98.6791 52.832 99.1671 53.088 99.7591C53.36 100.335 53.496 100.983 53.496 101.703C53.496 101.959 53.472 102.215 53.424 102.471C53.392 102.727 53.328 103.007 53.232 103.311L50.448 103.311Z" fill="black"/>
<path d="M223.088 399.056V410H219.776V392.96H222.416L231.224 404.192V392.984H234.536V410H231.776L223.088 399.056ZM237.649 405.296V397.424H240.865V404.6C240.865 405.56 241.041 406.288 241.393 406.784C241.745 407.264 242.265 407.504 242.953 407.504C243.369 407.504 243.777 407.424 244.177 407.264C244.593 407.088 244.969 406.832 245.305 406.496C245.657 406.16 245.953 405.736 246.193 405.224V397.424H249.409V406.4C249.409 406.736 249.465 406.976 249.577 407.12C249.705 407.264 249.905 407.352 250.177 407.384V410C249.857 410.048 249.585 410.08 249.361 410.096C249.153 410.128 248.961 410.144 248.785 410.144C248.209 410.144 247.737 410.016 247.369 409.76C247.017 409.488 246.809 409.12 246.745 408.656L246.673 407.648C246.113 408.496 245.393 409.144 244.513 409.592C243.633 410.024 242.665 410.24 241.609 410.24C240.313 410.24 239.329 409.824 238.657 408.992C237.985 408.144 237.649 406.912 237.649 405.296ZM272.141 410H268.925V402.944C268.925 401.952 268.749 401.224 268.397 400.76C268.061 400.28 267.589 400.04 266.981 400.04C266.357 400.04 265.757 400.288 265.181 400.784C264.621 401.264 264.221 401.896 263.981 402.68V410H260.765V402.944C260.765 401.936 260.589 401.2 260.237 400.736C259.901 400.272 259.429 400.04 258.821 400.04C258.197 400.04 257.597 400.28 257.021 400.76C256.461 401.24 256.061 401.872 255.821 402.656V410H252.605V397.424H255.509V399.752C255.989 398.936 256.629 398.312 257.429 397.88C258.229 397.432 259.149 397.208 260.189 397.208C261.229 397.208 262.037 397.464 262.613 397.976C263.205 398.488 263.581 399.12 263.741 399.872C264.253 399.008 264.901 398.352 265.685 397.904C266.485 397.44 267.381 397.208 268.373 397.208C269.157 397.208 269.789 397.352 270.269 397.64C270.765 397.912 271.149 398.288 271.421 398.768C271.693 399.232 271.877 399.76 271.973 400.352C272.085 400.944 272.141 401.544 272.141 402.152V410ZM282.093 410.24C281.133 410.24 280.277 410.024 279.525 409.592C278.773 409.16 278.181 408.568 277.749 407.816V410H274.941V392.48H278.157V399.632C278.605 398.88 279.189 398.288 279.909 397.856C280.645 397.424 281.501 397.208 282.477 397.208C283.293 397.208 284.037 397.384 284.709 397.736C285.381 398.072 285.957 398.544 286.437 399.152C286.933 399.76 287.309 400.456 287.565 401.24C287.837 402.024 287.973 402.864 287.973 403.76C287.973 404.656 287.821 405.496 287.517 406.28C287.229 407.064 286.821 407.76 286.293 408.368C285.765 408.96 285.141 409.424 284.421 409.76C283.717 410.08 282.941 410.24 282.093 410.24ZM281.205 407.504C281.717 407.504 282.181 407.408 282.597 407.216C283.029 407.008 283.397 406.736 283.701 406.4C284.021 406.064 284.261 405.672 284.421 405.224C284.597 404.76 284.685 404.28 284.685 403.784C284.685 403.096 284.541 402.464 284.253 401.888C283.981 401.296 283.597 400.824 283.101 400.472C282.621 400.12 282.053 399.944 281.397 399.944C280.933 399.944 280.485 400.056 280.053 400.28C279.637 400.488 279.261 400.776 278.925 401.144C278.605 401.512 278.349 401.928 278.157 402.392V405.392C278.253 405.712 278.405 406 278.613 406.256C278.837 406.512 279.093 406.736 279.381 406.928C279.669 407.104 279.965 407.248 280.269 407.36C280.589 407.456 280.901 407.504 281.205 407.504ZM295.984 410.24C294.976 410.24 294.064 410.072 293.248 409.736C292.432 409.384 291.736 408.912 291.16 408.32C290.584 407.712 290.136 407.024 289.816 406.256C289.512 405.472 289.36 404.648 289.36 403.784C289.36 402.584 289.624 401.488 290.152 400.496C290.696 399.504 291.464 398.712 292.456 398.12C293.464 397.512 294.648 397.208 296.008 397.208C297.384 397.208 298.56 397.512 299.536 398.12C300.512 398.712 301.256 399.504 301.768 400.496C302.296 401.472 302.56 402.528 302.56 403.664C302.56 403.856 302.552 404.056 302.536 404.264C302.52 404.456 302.504 404.616 302.488 404.744H292.768C292.832 405.384 293.016 405.944 293.32 406.424C293.64 406.904 294.04 407.272 294.52 407.528C295.016 407.768 295.544 407.888 296.104 407.888C296.744 407.888 297.344 407.736 297.904 407.432C298.48 407.112 298.872 406.696 299.08 406.184L301.84 406.952C301.536 407.592 301.096 408.16 300.52 408.656C299.96 409.152 299.296 409.544 298.528 409.832C297.76 410.104 296.912 410.24 295.984 410.24ZM292.696 402.704H299.272C299.208 402.064 299.024 401.512 298.72 401.048C298.432 400.568 298.048 400.2 297.568 399.944C297.088 399.672 296.552 399.536 295.96 399.536C295.384 399.536 294.856 399.672 294.376 399.944C293.912 400.2 293.528 400.568 293.224 401.048C292.936 401.512 292.76 402.064 292.696 402.704ZM312.007 400.208C311.031 400.208 310.159 400.4 309.391 400.784C308.623 401.152 308.071 401.688 307.735 402.392V410H304.519V397.424H307.471V400.112C307.919 399.248 308.487 398.568 309.175 398.072C309.863 397.576 310.591 397.304 311.359 397.256C311.535 397.256 311.671 397.256 311.767 397.256C311.863 397.256 311.943 397.264 312.007 397.28V400.208ZM324.835 410.24C323.811 410.24 322.891 410.072 322.075 409.736C321.259 409.384 320.563 408.904 319.987 408.296C319.427 407.688 318.995 406.992 318.691 406.208C318.387 405.424 318.235 404.6 318.235 403.736C318.235 402.856 318.387 402.024 318.691 401.24C318.995 400.456 319.427 399.76 319.987 399.152C320.563 398.544 321.259 398.072 322.075 397.736C322.891 397.384 323.811 397.208 324.835 397.208C325.859 397.208 326.771 397.384 327.571 397.736C328.387 398.072 329.083 398.544 329.659 399.152C330.235 399.76 330.667 400.456 330.955 401.24C331.259 402.024 331.411 402.856 331.411 403.736C331.411 404.6 331.259 405.424 330.955 406.208C330.667 406.992 330.235 407.688 329.659 408.296C329.099 408.904 328.411 409.384 327.595 409.736C326.779 410.072 325.859 410.24 324.835 410.24ZM321.547 403.736C321.547 404.472 321.691 405.128 321.979 405.704C322.267 406.264 322.659 406.704 323.155 407.024C323.651 407.344 324.211 407.504 324.835 407.504C325.443 407.504 325.995 407.344 326.491 407.024C326.987 406.688 327.379 406.24 327.667 405.68C327.971 405.104 328.123 404.448 328.123 403.712C328.123 402.992 327.971 402.344 327.667 401.768C327.379 401.192 326.987 400.744 326.491 400.424C325.995 400.104 325.443 399.944 324.835 399.944C324.211 399.944 323.651 400.112 323.155 400.448C322.659 400.768 322.267 401.216 321.979 401.792C321.691 402.352 321.547 403 321.547 403.736ZM334.232 410V400.544H332.576V398.096H334.232V397.328C334.232 396.288 334.4 395.392 334.736 394.64C335.088 393.872 335.576 393.28 336.2 392.864C336.84 392.448 337.584 392.24 338.432 392.24C338.944 392.24 339.456 392.304 339.968 392.432C340.496 392.56 341.016 392.744 341.528 392.984L340.88 395.408C340.64 395.28 340.36 395.176 340.04 395.096C339.72 395 339.416 394.952 339.128 394.952C338.584 394.952 338.168 395.144 337.88 395.528C337.592 395.912 337.448 396.472 337.448 397.208V398.096H340.52V400.544H337.448V410H334.232ZM346.877 401.36C346.877 400.32 347.061 399.304 347.429 398.312C347.813 397.304 348.365 396.392 349.085 395.576C349.805 394.744 350.685 394.088 351.725 393.608C352.765 393.112 353.949 392.864 355.277 392.864C356.845 392.864 358.197 393.208 359.333 393.896C360.485 394.584 361.341 395.48 361.901 396.584L359.357 398.336C359.069 397.696 358.693 397.192 358.229 396.824C357.765 396.44 357.269 396.176 356.741 396.032C356.213 395.872 355.693 395.792 355.181 395.792C354.349 395.792 353.621 395.96 352.997 396.296C352.389 396.632 351.877 397.072 351.461 397.616C351.045 398.16 350.733 398.768 350.525 399.44C350.333 400.112 350.237 400.784 350.237 401.456C350.237 402.208 350.357 402.936 350.597 403.64C350.837 404.328 351.173 404.944 351.605 405.488C352.053 406.016 352.581 406.44 353.189 406.76C353.813 407.064 354.493 407.216 355.229 407.216C355.757 407.216 356.293 407.128 356.837 406.952C357.381 406.776 357.885 406.496 358.349 406.112C358.813 405.728 359.173 405.232 359.429 404.624L362.141 406.184C361.805 407.032 361.253 407.752 360.485 408.344C359.733 408.936 358.885 409.384 357.941 409.688C356.997 409.992 356.061 410.144 355.133 410.144C353.917 410.144 352.805 409.896 351.797 409.4C350.789 408.888 349.917 408.216 349.181 407.384C348.461 406.536 347.893 405.592 347.477 404.552C347.077 403.496 346.877 402.432 346.877 401.36ZM364.314 412.448C364.602 412.512 364.866 412.568 365.106 412.616C365.362 412.664 365.578 412.688 365.754 412.688C366.058 412.688 366.306 412.608 366.498 412.448C366.706 412.304 366.906 412.032 367.098 411.632C367.29 411.248 367.49 410.704 367.698 410L362.73 397.424H366.066L369.45 406.712L372.426 397.424H375.498L370.218 412.496C370.026 413.056 369.73 413.56 369.33 414.008C368.946 414.472 368.458 414.832 367.866 415.088C367.29 415.36 366.642 415.496 365.922 415.496C365.666 415.496 365.41 415.472 365.154 415.424C364.898 415.392 364.618 415.328 364.314 415.232V412.448ZM382.679 410.24C381.655 410.24 380.735 410.072 379.919 409.736C379.103 409.384 378.407 408.904 377.831 408.296C377.255 407.672 376.807 406.968 376.487 406.184C376.183 405.4 376.031 404.576 376.031 403.712C376.031 402.528 376.295 401.448 376.823 400.472C377.367 399.48 378.135 398.688 379.127 398.096C380.119 397.504 381.295 397.208 382.655 397.208C384.015 397.208 385.183 397.504 386.159 398.096C387.135 398.688 387.863 399.464 388.343 400.424L385.199 401.384C384.927 400.92 384.567 400.568 384.119 400.328C383.671 400.072 383.175 399.944 382.631 399.944C382.023 399.944 381.463 400.104 380.951 400.424C380.455 400.728 380.063 401.168 379.775 401.744C379.487 402.304 379.343 402.96 379.343 403.712C379.343 404.448 379.487 405.104 379.775 405.68C380.079 406.24 380.479 406.688 380.975 407.024C381.471 407.344 382.023 407.504 382.631 407.504C383.015 407.504 383.375 407.44 383.711 407.312C384.063 407.184 384.375 407.008 384.647 406.784C384.919 406.56 385.119 406.304 385.247 406.016L388.391 406.976C388.103 407.6 387.679 408.16 387.119 408.656C386.575 409.152 385.927 409.544 385.175 409.832C384.439 410.104 383.607 410.24 382.679 410.24ZM390.346 392.48H393.562V405.968C393.562 406.544 393.658 406.936 393.85 407.144C394.042 407.336 394.306 407.432 394.642 407.432C394.898 407.432 395.162 407.4 395.434 407.336C395.706 407.272 395.946 407.192 396.154 407.096L396.586 409.544C396.154 409.752 395.65 409.912 395.074 410.024C394.498 410.136 393.978 410.192 393.514 410.192C392.506 410.192 391.722 409.928 391.162 409.4C390.618 408.856 390.346 408.088 390.346 407.096V392.48ZM403.819 410.24C402.811 410.24 401.899 410.072 401.083 409.736C400.267 409.384 399.571 408.912 398.995 408.32C398.419 407.712 397.971 407.024 397.651 406.256C397.347 405.472 397.195 404.648 397.195 403.784C397.195 402.584 397.459 401.488 397.987 400.496C398.531 399.504 399.299 398.712 400.291 398.12C401.299 397.512 402.483 397.208 403.843 397.208C405.219 397.208 406.395 397.512 407.371 398.12C408.347 398.712 409.091 399.504 409.603 400.496C410.131 401.472 410.395 402.528 410.395 403.664C410.395 403.856 410.387 404.056 410.371 404.264C410.355 404.456 410.339 404.616 410.323 404.744L400.603 404.744C400.667 405.384 400.851 405.944 401.155 406.424C401.475 406.904 401.875 407.272 402.355 407.528C402.851 407.768 403.379 407.888 403.939 407.888C404.579 407.888 405.179 407.736 405.739 407.432C406.315 407.112 406.707 406.696 406.915 406.184L409.675 406.952C409.371 407.592 408.931 408.16 408.355 408.656C407.795 409.152 407.131 409.544 406.363 409.832C405.595 410.104 404.747 410.24 403.819 410.24ZM400.531 402.704H407.107C407.043 402.064 406.859 401.512 406.555 401.048C406.267 400.568 405.883 400.2 405.403 399.944C404.923 399.672 404.387 399.536 403.795 399.536C403.219 399.536 402.691 399.672 402.211 399.944C401.747 400.2 401.363 400.568 401.059 401.048C400.771 401.512 400.595 402.064 400.531 402.704ZM416.987 410.24C415.915 410.24 414.891 410.064 413.915 409.712C412.939 409.36 412.099 408.84 411.395 408.152L412.547 406.064C413.299 406.672 414.035 407.12 414.755 407.408C415.491 407.696 416.195 407.84 416.867 407.84C417.491 407.84 417.987 407.728 418.355 407.504C418.739 407.28 418.931 406.944 418.931 406.496C418.931 406.192 418.827 405.96 418.619 405.8C418.411 405.624 418.107 405.472 417.707 405.344C417.323 405.216 416.851 405.072 416.291 404.912C415.363 404.608 414.587 404.312 413.963 404.024C413.339 403.736 412.867 403.376 412.547 402.944C412.243 402.496 412.091 401.928 412.091 401.24C412.091 400.408 412.299 399.696 412.715 399.104C413.147 398.496 413.739 398.024 414.491 397.688C415.259 397.352 416.155 397.184 417.179 397.184C418.075 397.184 418.923 397.328 419.723 397.616C420.523 397.888 421.251 398.336 421.907 398.96L420.611 401C419.971 400.504 419.363 400.144 418.787 399.92C418.211 399.68 417.627 399.56 417.035 399.56C416.699 399.56 416.379 399.6 416.075 399.68C415.787 399.76 415.547 399.896 415.355 400.088C415.179 400.264 415.091 400.52 415.091 400.856C415.091 401.16 415.171 401.4 415.331 401.576C415.507 401.736 415.763 401.88 416.099 402.008C416.451 402.136 416.875 402.28 417.371 402.44C418.379 402.728 419.227 403.024 419.915 403.328C420.619 403.632 421.147 404.008 421.499 404.456C421.851 404.888 422.027 405.488 422.027 406.256C422.027 407.504 421.571 408.48 420.659 409.184C419.747 409.888 418.523 410.24 416.987 410.24Z" fill="black"/>
</svg>
