<svg width="640" height="440" viewBox="0 0 640 440" fill="none" xmlns="http://www.w3.org/2000/svg">
<rect x="0.5" y="0.5" width="639" height="439" fill="#F6F3ED"/>
<rect x="0.5" y="0.5" width="639" height="439" stroke="#E0DBC8"/>
<path d="M120.829 353.165H567.229V63.2453H120.829V353.165Z" fill="white"/>
<mask id="mask0_1238_4818" style="mask-type:luminance" maskUnits="userSpaceOnUse" x="120" y="63" width="448" height="291">
<path d="M567.229 63.2453H120.829V353.165H567.229V63.2453Z" fill="white"/>
</mask>
<g mask="url(#mask0_1238_4818)">
<path d="M120.829 316.925V353.165H567.229V316.925H120.829Z" fill="black" fill-opacity="0.3" stroke="black" stroke-opacity="0.3" stroke-width="1.33333"/>
</g>
<path d="M120.829 353.165V357.832V353.165Z" fill="black"/>
<path d="M120.829 353.165V357.832" stroke="black" stroke-width="1.06667"/>
<path d="M105.71 375.899H108.932V364.774L105.426 365.477V363.681L108.914 362.977H110.885V375.899H114.107V377.559H105.71V375.899Z" fill="black"/>
<path d="M122.31 364.277C121.295 364.277 120.532 364.777 120.019 365.777C119.509 366.775 119.254 368.277 119.254 370.284C119.254 372.282 119.509 373.781 120.019 374.781C120.532 375.781 121.295 376.281 122.31 376.281C123.333 376.281 124.1 375.781 124.61 374.781C125.123 373.781 125.379 372.282 125.379 370.284C125.379 368.277 125.123 366.775 124.61 365.777C124.1 364.777 123.333 364.277 122.31 364.277ZM122.31 362.715C123.945 362.715 125.194 363.362 126.057 364.656C126.919 365.947 127.351 367.823 127.351 370.284C127.351 372.738 126.919 374.612 126.057 375.906C125.194 377.197 123.945 377.843 122.31 377.843C120.677 377.843 119.429 377.197 118.566 375.906C117.704 374.612 117.273 372.738 117.273 370.284C117.273 367.823 117.704 365.947 118.566 364.656C119.429 363.362 120.677 362.715 122.31 362.715Z" fill="black"/>
<path d="M130.607 368.741H132.862V360.953L130.408 361.446V360.188L132.849 359.696H134.229V368.741H136.484V369.902H130.607V368.741Z" fill="black"/>
<path d="M224.618 353.165V357.832V353.165Z" fill="black"/>
<path d="M224.618 353.165V357.832" stroke="black" stroke-width="1.06667"/>
<path d="M328.407 353.165V357.832V353.165Z" fill="black"/>
<path d="M328.407 353.165V357.832" stroke="black" stroke-width="1.06667"/>
<path d="M432.196 353.165V357.832V353.165Z" fill="black"/>
<path d="M432.196 353.165V357.832" stroke="black" stroke-width="1.06667"/>
<path d="M535.986 353.165V357.832V353.165Z" fill="black"/>
<path d="M535.986 353.165V357.832" stroke="black" stroke-width="1.06667"/>
<path d="M520.867 375.899H524.089V364.774L520.582 365.477V363.681L524.07 362.977H526.042V375.899H529.264V377.559H520.867V375.899Z" fill="black"/>
<path d="M537.466 364.277C536.452 364.277 535.688 364.777 535.176 365.777C534.665 366.775 534.41 368.277 534.41 370.284C534.41 372.282 534.665 373.781 535.176 374.781C535.688 375.781 536.452 376.281 537.466 376.281C538.489 376.281 539.256 375.781 539.766 374.781C540.279 373.781 540.535 372.282 540.535 370.284C540.535 368.277 540.279 366.775 539.766 365.777C539.256 364.777 538.489 364.277 537.466 364.277ZM537.466 362.715C539.102 362.715 540.351 363.362 541.213 364.656C542.076 365.947 542.507 367.823 542.507 370.284C542.507 372.738 542.076 374.612 541.213 375.906C540.351 377.197 539.102 377.843 537.466 377.843C535.833 377.843 534.585 377.197 533.723 375.906C532.86 374.612 532.429 372.738 532.429 370.284C532.429 367.823 532.86 365.947 533.723 364.656C534.585 363.362 535.833 362.715 537.466 362.715Z" fill="black"/>
<path d="M545.538 359.696H550.958V360.859H546.802V363.36C547.002 363.291 547.202 363.24 547.401 363.206C547.603 363.173 547.804 363.156 548.005 363.156C549.144 363.156 550.046 363.468 550.711 364.092C551.378 364.717 551.711 365.562 551.711 366.628C551.711 367.726 551.369 368.58 550.685 369.189C550.001 369.797 549.037 370.101 547.793 370.101C547.364 370.101 546.928 370.065 546.483 369.992C546.039 369.919 545.581 369.81 545.107 369.664V368.275C545.517 368.498 545.94 368.664 546.378 368.774C546.815 368.883 547.278 368.938 547.765 368.938C548.554 368.938 549.178 368.731 549.637 368.316C550.098 367.902 550.328 367.339 550.328 366.628C550.328 365.917 550.098 365.355 549.637 364.941C549.178 364.526 548.554 364.318 547.765 364.318C547.396 364.318 547.027 364.359 546.66 364.44C546.294 364.522 545.92 364.649 545.538 364.823V359.696Z" fill="black"/>
<path d="M152.073 353.165V355.832V353.165Z" fill="black"/>
<path d="M152.073 353.165V355.832" stroke="black" stroke-width="0.8"/>
<path d="M170.349 353.165V355.832V353.165Z" fill="black"/>
<path d="M170.349 353.165V355.832" stroke="black" stroke-width="0.8"/>
<path d="M183.316 353.165V355.832V353.165Z" fill="black"/>
<path d="M183.316 353.165V355.832" stroke="black" stroke-width="0.8"/>
<path d="M193.375 353.165V355.832V353.165Z" fill="black"/>
<path d="M193.375 353.165V355.832" stroke="black" stroke-width="0.8"/>
<path d="M201.593 353.165V355.832V353.165Z" fill="black"/>
<path d="M201.593 353.165V355.832" stroke="black" stroke-width="0.8"/>
<path d="M208.541 353.165V355.832V353.165Z" fill="black"/>
<path d="M208.541 353.165V355.832" stroke="black" stroke-width="0.8"/>
<path d="M214.56 353.165V355.832V353.165Z" fill="black"/>
<path d="M214.56 353.165V355.832" stroke="black" stroke-width="0.8"/>
<path d="M219.869 353.165V355.832V353.165Z" fill="black"/>
<path d="M219.869 353.165V355.832" stroke="black" stroke-width="0.8"/>
<path d="M255.862 353.165V355.832V353.165Z" fill="black"/>
<path d="M255.862 353.165V355.832" stroke="black" stroke-width="0.8"/>
<path d="M274.138 353.165V355.832V353.165Z" fill="black"/>
<path d="M274.138 353.165V355.832" stroke="black" stroke-width="0.8"/>
<path d="M287.106 353.165V355.832V353.165Z" fill="black"/>
<path d="M287.106 353.165V355.832" stroke="black" stroke-width="0.8"/>
<path d="M297.164 353.165V355.832V353.165Z" fill="black"/>
<path d="M297.164 353.165V355.832" stroke="black" stroke-width="0.8"/>
<path d="M305.382 353.165V355.832V353.165Z" fill="black"/>
<path d="M305.382 353.165V355.832" stroke="black" stroke-width="0.8"/>
<path d="M312.33 353.165V355.832V353.165Z" fill="black"/>
<path d="M312.33 353.165V355.832" stroke="black" stroke-width="0.8"/>
<path d="M318.349 353.165V355.832V353.165Z" fill="black"/>
<path d="M318.349 353.165V355.832" stroke="black" stroke-width="0.8"/>
<path d="M323.658 353.165V355.832V353.165Z" fill="black"/>
<path d="M323.658 353.165V355.832" stroke="black" stroke-width="0.8"/>
<path d="M359.651 353.165V355.832V353.165Z" fill="black"/>
<path d="M359.651 353.165V355.832" stroke="black" stroke-width="0.8"/>
<path d="M377.927 353.165V355.832V353.165Z" fill="black"/>
<path d="M377.927 353.165V355.832" stroke="black" stroke-width="0.8"/>
<path d="M390.895 353.165V355.832V353.165Z" fill="black"/>
<path d="M390.895 353.165V355.832" stroke="black" stroke-width="0.8"/>
<path d="M400.953 353.165V355.832V353.165Z" fill="black"/>
<path d="M400.953 353.165V355.832" stroke="black" stroke-width="0.8"/>
<path d="M409.171 353.165V355.832V353.165Z" fill="black"/>
<path d="M409.171 353.165V355.832" stroke="black" stroke-width="0.8"/>
<path d="M416.119 353.165V355.832V353.165Z" fill="black"/>
<path d="M416.119 353.165V355.832" stroke="black" stroke-width="0.8"/>
<path d="M422.138 353.165V355.832V353.165Z" fill="black"/>
<path d="M422.138 353.165V355.832" stroke="black" stroke-width="0.8"/>
<path d="M427.447 353.165V355.832V353.165Z" fill="black"/>
<path d="M427.447 353.165V355.832" stroke="black" stroke-width="0.8"/>
<path d="M463.44 353.165V355.832V353.165Z" fill="black"/>
<path d="M463.44 353.165V355.832" stroke="black" stroke-width="0.8"/>
<path d="M481.716 353.165V355.832V353.165Z" fill="black"/>
<path d="M481.716 353.165V355.832" stroke="black" stroke-width="0.8"/>
<path d="M494.684 353.165V355.832V353.165Z" fill="black"/>
<path d="M494.684 353.165V355.832" stroke="black" stroke-width="0.8"/>
<path d="M504.742 353.165V355.832V353.165Z" fill="black"/>
<path d="M504.742 353.165V355.832" stroke="black" stroke-width="0.8"/>
<path d="M512.96 353.165V355.832V353.165Z" fill="black"/>
<path d="M512.96 353.165V355.832" stroke="black" stroke-width="0.8"/>
<path d="M519.908 353.165V355.832V353.165Z" fill="black"/>
<path d="M519.908 353.165V355.832" stroke="black" stroke-width="0.8"/>
<path d="M525.927 353.165V355.832V353.165Z" fill="black"/>
<path d="M525.927 353.165V355.832" stroke="black" stroke-width="0.8"/>
<path d="M531.236 353.165V355.832V353.165Z" fill="black"/>
<path d="M531.236 353.165V355.832" stroke="black" stroke-width="0.8"/>
<path d="M567.229 353.165V355.832V353.165Z" fill="black"/>
<path d="M567.229 353.165V355.832" stroke="black" stroke-width="0.8"/>
<path d="M120.829 353.165H116.163H120.829Z" fill="black"/>
<path d="M120.829 353.165H116.163" stroke="black" stroke-width="1.06667"/>
<path d="M86.0458 347.483C85.0313 347.483 84.2677 347.983 83.7552 348.983C83.2448 349.981 82.9896 351.483 82.9896 353.489C82.9896 355.487 83.2448 356.986 83.7552 357.986C84.2677 358.986 85.0313 359.486 86.0458 359.486C87.0688 359.486 87.8354 358.986 88.3458 357.986C88.8583 356.986 89.1146 355.487 89.1146 353.489C89.1146 351.483 88.8583 349.981 88.3458 348.983C87.8354 347.983 87.0688 347.483 86.0458 347.483ZM86.0458 345.92C87.6813 345.92 88.9302 346.567 89.7927 347.861C90.6552 349.152 91.0865 351.028 91.0865 353.489C91.0865 355.943 90.6552 357.817 89.7927 359.111C88.9302 360.402 87.6813 361.048 86.0458 361.048C84.4125 361.048 83.1646 360.402 82.3021 359.111C81.4396 357.817 81.0083 355.943 81.0083 353.489C81.0083 351.028 81.4396 349.152 82.3021 347.861C83.1646 346.567 84.4125 345.92 86.0458 345.92Z" fill="black"/>
<path d="M94.5517 358.283H96.6142V360.764H94.5517V358.283Z" fill="black"/>
<path d="M105.128 347.483C104.113 347.483 103.35 347.983 102.837 348.983C102.327 349.981 102.072 351.483 102.072 353.489C102.072 355.487 102.327 356.986 102.837 357.986C103.35 358.986 104.113 359.486 105.128 359.486C106.151 359.486 106.917 358.986 107.428 357.986C107.94 356.986 108.197 355.487 108.197 353.489C108.197 351.483 107.94 349.981 107.428 348.983C106.917 347.983 106.151 347.483 105.128 347.483ZM105.128 345.92C106.763 345.92 108.012 346.567 108.875 347.861C109.737 349.152 110.168 351.028 110.168 353.489C110.168 355.943 109.737 357.817 108.875 359.111C108.012 360.402 106.763 361.048 105.128 361.048C103.495 361.048 102.247 360.402 101.384 359.111C100.522 357.817 100.09 355.943 100.09 353.489C100.09 351.028 100.522 349.152 101.384 347.861C102.247 346.567 103.495 345.92 105.128 345.92Z" fill="black"/>
<path d="M120.829 295.181H116.163H120.829Z" fill="black"/>
<path d="M120.829 295.181H116.163" stroke="black" stroke-width="1.06667"/>
<path d="M120.829 237.197H116.163H120.829Z" fill="black"/>
<path d="M120.829 237.197H116.163" stroke="black" stroke-width="1.06667"/>
<path d="M120.829 179.213H116.163H120.829Z" fill="black"/>
<path d="M120.829 179.213H116.163" stroke="black" stroke-width="1.06667"/>
<path d="M120.829 121.229H116.163H120.829Z" fill="black"/>
<path d="M120.829 121.229H116.163" stroke="black" stroke-width="1.06667"/>
<path d="M120.829 63.2453H116.163H120.829Z" fill="black"/>
<path d="M120.829 63.2453H116.163" stroke="black" stroke-width="1.06667"/>
<path d="M82.1708 69.1844H85.3927V58.0594L81.8865 58.7625V56.9656L85.374 56.2625H87.3458V69.1844H90.5677V70.8438H82.1708V69.1844Z" fill="black"/>
<path d="M94.5517 68.3625H96.6142V70.8438H94.5517V68.3625Z" fill="black"/>
<path d="M105.128 57.5625C104.113 57.5625 103.35 58.0625 102.837 59.0625C102.327 60.0604 102.072 61.5625 102.072 63.5687C102.072 65.5667 102.327 67.0656 102.837 68.0656C103.35 69.0656 104.113 69.5656 105.128 69.5656C106.151 69.5656 106.917 69.0656 107.428 68.0656C107.94 67.0656 108.197 65.5667 108.197 63.5687C108.197 61.5625 107.94 60.0604 107.428 59.0625C106.917 58.0625 106.151 57.5625 105.128 57.5625ZM105.128 56C106.763 56 108.012 56.6469 108.875 57.9406C109.737 59.2323 110.168 61.1083 110.168 63.5687C110.168 66.0229 109.737 67.8969 108.875 69.1906C108.012 70.4823 106.763 71.1281 105.128 71.1281C103.495 71.1281 102.247 70.4823 101.384 69.1906C100.522 67.8969 100.09 66.0229 100.09 63.5687C100.09 61.1083 100.522 59.2323 101.384 57.9406C102.247 56.6469 103.495 56 105.128 56Z" fill="black"/>
<mask id="mask1_1238_4818" style="mask-type:luminance" maskUnits="userSpaceOnUse" x="120" y="63" width="448" height="291">
<path d="M567.229 63.2453H120.829V353.165H567.229V63.2453Z" fill="white"/>
</mask>
<g mask="url(#mask1_1238_4818)">
<path d="M120.829 297.909L125.125 283.924L129.047 279.682L132.655 286.862L135.996 296.857L139.106 303.11L142.015 311.886L144.747 317.142L147.324 320.149L149.761 324.65L152.073 327.724L154.272 330.14L156.369 331.935L158.373 333.338L160.291 334.358L163.899 335.7L167.239 336.477L171.827 336.985L177.298 337.057L181.004 336.885L185.516 336.5L192.464 335.61L199.281 334.452L205.889 333.101L215.12 330.878L224.165 328.323L230.918 326.132L237.473 323.705L244.081 320.853L248.801 318.492L253.073 316.059L257.63 313.101L262.162 309.726L266.636 305.914L271.189 301.499L275.616 296.649L280.044 291.235L284.556 285.137L289.09 278.434L293.601 271.23L298.056 263.643L304.777 251.461L311.485 238.648L338.43 186.152L345.156 173.974L351.872 162.512L358.602 151.818L363.099 145.137L367.587 138.851L372.063 132.959L376.554 127.423L381.047 122.255L385.528 117.459L390.019 112.995L394.499 108.871L398.991 105.05L403.477 101.529L407.96 98.2899L412.445 95.3109L416.936 92.5721L423.662 88.8922L430.394 85.6671L437.123 82.8509L443.852 80.3957L450.581 78.2588L457.313 76.4005L466.285 74.2997L475.258 72.5633L484.231 71.1302L495.446 69.6881L506.662 68.5572L520.122 67.5193L535.824 66.6387L549.284 66.0918" stroke="black" stroke-width="2" stroke-linecap="square"/>
</g>
<mask id="mask2_1238_4818" style="mask-type:luminance" maskUnits="userSpaceOnUse" x="120" y="63" width="448" height="291">
<path d="M567.229 63.2453H120.829V353.165H567.229V63.2453Z" fill="white"/>
</mask>
<g mask="url(#mask2_1238_4818)">
<path d="M120.829 294.327L125.125 282.615L129.047 282.05L132.655 291.411L135.996 304.662L142.015 318.734L144.747 321.9L147.324 324.017L149.761 326.795L152.073 328.127L154.272 329.12L156.369 329.874L158.373 330.381L160.291 330.663L165.6 330.978L170.349 330.788L177.298 330.11L201.593 327.405L208.541 326.221L215.12 324.772L219.366 323.632L224.165 322.108L228.503 320.477L232.836 318.56L237.473 316.146L241.984 313.369L246.364 310.215L250.862 306.467L255.409 302.095L259.953 297.128L264.454 291.587L268.886 285.55L273.381 278.848L277.885 271.592L282.356 263.914L289.09 251.612L295.791 238.726L322.696 186.096L329.432 173.879L336.173 162.367L342.893 151.685L347.399 144.991L351.872 138.727L356.356 132.829L360.852 127.293L365.339 122.137L369.817 117.349L374.316 112.885L378.805 108.759L383.29 104.951L387.769 101.443L392.26 98.2042L396.741 95.2333L401.231 92.5011L407.96 88.8277L414.693 85.61L421.423 82.8008L428.148 80.353L434.878 78.2209L441.608 76.368L450.581 74.2726L459.554 72.5406L468.528 71.1112L479.743 69.6731L490.96 68.5453L504.419 67.5102L520.122 66.6318L533.581 66.0863" stroke="#1A001A" stroke-width="2" stroke-linecap="square"/>
</g>
<mask id="mask3_1238_4818" style="mask-type:luminance" maskUnits="userSpaceOnUse" x="120" y="63" width="448" height="291">
<path d="M567.229 63.2453H120.829V353.165H567.229V63.2453Z" fill="white"/>
</mask>
<g mask="url(#mask3_1238_4818)">
<path d="M120.829 291.737L125.125 284.27L129.047 287.208L132.655 296.714L135.996 310.886L139.106 316.557L142.015 320.948L147.324 322.967L149.761 324.265L154.272 324.545L156.369 324.741L160.291 324.59L167.239 323.692L178.567 321.526L183.316 321.129L188.626 321.084L196.844 321.163L201.593 320.981L205.889 320.56L210.433 319.785L215.12 318.561L219.366 317.025L224.165 314.738L228.503 312.118L232.836 308.927L237.473 304.868L241.984 300.235L246.364 295.086L250.862 289.167L255.409 282.531L259.953 275.324L264.454 267.652L271.189 255.383L277.885 242.473L291.299 215.68L300.298 197.893L307.005 185.124L313.725 172.941L320.495 161.409L327.22 150.766L331.709 144.136L336.173 137.926L340.648 132.081L345.156 126.574L349.649 121.455L354.119 116.72L358.602 112.312L363.099 108.221L367.587 104.45L372.063 100.981L376.554 97.7778L381.047 94.8335L387.769 90.8767L394.499 87.403L401.231 84.3644L407.96 81.714L414.693 79.4039L421.423 77.3957L428.148 75.6524L437.123 73.68L446.096 72.0513L455.068 70.708L466.285 69.3564L477.5 68.2972L490.96 67.3252L506.662 66.5005L515.635 66.1425" stroke="#330033" stroke-width="2" stroke-linecap="square"/>
</g>
<mask id="mask4_1238_4818" style="mask-type:luminance" maskUnits="userSpaceOnUse" x="120" y="63" width="448" height="291">
<path d="M567.229 63.2453H120.829V353.165H567.229V63.2453Z" fill="white"/>
</mask>
<g mask="url(#mask4_1238_4818)">
<path d="M120.829 290.838L125.125 288.903L129.047 294.507L132.655 303.058L135.996 314.929L142.015 319.933L144.747 319.115L147.324 318.979L149.761 319.23L152.073 318.736L156.369 318.954L158.373 318.866L160.291 318.567L165.6 317.347L170.349 315.83L174.645 314.421L178.567 313.534L181.004 313.32L183.316 313.355L185.516 313.563L196.844 315.222L199.281 315.331L201.593 315.266L203.792 315.041L205.889 314.64L208.541 313.885L210.433 313.178L212.837 312.034L215.12 310.707L217.293 309.226L219.366 307.614L221.829 305.429L224.165 303.15L228.503 298.271L232.836 292.63L237.473 285.873L241.984 278.609L246.364 270.997L250.862 262.736L257.63 249.597L266.636 231.377L282.356 199.525L289.09 186.508L295.791 174.187L302.513 162.58L307.005 155.282L311.485 148.388L315.978 141.865L320.495 135.703L324.942 130.018L329.432 124.657L333.916 119.673L338.43 115.014L342.893 110.745L347.399 106.759L351.872 103.109L356.356 99.7383L360.852 96.6298L365.339 93.7812L372.063 89.9499L378.805 86.5846L385.528 83.6526L392.26 81.0916L398.991 78.8624L405.714 76.9264L412.445 75.2434L421.423 73.3412L430.394 71.7717L439.366 70.4774L450.581 69.1756L461.799 68.1552L475.258 67.2193L490.96 66.4253L499.933 66.0806" stroke="#4C004C" stroke-width="2" stroke-linecap="square"/>
</g>
<mask id="mask5_1238_4818" style="mask-type:luminance" maskUnits="userSpaceOnUse" x="120" y="63" width="448" height="291">
<path d="M567.229 63.2453H120.829V353.165H567.229V63.2453Z" fill="white"/>
</mask>
<g mask="url(#mask5_1238_4818)">
<path d="M120.829 292.157L125.125 295.555L132.655 310.115L135.996 316.463L139.106 316.381L142.015 317.804L147.324 314.088L149.761 314.2L152.073 313.73L154.272 314.467L156.369 314.536L158.373 314.751L160.291 314.782L163.899 313.926L167.239 312.635L177.298 308.429L178.567 308.16L181.004 307.921L183.316 308.047L185.516 308.41L192.464 309.862L195.143 310.111L196.844 310.069L199.281 309.706L201.593 308.92L203.792 307.849L205.889 306.403L208.541 304.137L210.433 302.255L212.837 299.447L215.12 296.44L219.366 290.065L224.165 281.85L228.503 273.716L235.392 259.828L244.081 241.344L259.953 207.464L266.636 193.84L273.381 180.774L280.044 168.64L284.556 160.909L289.09 153.547L293.601 146.636L298.056 140.216L302.513 134.194L307.005 128.519L311.485 123.246L315.978 118.331L320.495 113.75L324.942 109.577L329.432 105.685L333.916 102.102L338.43 98.7843L342.893 95.7698L347.399 92.9768L354.119 89.2422L360.852 85.9671L367.587 83.1065L374.316 80.6153L381.047 78.4466L387.769 76.5648L394.499 74.9292L403.477 73.0811L412.445 71.5573L421.423 70.2997L432.636 69.0362L446.096 67.8755L459.554 67.0109L477.5 66.1919L479.743 66.1105" stroke="#022851" stroke-width="2" stroke-linecap="square"/>
</g>
<mask id="mask6_1238_4818" style="mask-type:luminance" maskUnits="userSpaceOnUse" x="120" y="63" width="448" height="291">
<path d="M567.229 63.2453H120.829V353.165H567.229V63.2453Z" fill="white"/>
</mask>
<g mask="url(#mask6_1238_4818)">
<path d="M120.829 297.369L125.125 303.967L129.047 312.858L132.655 316.86L135.996 316.127L139.106 314.102L142.015 315.632L144.747 314.665L147.324 309.671L149.761 311.518L152.073 311.049L154.272 313.19L156.369 312.355L158.373 312.739L160.291 313.953L163.899 313.774L165.6 313.093L167.239 311.973L171.827 309.887L177.298 307.332L178.567 306.939L181.004 306.381L188.626 305.475L190.586 304.974L192.464 304.262L195.143 302.635L196.844 301.237L199.281 298.754L201.593 295.529L203.792 292.139L205.889 288.226L210.433 278.935L215.12 268.058L221.829 251.434L235.392 218.181L241.984 202.994L246.364 193.4L253.073 179.594L257.63 170.832L262.162 162.617L266.636 154.994L271.189 147.725L275.616 141.113L280.044 134.942L284.556 129.091L289.09 123.635L293.601 118.609L298.056 114.019L302.513 109.779L307.005 105.839L311.485 102.224L315.978 98.8921L320.495 95.8193L324.942 93.0462L331.709 89.2658L338.43 85.9846L345.156 83.1192L351.872 80.6263L358.602 78.4538L365.339 76.5648L372.063 74.9292L381.047 73.0785L390.019 71.5538L398.991 70.2969L410.203 69.0336L423.662 67.8734L437.123 67.0089L455.068 66.1904L457.313 66.1089" stroke="#074784" stroke-width="2" stroke-linecap="square"/>
</g>
<mask id="mask7_1238_4818" style="mask-type:luminance" maskUnits="userSpaceOnUse" x="120" y="63" width="448" height="291">
<path d="M567.229 63.2453H120.829V353.165H567.229V63.2453Z" fill="white"/>
</mask>
<g mask="url(#mask7_1238_4818)">
<path d="M120.829 309.178L125.125 315.52L129.047 322.998L132.655 323.662L135.996 316.156L139.106 309.759L142.015 314.108L144.747 316.18L147.324 304.851L149.761 314.293L152.073 312.01L154.272 316.944L156.369 314.225L158.373 313.515L160.291 316.333L163.899 317.963L165.6 318.328L167.239 314.743L170.349 313.121L171.827 311.944L174.645 309.361L177.298 306.51L178.567 304.894L185.516 297.639L188.626 292.976L192.464 285.749L196.844 275.61L199.281 269.562L205.889 249.538L215.12 220.838L219.366 208.332L224.165 195.19L228.503 184.256L232.836 174.163L237.473 164.321L241.984 155.54L246.364 147.72L250.862 140.385L255.409 133.593L259.953 127.402L264.454 121.793L268.886 116.748L273.381 112.067L277.885 107.784L282.356 103.901L286.88 100.317L291.299 97.1195L295.791 94.1537L300.298 91.4414L307.005 87.8449L313.725 84.7113L320.495 81.9699L327.22 79.6078L333.916 77.5673L340.648 75.7894L349.649 73.7788L358.602 72.1304L367.587 70.7677L378.805 69.4002L390.019 68.3299L403.477 67.3483L419.175 66.5159L430.394 66.0747" stroke="#0E69A7" stroke-width="2" stroke-linecap="square"/>
</g>
<mask id="mask8_1238_4818" style="mask-type:luminance" maskUnits="userSpaceOnUse" x="120" y="63" width="448" height="291">
<path d="M567.229 63.2453H120.829V353.165H567.229V63.2453Z" fill="white"/>
</mask>
<g mask="url(#mask8_1238_4818)">
<path d="M120.829 327.056L125.125 330.749L129.047 334.436L132.655 332.881L135.996 320.041L139.106 302.67L142.015 316.927L144.747 318.545L147.324 291.353L149.761 324.967L152.073 316.302L154.272 326.428L156.369 323.863L158.373 321.171L160.291 324.829L163.899 325.089L165.6 329.445L167.239 318.929L170.349 314.43L171.827 310.791L174.645 299.134L177.298 287.322L178.567 280.044L181.004 271.778L185.516 259.983L188.626 249.338L190.586 241.94L192.464 235.738L195.143 225.717L203.792 196.803L205.889 189.35L208.541 180.804L215.12 161.755L219.366 150.997L221.829 145.306L226.386 136L230.918 127.974L232.836 124.865L237.473 118.1L241.984 112.324L246.364 107.377L250.862 102.889L255.409 98.8707L259.953 95.3118L264.454 92.1776L268.886 89.4248L273.381 86.9306L277.885 84.6975L284.556 81.8116L291.299 79.3313L298.056 77.2173L304.777 75.4231L311.485 73.8911L320.495 72.1737L329.432 70.7856L340.648 69.3976L351.872 68.3174L365.339 67.3328L381.047 66.5015L390.019 66.1418" stroke="#5090C9" stroke-width="2" stroke-linecap="square"/>
</g>
<mask id="mask9_1238_4818" style="mask-type:luminance" maskUnits="userSpaceOnUse" x="120" y="63" width="448" height="291">
<path d="M567.229 63.2453H120.829V353.165H567.229V63.2453Z" fill="white"/>
</mask>
<g mask="url(#mask9_1238_4818)">
<path d="M120.829 343.718L125.125 346.14L129.047 346.495L132.655 343.833L135.996 328.36L139.106 296.699L142.015 328.009L144.747 320.146L147.324 265.645L149.761 340.285L152.073 321.146L154.272 338.607L156.369 339.136L158.373 337.178L160.291 341.205L163.899 330.672L165.6 340.403L167.239 319.585L170.349 308.508L171.827 302.477L177.298 239.128L178.567 221.017L181.004 206.384L185.516 190.299L188.626 177.416L190.586 170.268L192.464 166.354L195.143 156.857L199.281 146.327L201.593 139.443L203.792 134.544L205.889 129.081L208.541 123.447L215.12 111.479L219.366 104.839L221.829 101.373L226.386 95.8203L230.918 91.1619L235.392 87.2813L239.785 84.0759L244.081 81.4243L248.801 78.9675L253.073 77.0963L257.63 75.3968L262.162 73.9626L268.886 72.2131L275.616 70.8265L282.356 69.7142L291.299 68.5639L302.513 67.5067L315.978 66.6232L327.22 66.1041" stroke="#94C5E8" stroke-width="2" stroke-linecap="square"/>
</g>
<mask id="mask10_1238_4818" style="mask-type:luminance" maskUnits="userSpaceOnUse" x="120" y="63" width="448" height="291">
<path d="M567.229 63.2453H120.829V353.165H567.229V63.2453Z" fill="white"/>
</mask>
<g mask="url(#mask10_1238_4818)">
<path d="M120.829 350.401L125.125 353.102L129.047 352.305L132.655 349.234L135.996 333.302L139.106 294.893L142.015 335.975L144.747 320.891L147.324 250.694L149.761 348.223L152.073 323.224L154.272 344.811L156.369 347.087L158.373 346.969L160.291 351.303L163.899 332.415L165.6 344.349L167.239 317.926L170.349 302.723L171.827 296.703L177.298 208.563L178.567 184.168L181.004 167.681L188.626 138.638L190.586 133.741L192.464 132.954L195.143 125.092L196.844 121.911L199.281 116.669L201.593 110.903L203.792 107.249L205.889 103.122L208.541 99.4505L217.293 90.0268L221.829 85.8481L226.386 82.2022L230.918 79.0487L235.392 76.4007L239.785 74.2299L244.081 72.4487L248.801 70.8298L253.073 69.6486L257.63 68.61L264.454 67.4132L271.189 66.5518L275.616 66.1246" stroke="#C2E5F9" stroke-width="2" stroke-linecap="square"/>
</g>
<path d="M120.829 353.165V63.2453" stroke="black" stroke-width="1.06667" stroke-linecap="square"/>
<path d="M567.229 353.165V63.2453" stroke="black" stroke-width="1.06667" stroke-linecap="square"/>
<path d="M120.829 353.165H567.229" stroke="black" stroke-width="1.06667" stroke-linecap="square"/>
<path d="M120.829 63.2453H567.229" stroke="black" stroke-width="1.06667" stroke-linecap="square"/>
<path d="M411.709 343.565H555.709V247.565H411.709V343.565Z" fill="white"/>
<path d="M444.436 247.565V242.899V247.565Z" fill="black"/>
<path d="M444.436 247.565V242.899" stroke="black" stroke-width="1.06667"/>
<path d="M436.799 224.279C435.987 224.279 435.376 224.679 434.966 225.479C434.558 226.278 434.354 227.479 434.354 229.084C434.354 230.683 434.558 231.882 434.966 232.682C435.376 233.482 435.987 233.882 436.799 233.882C437.617 233.882 438.231 233.482 438.639 232.682C439.049 231.882 439.254 230.683 439.254 229.084C439.254 227.479 439.049 226.278 438.639 225.479C438.231 224.679 437.617 224.279 436.799 224.279ZM436.799 223.029C438.107 223.029 439.106 223.547 439.796 224.582C440.486 225.615 440.831 227.116 440.831 229.084C440.831 231.048 440.486 232.547 439.796 233.582C439.106 234.615 438.107 235.132 436.799 235.132C435.492 235.132 434.494 234.615 433.804 233.582C433.114 232.547 432.769 231.048 432.769 229.084C432.769 227.116 433.114 225.615 433.804 224.582C434.494 223.547 435.492 223.029 436.799 223.029Z" fill="black"/>
<path d="M443.604 232.919H445.254V234.904H443.604V232.919Z" fill="black"/>
<path d="M453.472 228.614C454.227 228.776 454.816 229.113 455.24 229.624C455.665 230.134 455.877 230.764 455.877 231.514C455.877 232.664 455.481 233.555 454.69 234.187C453.898 234.817 452.773 235.132 451.315 235.132C450.826 235.132 450.323 235.084 449.805 234.987C449.286 234.89 448.751 234.745 448.2 234.552V233.029C448.636 233.284 449.115 233.477 449.635 233.607C450.156 233.737 450.701 233.802 451.27 233.802C452.258 233.802 453.011 233.607 453.53 233.217C454.048 232.827 454.307 232.259 454.307 231.514C454.307 230.826 454.066 230.289 453.585 229.902C453.103 229.514 452.433 229.319 451.575 229.319H450.215V228.022H451.637C452.412 228.022 453.005 227.867 453.417 227.557C453.829 227.247 454.035 226.8 454.035 226.217C454.035 225.619 453.822 225.159 453.397 224.839C452.974 224.518 452.366 224.357 451.575 224.357C451.141 224.357 450.677 224.404 450.182 224.499C449.687 224.593 449.143 224.738 448.55 224.934V223.529C449.15 223.363 449.711 223.238 450.235 223.154C450.758 223.071 451.251 223.029 451.715 223.029C452.913 223.029 453.86 223.302 454.557 223.847C455.255 224.39 455.605 225.125 455.605 226.052C455.605 226.699 455.42 227.244 455.05 227.689C454.68 228.134 454.154 228.443 453.472 228.614Z" fill="black"/>
<path d="M496.8 247.565V242.899V247.565Z" fill="black"/>
<path d="M496.8 247.565V242.899" stroke="black" stroke-width="1.06667"/>
<path d="M489.163 224.279C488.351 224.279 487.74 224.679 487.33 225.479C486.922 226.278 486.718 227.479 486.718 229.084C486.718 230.683 486.922 231.882 487.33 232.682C487.74 233.482 488.351 233.882 489.163 233.882C489.981 233.882 490.594 233.482 491.003 232.682C491.413 231.882 491.618 230.683 491.618 229.084C491.618 227.479 491.413 226.278 491.003 225.479C490.594 224.679 489.981 224.279 489.163 224.279ZM489.163 223.029C490.471 223.029 491.47 223.547 492.16 224.582C492.85 225.615 493.195 227.116 493.195 229.084C493.195 231.048 492.85 232.547 492.16 233.582C491.47 234.615 490.471 235.132 489.163 235.132C487.856 235.132 486.858 234.615 486.168 233.582C485.478 232.547 485.133 231.048 485.133 229.084C485.133 227.116 485.478 225.615 486.168 224.582C486.858 223.547 487.856 223.029 489.163 223.029Z" fill="black"/>
<path d="M495.967 232.919H497.617V234.904H495.967V232.919Z" fill="black"/>
<path d="M505.391 224.614L501.406 230.842H505.391V224.614ZM504.976 223.239H506.961V230.842H508.626V232.154H506.961V234.904H505.391V232.154H500.126V230.632L504.976 223.239Z" fill="black"/>
<path d="M549.164 247.565V242.899V247.565Z" fill="black"/>
<path d="M549.164 247.565V242.899" stroke="black" stroke-width="1.06667"/>
<path d="M541.526 224.279C540.715 224.279 540.104 224.679 539.694 225.479C539.285 226.278 539.081 227.479 539.081 229.084C539.081 230.683 539.285 231.882 539.694 232.682C540.104 233.482 540.715 233.882 541.526 233.882C542.345 233.882 542.958 233.482 543.366 232.682C543.776 231.882 543.981 230.683 543.981 229.084C543.981 227.479 543.776 226.278 543.366 225.479C542.958 224.679 542.345 224.279 541.526 224.279ZM541.526 223.029C542.835 223.029 543.834 223.547 544.524 224.582C545.214 225.615 545.559 227.116 545.559 229.084C545.559 231.048 545.214 232.547 544.524 233.582C543.834 234.615 542.835 235.132 541.526 235.132C540.22 235.132 539.221 234.615 538.531 233.582C537.841 232.547 537.496 231.048 537.496 229.084C537.496 227.116 537.841 225.615 538.531 224.582C539.221 223.547 540.22 223.029 541.526 223.029Z" fill="black"/>
<path d="M548.331 232.919H549.981V234.904H548.331V232.919Z" fill="black"/>
<path d="M553.434 223.239H559.629V224.569H554.879V227.427C555.108 227.349 555.336 227.29 555.564 227.252C555.794 227.214 556.024 227.194 556.254 227.194C557.556 227.194 558.587 227.551 559.347 228.264C560.109 228.978 560.489 229.944 560.489 231.162C560.489 232.417 560.098 233.393 559.317 234.089C558.535 234.784 557.434 235.132 556.012 235.132C555.522 235.132 555.023 235.09 554.514 235.007C554.008 234.924 553.484 234.799 552.942 234.632V233.044C553.41 233.299 553.894 233.489 554.394 233.614C554.894 233.739 555.423 233.802 555.979 233.802C556.881 233.802 557.594 233.565 558.119 233.092C558.646 232.619 558.909 231.975 558.909 231.162C558.909 230.35 558.646 229.708 558.119 229.234C557.594 228.759 556.881 228.522 555.979 228.522C555.558 228.522 555.137 228.569 554.717 228.662C554.299 228.755 553.871 228.901 553.434 229.099V223.239Z" fill="black"/>
<path d="M468.958 201.675L469.566 205.458L472.397 200.712H473.465L469.8 206.837L469.347 209.166H468.341L468.794 206.837L468.078 202.264C468.005 201.806 467.795 201.577 467.448 201.577H467.18L467.345 200.712H467.728C468.446 200.712 468.856 201.033 468.958 201.675Z" fill="black"/>
<path d="M477.713 200.712L477.561 201.494H475.553L474.902 204.819C474.88 204.943 474.864 205.047 474.853 205.131C474.843 205.215 474.838 205.28 474.838 205.327C474.838 205.56 474.908 205.73 475.048 205.836C475.188 205.942 475.413 205.995 475.723 205.995H476.74L476.57 206.837H475.608C475.01 206.837 474.565 206.72 474.271 206.487C473.978 206.254 473.831 205.9 473.831 205.427C473.831 205.343 473.837 205.25 473.847 205.15C473.858 205.05 473.874 204.94 473.896 204.819L474.547 201.494H473.693L473.852 200.712H474.689L475.028 198.973H476.035L475.7 200.712H477.713Z" fill="black"/>
<path d="M479.195 205.061L479.62 207.709L481.602 204.387H482.35L479.784 208.675L479.467 210.305H478.763L479.08 208.675L478.579 205.474C478.528 205.153 478.381 204.992 478.138 204.992H477.951L478.066 204.387H478.334C478.836 204.387 479.123 204.612 479.195 205.061Z" fill="black"/>
<path d="M489.28 195.028L485.685 206.841H485.416L483.939 202.038C483.892 201.884 483.839 201.773 483.779 201.705C483.719 201.637 483.641 201.603 483.543 201.603C483.398 201.603 483.253 201.66 483.108 201.775L483.031 201.648L484.079 200.842H484.239L485.691 205.556H485.717L488.915 195.028H489.28Z" fill="black"/>
<path d="M492.626 205.977H496.482V206.906H491.298V205.977C491.717 205.543 492.288 204.961 493.011 204.23C493.736 203.499 494.191 203.027 494.376 202.815C494.73 202.418 494.977 202.082 495.117 201.807C495.258 201.531 495.328 201.261 495.328 200.995C495.328 200.561 495.176 200.207 494.872 199.934C494.567 199.66 494.17 199.523 493.682 199.523C493.335 199.523 492.969 199.583 492.584 199.703C492.2 199.823 491.79 200.006 491.352 200.251V199.134C491.797 198.956 492.212 198.821 492.598 198.73C492.986 198.639 493.34 198.594 493.661 198.594C494.506 198.594 495.181 198.805 495.684 199.229C496.186 199.651 496.438 200.216 496.438 200.923C496.438 201.259 496.375 201.577 496.249 201.878C496.124 202.178 495.895 202.532 495.563 202.941C495.472 203.047 495.182 203.352 494.693 203.858C494.205 204.363 493.516 205.069 492.626 205.977Z" fill="black"/>
<path d="M480.331 215.305H486.201L486.003 216.311H485.231L484.5 220.074C484.448 220.336 484.457 220.526 484.526 220.643C484.592 220.756 484.725 220.812 484.925 220.812C484.98 220.812 485.047 220.807 485.128 220.795C485.212 220.788 485.267 220.783 485.292 220.779L485.151 221.507C485.015 221.554 484.878 221.588 484.739 221.61C484.597 221.633 484.459 221.644 484.325 221.644C483.887 221.644 483.608 221.525 483.488 221.288C483.367 221.047 483.369 220.605 483.493 219.964L484.204 216.311H481.945L480.951 221.43H479.922L480.917 216.311H480.135L480.331 215.305Z" fill="black"/>
<path d="M489.077 195.774V195.074H499.003V195.774H489.077Z" fill="black"/>
<path d="M466.349 214.305V213.305H499.003V214.305H466.349Z" fill="black"/>
<path d="M411.709 322.366H407.043H411.709Z" fill="black"/>
<path d="M411.709 322.366H407.043" stroke="black" stroke-width="1.06667"/>
<path d="M376.201 326.995H378.778V318.095L375.973 318.658V317.22L378.763 316.658H380.341V326.995H382.918V328.323H376.201V326.995Z" fill="black"/>
<path d="M389.481 317.698C388.669 317.698 388.058 318.098 387.648 318.898C387.24 319.696 387.036 320.898 387.036 322.503C387.036 324.101 387.24 325.3 387.648 326.1C388.058 326.9 388.669 327.3 389.481 327.3C390.299 327.3 390.912 326.9 391.321 326.1C391.731 325.3 391.936 324.101 391.936 322.503C391.936 320.898 391.731 319.696 391.321 318.898C390.912 318.098 390.299 317.698 389.481 317.698ZM389.481 316.448C390.789 316.448 391.788 316.965 392.478 318C393.168 319.034 393.513 320.534 393.513 322.503C393.513 324.466 393.168 325.965 392.478 327C391.788 328.034 390.789 328.55 389.481 328.55C388.174 328.55 387.176 328.034 386.486 327C385.796 325.965 385.451 324.466 385.451 322.503C385.451 320.534 385.796 319.034 386.486 318C387.176 316.965 388.174 316.448 389.481 316.448Z" fill="black"/>
<path d="M399.273 317.795C399.802 317.908 400.214 318.144 400.51 318.502C400.808 318.859 400.957 319.3 400.957 319.825C400.957 320.63 400.68 321.253 400.125 321.696C399.571 322.137 398.784 322.357 397.763 322.357C397.421 322.357 397.069 322.323 396.706 322.256C396.343 322.188 395.969 322.086 395.582 321.951V320.885C395.888 321.064 396.223 321.199 396.587 321.29C396.952 321.381 397.334 321.426 397.731 321.426C398.423 321.426 398.951 321.29 399.313 321.017C399.676 320.744 399.858 320.346 399.858 319.825C399.858 319.343 399.689 318.967 399.352 318.696C399.015 318.424 398.546 318.288 397.945 318.288H396.993V317.38H397.989C398.531 317.38 398.947 317.272 399.235 317.055C399.523 316.838 399.667 316.525 399.667 316.117C399.667 315.698 399.518 315.376 399.221 315.152C398.924 314.927 398.499 314.815 397.945 314.815C397.642 314.815 397.317 314.848 396.97 314.914C396.624 314.98 396.243 315.081 395.827 315.219V314.235C396.247 314.119 396.641 314.031 397.007 313.973C397.373 313.914 397.719 313.885 398.043 313.885C398.882 313.885 399.545 314.076 400.033 314.458C400.522 314.838 400.766 315.352 400.766 316.001C400.766 316.454 400.636 316.836 400.377 317.147C400.118 317.459 399.75 317.675 399.273 317.795Z" fill="black"/>
<path d="M411.709 289.268H407.043H411.709Z" fill="black"/>
<path d="M411.709 289.268H407.043" stroke="black" stroke-width="1.06667"/>
<path d="M376.201 293.91H378.778V285.01L375.973 285.572V284.135L378.763 283.572H380.341V293.91H382.918V295.237H376.201V293.91Z" fill="black"/>
<path d="M389.481 284.612C388.669 284.612 388.058 285.012 387.648 285.812C387.24 286.611 387.036 287.812 387.036 289.417C387.036 291.016 387.24 292.215 387.648 293.015C388.058 293.815 388.669 294.215 389.481 294.215C390.299 294.215 390.912 293.815 391.321 293.015C391.731 292.215 391.936 291.016 391.936 289.417C391.936 287.812 391.731 286.611 391.321 285.812C390.912 285.012 390.299 284.612 389.481 284.612ZM389.481 283.362C390.789 283.362 391.788 283.88 392.478 284.915C393.168 285.948 393.513 287.449 393.513 289.417C393.513 291.381 393.168 292.88 392.478 293.915C391.788 294.948 390.789 295.465 389.481 295.465C388.174 295.465 387.176 294.948 386.486 293.915C385.796 292.88 385.451 291.381 385.451 289.417C385.451 287.449 385.796 285.948 386.486 284.915C387.176 283.88 388.174 283.362 389.481 283.362Z" fill="black"/>
<path d="M398.962 281.909L396.172 286.268H398.962V281.909ZM398.671 280.947H400.061V286.268H401.226V287.187H400.061V289.112H398.962V287.187H395.276V286.121L398.671 280.947Z" fill="black"/>
<path d="M411.709 256.17H407.043H411.709Z" fill="black"/>
<path d="M411.709 256.17H407.043" stroke="black" stroke-width="1.06667"/>
<path d="M376.201 260.811H378.778V251.911L375.973 252.474V251.036L378.763 250.474H380.341V260.811H382.918V262.139H376.201V260.811Z" fill="black"/>
<path d="M389.481 251.514C388.669 251.514 388.058 251.914 387.648 252.714C387.24 253.512 387.036 254.714 387.036 256.319C387.036 257.917 387.24 259.116 387.648 259.916C388.058 260.716 388.669 261.116 389.481 261.116C390.299 261.116 390.912 260.716 391.321 259.916C391.731 259.116 391.936 257.917 391.936 256.319C391.936 254.714 391.731 253.512 391.321 252.714C390.912 251.914 390.299 251.514 389.481 251.514ZM389.481 250.264C390.789 250.264 391.788 250.781 392.478 251.816C393.168 252.85 393.513 254.351 393.513 256.319C393.513 258.282 393.168 259.781 392.478 260.816C391.788 261.85 390.789 262.366 389.481 262.366C388.174 262.366 387.176 261.85 386.486 260.816C385.796 259.781 385.451 258.282 385.451 256.319C385.451 254.351 385.796 252.85 386.486 251.816C387.176 250.781 388.174 250.264 389.481 250.264Z" fill="black"/>
<path d="M395.938 247.848H400.274V248.779H396.949V250.78C397.109 250.725 397.269 250.684 397.429 250.657C397.59 250.63 397.751 250.617 397.912 250.617C398.823 250.617 399.544 250.867 400.076 251.366C400.61 251.865 400.876 252.541 400.876 253.394C400.876 254.273 400.603 254.956 400.055 255.443C399.508 255.93 398.737 256.173 397.742 256.173C397.399 256.173 397.05 256.144 396.694 256.086C396.339 256.027 395.972 255.94 395.593 255.823V254.712C395.921 254.89 396.26 255.023 396.61 255.111C396.96 255.198 397.33 255.242 397.719 255.242C398.35 255.242 398.85 255.076 399.217 254.745C399.586 254.414 399.77 253.963 399.77 253.394C399.77 252.826 399.586 252.376 399.217 252.045C398.85 251.712 398.35 251.546 397.719 251.546C397.424 251.546 397.129 251.579 396.835 251.644C396.543 251.709 396.243 251.812 395.938 251.95V247.848Z" fill="black"/>
<path d="M411.709 339.673H409.043H411.709Z" fill="black"/>
<path d="M411.709 339.673H409.043" stroke="black" stroke-width="0.8"/>
<path d="M411.709 335.538H409.043H411.709Z" fill="black"/>
<path d="M411.709 335.538H409.043" stroke="black" stroke-width="0.8"/>
<path d="M411.709 332.33H409.043H411.709Z" fill="black"/>
<path d="M411.709 332.33H409.043" stroke="black" stroke-width="0.8"/>
<path d="M411.709 329.709H409.043H411.709Z" fill="black"/>
<path d="M411.709 329.709H409.043" stroke="black" stroke-width="0.8"/>
<path d="M411.709 327.494H409.043H411.709Z" fill="black"/>
<path d="M411.709 327.494H409.043" stroke="black" stroke-width="0.8"/>
<path d="M411.709 325.574H409.043H411.709Z" fill="black"/>
<path d="M411.709 325.574H409.043" stroke="black" stroke-width="0.8"/>
<path d="M411.709 323.881H409.043H411.709Z" fill="black"/>
<path d="M411.709 323.881H409.043" stroke="black" stroke-width="0.8"/>
<path d="M411.709 312.403H409.043H411.709Z" fill="black"/>
<path d="M411.709 312.403H409.043" stroke="black" stroke-width="0.8"/>
<path d="M411.709 306.575H409.043H411.709Z" fill="black"/>
<path d="M411.709 306.575H409.043" stroke="black" stroke-width="0.8"/>
<path d="M411.709 302.439H409.043H411.709Z" fill="black"/>
<path d="M411.709 302.439H409.043" stroke="black" stroke-width="0.8"/>
<path d="M411.709 299.232H409.043H411.709Z" fill="black"/>
<path d="M411.709 299.232H409.043" stroke="black" stroke-width="0.8"/>
<path d="M411.709 296.611H409.043H411.709Z" fill="black"/>
<path d="M411.709 296.611H409.043" stroke="black" stroke-width="0.8"/>
<path d="M411.709 294.395H409.043H411.709Z" fill="black"/>
<path d="M411.709 294.395H409.043" stroke="black" stroke-width="0.8"/>
<path d="M411.709 292.476H409.043H411.709Z" fill="black"/>
<path d="M411.709 292.476H409.043" stroke="black" stroke-width="0.8"/>
<path d="M411.709 290.783H409.043H411.709Z" fill="black"/>
<path d="M411.709 290.783H409.043" stroke="black" stroke-width="0.8"/>
<path d="M411.709 279.304H409.043H411.709Z" fill="black"/>
<path d="M411.709 279.304H409.043" stroke="black" stroke-width="0.8"/>
<path d="M411.709 273.476H409.043H411.709Z" fill="black"/>
<path d="M411.709 273.476H409.043" stroke="black" stroke-width="0.8"/>
<path d="M411.709 269.341H409.043H411.709Z" fill="black"/>
<path d="M411.709 269.341H409.043" stroke="black" stroke-width="0.8"/>
<path d="M411.709 266.133H409.043H411.709Z" fill="black"/>
<path d="M411.709 266.133H409.043" stroke="black" stroke-width="0.8"/>
<path d="M411.709 263.512H409.043H411.709Z" fill="black"/>
<path d="M411.709 263.512H409.043" stroke="black" stroke-width="0.8"/>
<path d="M411.709 261.297H409.043H411.709Z" fill="black"/>
<path d="M411.709 261.297H409.043" stroke="black" stroke-width="0.8"/>
<path d="M411.709 259.377H409.043H411.709Z" fill="black"/>
<path d="M411.709 259.377H409.043" stroke="black" stroke-width="0.8"/>
<path d="M411.709 257.684H409.043H411.709Z" fill="black"/>
<path d="M411.709 257.684H409.043" stroke="black" stroke-width="0.8"/>
<path d="M340.599 325.207V327.479L343.209 328.137V325.847L340.599 325.207ZM336.154 326.379L339.396 327.192V324.909L336.154 324.089V322.839L339.396 323.644V321.207H340.599V323.949L343.209 324.589V322.104H344.404V324.894L347.639 325.707V326.957L344.404 326.152V328.442L347.639 329.247V330.504L344.404 329.692V332.152H343.209V329.402L340.599 328.747V331.262H339.396V328.442L336.154 327.644V326.379Z" fill="black"/>
<path d="M336.874 304.589H338.536C338.041 305.121 337.672 305.688 337.429 306.289C337.184 306.891 337.061 307.53 337.061 308.207C337.061 309.54 337.469 310.561 338.284 311.269C339.099 311.978 340.277 312.332 341.819 312.332C343.355 312.332 344.531 311.978 345.346 311.269C346.161 310.561 346.569 309.54 346.569 308.207C346.569 307.53 346.446 306.891 346.201 306.289C345.956 305.688 345.586 305.121 345.091 304.589H346.741C347.116 305.141 347.398 305.726 347.586 306.344C347.773 306.961 347.866 307.613 347.866 308.299C347.866 310.066 347.326 311.458 346.246 312.474C345.164 313.489 343.689 313.997 341.819 313.997C339.944 313.997 338.466 313.489 337.386 312.474C336.304 311.458 335.764 310.066 335.764 308.299C335.764 307.603 335.856 306.946 336.041 306.329C336.226 305.711 336.504 305.131 336.874 304.589Z" fill="black"/>
<path d="M348.451 298.575C349.493 298.98 350.172 299.376 350.489 299.762C350.807 300.147 350.966 300.662 350.966 301.307V302.457H349.764V301.612C349.764 301.217 349.669 300.911 349.481 300.692C349.294 300.472 348.852 300.23 348.154 299.965L347.499 299.707L338.889 303.245V301.722L345.731 298.987L338.889 296.252V294.73L348.451 298.575Z" fill="black"/>
<path d="M339.224 286.449H340.569C340.344 286.856 340.175 287.263 340.064 287.671C339.952 288.08 339.896 288.492 339.896 288.909C339.896 289.842 340.192 290.567 340.784 291.084C341.374 291.599 342.203 291.856 343.271 291.856C344.339 291.856 345.169 291.599 345.761 291.084C346.351 290.567 346.646 289.842 346.646 288.909C346.646 288.492 346.59 288.08 346.479 287.671C346.367 287.263 346.199 286.856 345.974 286.449H347.304C347.49 286.851 347.63 287.266 347.724 287.696C347.819 288.125 347.866 288.581 347.866 289.066C347.866 290.385 347.452 291.432 346.624 292.209C345.795 292.984 344.678 293.371 343.271 293.371C341.844 293.371 340.723 292.98 339.906 292.196C339.088 291.411 338.679 290.336 338.679 288.971C338.679 288.53 338.724 288.098 338.816 287.676C338.906 287.255 339.042 286.846 339.224 286.449Z" fill="black"/>
<path d="M335.481 283.949V282.512H347.639V283.949H335.481Z" fill="black"/>
<path d="M342.904 272.019H343.606V278.629C344.596 278.566 345.35 278.267 345.869 277.734C346.387 277.201 346.646 276.457 346.646 275.504C346.646 274.952 346.579 274.417 346.444 273.899C346.309 273.381 346.105 272.866 345.834 272.354H347.194C347.412 272.871 347.579 273.4 347.694 273.942C347.809 274.483 347.866 275.032 347.866 275.589C347.866 276.986 347.46 278.092 346.649 278.907C345.835 279.722 344.735 280.129 343.349 280.129C341.917 280.129 340.781 279.742 339.941 278.969C339.099 278.196 338.679 277.152 338.679 275.839C338.679 274.662 339.058 273.732 339.816 273.047C340.573 272.362 341.602 272.019 342.904 272.019ZM342.481 273.457C341.696 273.467 341.069 273.687 340.601 274.117C340.131 274.547 339.896 275.116 339.896 275.824C339.896 276.626 340.123 277.267 340.576 277.749C341.029 278.231 341.668 278.508 342.491 278.582L342.481 273.457Z" fill="black"/>
<path d="M339.146 264.083H340.506C340.298 264.488 340.142 264.909 340.039 265.348C339.934 265.784 339.881 266.238 339.881 266.708C339.881 267.421 339.99 267.956 340.209 268.313C340.427 268.669 340.755 268.848 341.194 268.848C341.527 268.848 341.789 268.72 341.979 268.465C342.169 268.21 342.349 267.697 342.521 266.925L342.631 266.433C342.849 265.413 343.158 264.688 343.556 264.258C343.954 263.828 344.51 263.613 345.224 263.613C346.037 263.613 346.681 263.934 347.156 264.578C347.629 265.221 347.866 266.105 347.866 267.23C347.866 267.699 347.82 268.187 347.729 268.695C347.637 269.204 347.5 269.739 347.319 270.3H345.834C346.11 269.769 346.318 269.245 346.456 268.73C346.593 268.215 346.661 267.704 346.661 267.198C346.661 266.521 346.545 266.001 346.314 265.638C346.082 265.273 345.755 265.09 345.334 265.09C344.944 265.09 344.644 265.222 344.436 265.485C344.228 265.747 344.027 266.324 343.834 267.215L343.716 267.715C343.529 268.605 343.242 269.249 342.854 269.645C342.465 270.04 341.933 270.238 341.256 270.238C340.433 270.238 339.798 269.946 339.351 269.363C338.903 268.779 338.679 267.951 338.679 266.878C338.679 266.348 338.718 265.849 338.796 265.38C338.873 264.91 338.989 264.478 339.146 264.083Z" fill="black"/>
<path d="M353.398 318.408H354.595V319.783C354.595 320.298 354.699 320.656 354.908 320.858C355.116 321.058 355.491 321.158 356.033 321.158H356.805V318.791H357.923V321.158H365.555V322.603H357.923V323.978H356.805V322.603H356.195C355.222 322.603 354.513 322.376 354.068 321.923C353.621 321.47 353.398 320.751 353.398 319.768V318.408Z" fill="black"/>
<path d="M357.813 313.815C357.813 314.585 358.113 315.194 358.715 315.643C359.317 316.091 360.141 316.315 361.188 316.315C362.234 316.315 363.058 316.093 363.66 315.648C364.262 315.201 364.563 314.59 364.563 313.815C364.563 313.049 364.261 312.442 363.658 311.995C363.053 311.547 362.229 311.323 361.188 311.323C360.151 311.323 359.329 311.547 358.723 311.995C358.116 312.442 357.813 313.049 357.813 313.815ZM356.595 313.815C356.595 312.565 357.002 311.584 357.815 310.87C358.627 310.155 359.751 309.798 361.188 309.798C362.619 309.798 363.743 310.155 364.56 310.87C365.375 311.584 365.783 312.565 365.783 313.815C365.783 315.07 365.375 316.054 364.56 316.765C363.743 317.475 362.619 317.83 361.188 317.83C359.751 317.83 358.627 317.475 357.815 316.765C357.002 316.054 356.595 315.07 356.595 313.815Z" fill="black"/>
<path d="M358.148 302.346C358.054 302.508 357.986 302.684 357.943 302.874C357.898 303.064 357.875 303.273 357.875 303.501C357.875 304.315 358.139 304.939 358.668 305.374C359.196 305.809 359.955 306.026 360.945 306.026H365.555V307.471H356.805V306.026H358.165C357.633 305.723 357.239 305.33 356.983 304.846C356.724 304.361 356.595 303.772 356.595 303.079C356.595 302.98 356.602 302.871 356.615 302.751C356.627 302.631 356.646 302.499 356.673 302.354L358.148 302.346Z" fill="black"/>
<path d="M365.313 295.502H363.875C364.063 295.106 364.207 294.705 364.305 294.3C364.403 293.893 364.453 293.494 364.453 293.102C364.453 292.061 364.103 291.266 363.403 290.717C362.703 290.167 361.638 289.853 360.21 289.775C360.658 290.076 361.003 290.46 361.243 290.925C361.483 291.388 361.603 291.901 361.603 292.462C361.603 293.629 361.25 294.552 360.545 295.232C359.838 295.912 358.873 296.252 357.648 296.252C356.451 296.252 355.491 295.898 354.768 295.19C354.043 294.481 353.68 293.539 353.68 292.362C353.68 291.012 354.198 289.982 355.233 289.272C356.266 288.561 357.767 288.205 359.735 288.205C361.573 288.205 363.041 288.641 364.138 289.515C365.234 290.386 365.783 291.559 365.783 293.032C365.783 293.429 365.743 293.831 365.665 294.237C365.587 294.642 365.469 295.064 365.313 295.502ZM360.368 292.362C360.368 291.654 360.126 291.093 359.643 290.68C359.158 290.265 358.493 290.057 357.648 290.057C356.809 290.057 356.147 290.265 355.66 290.68C355.173 291.093 354.93 291.654 354.93 292.362C354.93 293.071 355.173 293.631 355.66 294.045C356.147 294.458 356.809 294.665 357.648 294.665C358.493 294.665 359.158 294.458 359.643 294.045C360.126 293.631 360.368 293.071 360.368 292.362Z" fill="black"/>
<path d="M365.313 285.323H363.875C364.063 284.926 364.207 284.525 364.305 284.12C364.403 283.713 364.453 283.314 364.453 282.923C364.453 281.881 364.103 281.086 363.403 280.538C362.703 279.988 361.638 279.673 360.21 279.595C360.658 279.897 361.003 280.28 361.243 280.745C361.483 281.208 361.603 281.721 361.603 282.283C361.603 283.449 361.25 284.373 360.545 285.053C359.838 285.733 358.873 286.073 357.648 286.073C356.451 286.073 355.491 285.718 354.768 285.01C354.043 284.302 353.68 283.359 353.68 282.183C353.68 280.833 354.198 279.803 355.233 279.093C356.266 278.381 357.767 278.025 359.735 278.025C361.573 278.025 363.041 278.462 364.138 279.335C365.234 280.207 365.783 281.379 365.783 282.853C365.783 283.249 365.743 283.651 365.665 284.058C365.587 284.463 365.469 284.884 365.313 285.323ZM360.368 282.183C360.368 281.474 360.126 280.913 359.643 280.5C359.158 280.085 358.493 279.878 357.648 279.878C356.809 279.878 356.147 280.085 355.66 280.5C355.173 280.913 354.93 281.474 354.93 282.183C354.93 282.891 355.173 283.452 355.66 283.865C356.147 284.278 356.809 284.485 357.648 284.485C358.493 284.485 359.158 284.278 359.643 283.865C360.126 283.452 360.368 282.891 360.368 282.183Z" fill="black"/>
<path d="M360.423 265.268C360.423 265.721 360.615 266.077 361 266.335C361.385 266.592 361.922 266.72 362.61 266.72C363.287 266.72 363.819 266.592 364.208 266.335C364.596 266.077 364.79 265.721 364.79 265.268C364.79 264.824 364.596 264.474 364.208 264.218C363.819 263.959 363.287 263.83 362.61 263.83C361.927 263.83 361.392 263.959 361.005 264.218C360.617 264.474 360.423 264.824 360.423 265.268ZM359.43 265.268C359.43 264.444 359.717 263.791 360.29 263.308C360.862 262.823 361.635 262.58 362.61 262.58C363.583 262.58 364.356 262.824 364.928 263.31C365.498 263.797 365.783 264.449 365.783 265.268C365.783 266.101 365.498 266.76 364.928 267.245C364.356 267.729 363.583 267.97 362.61 267.97C361.63 267.97 360.855 267.727 360.285 267.24C359.715 266.754 359.43 266.096 359.43 265.268ZM354.673 273.33C354.673 273.779 354.867 274.132 355.255 274.39C355.642 274.647 356.174 274.775 356.853 274.775C357.539 274.775 358.076 274.648 358.463 274.393C358.848 274.138 359.04 273.784 359.04 273.33C359.04 272.877 358.848 272.522 358.463 272.265C358.076 272.007 357.539 271.878 356.853 271.878C356.181 271.878 355.65 272.008 355.26 272.268C354.868 272.528 354.673 272.882 354.673 273.33ZM353.68 266.275V265.025L365.783 272.323V273.573L353.68 266.275ZM353.68 273.33C353.68 272.507 353.965 271.851 354.535 271.363C355.105 270.873 355.878 270.628 356.853 270.628C357.836 270.628 358.612 270.871 359.18 271.358C359.748 271.844 360.033 272.502 360.033 273.33C360.033 274.159 359.748 274.814 359.178 275.295C358.606 275.777 357.831 276.018 356.853 276.018C355.883 276.018 355.112 275.776 354.54 275.293C353.967 274.808 353.68 274.154 353.68 273.33Z" fill="black"/>
<mask id="mask11_1238_4818" style="mask-type:luminance" maskUnits="userSpaceOnUse" x="411" y="247" width="145" height="97">
<path d="M555.709 247.565H411.709V343.565H555.709V247.565Z" fill="white"/>
</mask>
<g mask="url(#mask11_1238_4818)">
<path d="M418.255 245.262L416.758 249.869H411.914L415.833 252.716L414.336 257.322L418.255 254.475L422.173 257.322L420.676 252.716L424.595 249.869H419.751L418.255 245.262Z" fill="black" stroke="black" stroke-width="1.33333" stroke-linejoin="bevel"/>
</g>
<mask id="mask12_1238_4818" style="mask-type:luminance" maskUnits="userSpaceOnUse" x="411" y="247" width="145" height="97">
<path d="M555.709 247.565H411.709V343.565H555.709V247.565Z" fill="white"/>
</mask>
<g mask="url(#mask12_1238_4818)">
<path d="M432.8 250.27L431.303 254.876H426.46L430.378 257.723L428.882 262.33L432.8 259.483L436.719 262.33L435.222 257.723L439.141 254.876H434.297L432.8 250.27Z" fill="#1A001A" stroke="#1A001A" stroke-width="1.33333" stroke-linejoin="bevel"/>
</g>
<mask id="mask13_1238_4818" style="mask-type:luminance" maskUnits="userSpaceOnUse" x="411" y="247" width="145" height="97">
<path d="M555.709 247.565H411.709V343.565H555.709V247.565Z" fill="white"/>
</mask>
<g mask="url(#mask13_1238_4818)">
<path d="M447.346 255.993L445.849 260.599H441.005L444.924 263.446L443.427 268.053L447.346 265.206L451.264 268.053L449.767 263.446L453.686 260.599H448.842L447.346 255.993Z" fill="#330033" stroke="#330033" stroke-width="1.33333" stroke-linejoin="bevel"/>
</g>
<mask id="mask14_1238_4818" style="mask-type:luminance" maskUnits="userSpaceOnUse" x="411" y="247" width="145" height="97">
<path d="M555.709 247.565H411.709V343.565H555.709V247.565Z" fill="white"/>
</mask>
<g mask="url(#mask14_1238_4818)">
<path d="M461.891 261L460.394 265.607H455.551L459.469 268.454L457.972 273.06L461.891 270.213L465.81 273.06L464.313 268.454L468.231 265.607H463.388L461.891 261Z" fill="#4C004C" stroke="#4C004C" stroke-width="1.33333" stroke-linejoin="bevel"/>
</g>
<mask id="mask15_1238_4818" style="mask-type:luminance" maskUnits="userSpaceOnUse" x="411" y="247" width="145" height="97">
<path d="M555.709 247.565H411.709V343.565H555.709V247.565Z" fill="white"/>
</mask>
<g mask="url(#mask15_1238_4818)">
<path d="M476.436 267.439L474.94 272.045H470.096L474.015 274.892L472.518 279.499L476.436 276.652L480.355 279.499L478.858 274.892L482.777 272.045H477.933L476.436 267.439Z" fill="#022851" stroke="#022851" stroke-width="1.33333" stroke-linejoin="bevel"/>
</g>
<mask id="mask16_1238_4818" style="mask-type:luminance" maskUnits="userSpaceOnUse" x="411" y="247" width="145" height="97">
<path d="M555.709 247.565H411.709V343.565H555.709V247.565Z" fill="white"/>
</mask>
<g mask="url(#mask16_1238_4818)">
<path d="M490.982 274.592L489.485 279.198H484.642L488.56 282.045L487.063 286.652L490.982 283.805L494.901 286.652L493.404 282.045L497.322 279.198H492.479L490.982 274.592Z" fill="#074784" stroke="#074784" stroke-width="1.33333" stroke-linejoin="bevel"/>
</g>
<mask id="mask17_1238_4818" style="mask-type:luminance" maskUnits="userSpaceOnUse" x="411" y="247" width="145" height="97">
<path d="M555.709 247.565H411.709V343.565H555.709V247.565Z" fill="white"/>
</mask>
<g mask="url(#mask17_1238_4818)">
<path d="M505.527 283.176L504.031 287.783H499.187L503.106 290.63L501.609 295.236L505.527 292.389L509.446 295.236L507.949 290.63L511.868 287.783H507.024L505.527 283.176Z" fill="#0E69A7" stroke="#0E69A7" stroke-width="1.33333" stroke-linejoin="bevel"/>
</g>
<mask id="mask18_1238_4818" style="mask-type:luminance" maskUnits="userSpaceOnUse" x="411" y="247" width="145" height="97">
<path d="M555.709 247.565H411.709V343.565H555.709V247.565Z" fill="white"/>
</mask>
<g mask="url(#mask18_1238_4818)">
<path d="M520.073 296.052L518.576 300.659H513.733L517.651 303.506L516.154 308.112L520.073 305.265L523.991 308.112L522.495 303.506L526.413 300.659H521.57L520.073 296.052Z" fill="#5090C9" stroke="#5090C9" stroke-width="1.33333" stroke-linejoin="bevel"/>
</g>
<mask id="mask19_1238_4818" style="mask-type:luminance" maskUnits="userSpaceOnUse" x="411" y="247" width="145" height="97">
<path d="M555.709 247.565H411.709V343.565H555.709V247.565Z" fill="white"/>
</mask>
<g mask="url(#mask19_1238_4818)">
<path d="M534.618 316.079L533.122 320.685H528.278L532.197 323.532L530.7 328.139L534.618 325.292L538.537 328.139L537.04 323.532L540.959 320.685H536.115L534.618 316.079Z" fill="#94C5E8" stroke="#94C5E8" stroke-width="1.33333" stroke-linejoin="bevel"/>
</g>
<mask id="mask20_1238_4818" style="mask-type:luminance" maskUnits="userSpaceOnUse" x="411" y="247" width="145" height="97">
<path d="M555.709 247.565H411.709V343.565H555.709V247.565Z" fill="white"/>
</mask>
<g mask="url(#mask20_1238_4818)">
<path d="M549.164 332.535L547.667 337.142H542.823L546.742 339.989L545.245 344.595L549.164 341.748L553.082 344.595L551.586 339.989L555.504 337.142H550.661L549.164 332.535Z" fill="#C2E5F9" stroke="#C2E5F9" stroke-width="1.33333" stroke-linejoin="bevel"/>
</g>
<path d="M411.709 343.565V247.565" stroke="black" stroke-width="1.06667" stroke-linecap="square"/>
<path d="M555.709 343.565V247.565" stroke="black" stroke-width="1.06667" stroke-linecap="square"/>
<path d="M411.709 343.565H555.709" stroke="black" stroke-width="1.06667" stroke-linecap="square"/>
<path d="M411.709 247.565H555.709" stroke="black" stroke-width="1.06667" stroke-linecap="square"/>
<path d="M36.424 321.072C36.312 321.184 36.16 321.392 35.968 321.696C35.776 321.984 35.592 322.344 35.416 322.776C35.24 323.192 35.088 323.648 34.96 324.144C34.816 324.64 34.744 325.144 34.744 325.656C34.744 326.552 34.912 327.232 35.248 327.696C35.584 328.144 36.056 328.368 36.664 328.368C37.128 328.368 37.496 328.224 37.768 327.936C38.04 327.648 38.272 327.216 38.464 326.64C38.656 326.064 38.864 325.344 39.088 324.48C39.36 323.36 39.696 322.392 40.096 321.576C40.48 320.744 40.992 320.112 41.632 319.68C42.256 319.232 43.088 319.008 44.128 319.008C45.04 319.008 45.824 319.176 46.48 319.512C47.12 319.848 47.64 320.312 48.04 320.904C48.44 321.496 48.736 322.168 48.928 322.92C49.104 323.672 49.192 324.472 49.192 325.32C49.192 326.168 49.104 327.016 48.928 327.864C48.752 328.712 48.504 329.528 48.184 330.312C47.848 331.096 47.448 331.816 46.984 332.472L44.128 331.008C44.272 330.864 44.464 330.608 44.704 330.24C44.928 329.872 45.16 329.424 45.4 328.896C45.624 328.368 45.816 327.792 45.976 327.168C46.136 326.544 46.216 325.912 46.216 325.272C46.216 324.376 46.064 323.696 45.76 323.232C45.456 322.768 45.024 322.536 44.464 322.536C43.952 322.536 43.552 322.72 43.264 323.088C42.976 323.456 42.728 323.968 42.52 324.624C42.296 325.28 42.056 326.056 41.8 326.952C41.496 328.024 41.16 328.92 40.792 329.64C40.408 330.36 39.928 330.896 39.352 331.248C38.776 331.6 38.056 331.776 37.192 331.776C36.024 331.776 35.048 331.504 34.264 330.96C33.464 330.4 32.864 329.648 32.464 328.704C32.048 327.76 31.84 326.712 31.84 325.56C31.84 324.76 31.928 324.008 32.104 323.304C32.28 322.584 32.512 321.912 32.8 321.288C33.088 320.664 33.4 320.104 33.736 319.608L36.424 321.072ZM44.296 317.008L36.424 317.008L36.424 313.792L43.6 313.792C44.56 313.792 45.288 313.616 45.784 313.264C46.264 312.912 46.504 312.392 46.504 311.704C46.504 311.288 46.424 310.88 46.264 310.48C46.088 310.064 45.832 309.688 45.496 309.352C45.16 309 44.736 308.704 44.224 308.464L36.424 308.464L36.424 305.248L45.4 305.248C45.736 305.248 45.976 305.192 46.12 305.08C46.264 304.952 46.352 304.752 46.384 304.48L49 304.48C49.048 304.8 49.08 305.072 49.096 305.296C49.128 305.504 49.144 305.696 49.144 305.872C49.144 306.448 49.016 306.92 48.76 307.288C48.488 307.64 48.12 307.848 47.656 307.912L46.648 307.984C47.496 308.544 48.144 309.264 48.592 310.144C49.024 311.024 49.24 311.992 49.24 313.048C49.24 314.344 48.824 315.328 47.992 316C47.144 316.672 45.912 317.008 44.296 317.008ZM49.24 296.196C49.24 297.22 49.072 298.14 48.736 298.956C48.384 299.772 47.904 300.468 47.296 301.044C46.672 301.62 45.968 302.068 45.184 302.388C44.4 302.692 43.576 302.844 42.712 302.844C41.528 302.844 40.448 302.58 39.472 302.052C38.48 301.508 37.688 300.74 37.096 299.748C36.504 298.756 36.208 297.58 36.208 296.22C36.208 294.86 36.504 293.692 37.096 292.716C37.688 291.74 38.464 291.012 39.424 290.532L40.384 293.676C39.92 293.948 39.568 294.308 39.328 294.756C39.072 295.204 38.944 295.7 38.944 296.244C38.944 296.852 39.104 297.412 39.424 297.924C39.728 298.42 40.168 298.812 40.744 299.1C41.304 299.388 41.96 299.532 42.712 299.532C43.448 299.532 44.104 299.388 44.68 299.1C45.24 298.796 45.688 298.396 46.024 297.9C46.344 297.404 46.504 296.852 46.504 296.244C46.504 295.86 46.44 295.5 46.312 295.164C46.184 294.812 46.008 294.5 45.784 294.228C45.56 293.956 45.304 293.756 45.016 293.628L45.976 290.484C46.6 290.772 47.16 291.196 47.656 291.756C48.152 292.3 48.544 292.948 48.832 293.7C49.104 294.436 49.24 295.268 49.24 296.196ZM49.24 282.766C49.24 283.79 49.072 284.71 48.736 285.526C48.384 286.342 47.904 287.038 47.296 287.614C46.672 288.19 45.968 288.638 45.184 288.958C44.4 289.262 43.576 289.414 42.712 289.414C41.528 289.414 40.448 289.15 39.472 288.622C38.48 288.078 37.688 287.31 37.096 286.318C36.504 285.326 36.208 284.15 36.208 282.79C36.208 281.43 36.504 280.262 37.096 279.286C37.688 278.31 38.464 277.582 39.424 277.102L40.384 280.246C39.92 280.518 39.568 280.878 39.328 281.326C39.072 281.774 38.944 282.27 38.944 282.814C38.944 283.422 39.104 283.982 39.424 284.494C39.728 284.99 40.168 285.382 40.744 285.67C41.304 285.958 41.96 286.102 42.712 286.102C43.448 286.102 44.104 285.958 44.68 285.67C45.24 285.366 45.688 284.966 46.024 284.47C46.344 283.974 46.504 283.422 46.504 282.814C46.504 282.43 46.44 282.07 46.312 281.734C46.184 281.382 46.008 281.07 45.784 280.798C45.56 280.526 45.304 280.326 45.016 280.198L45.976 277.054C46.6 277.342 47.16 277.766 47.656 278.326C48.152 278.87 48.544 279.518 48.832 280.27C49.104 281.006 49.24 281.838 49.24 282.766ZM49.24 269.36C49.24 270.368 49.072 271.28 48.736 272.096C48.384 272.912 47.912 273.608 47.32 274.184C46.712 274.76 46.024 275.208 45.256 275.528C44.472 275.832 43.648 275.984 42.784 275.984C41.584 275.984 40.488 275.72 39.496 275.192C38.504 274.648 37.712 273.88 37.12 272.888C36.512 271.88 36.208 270.696 36.208 269.336C36.208 267.96 36.512 266.784 37.12 265.808C37.712 264.832 38.504 264.088 39.496 263.576C40.472 263.048 41.528 262.784 42.664 262.784C42.856 262.784 43.056 262.792 43.264 262.808C43.456 262.824 43.616 262.84 43.744 262.856L43.744 272.576C44.384 272.512 44.944 272.328 45.424 272.024C45.904 271.704 46.272 271.304 46.528 270.824C46.768 270.328 46.888 269.8 46.888 269.24C46.888 268.6 46.736 268 46.432 267.44C46.112 266.864 45.696 266.472 45.184 266.264L45.952 263.504C46.592 263.808 47.16 264.248 47.656 264.824C48.152 265.384 48.544 266.048 48.832 266.816C49.104 267.584 49.24 268.432 49.24 269.36ZM41.704 272.648L41.704 266.072C41.064 266.136 40.512 266.32 40.048 266.624C39.568 266.912 39.2 267.296 38.944 267.776C38.672 268.256 38.536 268.792 38.536 269.384C38.536 269.96 38.672 270.488 38.944 270.968C39.2 271.432 39.568 271.816 40.048 272.12C40.512 272.408 41.064 272.584 41.704 272.648ZM49.24 256.193C49.24 257.265 49.064 258.289 48.712 259.265C48.36 260.241 47.84 261.081 47.152 261.785L45.064 260.633C45.672 259.881 46.12 259.145 46.408 258.425C46.696 257.689 46.84 256.985 46.84 256.313C46.84 255.689 46.728 255.193 46.504 254.825C46.28 254.441 45.944 254.249 45.496 254.249C45.192 254.249 44.96 254.353 44.8 254.561C44.624 254.769 44.472 255.073 44.344 255.473C44.216 255.857 44.072 256.329 43.912 256.889C43.608 257.817 43.312 258.593 43.024 259.217C42.736 259.841 42.376 260.313 41.944 260.633C41.496 260.937 40.928 261.089 40.24 261.089C39.408 261.089 38.696 260.881 38.104 260.465C37.496 260.033 37.024 259.441 36.688 258.689C36.352 257.921 36.184 257.025 36.184 256.001C36.184 255.105 36.328 254.257 36.616 253.457C36.888 252.657 37.336 251.929 37.96 251.273L40 252.569C39.504 253.209 39.144 253.817 38.92 254.393C38.68 254.969 38.56 255.553 38.56 256.145C38.56 256.481 38.6 256.801 38.68 257.105C38.76 257.393 38.896 257.633 39.088 257.825C39.264 258.001 39.52 258.089 39.856 258.089C40.16 258.089 40.4 258.009 40.576 257.849C40.736 257.673 40.88 257.417 41.008 257.081C41.136 256.729 41.28 256.305 41.44 255.809C41.728 254.801 42.024 253.953 42.328 253.265C42.632 252.561 43.008 252.033 43.456 251.681C43.888 251.329 44.488 251.153 45.256 251.153C46.504 251.153 47.48 251.609 48.184 252.521C48.888 253.433 49.24 254.657 49.24 256.193ZM49.24 244.334C49.24 245.406 49.064 246.43 48.712 247.406C48.36 248.382 47.84 249.222 47.152 249.926L45.064 248.774C45.672 248.022 46.12 247.286 46.408 246.566C46.696 245.83 46.84 245.126 46.84 244.454C46.84 243.83 46.728 243.334 46.504 242.966C46.28 242.582 45.944 242.39 45.496 242.39C45.192 242.39 44.96 242.494 44.8 242.702C44.624 242.91 44.472 243.214 44.344 243.614C44.216 243.998 44.072 244.47 43.912 245.03C43.608 245.958 43.312 246.734 43.024 247.358C42.736 247.982 42.376 248.454 41.944 248.774C41.496 249.078 40.928 249.23 40.24 249.23C39.408 249.23 38.696 249.022 38.104 248.606C37.496 248.174 37.024 247.582 36.688 246.83C36.352 246.062 36.184 245.166 36.184 244.142C36.184 243.246 36.328 242.398 36.616 241.598C36.888 240.798 37.336 240.07 37.96 239.414L40 240.71C39.504 241.35 39.144 241.958 38.92 242.534C38.68 243.11 38.56 243.694 38.56 244.286C38.56 244.622 38.6 244.942 38.68 245.246C38.76 245.534 38.896 245.774 39.088 245.966C39.264 246.142 39.52 246.23 39.856 246.23C40.16 246.23 40.4 246.15 40.576 245.99C40.736 245.814 40.88 245.558 41.008 245.222C41.136 244.87 41.28 244.446 41.44 243.95C41.728 242.942 42.024 242.094 42.328 241.406C42.632 240.702 43.008 240.174 43.456 239.822C43.888 239.47 44.488 239.294 45.256 239.294C46.504 239.294 47.48 239.75 48.184 240.662C48.888 241.574 49.24 242.798 49.24 244.334ZM49 231.029L31.96 231.029L31.96 223.805C31.96 223.021 32.12 222.301 32.44 221.645C32.76 220.989 33.192 220.421 33.736 219.941C34.28 219.445 34.888 219.061 35.56 218.789C36.232 218.517 36.92 218.381 37.624 218.381C38.584 218.381 39.496 218.605 40.36 219.053C41.224 219.501 41.928 220.117 42.472 220.901C43.016 221.685 43.288 222.613 43.288 223.685L43.288 227.717L49 227.717L49 231.029ZM40.384 227.717L40.384 223.877C40.384 223.477 40.272 223.117 40.048 222.797C39.824 222.477 39.504 222.221 39.088 222.029C38.656 221.837 38.168 221.741 37.624 221.741C37.032 221.741 36.528 221.853 36.112 222.077C35.696 222.285 35.384 222.565 35.176 222.917C34.968 223.253 34.864 223.621 34.864 224.021L34.864 227.717L40.384 227.717ZM39.208 208.9C39.208 209.876 39.4 210.748 39.784 211.516C40.152 212.284 40.688 212.836 41.392 213.172L49 213.172L49 216.388L36.424 216.388L36.424 213.436L39.112 213.436C38.248 212.988 37.568 212.42 37.072 211.732C36.576 211.044 36.304 210.316 36.256 209.548C36.256 209.372 36.256 209.236 36.256 209.14C36.256 209.044 36.264 208.964 36.28 208.9L39.208 208.9ZM49.24 201.462C49.24 202.486 49.072 203.406 48.736 204.222C48.384 205.038 47.904 205.734 47.296 206.31C46.688 206.87 45.992 207.302 45.208 207.606C44.424 207.91 43.6 208.062 42.736 208.062C41.856 208.062 41.024 207.91 40.24 207.606C39.456 207.302 38.76 206.87 38.152 206.31C37.544 205.734 37.072 205.038 36.736 204.222C36.384 203.406 36.208 202.486 36.208 201.462C36.208 200.438 36.384 199.526 36.736 198.726C37.072 197.91 37.544 197.214 38.152 196.638C38.76 196.062 39.456 195.63 40.24 195.342C41.024 195.038 41.856 194.886 42.736 194.886C43.6 194.886 44.424 195.038 45.208 195.342C45.992 195.63 46.688 196.062 47.296 196.638C47.904 197.198 48.384 197.886 48.736 198.702C49.072 199.518 49.24 200.438 49.24 201.462ZM42.736 204.75C43.472 204.75 44.128 204.606 44.704 204.318C45.264 204.03 45.704 203.638 46.024 203.142C46.344 202.646 46.504 202.086 46.504 201.462C46.504 200.854 46.344 200.302 46.024 199.806C45.688 199.31 45.24 198.918 44.68 198.63C44.104 198.326 43.448 198.174 42.712 198.174C41.992 198.174 41.344 198.326 40.768 198.63C40.192 198.918 39.744 199.31 39.424 199.806C39.104 200.302 38.944 200.854 38.944 201.462C38.944 202.086 39.112 202.646 39.448 203.142C39.768 203.638 40.216 204.03 40.792 204.318C41.352 204.606 42 204.75 42.736 204.75ZM49.24 185.564C49.24 186.524 49.024 187.38 48.592 188.132C48.16 188.884 47.568 189.476 46.816 189.908L49 189.908L49 192.716L31.48 192.716L31.48 189.5L38.632 189.5C37.88 189.052 37.288 188.468 36.856 187.748C36.424 187.012 36.208 186.156 36.208 185.18C36.208 184.364 36.384 183.62 36.736 182.948C37.072 182.276 37.544 181.7 38.152 181.22C38.76 180.724 39.456 180.348 40.24 180.092C41.024 179.82 41.864 179.684 42.76 179.684C43.656 179.684 44.496 179.836 45.28 180.14C46.064 180.428 46.76 180.836 47.368 181.364C47.96 181.892 48.424 182.516 48.76 183.236C49.08 183.94 49.24 184.716 49.24 185.564ZM46.504 186.452C46.504 185.94 46.408 185.476 46.216 185.06C46.008 184.628 45.736 184.26 45.4 183.956C45.064 183.636 44.672 183.396 44.224 183.236C43.76 183.06 43.28 182.972 42.784 182.972C42.096 182.972 41.464 183.116 40.888 183.404C40.296 183.676 39.824 184.06 39.472 184.556C39.12 185.036 38.944 185.604 38.944 186.26C38.944 186.724 39.056 187.172 39.28 187.604C39.488 188.02 39.776 188.396 40.144 188.732C40.512 189.052 40.928 189.308 41.392 189.5L44.392 189.5C44.712 189.404 45 189.252 45.256 189.044C45.512 188.82 45.736 188.564 45.928 188.276C46.104 187.988 46.248 187.692 46.36 187.388C46.456 187.068 46.504 186.756 46.504 186.452ZM45.28 178.369C44.464 178.369 43.752 178.145 43.144 177.697C42.52 177.233 42.04 176.593 41.704 175.777C41.368 174.961 41.2 174.025 41.2 172.969C41.2 172.441 41.24 171.905 41.32 171.361C41.4 170.817 41.528 170.345 41.704 169.945L41.032 169.945C40.232 169.945 39.616 170.185 39.184 170.665C38.752 171.129 38.536 171.825 38.536 172.753C38.536 173.441 38.656 174.097 38.896 174.721C39.136 175.345 39.488 176.001 39.952 176.689L37.84 177.721C37.296 176.889 36.888 176.041 36.616 175.177C36.344 174.297 36.208 173.377 36.208 172.417C36.208 170.625 36.656 169.233 37.552 168.241C38.448 167.233 39.728 166.729 41.392 166.729L45.4 166.729C45.736 166.729 45.976 166.673 46.12 166.561C46.264 166.433 46.352 166.233 46.384 165.961L49 165.961C49.048 166.249 49.088 166.513 49.12 166.753C49.152 166.977 49.168 167.169 49.168 167.329C49.168 167.969 49.024 168.457 48.736 168.793C48.448 169.113 48.096 169.313 47.68 169.393L47.032 169.465C47.736 170.009 48.28 170.689 48.664 171.505C49.048 172.321 49.24 173.153 49.24 174.001C49.24 174.833 49.072 175.585 48.736 176.257C48.384 176.913 47.912 177.433 47.32 177.817C46.712 178.185 46.032 178.369 45.28 178.369ZM45.928 170.545C45.736 170.369 45.544 170.225 45.352 170.113C45.16 170.001 44.984 169.945 44.824 169.945L43.552 169.945C43.392 170.329 43.272 170.745 43.192 171.193C43.096 171.641 43.048 172.065 43.048 172.465C43.048 173.297 43.232 173.985 43.6 174.529C43.952 175.057 44.424 175.321 45.016 175.321C45.336 175.321 45.64 175.233 45.928 175.057C46.216 174.881 46.448 174.625 46.624 174.289C46.8 173.953 46.888 173.553 46.888 173.089C46.888 172.609 46.8 172.137 46.624 171.673C46.432 171.209 46.2 170.833 45.928 170.545ZM49.24 156.571C49.24 157.531 49.024 158.387 48.592 159.139C48.16 159.891 47.568 160.483 46.816 160.915L49 160.915L49 163.723L31.48 163.723L31.48 160.507L38.632 160.507C37.88 160.059 37.288 159.475 36.856 158.755C36.424 158.019 36.208 157.163 36.208 156.187C36.208 155.371 36.384 154.627 36.736 153.955C37.072 153.283 37.544 152.707 38.152 152.227C38.76 151.731 39.456 151.355 40.24 151.099C41.024 150.827 41.864 150.691 42.76 150.691C43.656 150.691 44.496 150.843 45.28 151.147C46.064 151.435 46.76 151.843 47.368 152.371C47.96 152.899 48.424 153.523 48.76 154.243C49.08 154.947 49.24 155.723 49.24 156.571ZM46.504 157.459C46.504 156.947 46.408 156.483 46.216 156.067C46.008 155.635 45.736 155.267 45.4 154.963C45.064 154.643 44.672 154.403 44.224 154.243C43.76 154.067 43.28 153.979 42.784 153.979C42.096 153.979 41.464 154.123 40.888 154.411C40.296 154.683 39.824 155.067 39.472 155.563C39.12 156.043 38.944 156.611 38.944 157.267C38.944 157.731 39.056 158.179 39.28 158.611C39.488 159.027 39.776 159.403 40.144 159.739C40.512 160.059 40.928 160.315 41.392 160.507L44.392 160.507C44.712 160.411 45 160.259 45.256 160.051C45.512 159.827 45.736 159.571 45.928 159.283C46.104 158.995 46.248 158.699 46.36 158.395C46.456 158.075 46.504 157.763 46.504 157.459ZM49 148.513L36.424 148.513L36.424 145.297L49 145.297L49 148.513ZM34.672 148.513L31.48 148.513L31.48 145.297L34.672 145.297L34.672 148.513ZM31.48 142.419L31.48 139.203L44.968 139.203C45.544 139.203 45.936 139.107 46.144 138.915C46.336 138.723 46.432 138.459 46.432 138.123C46.432 137.867 46.4 137.603 46.336 137.331C46.272 137.059 46.192 136.819 46.096 136.611L48.544 136.179C48.752 136.611 48.912 137.115 49.024 137.691C49.136 138.267 49.192 138.787 49.192 139.251C49.192 140.259 48.928 141.043 48.4 141.603C47.856 142.147 47.088 142.419 46.096 142.419L31.48 142.419ZM49 134.778L36.424 134.778L36.424 131.562L49 131.562L49 134.778ZM34.672 134.778L31.48 134.778L31.48 131.562L34.672 131.562L34.672 134.778ZM48.352 121.125C48.464 121.397 48.592 121.725 48.736 122.109C48.88 122.493 48.992 122.909 49.072 123.357C49.168 123.789 49.216 124.229 49.216 124.677C49.216 125.269 49.112 125.813 48.904 126.309C48.696 126.805 48.368 127.205 47.92 127.509C47.456 127.797 46.856 127.941 46.12 127.941L38.896 127.941L38.896 129.597L36.424 129.597L36.424 127.941L32.344 127.941L32.344 124.725L36.424 124.725L36.424 122.085L38.896 122.085L38.896 124.725L45.04 124.725C45.472 124.709 45.784 124.589 45.976 124.365C46.168 124.141 46.264 123.861 46.264 123.525C46.264 123.189 46.208 122.861 46.096 122.541C45.984 122.221 45.888 121.965 45.808 121.773L48.352 121.125ZM51.448 119.233C51.512 118.945 51.568 118.681 51.616 118.441C51.664 118.185 51.688 117.969 51.688 117.793C51.688 117.489 51.608 117.241 51.448 117.049C51.304 116.841 51.032 116.641 50.632 116.449C50.248 116.257 49.704 116.057 49 115.849L36.424 120.817L36.424 117.481L45.712 114.097L36.424 111.121L36.424 108.049L51.496 113.329C52.056 113.521 52.56 113.817 53.008 114.217C53.472 114.601 53.832 115.089 54.088 115.681C54.36 116.257 54.496 116.905 54.496 117.625C54.496 117.881 54.472 118.137 54.424 118.393C54.392 118.649 54.328 118.929 54.232 119.233L51.448 119.233Z" fill="black"/>
<path d="M223.088 399.056V410H219.776V392.96H222.416L231.224 404.192V392.984H234.536V410H231.776L223.088 399.056ZM237.649 405.296V397.424H240.865V404.6C240.865 405.56 241.041 406.288 241.393 406.784C241.745 407.264 242.265 407.504 242.953 407.504C243.369 407.504 243.777 407.424 244.177 407.264C244.593 407.088 244.969 406.832 245.305 406.496C245.657 406.16 245.953 405.736 246.193 405.224V397.424H249.409V406.4C249.409 406.736 249.465 406.976 249.577 407.12C249.705 407.264 249.905 407.352 250.177 407.384V410C249.857 410.048 249.585 410.08 249.361 410.096C249.153 410.128 248.961 410.144 248.785 410.144C248.209 410.144 247.737 410.016 247.369 409.76C247.017 409.488 246.809 409.12 246.745 408.656L246.673 407.648C246.113 408.496 245.393 409.144 244.513 409.592C243.633 410.024 242.665 410.24 241.609 410.24C240.313 410.24 239.329 409.824 238.657 408.992C237.985 408.144 237.649 406.912 237.649 405.296ZM272.141 410H268.925V402.944C268.925 401.952 268.749 401.224 268.397 400.76C268.061 400.28 267.589 400.04 266.981 400.04C266.357 400.04 265.757 400.288 265.181 400.784C264.621 401.264 264.221 401.896 263.981 402.68V410H260.765V402.944C260.765 401.936 260.589 401.2 260.237 400.736C259.901 400.272 259.429 400.04 258.821 400.04C258.197 400.04 257.597 400.28 257.021 400.76C256.461 401.24 256.061 401.872 255.821 402.656V410H252.605V397.424H255.509V399.752C255.989 398.936 256.629 398.312 257.429 397.88C258.229 397.432 259.149 397.208 260.189 397.208C261.229 397.208 262.037 397.464 262.613 397.976C263.205 398.488 263.581 399.12 263.741 399.872C264.253 399.008 264.901 398.352 265.685 397.904C266.485 397.44 267.381 397.208 268.373 397.208C269.157 397.208 269.789 397.352 270.269 397.64C270.765 397.912 271.149 398.288 271.421 398.768C271.693 399.232 271.877 399.76 271.973 400.352C272.085 400.944 272.141 401.544 272.141 402.152V410ZM282.093 410.24C281.133 410.24 280.277 410.024 279.525 409.592C278.773 409.16 278.181 408.568 277.749 407.816V410H274.941V392.48H278.157V399.632C278.605 398.88 279.189 398.288 279.909 397.856C280.645 397.424 281.501 397.208 282.477 397.208C283.293 397.208 284.037 397.384 284.709 397.736C285.381 398.072 285.957 398.544 286.437 399.152C286.933 399.76 287.309 400.456 287.565 401.24C287.837 402.024 287.973 402.864 287.973 403.76C287.973 404.656 287.821 405.496 287.517 406.28C287.229 407.064 286.821 407.76 286.293 408.368C285.765 408.96 285.141 409.424 284.421 409.76C283.717 410.08 282.941 410.24 282.093 410.24ZM281.205 407.504C281.717 407.504 282.181 407.408 282.597 407.216C283.029 407.008 283.397 406.736 283.701 406.4C284.021 406.064 284.261 405.672 284.421 405.224C284.597 404.76 284.685 404.28 284.685 403.784C284.685 403.096 284.541 402.464 284.253 401.888C283.981 401.296 283.597 400.824 283.101 400.472C282.621 400.12 282.053 399.944 281.397 399.944C280.933 399.944 280.485 400.056 280.053 400.28C279.637 400.488 279.261 400.776 278.925 401.144C278.605 401.512 278.349 401.928 278.157 402.392V405.392C278.253 405.712 278.405 406 278.613 406.256C278.837 406.512 279.093 406.736 279.381 406.928C279.669 407.104 279.965 407.248 280.269 407.36C280.589 407.456 280.901 407.504 281.205 407.504ZM295.984 410.24C294.976 410.24 294.064 410.072 293.248 409.736C292.432 409.384 291.736 408.912 291.16 408.32C290.584 407.712 290.136 407.024 289.816 406.256C289.512 405.472 289.36 404.648 289.36 403.784C289.36 402.584 289.624 401.488 290.152 400.496C290.696 399.504 291.464 398.712 292.456 398.12C293.464 397.512 294.648 397.208 296.008 397.208C297.384 397.208 298.56 397.512 299.536 398.12C300.512 398.712 301.256 399.504 301.768 400.496C302.296 401.472 302.56 402.528 302.56 403.664C302.56 403.856 302.552 404.056 302.536 404.264C302.52 404.456 302.504 404.616 302.488 404.744H292.768C292.832 405.384 293.016 405.944 293.32 406.424C293.64 406.904 294.04 407.272 294.52 407.528C295.016 407.768 295.544 407.888 296.104 407.888C296.744 407.888 297.344 407.736 297.904 407.432C298.48 407.112 298.872 406.696 299.08 406.184L301.84 406.952C301.536 407.592 301.096 408.16 300.52 408.656C299.96 409.152 299.296 409.544 298.528 409.832C297.76 410.104 296.912 410.24 295.984 410.24ZM292.696 402.704H299.272C299.208 402.064 299.024 401.512 298.72 401.048C298.432 400.568 298.048 400.2 297.568 399.944C297.088 399.672 296.552 399.536 295.96 399.536C295.384 399.536 294.856 399.672 294.376 399.944C293.912 400.2 293.528 400.568 293.224 401.048C292.936 401.512 292.76 402.064 292.696 402.704ZM312.007 400.208C311.031 400.208 310.159 400.4 309.391 400.784C308.623 401.152 308.071 401.688 307.735 402.392V410H304.519V397.424H307.471V400.112C307.919 399.248 308.487 398.568 309.175 398.072C309.863 397.576 310.591 397.304 311.359 397.256C311.535 397.256 311.671 397.256 311.767 397.256C311.863 397.256 311.943 397.264 312.007 397.28V400.208ZM324.835 410.24C323.811 410.24 322.891 410.072 322.075 409.736C321.259 409.384 320.563 408.904 319.987 408.296C319.427 407.688 318.995 406.992 318.691 406.208C318.387 405.424 318.235 404.6 318.235 403.736C318.235 402.856 318.387 402.024 318.691 401.24C318.995 400.456 319.427 399.76 319.987 399.152C320.563 398.544 321.259 398.072 322.075 397.736C322.891 397.384 323.811 397.208 324.835 397.208C325.859 397.208 326.771 397.384 327.571 397.736C328.387 398.072 329.083 398.544 329.659 399.152C330.235 399.76 330.667 400.456 330.955 401.24C331.259 402.024 331.411 402.856 331.411 403.736C331.411 404.6 331.259 405.424 330.955 406.208C330.667 406.992 330.235 407.688 329.659 408.296C329.099 408.904 328.411 409.384 327.595 409.736C326.779 410.072 325.859 410.24 324.835 410.24ZM321.547 403.736C321.547 404.472 321.691 405.128 321.979 405.704C322.267 406.264 322.659 406.704 323.155 407.024C323.651 407.344 324.211 407.504 324.835 407.504C325.443 407.504 325.995 407.344 326.491 407.024C326.987 406.688 327.379 406.24 327.667 405.68C327.971 405.104 328.123 404.448 328.123 403.712C328.123 402.992 327.971 402.344 327.667 401.768C327.379 401.192 326.987 400.744 326.491 400.424C325.995 400.104 325.443 399.944 324.835 399.944C324.211 399.944 323.651 400.112 323.155 400.448C322.659 400.768 322.267 401.216 321.979 401.792C321.691 402.352 321.547 403 321.547 403.736ZM334.232 410V400.544H332.576V398.096H334.232V397.328C334.232 396.288 334.4 395.392 334.736 394.64C335.088 393.872 335.576 393.28 336.2 392.864C336.84 392.448 337.584 392.24 338.432 392.24C338.944 392.24 339.456 392.304 339.968 392.432C340.496 392.56 341.016 392.744 341.528 392.984L340.88 395.408C340.64 395.28 340.36 395.176 340.04 395.096C339.72 395 339.416 394.952 339.128 394.952C338.584 394.952 338.168 395.144 337.88 395.528C337.592 395.912 337.448 396.472 337.448 397.208V398.096H340.52V400.544H337.448V410H334.232ZM346.877 401.36C346.877 400.32 347.061 399.304 347.429 398.312C347.813 397.304 348.365 396.392 349.085 395.576C349.805 394.744 350.685 394.088 351.725 393.608C352.765 393.112 353.949 392.864 355.277 392.864C356.845 392.864 358.197 393.208 359.333 393.896C360.485 394.584 361.341 395.48 361.901 396.584L359.357 398.336C359.069 397.696 358.693 397.192 358.229 396.824C357.765 396.44 357.269 396.176 356.741 396.032C356.213 395.872 355.693 395.792 355.181 395.792C354.349 395.792 353.621 395.96 352.997 396.296C352.389 396.632 351.877 397.072 351.461 397.616C351.045 398.16 350.733 398.768 350.525 399.44C350.333 400.112 350.237 400.784 350.237 401.456C350.237 402.208 350.357 402.936 350.597 403.64C350.837 404.328 351.173 404.944 351.605 405.488C352.053 406.016 352.581 406.44 353.189 406.76C353.813 407.064 354.493 407.216 355.229 407.216C355.757 407.216 356.293 407.128 356.837 406.952C357.381 406.776 357.885 406.496 358.349 406.112C358.813 405.728 359.173 405.232 359.429 404.624L362.141 406.184C361.805 407.032 361.253 407.752 360.485 408.344C359.733 408.936 358.885 409.384 357.941 409.688C356.997 409.992 356.061 410.144 355.133 410.144C353.917 410.144 352.805 409.896 351.797 409.4C350.789 408.888 349.917 408.216 349.181 407.384C348.461 406.536 347.893 405.592 347.477 404.552C347.077 403.496 346.877 402.432 346.877 401.36ZM364.314 412.448C364.602 412.512 364.866 412.568 365.106 412.616C365.362 412.664 365.578 412.688 365.754 412.688C366.058 412.688 366.306 412.608 366.498 412.448C366.706 412.304 366.906 412.032 367.098 411.632C367.29 411.248 367.49 410.704 367.698 410L362.73 397.424H366.066L369.45 406.712L372.426 397.424H375.498L370.218 412.496C370.026 413.056 369.73 413.56 369.33 414.008C368.946 414.472 368.458 414.832 367.866 415.088C367.29 415.36 366.642 415.496 365.922 415.496C365.666 415.496 365.41 415.472 365.154 415.424C364.898 415.392 364.618 415.328 364.314 415.232V412.448ZM382.679 410.24C381.655 410.24 380.735 410.072 379.919 409.736C379.103 409.384 378.407 408.904 377.831 408.296C377.255 407.672 376.807 406.968 376.487 406.184C376.183 405.4 376.031 404.576 376.031 403.712C376.031 402.528 376.295 401.448 376.823 400.472C377.367 399.48 378.135 398.688 379.127 398.096C380.119 397.504 381.295 397.208 382.655 397.208C384.015 397.208 385.183 397.504 386.159 398.096C387.135 398.688 387.863 399.464 388.343 400.424L385.199 401.384C384.927 400.92 384.567 400.568 384.119 400.328C383.671 400.072 383.175 399.944 382.631 399.944C382.023 399.944 381.463 400.104 380.951 400.424C380.455 400.728 380.063 401.168 379.775 401.744C379.487 402.304 379.343 402.96 379.343 403.712C379.343 404.448 379.487 405.104 379.775 405.68C380.079 406.24 380.479 406.688 380.975 407.024C381.471 407.344 382.023 407.504 382.631 407.504C383.015 407.504 383.375 407.44 383.711 407.312C384.063 407.184 384.375 407.008 384.647 406.784C384.919 406.56 385.119 406.304 385.247 406.016L388.391 406.976C388.103 407.6 387.679 408.16 387.119 408.656C386.575 409.152 385.927 409.544 385.175 409.832C384.439 410.104 383.607 410.24 382.679 410.24ZM390.346 392.48H393.562V405.968C393.562 406.544 393.658 406.936 393.85 407.144C394.042 407.336 394.306 407.432 394.642 407.432C394.898 407.432 395.162 407.4 395.434 407.336C395.706 407.272 395.946 407.192 396.154 407.096L396.586 409.544C396.154 409.752 395.65 409.912 395.074 410.024C394.498 410.136 393.978 410.192 393.514 410.192C392.506 410.192 391.722 409.928 391.162 409.4C390.618 408.856 390.346 408.088 390.346 407.096V392.48ZM403.819 410.24C402.811 410.24 401.899 410.072 401.083 409.736C400.267 409.384 399.571 408.912 398.995 408.32C398.419 407.712 397.971 407.024 397.651 406.256C397.347 405.472 397.195 404.648 397.195 403.784C397.195 402.584 397.459 401.488 397.987 400.496C398.531 399.504 399.299 398.712 400.291 398.12C401.299 397.512 402.483 397.208 403.843 397.208C405.219 397.208 406.395 397.512 407.371 398.12C408.347 398.712 409.091 399.504 409.603 400.496C410.131 401.472 410.395 402.528 410.395 403.664C410.395 403.856 410.387 404.056 410.371 404.264C410.355 404.456 410.339 404.616 410.323 404.744L400.603 404.744C400.667 405.384 400.851 405.944 401.155 406.424C401.475 406.904 401.875 407.272 402.355 407.528C402.851 407.768 403.379 407.888 403.939 407.888C404.579 407.888 405.179 407.736 405.739 407.432C406.315 407.112 406.707 406.696 406.915 406.184L409.675 406.952C409.371 407.592 408.931 408.16 408.355 408.656C407.795 409.152 407.131 409.544 406.363 409.832C405.595 410.104 404.747 410.24 403.819 410.24ZM400.531 402.704H407.107C407.043 402.064 406.859 401.512 406.555 401.048C406.267 400.568 405.883 400.2 405.403 399.944C404.923 399.672 404.387 399.536 403.795 399.536C403.219 399.536 402.691 399.672 402.211 399.944C401.747 400.2 401.363 400.568 401.059 401.048C400.771 401.512 400.595 402.064 400.531 402.704ZM416.987 410.24C415.915 410.24 414.891 410.064 413.915 409.712C412.939 409.36 412.099 408.84 411.395 408.152L412.547 406.064C413.299 406.672 414.035 407.12 414.755 407.408C415.491 407.696 416.195 407.84 416.867 407.84C417.491 407.84 417.987 407.728 418.355 407.504C418.739 407.28 418.931 406.944 418.931 406.496C418.931 406.192 418.827 405.96 418.619 405.8C418.411 405.624 418.107 405.472 417.707 405.344C417.323 405.216 416.851 405.072 416.291 404.912C415.363 404.608 414.587 404.312 413.963 404.024C413.339 403.736 412.867 403.376 412.547 402.944C412.243 402.496 412.091 401.928 412.091 401.24C412.091 400.408 412.299 399.696 412.715 399.104C413.147 398.496 413.739 398.024 414.491 397.688C415.259 397.352 416.155 397.184 417.179 397.184C418.075 397.184 418.923 397.328 419.723 397.616C420.523 397.888 421.251 398.336 421.907 398.96L420.611 401C419.971 400.504 419.363 400.144 418.787 399.92C418.211 399.68 417.627 399.56 417.035 399.56C416.699 399.56 416.379 399.6 416.075 399.68C415.787 399.76 415.547 399.896 415.355 400.088C415.179 400.264 415.091 400.52 415.091 400.856C415.091 401.16 415.171 401.4 415.331 401.576C415.507 401.736 415.763 401.88 416.099 402.008C416.451 402.136 416.875 402.28 417.371 402.44C418.379 402.728 419.227 403.024 419.915 403.328C420.619 403.632 421.147 404.008 421.499 404.456C421.851 404.888 422.027 405.488 422.027 406.256C422.027 407.504 421.571 408.48 420.659 409.184C419.747 409.888 418.523 410.24 416.987 410.24Z" fill="black"/>
</svg>
