<svg width="640" height="440" viewBox="0 0 640 440" fill="none" xmlns="http://www.w3.org/2000/svg">
<rect x="0.5" y="0.5" width="639" height="439" fill="#F6F3ED"/>
<rect x="0.5" y="0.5" width="639" height="439" stroke="#E0DBC8"/>
<path d="M129.429 339.118H575.829V49.1985H129.429V339.118Z" fill="white"/>
<path d="M129.429 339.118V343.785V339.118Z" fill="black"/>
<path d="M129.429 339.118V343.785" stroke="black" stroke-width="1.06667"/>
<path d="M108.41 361.836H111.632V350.711L108.126 351.414V349.617L111.614 348.914H113.585V361.836H116.807V363.495H108.41V361.836Z" fill="black"/>
<path d="M125.01 350.214C123.995 350.214 123.232 350.714 122.719 351.714C122.209 352.712 121.954 354.214 121.954 356.22C121.954 358.218 122.209 359.717 122.719 360.717C123.232 361.717 123.995 362.217 125.01 362.217C126.033 362.217 126.8 361.717 127.31 360.717C127.823 359.717 128.079 358.218 128.079 356.22C128.079 354.214 127.823 352.712 127.31 351.714C126.8 350.714 126.033 350.214 125.01 350.214ZM125.01 348.652C126.645 348.652 127.894 349.299 128.757 350.592C129.619 351.884 130.051 353.76 130.051 356.22C130.051 358.675 129.619 360.549 128.757 361.842C127.894 363.134 126.645 363.78 125.01 363.78C123.377 363.78 122.129 363.134 121.266 361.842C120.404 360.549 119.973 358.675 119.973 356.22C119.973 353.76 120.404 351.884 121.266 350.592C122.129 349.299 123.377 348.652 125.01 348.652Z" fill="black"/>
<path d="M133.053 350.869H141.816V352.031H133.053V350.869Z" fill="black"/>
<path d="M145.986 354.678H150.806V355.839H144.326V354.678C144.85 354.135 145.564 353.407 146.468 352.495C147.373 351.58 147.942 350.99 148.174 350.725C148.616 350.229 148.924 349.809 149.099 349.465C149.276 349.121 149.364 348.782 149.364 348.45C149.364 347.907 149.174 347.465 148.793 347.124C148.412 346.782 147.917 346.61 147.306 346.61C146.872 346.61 146.415 346.685 145.934 346.835C145.454 346.986 144.941 347.214 144.394 347.52V346.125C144.95 345.901 145.469 345.733 145.951 345.619C146.436 345.505 146.878 345.449 147.279 345.449C148.337 345.449 149.18 345.713 149.808 346.243C150.437 346.771 150.751 347.476 150.751 348.36C150.751 348.78 150.672 349.178 150.515 349.555C150.359 349.929 150.073 350.372 149.657 350.882C149.543 351.015 149.181 351.397 148.57 352.029C147.96 352.66 147.099 353.543 145.986 354.678Z" fill="black"/>
<path d="M224.429 339.118V343.785V339.118Z" fill="black"/>
<path d="M224.429 339.118V343.785" stroke="black" stroke-width="1.06667"/>
<path d="M319.428 339.118V343.785V339.118Z" fill="black"/>
<path d="M319.428 339.118V343.785" stroke="black" stroke-width="1.06667"/>
<path d="M304.31 361.836H307.531V350.711L304.025 351.414V349.617L307.513 348.914H309.485V361.836H312.706V363.495H304.31V361.836Z" fill="black"/>
<path d="M320.909 350.214C319.895 350.214 319.131 350.714 318.619 351.714C318.108 352.712 317.853 354.214 317.853 356.22C317.853 358.218 318.108 359.717 318.619 360.717C319.131 361.717 319.895 362.217 320.909 362.217C321.932 362.217 322.699 361.717 323.209 360.717C323.722 359.717 323.978 358.218 323.978 356.22C323.978 354.214 323.722 352.712 323.209 351.714C322.699 350.714 321.932 350.214 320.909 350.214ZM320.909 348.652C322.545 348.652 323.794 349.299 324.656 350.592C325.519 351.884 325.95 353.76 325.95 356.22C325.95 358.675 325.519 360.549 324.656 361.842C323.794 363.134 322.545 363.78 320.909 363.78C319.276 363.78 318.028 363.134 317.165 361.842C316.303 360.549 315.872 358.675 315.872 356.22C315.872 353.76 316.303 351.884 317.165 350.592C318.028 349.299 319.276 348.652 320.909 348.652Z" fill="black"/>
<path d="M331.918 346.542C331.208 346.542 330.674 346.892 330.315 347.592C329.958 348.291 329.779 349.342 329.779 350.747C329.779 352.145 329.958 353.194 330.315 353.894C330.674 354.594 331.208 354.944 331.918 354.944C332.634 354.944 333.171 354.594 333.528 353.894C333.887 353.194 334.066 352.145 334.066 350.747C334.066 349.342 333.887 348.291 333.528 347.592C333.171 346.892 332.634 346.542 331.918 346.542ZM331.918 345.449C333.063 345.449 333.937 345.901 334.541 346.807C335.145 347.711 335.447 349.024 335.447 350.747C335.447 352.465 335.145 353.776 334.541 354.682C333.937 355.586 333.063 356.038 331.918 356.038C330.775 356.038 329.901 355.586 329.298 354.682C328.694 353.776 328.392 352.465 328.392 350.747C328.392 349.024 328.694 347.711 329.298 346.807C329.901 345.901 330.775 345.449 331.918 345.449Z" fill="black"/>
<path d="M414.428 339.118V343.785V339.118Z" fill="black"/>
<path d="M414.428 339.118V343.785" stroke="black" stroke-width="1.06667"/>
<path d="M509.427 339.118V343.785V339.118Z" fill="black"/>
<path d="M509.427 339.118V343.785" stroke="black" stroke-width="1.06667"/>
<path d="M494.309 361.836H497.53V350.711L494.024 351.414V349.617L497.512 348.914H499.484V361.836H502.705V363.495H494.309V361.836Z" fill="black"/>
<path d="M510.908 350.214C509.894 350.214 509.13 350.714 508.617 351.714C508.107 352.712 507.852 354.214 507.852 356.22C507.852 358.218 508.107 359.717 508.617 360.717C509.13 361.717 509.894 362.217 510.908 362.217C511.931 362.217 512.698 361.717 513.208 360.717C513.721 359.717 513.977 358.218 513.977 356.22C513.977 354.214 513.721 352.712 513.208 351.714C512.698 350.714 511.931 350.214 510.908 350.214ZM510.908 348.652C512.544 348.652 513.792 349.299 514.655 350.592C515.517 351.884 515.949 353.76 515.949 356.22C515.949 358.675 515.517 360.549 514.655 361.842C513.792 363.134 512.544 363.78 510.908 363.78C509.275 363.78 508.027 363.134 507.164 361.842C506.302 360.549 505.871 358.675 505.871 356.22C505.871 353.76 506.302 351.884 507.164 350.592C508.027 349.299 509.275 348.652 510.908 348.652Z" fill="black"/>
<path d="M520.154 354.678H524.973V355.839H518.494V354.678C519.017 354.135 519.731 353.407 520.635 352.495C521.541 351.58 522.11 350.99 522.342 350.725C522.784 350.229 523.092 349.809 523.267 349.465C523.443 349.121 523.532 348.782 523.532 348.45C523.532 347.907 523.341 347.465 522.961 347.124C522.58 346.782 522.084 346.61 521.473 346.61C521.04 346.61 520.583 346.685 520.102 346.835C519.622 346.986 519.109 347.214 518.562 347.52V346.125C519.117 345.901 519.637 345.733 520.119 345.619C520.603 345.505 521.046 345.449 521.447 345.449C522.504 345.449 523.347 345.713 523.976 346.243C524.604 346.771 524.919 347.476 524.919 348.36C524.919 348.78 524.84 349.178 524.682 349.555C524.526 349.929 524.24 350.372 523.825 350.882C523.711 351.015 523.349 351.397 522.738 352.029C522.128 352.66 521.267 353.543 520.154 354.678Z" fill="black"/>
<path d="M158.027 339.118V341.785V339.118Z" fill="black"/>
<path d="M158.027 339.118V341.785" stroke="black" stroke-width="0.8"/>
<path d="M174.755 339.118V341.785V339.118Z" fill="black"/>
<path d="M174.755 339.118V341.785" stroke="black" stroke-width="0.8"/>
<path d="M186.625 339.118V341.785V339.118Z" fill="black"/>
<path d="M186.625 339.118V341.785" stroke="black" stroke-width="0.8"/>
<path d="M195.831 339.118V341.785V339.118Z" fill="black"/>
<path d="M195.831 339.118V341.785" stroke="black" stroke-width="0.8"/>
<path d="M203.353 339.118V341.785V339.118Z" fill="black"/>
<path d="M203.353 339.118V341.785" stroke="black" stroke-width="0.8"/>
<path d="M209.713 339.118V341.785V339.118Z" fill="black"/>
<path d="M209.713 339.118V341.785" stroke="black" stroke-width="0.8"/>
<path d="M215.222 339.118V341.785V339.118Z" fill="black"/>
<path d="M215.222 339.118V341.785" stroke="black" stroke-width="0.8"/>
<path d="M220.082 339.118V341.785V339.118Z" fill="black"/>
<path d="M220.082 339.118V341.785" stroke="black" stroke-width="0.8"/>
<path d="M253.026 339.118V341.785V339.118Z" fill="black"/>
<path d="M253.026 339.118V341.785" stroke="black" stroke-width="0.8"/>
<path d="M269.755 339.118V341.785V339.118Z" fill="black"/>
<path d="M269.755 339.118V341.785" stroke="black" stroke-width="0.8"/>
<path d="M281.624 339.118V341.785V339.118Z" fill="black"/>
<path d="M281.624 339.118V341.785" stroke="black" stroke-width="0.8"/>
<path d="M290.831 339.118V341.785V339.118Z" fill="black"/>
<path d="M290.831 339.118V341.785" stroke="black" stroke-width="0.8"/>
<path d="M298.353 339.118V341.785V339.118Z" fill="black"/>
<path d="M298.353 339.118V341.785" stroke="black" stroke-width="0.8"/>
<path d="M304.713 339.118V341.785V339.118Z" fill="black"/>
<path d="M304.713 339.118V341.785" stroke="black" stroke-width="0.8"/>
<path d="M310.222 339.118V341.785V339.118Z" fill="black"/>
<path d="M310.222 339.118V341.785" stroke="black" stroke-width="0.8"/>
<path d="M315.081 339.118V341.785V339.118Z" fill="black"/>
<path d="M315.081 339.118V341.785" stroke="black" stroke-width="0.8"/>
<path d="M348.026 339.118V341.785V339.118Z" fill="black"/>
<path d="M348.026 339.118V341.785" stroke="black" stroke-width="0.8"/>
<path d="M364.755 339.118V341.785V339.118Z" fill="black"/>
<path d="M364.755 339.118V341.785" stroke="black" stroke-width="0.8"/>
<path d="M376.624 339.118V341.785V339.118Z" fill="black"/>
<path d="M376.624 339.118V341.785" stroke="black" stroke-width="0.8"/>
<path d="M385.83 339.118V341.785V339.118Z" fill="black"/>
<path d="M385.83 339.118V341.785" stroke="black" stroke-width="0.8"/>
<path d="M393.352 339.118V341.785V339.118Z" fill="black"/>
<path d="M393.352 339.118V341.785" stroke="black" stroke-width="0.8"/>
<path d="M399.712 339.118V341.785V339.118Z" fill="black"/>
<path d="M399.712 339.118V341.785" stroke="black" stroke-width="0.8"/>
<path d="M405.221 339.118V341.785V339.118Z" fill="black"/>
<path d="M405.221 339.118V341.785" stroke="black" stroke-width="0.8"/>
<path d="M410.081 339.118V341.785V339.118Z" fill="black"/>
<path d="M410.081 339.118V341.785" stroke="black" stroke-width="0.8"/>
<path d="M443.026 339.118V341.785V339.118Z" fill="black"/>
<path d="M443.026 339.118V341.785" stroke="black" stroke-width="0.8"/>
<path d="M459.754 339.118V341.785V339.118Z" fill="black"/>
<path d="M459.754 339.118V341.785" stroke="black" stroke-width="0.8"/>
<path d="M471.623 339.118V341.785V339.118Z" fill="black"/>
<path d="M471.623 339.118V341.785" stroke="black" stroke-width="0.8"/>
<path d="M480.83 339.118V341.785V339.118Z" fill="black"/>
<path d="M480.83 339.118V341.785" stroke="black" stroke-width="0.8"/>
<path d="M488.352 339.118V341.785V339.118Z" fill="black"/>
<path d="M488.352 339.118V341.785" stroke="black" stroke-width="0.8"/>
<path d="M494.712 339.118V341.785V339.118Z" fill="black"/>
<path d="M494.712 339.118V341.785" stroke="black" stroke-width="0.8"/>
<path d="M500.221 339.118V341.785V339.118Z" fill="black"/>
<path d="M500.221 339.118V341.785" stroke="black" stroke-width="0.8"/>
<path d="M505.08 339.118V341.785V339.118Z" fill="black"/>
<path d="M505.08 339.118V341.785" stroke="black" stroke-width="0.8"/>
<path d="M538.025 339.118V341.785V339.118Z" fill="black"/>
<path d="M538.025 339.118V341.785" stroke="black" stroke-width="0.8"/>
<path d="M554.754 339.118V341.785V339.118Z" fill="black"/>
<path d="M554.754 339.118V341.785" stroke="black" stroke-width="0.8"/>
<path d="M566.623 339.118V341.785V339.118Z" fill="black"/>
<path d="M566.623 339.118V341.785" stroke="black" stroke-width="0.8"/>
<path d="M575.829 339.118V341.785V339.118Z" fill="black"/>
<path d="M575.829 339.118V341.785" stroke="black" stroke-width="0.8"/>
<path d="M333.381 379.086L334.697 387.285L340.833 377H343.146L335.205 390.273L334.223 395.321H332.042L333.024 390.273L331.473 380.364C331.314 379.37 330.859 378.873 330.108 378.873H329.528L329.884 377H330.715C332.269 377 333.158 377.695 333.381 379.086Z" fill="black" stroke="black"/>
<path d="M342.04 381.869H352.518V383.281H348.122V394.255H346.438V383.281H342.04V381.869Z" fill="black" stroke="black"/>
<path d="M355.81 383.246V387.9H357.918C358.699 387.9 359.301 387.698 359.726 387.295C360.153 386.891 360.366 386.316 360.366 385.569C360.366 384.828 360.153 384.255 359.726 383.852C359.301 383.448 358.699 383.246 357.918 383.246H355.81ZM354.135 381.869H357.918C359.308 381.869 360.357 382.183 361.067 382.811C361.778 383.439 362.134 384.359 362.134 385.569C362.134 386.792 361.778 387.716 361.067 388.341C360.357 388.966 359.308 389.278 357.918 389.278H355.81V394.255H354.135V381.869Z" fill="black" stroke="black"/>
<path d="M368.522 383.52L366.247 389.684H370.803L368.522 383.52ZM367.574 381.869H369.475L374.195 394.255H372.454L371.326 391.078H365.743L364.614 394.255H362.846L367.574 381.869Z" fill="black" stroke="black"/>
<path d="M357.728 406.983L357.292 409.141C356.769 408.762 356.212 408.478 355.623 408.288C355.037 408.098 354.427 408.003 353.795 408.003C353.1 408.003 352.438 408.126 351.808 408.371C351.181 408.617 350.654 408.964 350.227 409.414C349.546 410.102 349.021 410.908 348.649 411.834C348.28 412.757 348.095 413.712 348.095 414.701C348.095 415.894 348.394 416.783 348.99 417.367C349.587 417.951 350.493 418.243 351.709 418.243C352.309 418.243 352.946 418.152 353.621 417.97C354.298 417.788 355.004 417.516 355.737 417.155L355.324 419.309C354.692 419.569 354.042 419.765 353.374 419.897C352.707 420.028 352.022 420.094 351.319 420.094C349.557 420.094 348.201 419.654 347.253 418.774C346.305 417.892 345.831 416.633 345.831 414.997C345.831 413.621 346.078 412.355 346.571 411.197C347.064 410.039 347.797 408.998 348.77 408.076C349.433 407.443 350.21 406.966 351.103 406.642C351.998 406.318 352.974 406.157 354.03 406.157C354.647 406.157 355.259 406.226 355.866 406.365C356.475 406.502 357.096 406.708 357.728 406.983Z" fill="black" stroke="black"/>
<path d="M327.726 403.99V401.822H375V403.99H327.726Z" fill="black" stroke="black"/>
<path d="M129.429 339.118H124.763H129.429Z" fill="black"/>
<path d="M129.429 339.118H124.763" stroke="black" stroke-width="1.06667"/>
<path d="M94.6458 333.436C93.6313 333.436 92.8677 333.936 92.3552 334.936C91.8448 335.934 91.5896 337.436 91.5896 339.442C91.5896 341.44 91.8448 342.939 92.3552 343.939C92.8677 344.939 93.6313 345.439 94.6458 345.439C95.6688 345.439 96.4354 344.939 96.9458 343.939C97.4583 342.939 97.7146 341.44 97.7146 339.442C97.7146 337.436 97.4583 335.934 96.9458 334.936C96.4354 333.936 95.6688 333.436 94.6458 333.436ZM94.6458 331.873C96.2813 331.873 97.5302 332.52 98.3927 333.814C99.2552 335.106 99.6865 336.982 99.6865 339.442C99.6865 341.896 99.2552 343.77 98.3927 345.064C97.5302 346.356 96.2813 347.001 94.6458 347.001C93.0125 347.001 91.7646 346.356 90.9021 345.064C90.0396 343.77 89.6083 341.896 89.6083 339.442C89.6083 336.982 90.0396 335.106 90.9021 333.814C91.7646 332.52 93.0125 331.873 94.6458 331.873Z" fill="black"/>
<path d="M103.152 344.236H105.214V346.717H103.152V344.236Z" fill="black"/>
<path d="M113.728 333.436C112.713 333.436 111.95 333.936 111.437 334.936C110.927 335.934 110.672 337.436 110.672 339.442C110.672 341.44 110.927 342.939 111.437 343.939C111.95 344.939 112.713 345.439 113.728 345.439C114.751 345.439 115.517 344.939 116.028 343.939C116.54 342.939 116.797 341.44 116.797 339.442C116.797 337.436 116.54 335.934 116.028 334.936C115.517 333.936 114.751 333.436 113.728 333.436ZM113.728 331.873C115.363 331.873 116.612 332.52 117.475 333.814C118.337 335.106 118.768 336.982 118.768 339.442C118.768 341.896 118.337 343.77 117.475 345.064C116.612 346.356 115.363 347.001 113.728 347.001C112.095 347.001 110.847 346.356 109.984 345.064C109.122 343.77 108.69 341.896 108.69 339.442C108.69 336.982 109.122 335.106 109.984 333.814C110.847 332.52 112.095 331.873 113.728 331.873Z" fill="black"/>
<path d="M129.429 281.135H124.763H129.429Z" fill="black"/>
<path d="M129.429 281.135H124.763" stroke="black" stroke-width="1.06667"/>
<path d="M129.429 223.151H124.763H129.429Z" fill="black"/>
<path d="M129.429 223.151H124.763" stroke="black" stroke-width="1.06667"/>
<path d="M129.429 165.167H124.763H129.429Z" fill="black"/>
<path d="M129.429 165.167H124.763" stroke="black" stroke-width="1.06667"/>
<path d="M129.429 107.182H124.763H129.429Z" fill="black"/>
<path d="M129.429 107.182H124.763" stroke="black" stroke-width="1.06667"/>
<path d="M129.429 49.1985H124.763H129.429Z" fill="black"/>
<path d="M129.429 49.1985H124.763" stroke="black" stroke-width="1.06667"/>
<path d="M90.7708 55.1375H93.9927V44.0125L90.4865 44.7156V42.9187L93.974 42.2156H95.9458V55.1375H99.1677V56.7969H90.7708V55.1375Z" fill="black"/>
<path d="M103.152 54.3156H105.214V56.7969H103.152V54.3156Z" fill="black"/>
<path d="M113.728 43.5157C112.713 43.5157 111.95 44.0157 111.437 45.0157C110.927 46.0136 110.672 47.5157 110.672 49.5219C110.672 51.5198 110.927 53.0188 111.437 54.0188C111.95 55.0188 112.713 55.5188 113.728 55.5188C114.751 55.5188 115.517 55.0188 116.028 54.0188C116.54 53.0188 116.797 51.5198 116.797 49.5219C116.797 47.5157 116.54 46.0136 116.028 45.0157C115.517 44.0157 114.751 43.5157 113.728 43.5157ZM113.728 41.9532C115.363 41.9532 116.612 42.6 117.475 43.8938C118.337 45.1855 118.768 47.0615 118.768 49.5219C118.768 51.9761 118.337 53.85 117.475 55.1438C116.612 56.4355 115.363 57.0813 113.728 57.0813C112.095 57.0813 110.847 56.4355 109.984 55.1438C109.122 53.85 108.69 51.9761 108.69 49.5219C108.69 47.0615 109.122 45.1855 109.984 43.8938C110.847 42.6 112.095 41.9532 113.728 41.9532Z" fill="black"/>
<mask id="mask0_1238_2208" style="mask-type:luminance" maskUnits="userSpaceOnUse" x="129" y="49" width="447" height="291">
<path d="M575.829 49.1985H129.429V339.118H575.829V49.1985Z" fill="white"/>
</mask>
<g mask="url(#mask0_1238_2208)">
<path d="M129.429 278.448L198.969 278.291L221.401 277.982L237.104 277.47L248.32 276.801L257.292 275.962L264.022 275.074L270.752 273.886L277.481 272.304L281.968 270.975L286.454 269.381L290.941 267.479L295.427 265.224L299.914 262.571L304.4 259.481L308.886 255.926L313.373 251.896L317.859 247.41L322.346 242.519L329.075 234.622L342.535 218.462L347.021 213.485L351.508 208.889L355.994 204.705L360.48 200.889L376.183 188.171L380.669 183.97L385.156 179.311L389.642 174.191L394.129 168.659L400.858 159.765L412.074 144.152L421.047 131.746L427.777 122.849L434.507 114.471L441.236 106.708L445.723 101.901L450.209 97.3953L454.696 93.1924L459.182 89.2874L463.668 85.6724L468.155 82.3369L472.641 79.2681L477.128 76.4522L483.857 72.6698L490.587 69.3718L497.317 66.5074L504.046 64.0278L510.776 61.8875L517.506 60.0444L524.235 58.4605L533.208 56.6935L542.181 55.2568L551.154 54.091L562.37 52.9402L573.586 52.0576" stroke="#C2E5F9" stroke-width="2" stroke-linecap="square"/>
</g>
<mask id="mask1_1238_2208" style="mask-type:luminance" maskUnits="userSpaceOnUse" x="129" y="49" width="447" height="291">
<path d="M575.829 49.1985H129.429V339.118H575.829V49.1985Z" fill="white"/>
</mask>
<g mask="url(#mask1_1238_2208)">
<path d="M129.429 278.44L185.51 278.257L205.698 277.943L219.158 277.498L230.374 276.85L239.347 276.041L246.076 275.187L252.806 274.047L259.536 272.534L264.022 271.267L268.509 269.749L272.995 267.943L277.481 265.806L281.968 263.297L286.454 260.378L290.941 257.022L295.427 253.219L299.914 248.978L304.4 244.341L311.13 236.807L329.075 216.119L333.562 211.465L338.048 207.171L342.535 203.224L349.264 197.766L358.237 190.548L362.724 186.605L367.21 182.291L371.696 177.562L376.183 172.425L380.669 166.923L387.399 158.142L398.615 142.803L407.588 130.624L414.318 121.882L421.047 113.642L427.777 105.998L432.263 101.262L436.75 96.8202L441.236 92.6749L445.723 88.8218L450.209 85.2536L454.696 81.9601L459.182 78.9292L463.668 76.1474L470.398 72.4099L477.128 69.1502L483.857 66.3186L490.587 63.8669L497.317 61.7504L504.046 59.9277L510.776 58.3612L519.749 56.6134L528.722 55.1922L537.694 54.039L548.911 52.9005L560.127 52.0273" stroke="#C2E5F9" stroke-width="2" stroke-linecap="square"/>
</g>
<mask id="mask2_1238_2208" style="mask-type:luminance" maskUnits="userSpaceOnUse" x="129" y="49" width="447" height="291">
<path d="M575.829 49.1985H129.429V339.118H575.829V49.1985Z" fill="white"/>
</mask>
<g mask="url(#mask2_1238_2208)">
<path d="M129.429 278.427L174.293 278.233L194.482 277.885L207.942 277.395L219.158 276.69L228.131 275.818L234.86 274.907L241.59 273.701L248.32 272.117L252.806 270.803L257.292 269.244L261.779 267.405L266.265 265.251L270.752 262.749L275.238 259.872L279.725 256.601L284.211 252.935L288.697 248.891L293.184 244.509L299.914 237.449L317.859 218.006L324.589 211.371L331.319 205.343L338.048 199.804L349.264 190.751L353.751 186.855L358.237 182.667L362.724 178.14L367.21 173.261L371.696 168.048L378.426 159.703L387.399 147.931L403.102 127.168L409.831 118.746L416.561 110.823L423.29 103.484L427.777 98.9401L432.263 94.6823L436.75 90.7108L441.236 87.0214L445.723 83.6065L450.209 80.456L454.696 77.558L461.425 73.6551L468.155 70.2427L474.884 67.2722L481.614 64.6958L488.344 62.4683L495.073 60.5475L501.803 58.895L510.776 57.0494L519.749 55.5473L528.722 54.3275L539.938 53.1224L553.397 52.0404" stroke="#94C5E8" stroke-width="2" stroke-linecap="square"/>
</g>
<mask id="mask3_1238_2208" style="mask-type:luminance" maskUnits="userSpaceOnUse" x="129" y="49" width="447" height="291">
<path d="M575.829 49.1985H129.429V339.118H575.829V49.1985Z" fill="white"/>
</mask>
<g mask="url(#mask3_1238_2208)">
<path d="M129.429 278.407L167.564 278.171L185.51 277.804L198.969 277.257L210.185 276.481L219.158 275.535L225.887 274.56L232.617 273.288L239.347 271.642L243.833 270.295L248.32 268.716L252.806 266.876L257.292 264.75L261.779 262.312L266.265 259.545L270.752 256.441L275.238 253.002L279.725 249.247L286.454 243.1L293.184 236.498L313.373 216.341L320.103 210.196L326.832 204.465L349.264 186.024L353.751 181.878L358.237 177.441L362.724 172.696L369.453 165.022L376.183 156.786L385.156 145.254L398.615 127.832L405.345 119.498L412.074 111.614L418.804 104.277L425.534 97.5437L430.02 93.4021L434.507 89.5394L438.993 85.9513L443.479 82.6306L447.966 79.5674L452.452 76.7499L459.182 72.956L465.912 69.6393L472.641 66.7525L479.371 64.2491L486.1 62.085L492.83 60.2191L499.56 58.6139L508.533 56.8214L517.506 55.3626L526.478 54.1781L537.694 53.008L551.154 51.9574" stroke="#5090C9" stroke-width="2" stroke-linecap="square"/>
</g>
<mask id="mask4_1238_2208" style="mask-type:luminance" maskUnits="userSpaceOnUse" x="129" y="49" width="447" height="291">
<path d="M575.829 49.1985H129.429V339.118H575.829V49.1985Z" fill="white"/>
</mask>
<g mask="url(#mask4_1238_2208)">
<path d="M129.429 278.374L160.834 278.107L178.78 277.671L192.239 277.032L201.212 276.358L210.185 275.391L216.915 274.412L223.644 273.153L230.374 271.553L237.104 269.541L241.59 267.935L246.076 266.094L250.563 263.998L255.049 261.632L259.536 258.986L264.022 256.057L268.509 252.851L275.238 247.556L281.968 241.766L290.941 233.522L308.886 216.773L317.859 208.948L326.832 201.598L342.535 188.897L349.264 182.968L355.994 176.485L360.48 171.813L367.21 164.286L373.94 156.219L382.913 144.912L398.615 124.967L405.345 116.85L412.074 109.194L418.804 102.089L425.534 95.5812L430.02 91.585L434.507 87.8621L438.993 84.4074L443.479 81.2131L447.966 78.2689L454.696 74.2952L461.425 70.8132L468.155 67.7765L474.884 65.1386L481.614 62.855L488.344 60.8837L495.073 59.1862L504.046 57.2887L513.019 55.7431L521.992 54.4871L533.208 53.2457L544.424 52.2925L548.911 51.9767" stroke="#0E69A7" stroke-width="2" stroke-linecap="square"/>
</g>
<mask id="mask5_1238_2208" style="mask-type:luminance" maskUnits="userSpaceOnUse" x="129" y="49" width="447" height="291">
<path d="M575.829 49.1985H129.429V339.118H575.829V49.1985Z" fill="white"/>
</mask>
<g mask="url(#mask5_1238_2208)">
<path d="M129.429 278.321L156.348 277.999L172.05 277.543L183.266 276.979L194.482 276.101L203.455 275.078L210.185 274.064L216.915 272.787L223.644 271.198L230.374 269.242L237.104 266.866L241.59 265.024L246.076 262.96L250.563 260.663L255.049 258.129L259.536 255.355L266.265 250.755L272.995 245.669L279.725 240.171L288.697 232.39L311.13 212.616L320.103 205.196L342.535 187.068L349.264 181.066L355.994 174.52L362.724 167.37L369.453 159.649L376.183 151.473L391.885 131.658L400.858 120.619L407.588 112.777L414.318 105.433L421.047 98.6568L427.777 92.4829L432.263 88.7057L436.75 85.1959L441.236 81.9467L445.723 78.9485L452.452 74.8974L459.182 71.3431L465.912 68.2402L472.641 65.5425L479.371 63.2054L486.1 61.1867L492.83 59.4475L501.803 57.5024L510.776 55.9173L519.749 54.6288L530.965 53.3547L542.181 52.3762L546.667 52.052" stroke="#074784" stroke-width="2" stroke-linecap="square"/>
</g>
<mask id="mask6_1238_2208" style="mask-type:luminance" maskUnits="userSpaceOnUse" x="129" y="49" width="447" height="291">
<path d="M575.829 49.1985H129.429V339.118H575.829V49.1985Z" fill="white"/>
</mask>
<g mask="url(#mask6_1238_2208)">
<path d="M129.429 278.241L151.861 277.877L167.564 277.328L178.78 276.674L187.753 275.92L196.726 274.892L205.698 273.517L212.428 272.205L219.158 270.609L225.887 268.687L232.617 266.398L239.347 263.7L246.076 260.559L252.806 256.95L259.536 252.864L266.265 248.313L272.995 243.335L279.725 237.996L288.697 230.478L313.373 209.488L324.589 200.492L338.048 189.725L344.778 183.981L351.508 177.777L358.237 171.009L364.967 163.656L371.696 155.783L380.669 144.723L398.615 122.37L405.345 114.462L412.074 107.022L418.804 100.131L425.534 93.8317L430.02 89.9681L434.507 86.3721L438.993 83.0379L443.479 79.9573L447.966 77.1199L454.696 73.2932L461.425 69.9428L468.155 67.0227L474.884 64.4877L481.614 62.2943L488.344 60.4018L495.073 58.7726L504.046 56.9522L513.019 55.4699L521.992 54.2657L533.208 53.0758L546.667 52.007" stroke="#022851" stroke-width="2" stroke-linecap="square"/>
</g>
<mask id="mask7_1238_2208" style="mask-type:luminance" maskUnits="userSpaceOnUse" x="129" y="49" width="447" height="291">
<path d="M575.829 49.1985H129.429V339.118H575.829V49.1985Z" fill="white"/>
</mask>
<g mask="url(#mask7_1238_2208)">
<path d="M129.429 278.124L149.618 277.678L163.077 277.122L174.293 276.407L185.51 275.375L194.482 274.251L203.455 272.795L210.185 271.442L216.915 269.829L223.644 267.918L230.374 265.673L237.104 263.057L243.833 260.035L250.563 256.582L257.292 252.684L264.022 248.344L270.752 243.589L277.481 238.47L286.454 231.212L320.103 203.356L338.048 189.048L344.778 183.279L351.508 177.065L358.237 170.291L364.967 162.939L371.696 155.079L380.669 144.051L398.615 121.805L405.345 113.944L412.074 106.553L418.804 99.7093L425.534 93.4551L430.02 89.6205L434.507 86.052L438.993 82.744L443.479 79.688L450.209 75.5534L456.939 71.921L463.668 68.7463L470.398 65.9837L477.128 63.5884L483.857 61.5181L490.587 59.7334L497.317 58.1983L506.289 56.4844L515.262 55.0897L526.478 53.7094L537.694 52.6486L546.667 51.9807" stroke="#4D0000" stroke-width="2" stroke-linecap="square"/>
</g>
<mask id="mask8_1238_2208" style="mask-type:luminance" maskUnits="userSpaceOnUse" x="129" y="49" width="447" height="291">
<path d="M575.829 49.1985H129.429V339.118H575.829V49.1985Z" fill="white"/>
</mask>
<g mask="url(#mask8_1238_2208)">
<path d="M129.429 277.968L147.375 277.465L160.834 276.823L172.05 276.037L183.266 274.947L192.239 273.797L201.212 272.341L210.185 270.513L216.915 268.853L223.644 266.908L230.374 264.64L237.104 262.014L243.833 258.998L250.563 255.565L257.292 251.701L264.022 247.411L270.752 242.717L277.481 237.668L286.454 230.512L322.346 201.166L335.805 190.458L342.535 184.825L349.264 178.771L355.994 172.184L362.724 165.021L369.453 157.324L378.426 146.441L398.615 121.47L405.345 113.637L412.074 106.275L418.804 99.4592L425.534 93.2321L430.02 89.4146L434.507 85.8625L438.993 82.5699L443.479 79.5286L450.209 75.4141L456.939 71.7998L463.668 68.6413L470.398 65.8928L477.128 63.5101L483.857 61.4507L490.587 59.6755L497.317 58.1487L506.289 56.444L515.262 55.0569L526.478 53.6842L537.694 52.6292L546.667 51.9651" stroke="#330000" stroke-width="2" stroke-linecap="square"/>
</g>
<mask id="mask9_1238_2208" style="mask-type:luminance" maskUnits="userSpaceOnUse" x="129" y="49" width="447" height="291">
<path d="M575.829 49.1985H129.429V339.118H575.829V49.1985Z" fill="white"/>
</mask>
<g mask="url(#mask9_1238_2208)">
<path d="M129.429 277.783L147.375 277.17L160.834 276.437L172.05 275.578L183.266 274.422L192.239 273.228L201.212 271.735L210.185 269.88L216.915 268.207L223.644 266.253L230.374 263.983L237.104 261.361L243.833 258.356L250.563 254.942L257.292 251.105L264.022 246.848L270.752 242.193L277.481 237.188L286.454 230.095L304.4 215.304L320.103 202.567L335.805 190.211L342.535 184.574L349.264 178.516L355.994 171.925L362.724 164.763L369.453 157.07L378.426 146.198L398.615 121.27L405.345 113.455L412.074 106.109L418.804 99.3105L425.534 93.0994L430.02 89.2922L434.507 85.7498L438.993 82.4665L443.479 79.4339L450.209 75.3314L456.939 71.7279L463.668 68.5789L470.398 65.839L477.128 63.4637L483.857 61.4108L490.587 59.6413L497.317 58.1193L506.289 56.4201L515.262 55.0376L526.478 53.6694L537.694 52.6179L546.667 51.9559" stroke="#190000" stroke-width="2" stroke-linecap="square"/>
</g>
<mask id="mask10_1238_2208" style="mask-type:luminance" maskUnits="userSpaceOnUse" x="129" y="49" width="447" height="291">
<path d="M575.829 49.1985H129.429V339.118H575.829V49.1985Z" fill="white"/>
</mask>
<g mask="url(#mask10_1238_2208)">
<path d="M129.429 277.092L147.375 276.349L160.834 275.536L174.293 274.409L185.51 273.146L194.482 271.859L203.455 270.268L212.428 268.304L219.158 266.542L225.887 264.494L232.617 262.125L239.347 259.402L246.076 256.293L252.806 252.779L259.536 248.85L266.265 244.514L272.995 239.8L279.725 234.761L288.697 227.668L322.346 200.537L335.805 189.865L342.535 184.209L349.264 178.138L355.994 171.541L362.724 164.378L369.453 156.691L378.426 145.836L398.615 120.973L405.345 113.183L412.074 105.863L418.804 99.0891L425.534 92.9022L430.02 89.1102L434.507 85.5824L438.993 82.3128L443.479 79.2931L450.209 75.2084L456.939 71.621L463.668 68.4862L470.398 65.7589L477.128 63.3946L483.857 61.3514L490.587 59.5903L499.56 57.6199L508.533 56.0135L517.506 54.7072L528.722 53.4153L539.938 52.4229L544.424 52.094" stroke="#D75E5E" stroke-width="2" stroke-dasharray="7.4 3.2"/>
</g>
<path d="M129.429 339.118V49.1985" stroke="black" stroke-width="1.06667" stroke-linecap="square"/>
<path d="M575.829 339.118V49.1985" stroke="black" stroke-width="1.06667" stroke-linecap="square"/>
<path d="M129.429 339.118H575.829" stroke="black" stroke-width="1.06667" stroke-linecap="square"/>
<path d="M129.429 49.1985H575.829" stroke="black" stroke-width="1.06667" stroke-linecap="square"/>
<path d="M420.309 329.518H564.309V233.518H420.309V329.518Z" fill="white"/>
<path d="M426.855 233.518V228.852V233.518Z" fill="black"/>
<path d="M426.855 233.518V228.852" stroke="black" stroke-width="1.06667"/>
<path d="M414.76 219.408H417.337V210.508L414.532 211.07V209.633L417.322 209.07H418.9V219.408H421.477V220.735H414.76V219.408Z" fill="black"/>
<path d="M428.039 210.11C427.228 210.11 426.617 210.51 426.207 211.31C425.798 212.108 425.594 213.31 425.594 214.915C425.594 216.513 425.798 217.713 426.207 218.513C426.617 219.313 427.228 219.713 428.039 219.713C428.858 219.713 429.471 219.313 429.879 218.513C430.289 217.713 430.494 216.513 430.494 214.915C430.494 213.31 430.289 212.108 429.879 211.31C429.471 210.51 428.858 210.11 428.039 210.11ZM428.039 208.86C429.348 208.86 430.347 209.378 431.037 210.413C431.727 211.446 432.072 212.947 432.072 214.915C432.072 216.878 431.727 218.378 431.037 219.413C430.347 220.446 429.348 220.963 428.039 220.963C426.733 220.963 425.734 220.446 425.044 219.413C424.354 218.378 424.009 216.878 424.009 214.915C424.009 212.947 424.354 211.446 425.044 210.413C425.734 209.378 426.733 208.86 428.039 208.86Z" fill="black"/>
<path d="M436.847 207.173C436.278 207.173 435.851 207.453 435.564 208.013C435.278 208.571 435.135 209.413 435.135 210.536C435.135 211.655 435.278 212.494 435.564 213.054C435.851 213.614 436.278 213.894 436.847 213.894C437.419 213.894 437.849 213.614 438.135 213.054C438.422 212.494 438.565 211.655 438.565 210.536C438.565 209.413 438.422 208.571 438.135 208.013C437.849 207.453 437.419 207.173 436.847 207.173ZM436.847 206.298C437.762 206.298 438.462 206.66 438.945 207.384C439.428 208.108 439.669 209.158 439.669 210.536C439.669 211.91 439.428 212.96 438.945 213.684C438.462 214.408 437.762 214.769 436.847 214.769C435.932 214.769 435.233 214.408 434.75 213.684C434.267 212.96 434.026 211.91 434.026 210.536C434.026 209.158 434.267 208.108 434.75 207.384C435.233 206.66 435.932 206.298 436.847 206.298Z" fill="black"/>
<path d="M492.309 233.518V228.852V233.518Z" fill="black"/>
<path d="M492.309 233.518V228.852" stroke="black" stroke-width="1.06667"/>
<path d="M480.214 219.421H482.792V210.521L479.987 211.083V209.646L482.777 209.083H484.354V219.421H486.932V220.748H480.214V219.421Z" fill="black"/>
<path d="M493.494 210.123C492.682 210.123 492.071 210.523 491.661 211.323C491.253 212.121 491.049 213.323 491.049 214.928C491.049 216.526 491.253 217.726 491.661 218.526C492.071 219.326 492.682 219.726 493.494 219.726C494.312 219.726 494.926 219.326 495.334 218.526C495.744 217.726 495.949 216.526 495.949 214.928C495.949 213.323 495.744 212.121 495.334 211.323C494.926 210.523 494.312 210.123 493.494 210.123ZM493.494 208.873C494.802 208.873 495.801 209.391 496.491 210.426C497.181 211.459 497.526 212.96 497.526 214.928C497.526 216.891 497.181 218.391 496.491 219.426C495.801 220.459 494.802 220.976 493.494 220.976C492.187 220.976 491.189 220.459 490.499 219.426C489.809 218.391 489.464 216.891 489.464 214.928C489.464 212.96 489.809 211.459 490.499 210.426C491.189 209.391 492.187 208.873 493.494 208.873Z" fill="black"/>
<path d="M500.131 213.694H501.935V207.464L499.972 207.858V206.851L501.925 206.458H503.029V213.694H504.833V214.623H500.131V213.694Z" fill="black"/>
<path d="M557.764 233.518V228.852V233.518Z" fill="black"/>
<path d="M557.764 233.518V228.852" stroke="black" stroke-width="1.06667"/>
<path d="M545.669 219.408H548.246V210.508L545.441 211.07V209.633L548.231 209.07H549.809V219.408H552.386V220.735H545.669V219.408Z" fill="black"/>
<path d="M558.948 210.11C558.137 210.11 557.526 210.51 557.116 211.31C556.708 212.108 556.503 213.31 556.503 214.915C556.503 216.513 556.708 217.713 557.116 218.513C557.526 219.313 558.137 219.713 558.948 219.713C559.767 219.713 560.38 219.313 560.788 218.513C561.198 217.713 561.403 216.513 561.403 214.915C561.403 213.31 561.198 212.108 560.788 211.31C560.38 210.51 559.767 210.11 558.948 210.11ZM558.948 208.86C560.257 208.86 561.256 209.378 561.946 210.413C562.636 211.446 562.981 212.947 562.981 214.915C562.981 216.878 562.636 218.378 561.946 219.413C561.256 220.446 560.257 220.963 558.948 220.963C557.642 220.963 556.643 220.446 555.953 219.413C555.263 218.378 554.918 216.878 554.918 214.915C554.918 212.947 555.263 211.446 555.953 210.413C556.643 209.378 557.642 208.86 558.948 208.86Z" fill="black"/>
<path d="M566.345 213.681H570.2V214.61H565.017V213.681C565.436 213.247 566.007 212.665 566.73 211.934C567.455 211.203 567.91 210.731 568.095 210.519C568.449 210.122 568.695 209.786 568.835 209.511C568.977 209.235 569.047 208.965 569.047 208.699C569.047 208.265 568.895 207.911 568.59 207.638C568.286 207.364 567.889 207.227 567.4 207.227C567.054 207.227 566.688 207.287 566.303 207.407C565.919 207.527 565.509 207.71 565.071 207.955V206.838C565.516 206.66 565.931 206.525 566.317 206.434C566.705 206.343 567.059 206.298 567.379 206.298C568.225 206.298 568.9 206.509 569.402 206.933C569.905 207.355 570.157 207.92 570.157 208.627C570.157 208.963 570.094 209.281 569.968 209.582C569.843 209.882 569.614 210.236 569.282 210.645C569.191 210.751 568.901 211.056 568.412 211.562C567.924 212.067 567.235 212.773 566.345 213.681Z" fill="black"/>
<path d="M420.511 329.518V332.185V329.518Z" fill="black"/>
<path d="M420.511 329.518V332.185" stroke="black" stroke-width="0.8"/>
<path d="M423.86 329.518V332.185V329.518Z" fill="black"/>
<path d="M423.86 329.518V332.185" stroke="black" stroke-width="0.8"/>
<path d="M446.558 329.518V332.185V329.518Z" fill="black"/>
<path d="M446.558 329.518V332.185" stroke="black" stroke-width="0.8"/>
<path d="M458.084 329.518V332.185V329.518Z" fill="black"/>
<path d="M458.084 329.518V332.185" stroke="black" stroke-width="0.8"/>
<path d="M466.262 329.518V332.185V329.518Z" fill="black"/>
<path d="M466.262 329.518V332.185" stroke="black" stroke-width="0.8"/>
<path d="M472.605 329.518V332.185V329.518Z" fill="black"/>
<path d="M472.605 329.518V332.185" stroke="black" stroke-width="0.8"/>
<path d="M477.788 329.518V332.185V329.518Z" fill="black"/>
<path d="M477.788 329.518V332.185" stroke="black" stroke-width="0.8"/>
<path d="M482.17 329.518V332.185V329.518Z" fill="black"/>
<path d="M482.17 329.518V332.185" stroke="black" stroke-width="0.8"/>
<path d="M485.966 329.518V332.185V329.518Z" fill="black"/>
<path d="M485.966 329.518V332.185" stroke="black" stroke-width="0.8"/>
<path d="M489.314 329.518V332.185V329.518Z" fill="black"/>
<path d="M489.314 329.518V332.185" stroke="black" stroke-width="0.8"/>
<path d="M512.013 329.518V332.185V329.518Z" fill="black"/>
<path d="M512.013 329.518V332.185" stroke="black" stroke-width="0.8"/>
<path d="M523.539 329.518V332.185V329.518Z" fill="black"/>
<path d="M523.539 329.518V332.185" stroke="black" stroke-width="0.8"/>
<path d="M531.717 329.518V332.185V329.518Z" fill="black"/>
<path d="M531.717 329.518V332.185" stroke="black" stroke-width="0.8"/>
<path d="M538.06 329.518V332.185V329.518Z" fill="black"/>
<path d="M538.06 329.518V332.185" stroke="black" stroke-width="0.8"/>
<path d="M543.243 329.518V332.185V329.518Z" fill="black"/>
<path d="M543.243 329.518V332.185" stroke="black" stroke-width="0.8"/>
<path d="M547.625 329.518V332.185V329.518Z" fill="black"/>
<path d="M547.625 329.518V332.185" stroke="black" stroke-width="0.8"/>
<path d="M551.421 329.518V332.185V329.518Z" fill="black"/>
<path d="M551.421 329.518V332.185" stroke="black" stroke-width="0.8"/>
<path d="M554.769 329.518V332.185V329.518Z" fill="black"/>
<path d="M554.769 329.518V332.185" stroke="black" stroke-width="0.8"/>
<path d="M494.149 182.261L492.979 188.288H491.972L493.138 182.294C493.251 181.714 493.222 181.28 493.05 180.992C492.882 180.705 492.573 180.562 492.121 180.562C491.578 180.562 491.114 180.734 490.732 181.08C490.353 181.426 490.105 181.899 489.988 182.497L489.316 185.959H488.304L489.496 179.834H490.508L490.322 180.786C490.631 180.417 490.969 180.142 491.334 179.96C491.694 179.778 492.088 179.687 492.515 179.687C493.218 179.687 493.708 179.903 493.985 180.336C494.259 180.773 494.314 181.415 494.149 182.261Z" fill="black"/>
<path d="M481.022 194.25L478.233 198.61H481.022V194.25ZM480.732 193.288H482.121V198.61H483.287V199.528H482.121V201.453H481.022V199.528H477.337V198.463L480.732 193.288Z" fill="black"/>
<path d="M486.524 196.291L487.131 200.074L489.963 195.328H491.03L487.366 201.453L486.913 203.783H485.906L486.36 201.453L485.644 196.881C485.57 196.422 485.36 196.193 485.014 196.193H484.746L484.911 195.328H485.294C486.011 195.328 486.422 195.649 486.524 196.291Z" fill="black"/>
<path d="M490.52 197.575H495.355V198.227H493.326V203.291H492.55V198.227H490.52V197.575Z" fill="black"/>
<path d="M496.874 198.211V200.358H497.847C498.207 200.358 498.485 200.265 498.681 200.079C498.878 199.893 498.976 199.627 498.976 199.283C498.976 198.941 498.878 198.676 498.681 198.49C498.485 198.304 498.207 198.211 497.847 198.211H496.874ZM496.101 197.575H497.847C498.488 197.575 498.972 197.72 499.3 198.01C499.628 198.3 499.792 198.724 499.792 199.283C499.792 199.847 499.628 200.273 499.3 200.562C498.972 200.85 498.488 200.994 497.847 200.994H496.874V203.291H496.101V197.575Z" fill="black"/>
<path d="M502.74 198.337L501.69 201.181H503.792L502.74 198.337ZM502.303 197.575H503.18L505.358 203.291H504.554L504.034 201.825H501.458L500.937 203.291H500.121L502.303 197.575Z" fill="black"/>
<path d="M476.789 192.288V191.288H505.729V192.288H476.789Z" fill="black"/>
<path d="M420.309 329.518H415.642H420.309Z" fill="black"/>
<path d="M420.309 329.518H415.642" stroke="black" stroke-width="1.06667"/>
<path d="M383.506 334.27H389.013V335.597H381.608V334.27C382.207 333.65 383.023 332.818 384.056 331.775C385.091 330.73 385.741 330.056 386.006 329.752C386.511 329.186 386.863 328.706 387.063 328.312C387.265 327.919 387.366 327.532 387.366 327.152C387.366 326.532 387.148 326.027 386.713 325.637C386.278 325.246 385.712 325.05 385.013 325.05C384.518 325.05 383.996 325.136 383.446 325.307C382.898 325.479 382.311 325.74 381.686 326.09V324.495C382.321 324.24 382.914 324.047 383.466 323.917C384.019 323.787 384.525 323.722 384.983 323.722C386.192 323.722 387.155 324.025 387.873 324.63C388.592 325.233 388.951 326.04 388.951 327.05C388.951 327.53 388.861 327.985 388.681 328.415C388.503 328.843 388.176 329.349 387.701 329.932C387.571 330.084 387.157 330.521 386.458 331.242C385.762 331.964 384.778 332.973 383.506 334.27Z" fill="black"/>
<path d="M395.701 324.972C394.889 324.972 394.278 325.372 393.868 326.172C393.46 326.971 393.256 328.172 393.256 329.777C393.256 331.376 393.46 332.575 393.868 333.375C394.278 334.175 394.889 334.575 395.701 334.575C396.519 334.575 397.132 334.175 397.541 333.375C397.951 332.575 398.156 331.376 398.156 329.777C398.156 328.172 397.951 326.971 397.541 326.172C397.132 325.372 396.519 324.972 395.701 324.972ZM395.701 323.722C397.009 323.722 398.008 324.24 398.698 325.275C399.388 326.308 399.733 327.809 399.733 329.777C399.733 331.741 399.388 333.24 398.698 334.275C398.008 335.308 397.009 335.825 395.701 335.825C394.394 335.825 393.396 335.308 392.706 334.275C392.016 333.24 391.671 331.741 391.671 329.777C391.671 327.809 392.016 326.308 392.706 325.275C393.396 324.24 394.394 323.722 395.701 323.722Z" fill="black"/>
<path d="M405.88 324.972C405.069 324.972 404.458 325.372 404.048 326.172C403.639 326.971 403.435 328.172 403.435 329.777C403.435 331.376 403.639 332.575 404.048 333.375C404.458 334.175 405.069 334.575 405.88 334.575C406.699 334.575 407.312 334.175 407.72 333.375C408.13 332.575 408.335 331.376 408.335 329.777C408.335 328.172 408.13 326.971 407.72 326.172C407.312 325.372 406.699 324.972 405.88 324.972ZM405.88 323.722C407.189 323.722 408.188 324.24 408.878 325.275C409.568 326.308 409.913 327.809 409.913 329.777C409.913 331.741 409.568 333.24 408.878 334.275C408.188 335.308 407.189 335.825 405.88 335.825C404.574 335.825 403.575 335.308 402.885 334.275C402.195 333.24 401.85 331.741 401.85 329.777C401.85 327.809 402.195 326.308 402.885 325.275C403.575 324.24 404.574 323.722 405.88 323.722Z" fill="black"/>
<path d="M420.309 297.518H415.643H420.309Z" fill="black"/>
<path d="M420.309 297.518H415.643" stroke="black" stroke-width="1.06667"/>
<path d="M386.928 297.307C387.683 297.469 388.273 297.806 388.696 298.317C389.121 298.827 389.333 299.457 389.333 300.207C389.333 301.357 388.938 302.248 388.146 302.88C387.354 303.51 386.229 303.825 384.771 303.825C384.283 303.825 383.779 303.776 383.261 303.68C382.743 303.583 382.208 303.438 381.656 303.245V301.722C382.093 301.977 382.571 302.17 383.091 302.3C383.613 302.43 384.158 302.495 384.726 302.495C385.714 302.495 386.468 302.3 386.986 301.91C387.504 301.52 387.763 300.952 387.763 300.207C387.763 299.519 387.523 298.981 387.041 298.595C386.559 298.206 385.889 298.012 385.031 298.012H383.671V296.715H385.093C385.868 296.715 386.462 296.56 386.873 296.25C387.285 295.94 387.491 295.493 387.491 294.91C387.491 294.311 387.278 293.852 386.853 293.532C386.43 293.211 385.823 293.05 385.031 293.05C384.598 293.05 384.133 293.097 383.638 293.192C383.143 293.286 382.599 293.431 382.006 293.627V292.222C382.606 292.056 383.168 291.931 383.691 291.847C384.214 291.764 384.708 291.722 385.171 291.722C386.369 291.722 387.317 291.995 388.013 292.54C388.712 293.083 389.061 293.818 389.061 294.745C389.061 295.391 388.876 295.937 388.506 296.382C388.136 296.827 387.61 297.136 386.928 297.307Z" fill="black"/>
<path d="M395.701 292.972C394.889 292.972 394.278 293.372 393.868 294.172C393.46 294.971 393.256 296.172 393.256 297.777C393.256 299.376 393.46 300.575 393.868 301.375C394.278 302.175 394.889 302.575 395.701 302.575C396.519 302.575 397.132 302.175 397.541 301.375C397.951 300.575 398.156 299.376 398.156 297.777C398.156 296.172 397.951 294.971 397.541 294.172C397.132 293.372 396.519 292.972 395.701 292.972ZM395.701 291.722C397.009 291.722 398.008 292.24 398.698 293.275C399.388 294.308 399.733 295.809 399.733 297.777C399.733 299.741 399.388 301.24 398.698 302.275C398.008 303.308 397.009 303.825 395.701 303.825C394.394 303.825 393.396 303.308 392.706 302.275C392.016 301.24 391.671 299.741 391.671 297.777C391.671 295.809 392.016 294.308 392.706 293.275C393.396 292.24 394.394 291.722 395.701 291.722Z" fill="black"/>
<path d="M405.88 292.972C405.069 292.972 404.458 293.372 404.048 294.172C403.639 294.971 403.435 296.172 403.435 297.777C403.435 299.376 403.639 300.575 404.048 301.375C404.458 302.175 405.069 302.575 405.88 302.575C406.699 302.575 407.312 302.175 407.72 301.375C408.13 300.575 408.335 299.376 408.335 297.777C408.335 296.172 408.13 294.971 407.72 294.172C407.312 293.372 406.699 292.972 405.88 292.972ZM405.88 291.722C407.189 291.722 408.188 292.24 408.878 293.275C409.568 294.308 409.913 295.809 409.913 297.777C409.913 299.741 409.568 301.24 408.878 302.275C408.188 303.308 407.189 303.825 405.88 303.825C404.574 303.825 403.575 303.308 402.885 302.275C402.195 301.24 401.85 299.741 401.85 297.777C401.85 295.809 402.195 294.308 402.885 293.275C403.575 292.24 404.574 291.722 405.88 291.722Z" fill="black"/>
<path d="M420.309 265.518H415.643H420.309Z" fill="black"/>
<path d="M420.309 265.518H415.643" stroke="black" stroke-width="1.06667"/>
<path d="M386.483 261.307L382.498 267.535H386.483V261.307ZM386.068 259.932H388.053V267.535H389.718V268.847H388.053V271.597H386.483V268.847H381.218V267.325L386.068 259.932Z" fill="black"/>
<path d="M395.701 260.972C394.889 260.972 394.278 261.372 393.868 262.172C393.46 262.971 393.256 264.172 393.256 265.777C393.256 267.376 393.46 268.575 393.868 269.375C394.278 270.175 394.889 270.575 395.701 270.575C396.519 270.575 397.132 270.175 397.541 269.375C397.951 268.575 398.156 267.376 398.156 265.777C398.156 264.172 397.951 262.971 397.541 262.172C397.132 261.372 396.519 260.972 395.701 260.972ZM395.701 259.722C397.009 259.722 398.008 260.24 398.698 261.275C399.388 262.308 399.733 263.809 399.733 265.777C399.733 267.741 399.388 269.24 398.698 270.275C398.008 271.308 397.009 271.825 395.701 271.825C394.394 271.825 393.396 271.308 392.706 270.275C392.016 269.24 391.671 267.741 391.671 265.777C391.671 263.809 392.016 262.308 392.706 261.275C393.396 260.24 394.394 259.722 395.701 259.722Z" fill="black"/>
<path d="M405.88 260.972C405.069 260.972 404.458 261.372 404.048 262.172C403.639 262.971 403.435 264.172 403.435 265.777C403.435 267.376 403.639 268.575 404.048 269.375C404.458 270.175 405.069 270.575 405.88 270.575C406.699 270.575 407.312 270.175 407.72 269.375C408.13 268.575 408.335 267.376 408.335 265.777C408.335 264.172 408.13 262.971 407.72 262.172C407.312 261.372 406.699 260.972 405.88 260.972ZM405.88 259.722C407.189 259.722 408.188 260.24 408.878 261.275C409.568 262.308 409.913 263.809 409.913 265.777C409.913 267.741 409.568 269.24 408.878 270.275C408.188 271.308 407.189 271.825 405.88 271.825C404.574 271.825 403.575 271.308 402.885 270.275C402.195 269.24 401.85 267.741 401.85 265.777C401.85 263.809 402.195 262.308 402.885 261.275C403.575 260.24 404.574 259.722 405.88 259.722Z" fill="black"/>
<path d="M420.309 233.518H415.642H420.309Z" fill="black"/>
<path d="M420.309 233.518H415.642" stroke="black" stroke-width="1.06667"/>
<path d="M382.163 227.932H388.358V229.262H383.608V232.12C383.837 232.041 384.065 231.983 384.293 231.945C384.523 231.906 384.753 231.887 384.983 231.887C386.285 231.887 387.316 232.244 388.076 232.957C388.838 233.671 389.218 234.636 389.218 235.855C389.218 237.11 388.828 238.086 388.046 238.782C387.264 239.477 386.163 239.825 384.741 239.825C384.251 239.825 383.752 239.783 383.243 239.7C382.737 239.616 382.213 239.491 381.671 239.325V237.737C382.139 237.992 382.623 238.182 383.123 238.307C383.623 238.432 384.152 238.495 384.708 238.495C385.61 238.495 386.323 238.258 386.848 237.785C387.375 237.311 387.638 236.668 387.638 235.855C387.638 235.043 387.375 234.401 386.848 233.927C386.323 233.452 385.61 233.215 384.708 233.215C384.287 233.215 383.866 233.261 383.446 233.355C383.028 233.448 382.6 233.594 382.163 233.792V227.932Z" fill="black"/>
<path d="M395.701 228.972C394.889 228.972 394.278 229.372 393.868 230.172C393.46 230.971 393.256 232.172 393.256 233.777C393.256 235.376 393.46 236.575 393.868 237.375C394.278 238.175 394.889 238.575 395.701 238.575C396.519 238.575 397.132 238.175 397.541 237.375C397.951 236.575 398.156 235.376 398.156 233.777C398.156 232.172 397.951 230.971 397.541 230.172C397.132 229.372 396.519 228.972 395.701 228.972ZM395.701 227.722C397.009 227.722 398.008 228.24 398.698 229.275C399.388 230.308 399.733 231.809 399.733 233.777C399.733 235.741 399.388 237.24 398.698 238.275C398.008 239.308 397.009 239.825 395.701 239.825C394.394 239.825 393.396 239.308 392.706 238.275C392.016 237.24 391.671 235.741 391.671 233.777C391.671 231.809 392.016 230.308 392.706 229.275C393.396 228.24 394.394 227.722 395.701 227.722Z" fill="black"/>
<path d="M405.88 228.972C405.069 228.972 404.458 229.372 404.048 230.172C403.639 230.971 403.435 232.172 403.435 233.777C403.435 235.376 403.639 236.575 404.048 237.375C404.458 238.175 405.069 238.575 405.88 238.575C406.699 238.575 407.312 238.175 407.72 237.375C408.13 236.575 408.335 235.376 408.335 233.777C408.335 232.172 408.13 230.971 407.72 230.172C407.312 229.372 406.699 228.972 405.88 228.972ZM405.88 227.722C407.189 227.722 408.188 228.24 408.878 229.275C409.568 230.308 409.913 231.809 409.913 233.777C409.913 235.741 409.568 237.24 408.878 238.275C408.188 239.308 407.189 239.825 405.88 239.825C404.574 239.825 403.575 239.308 402.885 238.275C402.195 237.24 401.85 235.741 401.85 233.777C401.85 231.809 402.195 230.308 402.885 229.275C403.575 228.24 404.574 227.722 405.88 227.722Z" fill="black"/>
<path d="M356.065 324.749L359.848 324.142L355.102 321.31V320.243L361.227 323.907L363.557 324.361V325.367L361.227 324.914L356.655 325.629C356.196 325.703 355.967 325.913 355.967 326.259V326.527L355.102 326.363V325.979C355.102 325.262 355.423 324.852 356.065 324.749Z" fill="black"/>
<path d="M357.349 320.754V315.918H358.001V317.947H363.065V318.724H358.001V320.754H357.349Z" fill="black"/>
<path d="M357.985 314.399H360.132V313.426C360.132 313.066 360.039 312.788 359.853 312.592C359.667 312.395 359.401 312.297 359.057 312.297C358.715 312.297 358.45 312.395 358.264 312.592C358.078 312.788 357.985 313.066 357.985 313.426V314.399ZM357.349 315.172V313.426C357.349 312.785 357.494 312.301 357.784 311.974C358.074 311.645 358.498 311.481 359.057 311.481C359.621 311.481 360.047 311.645 360.336 311.974C360.624 312.301 360.768 312.785 360.768 313.426V314.399H363.065V315.172H357.349Z" fill="black"/>
<path d="M358.111 308.533L360.956 309.583V307.481L358.111 308.533ZM357.349 308.971V308.094L363.065 305.915V306.719L361.599 307.24V309.816L363.065 310.336V311.152L357.349 308.971Z" fill="black"/>
<path d="M368.938 313.514L369.934 313.715C369.759 313.957 369.628 314.214 369.54 314.485C369.453 314.756 369.409 315.037 369.409 315.329C369.409 315.65 369.466 315.955 369.579 316.246C369.692 316.535 369.852 316.778 370.06 316.976C370.377 317.289 370.749 317.532 371.176 317.704C371.602 317.874 372.043 317.959 372.499 317.959C373.05 317.959 373.46 317.821 373.73 317.546C373.999 317.271 374.134 316.853 374.134 316.291C374.134 316.015 374.092 315.721 374.008 315.409C373.924 315.097 373.799 314.771 373.632 314.433L374.626 314.624C374.746 314.915 374.836 315.215 374.897 315.523C374.958 315.831 374.988 316.147 374.988 316.472C374.988 317.285 374.785 317.91 374.379 318.348C373.972 318.785 373.391 319.004 372.636 319.004C372.001 319.004 371.417 318.89 370.882 318.663C370.348 318.435 369.868 318.097 369.442 317.648C369.151 317.342 368.93 316.983 368.781 316.571C368.631 316.158 368.557 315.708 368.557 315.22C368.557 314.936 368.589 314.653 368.653 314.373C368.716 314.092 368.811 313.806 368.938 313.514Z" fill="black"/>
<path d="M358.407 292.521H359.604V293.896C359.604 294.411 359.708 294.769 359.917 294.971C360.125 295.171 360.5 295.271 361.042 295.271H361.814V292.903H362.932V295.271H370.564V296.716H362.932V298.091H361.814V296.716H361.204C360.231 296.716 359.522 296.489 359.077 296.036C358.63 295.582 358.407 294.864 358.407 293.881V292.521Z" fill="black"/>
<path d="M362.822 287.928C362.822 288.698 363.123 289.307 363.724 289.755C364.326 290.204 365.15 290.428 366.197 290.428C367.243 290.428 368.068 290.205 368.669 289.76C369.271 289.314 369.572 288.703 369.572 287.928C369.572 287.161 369.27 286.555 368.667 286.108C368.062 285.66 367.238 285.435 366.197 285.435C365.16 285.435 364.338 285.66 363.732 286.108C363.125 286.555 362.822 287.161 362.822 287.928ZM361.604 287.928C361.604 286.678 362.011 285.696 362.824 284.983C363.636 284.268 364.76 283.91 366.197 283.91C367.628 283.91 368.753 284.268 369.569 284.983C370.384 285.696 370.792 286.678 370.792 287.928C370.792 289.183 370.384 290.166 369.569 290.878C368.753 291.588 367.628 291.943 366.197 291.943C364.76 291.943 363.636 291.588 362.824 290.878C362.011 290.166 361.604 289.183 361.604 287.928Z" fill="black"/>
<path d="M363.157 276.459C363.063 276.62 362.995 276.796 362.952 276.986C362.907 277.176 362.884 277.385 362.884 277.614C362.884 278.427 363.148 279.051 363.677 279.486C364.205 279.921 364.964 280.139 365.954 280.139H370.564V281.584H361.814V280.139H363.174C362.643 279.835 362.248 279.442 361.992 278.959C361.733 278.474 361.604 277.885 361.604 277.191C361.604 277.093 361.611 276.984 361.624 276.864C361.636 276.744 361.655 276.611 361.682 276.466L363.157 276.459Z" fill="black"/>
<path d="M370.322 269.615H368.884C369.073 269.218 369.216 268.817 369.314 268.412C369.413 268.006 369.462 267.606 369.462 267.215C369.462 266.173 369.112 265.378 368.412 264.83C367.712 264.28 366.648 263.966 365.219 263.887C365.668 264.189 366.012 264.572 366.252 265.037C366.492 265.501 366.612 266.013 366.612 266.575C366.612 267.741 366.259 268.665 365.554 269.345C364.848 270.025 363.882 270.365 362.657 270.365C361.46 270.365 360.5 270.011 359.777 269.302C359.052 268.594 358.689 267.651 358.689 266.475C358.689 265.125 359.207 264.095 360.242 263.385C361.275 262.673 362.776 262.317 364.744 262.317C366.583 262.317 368.05 262.754 369.147 263.627C370.243 264.499 370.792 265.671 370.792 267.145C370.792 267.541 370.753 267.943 370.674 268.35C370.596 268.755 370.478 269.176 370.322 269.615ZM365.377 266.475C365.377 265.766 365.135 265.206 364.652 264.792C364.167 264.377 363.502 264.17 362.657 264.17C361.818 264.17 361.156 264.377 360.669 264.792C360.183 265.206 359.939 265.766 359.939 266.475C359.939 267.183 360.183 267.744 360.669 268.157C361.156 268.571 361.818 268.777 362.657 268.777C363.502 268.777 364.167 268.571 364.652 268.157C365.135 267.744 365.377 267.183 365.377 266.475Z" fill="black"/>
<path d="M370.322 259.435H368.884C369.073 259.038 369.216 258.638 369.314 258.233C369.413 257.826 369.462 257.427 369.462 257.035C369.462 255.993 369.112 255.198 368.412 254.65C367.712 254.1 366.648 253.786 365.219 253.708C365.668 254.009 366.012 254.393 366.252 254.858C366.492 255.321 366.612 255.833 366.612 256.395C366.612 257.562 366.259 258.485 365.554 259.165C364.848 259.845 363.882 260.185 362.657 260.185C361.46 260.185 360.5 259.831 359.777 259.123C359.052 258.414 358.689 257.472 358.689 256.295C358.689 254.945 359.207 253.915 360.242 253.205C361.275 252.493 362.776 252.138 364.744 252.138C366.583 252.138 368.05 252.574 369.147 253.448C370.243 254.319 370.792 255.492 370.792 256.965C370.792 257.362 370.753 257.763 370.674 258.17C370.596 258.575 370.478 258.997 370.322 259.435ZM365.377 256.295C365.377 255.587 365.135 255.026 364.652 254.613C364.167 254.198 363.502 253.99 362.657 253.99C361.818 253.99 361.156 254.198 360.669 254.613C360.183 255.026 359.939 255.587 359.939 256.295C359.939 257.003 360.183 257.564 360.669 257.978C361.156 258.391 361.818 258.598 362.657 258.598C363.502 258.598 364.167 258.391 364.652 257.978C365.135 257.564 365.377 257.003 365.377 256.295Z" fill="black"/>
<path d="M365.432 239.38C365.432 239.834 365.624 240.19 366.009 240.448C366.394 240.705 366.931 240.833 367.619 240.833C368.296 240.833 368.828 240.705 369.217 240.448C369.605 240.19 369.799 239.834 369.799 239.38C369.799 238.937 369.605 238.587 369.217 238.33C368.828 238.072 368.296 237.943 367.619 237.943C366.936 237.943 366.401 238.072 366.014 238.33C365.626 238.587 365.432 238.937 365.432 239.38ZM364.439 239.38C364.439 238.557 364.726 237.904 365.299 237.42C365.871 236.935 366.644 236.693 367.619 236.693C368.593 236.693 369.365 236.936 369.937 237.423C370.507 237.91 370.792 238.562 370.792 239.38C370.792 240.214 370.507 240.873 369.937 241.358C369.365 241.841 368.593 242.083 367.619 242.083C366.639 242.083 365.864 241.84 365.294 241.353C364.724 240.866 364.439 240.209 364.439 239.38ZM359.682 247.443C359.682 247.891 359.876 248.245 360.264 248.503C360.651 248.76 361.183 248.888 361.862 248.888C362.548 248.888 363.085 248.76 363.472 248.505C363.857 248.25 364.049 247.896 364.049 247.443C364.049 246.99 363.857 246.635 363.472 246.378C363.085 246.12 362.548 245.99 361.862 245.99C361.19 245.99 360.659 246.12 360.269 246.38C359.878 246.64 359.682 246.995 359.682 247.443ZM358.689 240.388V239.138L370.792 246.435V247.685L358.689 240.388ZM358.689 247.443C358.689 246.62 358.974 245.964 359.544 245.475C360.114 244.985 360.887 244.74 361.862 244.74C362.845 244.74 363.621 244.984 364.189 245.47C364.758 245.957 365.042 246.615 365.042 247.443C365.042 248.271 364.757 248.926 364.187 249.408C363.615 249.89 362.84 250.13 361.862 250.13C360.892 250.13 360.121 249.889 359.549 249.405C358.976 248.92 358.689 248.266 358.689 247.443Z" fill="black"/>
<path d="M367.557 327.358H366.557V305.544H367.557V327.358Z" fill="black"/>
<mask id="mask11_1238_2208" style="mask-type:luminance" maskUnits="userSpaceOnUse" x="420" y="233" width="145" height="97">
<path d="M564.309 233.518H420.309V329.518H564.309V233.518Z" fill="white"/>
</mask>
<g mask="url(#mask11_1238_2208)">
<path d="M426.855 237.429L425.358 242.036H420.514L424.433 244.883L422.936 249.489L426.855 246.642L430.773 249.489L429.276 244.883L433.195 242.036H428.351L426.855 237.429Z" fill="#C2E5F9" stroke="#C2E5F9" stroke-width="1.33333" stroke-linejoin="bevel"/>
</g>
<mask id="mask12_1238_2208" style="mask-type:luminance" maskUnits="userSpaceOnUse" x="420" y="233" width="145" height="97">
<path d="M564.309 233.518H420.309V329.518H564.309V233.518Z" fill="white"/>
</mask>
<g mask="url(#mask12_1238_2208)">
<path d="M441.4 280.181L439.903 284.787H435.06L438.978 287.634L437.482 292.241L441.4 289.394L445.319 292.241L443.822 287.634L447.74 284.787H442.897L441.4 280.181Z" fill="#C2E5F9" stroke="#C2E5F9" stroke-width="1.33333" stroke-linejoin="bevel"/>
</g>
<mask id="mask13_1238_2208" style="mask-type:luminance" maskUnits="userSpaceOnUse" x="420" y="233" width="145" height="97">
<path d="M564.309 233.518H420.309V329.518H564.309V233.518Z" fill="white"/>
</mask>
<g mask="url(#mask13_1238_2208)">
<path d="M455.946 295.812L454.449 300.419H449.605L453.524 303.266L452.027 307.873L455.946 305.026L459.864 307.873L458.367 303.266L462.286 300.419H457.442L455.946 295.812Z" fill="#94C5E8" stroke="#94C5E8" stroke-width="1.33333" stroke-linejoin="bevel"/>
</g>
<mask id="mask14_1238_2208" style="mask-type:luminance" maskUnits="userSpaceOnUse" x="420" y="233" width="145" height="97">
<path d="M564.309 233.518H420.309V329.518H564.309V233.518Z" fill="white"/>
</mask>
<g mask="url(#mask14_1238_2208)">
<path d="M470.491 303.172L468.994 307.778H464.151L468.069 310.625L466.572 315.232L470.491 312.385L474.41 315.232L472.913 310.625L476.831 307.778H471.988L470.491 303.172Z" fill="#5090C9" stroke="#5090C9" stroke-width="1.33333" stroke-linejoin="bevel"/>
</g>
<mask id="mask15_1238_2208" style="mask-type:luminance" maskUnits="userSpaceOnUse" x="420" y="233" width="145" height="97">
<path d="M564.309 233.518H420.309V329.518H564.309V233.518Z" fill="white"/>
</mask>
<g mask="url(#mask15_1238_2208)">
<path d="M485.036 307.04L483.54 311.647H478.696L482.615 314.494L481.118 319.1L485.036 316.253L488.955 319.1L487.458 314.494L491.377 311.647H486.533L485.036 307.04Z" fill="#0E69A7" stroke="#0E69A7" stroke-width="1.33333" stroke-linejoin="bevel"/>
</g>
<mask id="mask16_1238_2208" style="mask-type:luminance" maskUnits="userSpaceOnUse" x="420" y="233" width="145" height="97">
<path d="M564.309 233.518H420.309V329.518H564.309V233.518Z" fill="white"/>
</mask>
<g mask="url(#mask16_1238_2208)">
<path d="M499.582 309.196L498.085 313.803H493.242L497.16 316.65L495.663 321.256L499.582 318.409L503.501 321.256L502.004 316.65L505.922 313.803H501.079L499.582 309.196Z" fill="#074784" stroke="#074784" stroke-width="1.33333" stroke-linejoin="bevel"/>
</g>
<mask id="mask17_1238_2208" style="mask-type:luminance" maskUnits="userSpaceOnUse" x="420" y="233" width="145" height="97">
<path d="M564.309 233.518H420.309V329.518H564.309V233.518Z" fill="white"/>
</mask>
<g mask="url(#mask17_1238_2208)">
<path d="M514.127 310.432L512.631 315.038H507.787L511.706 317.885L510.209 322.492L514.127 319.645L518.046 322.492L516.549 317.885L520.468 315.038H515.624L514.127 310.432Z" fill="#022851" stroke="#022851" stroke-width="1.33333" stroke-linejoin="bevel"/>
</g>
<mask id="mask18_1238_2208" style="mask-type:luminance" maskUnits="userSpaceOnUse" x="420" y="233" width="145" height="97">
<path d="M564.309 233.518H420.309V329.518H564.309V233.518Z" fill="white"/>
</mask>
<g mask="url(#mask18_1238_2208)">
<path d="M528.673 311.154L527.176 315.76H522.333L526.251 318.607L524.754 323.214L528.673 320.367L532.591 323.214L531.095 318.607L535.013 315.76H530.17L528.673 311.154Z" fill="#4D0000" stroke="#4D0000" stroke-width="1.33333" stroke-linejoin="bevel"/>
</g>
<mask id="mask19_1238_2208" style="mask-type:luminance" maskUnits="userSpaceOnUse" x="420" y="233" width="145" height="97">
<path d="M564.309 233.518H420.309V329.518H564.309V233.518Z" fill="white"/>
</mask>
<g mask="url(#mask19_1238_2208)">
<path d="M543.218 311.582L541.722 316.189H536.878L540.796 319.036L539.3 323.642L543.218 320.795L547.137 323.642L545.64 319.036L549.559 316.189H544.715L543.218 311.582Z" fill="#330000" stroke="#330000" stroke-width="1.33333" stroke-linejoin="bevel"/>
</g>
<mask id="mask20_1238_2208" style="mask-type:luminance" maskUnits="userSpaceOnUse" x="420" y="233" width="145" height="97">
<path d="M564.309 233.518H420.309V329.518H564.309V233.518Z" fill="white"/>
</mask>
<g mask="url(#mask20_1238_2208)">
<path d="M557.764 311.835L556.267 316.441H551.423L555.342 319.288L553.845 323.895L557.764 321.048L561.682 323.895L560.186 319.288L564.104 316.441H559.26L557.764 311.835Z" fill="#190000" stroke="#190000" stroke-width="1.33333" stroke-linejoin="bevel"/>
</g>
<mask id="mask21_1238_2208" style="mask-type:luminance" maskUnits="userSpaceOnUse" x="420" y="233" width="145" height="97">
<path d="M564.309 233.518H420.309V329.518H564.309V233.518Z" fill="white"/>
</mask>
<g mask="url(#mask21_1238_2208)">
<path d="M426.855 318.879H557.764" stroke="#D75E5E" stroke-width="2" stroke-dasharray="7.4 3.2"/>
</g>
<path d="M420.309 329.518V233.518" stroke="black" stroke-width="1.06667" stroke-linecap="square"/>
<path d="M564.309 329.518V233.518" stroke="black" stroke-width="1.06667" stroke-linecap="square"/>
<path d="M420.309 329.518H564.309" stroke="black" stroke-width="1.06667" stroke-linecap="square"/>
<path d="M420.309 233.518H564.309" stroke="black" stroke-width="1.06667" stroke-linecap="square"/>
<path d="M36.424 321.072C36.312 321.184 36.16 321.392 35.968 321.696C35.776 321.984 35.592 322.344 35.416 322.776C35.24 323.192 35.088 323.648 34.96 324.144C34.816 324.64 34.744 325.144 34.744 325.656C34.744 326.552 34.912 327.232 35.248 327.696C35.584 328.144 36.056 328.368 36.664 328.368C37.128 328.368 37.496 328.224 37.768 327.936C38.04 327.648 38.272 327.216 38.464 326.64C38.656 326.064 38.864 325.344 39.088 324.48C39.36 323.36 39.696 322.392 40.096 321.576C40.48 320.744 40.992 320.112 41.632 319.68C42.256 319.232 43.088 319.008 44.128 319.008C45.04 319.008 45.824 319.176 46.48 319.512C47.12 319.848 47.64 320.312 48.04 320.904C48.44 321.496 48.736 322.168 48.928 322.92C49.104 323.672 49.192 324.472 49.192 325.32C49.192 326.168 49.104 327.016 48.928 327.864C48.752 328.712 48.504 329.528 48.184 330.312C47.848 331.096 47.448 331.816 46.984 332.472L44.128 331.008C44.272 330.864 44.464 330.608 44.704 330.24C44.928 329.872 45.16 329.424 45.4 328.896C45.624 328.368 45.816 327.792 45.976 327.168C46.136 326.544 46.216 325.912 46.216 325.272C46.216 324.376 46.064 323.696 45.76 323.232C45.456 322.768 45.024 322.536 44.464 322.536C43.952 322.536 43.552 322.72 43.264 323.088C42.976 323.456 42.728 323.968 42.52 324.624C42.296 325.28 42.056 326.056 41.8 326.952C41.496 328.024 41.16 328.92 40.792 329.64C40.408 330.36 39.928 330.896 39.352 331.248C38.776 331.6 38.056 331.776 37.192 331.776C36.024 331.776 35.048 331.504 34.264 330.96C33.464 330.4 32.864 329.648 32.464 328.704C32.048 327.76 31.84 326.712 31.84 325.56C31.84 324.76 31.928 324.008 32.104 323.304C32.28 322.584 32.512 321.912 32.8 321.288C33.088 320.664 33.4 320.104 33.736 319.608L36.424 321.072ZM44.296 317.008L36.424 317.008L36.424 313.792L43.6 313.792C44.56 313.792 45.288 313.616 45.784 313.264C46.264 312.912 46.504 312.392 46.504 311.704C46.504 311.288 46.424 310.88 46.264 310.48C46.088 310.064 45.832 309.688 45.496 309.352C45.16 309 44.736 308.704 44.224 308.464L36.424 308.464L36.424 305.248L45.4 305.248C45.736 305.248 45.976 305.192 46.12 305.08C46.264 304.952 46.352 304.752 46.384 304.48L49 304.48C49.048 304.8 49.08 305.072 49.096 305.296C49.128 305.504 49.144 305.696 49.144 305.872C49.144 306.448 49.016 306.92 48.76 307.288C48.488 307.64 48.12 307.848 47.656 307.912L46.648 307.984C47.496 308.544 48.144 309.264 48.592 310.144C49.024 311.024 49.24 311.992 49.24 313.048C49.24 314.344 48.824 315.328 47.992 316C47.144 316.672 45.912 317.008 44.296 317.008ZM49.24 296.196C49.24 297.22 49.072 298.14 48.736 298.956C48.384 299.772 47.904 300.468 47.296 301.044C46.672 301.62 45.968 302.068 45.184 302.388C44.4 302.692 43.576 302.844 42.712 302.844C41.528 302.844 40.448 302.58 39.472 302.052C38.48 301.508 37.688 300.74 37.096 299.748C36.504 298.756 36.208 297.58 36.208 296.22C36.208 294.86 36.504 293.692 37.096 292.716C37.688 291.74 38.464 291.012 39.424 290.532L40.384 293.676C39.92 293.948 39.568 294.308 39.328 294.756C39.072 295.204 38.944 295.7 38.944 296.244C38.944 296.852 39.104 297.412 39.424 297.924C39.728 298.42 40.168 298.812 40.744 299.1C41.304 299.388 41.96 299.532 42.712 299.532C43.448 299.532 44.104 299.388 44.68 299.1C45.24 298.796 45.688 298.396 46.024 297.9C46.344 297.404 46.504 296.852 46.504 296.244C46.504 295.86 46.44 295.5 46.312 295.164C46.184 294.812 46.008 294.5 45.784 294.228C45.56 293.956 45.304 293.756 45.016 293.628L45.976 290.484C46.6 290.772 47.16 291.196 47.656 291.756C48.152 292.3 48.544 292.948 48.832 293.7C49.104 294.436 49.24 295.268 49.24 296.196ZM49.24 282.766C49.24 283.79 49.072 284.71 48.736 285.526C48.384 286.342 47.904 287.038 47.296 287.614C46.672 288.19 45.968 288.638 45.184 288.958C44.4 289.262 43.576 289.414 42.712 289.414C41.528 289.414 40.448 289.15 39.472 288.622C38.48 288.078 37.688 287.31 37.096 286.318C36.504 285.326 36.208 284.15 36.208 282.79C36.208 281.43 36.504 280.262 37.096 279.286C37.688 278.31 38.464 277.582 39.424 277.102L40.384 280.246C39.92 280.518 39.568 280.878 39.328 281.326C39.072 281.774 38.944 282.27 38.944 282.814C38.944 283.422 39.104 283.982 39.424 284.494C39.728 284.99 40.168 285.382 40.744 285.67C41.304 285.958 41.96 286.102 42.712 286.102C43.448 286.102 44.104 285.958 44.68 285.67C45.24 285.366 45.688 284.966 46.024 284.47C46.344 283.974 46.504 283.422 46.504 282.814C46.504 282.43 46.44 282.07 46.312 281.734C46.184 281.382 46.008 281.07 45.784 280.798C45.56 280.526 45.304 280.326 45.016 280.198L45.976 277.054C46.6 277.342 47.16 277.766 47.656 278.326C48.152 278.87 48.544 279.518 48.832 280.27C49.104 281.006 49.24 281.838 49.24 282.766ZM49.24 269.36C49.24 270.368 49.072 271.28 48.736 272.096C48.384 272.912 47.912 273.608 47.32 274.184C46.712 274.76 46.024 275.208 45.256 275.528C44.472 275.832 43.648 275.984 42.784 275.984C41.584 275.984 40.488 275.72 39.496 275.192C38.504 274.648 37.712 273.88 37.12 272.888C36.512 271.88 36.208 270.696 36.208 269.336C36.208 267.96 36.512 266.784 37.12 265.808C37.712 264.832 38.504 264.088 39.496 263.576C40.472 263.048 41.528 262.784 42.664 262.784C42.856 262.784 43.056 262.792 43.264 262.808C43.456 262.824 43.616 262.84 43.744 262.856L43.744 272.576C44.384 272.512 44.944 272.328 45.424 272.024C45.904 271.704 46.272 271.304 46.528 270.824C46.768 270.328 46.888 269.8 46.888 269.24C46.888 268.6 46.736 268 46.432 267.44C46.112 266.864 45.696 266.472 45.184 266.264L45.952 263.504C46.592 263.808 47.16 264.248 47.656 264.824C48.152 265.384 48.544 266.048 48.832 266.816C49.104 267.584 49.24 268.432 49.24 269.36ZM41.704 272.648L41.704 266.072C41.064 266.136 40.512 266.32 40.048 266.624C39.568 266.912 39.2 267.296 38.944 267.776C38.672 268.256 38.536 268.792 38.536 269.384C38.536 269.96 38.672 270.488 38.944 270.968C39.2 271.432 39.568 271.816 40.048 272.12C40.512 272.408 41.064 272.584 41.704 272.648ZM49.24 256.193C49.24 257.265 49.064 258.289 48.712 259.265C48.36 260.241 47.84 261.081 47.152 261.785L45.064 260.633C45.672 259.881 46.12 259.145 46.408 258.425C46.696 257.689 46.84 256.985 46.84 256.313C46.84 255.689 46.728 255.193 46.504 254.825C46.28 254.441 45.944 254.249 45.496 254.249C45.192 254.249 44.96 254.353 44.8 254.561C44.624 254.769 44.472 255.073 44.344 255.473C44.216 255.857 44.072 256.329 43.912 256.889C43.608 257.817 43.312 258.593 43.024 259.217C42.736 259.841 42.376 260.313 41.944 260.633C41.496 260.937 40.928 261.089 40.24 261.089C39.408 261.089 38.696 260.881 38.104 260.465C37.496 260.033 37.024 259.441 36.688 258.689C36.352 257.921 36.184 257.025 36.184 256.001C36.184 255.105 36.328 254.257 36.616 253.457C36.888 252.657 37.336 251.929 37.96 251.273L40 252.569C39.504 253.209 39.144 253.817 38.92 254.393C38.68 254.969 38.56 255.553 38.56 256.145C38.56 256.481 38.6 256.801 38.68 257.105C38.76 257.393 38.896 257.633 39.088 257.825C39.264 258.001 39.52 258.089 39.856 258.089C40.16 258.089 40.4 258.009 40.576 257.849C40.736 257.673 40.88 257.417 41.008 257.081C41.136 256.729 41.28 256.305 41.44 255.809C41.728 254.801 42.024 253.953 42.328 253.265C42.632 252.561 43.008 252.033 43.456 251.681C43.888 251.329 44.488 251.153 45.256 251.153C46.504 251.153 47.48 251.609 48.184 252.521C48.888 253.433 49.24 254.657 49.24 256.193ZM49.24 244.334C49.24 245.406 49.064 246.43 48.712 247.406C48.36 248.382 47.84 249.222 47.152 249.926L45.064 248.774C45.672 248.022 46.12 247.286 46.408 246.566C46.696 245.83 46.84 245.126 46.84 244.454C46.84 243.83 46.728 243.334 46.504 242.966C46.28 242.582 45.944 242.39 45.496 242.39C45.192 242.39 44.96 242.494 44.8 242.702C44.624 242.91 44.472 243.214 44.344 243.614C44.216 243.998 44.072 244.47 43.912 245.03C43.608 245.958 43.312 246.734 43.024 247.358C42.736 247.982 42.376 248.454 41.944 248.774C41.496 249.078 40.928 249.23 40.24 249.23C39.408 249.23 38.696 249.022 38.104 248.606C37.496 248.174 37.024 247.582 36.688 246.83C36.352 246.062 36.184 245.166 36.184 244.142C36.184 243.246 36.328 242.398 36.616 241.598C36.888 240.798 37.336 240.07 37.96 239.414L40 240.71C39.504 241.35 39.144 241.958 38.92 242.534C38.68 243.11 38.56 243.694 38.56 244.286C38.56 244.622 38.6 244.942 38.68 245.246C38.76 245.534 38.896 245.774 39.088 245.966C39.264 246.142 39.52 246.23 39.856 246.23C40.16 246.23 40.4 246.15 40.576 245.99C40.736 245.814 40.88 245.558 41.008 245.222C41.136 244.87 41.28 244.446 41.44 243.95C41.728 242.942 42.024 242.094 42.328 241.406C42.632 240.702 43.008 240.174 43.456 239.822C43.888 239.47 44.488 239.294 45.256 239.294C46.504 239.294 47.48 239.75 48.184 240.662C48.888 241.574 49.24 242.798 49.24 244.334ZM49 231.029L31.96 231.029L31.96 223.805C31.96 223.021 32.12 222.301 32.44 221.645C32.76 220.989 33.192 220.421 33.736 219.941C34.28 219.445 34.888 219.061 35.56 218.789C36.232 218.517 36.92 218.381 37.624 218.381C38.584 218.381 39.496 218.605 40.36 219.053C41.224 219.501 41.928 220.117 42.472 220.901C43.016 221.685 43.288 222.613 43.288 223.685L43.288 227.717L49 227.717L49 231.029ZM40.384 227.717L40.384 223.877C40.384 223.477 40.272 223.117 40.048 222.797C39.824 222.477 39.504 222.221 39.088 222.029C38.656 221.837 38.168 221.741 37.624 221.741C37.032 221.741 36.528 221.853 36.112 222.077C35.696 222.285 35.384 222.565 35.176 222.917C34.968 223.253 34.864 223.621 34.864 224.021L34.864 227.717L40.384 227.717ZM39.208 208.9C39.208 209.876 39.4 210.748 39.784 211.516C40.152 212.284 40.688 212.836 41.392 213.172L49 213.172L49 216.388L36.424 216.388L36.424 213.436L39.112 213.436C38.248 212.988 37.568 212.42 37.072 211.732C36.576 211.044 36.304 210.316 36.256 209.548C36.256 209.372 36.256 209.236 36.256 209.14C36.256 209.044 36.264 208.964 36.28 208.9L39.208 208.9ZM49.24 201.462C49.24 202.486 49.072 203.406 48.736 204.222C48.384 205.038 47.904 205.734 47.296 206.31C46.688 206.87 45.992 207.302 45.208 207.606C44.424 207.91 43.6 208.062 42.736 208.062C41.856 208.062 41.024 207.91 40.24 207.606C39.456 207.302 38.76 206.87 38.152 206.31C37.544 205.734 37.072 205.038 36.736 204.222C36.384 203.406 36.208 202.486 36.208 201.462C36.208 200.438 36.384 199.526 36.736 198.726C37.072 197.91 37.544 197.214 38.152 196.638C38.76 196.062 39.456 195.63 40.24 195.342C41.024 195.038 41.856 194.886 42.736 194.886C43.6 194.886 44.424 195.038 45.208 195.342C45.992 195.63 46.688 196.062 47.296 196.638C47.904 197.198 48.384 197.886 48.736 198.702C49.072 199.518 49.24 200.438 49.24 201.462ZM42.736 204.75C43.472 204.75 44.128 204.606 44.704 204.318C45.264 204.03 45.704 203.638 46.024 203.142C46.344 202.646 46.504 202.086 46.504 201.462C46.504 200.854 46.344 200.302 46.024 199.806C45.688 199.31 45.24 198.918 44.68 198.63C44.104 198.326 43.448 198.174 42.712 198.174C41.992 198.174 41.344 198.326 40.768 198.63C40.192 198.918 39.744 199.31 39.424 199.806C39.104 200.302 38.944 200.854 38.944 201.462C38.944 202.086 39.112 202.646 39.448 203.142C39.768 203.638 40.216 204.03 40.792 204.318C41.352 204.606 42 204.75 42.736 204.75ZM49.24 185.564C49.24 186.524 49.024 187.38 48.592 188.132C48.16 188.884 47.568 189.476 46.816 189.908L49 189.908L49 192.716L31.48 192.716L31.48 189.5L38.632 189.5C37.88 189.052 37.288 188.468 36.856 187.748C36.424 187.012 36.208 186.156 36.208 185.18C36.208 184.364 36.384 183.62 36.736 182.948C37.072 182.276 37.544 181.7 38.152 181.22C38.76 180.724 39.456 180.348 40.24 180.092C41.024 179.82 41.864 179.684 42.76 179.684C43.656 179.684 44.496 179.836 45.28 180.14C46.064 180.428 46.76 180.836 47.368 181.364C47.96 181.892 48.424 182.516 48.76 183.236C49.08 183.94 49.24 184.716 49.24 185.564ZM46.504 186.452C46.504 185.94 46.408 185.476 46.216 185.06C46.008 184.628 45.736 184.26 45.4 183.956C45.064 183.636 44.672 183.396 44.224 183.236C43.76 183.06 43.28 182.972 42.784 182.972C42.096 182.972 41.464 183.116 40.888 183.404C40.296 183.676 39.824 184.06 39.472 184.556C39.12 185.036 38.944 185.604 38.944 186.26C38.944 186.724 39.056 187.172 39.28 187.604C39.488 188.02 39.776 188.396 40.144 188.732C40.512 189.052 40.928 189.308 41.392 189.5L44.392 189.5C44.712 189.404 45 189.252 45.256 189.044C45.512 188.82 45.736 188.564 45.928 188.276C46.104 187.988 46.248 187.692 46.36 187.388C46.456 187.068 46.504 186.756 46.504 186.452ZM45.28 178.369C44.464 178.369 43.752 178.145 43.144 177.697C42.52 177.233 42.04 176.593 41.704 175.777C41.368 174.961 41.2 174.025 41.2 172.969C41.2 172.441 41.24 171.905 41.32 171.361C41.4 170.817 41.528 170.345 41.704 169.945L41.032 169.945C40.232 169.945 39.616 170.185 39.184 170.665C38.752 171.129 38.536 171.825 38.536 172.753C38.536 173.441 38.656 174.097 38.896 174.721C39.136 175.345 39.488 176.001 39.952 176.689L37.84 177.721C37.296 176.889 36.888 176.041 36.616 175.177C36.344 174.297 36.208 173.377 36.208 172.417C36.208 170.625 36.656 169.233 37.552 168.241C38.448 167.233 39.728 166.729 41.392 166.729L45.4 166.729C45.736 166.729 45.976 166.673 46.12 166.561C46.264 166.433 46.352 166.233 46.384 165.961L49 165.961C49.048 166.249 49.088 166.513 49.12 166.753C49.152 166.977 49.168 167.169 49.168 167.329C49.168 167.969 49.024 168.457 48.736 168.793C48.448 169.113 48.096 169.313 47.68 169.393L47.032 169.465C47.736 170.009 48.28 170.689 48.664 171.505C49.048 172.321 49.24 173.153 49.24 174.001C49.24 174.833 49.072 175.585 48.736 176.257C48.384 176.913 47.912 177.433 47.32 177.817C46.712 178.185 46.032 178.369 45.28 178.369ZM45.928 170.545C45.736 170.369 45.544 170.225 45.352 170.113C45.16 170.001 44.984 169.945 44.824 169.945L43.552 169.945C43.392 170.329 43.272 170.745 43.192 171.193C43.096 171.641 43.048 172.065 43.048 172.465C43.048 173.297 43.232 173.985 43.6 174.529C43.952 175.057 44.424 175.321 45.016 175.321C45.336 175.321 45.64 175.233 45.928 175.057C46.216 174.881 46.448 174.625 46.624 174.289C46.8 173.953 46.888 173.553 46.888 173.089C46.888 172.609 46.8 172.137 46.624 171.673C46.432 171.209 46.2 170.833 45.928 170.545ZM49.24 156.571C49.24 157.531 49.024 158.387 48.592 159.139C48.16 159.891 47.568 160.483 46.816 160.915L49 160.915L49 163.723L31.48 163.723L31.48 160.507L38.632 160.507C37.88 160.059 37.288 159.475 36.856 158.755C36.424 158.019 36.208 157.163 36.208 156.187C36.208 155.371 36.384 154.627 36.736 153.955C37.072 153.283 37.544 152.707 38.152 152.227C38.76 151.731 39.456 151.355 40.24 151.099C41.024 150.827 41.864 150.691 42.76 150.691C43.656 150.691 44.496 150.843 45.28 151.147C46.064 151.435 46.76 151.843 47.368 152.371C47.96 152.899 48.424 153.523 48.76 154.243C49.08 154.947 49.24 155.723 49.24 156.571ZM46.504 157.459C46.504 156.947 46.408 156.483 46.216 156.067C46.008 155.635 45.736 155.267 45.4 154.963C45.064 154.643 44.672 154.403 44.224 154.243C43.76 154.067 43.28 153.979 42.784 153.979C42.096 153.979 41.464 154.123 40.888 154.411C40.296 154.683 39.824 155.067 39.472 155.563C39.12 156.043 38.944 156.611 38.944 157.267C38.944 157.731 39.056 158.179 39.28 158.611C39.488 159.027 39.776 159.403 40.144 159.739C40.512 160.059 40.928 160.315 41.392 160.507L44.392 160.507C44.712 160.411 45 160.259 45.256 160.051C45.512 159.827 45.736 159.571 45.928 159.283C46.104 158.995 46.248 158.699 46.36 158.395C46.456 158.075 46.504 157.763 46.504 157.459ZM49 148.513L36.424 148.513L36.424 145.297L49 145.297L49 148.513ZM34.672 148.513L31.48 148.513L31.48 145.297L34.672 145.297L34.672 148.513ZM31.48 142.419L31.48 139.203L44.968 139.203C45.544 139.203 45.936 139.107 46.144 138.915C46.336 138.723 46.432 138.459 46.432 138.123C46.432 137.867 46.4 137.603 46.336 137.331C46.272 137.059 46.192 136.819 46.096 136.611L48.544 136.179C48.752 136.611 48.912 137.115 49.024 137.691C49.136 138.267 49.192 138.787 49.192 139.251C49.192 140.259 48.928 141.043 48.4 141.603C47.856 142.147 47.088 142.419 46.096 142.419L31.48 142.419ZM49 134.778L36.424 134.778L36.424 131.562L49 131.562L49 134.778ZM34.672 134.778L31.48 134.778L31.48 131.562L34.672 131.562L34.672 134.778ZM48.352 121.125C48.464 121.397 48.592 121.725 48.736 122.109C48.88 122.493 48.992 122.909 49.072 123.357C49.168 123.789 49.216 124.229 49.216 124.677C49.216 125.269 49.112 125.813 48.904 126.309C48.696 126.805 48.368 127.205 47.92 127.509C47.456 127.797 46.856 127.941 46.12 127.941L38.896 127.941L38.896 129.597L36.424 129.597L36.424 127.941L32.344 127.941L32.344 124.725L36.424 124.725L36.424 122.085L38.896 122.085L38.896 124.725L45.04 124.725C45.472 124.709 45.784 124.589 45.976 124.365C46.168 124.141 46.264 123.861 46.264 123.525C46.264 123.189 46.208 122.861 46.096 122.541C45.984 122.221 45.888 121.965 45.808 121.773L48.352 121.125ZM51.448 119.233C51.512 118.945 51.568 118.681 51.616 118.441C51.664 118.185 51.688 117.969 51.688 117.793C51.688 117.489 51.608 117.241 51.448 117.049C51.304 116.841 51.032 116.641 50.632 116.449C50.248 116.257 49.704 116.057 49 115.849L36.424 120.817L36.424 117.481L45.712 114.097L36.424 111.121L36.424 108.049L51.496 113.329C52.056 113.521 52.56 113.817 53.008 114.217C53.472 114.601 53.832 115.089 54.088 115.681C54.36 116.257 54.496 116.905 54.496 117.625C54.496 117.881 54.472 118.137 54.424 118.393C54.392 118.649 54.328 118.929 54.232 119.233L51.448 119.233Z" fill="black"/>
</svg>
