<svg width="640" height="440" viewBox="0 0 640 440" fill="none" xmlns="http://www.w3.org/2000/svg">
<rect x="0.5" y="0.5" width="639" height="439" fill="#F6F3ED"/>
<rect x="0.5" y="0.5" width="639" height="439" stroke="#E0DBC8"/>
<path d="M121.429 335.118H567.829V45.1985H121.429V335.118Z" fill="white"/>
<path d="M121.429 335.118V339.785V335.118Z" fill="black"/>
<path d="M121.429 335.118V339.785" stroke="black" stroke-width="1.06667"/>
<path d="M111.882 346.367C110.868 346.367 110.104 346.867 109.592 347.867C109.081 348.865 108.826 350.367 108.826 352.374C108.826 354.372 109.081 355.871 109.592 356.871C110.104 357.871 110.868 358.371 111.882 358.371C112.905 358.371 113.672 357.871 114.182 356.871C114.695 355.871 114.951 354.372 114.951 352.374C114.951 350.367 114.695 348.865 114.182 347.867C113.672 346.867 112.905 346.367 111.882 346.367ZM111.882 344.805C113.518 344.805 114.767 345.452 115.629 346.746C116.492 348.037 116.923 349.913 116.923 352.374C116.923 354.828 116.492 356.702 115.629 357.996C114.767 359.287 113.518 359.933 111.882 359.933C110.249 359.933 109.001 359.287 108.138 357.996C107.276 356.702 106.845 354.828 106.845 352.374C106.845 349.913 107.276 348.037 108.138 346.746C109.001 345.452 110.249 344.805 111.882 344.805Z" fill="black"/>
<path d="M120.388 357.167H122.451V359.649H120.388V357.167Z" fill="black"/>
<path d="M130.964 346.367C129.95 346.367 129.186 346.867 128.674 347.867C128.163 348.865 127.908 350.367 127.908 352.374C127.908 354.372 128.163 355.871 128.674 356.871C129.186 357.871 129.95 358.371 130.964 358.371C131.987 358.371 132.754 357.871 133.264 356.871C133.777 355.871 134.033 354.372 134.033 352.374C134.033 350.367 133.777 348.865 133.264 347.867C132.754 346.867 131.987 346.367 130.964 346.367ZM130.964 344.805C132.6 344.805 133.849 345.452 134.711 346.746C135.574 348.037 136.005 349.913 136.005 352.374C136.005 354.828 135.574 356.702 134.711 357.996C133.849 359.287 132.6 359.933 130.964 359.933C129.331 359.933 128.083 359.287 127.221 357.996C126.358 356.702 125.927 354.828 125.927 352.374C125.927 349.913 126.358 348.037 127.221 346.746C128.083 345.452 129.331 344.805 130.964 344.805Z" fill="black"/>
<path d="M195.829 335.118V339.785V335.118Z" fill="black"/>
<path d="M195.829 335.118V339.785" stroke="black" stroke-width="1.06667"/>
<path d="M270.229 335.118V339.785V335.118Z" fill="black"/>
<path d="M270.229 335.118V339.785" stroke="black" stroke-width="1.06667"/>
<path d="M344.629 335.118V339.785V335.118Z" fill="black"/>
<path d="M344.629 335.118V339.785" stroke="black" stroke-width="1.06667"/>
<path d="M419.029 335.118V339.785V335.118Z" fill="black"/>
<path d="M419.029 335.118V339.785" stroke="black" stroke-width="1.06667"/>
<path d="M493.429 335.118V339.785V335.118Z" fill="black"/>
<path d="M493.429 335.118V339.785" stroke="black" stroke-width="1.06667"/>
<path d="M567.829 335.118V339.785V335.118Z" fill="black"/>
<path d="M567.829 335.118V339.785" stroke="black" stroke-width="1.06667"/>
<path d="M560.042 351.786C560.985 351.988 561.722 352.409 562.251 353.049C562.782 353.686 563.048 354.474 563.048 355.411C563.048 356.849 562.553 357.962 561.563 358.752C560.574 359.539 559.168 359.933 557.345 359.933C556.734 359.933 556.105 359.873 555.457 359.752C554.809 359.631 554.141 359.45 553.451 359.208V357.305C553.997 357.624 554.595 357.864 555.245 358.027C555.897 358.189 556.578 358.271 557.288 358.271C558.524 358.271 559.466 358.027 560.113 357.539C560.761 357.052 561.085 356.342 561.085 355.411C561.085 354.551 560.784 353.879 560.182 353.396C559.58 352.91 558.743 352.667 557.67 352.667H555.97V351.046H557.748C558.717 351.046 559.458 350.852 559.973 350.464C560.487 350.077 560.745 349.519 560.745 348.789C560.745 348.041 560.479 347.467 559.948 347.067C559.419 346.665 558.659 346.464 557.67 346.464C557.128 346.464 556.548 346.524 555.929 346.642C555.31 346.759 554.63 346.94 553.888 347.186V345.43C554.638 345.222 555.341 345.065 555.995 344.961C556.649 344.857 557.266 344.805 557.845 344.805C559.343 344.805 560.527 345.146 561.398 345.827C562.271 346.506 562.707 347.425 562.707 348.583C562.707 349.391 562.476 350.074 562.013 350.63C561.551 351.186 560.894 351.572 560.042 351.786Z" fill="black"/>
<path d="M566.788 357.167H568.851V359.649H566.788V357.167Z" fill="black"/>
<path d="M577.364 346.367C576.35 346.367 575.586 346.867 575.074 347.867C574.563 348.865 574.308 350.367 574.308 352.374C574.308 354.372 574.563 355.871 575.074 356.871C575.586 357.871 576.35 358.371 577.364 358.371C578.387 358.371 579.154 357.871 579.664 356.871C580.177 355.871 580.433 354.372 580.433 352.374C580.433 350.367 580.177 348.865 579.664 347.867C579.154 346.867 578.387 346.367 577.364 346.367ZM577.364 344.805C579 344.805 580.249 345.452 581.111 346.746C581.974 348.037 582.405 349.913 582.405 352.374C582.405 354.828 581.974 356.702 581.111 357.996C580.249 359.287 579 359.933 577.364 359.933C575.731 359.933 574.483 359.287 573.62 357.996C572.758 356.702 572.327 354.828 572.327 352.374C572.327 349.913 572.758 348.037 573.62 346.746C574.483 345.452 575.731 344.805 577.364 344.805Z" fill="black"/>
<path d="M316.627 368L309.594 391.112H309.069L306.179 381.715C306.086 381.414 305.981 381.197 305.864 381.064C305.748 380.93 305.594 380.863 305.403 380.863C305.119 380.863 304.835 380.976 304.552 381.201L304.402 380.951L306.453 379.375H306.765L309.606 388.597H309.657L315.913 368H316.627Z" fill="black" stroke="black" stroke-width="0.8"/>
<path d="M323.175 389.421H330.718V391.239H320.576V389.421C321.396 388.572 322.513 387.433 323.928 386.004C325.346 384.573 326.236 383.649 326.599 383.234C327.29 382.458 327.773 381.801 328.047 381.262C328.323 380.723 328.461 380.194 328.461 379.673C328.461 378.824 328.164 378.132 327.568 377.598C326.972 377.062 326.196 376.794 325.24 376.794C324.562 376.794 323.846 376.911 323.093 377.146C322.342 377.381 321.538 377.739 320.682 378.218V376.034C321.552 375.684 322.365 375.421 323.12 375.243C323.878 375.065 324.571 374.976 325.198 374.976C326.853 374.976 328.173 375.39 329.156 376.218C330.14 377.045 330.632 378.15 330.632 379.533C330.632 380.19 330.509 380.813 330.262 381.402C330.018 381.989 329.571 382.682 328.92 383.481C328.742 383.688 328.175 384.286 327.219 385.275C326.264 386.263 324.917 387.645 323.175 389.421Z" fill="black" stroke="black" stroke-width="0.8"/>
<path d="M340.756 381.004L341.944 388.406L347.484 379.121H349.573L342.403 391.104L341.516 395.661H339.548L340.434 391.104L339.034 382.158C338.89 381.26 338.479 380.812 337.801 380.812H337.278L337.599 379.121H338.349C339.753 379.121 340.555 379.748 340.756 381.004Z" fill="black" stroke="black" stroke-width="0.8"/>
<path d="M348.574 383.516H358.034V384.791H354.065V394.699H352.545V384.791H348.574V383.516Z" fill="black" stroke="black" stroke-width="0.8"/>
<path d="M361.006 384.76V388.962H362.909C363.614 388.962 364.158 388.779 364.542 388.415C364.927 388.051 365.119 387.532 365.119 386.857C365.119 386.188 364.927 385.671 364.542 385.307C364.158 384.942 363.614 384.76 362.909 384.76H361.006ZM359.494 383.516H362.909C364.164 383.516 365.111 383.8 365.752 384.367C366.394 384.934 366.715 385.764 366.715 386.857C366.715 387.961 366.394 388.795 365.752 389.359C365.111 389.923 364.164 390.205 362.909 390.205H361.006V394.699H359.494V383.516Z" fill="black" stroke="black" stroke-width="0.8"/>
<path d="M372.483 385.007L370.429 390.572H374.542L372.483 385.007ZM371.627 383.516H373.343L377.605 394.699H376.032L375.014 391.83H369.973L368.955 394.699H367.359L371.627 383.516Z" fill="black" stroke="black" stroke-width="0.8"/>
<path d="M335.991 405.444H347.475L347.088 407.413H345.578L344.146 414.774C344.046 415.288 344.063 415.659 344.198 415.887C344.328 416.108 344.588 416.219 344.979 416.219C345.086 416.219 345.218 416.208 345.376 416.185C345.54 416.171 345.647 416.161 345.698 416.154L345.42 417.578C345.155 417.67 344.887 417.737 344.616 417.78C344.337 417.824 344.067 417.845 343.804 417.845C342.948 417.845 342.403 417.614 342.167 417.15C341.93 416.678 341.934 415.814 342.178 414.558L343.568 407.413H339.148L337.203 417.428H335.19L337.138 407.413H335.607L335.991 405.444Z" fill="black" stroke="black" stroke-width="0.8"/>
<path d="M395.48 392.252L395.054 394.439H389.444L387.625 403.732C387.563 404.078 387.517 404.368 387.488 404.603C387.458 404.837 387.444 405.02 387.444 405.151C387.444 405.803 387.639 406.277 388.031 406.574C388.422 406.871 389.051 407.019 389.919 407.019H392.76L392.286 409.372H389.596C387.926 409.372 386.681 409.046 385.859 408.393C385.04 407.741 384.631 406.753 384.631 405.429C384.631 405.195 384.646 404.937 384.675 404.657C384.705 404.376 384.75 404.068 384.812 403.732L386.632 394.439H384.245L384.69 392.252H387.028L387.977 387.39H390.789L389.855 392.252H395.48Z" fill="black" stroke="black" stroke-width="0.8"/>
<path d="M316.231 369.458V368.089H335.651V369.458H316.231Z" fill="black" stroke="black" stroke-width="0.8"/>
<path d="M303 403.488V401.531H378.331V403.488H303Z" fill="black" stroke="black" stroke-width="0.8"/>
<path d="M121.429 335.118H116.762H121.429Z" fill="black"/>
<path d="M121.429 335.118H116.762" stroke="black" stroke-width="1.06667"/>
<path d="M86.6458 329.436C85.6312 329.436 84.8677 329.936 84.3552 330.936C83.8447 331.934 83.5895 333.436 83.5895 335.442C83.5895 337.44 83.8447 338.939 84.3552 339.939C84.8677 340.939 85.6312 341.439 86.6458 341.439C87.6687 341.439 88.4354 340.939 88.9458 339.939C89.4583 338.939 89.7145 337.44 89.7145 335.442C89.7145 333.436 89.4583 331.934 88.9458 330.936C88.4354 329.936 87.6687 329.436 86.6458 329.436ZM86.6458 327.873C88.2812 327.873 89.5302 328.52 90.3927 329.814C91.2552 331.106 91.6864 332.982 91.6864 335.442C91.6864 337.896 91.2552 339.77 90.3927 341.064C89.5302 342.356 88.2812 343.001 86.6458 343.001C85.0124 343.001 83.7645 342.356 82.902 341.064C82.0395 339.77 81.6083 337.896 81.6083 335.442C81.6083 332.982 82.0395 331.106 82.902 329.814C83.7645 328.52 85.0124 327.873 86.6458 327.873Z" fill="black"/>
<path d="M95.1516 340.236H97.2141V342.717H95.1516V340.236Z" fill="black"/>
<path d="M105.728 329.436C104.713 329.436 103.95 329.936 103.437 330.936C102.927 331.934 102.672 333.436 102.672 335.442C102.672 337.44 102.927 338.939 103.437 339.939C103.95 340.939 104.713 341.439 105.728 341.439C106.751 341.439 107.517 340.939 108.028 339.939C108.54 338.939 108.797 337.44 108.797 335.442C108.797 333.436 108.54 331.934 108.028 330.936C107.517 329.936 106.751 329.436 105.728 329.436ZM105.728 327.873C107.363 327.873 108.612 328.52 109.475 329.814C110.337 331.106 110.768 332.982 110.768 335.442C110.768 337.896 110.337 339.77 109.475 341.064C108.612 342.356 107.363 343.001 105.728 343.001C104.094 343.001 102.847 342.356 101.984 341.064C101.122 339.77 100.69 337.896 100.69 335.442C100.69 332.982 101.122 331.106 101.984 329.814C102.847 328.52 104.094 327.873 105.728 327.873Z" fill="black"/>
<path d="M121.429 286.798H116.762H121.429Z" fill="black"/>
<path d="M121.429 286.798H116.762" stroke="black" stroke-width="1.06667"/>
<path d="M121.429 238.479H116.762H121.429Z" fill="black"/>
<path d="M121.429 238.479H116.762" stroke="black" stroke-width="1.06667"/>
<path d="M121.429 190.158H116.762H121.429Z" fill="black"/>
<path d="M121.429 190.158H116.762" stroke="black" stroke-width="1.06667"/>
<path d="M121.429 141.839H116.762H121.429Z" fill="black"/>
<path d="M121.429 141.839H116.762" stroke="black" stroke-width="1.06667"/>
<path d="M121.429 93.5184H116.762H121.429Z" fill="black"/>
<path d="M121.429 93.5184H116.762" stroke="black" stroke-width="1.06667"/>
<path d="M121.429 45.1985H116.762H121.429Z" fill="black"/>
<path d="M121.429 45.1985H116.762" stroke="black" stroke-width="1.06667"/>
<path d="M86.6458 39.5157C85.6312 39.5157 84.8677 40.0157 84.3552 41.0157C83.8447 42.0136 83.5895 43.5157 83.5895 45.5219C83.5895 47.5198 83.8447 49.0188 84.3552 50.0188C84.8677 51.0188 85.6312 51.5188 86.6458 51.5188C87.6687 51.5188 88.4354 51.0188 88.9458 50.0188C89.4583 49.0188 89.7145 47.5198 89.7145 45.5219C89.7145 43.5157 89.4583 42.0136 88.9458 41.0157C88.4354 40.0157 87.6687 39.5157 86.6458 39.5157ZM86.6458 37.9532C88.2812 37.9532 89.5302 38.6 90.3927 39.8938C91.2552 41.1855 91.6864 43.0615 91.6864 45.5219C91.6864 47.9761 91.2552 49.85 90.3927 51.1438C89.5302 52.4355 88.2812 53.0813 86.6458 53.0813C85.0124 53.0813 83.7645 52.4355 82.902 51.1438C82.0395 49.85 81.6083 47.9761 81.6083 45.5219C81.6083 43.0615 82.0395 41.1855 82.902 39.8938C83.7645 38.6 85.0124 37.9532 86.6458 37.9532Z" fill="black"/>
<path d="M95.1516 50.3156H97.2141V52.7969H95.1516V50.3156Z" fill="black"/>
<path d="M105.975 44.7219C105.089 44.7219 104.387 45.025 103.868 45.6313C103.352 46.2355 103.093 47.0646 103.093 48.1188C103.093 49.1667 103.352 49.9959 103.868 50.6063C104.387 51.2146 105.089 51.5188 105.975 51.5188C106.86 51.5188 107.561 51.2146 108.078 50.6063C108.594 49.9959 108.853 49.1667 108.853 48.1188C108.853 47.0646 108.594 46.2355 108.078 45.6313C107.561 45.025 106.86 44.7219 105.975 44.7219ZM109.89 38.5375V40.3344C109.394 40.1011 108.894 39.923 108.39 39.8C107.886 39.675 107.386 39.6125 106.89 39.6125C105.588 39.6125 104.593 40.0521 103.906 40.9313C103.221 41.8105 102.829 43.1386 102.731 44.9157C103.114 44.349 103.596 43.9146 104.175 43.6125C104.756 43.3105 105.394 43.1594 106.09 43.1594C107.555 43.1594 108.712 43.6042 109.562 44.4938C110.412 45.3813 110.837 46.5896 110.837 48.1188C110.837 49.6167 110.394 50.8188 109.509 51.725C108.624 52.6292 107.446 53.0813 105.975 53.0813C104.287 53.0813 102.998 52.4355 102.106 51.1438C101.214 49.85 100.768 47.9761 100.768 45.5219C100.768 43.2178 101.315 41.3803 102.409 40.0094C103.503 38.6386 104.971 37.9532 106.812 37.9532C107.308 37.9532 107.808 38.0021 108.312 38.1C108.816 38.198 109.342 38.3438 109.89 38.5375Z" fill="black"/>
<path d="M35.2594 212.156C33.9818 211.155 32.7802 209.597 31.6548 207.482C31.2182 206.653 30.9999 205.101 30.9999 202.826C30.9999 200.271 32.0132 198.392 34.0399 197.191C36.0665 195.989 38.7319 195.709 42.0362 196.349C45.3405 196.998 48.0079 198.318 50.0385 200.309C52.0651 202.299 53.0785 204.57 53.0785 207.121C53.0785 208.663 52.7701 209.929 52.1533 210.918C51.5525 211.904 50.6273 212.634 49.3777 213.111L60.5281 215.292V218.764L42.2224 215.196C39.3307 214.631 37.0097 213.618 35.2594 212.156ZM42.0362 199.93C39.4969 199.445 37.5003 199.584 36.0465 200.345C34.6086 201.11 33.8897 202.405 33.8897 204.232C33.8897 206.058 34.6086 207.636 36.0465 208.966C37.5003 210.291 39.4969 211.199 42.0362 211.687C44.5755 212.188 46.5721 212.056 48.0259 211.291C49.4638 210.526 50.1827 209.23 50.1827 207.404C50.1827 205.577 49.4638 204.001 48.0259 202.676C46.5721 201.346 44.5755 200.431 42.0362 199.93Z" fill="black" stroke="black"/>
<path d="M56.6068 189.812V180.548H58.8398V193.004H56.6068C55.5638 191.998 54.1648 190.625 52.4097 188.887C50.6519 187.146 49.5178 186.053 49.0075 185.607C48.0543 184.757 47.2469 184.164 46.5852 183.828C45.9236 183.489 45.2731 183.319 44.6339 183.319C43.591 183.319 42.7415 183.685 42.0854 184.417C41.4266 185.149 41.0971 186.102 41.0971 187.276C41.0971 188.109 41.2415 188.988 41.5303 189.913C41.8191 190.836 42.2578 191.823 42.8466 192.874H40.1635C39.7346 191.806 39.4108 190.808 39.1921 189.88C38.9734 188.949 38.864 188.098 38.864 187.327C38.864 185.294 39.3729 183.674 40.3906 182.465C41.4055 181.257 42.7625 180.653 44.4615 180.653C45.2689 180.653 46.0343 180.804 46.7576 181.107C47.4782 181.407 48.3291 181.957 49.3103 182.756C49.5655 182.974 50.3 183.671 51.514 184.846C52.728 186.018 54.4255 187.673 56.6068 189.812Z" fill="black" stroke="black"/>
<path d="M56.6068 174.514V170.178H41.6354L42.5816 174.896H40.1635L39.2173 170.203V167.549H56.6068V163.214H58.8398V174.514H56.6068Z" fill="black" stroke="black"/>
<mask id="mask0_1238_80" style="mask-type:luminance" maskUnits="userSpaceOnUse" x="121" y="45" width="447" height="291">
<path d="M567.829 45.1985H121.429V335.118H567.829V45.1985Z" fill="white"/>
</mask>
<g mask="url(#mask0_1238_80)">
<path d="M121.429 93.5184L123.672 93.6509L125.916 94.0367L128.159 94.6591L130.402 95.5019L132.645 96.55L134.888 97.789L139.375 100.786L143.861 104.39L148.348 108.511L152.834 113.066L157.321 117.982L164.05 125.891L170.78 134.271L181.996 148.859L206.671 181.324L217.887 195.451L226.86 206.255L235.833 216.545L244.806 226.281L251.536 233.204L258.265 239.798L264.995 246.063L271.725 252.001L278.454 257.618L285.184 262.92L291.914 267.917L298.643 272.618L305.373 277.034L312.103 281.177L321.075 286.297L330.048 290.981L339.021 295.258L347.994 299.156L356.967 302.703L365.94 305.926L374.913 308.85L383.886 311.5L395.102 314.462L406.318 317.071L417.534 319.367L428.75 321.384L442.209 323.48L455.668 325.268L471.371 327.022L487.073 328.473L505.019 329.824L525.208 331.026L547.64 332.051L567.829 332.756" stroke="#C2E5F9" stroke-width="2" stroke-linecap="square"/>
</g>
<mask id="mask1_1238_80" style="mask-type:luminance" maskUnits="userSpaceOnUse" x="121" y="45" width="447" height="291">
<path d="M567.829 45.1985H121.429V335.118H567.829V45.1985Z" fill="white"/>
</mask>
<g mask="url(#mask1_1238_80)">
<path d="M121.429 93.5184L123.672 93.7625L125.916 94.4643L128.159 95.5807L130.402 97.0714L132.645 98.8995L134.888 101.03L137.132 103.432L141.618 108.933L146.105 115.191L150.591 122.027L157.321 133.037L166.294 148.503L184.239 179.638L193.212 194.457L199.942 205.036L206.671 215.093L213.401 224.593L220.131 233.522L226.86 241.876L233.59 249.663L240.32 256.897L247.049 263.599L253.779 269.793L260.509 275.504L267.238 280.76L273.968 285.589L280.698 290.019L287.427 294.077L294.157 297.791L300.886 301.185L307.616 304.284L314.346 307.112L323.319 310.497L332.292 313.486L341.264 316.121L350.237 318.443L359.21 320.487L370.426 322.7L381.642 324.583L392.858 326.184L406.318 327.791L419.777 329.111L435.479 330.356L453.425 331.468L473.614 332.414L498.29 333.244L527.451 333.904L563.343 334.407L567.829 334.453" stroke="#C2E5F9" stroke-width="2" stroke-linecap="square"/>
</g>
<mask id="mask2_1238_80" style="mask-type:luminance" maskUnits="userSpaceOnUse" x="121" y="45" width="447" height="291">
<path d="M567.829 45.1985H121.429V335.118H567.829V45.1985Z" fill="white"/>
</mask>
<g mask="url(#mask2_1238_80)">
<path d="M121.429 93.5184L123.672 93.9184L125.916 95.0481L128.159 96.8103L130.402 99.1185L132.645 101.895L134.888 105.072L137.132 108.586L141.618 116.417L146.105 125.02L152.834 138.758L170.78 176.001L177.51 189.177L184.239 201.637L190.969 213.303L197.699 224.146L202.185 230.916L206.671 237.326L211.158 243.385L215.644 249.102L220.131 254.492L224.617 259.566L229.104 264.34L235.833 270.967L242.563 276.998L249.293 282.479L256.022 287.456L262.752 291.972L269.481 296.067L276.211 299.779L282.941 303.141L289.67 306.186L296.4 308.943L303.13 311.439L312.103 314.402L321.075 316.995L330.048 319.265L339.021 321.251L350.237 323.388L361.453 325.196L372.669 326.725L386.129 328.253L401.831 329.687L417.534 330.822L435.479 331.832L457.912 332.767L482.587 333.492L513.992 334.101L554.37 334.561L567.829 334.663" stroke="#94C5E8" stroke-width="2" stroke-linecap="square"/>
</g>
<mask id="mask3_1238_80" style="mask-type:luminance" maskUnits="userSpaceOnUse" x="121" y="45" width="447" height="291">
<path d="M567.829 45.1985H121.429V335.118H567.829V45.1985Z" fill="white"/>
</mask>
<g mask="url(#mask3_1238_80)">
<path d="M121.429 93.5184L123.672 94.1341L125.916 95.8297L128.159 98.4047L130.402 101.69L132.645 105.543L134.888 109.844L139.375 119.402L146.105 135.054L159.564 166.836L166.294 181.769L173.023 195.719L177.51 204.431L181.996 212.667L186.482 220.434L190.969 227.743L195.455 234.613L199.942 241.061L204.428 247.109L208.915 252.778L213.401 258.088L217.887 263.062L222.374 267.717L226.86 272.075L233.59 278.092L240.32 283.538L247.049 288.465L253.779 292.922L260.509 296.954L267.238 300.601L273.968 303.9L280.698 306.884L287.427 309.582L294.157 312.023L303.13 314.919L312.103 317.451L321.075 319.666L330.048 321.603L341.264 323.687L352.48 325.449L363.697 326.94L377.156 328.429L392.858 329.827L408.561 330.933L426.507 331.916L448.939 332.828L475.857 333.586L507.262 334.159L547.64 334.594L567.829 334.73" stroke="#5090C9" stroke-width="2" stroke-linecap="square"/>
</g>
<mask id="mask4_1238_80" style="mask-type:luminance" maskUnits="userSpaceOnUse" x="121" y="45" width="447" height="291">
<path d="M567.829 45.1985H121.429V335.118H567.829V45.1985Z" fill="white"/>
</mask>
<g mask="url(#mask4_1238_80)">
<path d="M121.429 93.5184L123.672 94.4283L125.916 96.8482L128.159 100.392L130.402 104.759L132.645 109.718L137.132 120.728L155.077 166.885L159.564 177.479L164.05 187.505L168.537 196.954L173.023 205.836L177.51 214.169L181.996 221.978L186.482 229.292L190.969 236.139L195.455 242.545L199.942 248.539L204.428 254.146L208.915 259.39L213.401 264.295L217.887 268.883L222.374 273.174L229.104 279.094L235.833 284.449L242.563 289.293L249.293 293.673L256.022 297.634L262.752 301.217L269.481 304.458L276.211 307.388L282.941 310.039L289.67 312.436L298.643 315.28L307.616 317.767L316.589 319.942L325.562 321.845L336.778 323.892L347.994 325.622L361.453 327.351L374.913 328.765L390.615 330.093L408.561 331.274L428.75 332.274L451.182 333.084L478.101 333.757L511.749 334.295L556.613 334.697L567.829 334.762" stroke="#0E69A7" stroke-width="2" stroke-linecap="square"/>
</g>
<mask id="mask5_1238_80" style="mask-type:luminance" maskUnits="userSpaceOnUse" x="121" y="45" width="447" height="291">
<path d="M567.829 45.1985H121.429V335.118H567.829V45.1985Z" fill="white"/>
</mask>
<g mask="url(#mask5_1238_80)">
<path d="M121.429 93.5184L123.672 94.8219L125.916 98.1262L128.159 102.738L130.402 108.178L134.888 120.336L146.105 151.609L150.591 163.303L155.077 174.34L159.564 184.711L164.05 194.434L168.537 203.537L173.023 212.057L177.51 220.027L181.996 227.482L186.482 234.455L190.969 240.976L195.455 247.075L199.942 252.778L204.428 258.113L208.915 263.101L213.401 267.767L217.887 272.13L222.374 276.211L229.104 281.842L235.833 286.934L242.563 291.54L249.293 295.705L256.022 299.473L262.752 302.88L269.481 305.961L276.211 308.748L282.941 311.269L291.914 314.259L300.886 316.874L309.859 319.162L318.832 321.162L330.048 323.314L341.264 325.134L352.48 326.673L365.94 328.211L379.399 329.468L395.102 330.649L413.047 331.699L433.236 332.589L457.912 333.368L487.073 333.986L525.208 334.478L567.829 334.779" stroke="#074784" stroke-width="2" stroke-linecap="square"/>
</g>
<mask id="mask6_1238_80" style="mask-type:luminance" maskUnits="userSpaceOnUse" x="121" y="45" width="447" height="291">
<path d="M567.829 45.1985H121.429V335.118H567.829V45.1985Z" fill="white"/>
</mask>
<g mask="url(#mask6_1238_80)">
<path d="M121.429 93.5184L123.672 95.334L125.916 99.6493L128.159 105.315L132.645 118.314L139.375 138.275L143.861 150.9L148.348 162.791L152.834 173.94L157.321 184.377L161.807 194.141L166.294 203.274L170.78 211.815L175.266 219.803L179.753 227.274L184.239 234.26L188.726 240.794L193.212 246.905L197.699 252.62L202.185 257.965L206.671 262.963L211.158 267.637L215.644 272.009L220.131 276.098L226.86 281.739L233.59 286.841L240.32 291.456L247.049 295.629L253.779 299.404L260.509 302.818L267.238 305.905L273.968 308.698L280.698 311.223L289.67 314.219L298.643 316.839L307.616 319.131L316.589 321.135L327.805 323.291L339.021 325.115L350.237 326.657L363.697 328.197L377.156 329.457L392.858 330.64L410.804 331.693L430.993 332.584L455.668 333.365L484.83 333.984L522.965 334.476L567.829 334.79" stroke="#022851" stroke-width="2" stroke-linecap="square"/>
</g>
<mask id="mask7_1238_80" style="mask-type:luminance" maskUnits="userSpaceOnUse" x="121" y="45" width="447" height="291">
<path d="M567.829 45.1985H121.429V335.118H567.829V45.1985Z" fill="white"/>
</mask>
<g mask="url(#mask7_1238_80)">
<path d="M121.429 93.5184L123.672 95.9754L125.916 101.344L130.402 114.862L137.132 135.538L141.618 148.436L146.105 160.523L150.591 171.833L155.077 182.411L159.564 192.304L164.05 201.556L168.537 210.209L173.023 218.301L177.51 225.869L181.996 232.947L186.482 239.566L190.969 245.756L195.455 251.545L199.942 256.96L204.428 262.023L208.915 266.759L213.401 271.187L217.887 275.329L224.617 281.044L231.347 286.213L238.076 290.887L244.806 295.115L251.536 298.939L258.265 302.397L264.995 305.525L271.725 308.354L278.454 310.912L287.427 313.947L296.4 316.601L305.373 318.923L314.346 320.953L325.562 323.137L336.778 324.984L347.994 326.547L361.453 328.107L374.913 329.383L390.615 330.582L408.561 331.648L428.75 332.551L453.425 333.342L482.587 333.969L520.722 334.468L567.829 334.797" stroke="#4D0000" stroke-width="2" stroke-linecap="square"/>
</g>
<mask id="mask8_1238_80" style="mask-type:luminance" maskUnits="userSpaceOnUse" x="121" y="45" width="447" height="291">
<path d="M567.829 45.1985H121.429V335.118H567.829V45.1985Z" fill="white"/>
</mask>
<g mask="url(#mask8_1238_80)">
<path d="M121.429 93.5184L123.672 96.7378L125.916 103.07L134.888 131.511L139.375 144.695L143.861 157.031L148.348 168.568L152.834 179.358L157.321 189.449L161.807 198.886L166.294 207.712L170.78 215.966L175.266 223.685L179.753 230.904L184.239 237.655L188.726 243.969L193.212 249.875L197.699 255.397L202.185 260.562L206.671 265.392L211.158 269.909L215.644 274.134L222.374 279.963L229.104 285.235L235.833 290.003L242.563 294.315L249.293 298.216L256.022 301.743L262.752 304.933L269.481 307.818L276.211 310.428L285.184 313.523L294.157 316.231L303.13 318.599L312.103 320.67L321.075 322.481L332.292 324.43L343.508 326.078L356.967 327.723L370.426 329.07L386.129 330.334L404.074 331.458L424.263 332.411L448.939 333.245L478.101 333.906L513.992 334.409L563.343 334.779L567.829 334.801" stroke="#330000" stroke-width="2" stroke-linecap="square"/>
</g>
<mask id="mask9_1238_80" style="mask-type:luminance" maskUnits="userSpaceOnUse" x="121" y="45" width="447" height="291">
<path d="M567.829 45.1985H121.429V335.118H567.829V45.1985Z" fill="white"/>
</mask>
<g mask="url(#mask9_1238_80)">
<path d="M121.429 93.5184L123.672 97.5833L128.159 112.096L132.645 126.512L137.132 140.025L141.618 152.664L146.105 164.484L150.591 175.539L155.077 185.877L159.564 195.545L164.05 204.587L168.537 213.044L173.023 220.952L177.51 228.349L181.996 235.266L186.482 241.734L190.969 247.784L195.455 253.442L199.942 258.734L204.428 263.682L208.915 268.31L213.401 272.638L217.887 276.686L224.617 282.271L231.347 287.323L238.076 291.891L244.806 296.023L251.536 299.76L258.265 303.14L264.995 306.196L271.725 308.961L278.454 311.461L287.427 314.427L296.4 317.021L305.373 319.29L314.346 321.275L325.562 323.409L336.778 325.214L347.994 326.741L361.453 328.266L377.156 329.698L392.858 330.831L410.804 331.839L433.236 332.772L457.912 333.495L489.317 334.103L529.695 334.563L567.829 334.804" stroke="#190000" stroke-width="2" stroke-linecap="square"/>
</g>
<mask id="mask10_1238_80" style="mask-type:luminance" maskUnits="userSpaceOnUse" x="121" y="45" width="447" height="291">
<path d="M567.829 45.1985H121.429V335.118H567.829V45.1985Z" fill="white"/>
</mask>
<g mask="url(#mask10_1238_80)">
<path d="M121.429 93.5184L125.916 109.17L130.402 123.808L134.888 137.498L139.375 150.301L143.861 162.274L148.348 173.471L152.834 183.944L157.321 193.737L161.807 202.897L166.294 211.463L170.78 219.474L175.266 226.966L179.753 233.972L184.239 240.525L188.726 246.653L193.212 252.384L197.699 257.744L202.185 262.757L206.671 267.445L211.158 271.829L215.644 275.929L222.374 281.587L229.104 286.704L235.833 291.331L242.563 295.517L249.293 299.302L256.022 302.726L262.752 305.822L269.481 308.622L276.211 311.155L285.184 314.159L294.157 316.787L303.13 319.085L312.103 321.095L323.319 323.257L334.535 325.086L345.751 326.633L359.21 328.177L372.669 329.441L388.372 330.627L406.318 331.683L426.507 332.577L451.182 333.36L480.344 333.981L518.478 334.475L567.829 334.81" stroke="#D75E5E" stroke-width="4" stroke-dasharray="14.8 6.4"/>
</g>
<path d="M121.429 335.118V45.1985" stroke="black" stroke-width="1.06667" stroke-linecap="square"/>
<path d="M567.829 335.118V45.1985" stroke="black" stroke-width="1.06667" stroke-linecap="square"/>
<path d="M121.429 335.118H567.829" stroke="black" stroke-width="1.06667" stroke-linecap="square"/>
<path d="M121.429 45.1985H567.829" stroke="black" stroke-width="1.06667" stroke-linecap="square"/>
<path d="M395.029 210.318H539.029V114.318H395.029V210.318Z" fill="white"/>
<path d="M438.839 210.318V214.985V210.318Z" fill="black"/>
<path d="M438.839 210.318V214.985" stroke="black" stroke-width="1.06667"/>
<path d="M423.721 233.052H426.943V221.927L423.436 222.63V220.834L426.924 220.13H428.896V233.052H432.118V234.712H423.721V233.052Z" fill="black"/>
<path d="M440.32 221.43C439.306 221.43 438.542 221.93 438.03 222.93C437.519 223.928 437.264 225.43 437.264 227.437C437.264 229.435 437.519 230.934 438.03 231.934C438.542 232.934 439.306 233.434 440.32 233.434C441.343 233.434 442.11 232.934 442.62 231.934C443.133 230.934 443.389 229.435 443.389 227.437C443.389 225.43 443.133 223.928 442.62 222.93C442.11 221.93 441.343 221.43 440.32 221.43ZM440.32 219.868C441.956 219.868 443.205 220.515 444.067 221.809C444.93 223.1 445.361 224.976 445.361 227.437C445.361 229.891 444.93 231.765 444.067 233.059C443.205 234.35 441.956 234.996 440.32 234.996C438.687 234.996 437.439 234.35 436.576 233.059C435.714 231.765 435.283 229.891 435.283 227.437C435.283 224.976 435.714 223.1 436.576 221.809C437.439 220.515 438.687 219.868 440.32 219.868Z" fill="black"/>
<path d="M448.617 225.894H450.872V218.106L448.418 218.599V217.341L450.859 216.849H452.239V225.894H454.495V227.055H448.617V225.894Z" fill="black"/>
<path d="M532.484 210.318V214.985V210.318Z" fill="black"/>
<path d="M532.484 210.318V214.985" stroke="black" stroke-width="1.06667"/>
<path d="M517.365 233.036H520.587V221.911L517.081 222.614V220.817L520.568 220.114H522.54V233.036H525.762V234.696H517.365V233.036Z" fill="black"/>
<path d="M533.965 221.414C532.95 221.414 532.186 221.914 531.674 222.914C531.163 223.912 530.908 225.414 530.908 227.421C530.908 229.419 531.163 230.917 531.674 231.917C532.186 232.917 532.95 233.417 533.965 233.417C534.987 233.417 535.754 232.917 536.265 231.917C536.777 230.917 537.033 229.419 537.033 227.421C537.033 225.414 536.777 223.912 536.265 222.914C535.754 221.914 534.987 221.414 533.965 221.414ZM533.965 219.852C535.6 219.852 536.849 220.499 537.711 221.792C538.574 223.084 539.005 224.96 539.005 227.421C539.005 229.875 538.574 231.749 537.711 233.042C536.849 234.334 535.6 234.98 533.965 234.98C532.331 234.98 531.083 234.334 530.221 233.042C529.358 231.749 528.927 229.875 528.927 227.421C528.927 224.96 529.358 223.084 530.221 221.792C531.083 220.499 532.331 219.852 533.965 219.852Z" fill="black"/>
<path d="M543.211 225.878H548.03V227.039H541.55V225.878C542.074 225.335 542.788 224.608 543.692 223.695C544.597 222.78 545.166 222.19 545.398 221.925C545.84 221.429 546.148 221.009 546.323 220.665C546.5 220.321 546.588 219.982 546.588 219.65C546.588 219.107 546.398 218.666 546.017 218.324C545.637 217.982 545.141 217.81 544.53 217.81C544.097 217.81 543.639 217.885 543.158 218.036C542.678 218.186 542.165 218.414 541.618 218.72V217.325C542.174 217.101 542.693 216.933 543.176 216.819C543.66 216.706 544.102 216.649 544.503 216.649C545.561 216.649 546.404 216.913 547.032 217.443C547.661 217.971 547.975 218.676 547.975 219.56C547.975 219.98 547.896 220.378 547.739 220.755C547.583 221.129 547.297 221.572 546.881 222.082C546.767 222.215 546.405 222.597 545.794 223.229C545.184 223.86 544.323 224.743 543.211 225.878Z" fill="black"/>
<path d="M401.575 210.318V212.985V210.318Z" fill="black"/>
<path d="M401.575 210.318V212.985" stroke="black" stroke-width="0.8"/>
<path d="M410.65 210.318V212.985V210.318Z" fill="black"/>
<path d="M410.65 210.318V212.985" stroke="black" stroke-width="0.8"/>
<path d="M418.065 210.318V212.985V210.318Z" fill="black"/>
<path d="M418.065 210.318V212.985" stroke="black" stroke-width="0.8"/>
<path d="M424.334 210.318V212.985V210.318Z" fill="black"/>
<path d="M424.334 210.318V212.985" stroke="black" stroke-width="0.8"/>
<path d="M429.764 210.318V212.985V210.318Z" fill="black"/>
<path d="M429.764 210.318V212.985" stroke="black" stroke-width="0.8"/>
<path d="M434.554 210.318V212.985V210.318Z" fill="black"/>
<path d="M434.554 210.318V212.985" stroke="black" stroke-width="0.8"/>
<path d="M467.029 210.318V212.985V210.318Z" fill="black"/>
<path d="M467.029 210.318V212.985" stroke="black" stroke-width="0.8"/>
<path d="M483.519 210.318V212.985V210.318Z" fill="black"/>
<path d="M483.519 210.318V212.985" stroke="black" stroke-width="0.8"/>
<path d="M495.219 210.318V212.985V210.318Z" fill="black"/>
<path d="M495.219 210.318V212.985" stroke="black" stroke-width="0.8"/>
<path d="M504.294 210.318V212.985V210.318Z" fill="black"/>
<path d="M504.294 210.318V212.985" stroke="black" stroke-width="0.8"/>
<path d="M511.709 210.318V212.985V210.318Z" fill="black"/>
<path d="M511.709 210.318V212.985" stroke="black" stroke-width="0.8"/>
<path d="M517.978 210.318V212.985V210.318Z" fill="black"/>
<path d="M517.978 210.318V212.985" stroke="black" stroke-width="0.8"/>
<path d="M523.409 210.318V212.985V210.318Z" fill="black"/>
<path d="M523.409 210.318V212.985" stroke="black" stroke-width="0.8"/>
<path d="M528.199 210.318V212.985V210.318Z" fill="black"/>
<path d="M528.199 210.318V212.985" stroke="black" stroke-width="0.8"/>
<path d="M469.429 247.559L467.966 255.093H466.708L468.165 247.601C468.307 246.876 468.27 246.334 468.056 245.973C467.846 245.615 467.458 245.435 466.894 245.435C466.215 245.435 465.636 245.651 465.157 246.083C464.683 246.516 464.373 247.106 464.228 247.855L463.388 252.181H462.123L463.613 244.525H464.877L464.645 245.715C465.032 245.254 465.453 244.91 465.91 244.683C466.36 244.455 466.853 244.341 467.386 244.341C468.266 244.341 468.878 244.612 469.224 245.153C469.567 245.7 469.635 246.502 469.429 247.559Z" fill="black"/>
<path d="M455.391 262.546L456.15 267.275L459.689 261.343H461.024L456.443 268.999L455.876 271.911H454.619L455.185 268.999L454.29 263.283C454.199 262.71 453.936 262.424 453.503 262.424H453.168L453.374 261.343H453.853C454.75 261.343 455.262 261.744 455.391 262.546Z" fill="black"/>
<path d="M460.385 264.151H466.429V264.966H463.893V271.296H462.923V264.966H460.385V264.151Z" fill="black"/>
<path d="M468.328 264.946V267.63H469.544C469.994 267.63 470.342 267.514 470.587 267.281C470.833 267.048 470.956 266.717 470.956 266.286C470.956 265.858 470.833 265.528 470.587 265.295C470.342 265.062 469.994 264.946 469.544 264.946H468.328ZM467.362 264.151H469.544C470.346 264.151 470.951 264.333 471.36 264.695C471.771 265.057 471.976 265.588 471.976 266.286C471.976 266.991 471.771 267.524 471.36 267.885C470.951 268.245 470.346 268.425 469.544 268.425H468.328V271.296H467.362V264.151Z" fill="black"/>
<path d="M475.661 265.104L474.348 268.659H476.976L475.661 265.104ZM475.114 264.151H476.21L478.933 271.296H477.928L477.278 269.463H474.057L473.407 271.296H472.387L475.114 264.151Z" fill="black"/>
<path d="M452.129 260.093V258.843H479.397V260.093H452.129Z" fill="black"/>
<path d="M395.029 190.411H390.362H395.029Z" fill="black"/>
<path d="M395.029 190.411H390.362" stroke="black" stroke-width="1.06667"/>
<path d="M352.977 196.197H356.199V185.072L352.693 185.775V183.978L356.18 183.275H358.152V196.197H361.374V197.856H352.977V196.197Z" fill="black"/>
<path d="M369.577 184.575C368.562 184.575 367.798 185.075 367.286 186.075C366.776 187.073 366.52 188.575 366.52 190.581C366.52 192.579 366.776 194.078 367.286 195.078C367.798 196.078 368.562 196.578 369.577 196.578C370.599 196.578 371.366 196.078 371.877 195.078C372.389 194.078 372.645 192.579 372.645 190.581C372.645 188.575 372.389 187.073 371.877 186.075C371.366 185.075 370.599 184.575 369.577 184.575ZM369.577 183.013C371.212 183.013 372.461 183.66 373.323 184.953C374.186 186.245 374.617 188.121 374.617 190.581C374.617 193.036 374.186 194.91 373.323 196.203C372.461 197.495 371.212 198.141 369.577 198.141C367.943 198.141 366.695 197.495 365.833 196.203C364.97 194.91 364.539 193.036 364.539 190.581C364.539 188.121 364.97 186.245 365.833 184.953C366.695 183.66 367.943 183.013 369.577 183.013Z" fill="black"/>
<path d="M380.586 180.903C379.875 180.903 379.341 181.253 378.982 181.953C378.625 182.652 378.446 183.703 378.446 185.108C378.446 186.506 378.625 187.556 378.982 188.256C379.341 188.956 379.875 189.306 380.586 189.306C381.302 189.306 381.838 188.956 382.196 188.256C382.554 187.556 382.734 186.506 382.734 185.108C382.734 183.703 382.554 182.652 382.196 181.953C381.838 181.253 381.302 180.903 380.586 180.903ZM380.586 179.81C381.73 179.81 382.605 180.262 383.209 181.168C383.812 182.072 384.114 183.385 384.114 185.108C384.114 186.826 383.812 188.137 383.209 189.043C382.605 189.947 381.73 190.399 380.586 190.399C379.442 190.399 378.569 189.947 377.965 189.043C377.361 188.137 377.059 186.826 377.059 185.108C377.059 183.385 377.361 182.072 377.965 181.168C378.569 180.262 379.442 179.81 380.586 179.81Z" fill="black"/>
<path d="M395.029 206.408H392.363H395.029Z" fill="black"/>
<path d="M395.029 206.408H392.363" stroke="black" stroke-width="0.8"/>
<path d="M395.029 200.419H392.363H395.029Z" fill="black"/>
<path d="M395.029 200.419H392.363" stroke="black" stroke-width="0.8"/>
<path d="M395.029 195.136H392.363H395.029Z" fill="black"/>
<path d="M395.029 195.136H392.363" stroke="black" stroke-width="0.8"/>
<path d="M395.029 159.324H392.363H395.029Z" fill="black"/>
<path d="M395.029 159.324H392.363" stroke="black" stroke-width="0.8"/>
<path d="M342.121 163.181H346.71V164.288H340.54V163.181C341.038 162.665 341.718 161.972 342.579 161.102C343.442 160.231 343.983 159.67 344.204 159.417C344.625 158.945 344.919 158.545 345.085 158.217C345.253 157.889 345.337 157.567 345.337 157.25C345.337 156.733 345.156 156.313 344.794 155.988C344.431 155.661 343.959 155.498 343.377 155.498C342.965 155.498 342.529 155.57 342.071 155.713C341.614 155.856 341.125 156.073 340.604 156.365V155.036C341.133 154.823 341.628 154.663 342.087 154.554C342.549 154.446 342.97 154.392 343.352 154.392C344.359 154.392 345.162 154.644 345.76 155.148C346.359 155.651 346.658 156.323 346.658 157.165C346.658 157.565 346.583 157.944 346.433 158.302C346.285 158.659 346.012 159.081 345.617 159.567C345.508 159.693 345.163 160.057 344.581 160.658C344.001 161.26 343.181 162.101 342.121 163.181Z" fill="black"/>
<path d="M359.993 157.125L357.016 160.115L359.993 163.09L359.218 163.877L356.229 160.89L353.241 163.877L352.472 163.09L355.441 160.115L352.472 157.125L353.241 156.338L356.229 159.327L359.218 156.338L359.993 157.125Z" fill="black"/>
<path d="M366.067 163.181H368.215V155.765L365.877 156.233V155.036L368.202 154.567H369.517V163.181H371.665V164.288H366.067V163.181Z" fill="black"/>
<path d="M377.133 155.433C376.457 155.433 375.948 155.767 375.606 156.433C375.266 157.099 375.096 158.1 375.096 159.438C375.096 160.77 375.266 161.769 375.606 162.436C375.948 163.102 376.457 163.436 377.133 163.436C377.815 163.436 378.326 163.102 378.667 162.436C379.008 161.769 379.179 160.77 379.179 159.438C379.179 158.1 379.008 157.099 378.667 156.433C378.326 155.767 377.815 155.433 377.133 155.433ZM377.133 154.392C378.224 154.392 379.056 154.823 379.631 155.686C380.206 156.547 380.494 157.797 380.494 159.438C380.494 161.074 380.206 162.323 379.631 163.186C379.056 164.047 378.224 164.477 377.133 164.477C376.044 164.477 375.213 164.047 374.638 163.186C374.063 162.323 373.775 161.074 373.775 159.438C373.775 157.797 374.063 156.547 374.638 155.686C375.213 154.823 376.044 154.392 377.133 154.392Z" fill="black"/>
<path d="M384.473 152.986C383.999 152.986 383.643 153.219 383.404 153.686C383.166 154.151 383.047 154.852 383.047 155.788C383.047 156.721 383.166 157.42 383.404 157.887C383.643 158.354 383.999 158.587 384.473 158.587C384.95 158.587 385.308 158.354 385.546 157.887C385.785 157.42 385.905 156.721 385.905 155.788C385.905 154.852 385.785 154.151 385.546 153.686C385.308 153.219 384.95 152.986 384.473 152.986ZM384.473 152.256C385.236 152.256 385.819 152.558 386.221 153.162C386.624 153.765 386.825 154.64 386.825 155.788C386.825 156.934 386.624 157.808 386.221 158.412C385.819 159.015 385.236 159.316 384.473 159.316C383.711 159.316 383.128 159.015 382.726 158.412C382.323 157.808 382.122 156.934 382.122 155.788C382.122 154.64 382.323 153.765 382.726 153.162C383.128 152.558 383.711 152.256 384.473 152.256Z" fill="black"/>
<path d="M395.029 141.139H392.362H395.029Z" fill="black"/>
<path d="M395.029 141.139H392.362" stroke="black" stroke-width="0.8"/>
<path d="M344.973 140.861C345.602 140.996 346.093 141.276 346.446 141.703C346.8 142.128 346.977 142.653 346.977 143.278C346.977 144.236 346.647 144.978 345.987 145.505C345.328 146.03 344.39 146.292 343.175 146.292C342.768 146.292 342.349 146.252 341.917 146.172C341.485 146.091 341.039 145.97 340.579 145.809V144.54C340.943 144.753 341.342 144.913 341.775 145.022C342.21 145.13 342.664 145.184 343.137 145.184C343.961 145.184 344.589 145.022 345.021 144.697C345.453 144.372 345.669 143.899 345.669 143.278C345.669 142.704 345.468 142.256 345.067 141.934C344.665 141.61 344.107 141.449 343.392 141.449H342.258V140.367H343.444C344.09 140.367 344.584 140.238 344.927 139.98C345.27 139.722 345.442 139.349 345.442 138.863C345.442 138.365 345.265 137.982 344.91 137.715C344.558 137.447 344.051 137.313 343.392 137.313C343.03 137.313 342.644 137.353 342.231 137.432C341.819 137.51 341.365 137.631 340.871 137.794V136.624C341.371 136.485 341.839 136.381 342.275 136.311C342.711 136.242 343.122 136.207 343.508 136.207C344.507 136.207 345.296 136.434 345.877 136.888C346.459 137.341 346.75 137.953 346.75 138.726C346.75 139.265 346.596 139.719 346.287 140.09C345.979 140.461 345.541 140.718 344.973 140.861Z" fill="black"/>
<path d="M359.993 138.94L357.016 141.93L359.993 144.905L359.218 145.692L356.229 142.705L353.241 145.692L352.472 144.905L355.441 141.93L352.472 138.94L353.241 138.153L356.229 141.142L359.218 138.153L359.993 138.94Z" fill="black"/>
<path d="M366.067 144.997H368.215V137.58L365.877 138.049V136.851L368.202 136.382H369.517V144.997H371.665V146.103H366.067V144.997Z" fill="black"/>
<path d="M377.133 137.249C376.457 137.249 375.948 137.582 375.606 138.249C375.266 138.914 375.096 139.915 375.096 141.253C375.096 142.585 375.266 143.584 375.606 144.251C375.948 144.917 376.457 145.251 377.133 145.251C377.815 145.251 378.326 144.917 378.667 144.251C379.008 143.584 379.179 142.585 379.179 141.253C379.179 139.915 379.008 138.914 378.667 138.249C378.326 137.582 377.815 137.249 377.133 137.249ZM377.133 136.207C378.224 136.207 379.056 136.638 379.631 137.501C380.206 138.362 380.494 139.612 380.494 141.253C380.494 142.889 380.206 144.138 379.631 145.001C379.056 145.862 378.224 146.292 377.133 146.292C376.044 146.292 375.212 145.862 374.637 145.001C374.062 144.138 373.775 142.889 373.775 141.253C373.775 139.612 374.062 138.362 374.637 137.501C375.212 136.638 376.044 136.207 377.133 136.207Z" fill="black"/>
<path d="M384.473 134.801C383.999 134.801 383.643 135.034 383.404 135.501C383.166 135.966 383.046 136.667 383.046 137.604C383.046 138.536 383.166 139.236 383.404 139.702C383.643 140.169 383.999 140.402 384.473 140.402C384.95 140.402 385.308 140.169 385.546 139.702C385.785 139.236 385.905 138.536 385.905 137.604C385.905 136.667 385.785 135.966 385.546 135.501C385.308 135.034 384.95 134.801 384.473 134.801ZM384.473 134.072C385.236 134.072 385.819 134.373 386.221 134.977C386.624 135.58 386.825 136.455 386.825 137.604C386.825 138.749 386.624 139.623 386.221 140.227C385.819 140.83 385.236 141.131 384.473 141.131C383.71 141.131 383.128 140.83 382.726 140.227C382.323 139.623 382.122 138.749 382.122 137.604C382.122 136.455 382.323 135.58 382.726 134.977C383.128 134.373 383.71 134.072 384.473 134.072Z" fill="black"/>
<path d="M395.029 128.237H392.363H395.029Z" fill="black"/>
<path d="M395.029 128.237H392.363" stroke="black" stroke-width="0.8"/>
<path d="M344.602 124.625L341.281 129.815H344.602V124.625ZM344.256 123.48H345.91V129.815H347.298V130.909H345.91V133.2H344.602V130.909H340.215V129.64L344.256 123.48Z" fill="black"/>
<path d="M359.993 126.038L357.016 129.028L359.993 132.003L359.218 132.79L356.229 129.803L353.241 132.79L352.472 132.003L355.441 129.028L352.472 126.038L353.241 125.25L356.229 128.24L359.218 125.25L359.993 126.038Z" fill="black"/>
<path d="M366.067 132.094H368.215V124.678L365.877 125.146V123.948L368.202 123.48H369.517V132.094H371.665V133.2H366.067V132.094Z" fill="black"/>
<path d="M377.133 124.346C376.457 124.346 375.948 124.68 375.606 125.346C375.266 126.012 375.096 127.013 375.096 128.35C375.096 129.682 375.266 130.682 375.606 131.348C375.948 132.015 376.457 132.348 377.133 132.348C377.815 132.348 378.326 132.015 378.667 131.348C379.008 130.682 379.179 129.682 379.179 128.35C379.179 127.013 379.008 126.012 378.667 125.346C378.326 124.68 377.815 124.346 377.133 124.346ZM377.133 123.305C378.224 123.305 379.056 123.736 379.631 124.598C380.206 125.459 380.494 126.71 380.494 128.35C380.494 129.987 380.206 131.236 379.631 132.098C379.056 132.959 378.224 133.39 377.133 133.39C376.044 133.39 375.213 132.959 374.638 132.098C374.063 131.236 373.775 129.987 373.775 128.35C373.775 126.71 374.063 125.459 374.638 124.598C375.213 123.736 376.044 123.305 377.133 123.305Z" fill="black"/>
<path d="M384.473 121.898C383.999 121.898 383.643 122.132 383.404 122.598C383.166 123.064 383.047 123.765 383.047 124.701C383.047 125.634 383.166 126.333 383.404 126.8C383.643 127.267 383.999 127.5 384.473 127.5C384.95 127.5 385.308 127.267 385.546 126.8C385.785 126.333 385.905 125.634 385.905 124.701C385.905 123.765 385.785 123.064 385.546 122.598C385.308 122.132 384.95 121.898 384.473 121.898ZM384.473 121.169C385.236 121.169 385.819 121.471 386.221 122.075C386.624 122.678 386.825 123.553 386.825 124.701C386.825 125.847 386.624 126.721 386.221 127.325C385.819 127.928 385.236 128.229 384.473 128.229C383.711 128.229 383.128 127.928 382.726 127.325C382.323 126.721 382.122 125.847 382.122 124.701C382.122 123.553 382.323 122.678 382.726 122.075C383.128 121.471 383.711 121.169 384.473 121.169Z" fill="black"/>
<path d="M395.029 118.229H392.363H395.029Z" fill="black"/>
<path d="M395.029 118.229H392.363" stroke="black" stroke-width="0.8"/>
<path d="M307.832 164.557L312.562 163.798L306.629 160.258V158.924L314.285 163.505L317.197 164.071V165.329L314.285 164.762L308.569 165.657C307.996 165.749 307.71 166.011 307.71 166.445V166.779L306.629 166.574V166.095C306.629 165.198 307.03 164.685 307.832 164.557Z" fill="black"/>
<path d="M324.65 173.957L329.379 173.198L323.447 169.658V168.324L331.103 172.905L334.015 173.471V174.729L331.103 174.162L325.387 175.057C324.814 175.149 324.528 175.412 324.528 175.845V176.179L323.447 175.974V175.495C323.447 174.598 323.848 174.085 324.65 173.957Z" fill="black"/>
<path d="M326.255 168.962V162.918H327.07V165.454H333.4V166.425H327.07V168.962H326.255Z" fill="black"/>
<path d="M327.05 161.019H329.734V159.803C329.734 159.353 329.618 159.006 329.385 158.761C329.152 158.515 328.821 158.392 328.39 158.392C327.962 158.392 327.632 158.515 327.399 158.761C327.166 159.006 327.05 159.353 327.05 159.803V161.019ZM326.255 161.985V159.803C326.255 159.002 326.436 158.397 326.799 157.987C327.161 157.577 327.692 157.372 328.39 157.372C329.095 157.372 329.628 157.577 329.988 157.987C330.349 158.397 330.529 159.002 330.529 159.803V161.019H333.4V161.985H326.255Z" fill="black"/>
<path d="M327.208 153.687L330.763 154.999V152.372L327.208 153.687ZM326.255 154.234V153.137L333.4 150.415V151.419L331.567 152.07V155.29L333.4 155.941V156.961L326.255 154.234Z" fill="black"/>
<path d="M322.197 177.218H320.947V149.951H322.197V177.218Z" fill="black"/>
<mask id="mask11_1238_80" style="mask-type:luminance" maskUnits="userSpaceOnUse" x="395" y="114" width="145" height="97">
<path d="M539.029 114.318H395.029V210.318H539.029V114.318Z" fill="white"/>
</mask>
<g mask="url(#mask11_1238_80)">
<path d="M401.575 201.955L400.677 204.719H397.77L400.122 206.427L399.223 209.191L401.575 207.483L403.926 209.191L403.028 206.427L405.379 204.719H402.473L401.575 201.955Z" fill="#C2E5F9" stroke="#C2E5F9" stroke-width="1.33333" stroke-linejoin="bevel"/>
</g>
<mask id="mask12_1238_80" style="mask-type:luminance" maskUnits="userSpaceOnUse" x="395" y="114" width="145" height="97">
<path d="M539.029 114.318H395.029V210.318H539.029V114.318Z" fill="white"/>
</mask>
<g mask="url(#mask12_1238_80)">
<path d="M416.12 188.039L415.222 190.803H412.316L414.667 192.511L413.769 195.275L416.12 193.567L418.471 195.275L417.573 192.511L419.924 190.803H417.018L416.12 188.039Z" fill="#C2E5F9" stroke="#C2E5F9" stroke-width="1.33333" stroke-linejoin="bevel"/>
</g>
<mask id="mask13_1238_80" style="mask-type:luminance" maskUnits="userSpaceOnUse" x="395" y="114" width="145" height="97">
<path d="M539.029 114.318H395.029V210.318H539.029V114.318Z" fill="white"/>
</mask>
<g mask="url(#mask13_1238_80)">
<path d="M430.666 176.659L429.767 179.423H426.861L429.212 181.131L428.314 183.895L430.666 182.187L433.017 183.895L432.119 181.131L434.47 179.423H431.564L430.666 176.659Z" fill="#94C5E8" stroke="#94C5E8" stroke-width="1.33333" stroke-linejoin="bevel"/>
</g>
<mask id="mask14_1238_80" style="mask-type:luminance" maskUnits="userSpaceOnUse" x="395" y="114" width="145" height="97">
<path d="M539.029 114.318H395.029V210.318H539.029V114.318Z" fill="white"/>
</mask>
<g mask="url(#mask14_1238_80)">
<path d="M445.211 166.556L444.313 169.32H441.407L443.758 171.028L442.86 173.792L445.211 172.084L447.562 173.792L446.664 171.028L449.015 169.32H446.109L445.211 166.556Z" fill="#5090C9" stroke="#5090C9" stroke-width="1.33333" stroke-linejoin="bevel"/>
</g>
<mask id="mask15_1238_80" style="mask-type:luminance" maskUnits="userSpaceOnUse" x="395" y="114" width="145" height="97">
<path d="M539.029 114.318H395.029V210.318H539.029V114.318Z" fill="white"/>
</mask>
<g mask="url(#mask15_1238_80)">
<path d="M459.756 157.186L458.858 159.95H455.952L458.303 161.658L457.405 164.422L459.756 162.714L462.108 164.422L461.21 161.658L463.561 159.95H460.655L459.756 157.186Z" fill="#0E69A7" stroke="#0E69A7" stroke-width="1.33333" stroke-linejoin="bevel"/>
</g>
<mask id="mask16_1238_80" style="mask-type:luminance" maskUnits="userSpaceOnUse" x="395" y="114" width="145" height="97">
<path d="M539.029 114.318H395.029V210.318H539.029V114.318Z" fill="white"/>
</mask>
<g mask="url(#mask16_1238_80)">
<path d="M474.302 148.268L473.404 151.032H470.498L472.849 152.741L471.951 155.505L474.302 153.796L476.653 155.505L475.755 152.741L478.106 151.032H475.2L474.302 148.268Z" fill="#074784" stroke="#074784" stroke-width="1.33333" stroke-linejoin="bevel"/>
</g>
<mask id="mask17_1238_80" style="mask-type:luminance" maskUnits="userSpaceOnUse" x="395" y="114" width="145" height="97">
<path d="M539.029 114.318H395.029V210.318H539.029V114.318Z" fill="white"/>
</mask>
<g mask="url(#mask17_1238_80)">
<path d="M488.847 139.641L487.949 142.405H485.043L487.394 144.113L486.496 146.877L488.847 145.169L491.198 146.877L490.3 144.113L492.652 142.405H489.745L488.847 139.641Z" fill="#022851" stroke="#022851" stroke-width="1.33333" stroke-linejoin="bevel"/>
</g>
<mask id="mask18_1238_80" style="mask-type:luminance" maskUnits="userSpaceOnUse" x="395" y="114" width="145" height="97">
<path d="M539.029 114.318H395.029V210.318H539.029V114.318Z" fill="white"/>
</mask>
<g mask="url(#mask18_1238_80)">
<path d="M503.393 131.206L502.495 133.97H499.589L501.94 135.678L501.042 138.442L503.393 136.734L505.744 138.442L504.846 135.678L507.197 133.97H504.291L503.393 131.206Z" fill="#4D0000" stroke="#4D0000" stroke-width="1.33333" stroke-linejoin="bevel"/>
</g>
<mask id="mask19_1238_80" style="mask-type:luminance" maskUnits="userSpaceOnUse" x="395" y="114" width="145" height="97">
<path d="M539.029 114.318H395.029V210.318H539.029V114.318Z" fill="white"/>
</mask>
<g mask="url(#mask19_1238_80)">
<path d="M517.938 122.9L517.04 125.664H514.134L516.485 127.372L515.587 130.136L517.938 128.428L520.289 130.136L519.391 127.372L521.742 125.664H518.836L517.938 122.9Z" fill="#330000" stroke="#330000" stroke-width="1.33333" stroke-linejoin="bevel"/>
</g>
<mask id="mask20_1238_80" style="mask-type:luminance" maskUnits="userSpaceOnUse" x="395" y="114" width="145" height="97">
<path d="M539.029 114.318H395.029V210.318H539.029V114.318Z" fill="white"/>
</mask>
<g mask="url(#mask20_1238_80)">
<path d="M532.484 114.682L531.586 117.446H528.679L531.031 119.154L530.133 121.918L532.484 120.21L534.835 121.918L533.937 119.154L536.288 117.446H533.382L532.484 114.682Z" fill="#190000" stroke="#190000" stroke-width="1.33333" stroke-linejoin="bevel"/>
</g>
<path d="M395.029 210.318V114.318" stroke="black" stroke-width="1.06667" stroke-linecap="square"/>
<path d="M539.029 210.318V114.318" stroke="black" stroke-width="1.06667" stroke-linecap="square"/>
<path d="M395.029 210.318H539.029" stroke="black" stroke-width="1.06667" stroke-linecap="square"/>
<path d="M395.029 114.318H539.029" stroke="black" stroke-width="1.06667" stroke-linecap="square"/>
</svg>
