<svg width="640" height="440" viewBox="0 0 640 440" fill="none" xmlns="http://www.w3.org/2000/svg">
<rect x="0.5" y="0.5" width="639" height="439" fill="#F6F3ED"/>
<rect x="0.5" y="0.5" width="639" height="439" stroke="#E0DBC8"/>
<path d="M128.632 341.165H575.032V51.2453H128.632V341.165Z" fill="white"/>
<path d="M128.632 341.165V345.832V341.165Z" fill="black"/>
<path d="M128.632 341.165V345.832" stroke="black" stroke-width="1.06667"/>
<path d="M119.085 352.414C118.071 352.414 117.307 352.914 116.795 353.914C116.284 354.912 116.029 356.414 116.029 358.421C116.029 360.419 116.284 361.917 116.795 362.917C117.307 363.917 118.071 364.417 119.085 364.417C120.108 364.417 120.875 363.917 121.385 362.917C121.898 361.917 122.154 360.419 122.154 358.421C122.154 356.414 121.898 354.912 121.385 353.914C120.875 352.914 120.108 352.414 119.085 352.414ZM119.085 350.852C120.721 350.852 121.97 351.499 122.832 352.792C123.695 354.084 124.126 355.96 124.126 358.421C124.126 360.875 123.695 362.749 122.832 364.042C121.97 365.334 120.721 365.98 119.085 365.98C117.452 365.98 116.204 365.334 115.342 364.042C114.479 362.749 114.048 360.875 114.048 358.421C114.048 355.96 114.479 354.084 115.342 352.792C116.204 351.499 117.452 350.852 119.085 350.852Z" fill="black"/>
<path d="M127.591 363.214H129.654V365.696H127.591V363.214Z" fill="black"/>
<path d="M138.167 352.414C137.153 352.414 136.389 352.914 135.877 353.914C135.366 354.912 135.111 356.414 135.111 358.421C135.111 360.419 135.366 361.917 135.877 362.917C136.389 363.917 137.153 364.417 138.167 364.417C139.19 364.417 139.957 363.917 140.467 362.917C140.98 361.917 141.236 360.419 141.236 358.421C141.236 356.414 140.98 354.912 140.467 353.914C139.957 352.914 139.19 352.414 138.167 352.414ZM138.167 350.852C139.803 350.852 141.052 351.499 141.914 352.792C142.777 354.084 143.208 355.96 143.208 358.421C143.208 360.875 142.777 362.749 141.914 364.042C141.052 365.334 139.803 365.98 138.167 365.98C136.534 365.98 135.286 365.334 134.424 364.042C133.561 362.749 133.13 360.875 133.13 358.421C133.13 355.96 133.561 354.084 134.424 352.792C135.286 351.499 136.534 350.852 138.167 350.852Z" fill="black"/>
<path d="M203.032 341.165V345.832V341.165Z" fill="black"/>
<path d="M203.032 341.165V345.832" stroke="black" stroke-width="1.06667"/>
<path d="M277.432 341.165V345.832V341.165Z" fill="black"/>
<path d="M277.432 341.165V345.832" stroke="black" stroke-width="1.06667"/>
<path d="M351.832 341.165V345.832V341.165Z" fill="black"/>
<path d="M351.832 341.165V345.832" stroke="black" stroke-width="1.06667"/>
<path d="M426.232 341.165V345.832V341.165Z" fill="black"/>
<path d="M426.232 341.165V345.832" stroke="black" stroke-width="1.06667"/>
<path d="M500.632 341.165V345.832V341.165Z" fill="black"/>
<path d="M500.632 341.165V345.832" stroke="black" stroke-width="1.06667"/>
<path d="M575.032 341.165V345.832V341.165Z" fill="black"/>
<path d="M575.032 341.165V345.832" stroke="black" stroke-width="1.06667"/>
<path d="M567.245 357.833C568.189 358.035 568.925 358.456 569.454 359.096C569.985 359.733 570.251 360.521 570.251 361.458C570.251 362.896 569.756 364.009 568.767 364.799C567.777 365.586 566.371 365.98 564.548 365.98C563.938 365.98 563.308 365.92 562.66 365.799C562.013 365.678 561.344 365.497 560.654 365.255V363.352C561.2 363.671 561.798 363.911 562.448 364.074C563.1 364.236 563.781 364.317 564.492 364.317C565.727 364.317 566.669 364.074 567.317 363.586C567.965 363.099 568.289 362.389 568.289 361.458C568.289 360.598 567.988 359.926 567.385 359.442C566.783 358.957 565.946 358.714 564.873 358.714H563.173V357.092H564.951C565.92 357.092 566.661 356.899 567.176 356.511C567.691 356.124 567.948 355.565 567.948 354.836C567.948 354.088 567.682 353.514 567.151 353.114C566.622 352.712 565.863 352.511 564.873 352.511C564.331 352.511 563.751 352.571 563.132 352.689C562.514 352.806 561.833 352.987 561.092 353.233V351.477C561.842 351.269 562.544 351.112 563.198 351.008C563.852 350.904 564.469 350.852 565.048 350.852C566.546 350.852 567.73 351.192 568.601 351.874C569.474 352.553 569.91 353.472 569.91 354.63C569.91 355.438 569.679 356.121 569.217 356.677C568.754 357.233 568.097 357.619 567.245 357.833Z" fill="black"/>
<path d="M573.991 363.214H576.054V365.696H573.991V363.214Z" fill="black"/>
<path d="M584.568 352.414C583.553 352.414 582.789 352.914 582.277 353.914C581.766 354.912 581.511 356.414 581.511 358.421C581.511 360.419 581.766 361.917 582.277 362.917C582.789 363.917 583.553 364.417 584.568 364.417C585.59 364.417 586.357 363.917 586.868 362.917C587.38 361.917 587.636 360.419 587.636 358.421C587.636 356.414 587.38 354.912 586.868 353.914C586.357 352.914 585.59 352.414 584.568 352.414ZM584.568 350.852C586.203 350.852 587.452 351.499 588.314 352.792C589.177 354.084 589.608 355.96 589.608 358.421C589.608 360.875 589.177 362.749 588.314 364.042C587.452 365.334 586.203 365.98 584.568 365.98C582.934 365.98 581.686 365.334 580.824 364.042C579.961 362.749 579.53 360.875 579.53 358.421C579.53 355.96 579.961 354.084 580.824 352.792C581.686 351.499 582.934 350.852 584.568 350.852Z" fill="black"/>
<path d="M336.288 377.753L330.033 398.311H329.565L326.994 389.953C326.912 389.685 326.819 389.492 326.714 389.374C326.611 389.255 326.474 389.195 326.304 389.195C326.051 389.195 325.799 389.295 325.547 389.496L325.414 389.273L327.238 387.872H327.516L330.043 396.075H330.088L335.653 377.753H336.288Z" fill="black" stroke="black"/>
<path d="M342.113 396.808H348.822V398.425H339.801V396.808C340.53 396.053 341.524 395.04 342.783 393.769C344.044 392.495 344.835 391.674 345.158 391.305C345.773 390.614 346.203 390.03 346.447 389.55C346.692 389.071 346.815 388.6 346.815 388.137C346.815 387.382 346.55 386.767 346.02 386.292C345.49 385.814 344.8 385.576 343.949 385.576C343.346 385.576 342.71 385.68 342.039 385.89C341.371 386.099 340.657 386.416 339.895 386.843V384.9C340.669 384.589 341.392 384.355 342.064 384.196C342.738 384.038 343.354 383.959 343.913 383.959C345.385 383.959 346.558 384.327 347.433 385.064C348.308 385.799 348.746 386.782 348.746 388.012C348.746 388.597 348.636 389.151 348.417 389.675C348.2 390.197 347.802 390.813 347.223 391.524C347.065 391.709 346.56 392.241 345.709 393.12C344.861 393.999 343.662 395.228 342.113 396.808Z" fill="black" stroke="black"/>
<path d="M357.752 389.321L358.808 395.905L363.736 387.645H365.594L359.216 398.305L358.428 402.359H356.676L357.465 398.305L356.22 390.347C356.092 389.549 355.726 389.15 355.123 389.15H354.657L354.943 387.645H355.61C356.859 387.645 357.573 388.204 357.752 389.321Z" fill="black" stroke="black"/>
<path d="M340.425 411.061H350.64L350.296 412.812H348.953L347.68 419.36C347.59 419.817 347.606 420.147 347.725 420.35C347.841 420.547 348.073 420.645 348.42 420.645C348.515 420.645 348.633 420.635 348.773 420.615C348.919 420.603 349.015 420.593 349.059 420.587L348.813 421.854C348.577 421.936 348.339 421.995 348.097 422.034C347.849 422.073 347.609 422.092 347.375 422.092C346.614 422.092 346.128 421.886 345.919 421.474C345.708 421.053 345.711 420.285 345.928 419.168L347.165 412.812H343.233L341.503 421.72H339.712L341.445 412.812H340.084L340.425 411.061Z" fill="black" stroke="black"/>
<path d="M380 399.326L379.621 401.271H374.631L373.012 409.538C372.957 409.845 372.917 410.103 372.891 410.312C372.865 410.521 372.851 410.684 372.851 410.8C372.851 411.38 373.025 411.802 373.374 412.066C373.722 412.33 374.281 412.462 375.053 412.462H377.581L377.159 414.554H374.766C373.281 414.554 372.173 414.264 371.442 413.684C370.714 413.104 370.35 412.225 370.35 411.048C370.35 410.839 370.363 410.61 370.389 410.36C370.415 410.111 370.456 409.837 370.511 409.538L372.129 401.271H370.006L370.402 399.326H372.482L373.326 395.002H375.827L374.996 399.326H380Z" fill="black" stroke="black"/>
<path d="M335.936 379.051V377.832H353.21V379.051H335.936Z" fill="black" stroke="black"/>
<path d="M324.167 409.32V407.58H364.746V409.32H324.167Z" fill="black" stroke="black"/>
<path d="M128.632 341.165H123.966H128.632Z" fill="black"/>
<path d="M128.632 341.165H123.966" stroke="black" stroke-width="1.06667"/>
<path d="M72.8521 341.664H85.3708V343.323H72.8521V341.664Z" fill="black"/>
<path d="M93.8474 335.483C92.8328 335.483 92.0693 335.983 91.5568 336.983C91.0463 337.981 90.7911 339.483 90.7911 341.489C90.7911 343.487 91.0463 344.986 91.5568 345.986C92.0693 346.986 92.8328 347.486 93.8474 347.486C94.8703 347.486 95.637 346.986 96.1474 345.986C96.6599 344.986 96.9161 343.487 96.9161 341.489C96.9161 339.483 96.6599 337.981 96.1474 336.983C95.637 335.983 94.8703 335.483 93.8474 335.483ZM93.8474 333.92C95.4828 333.92 96.7318 334.567 97.5943 335.861C98.4568 337.152 98.888 339.028 98.888 341.489C98.888 343.943 98.4568 345.817 97.5943 347.111C96.7318 348.402 95.4828 349.048 93.8474 349.048C92.214 349.048 90.9661 348.402 90.1036 347.111C89.2411 345.817 88.8099 343.943 88.8099 341.489C88.8099 339.028 89.2411 337.152 90.1036 335.861C90.9661 334.567 92.214 333.92 93.8474 333.92Z" fill="black"/>
<path d="M102.353 346.283H104.416V348.764H102.353V346.283Z" fill="black"/>
<path d="M113.176 340.689C112.291 340.689 111.589 340.992 111.07 341.598C110.553 342.202 110.295 343.032 110.295 344.086C110.295 345.134 110.553 345.963 111.07 346.573C111.589 347.182 112.291 347.486 113.176 347.486C114.062 347.486 114.763 347.182 115.279 346.573C115.796 345.963 116.054 345.134 116.054 344.086C116.054 343.032 115.796 342.202 115.279 341.598C114.763 340.992 114.062 340.689 113.176 340.689ZM117.092 334.504V336.301C116.596 336.068 116.096 335.89 115.592 335.767C115.088 335.642 114.588 335.579 114.092 335.579C112.79 335.579 111.795 336.019 111.108 336.898C110.422 337.777 110.03 339.106 109.933 340.883C110.316 340.316 110.797 339.882 111.376 339.579C111.958 339.277 112.596 339.126 113.292 339.126C114.756 339.126 115.914 339.571 116.764 340.461C117.614 341.348 118.039 342.557 118.039 344.086C118.039 345.584 117.596 346.786 116.711 347.692C115.825 348.596 114.647 349.048 113.176 349.048C111.489 349.048 110.199 348.402 109.308 347.111C108.416 345.817 107.97 343.943 107.97 341.489C107.97 339.185 108.517 337.347 109.611 335.976C110.704 334.606 112.172 333.92 114.014 333.92C114.51 333.92 115.01 333.969 115.514 334.067C116.018 334.165 116.544 334.311 117.092 334.504Z" fill="black"/>
<path d="M128.632 292.845H123.966H128.632Z" fill="black"/>
<path d="M128.632 292.845H123.966" stroke="black" stroke-width="1.06667"/>
<path d="M128.632 244.525H123.966H128.632Z" fill="black"/>
<path d="M128.632 244.525H123.966" stroke="black" stroke-width="1.06667"/>
<path d="M128.632 196.205H123.966H128.632Z" fill="black"/>
<path d="M128.632 196.205H123.966" stroke="black" stroke-width="1.06667"/>
<path d="M93.849 190.522C92.8344 190.522 92.0708 191.022 91.5583 192.022C91.0479 193.02 90.7927 194.522 90.7927 196.529C90.7927 198.527 91.0479 200.026 91.5583 201.026C92.0708 202.026 92.8344 202.526 93.849 202.526C94.8719 202.526 95.6385 202.026 96.149 201.026C96.6615 200.026 96.9177 198.527 96.9177 196.529C96.9177 194.522 96.6615 193.02 96.149 192.022C95.6385 191.022 94.8719 190.522 93.849 190.522ZM93.849 188.96C95.4844 188.96 96.7333 189.607 97.5958 190.901C98.4583 192.192 98.8896 194.068 98.8896 196.529C98.8896 198.983 98.4583 200.857 97.5958 202.151C96.7333 203.442 95.4844 204.088 93.849 204.088C92.2156 204.088 90.9677 203.442 90.1052 202.151C89.2427 200.857 88.8115 198.983 88.8115 196.529C88.8115 194.068 89.2427 192.192 90.1052 190.901C90.9677 189.607 92.2156 188.96 93.849 188.96Z" fill="black"/>
<path d="M102.355 201.322H104.417V203.804H102.355V201.322Z" fill="black"/>
<path d="M112.931 190.522C111.916 190.522 111.153 191.022 110.64 192.022C110.13 193.02 109.875 194.522 109.875 196.529C109.875 198.527 110.13 200.026 110.64 201.026C111.153 202.026 111.916 202.526 112.931 202.526C113.954 202.526 114.721 202.026 115.231 201.026C115.743 200.026 116 198.527 116 196.529C116 194.522 115.743 193.02 115.231 192.022C114.721 191.022 113.954 190.522 112.931 190.522ZM112.931 188.96C114.566 188.96 115.815 189.607 116.678 190.901C117.54 192.192 117.972 194.068 117.972 196.529C117.972 198.983 117.54 200.857 116.678 202.151C115.815 203.442 114.566 204.088 112.931 204.088C111.298 204.088 110.05 203.442 109.187 202.151C108.325 200.857 107.893 198.983 107.893 196.529C107.893 194.068 108.325 192.192 109.187 190.901C110.05 189.607 111.298 188.96 112.931 188.96Z" fill="black"/>
<path d="M128.632 147.885H123.966H128.632Z" fill="black"/>
<path d="M128.632 147.885H123.966" stroke="black" stroke-width="1.06667"/>
<path d="M128.632 99.5653H123.966H128.632Z" fill="black"/>
<path d="M128.632 99.5653H123.966" stroke="black" stroke-width="1.06667"/>
<path d="M128.632 51.2453H123.966H128.632Z" fill="black"/>
<path d="M128.632 51.2453H123.966" stroke="black" stroke-width="1.06667"/>
<path d="M93.849 45.5625C92.8344 45.5625 92.0708 46.0625 91.5583 47.0625C91.0479 48.0604 90.7927 49.5625 90.7927 51.5687C90.7927 53.5667 91.0479 55.0656 91.5583 56.0656C92.0708 57.0656 92.8344 57.5656 93.849 57.5656C94.8719 57.5656 95.6385 57.0656 96.149 56.0656C96.6615 55.0656 96.9177 53.5667 96.9177 51.5687C96.9177 49.5625 96.6615 48.0604 96.149 47.0625C95.6385 46.0625 94.8719 45.5625 93.849 45.5625ZM93.849 44C95.4844 44 96.7333 44.6469 97.5958 45.9406C98.4583 47.2323 98.8896 49.1083 98.8896 51.5687C98.8896 54.0229 98.4583 55.8969 97.5958 57.1906C96.7333 58.4823 95.4844 59.1281 93.849 59.1281C92.2156 59.1281 90.9677 58.4823 90.1052 57.1906C89.2427 55.8969 88.8115 54.0229 88.8115 51.5687C88.8115 49.1083 89.2427 47.2323 90.1052 45.9406C90.9677 44.6469 92.2156 44 93.849 44Z" fill="black"/>
<path d="M102.355 56.3625H104.417V58.8438H102.355V56.3625Z" fill="black"/>
<path d="M113.178 50.7687C112.292 50.7687 111.59 51.0719 111.072 51.6781C110.555 52.2823 110.297 53.1114 110.297 54.1656C110.297 55.2135 110.555 56.0427 111.072 56.6531C111.59 57.2614 112.292 57.5656 113.178 57.5656C114.063 57.5656 114.764 57.2614 115.281 56.6531C115.798 56.0427 116.056 55.2135 116.056 54.1656C116.056 53.1114 115.798 52.2823 115.281 51.6781C114.764 51.0719 114.063 50.7687 113.178 50.7687ZM117.093 44.5844V46.3812C116.598 46.1479 116.098 45.9698 115.593 45.8469C115.089 45.7219 114.589 45.6594 114.093 45.6594C112.791 45.6594 111.797 46.0989 111.109 46.9781C110.424 47.8573 110.032 49.1854 109.934 50.9625C110.317 50.3958 110.799 49.9614 111.378 49.6594C111.959 49.3573 112.598 49.2062 113.293 49.2062C114.758 49.2062 115.915 49.651 116.765 50.5406C117.615 51.4281 118.04 52.6364 118.04 54.1656C118.04 55.6635 117.598 56.8656 116.712 57.7719C115.827 58.676 114.649 59.1281 113.178 59.1281C111.49 59.1281 110.201 58.4823 109.309 57.1906C108.417 55.8969 107.972 54.0229 107.972 51.5687C107.972 49.2646 108.518 47.4271 109.612 46.0562C110.706 44.6854 112.174 44 114.015 44C114.511 44 115.011 44.0489 115.515 44.1469C116.02 44.2448 116.546 44.3906 117.093 44.5844Z" fill="black"/>
<path d="M46.7794 219C45.4536 217.961 44.2067 216.344 43.0389 214.15C42.5859 213.29 42.3594 211.679 42.3594 209.319C42.3594 206.667 43.4109 204.718 45.5138 203.471C47.6168 202.224 50.3827 201.933 53.8114 202.598C57.2402 203.272 60.0081 204.641 62.1153 206.706C64.2182 208.772 65.2697 211.129 65.2697 213.776C65.2697 215.376 64.9497 216.689 64.3097 217.716C63.6862 218.738 62.7262 219.497 61.4295 219.991L73 222.254V225.858L54.0047 222.155C51.004 221.569 48.5956 220.517 46.7794 219ZM53.8114 206.314C51.1765 205.811 49.1047 205.954 47.596 206.744C46.104 207.538 45.358 208.882 45.358 210.777C45.358 212.673 46.104 214.31 47.596 215.69C49.1047 217.066 51.1765 218.007 53.8114 218.514C56.4464 219.033 58.5182 218.896 60.0268 218.102C61.5189 217.309 62.2649 215.964 62.2649 214.069C62.2649 212.174 61.5189 210.538 60.0268 209.163C58.5182 207.783 56.4464 206.833 53.8114 206.314Z" fill="black" stroke="black"/>
<path d="M68.9311 195.815V186.201H71.2483V199.127H68.9311C67.8488 198.083 66.3971 196.659 64.5759 194.855C62.7518 193.048 61.575 191.914 61.0456 191.451C60.0564 190.57 59.2185 189.954 58.532 189.605C57.8454 189.253 57.1704 189.077 56.5071 189.077C55.4249 189.077 54.5434 189.457 53.8626 190.216C53.1789 190.975 52.8371 191.965 52.8371 193.184C52.8371 194.048 52.9869 194.96 53.2866 195.92C53.5862 196.877 54.0415 197.901 54.6525 198.992H51.8683C51.4232 197.883 51.0872 196.848 50.8603 195.885C50.6334 194.919 50.5199 194.036 50.5199 193.236C50.5199 191.127 51.0479 189.445 52.104 188.191C53.1571 186.937 54.5652 186.31 56.3282 186.31C57.1661 186.31 57.9603 186.468 58.7109 186.782C59.4586 187.093 60.3415 187.663 61.3598 188.492C61.6245 188.719 62.3867 189.442 63.6464 190.661C64.9061 191.877 66.6677 193.595 68.9311 195.815Z" fill="black" stroke="black"/>
<path d="M68.9311 179.94V175.44H53.3957L54.3776 180.337H51.8683L50.8865 175.467V172.713H68.9311V168.214H71.2483V179.94H68.9311Z" fill="black" stroke="black"/>
<mask id="mask0_1238_4123" style="mask-type:luminance" maskUnits="userSpaceOnUse" x="128" y="51" width="448" height="291">
<path d="M575.032 51.2453H128.632V341.165H575.032V51.2453Z" fill="white"/>
</mask>
<g mask="url(#mask0_1238_4123)">
<path d="M128.632 75.4053L130.875 75.5407L133.119 75.9468L135.362 76.6225L137.605 77.5665L139.848 78.7765L142.092 80.2498L144.335 81.9832L146.578 83.9727L148.821 86.214L151.064 88.7019L153.308 91.4308L157.794 97.5871L162.281 104.627L166.767 112.489L171.253 121.101L175.74 130.386L180.226 140.262L186.956 155.986L193.686 172.521L207.145 206.681L216.118 229.156L222.847 245.281L227.334 255.501L231.82 265.189L236.307 274.259L240.793 282.629L245.28 290.224L249.766 296.977L254.252 302.826L256.496 305.394L258.739 307.718L260.982 309.792L263.225 311.612L265.468 313.172L267.712 314.47L269.955 315.503L272.198 316.268L274.441 316.765L276.685 316.99L278.928 316.945L281.171 316.629L283.414 316.043L285.657 315.188L287.901 314.067L290.144 312.681L292.387 311.034L294.63 309.129L296.873 306.971L299.117 304.565L301.36 301.916L305.846 295.913L310.333 289.015L314.819 281.286L319.306 272.794L323.792 263.615L328.279 253.832L335.008 238.217L341.738 221.756L352.954 193.345L364.17 165.093L370.9 148.878L377.629 133.617L382.116 124.125L386.602 115.28L391.089 107.16L395.575 99.8386L400.061 93.3811L404.548 87.8455L406.791 85.4392L409.034 83.2813L411.278 81.3767L413.521 79.7296L415.764 78.3437L418.007 77.2221L420.25 76.3674L422.494 75.7814L424.737 75.4655L426.98 75.4203L429.223 75.646L431.466 76.1421L433.71 76.9075L435.953 77.9404L438.196 79.2385L440.439 80.7989L442.683 82.6181L444.926 84.6921L447.169 87.0161L449.412 89.585L453.899 95.4339L458.385 102.186L462.871 109.781L467.358 118.151L471.844 127.221L476.331 136.91L483.06 152.41L489.79 168.794L501.006 197.159L512.222 225.471L518.952 241.772L525.682 257.155L530.168 266.746L534.654 275.705L539.141 283.951L543.627 291.41L548.114 298.016L552.6 303.709L554.843 306.197L557.087 308.438L559.33 310.427L561.573 312.161L563.816 313.634L566.059 314.844L568.303 315.788L570.546 316.464L572.789 316.87L575.032 317.005" stroke="#C2E5F9" stroke-width="2" stroke-linecap="square"/>
</g>
<mask id="mask1_1238_4123" style="mask-type:luminance" maskUnits="userSpaceOnUse" x="128" y="51" width="448" height="291">
<path d="M575.032 51.2453H128.632V341.165H575.032V51.2453Z" fill="white"/>
</mask>
<g mask="url(#mask1_1238_4123)">
<path d="M128.632 75.4053L130.875 75.5403L133.119 75.943L135.362 76.6098L137.605 77.5365L139.848 78.7182L142.092 80.1495L144.335 81.8249L146.578 83.7378L148.821 85.8816L151.064 88.2491L155.551 93.6242L160.037 99.7974L164.524 106.697L169.01 114.248L173.497 122.368L177.983 130.974L184.713 144.604L193.686 163.66L211.631 202.14L218.361 215.824L225.091 228.694L229.577 236.706L234.063 244.192L238.55 251.097L243.036 257.371L247.523 262.971L252.009 267.863L256.496 272.016L258.739 273.81L260.982 275.411L263.225 276.819L265.468 278.033L267.712 279.051L269.955 279.873L272.198 280.501L274.441 280.934L276.685 281.173L278.928 281.22L281.171 281.077L283.414 280.746L285.657 280.23L287.901 279.532L290.144 278.656L292.387 277.604L296.873 274.994L301.36 271.74L305.846 267.883L310.333 263.47L314.819 258.553L319.306 253.185L323.792 247.423L330.522 238.173L337.251 228.377L348.467 211.414L359.684 194.494L366.413 184.747L373.143 175.531L377.629 169.764L382.116 164.352L386.602 159.336L391.089 154.751L395.575 150.629L400.061 146.997L404.548 143.878L409.034 141.288L413.521 139.239L418.007 137.738L422.494 136.787L426.98 136.383L431.466 136.518L435.953 137.18L440.439 138.352L444.926 140.012L449.412 142.137L453.899 144.697L458.385 147.66L462.871 150.993L467.358 154.657L471.844 158.614L478.574 165.006L485.304 171.818L496.52 183.704L509.979 198.001L516.709 204.834L523.438 211.283L530.168 217.233L534.654 220.871L539.141 224.214L543.627 227.239L548.114 229.926L552.6 232.257L557.087 234.221L561.573 235.806L566.059 237.006L570.546 237.82L575.032 238.248" stroke="#C2E5F9" stroke-width="2" stroke-linecap="square"/>
</g>
<mask id="mask2_1238_4123" style="mask-type:luminance" maskUnits="userSpaceOnUse" x="128" y="51" width="448" height="291">
<path d="M575.032 51.2453H128.632V341.165H575.032V51.2453Z" fill="white"/>
</mask>
<g mask="url(#mask2_1238_4123)">
<path d="M128.632 75.4053L130.875 75.5398L133.119 75.9393L135.362 76.5973L137.605 77.5071L139.848 78.6613L142.092 80.0524L144.335 81.6722L146.578 83.5125L148.821 85.5645L153.308 90.2677L157.794 95.7071L162.281 101.805L166.767 108.479L171.253 115.649L177.983 127.15L184.713 139.295L200.415 168.607L209.388 184.996L216.118 196.698L222.847 207.674L227.334 214.503L231.82 220.89L236.307 226.797L240.793 232.192L245.28 237.049L249.766 241.346L254.252 245.071L258.739 248.213L263.225 250.768L267.712 252.739L272.198 254.133L276.685 254.961L281.171 255.238L285.657 254.986L290.144 254.229L294.63 252.993L299.117 251.309L303.603 249.212L308.09 246.735L312.576 243.917L317.062 240.796L323.792 235.634L330.522 230.018L339.495 222.062L364.17 199.81L370.9 194.195L377.629 188.964L384.359 184.194L388.845 181.303L393.332 178.662L397.818 176.284L402.305 174.179L406.791 172.354L411.278 170.814L415.764 169.56L420.25 168.592L424.737 167.906L429.223 167.497L433.71 167.357L438.196 167.476L442.683 167.842L447.169 168.442L451.655 169.261L458.385 170.864L465.115 172.864L471.844 175.198L480.817 178.714L492.033 183.535L518.952 195.345L527.925 198.886L536.898 202.05L543.627 204.126L550.357 205.921L557.087 207.417L563.816 208.602L570.546 209.472L575.032 209.878" stroke="#94C5E8" stroke-width="2" stroke-linecap="square"/>
</g>
<mask id="mask3_1238_4123" style="mask-type:luminance" maskUnits="userSpaceOnUse" x="128" y="51" width="448" height="291">
<path d="M575.032 51.2453H128.632V341.165H575.032V51.2453Z" fill="white"/>
</mask>
<g mask="url(#mask3_1238_4123)">
<path d="M128.632 75.4053L130.875 75.5393L133.119 75.9356L135.362 76.585L137.605 77.4783L139.848 78.606L142.092 79.9582L144.335 81.5251L146.578 83.2963L151.064 87.4112L155.551 92.2194L160.037 97.6368L164.524 103.579L169.01 109.963L175.74 120.185L184.713 134.607L204.902 167.555L211.631 177.942L218.361 187.74L222.847 193.879L227.334 199.662L231.82 205.061L236.307 210.052L240.793 214.618L245.28 218.745L249.766 222.423L254.252 225.648L258.739 228.42L263.225 230.743L267.712 232.623L272.198 234.072L276.685 235.103L281.171 235.733L285.657 235.982L290.144 235.869L294.63 235.419L299.117 234.655L303.603 233.604L308.09 232.293L312.576 230.748L319.306 228.054L326.035 224.992L335.008 220.493L348.467 213.276L364.17 204.894L373.143 200.426L382.116 196.346L388.845 193.597L395.575 191.146L402.305 189.014L409.034 187.214L415.764 185.748L422.494 184.617L429.223 183.81L435.953 183.315L442.683 183.112L449.412 183.179L456.142 183.491L465.115 184.238L474.088 185.298L485.304 186.954L501.006 189.639L530.168 194.689L543.627 196.666L554.843 198.031L566.059 199.102L575.032 199.738" stroke="#5090C9" stroke-width="2" stroke-linecap="square"/>
</g>
<mask id="mask4_1238_4123" style="mask-type:luminance" maskUnits="userSpaceOnUse" x="128" y="51" width="448" height="291">
<path d="M575.032 51.2453H128.632V341.165H575.032V51.2453Z" fill="white"/>
</mask>
<g mask="url(#mask4_1238_4123)">
<path d="M128.632 75.4053L130.875 75.5388L133.119 75.9319L135.362 76.5729L137.605 77.4502L139.848 78.5521L142.092 79.8669L144.335 81.3831L148.821 84.9728L153.308 89.229L157.794 94.0613L162.281 99.3818L166.767 105.105L173.497 114.268L182.469 127.165L200.415 153.307L207.145 162.662L213.874 171.541L220.604 179.834L225.091 184.993L229.577 189.831L234.063 194.334L238.55 198.489L243.036 202.289L247.523 205.73L252.009 208.811L256.496 211.535L260.982 213.907L265.468 215.935L269.955 217.63L274.441 219.004L278.928 220.071L283.414 220.846L287.901 221.347L292.387 221.592L296.873 221.598L301.36 221.386L308.09 220.699L314.819 219.631L321.549 218.245L330.522 216.015L341.738 212.812L379.872 201.424L391.089 198.59L400.061 196.621L409.034 194.944L418.007 193.568L426.98 192.492L435.953 191.705L444.926 191.188L456.142 190.884L467.358 190.905L480.817 191.272L496.52 192.031L523.438 193.718L552.6 195.469L572.789 196.384L575.032 196.467" stroke="#0E69A7" stroke-width="2" stroke-linecap="square"/>
</g>
<mask id="mask5_1238_4123" style="mask-type:luminance" maskUnits="userSpaceOnUse" x="128" y="51" width="448" height="291">
<path d="M575.032 51.2453H128.632V341.165H575.032V51.2453Z" fill="white"/>
</mask>
<g mask="url(#mask5_1238_4123)">
<path d="M128.632 75.4053L130.875 75.5384L133.119 75.9283L135.362 76.561L137.605 77.4226L139.848 78.4995L142.092 79.7784L146.578 82.8897L151.064 86.6544L155.551 90.9753L160.037 95.7601L164.524 100.922L171.253 109.193L180.226 120.828L198.172 144.342L204.902 152.746L211.631 160.733L218.361 168.215L225.091 175.126L229.577 179.393L234.063 183.377L238.55 187.072L243.036 190.476L247.523 193.588L252.009 196.412L256.496 198.952L260.982 201.214L265.468 203.209L269.955 204.944L274.441 206.431L278.928 207.683L283.414 208.713L290.144 209.868L296.873 210.601L303.603 210.958L310.333 210.988L317.062 210.737L326.035 210.047L335.008 209.041L346.224 207.479L366.413 204.273L386.602 201.126L400.061 199.282L413.521 197.725L426.98 196.486L440.439 195.563L453.899 194.933L469.601 194.522L487.547 194.391L509.979 194.573L548.114 195.271L575.032 195.765" stroke="#074784" stroke-width="2" stroke-linecap="square"/>
</g>
<mask id="mask6_1238_4123" style="mask-type:luminance" maskUnits="userSpaceOnUse" x="128" y="51" width="448" height="291">
<path d="M575.032 51.2453H128.632V341.165H575.032V51.2453Z" fill="white"/>
</mask>
<g mask="url(#mask6_1238_4123)">
<path d="M128.632 75.4053L130.875 75.5379L133.119 75.9247L135.362 76.5492L137.605 77.3955L139.848 78.4483L142.092 79.6925L146.578 82.6983L151.064 86.3035L155.551 90.4065L160.037 94.9139L166.767 102.247L175.74 112.7L198.172 139.308L204.902 146.828L211.631 153.956L218.361 160.63L225.091 166.806L231.82 172.455L238.55 177.566L245.28 182.136L252.009 186.177L258.739 189.704L265.468 192.741L272.198 195.319L278.928 197.467L285.657 199.222L292.387 200.618L299.117 201.693L305.846 202.481L312.576 203.018L321.549 203.401L330.522 203.471L341.738 203.22L355.197 202.575L375.386 201.232L415.764 198.477L435.953 197.426L456.142 196.664L478.574 196.129L503.249 195.841L536.898 195.775L575.032 195.903" stroke="#022851" stroke-width="2" stroke-linecap="square"/>
</g>
<mask id="mask7_1238_4123" style="mask-type:luminance" maskUnits="userSpaceOnUse" x="128" y="51" width="448" height="291">
<path d="M575.032 51.2453H128.632V341.165H575.032V51.2453Z" fill="white"/>
</mask>
<g mask="url(#mask7_1238_4123)">
<path d="M128.632 75.4053L130.875 75.5375L133.119 75.9211L135.362 76.5376L137.605 77.3691L139.848 78.3984L144.335 80.9862L148.821 84.18L153.308 87.8701L157.794 91.9578L164.524 98.6436L173.497 108.201L195.929 132.555L204.902 141.677L211.631 148.105L218.361 154.129L225.091 159.719L231.82 164.861L238.55 169.549L245.28 173.79L252.009 177.595L258.739 180.982L265.468 183.973L272.198 186.592L278.928 188.865L285.657 190.821L292.387 192.485L299.117 193.888L308.09 195.394L317.062 196.541L326.035 197.385L337.251 198.091L348.467 198.492L361.927 198.674L379.872 198.582L406.791 198.085L469.601 196.832L507.736 196.411L557.087 196.191L575.032 196.166" stroke="#4D004D" stroke-width="2" stroke-linecap="square"/>
</g>
<mask id="mask8_1238_4123" style="mask-type:luminance" maskUnits="userSpaceOnUse" x="128" y="51" width="448" height="291">
<path d="M575.032 51.2453H128.632V341.165H575.032V51.2453Z" fill="white"/>
</mask>
<g mask="url(#mask8_1238_4123)">
<path d="M128.632 75.4053L130.875 75.537L133.119 75.9176L135.362 76.5262L137.605 77.3431L139.848 78.3497L144.335 80.8629L148.821 83.9384L153.308 87.4636L157.794 91.3398L164.524 97.6261L173.497 106.521L191.442 124.526L200.415 133.08L207.145 139.155L213.874 144.89L220.604 150.258L227.334 155.247L234.063 159.851L240.793 164.075L247.523 167.929L254.252 171.426L260.982 174.584L267.712 177.421L274.441 179.96L281.171 182.222L287.901 184.228L296.873 186.541L305.846 188.487L314.819 190.11L323.792 191.455L335.008 192.802L346.224 193.841L359.684 194.764L375.386 195.497L393.332 196.012L415.764 196.339L447.169 196.475L512.222 196.376L575.032 196.266" stroke="#330033" stroke-width="2" stroke-linecap="square"/>
</g>
<mask id="mask9_1238_4123" style="mask-type:luminance" maskUnits="userSpaceOnUse" x="128" y="51" width="448" height="291">
<path d="M575.032 51.2453H128.632V341.165H575.032V51.2453Z" fill="white"/>
</mask>
<g mask="url(#mask9_1238_4123)">
<path d="M128.632 75.4053L130.875 75.5366L133.119 75.9142L135.362 76.515L137.605 77.3177L139.848 78.3022L144.335 80.7439L148.821 83.7072L153.308 87.0779L160.037 92.6879L166.767 98.7262L198.172 127.527L207.145 135.018L213.874 140.284L220.604 145.229L227.334 149.845L234.063 154.132L240.793 158.097L247.523 161.75L254.252 165.103L260.982 168.173L267.712 170.975L274.441 173.527L283.414 176.569L292.387 179.237L301.36 181.569L310.333 183.601L319.306 185.368L330.522 187.25L341.738 188.82L355.197 190.36L368.656 191.589L384.359 192.711L402.305 193.671L422.494 194.447L447.169 195.085L478.574 195.579L521.195 195.923L575.032 196.104" stroke="#190019" stroke-width="2" stroke-linecap="square"/>
</g>
<mask id="mask10_1238_4123" style="mask-type:luminance" maskUnits="userSpaceOnUse" x="128" y="51" width="448" height="291">
<path d="M575.032 51.2453H128.632V341.165H575.032V51.2453Z" fill="white"/>
</mask>
<g mask="url(#mask10_1238_4123)">
<path d="M128.632 75.4053L133.119 86.3224L137.605 96.2529L142.092 105.286L146.578 113.503L151.064 120.977L155.551 127.776L160.037 133.96L164.524 139.585L169.01 144.702L173.497 149.357L177.983 153.59L182.469 157.442L186.956 160.945L191.442 164.132L195.929 167.03L200.415 169.667L207.145 173.182L213.874 176.231L220.604 178.877L227.334 181.172L234.063 183.163L240.793 184.891L249.766 186.843L258.739 188.459L267.712 189.796L278.928 191.147L290.144 192.214L303.603 193.201L319.306 194.049L337.251 194.729L359.684 195.286L388.845 195.709L431.466 196.003L503.249 196.161L575.032 196.196" stroke="#D75E5E" stroke-width="2" stroke-dasharray="7.4 3.2"/>
</g>
<path d="M128.632 341.165V51.2453" stroke="black" stroke-width="1.06667" stroke-linecap="square"/>
<path d="M575.032 341.165V51.2453" stroke="black" stroke-width="1.06667" stroke-linecap="square"/>
<path d="M128.632 341.165H575.032" stroke="black" stroke-width="1.06667" stroke-linecap="square"/>
<path d="M128.632 51.2453H575.032" stroke="black" stroke-width="1.06667" stroke-linecap="square"/>
<path d="M431.032 293.165H517.432V235.565H431.032V293.165Z" fill="white"/>
<path d="M434.96 293.165V297.832V293.165Z" fill="black"/>
<path d="M434.96 293.165V297.832" stroke="black" stroke-width="1.06667"/>
<path d="M434.953 304.414C433.939 304.414 433.175 304.914 432.663 305.914C432.152 306.912 431.897 308.414 431.897 310.421C431.897 312.419 432.152 313.917 432.663 314.917C433.175 315.917 433.939 316.417 434.953 316.417C435.976 316.417 436.743 315.917 437.253 314.917C437.766 313.917 438.022 312.419 438.022 310.421C438.022 308.414 437.766 306.912 437.253 305.914C436.743 304.914 435.976 304.414 434.953 304.414ZM434.953 302.852C436.589 302.852 437.838 303.499 438.7 304.792C439.563 306.084 439.994 307.96 439.994 310.421C439.994 312.875 439.563 314.749 438.7 316.042C437.838 317.334 436.589 317.98 434.953 317.98C433.32 317.98 432.072 317.334 431.21 316.042C430.347 314.749 429.916 312.875 429.916 310.421C429.916 307.96 430.347 306.084 431.21 304.792C432.072 303.499 433.32 302.852 434.953 302.852Z" fill="black"/>
<path d="M513.505 293.165V297.832V293.165Z" fill="black"/>
<path d="M513.505 293.165V297.832" stroke="black" stroke-width="1.06667"/>
<path d="M509.624 316.036H512.846V304.911L509.339 305.614V303.817L512.827 303.114H514.799V316.036H518.021V317.696H509.624V316.036Z" fill="black"/>
<path d="M476.633 305.073L475.169 312.606H473.911L475.368 305.114C475.51 304.389 475.473 303.847 475.259 303.487C475.049 303.128 474.662 302.949 474.097 302.949C473.418 302.949 472.839 303.164 472.36 303.596C471.886 304.029 471.577 304.62 471.431 305.368L470.591 309.695H469.326L470.816 302.039H472.08L471.848 303.229C472.235 302.768 472.656 302.424 473.113 302.196C473.563 301.969 474.056 301.855 474.589 301.855C475.469 301.855 476.081 302.125 476.427 302.666C476.77 303.213 476.838 304.015 476.633 305.073Z" fill="black"/>
<path d="M459.224 325.432L455.737 330.881H459.224V325.432ZM458.861 324.229H460.598V330.881H462.054V332.03H460.598V334.436H459.224V332.03H454.617V330.697L458.861 324.229Z" fill="black"/>
<path d="M471.546 319.675L467.053 334.44H466.717L464.871 328.437C464.811 328.245 464.744 328.106 464.669 328.021C464.595 327.935 464.497 327.893 464.375 327.893C464.193 327.893 464.012 327.965 463.831 328.109L463.735 327.949L465.045 326.942H465.245L467.06 332.834H467.093L471.09 319.675H471.546Z" fill="black"/>
<path d="M475.729 333.36H480.548V334.522H474.069V333.36C474.592 332.818 475.306 332.09 476.21 331.177C477.116 330.263 477.685 329.673 477.917 329.408C478.359 328.912 478.667 328.492 478.842 328.148C479.018 327.803 479.107 327.465 479.107 327.133C479.107 326.59 478.916 326.148 478.536 325.807C478.155 325.464 477.659 325.293 477.048 325.293C476.615 325.293 476.158 325.368 475.677 325.518C475.197 325.668 474.684 325.897 474.137 326.203V324.807C474.692 324.584 475.211 324.416 475.694 324.302C476.178 324.188 476.621 324.131 477.022 324.131C478.079 324.131 478.922 324.396 479.551 324.925C480.179 325.453 480.494 326.159 480.494 327.043C480.494 327.463 480.415 327.861 480.257 328.237C480.101 328.612 479.815 329.055 479.4 329.565C479.286 329.698 478.924 330.08 478.313 330.711C477.703 331.343 476.842 332.226 475.729 333.36Z" fill="black"/>
<path d="M486.962 327.983L487.721 332.712L491.26 326.779H492.594L488.014 334.436L487.447 337.347H486.189L486.756 334.436L485.861 328.72C485.769 328.147 485.507 327.86 485.074 327.86H484.739L484.945 326.779H485.424C486.321 326.779 486.833 327.181 486.962 327.983Z" fill="black"/>
<path d="M453.932 317.606V316.356H491.985V317.606H453.932Z" fill="black"/>
<path d="M471.293 320.606V319.731H483.7V320.606H471.293Z" fill="black"/>
<path d="M431.032 290.547H426.366H431.032Z" fill="black"/>
<path d="M431.032 290.547H426.366" stroke="black" stroke-width="1.06667"/>
<path d="M415.33 284.864C414.316 284.864 413.552 285.364 413.04 286.364C412.529 287.362 412.274 288.864 412.274 290.871C412.274 292.869 412.529 294.368 413.04 295.368C413.552 296.368 414.316 296.868 415.33 296.868C416.353 296.868 417.12 296.368 417.63 295.368C418.143 294.368 418.399 292.869 418.399 290.871C418.399 288.864 418.143 287.362 417.63 286.364C417.12 285.364 416.353 284.864 415.33 284.864ZM415.33 283.302C416.966 283.302 418.215 283.949 419.077 285.243C419.94 286.534 420.371 288.41 420.371 290.871C420.371 293.325 419.94 295.199 419.077 296.493C418.215 297.784 416.966 298.43 415.33 298.43C413.697 298.43 412.449 297.784 411.586 296.493C410.724 295.199 410.293 293.325 410.293 290.871C410.293 288.41 410.724 286.534 411.586 285.243C412.449 283.949 413.697 283.302 415.33 283.302Z" fill="black"/>
<path d="M431.032 238.183H426.366H431.032Z" fill="black"/>
<path d="M431.032 238.183H426.366" stroke="black" stroke-width="1.06667"/>
<path d="M411.455 244.123H414.677V232.998L411.171 233.701V231.904L414.658 231.201H416.63V244.123H419.852V245.782H411.455V244.123Z" fill="black"/>
<path d="M370.482 312.133H377.086V313.929H370.542C369.506 313.929 368.732 314.132 368.22 314.536C367.705 314.94 367.448 315.545 367.448 316.351C367.448 317.322 367.757 318.088 368.376 318.648C368.993 319.209 369.836 319.489 370.904 319.489H377.086V321.295H366.148V319.489H367.848C367.19 319.058 366.698 318.551 366.373 317.97C366.048 317.387 365.886 316.714 365.886 315.951C365.886 314.695 366.274 313.745 367.051 313.101C367.828 312.455 368.972 312.133 370.482 312.133Z" fill="black"/>
<path d="M367.407 304.313C367.407 305.276 367.783 306.037 368.536 306.597C369.288 307.158 370.318 307.438 371.626 307.438C372.935 307.438 373.965 307.16 374.717 306.604C375.469 306.045 375.845 305.282 375.845 304.313C375.845 303.355 375.468 302.596 374.714 302.038C373.957 301.478 372.928 301.197 371.626 301.197C370.33 301.197 369.303 301.478 368.545 302.038C367.787 302.596 367.407 303.355 367.407 304.313ZM365.886 304.313C365.886 302.751 366.394 301.523 367.411 300.632C368.425 299.738 369.83 299.291 371.626 299.291C373.416 299.291 374.821 299.738 375.842 300.632C376.861 301.523 377.37 302.751 377.37 304.313C377.37 305.882 376.861 307.111 375.842 308.001C374.821 308.888 373.416 309.332 371.626 309.332C369.83 309.332 368.425 308.888 367.411 308.001C366.394 307.111 365.886 305.882 365.886 304.313Z" fill="black"/>
<path d="M367.826 289.977C367.71 290.179 367.624 290.399 367.57 290.636C367.514 290.874 367.486 291.135 367.486 291.42C367.486 292.437 367.816 293.217 368.476 293.761C369.137 294.305 370.086 294.577 371.323 294.577H377.086V296.383H366.148V294.577H367.848C367.183 294.198 366.691 293.706 366.37 293.102C366.047 292.495 365.886 291.759 365.886 290.892C365.886 290.769 365.894 290.633 365.911 290.483C365.925 290.333 365.949 290.167 365.982 289.986L367.826 289.977Z" fill="black"/>
<path d="M368.248 279.926C367.44 279.476 366.844 278.938 366.461 278.313C366.077 277.688 365.886 276.953 365.886 276.107C365.886 274.968 366.285 274.088 367.082 273.47C367.878 272.851 369.012 272.542 370.482 272.542H377.086V274.348H370.542C369.494 274.348 368.717 274.534 368.211 274.907C367.702 275.278 367.448 275.844 367.448 276.604C367.448 277.535 367.757 278.272 368.376 278.813C368.993 279.353 369.836 279.623 370.904 279.623H377.086V281.429H370.542C369.488 281.429 368.708 281.614 368.204 281.985C367.7 282.356 367.448 282.929 367.448 283.704C367.448 284.623 367.758 285.353 368.379 285.895C369 286.434 369.842 286.704 370.904 286.704H377.086V288.51H366.148V286.704H367.848C367.177 286.294 366.682 285.802 366.364 285.229C366.045 284.656 365.886 283.976 365.886 283.188C365.886 282.393 366.088 281.717 366.492 281.16C366.894 280.604 367.479 280.193 368.248 279.926Z" fill="black"/>
<path d="M371.589 263.987C371.589 265.439 371.754 266.446 372.086 267.006C372.417 267.566 372.983 267.847 373.786 267.847C374.423 267.847 374.929 267.636 375.304 267.215C375.677 266.794 375.864 266.224 375.864 265.503C375.864 264.505 375.511 263.705 374.804 263.103C374.098 262.501 373.16 262.2 371.989 262.2H371.589V263.987ZM370.845 260.403H377.086V262.2H375.426C376.089 262.61 376.578 263.122 376.895 263.734C377.212 264.347 377.37 265.096 377.37 265.981C377.37 267.1 377.055 267.99 376.426 268.653C375.797 269.313 374.955 269.643 373.901 269.643C372.672 269.643 371.745 269.232 371.12 268.409C370.495 267.584 370.182 266.355 370.182 264.722V262.2H370.004C369.177 262.2 368.538 262.472 368.086 263.015C367.633 263.559 367.407 264.323 367.407 265.306C367.407 265.931 367.482 266.54 367.632 267.134C367.782 267.726 368.007 268.294 368.307 268.84H366.645C366.391 268.184 366.201 267.547 366.076 266.928C365.949 266.309 365.886 265.707 365.886 265.122C365.886 263.538 366.296 262.356 367.117 261.575C367.936 260.793 369.178 260.403 370.845 260.403Z" fill="black"/>
<path d="M361.889 256.703V254.906H377.086V256.703H361.889Z" fill="black"/>
<path d="M366.148 251.147V249.35H377.086V251.147H366.148ZM361.889 251.147V249.35H364.167V251.147H361.889Z" fill="black"/>
<path d="M366.148 246.371V237.837H367.789L375.651 244.593V237.837H377.086V246.615H375.445L367.582 239.856V246.371H366.148Z" fill="black"/>
<path d="M371.167 225.736H372.045V233.998C373.282 233.919 374.225 233.546 374.873 232.879C375.521 232.213 375.845 231.284 375.845 230.092C375.845 229.402 375.761 228.734 375.592 228.086C375.423 227.438 375.169 226.794 374.829 226.154H376.529C376.802 226.8 377.011 227.462 377.154 228.139C377.298 228.816 377.37 229.502 377.37 230.198C377.37 231.944 376.863 233.326 375.848 234.345C374.831 235.364 373.456 235.873 371.723 235.873C369.933 235.873 368.514 235.39 367.464 234.423C366.412 233.457 365.886 232.152 365.886 230.511C365.886 229.04 366.36 227.876 367.307 227.02C368.253 226.164 369.54 225.736 371.167 225.736ZM370.639 227.533C369.657 227.545 368.874 227.82 368.289 228.358C367.701 228.895 367.407 229.607 367.407 230.492C367.407 231.494 367.691 232.296 368.257 232.898C368.824 233.5 369.622 233.847 370.651 233.939L370.639 227.533Z" fill="black"/>
<path d="M367.807 215.59H361.889V213.793H377.086V215.59H375.445C376.095 215.967 376.578 216.445 376.895 217.022C377.212 217.597 377.37 218.288 377.37 219.097C377.37 220.417 376.843 221.493 375.789 222.325C374.732 223.154 373.345 223.568 371.626 223.568C369.907 223.568 368.521 223.154 367.467 222.325C366.413 221.493 365.886 220.417 365.886 219.097C365.886 218.288 366.044 217.597 366.361 217.022C366.675 216.445 367.157 215.967 367.807 215.59ZM371.626 221.712C372.947 221.712 373.983 221.44 374.736 220.897C375.488 220.353 375.864 219.606 375.864 218.656C375.864 217.706 375.488 216.958 374.736 216.412C373.983 215.864 372.947 215.59 371.626 215.59C370.305 215.59 369.269 215.864 368.517 216.412C367.765 216.958 367.389 217.706 367.389 218.656C367.389 219.606 367.765 220.353 368.517 220.897C369.269 221.44 370.305 221.712 371.626 221.712Z" fill="black"/>
<path d="M384.284 303.917H385.781V305.636C385.781 306.28 385.911 306.728 386.172 306.98C386.432 307.23 386.901 307.355 387.578 307.355H388.544V304.395H389.941V307.355H399.481V309.161H389.941V310.88H388.544V309.161H387.781C386.565 309.161 385.678 308.878 385.122 308.311C384.563 307.744 384.284 306.846 384.284 305.617V303.917Z" fill="black"/>
<path d="M390.222 296.076C390.105 296.278 390.02 296.498 389.966 296.736C389.909 296.973 389.881 297.235 389.881 297.52C389.881 298.537 390.211 299.317 390.872 299.861C391.532 300.404 392.481 300.676 393.719 300.676H399.481V302.483H388.544V300.676H390.244C389.579 300.297 389.086 299.805 388.766 299.201C388.443 298.595 388.281 297.859 388.281 296.992C388.281 296.869 388.29 296.733 388.306 296.583C388.321 296.433 388.345 296.267 388.378 296.086L390.222 296.076Z" fill="black"/>
<path d="M393.562 285.285H394.441V293.547C395.678 293.468 396.621 293.095 397.269 292.429C397.917 291.762 398.241 290.833 398.241 289.641C398.241 288.952 398.156 288.283 397.987 287.635C397.819 286.987 397.565 286.343 397.225 285.704H398.925C399.198 286.349 399.406 287.011 399.55 287.688C399.694 288.365 399.766 289.052 399.766 289.747C399.766 291.493 399.258 292.875 398.244 293.894C397.227 294.913 395.852 295.422 394.119 295.422C392.329 295.422 390.909 294.939 389.859 293.972C388.807 293.006 388.281 291.702 388.281 290.06C388.281 288.589 388.755 287.425 389.703 286.569C390.649 285.713 391.935 285.285 393.562 285.285ZM393.034 287.082C392.053 287.094 391.27 287.369 390.684 287.907C390.097 288.444 389.803 289.156 389.803 290.041C389.803 291.043 390.086 291.845 390.653 292.447C391.22 293.049 392.018 293.396 393.047 293.488L393.034 287.082Z" fill="black"/>
<path d="M394.022 281.261C395.343 281.261 396.379 280.99 397.131 280.446C397.883 279.902 398.259 279.155 398.259 278.205C398.259 277.255 397.883 276.507 397.131 275.961C396.379 275.414 395.343 275.14 394.022 275.14C392.701 275.14 391.665 275.414 390.912 275.961C390.16 276.507 389.784 277.255 389.784 278.205C389.784 279.155 390.16 279.902 390.912 280.446C391.665 280.99 392.701 281.261 394.022 281.261ZM397.841 275.14C398.491 275.517 398.974 275.994 399.291 276.571C399.607 277.146 399.766 277.837 399.766 278.646C399.766 279.967 399.238 281.043 398.184 281.874C397.128 282.703 395.741 283.118 394.022 283.118C392.303 283.118 390.917 282.703 389.862 281.874C388.808 281.043 388.281 279.967 388.281 278.646C388.281 277.837 388.44 277.146 388.756 276.571C389.071 275.994 389.553 275.517 390.203 275.14H388.544V273.343H403.641V275.14H397.841Z" fill="black"/>
<path d="M395.166 269.825H388.544V268.029H395.097C396.132 268.029 396.909 267.828 397.428 267.425C397.945 267.021 398.203 266.415 398.203 265.607C398.203 264.638 397.894 263.872 397.275 263.31C396.656 262.745 395.812 262.463 394.744 262.463H388.544V260.666H399.481V262.463H397.8C398.465 262.898 398.958 263.405 399.281 263.982C399.604 264.557 399.766 265.225 399.766 265.988C399.766 267.244 399.375 268.198 398.594 268.85C397.812 269.5 396.67 269.825 395.166 269.825Z" fill="black"/>
<path d="M393.562 247.609H394.441V255.872C395.678 255.792 396.621 255.419 397.269 254.753C397.917 254.086 398.241 253.157 398.241 251.965C398.241 251.276 398.156 250.607 397.987 249.959C397.819 249.311 397.565 248.667 397.225 248.028H398.925C399.198 248.674 399.406 249.335 399.55 250.012C399.694 250.689 399.766 251.376 399.766 252.072C399.766 253.817 399.258 255.2 398.244 256.218C397.227 257.237 395.852 257.747 394.119 257.747C392.329 257.747 390.909 257.263 389.859 256.297C388.807 255.33 388.281 254.026 388.281 252.384C388.281 250.913 388.755 249.75 389.703 248.893C390.649 248.037 391.935 247.609 393.562 247.609ZM393.034 249.406C392.053 249.418 391.27 249.693 390.684 250.231C390.097 250.768 389.803 251.48 389.803 252.365C389.803 253.367 390.086 254.169 390.653 254.772C391.22 255.374 392.018 255.721 393.047 255.812L393.034 249.406Z" fill="black"/>
<path d="M392.878 235.567H399.481V237.364H392.937C391.902 237.364 391.128 237.566 390.616 237.97C390.101 238.374 389.844 238.979 389.844 239.786C389.844 240.756 390.153 241.522 390.772 242.082C391.388 242.643 392.231 242.923 393.3 242.923H399.481V244.729H388.544V242.923H390.244C389.585 242.492 389.094 241.986 388.769 241.404C388.444 240.821 388.281 240.148 388.281 239.386C388.281 238.129 388.67 237.179 389.447 236.536C390.224 235.89 391.368 235.567 392.878 235.567Z" fill="black"/>
<path d="M388.962 224.113H390.644C390.362 224.621 390.152 225.131 390.012 225.641C389.873 226.152 389.803 226.667 389.803 227.188C389.803 228.355 390.173 229.261 390.912 229.907C391.65 230.55 392.686 230.872 394.022 230.872C395.357 230.872 396.395 230.55 397.134 229.907C397.872 229.261 398.241 228.355 398.241 227.188C398.241 226.667 398.171 226.152 398.031 225.641C397.892 225.131 397.681 224.621 397.4 224.113H399.062C399.296 224.615 399.471 225.135 399.587 225.672C399.706 226.208 399.766 226.779 399.766 227.385C399.766 229.033 399.248 230.342 398.212 231.313C397.177 232.282 395.78 232.766 394.022 232.766C392.238 232.766 390.836 232.277 389.816 231.297C388.793 230.316 388.281 228.972 388.281 227.266C388.281 226.714 388.338 226.174 388.453 225.647C388.566 225.12 388.735 224.609 388.962 224.113Z" fill="black"/>
<path d="M400.497 216.439C401.799 216.945 402.648 217.44 403.044 217.923C403.442 218.404 403.641 219.048 403.641 219.854V221.292H402.137V220.236C402.137 219.742 402.02 219.359 401.784 219.086C401.551 218.811 400.998 218.507 400.125 218.176L399.306 217.854L388.544 222.276V220.373L397.097 216.954L388.544 213.536V211.632L400.497 216.439Z" fill="black"/>
<mask id="mask11_1238_4123" style="mask-type:luminance" maskUnits="userSpaceOnUse" x="431" y="235" width="87" height="59">
<path d="M517.432 235.565H431.032V293.165H517.432V235.565Z" fill="white"/>
</mask>
<g mask="url(#mask11_1238_4123)">
<path d="M434.96 234.183L434.061 236.947H431.155L433.506 238.656L432.608 241.42L434.96 239.711L437.311 241.42L436.413 238.656L438.764 236.947H435.858L434.96 234.183Z" fill="#C2E5F9" stroke="#C2E5F9" stroke-width="1.33333" stroke-linejoin="bevel"/>
</g>
<mask id="mask12_1238_4123" style="mask-type:luminance" maskUnits="userSpaceOnUse" x="431" y="235" width="87" height="59">
<path d="M517.432 235.565H431.032V293.165H517.432V235.565Z" fill="white"/>
</mask>
<g mask="url(#mask12_1238_4123)">
<path d="M443.687 234.508L442.789 237.272H439.883L442.234 238.98L441.336 241.744L443.687 240.036L446.038 241.744L445.14 238.98L447.491 237.272H444.585L443.687 234.508Z" fill="#C2E5F9" stroke="#C2E5F9" stroke-width="1.33333" stroke-linejoin="bevel"/>
</g>
<mask id="mask13_1238_4123" style="mask-type:luminance" maskUnits="userSpaceOnUse" x="431" y="235" width="87" height="59">
<path d="M517.432 235.565H431.032V293.165H517.432V235.565Z" fill="white"/>
</mask>
<g mask="url(#mask13_1238_4123)">
<path d="M452.414 235.493L451.516 238.257H448.61L450.961 239.965L450.063 242.729L452.414 241.021L454.765 242.729L453.867 239.965L456.218 238.257H453.312L452.414 235.493Z" fill="#94C5E8" stroke="#94C5E8" stroke-width="1.33333" stroke-linejoin="bevel"/>
</g>
<mask id="mask14_1238_4123" style="mask-type:luminance" maskUnits="userSpaceOnUse" x="431" y="235" width="87" height="59">
<path d="M517.432 235.565H431.032V293.165H517.432V235.565Z" fill="white"/>
</mask>
<g mask="url(#mask14_1238_4123)">
<path d="M461.141 237.178L460.243 239.942H457.337L459.688 241.65L458.79 244.414L461.141 242.706L463.493 244.414L462.594 241.65L464.946 239.942H462.039L461.141 237.178Z" fill="#5090C9" stroke="#5090C9" stroke-width="1.33333" stroke-linejoin="bevel"/>
</g>
<mask id="mask15_1238_4123" style="mask-type:luminance" maskUnits="userSpaceOnUse" x="431" y="235" width="87" height="59">
<path d="M517.432 235.565H431.032V293.165H517.432V235.565Z" fill="white"/>
</mask>
<g mask="url(#mask15_1238_4123)">
<path d="M469.869 239.639L468.971 242.403H466.064L468.416 244.112L467.518 246.875L469.869 245.167L472.22 246.875L471.322 244.112L473.673 242.403H470.767L469.869 239.639Z" fill="#0E69A7" stroke="#0E69A7" stroke-width="1.33333" stroke-linejoin="bevel"/>
</g>
<mask id="mask16_1238_4123" style="mask-type:luminance" maskUnits="userSpaceOnUse" x="431" y="235" width="87" height="59">
<path d="M517.432 235.565H431.032V293.165H517.432V235.565Z" fill="white"/>
</mask>
<g mask="url(#mask16_1238_4123)">
<path d="M478.596 243.008L477.698 245.772H474.792L477.143 247.48L476.245 250.244L478.596 248.536L480.947 250.244L480.049 247.48L482.4 245.772H479.494L478.596 243.008Z" fill="#074784" stroke="#074784" stroke-width="1.33333" stroke-linejoin="bevel"/>
</g>
<mask id="mask17_1238_4123" style="mask-type:luminance" maskUnits="userSpaceOnUse" x="431" y="235" width="87" height="59">
<path d="M517.432 235.565H431.032V293.165H517.432V235.565Z" fill="white"/>
</mask>
<g mask="url(#mask17_1238_4123)">
<path d="M487.323 247.518L486.425 250.282H483.519L485.87 251.99L484.972 254.754L487.323 253.045L489.674 254.754L488.776 251.99L491.127 250.282H488.221L487.323 247.518Z" fill="#022851" stroke="#022851" stroke-width="1.33333" stroke-linejoin="bevel"/>
</g>
<mask id="mask18_1238_4123" style="mask-type:luminance" maskUnits="userSpaceOnUse" x="431" y="235" width="87" height="59">
<path d="M517.432 235.565H431.032V293.165H517.432V235.565Z" fill="white"/>
</mask>
<g mask="url(#mask18_1238_4123)">
<path d="M496.05 253.635L495.152 256.398H492.246L494.597 258.107L493.699 260.871L496.05 259.162L498.402 260.871L497.504 258.107L499.855 256.398H496.948L496.05 253.635Z" fill="#4D004D" stroke="#4D004D" stroke-width="1.33333" stroke-linejoin="bevel"/>
</g>
<mask id="mask19_1238_4123" style="mask-type:luminance" maskUnits="userSpaceOnUse" x="431" y="235" width="87" height="59">
<path d="M517.432 235.565H431.032V293.165H517.432V235.565Z" fill="white"/>
</mask>
<g mask="url(#mask19_1238_4123)">
<path d="M504.778 262.558L503.88 265.322H500.974L503.325 267.03L502.427 269.794L504.778 268.086L507.129 269.794L506.231 267.03L508.582 265.322H505.676L504.778 262.558Z" fill="#330033" stroke="#330033" stroke-width="1.33333" stroke-linejoin="bevel"/>
</g>
<mask id="mask20_1238_4123" style="mask-type:luminance" maskUnits="userSpaceOnUse" x="431" y="235" width="87" height="59">
<path d="M517.432 235.565H431.032V293.165H517.432V235.565Z" fill="white"/>
</mask>
<g mask="url(#mask20_1238_4123)">
<path d="M513.505 286.547L512.607 289.311H509.701L512.052 291.019L511.154 293.783L513.505 292.075L515.856 293.783L514.958 291.019L517.309 289.311H514.403L513.505 286.547Z" fill="#190019" stroke="#190019" stroke-width="1.33333" stroke-linejoin="bevel"/>
</g>
<path d="M431.032 293.165V235.565" stroke="black" stroke-width="1.06667" stroke-linecap="square"/>
<path d="M517.432 293.165V235.565" stroke="black" stroke-width="1.06667" stroke-linecap="square"/>
<path d="M431.032 293.165H517.432" stroke="black" stroke-width="1.06667" stroke-linecap="square"/>
<path d="M431.032 235.565H517.432" stroke="black" stroke-width="1.06667" stroke-linecap="square"/>
</svg>
