<svg width="640" height="440" viewBox="0 0 640 440" fill="none" xmlns="http://www.w3.org/2000/svg">
<rect x="0.5" y="0.5" width="639" height="439" fill="#F6F3ED"/>
<rect x="0.5" y="0.5" width="639" height="439" stroke="#E0DBC8"/>
<path d="M129.215 338.52H575.615V48.6001H129.215V338.52Z" fill="white"/>
<path d="M190.087 338.52V343.187V338.52Z" fill="black"/>
<path d="M190.087 338.52V343.187" stroke="black" stroke-width="1.06667"/>
<path d="M180.54 349.769C179.526 349.769 178.762 350.269 178.25 351.269C177.739 352.267 177.484 353.769 177.484 355.775C177.484 357.773 177.739 359.272 178.25 360.272C178.762 361.272 179.526 361.772 180.54 361.772C181.563 361.772 182.33 361.272 182.84 360.272C183.353 359.272 183.609 357.773 183.609 355.775C183.609 353.769 183.353 352.267 182.84 351.269C182.33 350.269 181.563 349.769 180.54 349.769ZM180.54 348.207C182.176 348.207 183.425 348.853 184.287 350.147C185.15 351.439 185.581 353.315 185.581 355.775C185.581 358.23 185.15 360.103 184.287 361.397C183.425 362.689 182.176 363.335 180.54 363.335C178.907 363.335 177.659 362.689 176.797 361.397C175.934 360.103 175.503 358.23 175.503 355.775C175.503 353.315 175.934 351.439 176.797 350.147C177.659 348.853 178.907 348.207 180.54 348.207Z" fill="black"/>
<path d="M189.046 360.569H191.109V363.05H189.046V360.569Z" fill="black"/>
<path d="M199.869 354.975C198.984 354.975 198.282 355.278 197.763 355.885C197.246 356.489 196.988 357.318 196.988 358.372C196.988 359.42 197.246 360.249 197.763 360.86C198.282 361.468 198.984 361.772 199.869 361.772C200.755 361.772 201.456 361.468 201.972 360.86C202.489 360.249 202.747 359.42 202.747 358.372C202.747 357.318 202.489 356.489 201.972 355.885C201.456 355.278 200.755 354.975 199.869 354.975ZM203.785 348.791V350.588C203.289 350.355 202.789 350.176 202.285 350.053C201.781 349.928 201.281 349.866 200.785 349.866C199.483 349.866 198.488 350.306 197.801 351.185C197.115 352.064 196.724 353.392 196.626 355.169C197.009 354.602 197.49 354.168 198.069 353.866C198.651 353.564 199.289 353.413 199.985 353.413C201.45 353.413 202.607 353.858 203.457 354.747C204.307 355.635 204.732 356.843 204.732 358.372C204.732 359.87 204.289 361.072 203.404 361.978C202.518 362.883 201.34 363.335 199.869 363.335C198.182 363.335 196.892 362.689 196.001 361.397C195.109 360.103 194.663 358.23 194.663 355.775C194.663 353.471 195.21 351.634 196.304 350.263C197.397 348.892 198.865 348.207 200.707 348.207C201.203 348.207 201.703 348.256 202.207 348.353C202.711 348.451 203.237 348.597 203.785 348.791Z" fill="black"/>
<path d="M271.251 338.52V343.187V338.52Z" fill="black"/>
<path d="M271.251 338.52V343.187" stroke="black" stroke-width="1.06667"/>
<path d="M352.415 338.52V343.187V338.52Z" fill="black"/>
<path d="M352.415 338.52V343.187" stroke="black" stroke-width="1.06667"/>
<path d="M433.578 338.52V343.187V338.52Z" fill="black"/>
<path d="M433.578 338.52V343.187" stroke="black" stroke-width="1.06667"/>
<path d="M514.742 338.52V343.187V338.52Z" fill="black"/>
<path d="M514.742 338.52V343.187" stroke="black" stroke-width="1.06667"/>
<path d="M501.32 361.391H504.542V350.266L501.036 350.969V349.172L504.523 348.469H506.495V361.391H509.717V363.05H501.32V361.391Z" fill="black"/>
<path d="M513.701 360.569H515.763V363.05H513.701V360.569Z" fill="black"/>
<path d="M525.48 350.188L520.499 357.972H525.48V350.188ZM524.961 348.469H527.443V357.972H529.524V359.613H527.443V363.05H525.48V359.613H518.899V357.71L524.961 348.469Z" fill="black"/>
<path d="M326.079 384.423H330.219L331.282 404.914L340.792 384.423H345.631L347.043 404.914L356.073 384.423H360.257L348.615 409.891H343.725L342.473 388.789L332.737 409.891H327.804L326.079 384.423Z" fill="black" stroke="black"/>
<path d="M370.569 395.883C368.916 395.883 367.671 396.698 366.836 398.328C366.004 399.955 365.588 402.403 365.588 405.673C365.588 408.93 366.004 411.373 366.836 413.003C367.671 414.633 368.916 415.448 370.569 415.448C372.237 415.448 373.486 414.633 374.318 413.003C375.154 411.373 375.571 408.93 375.571 405.673C375.571 402.403 375.154 399.955 374.318 398.328C373.486 396.698 372.237 395.883 370.569 395.883ZM370.569 393.337C373.235 393.337 375.271 394.391 376.677 396.5C378.083 398.605 378.785 401.663 378.785 405.673C378.785 409.674 378.083 412.728 376.677 414.837C375.271 416.942 373.235 417.995 370.569 417.995C367.907 417.995 365.873 416.942 364.467 414.837C363.061 412.728 362.358 409.674 362.358 405.673C362.358 401.663 363.061 398.605 364.467 396.5C365.873 394.391 367.907 393.337 370.569 393.337Z" fill="black" stroke="black"/>
<path d="M129.215 325.342H124.548H129.215Z" fill="black"/>
<path d="M129.215 325.342H124.548" stroke="black" stroke-width="1.06667"/>
<path d="M94.4313 319.659C93.4167 319.659 92.6531 320.159 92.1406 321.159C91.6302 322.157 91.375 323.659 91.375 325.665C91.375 327.663 91.6302 329.162 92.1406 330.162C92.6531 331.162 93.4167 331.662 94.4313 331.662C95.4542 331.662 96.2208 331.162 96.7313 330.162C97.2438 329.162 97.5 327.663 97.5 325.665C97.5 323.659 97.2438 322.157 96.7313 321.159C96.2208 320.159 95.4542 319.659 94.4313 319.659ZM94.4313 318.096C96.0667 318.096 97.3156 318.743 98.1781 320.037C99.0406 321.329 99.4719 323.205 99.4719 325.665C99.4719 328.119 99.0406 329.993 98.1781 331.287C97.3156 332.579 96.0667 333.225 94.4313 333.225C92.7979 333.225 91.55 332.579 90.6875 331.287C89.825 329.993 89.3938 328.119 89.3938 325.665C89.3938 323.205 89.825 321.329 90.6875 320.037C91.55 318.743 92.7979 318.096 94.4313 318.096Z" fill="black"/>
<path d="M102.937 330.459H105V332.94H102.937V330.459Z" fill="black"/>
<path d="M113.513 319.659C112.499 319.659 111.735 320.159 111.223 321.159C110.712 322.157 110.457 323.659 110.457 325.665C110.457 327.663 110.712 329.162 111.223 330.162C111.735 331.162 112.499 331.662 113.513 331.662C114.536 331.662 115.303 331.162 115.813 330.162C116.326 329.162 116.582 327.663 116.582 325.665C116.582 323.659 116.326 322.157 115.813 321.159C115.303 320.159 114.536 319.659 113.513 319.659ZM113.513 318.096C115.149 318.096 116.398 318.743 117.26 320.037C118.123 321.329 118.554 323.205 118.554 325.665C118.554 328.119 118.123 329.993 117.26 331.287C116.398 332.579 115.149 333.225 113.513 333.225C111.88 333.225 110.632 332.579 109.77 331.287C108.907 329.993 108.476 328.119 108.476 325.665C108.476 323.205 108.907 321.329 109.77 320.037C110.632 318.743 111.88 318.096 113.513 318.096Z" fill="black"/>
<path d="M129.215 272.624H124.548H129.215Z" fill="black"/>
<path d="M129.215 272.624H124.548" stroke="black" stroke-width="1.06667"/>
<path d="M129.215 219.906H124.548H129.215Z" fill="black"/>
<path d="M129.215 219.906H124.548" stroke="black" stroke-width="1.06667"/>
<path d="M129.215 167.188H124.548H129.215Z" fill="black"/>
<path d="M129.215 167.188H124.548" stroke="black" stroke-width="1.06667"/>
<path d="M129.215 114.47H124.548H129.215Z" fill="black"/>
<path d="M129.215 114.47H124.548" stroke="black" stroke-width="1.06667"/>
<path d="M129.215 61.7524H124.548H129.215Z" fill="black"/>
<path d="M129.215 61.7524H124.548" stroke="black" stroke-width="1.06667"/>
<path d="M90.5563 67.6915H93.7781V56.5665L90.2719 57.2696V55.4727L93.7594 54.7696H95.7313V67.6915H98.9531V69.3508H90.5563V67.6915Z" fill="black"/>
<path d="M102.937 66.8696H105V69.3508H102.937V66.8696Z" fill="black"/>
<path d="M113.513 56.0696C112.499 56.0696 111.735 56.5696 111.223 57.5696C110.712 58.5675 110.457 60.0696 110.457 62.0759C110.457 64.0738 110.712 65.5728 111.223 66.5728C111.735 67.5728 112.499 68.0728 113.513 68.0728C114.536 68.0728 115.303 67.5728 115.813 66.5728C116.326 65.5728 116.582 64.0738 116.582 62.0759C116.582 60.0696 116.326 58.5675 115.813 57.5696C115.303 56.5696 114.536 56.0696 113.513 56.0696ZM113.513 54.5071C115.149 54.5071 116.398 55.154 117.26 56.4478C118.123 57.7394 118.554 59.6155 118.554 62.0759C118.554 64.53 118.123 66.404 117.26 67.6978C116.398 68.9894 115.149 69.6353 113.513 69.6353C111.88 69.6353 110.632 68.9894 109.77 67.6978C108.907 66.404 108.476 64.53 108.476 62.0759C108.476 59.6155 108.907 57.7394 109.77 56.4478C110.632 55.154 111.88 54.5071 113.513 54.5071Z" fill="black"/>
<mask id="mask0_1238_1420" style="mask-type:luminance" maskUnits="userSpaceOnUse" x="129" y="48" width="447" height="291">
<path d="M575.615 48.6001H129.215V338.52H575.615V48.6001Z" fill="white"/>
</mask>
<g mask="url(#mask0_1238_1420)">
<path d="M149.506 62.2782L194.37 61.9883L237.195 61.9336L257.588 62.1672L265.745 62.4863L271.863 62.9791L275.941 63.5171L280.02 64.3009L284.098 65.414L288.177 66.9536L292.256 69.0272L294.295 70.2993L296.334 71.7471L298.373 73.3843L300.413 75.2238L302.452 77.2777L304.491 79.5568L306.531 82.0703L310.609 87.8285L314.688 94.587L318.766 102.344L322.845 111.058L326.924 120.656L331.002 131.036L335.081 142.078L341.199 159.608L349.356 184.163L367.709 240.064L373.827 257.369L377.906 268.074L381.984 277.927L386.063 286.798L390.141 294.598L394.22 301.291L396.259 304.224L398.299 306.891L400.338 309.3L402.377 311.463L404.416 313.393L406.456 315.106L408.495 316.615L412.574 319.093L416.652 320.953L420.731 322.319L424.809 323.298L428.888 323.983L435.006 324.626L443.163 325.051L455.399 325.282L477.831 325.319L530.852 325.321L555.324 325.309" stroke="#5090C9" stroke-width="2" stroke-linecap="square"/>
</g>
<mask id="mask1_1238_1420" style="mask-type:luminance" maskUnits="userSpaceOnUse" x="129" y="48" width="447" height="291">
<path d="M575.615 48.6001H129.215V338.52H575.615V48.6001Z" fill="white"/>
</mask>
<g mask="url(#mask1_1238_1420)">
<path d="M149.506 324.94L194.37 325.197L239.234 325.231L257.588 325.012L265.745 324.69L271.863 324.193L275.941 323.651L280.02 322.863L284.098 321.746L288.177 320.203L292.256 318.127L294.295 316.854L296.334 315.407L298.373 313.77L300.413 311.933L302.452 309.881L304.491 307.605L306.531 305.096L310.609 299.35L314.688 292.608L318.766 284.87L322.845 276.175L326.924 266.594L331.002 256.224L335.081 245.179L341.199 227.616L349.356 202.982L365.67 153.081L371.788 135.436L375.866 124.386L379.945 114.087L384.024 104.687L388.102 96.3081L392.181 89.0282L394.22 85.8102L396.259 82.8709L398.299 80.2037L400.338 77.7987L402.377 75.643L404.416 73.7216L406.456 72.0179L410.534 69.1941L414.613 67.0362L418.691 65.4219L422.77 64.2475L426.849 63.4231L430.927 62.8665L437.045 62.3667L447.241 61.958L459.477 61.792L555.324 61.7922" stroke="#D75E5E" stroke-width="2" stroke-linecap="square"/>
</g>
<mask id="mask2_1238_1420" style="mask-type:luminance" maskUnits="userSpaceOnUse" x="129" y="48" width="447" height="291">
<path d="M575.615 48.6001H129.215V338.52H575.615V48.6001Z" fill="white"/>
</mask>
<g mask="url(#mask2_1238_1420)">
<path d="M149.506 325.218L326.924 325.186L347.316 325.271L365.67 325.308L386.063 325.274L406.456 325.313L447.241 325.316L481.909 325.341L555.324 325.335" stroke="black" stroke-opacity="0.5" stroke-width="2" stroke-linecap="square"/>
</g>
<mask id="mask3_1238_1420" style="mask-type:luminance" maskUnits="userSpaceOnUse" x="129" y="48" width="447" height="291">
<path d="M575.615 48.6001H129.215V338.52H575.615V48.6001Z" fill="white"/>
</mask>
<g mask="url(#mask3_1238_1420)">
<path d="M149.506 325.342L555.324 325.342" stroke="black" stroke-opacity="0.5" stroke-width="2" stroke-linecap="square"/>
</g>
<path d="M129.215 338.52V48.6001" stroke="black" stroke-width="1.06667" stroke-linecap="square"/>
<path d="M575.615 338.52V48.6001" stroke="black" stroke-width="1.06667" stroke-linecap="square"/>
<path d="M129.215 338.52H575.615" stroke="black" stroke-width="1.06667" stroke-linecap="square"/>
<path d="M129.215 48.6001H575.615" stroke="black" stroke-width="1.06667" stroke-linecap="square"/>
<path d="M36.2094 278.072C36.0974 278.184 35.9454 278.392 35.7534 278.696C35.5614 278.984 35.3774 279.344 35.2014 279.776C35.0254 280.192 34.8734 280.648 34.7454 281.144C34.6014 281.64 34.5294 282.144 34.5294 282.656C34.5294 283.552 34.6974 284.232 35.0334 284.696C35.3694 285.144 35.8414 285.368 36.4494 285.368C36.9134 285.368 37.2814 285.224 37.5534 284.936C37.8254 284.648 38.0574 284.216 38.2494 283.64C38.4414 283.064 38.6494 282.344 38.8734 281.48C39.1454 280.36 39.4814 279.392 39.8814 278.576C40.2654 277.744 40.7774 277.112 41.4174 276.68C42.0414 276.232 42.8734 276.008 43.9134 276.008C44.8254 276.008 45.6094 276.176 46.2654 276.512C46.9054 276.848 47.4254 277.312 47.8254 277.904C48.2254 278.496 48.5214 279.168 48.7134 279.92C48.8894 280.672 48.9774 281.472 48.9774 282.32C48.9774 283.168 48.8894 284.016 48.7134 284.864C48.5374 285.712 48.2894 286.528 47.9694 287.312C47.6334 288.096 47.2334 288.816 46.7694 289.472L43.9134 288.008C44.0574 287.864 44.2494 287.608 44.4894 287.24C44.7134 286.872 44.9454 286.424 45.1854 285.896C45.4094 285.368 45.6014 284.792 45.7614 284.168C45.9214 283.544 46.0014 282.912 46.0014 282.272C46.0014 281.376 45.8494 280.696 45.5454 280.232C45.2414 279.768 44.8094 279.536 44.2494 279.536C43.7374 279.536 43.3374 279.72 43.0494 280.088C42.7614 280.456 42.5134 280.968 42.3054 281.624C42.0814 282.28 41.8414 283.056 41.5854 283.952C41.2814 285.024 40.9454 285.92 40.5774 286.64C40.1934 287.36 39.7134 287.896 39.1374 288.248C38.5614 288.6 37.8414 288.776 36.9774 288.776C35.8094 288.776 34.8334 288.504 34.0494 287.96C33.2494 287.4 32.6494 286.648 32.2494 285.704C31.8334 284.76 31.6254 283.712 31.6254 282.56C31.6254 281.76 31.7134 281.008 31.8894 280.304C32.0654 279.584 32.2974 278.912 32.5854 278.288C32.8734 277.664 33.1854 277.104 33.5214 276.608L36.2094 278.072ZM48.1374 266.562C48.2494 266.834 48.3774 267.162 48.5214 267.546C48.6654 267.93 48.7774 268.346 48.8574 268.794C48.9534 269.226 49.0014 269.666 49.0014 270.114C49.0014 270.706 48.8974 271.25 48.6894 271.746C48.4814 272.242 48.1534 272.642 47.7054 272.946C47.2414 273.234 46.6414 273.378 45.9054 273.378L38.6814 273.378L38.6814 275.034L36.2094 275.034L36.2094 273.378L32.1294 273.378L32.1294 270.162L36.2094 270.162L36.2094 267.522L38.6814 267.522L38.6814 270.162L44.8254 270.162C45.2574 270.146 45.5694 270.026 45.7614 269.802C45.9534 269.578 46.0494 269.298 46.0494 268.962C46.0494 268.626 45.9934 268.298 45.8814 267.978C45.7694 267.658 45.6734 267.402 45.5934 267.21L48.1374 266.562ZM45.0654 265.752C44.2494 265.752 43.5374 265.528 42.9294 265.08C42.3054 264.616 41.8254 263.976 41.4894 263.16C41.1534 262.344 40.9854 261.408 40.9854 260.352C40.9854 259.824 41.0254 259.288 41.1054 258.744C41.1854 258.2 41.3134 257.728 41.4894 257.328L40.8174 257.328C40.0174 257.328 39.4014 257.568 38.9694 258.048C38.5374 258.512 38.3214 259.208 38.3214 260.136C38.3214 260.824 38.4414 261.48 38.6814 262.104C38.9214 262.728 39.2734 263.384 39.7374 264.072L37.6254 265.104C37.0814 264.272 36.6734 263.424 36.4014 262.56C36.1294 261.68 35.9934 260.76 35.9934 259.8C35.9934 258.008 36.4414 256.616 37.3374 255.624C38.2334 254.616 39.5134 254.112 41.1774 254.112L45.1854 254.112C45.5214 254.112 45.7614 254.056 45.9054 253.944C46.0494 253.816 46.1374 253.616 46.1694 253.344L48.7854 253.344C48.8334 253.632 48.8734 253.896 48.9054 254.136C48.9374 254.36 48.9534 254.552 48.9534 254.712C48.9534 255.352 48.8094 255.84 48.5214 256.176C48.2334 256.496 47.8814 256.696 47.4654 256.776L46.8174 256.848C47.5214 257.392 48.0654 258.072 48.4494 258.888C48.8334 259.704 49.0254 260.536 49.0254 261.384C49.0254 262.216 48.8574 262.968 48.5214 263.64C48.1694 264.296 47.6974 264.816 47.1054 265.2C46.4974 265.568 45.8174 265.752 45.0654 265.752ZM45.7134 257.928C45.5214 257.752 45.3294 257.608 45.1374 257.496C44.9454 257.384 44.7694 257.328 44.6094 257.328L43.3374 257.328C43.1774 257.712 43.0574 258.128 42.9774 258.576C42.8814 259.024 42.8334 259.448 42.8334 259.848C42.8334 260.68 43.0174 261.368 43.3854 261.912C43.7374 262.44 44.2094 262.704 44.8014 262.704C45.1214 262.704 45.4254 262.616 45.7134 262.44C46.0014 262.264 46.2334 262.008 46.4094 261.672C46.5854 261.336 46.6734 260.936 46.6734 260.472C46.6734 259.992 46.5854 259.52 46.4094 259.056C46.2174 258.592 45.9854 258.216 45.7134 257.928ZM48.1374 243.687C48.2494 243.959 48.3774 244.287 48.5214 244.671C48.6654 245.055 48.7774 245.471 48.8574 245.919C48.9534 246.351 49.0014 246.791 49.0014 247.239C49.0014 247.831 48.8974 248.375 48.6894 248.871C48.4814 249.367 48.1534 249.767 47.7054 250.071C47.2414 250.359 46.6414 250.503 45.9054 250.503L38.6814 250.503L38.6814 252.159L36.2094 252.159L36.2094 250.503L32.1294 250.503L32.1294 247.287L36.2094 247.287L36.2094 244.647L38.6814 244.647L38.6814 247.287L44.8254 247.287C45.2574 247.271 45.5694 247.151 45.7614 246.927C45.9534 246.703 46.0494 246.423 46.0494 246.087C46.0494 245.751 45.9934 245.423 45.8814 245.103C45.7694 244.783 45.6734 244.527 45.5934 244.335L48.1374 243.687ZM49.0254 236.321C49.0254 237.329 48.8574 238.241 48.5214 239.057C48.1694 239.873 47.6974 240.569 47.1054 241.145C46.4974 241.721 45.8094 242.169 45.0414 242.489C44.2574 242.793 43.4334 242.945 42.5694 242.945C41.3694 242.945 40.2734 242.681 39.2814 242.153C38.2894 241.609 37.4974 240.841 36.9054 239.849C36.2974 238.841 35.9934 237.657 35.9934 236.297C35.9934 234.921 36.2974 233.745 36.9054 232.769C37.4974 231.793 38.2894 231.049 39.2814 230.537C40.2574 230.009 41.3134 229.745 42.4494 229.745C42.6414 229.745 42.8414 229.753 43.0494 229.769C43.2414 229.785 43.4014 229.801 43.5294 229.817L43.5294 239.537C44.1694 239.473 44.7294 239.289 45.2094 238.985C45.6894 238.665 46.0574 238.265 46.3134 237.785C46.5534 237.289 46.6734 236.761 46.6734 236.201C46.6734 235.561 46.5214 234.961 46.2174 234.401C45.8974 233.825 45.4814 233.433 44.9694 233.225L45.7374 230.465C46.3774 230.769 46.9454 231.209 47.4414 231.785C47.9374 232.345 48.3294 233.009 48.6174 233.777C48.8894 234.545 49.0254 235.393 49.0254 236.321ZM41.4894 239.609L41.4894 233.033C40.8494 233.097 40.2974 233.281 39.8334 233.585C39.3534 233.873 38.9854 234.257 38.7294 234.737C38.4574 235.217 38.3214 235.753 38.3214 236.345C38.3214 236.921 38.4574 237.449 38.7294 237.929C38.9854 238.393 39.3534 238.777 39.8334 239.081C40.2974 239.369 40.8494 239.545 41.4894 239.609ZM48.7854 221.708L31.7454 221.708L31.7454 214.484C31.7454 213.7 31.9054 212.98 32.2254 212.324C32.5454 211.668 32.9774 211.1 33.5214 210.62C34.0654 210.124 34.6734 209.74 35.3454 209.468C36.0174 209.196 36.7054 209.06 37.4094 209.06C38.3694 209.06 39.2814 209.284 40.1454 209.732C41.0094 210.18 41.7134 210.796 42.2574 211.58C42.8014 212.364 43.0734 213.292 43.0734 214.364L43.0734 218.396L48.7854 218.396L48.7854 221.708ZM40.1694 218.396L40.1694 214.556C40.1694 214.156 40.0574 213.796 39.8334 213.476C39.6094 213.156 39.2894 212.9 38.8734 212.708C38.4414 212.516 37.9534 212.42 37.4094 212.42C36.8174 212.42 36.3134 212.532 35.8974 212.756C35.4814 212.964 35.1694 213.244 34.9614 213.596C34.7534 213.932 34.6494 214.3 34.6494 214.7L34.6494 218.396L40.1694 218.396ZM38.9934 199.579C38.9934 200.555 39.1854 201.427 39.5694 202.195C39.9374 202.963 40.4734 203.515 41.1774 203.851L48.7854 203.851L48.7854 207.067L36.2094 207.067L36.2094 204.115L38.8974 204.115C38.0334 203.667 37.3534 203.099 36.8574 202.411C36.3614 201.723 36.0894 200.995 36.0414 200.227C36.0414 200.051 36.0414 199.915 36.0414 199.819C36.0414 199.723 36.0494 199.643 36.0654 199.579L38.9934 199.579ZM49.0254 192.142C49.0254 193.166 48.8574 194.086 48.5214 194.902C48.1694 195.718 47.6894 196.414 47.0814 196.99C46.4734 197.55 45.7774 197.982 44.9934 198.286C44.2094 198.59 43.3854 198.742 42.5214 198.742C41.6414 198.742 40.8094 198.59 40.0254 198.286C39.2414 197.982 38.5454 197.55 37.9374 196.99C37.3294 196.414 36.8574 195.718 36.5214 194.902C36.1694 194.086 35.9934 193.166 35.9934 192.142C35.9934 191.118 36.1694 190.206 36.5214 189.406C36.8574 188.59 37.3294 187.894 37.9374 187.318C38.5454 186.742 39.2414 186.31 40.0254 186.022C40.8094 185.718 41.6414 185.566 42.5214 185.566C43.3854 185.566 44.2094 185.718 44.9934 186.022C45.7774 186.31 46.4734 186.742 47.0814 187.318C47.6894 187.878 48.1694 188.566 48.5214 189.382C48.8574 190.198 49.0254 191.118 49.0254 192.142ZM42.5214 195.43C43.2574 195.43 43.9134 195.286 44.4894 194.998C45.0494 194.71 45.4894 194.318 45.8094 193.822C46.1294 193.326 46.2894 192.766 46.2894 192.142C46.2894 191.534 46.1294 190.982 45.8094 190.486C45.4734 189.99 45.0254 189.598 44.4654 189.31C43.8894 189.006 43.2334 188.854 42.4974 188.854C41.7774 188.854 41.1294 189.006 40.5534 189.31C39.9774 189.598 39.5294 189.99 39.2094 190.486C38.8894 190.982 38.7294 191.534 38.7294 192.142C38.7294 192.766 38.8974 193.326 39.2334 193.822C39.5534 194.318 40.0014 194.71 40.5774 194.998C41.1374 195.286 41.7854 195.43 42.5214 195.43ZM49.0254 176.243C49.0254 177.203 48.8094 178.059 48.3774 178.811C47.9454 179.563 47.3534 180.155 46.6014 180.587L48.7854 180.587L48.7854 183.395L31.2654 183.395L31.2654 180.179L38.4174 180.179C37.6654 179.731 37.0734 179.147 36.6414 178.427C36.2094 177.691 35.9934 176.835 35.9934 175.859C35.9934 175.043 36.1694 174.299 36.5214 173.627C36.8574 172.955 37.3294 172.379 37.9374 171.899C38.5454 171.403 39.2414 171.027 40.0254 170.771C40.8094 170.499 41.6494 170.363 42.5454 170.363C43.4414 170.363 44.2814 170.515 45.0654 170.819C45.8494 171.107 46.5454 171.515 47.1534 172.043C47.7454 172.571 48.2094 173.195 48.5454 173.915C48.8654 174.619 49.0254 175.395 49.0254 176.243ZM46.2894 177.131C46.2894 176.619 46.1934 176.155 46.0014 175.739C45.7934 175.307 45.5214 174.939 45.1854 174.635C44.8494 174.315 44.4574 174.075 44.0094 173.915C43.5454 173.739 43.0654 173.651 42.5694 173.651C41.8814 173.651 41.2494 173.795 40.6734 174.083C40.0814 174.355 39.6094 174.739 39.2574 175.235C38.9054 175.715 38.7294 176.283 38.7294 176.939C38.7294 177.403 38.8414 177.851 39.0654 178.283C39.2734 178.699 39.5614 179.075 39.9294 179.411C40.2974 179.731 40.7134 179.987 41.1774 180.179L44.1774 180.179C44.4974 180.083 44.7854 179.931 45.0414 179.723C45.2974 179.499 45.5214 179.243 45.7134 178.955C45.8894 178.667 46.0334 178.371 46.1454 178.067C46.2414 177.747 46.2894 177.435 46.2894 177.131ZM45.0654 169.048C44.2494 169.048 43.5374 168.824 42.9294 168.376C42.3054 167.912 41.8254 167.272 41.4894 166.456C41.1534 165.64 40.9854 164.704 40.9854 163.648C40.9854 163.12 41.0254 162.584 41.1054 162.04C41.1854 161.496 41.3134 161.024 41.4894 160.624L40.8174 160.624C40.0174 160.624 39.4014 160.864 38.9694 161.344C38.5374 161.808 38.3214 162.504 38.3214 163.432C38.3214 164.12 38.4414 164.776 38.6814 165.4C38.9214 166.024 39.2734 166.68 39.7374 167.368L37.6254 168.4C37.0814 167.568 36.6734 166.72 36.4014 165.856C36.1294 164.976 35.9934 164.056 35.9934 163.096C35.9934 161.304 36.4414 159.912 37.3374 158.92C38.2334 157.912 39.5134 157.408 41.1774 157.408L45.1854 157.408C45.5214 157.408 45.7614 157.352 45.9054 157.24C46.0494 157.112 46.1374 156.912 46.1694 156.64L48.7854 156.64C48.8334 156.928 48.8734 157.192 48.9054 157.432C48.9374 157.656 48.9534 157.848 48.9534 158.008C48.9534 158.648 48.8094 159.136 48.5214 159.472C48.2334 159.792 47.8814 159.992 47.4654 160.072L46.8174 160.144C47.5214 160.688 48.0654 161.368 48.4494 162.184C48.8334 163 49.0254 163.832 49.0254 164.68C49.0254 165.512 48.8574 166.264 48.5214 166.936C48.1694 167.592 47.6974 168.112 47.1054 168.496C46.4974 168.864 45.8174 169.048 45.0654 169.048ZM45.7134 161.224C45.5214 161.048 45.3294 160.904 45.1374 160.792C44.9454 160.68 44.7694 160.624 44.6094 160.624L43.3374 160.624C43.1774 161.008 43.0574 161.424 42.9774 161.872C42.8814 162.32 42.8334 162.744 42.8334 163.144C42.8334 163.976 43.0174 164.664 43.3854 165.208C43.7374 165.736 44.2094 166 44.8014 166C45.1214 166 45.4254 165.912 45.7134 165.736C46.0014 165.56 46.2334 165.304 46.4094 164.968C46.5854 164.632 46.6734 164.232 46.6734 163.768C46.6734 163.288 46.5854 162.816 46.4094 162.352C46.2174 161.888 45.9854 161.512 45.7134 161.224ZM49.0254 147.251C49.0254 148.211 48.8094 149.067 48.3774 149.819C47.9454 150.571 47.3534 151.163 46.6014 151.595L48.7854 151.595L48.7854 154.403L31.2654 154.403L31.2654 151.187L38.4174 151.187C37.6654 150.739 37.0734 150.155 36.6414 149.435C36.2094 148.699 35.9934 147.843 35.9934 146.867C35.9934 146.051 36.1694 145.307 36.5214 144.635C36.8574 143.963 37.3294 143.387 37.9374 142.907C38.5454 142.411 39.2414 142.035 40.0254 141.779C40.8094 141.507 41.6494 141.371 42.5454 141.371C43.4414 141.371 44.2814 141.523 45.0654 141.827C45.8494 142.115 46.5454 142.523 47.1534 143.051C47.7454 143.579 48.2094 144.203 48.5454 144.923C48.8654 145.627 49.0254 146.403 49.0254 147.251ZM46.2894 148.139C46.2894 147.627 46.1934 147.163 46.0014 146.747C45.7934 146.315 45.5214 145.947 45.1854 145.643C44.8494 145.323 44.4574 145.083 44.0094 144.923C43.5454 144.747 43.0654 144.659 42.5694 144.659C41.8814 144.659 41.2494 144.803 40.6734 145.091C40.0814 145.363 39.6094 145.747 39.2574 146.243C38.9054 146.723 38.7294 147.291 38.7294 147.947C38.7294 148.411 38.8414 148.859 39.0654 149.291C39.2734 149.707 39.5614 150.083 39.9294 150.419C40.2974 150.739 40.7134 150.995 41.1774 151.187L44.1774 151.187C44.4974 151.091 44.7854 150.939 45.0414 150.731C45.2974 150.507 45.5214 150.251 45.7134 149.963C45.8894 149.675 46.0334 149.379 46.1454 149.075C46.2414 148.755 46.2894 148.443 46.2894 148.139ZM48.7854 139.192L36.2094 139.192L36.2094 135.976L48.7854 135.976L48.7854 139.192ZM34.4574 139.192L31.2654 139.192L31.2654 135.976L34.4574 135.976L34.4574 139.192ZM31.2654 133.099L31.2654 129.883L44.7534 129.883C45.3294 129.883 45.7214 129.787 45.9294 129.595C46.1214 129.403 46.2174 129.139 46.2174 128.803C46.2174 128.547 46.1854 128.283 46.1214 128.011C46.0574 127.739 45.9774 127.499 45.8814 127.291L48.3294 126.859C48.5374 127.291 48.6974 127.795 48.8094 128.371C48.9214 128.947 48.9774 129.467 48.9774 129.931C48.9774 130.939 48.7134 131.723 48.1854 132.283C47.6414 132.827 46.8734 133.099 45.8814 133.099L31.2654 133.099ZM48.7854 125.458L36.2094 125.458L36.2094 122.242L48.7854 122.242L48.7854 125.458ZM34.4574 125.458L31.2654 125.458L31.2654 122.242L34.4574 122.242L34.4574 125.458ZM48.1374 111.805C48.2494 112.077 48.3774 112.405 48.5214 112.789C48.6654 113.173 48.7774 113.589 48.8574 114.037C48.9534 114.469 49.0014 114.909 49.0014 115.357C49.0014 115.949 48.8974 116.493 48.6894 116.989C48.4814 117.485 48.1534 117.885 47.7054 118.189C47.2414 118.477 46.6414 118.621 45.9054 118.621L38.6814 118.621L38.6814 120.277L36.2094 120.277L36.2094 118.621L32.1294 118.621L32.1294 115.405L36.2094 115.405L36.2094 112.765L38.6814 112.765L38.6814 115.405L44.8254 115.405C45.2574 115.389 45.5694 115.269 45.7614 115.045C45.9534 114.821 46.0494 114.541 46.0494 114.205C46.0494 113.869 45.9934 113.541 45.8814 113.221C45.7694 112.901 45.6734 112.645 45.5934 112.453L48.1374 111.805ZM51.2334 109.913C51.2974 109.625 51.3534 109.361 51.4014 109.121C51.4494 108.865 51.4734 108.649 51.4734 108.473C51.4734 108.169 51.3934 107.921 51.2334 107.729C51.0894 107.521 50.8174 107.321 50.4174 107.129C50.0334 106.937 49.4894 106.737 48.7854 106.529L36.2094 111.497L36.2094 108.161L45.4974 104.777L36.2094 101.801L36.2094 98.7286L51.2814 104.009C51.8414 104.201 52.3454 104.497 52.7934 104.897C53.2574 105.281 53.6174 105.769 53.8734 106.361C54.1454 106.937 54.2814 107.585 54.2814 108.305C54.2814 108.561 54.2574 108.817 54.2094 109.073C54.1774 109.329 54.1134 109.609 54.0174 109.913L51.2334 109.913Z" fill="black"/>
</svg>
