<svg width="640" height="440" viewBox="0 0 640 440" fill="none" xmlns="http://www.w3.org/2000/svg">
<rect x="0.5" y="0.5" width="639" height="439" fill="#F6F3ED"/>
<rect x="0.5" y="0.5" width="639" height="439" stroke="#E0DBC8"/>
<path d="M123.429 181.99H326.338V50.2083H123.429V181.99Z" fill="white"/>
<path d="M132.652 181.99V186.657V181.99Z" fill="black"/>
<path d="M132.652 181.99V186.657" stroke="black" stroke-width="1.06667"/>
<path d="M224.884 181.99V186.657V181.99Z" fill="black"/>
<path d="M224.884 181.99V186.657" stroke="black" stroke-width="1.06667"/>
<path d="M317.115 181.99V186.657V181.99Z" fill="black"/>
<path d="M317.115 181.99V186.657" stroke="black" stroke-width="1.06667"/>
<path d="M123.429 176H118.762H123.429Z" fill="black"/>
<path d="M123.429 176H118.762" stroke="black" stroke-width="1.06667"/>
<path d="M88.6457 170.317C87.6311 170.317 86.8676 170.817 86.3551 171.817C85.8447 172.815 85.5895 174.317 85.5895 176.324C85.5895 178.321 85.8447 179.82 86.3551 180.82C86.8676 181.82 87.6311 182.32 88.6457 182.32C89.6686 182.32 90.4353 181.82 90.9457 180.82C91.4582 179.82 91.7145 178.321 91.7145 176.324C91.7145 174.317 91.4582 172.815 90.9457 171.817C90.4353 170.817 89.6686 170.317 88.6457 170.317ZM88.6457 168.755C90.2811 168.755 91.5301 169.402 92.3926 170.695C93.2551 171.987 93.6863 173.863 93.6863 176.324C93.6863 178.778 93.2551 180.652 92.3926 181.945C91.5301 183.237 90.2811 183.883 88.6457 183.883C87.0124 183.883 85.7645 183.237 84.902 181.945C84.0395 180.652 83.6082 178.778 83.6082 176.324C83.6082 173.863 84.0395 171.987 84.902 170.695C85.7645 169.402 87.0124 168.755 88.6457 168.755Z" fill="black"/>
<path d="M97.1516 181.117H99.2141V183.599H97.1516V181.117Z" fill="black"/>
<path d="M107.728 170.317C106.713 170.317 105.95 170.817 105.437 171.817C104.927 172.815 104.671 174.317 104.671 176.324C104.671 178.321 104.927 179.82 105.437 180.82C105.95 181.82 106.713 182.32 107.728 182.32C108.751 182.32 109.517 181.82 110.028 180.82C110.54 179.82 110.796 178.321 110.796 176.324C110.796 174.317 110.54 172.815 110.028 171.817C109.517 170.817 108.751 170.317 107.728 170.317ZM107.728 168.755C109.363 168.755 110.612 169.402 111.475 170.695C112.337 171.987 112.768 173.863 112.768 176.324C112.768 178.778 112.337 180.652 111.475 181.945C110.612 183.237 109.363 183.883 107.728 183.883C106.094 183.883 104.846 183.237 103.984 181.945C103.121 180.652 102.69 178.778 102.69 176.324C102.69 173.863 103.121 171.987 103.984 170.695C104.846 169.402 106.094 168.755 107.728 168.755Z" fill="black"/>
<path d="M123.429 116.099H118.762H123.429Z" fill="black"/>
<path d="M123.429 116.099H118.762" stroke="black" stroke-width="1.06667"/>
<path d="M123.429 56.1985H118.762H123.429Z" fill="black"/>
<path d="M123.429 56.1985H118.762" stroke="black" stroke-width="1.06667"/>
<path d="M84.7707 62.1375H87.9926V51.0125L84.4863 51.7156V49.9187L87.9738 49.2156H89.9457V62.1375H93.1676V63.7969H84.7707V62.1375Z" fill="black"/>
<path d="M97.1516 61.3156H99.2141V63.7969H97.1516V61.3156Z" fill="black"/>
<path d="M107.728 50.5157C106.713 50.5157 105.95 51.0157 105.437 52.0157C104.927 53.0136 104.671 54.5157 104.671 56.5219C104.671 58.5198 104.927 60.0188 105.437 61.0188C105.95 62.0188 106.713 62.5188 107.728 62.5188C108.751 62.5188 109.517 62.0188 110.028 61.0188C110.54 60.0188 110.796 58.5198 110.796 56.5219C110.796 54.5157 110.54 53.0136 110.028 52.0157C109.517 51.0157 108.751 50.5157 107.728 50.5157ZM107.728 48.9532C109.363 48.9532 110.612 49.6 111.475 50.8938C112.337 52.1855 112.768 54.0615 112.768 56.5219C112.768 58.9761 112.337 60.85 111.475 62.1438C110.612 63.4355 109.363 64.0813 107.728 64.0813C106.094 64.0813 104.846 63.4355 103.984 62.1438C103.121 60.85 102.69 58.9761 102.69 56.5219C102.69 54.0615 103.121 52.1855 103.984 50.8938C104.846 49.6 106.094 48.9532 107.728 48.9532Z" fill="black"/>
<mask id="mask0_1238_686" style="mask-type:luminance" maskUnits="userSpaceOnUse" x="123" y="50" width="204" height="132">
<path d="M326.338 50.2083H123.429V181.99H326.338V50.2083Z" fill="white"/>
</mask>
<g mask="url(#mask0_1238_686)">
<path d="M132.652 176L145.63 175.864L150.264 175.56L154.899 174.943L158.607 174.147L162.315 173.034L166.022 171.577L169.73 169.775L173.438 167.647L178.073 164.597L183.634 160.533L197.539 150.123L202.173 147.059L206.808 144.353L211.443 142.038L216.078 140.108L220.712 138.528L225.347 137.239L230.909 135.981L239.251 134.449L253.156 132.263L262.425 131.067L267.987 130.605L272.621 130.459L277.256 130.593L281.891 131.059L285.599 131.696L289.307 132.578L293.941 134.022L298.576 135.825L303.211 137.941L308.773 140.804L317.115 145.474" stroke="black" stroke-opacity="0.5" stroke-width="2" stroke-linecap="square"/>
</g>
<mask id="mask1_1238_686" style="mask-type:luminance" maskUnits="userSpaceOnUse" x="123" y="50" width="204" height="132">
<path d="M326.338 50.2083H123.429V181.99H326.338V50.2083Z" fill="white"/>
</mask>
<g mask="url(#mask1_1238_686)">
<path d="M132.652 176L159.534 175.858L166.949 175.479L172.511 174.889L177.146 174.121L181.781 173.062L186.415 171.696L191.05 170.036L196.612 167.712L204.027 164.232L218.858 157.155L225.347 154.47L230.909 152.521L235.544 151.191L240.178 150.162L244.813 149.46L249.448 149.111L253.156 149.1L256.863 149.336L260.571 149.825L264.279 150.562L268.914 151.818L273.548 153.41L279.11 155.675L287.453 159.494L296.722 163.692L302.284 165.87L306.919 167.363L311.553 168.5L315.261 169.129L317.115 169.346" stroke="black" stroke-opacity="0.5" stroke-width="2" stroke-linecap="square"/>
</g>
<mask id="mask2_1238_686" style="mask-type:luminance" maskUnits="userSpaceOnUse" x="123" y="50" width="204" height="132">
<path d="M326.338 50.2083H123.429V181.99H326.338V50.2083Z" fill="white"/>
</mask>
<g mask="url(#mask2_1238_686)">
<path d="M132.652 176L173.438 175.867L182.707 175.517L190.123 174.943L197.539 174.048L205.881 172.691L227.201 168.961L232.763 168.371L238.324 168.094L242.959 168.136L247.594 168.433L253.156 169.108L259.644 170.244L277.256 173.584L281.891 174.047L286.526 174.17L290.234 173.987L293.941 173.542L297.649 172.838L302.284 171.621L306.919 170.088L313.407 167.575L317.115 166.04" stroke="black" stroke-opacity="0.5" stroke-width="2" stroke-linecap="square"/>
</g>
<mask id="mask3_1238_686" style="mask-type:luminance" maskUnits="userSpaceOnUse" x="123" y="50" width="204" height="132">
<path d="M326.338 50.2083H123.429V181.99H326.338V50.2083Z" fill="white"/>
</mask>
<g mask="url(#mask3_1238_686)">
<path d="M132.652 176L190.123 175.855L204.954 175.455L226.274 174.806L235.544 174.871L245.74 175.269L259.644 175.814L266.133 175.735L271.695 175.367L277.256 174.685L282.818 173.708L290.234 172.058L307.846 167.924L314.334 166.786L317.115 166.4" stroke="black" stroke-opacity="0.5" stroke-width="2" stroke-linecap="square"/>
</g>
<mask id="mask4_1238_686" style="mask-type:luminance" maskUnits="userSpaceOnUse" x="123" y="50" width="204" height="132">
<path d="M326.338 50.2083H123.429V181.99H326.338V50.2083Z" fill="white"/>
</mask>
<g mask="url(#mask4_1238_686)">
<path d="M132.652 176L255.009 175.862L265.206 175.457L293.941 174.05L306.919 173.969L317.115 173.817" stroke="black" stroke-opacity="0.5" stroke-width="2" stroke-linecap="square"/>
</g>
<mask id="mask5_1238_686" style="mask-type:luminance" maskUnits="userSpaceOnUse" x="123" y="50" width="204" height="132">
<path d="M326.338 50.2083H123.429V181.99H326.338V50.2083Z" fill="white"/>
</mask>
<g mask="url(#mask5_1238_686)">
<path d="M132.652 176L285.599 175.857L295.795 175.659L304.138 175.198L312.48 174.414L317.115 173.855" stroke="black" stroke-opacity="0.5" stroke-width="2" stroke-linecap="square"/>
</g>
<mask id="mask6_1238_686" style="mask-type:luminance" maskUnits="userSpaceOnUse" x="123" y="50" width="204" height="132">
<path d="M326.338 50.2083H123.429V181.99H326.338V50.2083Z" fill="white"/>
</mask>
<g mask="url(#mask6_1238_686)">
<path d="M132.652 176L284.672 175.853L301.357 175.417L317.115 174.859" stroke="black" stroke-opacity="0.5" stroke-width="2" stroke-linecap="square"/>
</g>
<mask id="mask7_1238_686" style="mask-type:luminance" maskUnits="userSpaceOnUse" x="123" y="50" width="204" height="132">
<path d="M326.338 50.2083H123.429V181.99H326.338V50.2083Z" fill="white"/>
</mask>
<g mask="url(#mask7_1238_686)">
<path d="M132.652 176L317.115 175.948" stroke="black" stroke-opacity="0.5" stroke-width="2" stroke-linecap="square"/>
</g>
<mask id="mask8_1238_686" style="mask-type:luminance" maskUnits="userSpaceOnUse" x="123" y="50" width="204" height="132">
<path d="M326.338 50.2083H123.429V181.99H326.338V50.2083Z" fill="white"/>
</mask>
<g mask="url(#mask8_1238_686)">
<path d="M132.652 176L312.48 175.855L317.115 175.808" stroke="black" stroke-opacity="0.5" stroke-width="2" stroke-linecap="square"/>
</g>
<mask id="mask9_1238_686" style="mask-type:luminance" maskUnits="userSpaceOnUse" x="123" y="50" width="204" height="132">
<path d="M326.338 50.2083H123.429V181.99H326.338V50.2083Z" fill="white"/>
</mask>
<g mask="url(#mask9_1238_686)">
<path d="M132.652 56.1984L134.506 56.3177L136.36 56.6751L138.214 57.2684L140.068 58.0941L142.849 59.7571L145.63 61.9095L148.41 64.5228L151.191 67.5628L153.972 70.9902L157.68 76.087L161.388 81.6821L166.022 89.1945L174.365 103.448L182.707 117.534L188.269 126.291L192.904 132.999L196.612 137.913L200.319 142.395L204.027 146.432L207.735 150.024L211.443 153.18L215.151 155.92L218.858 158.27L222.566 160.258L226.274 161.917L229.982 163.278L233.69 164.374L238.324 165.413L242.959 166.137L247.594 166.589L253.156 166.829L258.717 166.791L265.206 166.458L272.621 165.775L281.891 164.603L308.773 160.953L316.188 160.334L317.115 160.277" stroke="#5090C9" stroke-width="2" stroke-linecap="square"/>
</g>
<mask id="mask10_1238_686" style="mask-type:luminance" maskUnits="userSpaceOnUse" x="123" y="50" width="204" height="132">
<path d="M326.338 50.2083H123.429V181.99H326.338V50.2083Z" fill="white"/>
</mask>
<g mask="url(#mask10_1238_686)">
<path d="M132.652 176L134.506 175.881L136.36 175.524L138.214 174.935L140.068 174.119L142.849 172.494L145.63 170.427L148.41 167.97L152.118 164.2L156.753 158.936L168.803 144.8L172.511 140.974L176.219 137.627L179 135.485L181.781 133.685L184.561 132.239L187.342 131.151L190.123 130.412L192.904 130.006L195.685 129.909L198.466 130.093L201.246 130.524L204.954 131.417L209.589 132.916L216.078 135.416L226.274 139.356L231.836 141.125L236.47 142.268L241.105 143.066L245.74 143.5L250.375 143.572L255.009 143.302L259.644 142.725L265.206 141.696L271.695 140.165L290.234 135.516L295.795 134.519L300.43 133.956L305.065 133.675L309.699 133.696L314.334 134.027L317.115 134.374" stroke="#D75E5E" stroke-width="2" stroke-linecap="square"/>
</g>
<path d="M123.429 181.99V50.2083" stroke="black" stroke-width="1.06667" stroke-linecap="square"/>
<path d="M326.338 181.99V50.2083" stroke="black" stroke-width="1.06667" stroke-linecap="square"/>
<path d="M123.429 181.99H326.338" stroke="black" stroke-width="1.06667" stroke-linecap="square"/>
<path d="M123.429 50.2083H326.338" stroke="black" stroke-width="1.06667" stroke-linecap="square"/>
<path d="M255.815 61.962L256.574 66.6913L260.113 60.7588H261.447L256.867 68.4151L256.3 71.3267H255.042L255.609 68.4151L254.714 62.6992C254.622 62.126 254.36 61.8395 253.927 61.8395H253.592L253.798 60.7588H254.277C255.174 60.7588 255.686 61.1599 255.815 61.962Z" fill="black"/>
<path d="M260.258 78.0535L260.007 79.2982C259.705 79.0795 259.384 78.9154 259.044 78.806C258.706 78.6967 258.355 78.642 257.99 78.642C257.589 78.642 257.207 78.7127 256.844 78.8542C256.482 78.9956 256.178 79.1961 255.931 79.4557C255.539 79.8524 255.236 80.3176 255.021 80.8513C254.809 81.3836 254.702 81.9349 254.702 82.5051C254.702 83.1934 254.874 83.706 255.218 84.0429C255.563 84.3798 256.085 84.5482 256.787 84.5482C257.132 84.5482 257.5 84.4957 257.889 84.3907C258.28 84.2857 258.687 84.129 259.11 83.9204L258.871 85.1629C258.507 85.3131 258.132 85.4261 257.747 85.502C257.362 85.5778 256.967 85.6157 256.561 85.6157C255.545 85.6157 254.763 85.362 254.216 84.8545C253.67 84.3455 253.396 83.6193 253.396 82.6757C253.396 81.8824 253.538 81.1518 253.823 80.4838C254.107 79.8159 254.53 79.2158 255.091 78.6835C255.474 78.319 255.922 78.0433 256.437 77.8567C256.953 77.67 257.516 77.5767 258.126 77.5767C258.481 77.5767 258.834 77.6168 259.184 77.697C259.536 77.7757 259.894 77.8946 260.258 78.0535Z" fill="black"/>
<path d="M269.353 71.0048H281.872V72.6454H269.353V71.0048ZM269.353 74.9892H281.872V76.6486H269.353V74.9892Z" fill="black"/>
<path d="M294.245 66.8047C293.231 66.8047 292.467 67.3047 291.955 68.3047C291.444 69.3027 291.189 70.8047 291.189 72.811C291.189 74.8089 291.444 76.3079 291.955 77.3079C292.467 78.3079 293.231 78.8079 294.245 78.8079C295.268 78.8079 296.035 78.3079 296.545 77.3079C297.058 76.3079 297.314 74.8089 297.314 72.811C297.314 70.8047 297.058 69.3027 296.545 68.3047C296.035 67.3047 295.268 66.8047 294.245 66.8047ZM294.245 65.2422C295.881 65.2422 297.13 65.8891 297.992 67.1829C298.855 68.4745 299.286 70.3506 299.286 72.811C299.286 75.2652 298.855 77.1391 297.992 78.4329C297.13 79.7245 295.881 80.3704 294.245 80.3704C292.612 80.3704 291.364 79.7245 290.502 78.4329C289.639 77.1391 289.208 75.2652 289.208 72.811C289.208 70.3506 289.639 68.4745 290.502 67.1829C291.364 65.8891 292.612 65.2422 294.245 65.2422Z" fill="black"/>
<path d="M302.751 77.6048H304.814V80.0861H302.751V77.6048Z" fill="black"/>
<path d="M309.13 65.5047H316.874V67.1672H310.937V70.7391C311.222 70.6412 311.507 70.5683 311.793 70.5204C312.08 70.4724 312.368 70.4485 312.655 70.4485C314.282 70.4485 315.571 70.8943 316.521 71.786C317.473 72.6777 317.949 73.8849 317.949 75.4079C317.949 76.9766 317.461 78.1964 316.484 79.0672C315.506 79.936 314.129 80.3704 312.352 80.3704C311.74 80.3704 311.116 80.3183 310.48 80.2141C309.847 80.1099 309.192 79.9537 308.515 79.7454V77.761C309.1 78.0797 309.705 78.3172 310.33 78.4735C310.955 78.6297 311.616 78.7079 312.312 78.7079C313.439 78.7079 314.33 78.412 314.987 77.8204C315.645 77.2287 315.974 76.4245 315.974 75.4079C315.974 74.3933 315.645 73.5902 314.987 72.9985C314.33 72.4047 313.439 72.1079 312.312 72.1079C311.785 72.1079 311.259 72.1662 310.734 72.2829C310.211 72.3995 309.676 72.5818 309.13 72.8297V65.5047Z" fill="black"/>
<path d="M252.553 76.3267V75.0767H260.838V76.3267H252.553Z" fill="black"/>
<path d="M366.92 181.99H569.829V50.2083H366.92V181.99Z" fill="white"/>
<path d="M376.143 181.99V186.657V181.99Z" fill="black"/>
<path d="M376.143 181.99V186.657" stroke="black" stroke-width="1.06667"/>
<path d="M468.375 181.99V186.657V181.99Z" fill="black"/>
<path d="M468.375 181.99V186.657" stroke="black" stroke-width="1.06667"/>
<path d="M560.606 181.99V186.657V181.99Z" fill="black"/>
<path d="M560.606 181.99V186.657" stroke="black" stroke-width="1.06667"/>
<path d="M366.92 176H362.253H366.92Z" fill="black"/>
<path d="M366.92 176H362.253" stroke="black" stroke-width="1.06667"/>
<path d="M366.92 116.099H362.253H366.92Z" fill="black"/>
<path d="M366.92 116.099H362.253" stroke="black" stroke-width="1.06667"/>
<path d="M366.92 56.1985H362.253H366.92Z" fill="black"/>
<path d="M366.92 56.1985H362.253" stroke="black" stroke-width="1.06667"/>
<mask id="mask11_1238_686" style="mask-type:luminance" maskUnits="userSpaceOnUse" x="366" y="50" width="204" height="132">
<path d="M569.829 50.2083H366.92V181.99H569.829V50.2083Z" fill="white"/>
</mask>
<g mask="url(#mask11_1238_686)">
<path d="M376.143 176L389.12 175.866L394.682 175.478L399.317 174.815L403.025 173.997L406.732 172.894L410.44 171.497L414.148 169.821L418.783 167.384L424.344 164.085L442.883 152.697L447.518 150.343L451.226 148.737L454.934 147.421L458.642 146.427L462.349 145.78L466.057 145.493L469.765 145.571L473.473 146.001L477.181 146.76L480.888 147.813L485.523 149.472L491.085 151.822L508.697 159.651L513.332 161.259L517.039 162.264L520.747 162.964L524.455 163.319L528.163 163.298L531.87 162.887L535.578 162.093L539.286 160.945L542.994 159.495L547.629 157.368L560.606 150.941" stroke="black" stroke-opacity="0.5" stroke-width="2" stroke-linecap="square"/>
</g>
<mask id="mask12_1238_686" style="mask-type:luminance" maskUnits="userSpaceOnUse" x="366" y="50" width="204" height="132">
<path d="M569.829 50.2083H366.92V181.99H569.829V50.2083Z" fill="white"/>
</mask>
<g mask="url(#mask12_1238_686)">
<path d="M376.143 176L403.952 175.855L412.294 175.481L419.71 174.849L428.979 173.729L440.103 172.401L445.664 171.999L451.226 171.89L456.788 172.1L463.276 172.687L479.034 174.35L483.669 174.477L488.304 174.296L492.939 173.779L497.573 172.939L503.135 171.589L513.332 168.677L520.747 166.721L527.236 165.324L544.848 161.836L549.483 160.463L554.117 158.746L558.752 156.691L560.606 155.789" stroke="black" stroke-opacity="0.5" stroke-width="2" stroke-linecap="square"/>
</g>
<mask id="mask13_1238_686" style="mask-type:luminance" maskUnits="userSpaceOnUse" x="366" y="50" width="204" height="132">
<path d="M569.829 50.2083H366.92V181.99H569.829V50.2083Z" fill="white"/>
</mask>
<g mask="url(#mask13_1238_686)">
<path d="M376.143 176L426.198 175.855L442.883 175.838L461.422 175.922L467.911 175.581L473.473 174.968L479.034 174.014L484.596 172.723L490.158 171.138L497.573 168.696L515.185 162.697L519.82 161.454L524.455 160.524L528.163 160.063L531.87 159.891L535.578 160.025L539.286 160.464L542.994 161.189L547.629 162.436L553.19 164.282L560.606 166.973" stroke="black" stroke-opacity="0.5" stroke-width="2" stroke-linecap="square"/>
</g>
<mask id="mask14_1238_686" style="mask-type:luminance" maskUnits="userSpaceOnUse" x="366" y="50" width="204" height="132">
<path d="M569.829 50.2083H366.92V181.99H569.829V50.2083Z" fill="white"/>
</mask>
<g mask="url(#mask14_1238_686)">
<path d="M376.143 176L459.568 175.866L495.719 175.317L511.478 175.713L524.455 175.925L543.921 175.841L560.606 175.93" stroke="black" stroke-opacity="0.5" stroke-width="2" stroke-linecap="square"/>
</g>
<mask id="mask15_1238_686" style="mask-type:luminance" maskUnits="userSpaceOnUse" x="366" y="50" width="204" height="132">
<path d="M569.829 50.2083H366.92V181.99H569.829V50.2083Z" fill="white"/>
</mask>
<g mask="url(#mask15_1238_686)">
<path d="M376.143 176L493.866 175.863L522.601 175.551L542.994 175.82L560.606 175.993" stroke="black" stroke-opacity="0.5" stroke-width="2" stroke-linecap="square"/>
</g>
<mask id="mask16_1238_686" style="mask-type:luminance" maskUnits="userSpaceOnUse" x="366" y="50" width="204" height="132">
<path d="M569.829 50.2083H366.92V181.99H569.829V50.2083Z" fill="white"/>
</mask>
<g mask="url(#mask16_1238_686)">
<path d="M376.143 176L560.606 175.984" stroke="black" stroke-opacity="0.5" stroke-width="2" stroke-linecap="square"/>
</g>
<mask id="mask17_1238_686" style="mask-type:luminance" maskUnits="userSpaceOnUse" x="366" y="50" width="204" height="132">
<path d="M569.829 50.2083H366.92V181.99H569.829V50.2083Z" fill="white"/>
</mask>
<g mask="url(#mask17_1238_686)">
<path d="M376.143 176L560.606 175.997" stroke="black" stroke-opacity="0.5" stroke-width="2" stroke-linecap="square"/>
</g>
<mask id="mask18_1238_686" style="mask-type:luminance" maskUnits="userSpaceOnUse" x="366" y="50" width="204" height="132">
<path d="M569.829 50.2083H366.92V181.99H569.829V50.2083Z" fill="white"/>
</mask>
<g mask="url(#mask18_1238_686)">
<path d="M376.143 176L560.606 175.997" stroke="black" stroke-opacity="0.5" stroke-width="2" stroke-linecap="square"/>
</g>
<mask id="mask19_1238_686" style="mask-type:luminance" maskUnits="userSpaceOnUse" x="366" y="50" width="204" height="132">
<path d="M569.829 50.2083H366.92V181.99H569.829V50.2083Z" fill="white"/>
</mask>
<g mask="url(#mask19_1238_686)">
<path d="M376.143 176L560.606 175.997" stroke="black" stroke-opacity="0.5" stroke-width="2" stroke-linecap="square"/>
</g>
<mask id="mask20_1238_686" style="mask-type:luminance" maskUnits="userSpaceOnUse" x="366" y="50" width="204" height="132">
<path d="M569.829 50.2083H366.92V181.99H569.829V50.2083Z" fill="white"/>
</mask>
<g mask="url(#mask20_1238_686)">
<path d="M376.143 56.1984L377.997 56.3177L379.851 56.6751L381.705 57.2684L383.559 58.0941L386.339 59.7569L389.12 61.9085L391.901 64.5197L394.682 67.5549L397.463 70.9728L401.171 76.044L405.805 83.0359L411.367 92.0414L423.417 111.783L428.052 118.777L431.76 123.932L435.468 128.618L439.176 132.789L442.883 136.413L445.664 138.764L448.445 140.801L451.226 142.53L454.007 143.959L456.788 145.104L459.568 145.981L462.349 146.611L466.057 147.108L469.765 147.268L473.473 147.156L478.107 146.737L486.45 145.599L494.793 144.558L500.354 144.199L504.989 144.208L509.624 144.549L514.258 145.252L517.966 146.085L522.601 147.464L527.236 149.201L531.87 151.261L537.432 154.071L547.629 159.675L554.117 163.07L558.752 165.177L560.606 165.914" stroke="#5090C9" stroke-width="2" stroke-linecap="square"/>
</g>
<mask id="mask21_1238_686" style="mask-type:luminance" maskUnits="userSpaceOnUse" x="366" y="50" width="204" height="132">
<path d="M569.829 50.2083H366.92V181.99H569.829V50.2083Z" fill="white"/>
</mask>
<g mask="url(#mask21_1238_686)">
<path d="M376.143 176L377.997 175.881L379.851 175.524L381.705 174.935L383.559 174.119L386.339 172.494L389.12 170.426L391.901 167.968L395.609 164.192L400.244 158.906L415.075 141.405L418.783 137.611L422.491 134.228L426.198 131.287L429.906 128.792L433.614 126.719L437.322 125.027L441.03 123.663L445.664 122.328L450.299 121.305L455.861 120.36L463.276 119.426L470.692 118.811L477.181 118.588L482.742 118.691L488.304 119.087L494.793 119.887L515.185 122.79L519.82 122.992L524.455 122.893L529.09 122.505L535.578 121.607L545.775 120.137L550.409 119.822L554.117 119.862L557.825 120.209L560.606 120.684" stroke="#D75E5E" stroke-width="2" stroke-linecap="square"/>
</g>
<path d="M366.92 181.99V50.2083" stroke="black" stroke-width="1.06667" stroke-linecap="square"/>
<path d="M569.829 181.99V50.2083" stroke="black" stroke-width="1.06667" stroke-linecap="square"/>
<path d="M366.92 181.99H569.829" stroke="black" stroke-width="1.06667" stroke-linecap="square"/>
<path d="M366.92 50.2083H569.829" stroke="black" stroke-width="1.06667" stroke-linecap="square"/>
<path d="M508.529 61.962L509.288 66.6913L512.827 60.7588H514.161L509.581 68.4151L509.014 71.3267H507.756L508.323 68.4151L507.428 62.6992C507.336 62.126 507.074 61.8395 506.641 61.8395H506.306L506.512 60.7588H506.991C507.888 60.7588 508.4 61.1599 508.529 61.962Z" fill="black"/>
<path d="M512.972 78.0535L512.721 79.2982C512.419 79.0795 512.098 78.9154 511.758 78.806C511.42 78.6967 511.069 78.642 510.704 78.642C510.303 78.642 509.921 78.7127 509.558 78.8542C509.196 78.9956 508.892 79.1961 508.646 79.4557C508.253 79.8524 507.95 80.3176 507.736 80.8513C507.523 81.3836 507.416 81.9349 507.416 82.5051C507.416 83.1934 507.588 83.706 507.932 84.0429C508.277 84.3798 508.799 84.5482 509.501 84.5482C509.846 84.5482 510.214 84.4957 510.603 84.3907C510.994 84.2857 511.401 84.129 511.824 83.9204L511.586 85.1629C511.221 85.3131 510.846 85.4261 510.461 85.502C510.076 85.5778 509.681 85.6157 509.276 85.6157C508.259 85.6157 507.477 85.362 506.931 84.8545C506.384 84.3455 506.11 83.6193 506.11 82.6757C506.11 81.8824 506.252 81.1518 506.537 80.4838C506.821 79.8159 507.244 79.2158 507.806 78.6835C508.188 78.319 508.636 78.0433 509.151 77.8567C509.667 77.67 510.23 77.5767 510.84 77.5767C511.195 77.5767 511.548 77.6168 511.898 77.697C512.25 77.7757 512.608 77.8946 512.972 78.0535Z" fill="black"/>
<path d="M522.068 71.0048H534.586V72.6454H522.068V71.0048ZM522.068 74.9892H534.586V76.6486H522.068V74.9892Z" fill="black"/>
<path d="M543.084 78.4267H546.306V67.3017L542.8 68.0048V66.2079L546.287 65.5048H548.259V78.4267H551.481V80.0861H543.084V78.4267Z" fill="black"/>
<path d="M505.267 76.3267V75.0767H513.552V76.3267H505.267Z" fill="black"/>
<path d="M123.429 340.128H326.338V208.346H123.429V340.128Z" fill="white"/>
<path d="M132.652 340.128V344.795V340.128Z" fill="black"/>
<path d="M132.652 340.128V344.795" stroke="black" stroke-width="1.06667"/>
<path d="M123.105 351.377C122.091 351.377 121.327 351.877 120.815 352.877C120.304 353.875 120.049 355.377 120.049 357.384C120.049 359.382 120.304 360.881 120.815 361.881C121.327 362.881 122.091 363.381 123.105 363.381C124.128 363.381 124.895 362.881 125.405 361.881C125.918 360.881 126.174 359.382 126.174 357.384C126.174 355.377 125.918 353.875 125.405 352.877C124.895 351.877 124.128 351.377 123.105 351.377ZM123.105 349.815C124.741 349.815 125.99 350.462 126.852 351.756C127.715 353.047 128.146 354.923 128.146 357.384C128.146 359.838 127.715 361.712 126.852 363.006C125.99 364.297 124.741 364.943 123.105 364.943C121.472 364.943 120.224 364.297 119.362 363.006C118.499 361.712 118.068 359.838 118.068 357.384C118.068 354.923 118.499 353.047 119.362 351.756C120.224 350.462 121.472 349.815 123.105 349.815Z" fill="black"/>
<path d="M131.611 362.177H133.674V364.659H131.611V362.177Z" fill="black"/>
<path d="M142.187 351.377C141.173 351.377 140.409 351.877 139.897 352.877C139.386 353.875 139.131 355.377 139.131 357.384C139.131 359.382 139.386 360.881 139.897 361.881C140.409 362.881 141.173 363.381 142.187 363.381C143.21 363.381 143.977 362.881 144.487 361.881C145 360.881 145.256 359.382 145.256 357.384C145.256 355.377 145 353.875 144.487 352.877C143.977 351.877 143.21 351.377 142.187 351.377ZM142.187 349.815C143.823 349.815 145.072 350.462 145.934 351.756C146.797 353.047 147.228 354.923 147.228 357.384C147.228 359.838 146.797 361.712 145.934 363.006C145.072 364.297 143.823 364.943 142.187 364.943C140.554 364.943 139.306 364.297 138.444 363.006C137.581 361.712 137.15 359.838 137.15 357.384C137.15 354.923 137.581 353.047 138.444 351.756C139.306 350.462 140.554 349.815 142.187 349.815Z" fill="black"/>
<path d="M224.884 340.128V344.795V340.128Z" fill="black"/>
<path d="M224.884 340.128V344.795" stroke="black" stroke-width="1.06667"/>
<path d="M317.115 340.128V344.795V340.128Z" fill="black"/>
<path d="M317.115 340.128V344.795" stroke="black" stroke-width="1.06667"/>
<path d="M303.693 362.999H306.915V351.874L303.409 352.577V350.781L306.896 350.077H308.868V362.999H312.09V364.659H303.693V362.999Z" fill="black"/>
<path d="M316.074 362.177H318.136V364.659H316.074V362.177Z" fill="black"/>
<path d="M326.65 351.377C325.636 351.377 324.872 351.877 324.36 352.877C323.849 353.875 323.594 355.377 323.594 357.384C323.594 359.382 323.849 360.881 324.36 361.881C324.872 362.881 325.636 363.381 326.65 363.381C327.673 363.381 328.44 362.881 328.95 361.881C329.463 360.881 329.719 359.382 329.719 357.384C329.719 355.377 329.463 353.875 328.95 352.877C328.44 351.877 327.673 351.377 326.65 351.377ZM326.65 349.815C328.286 349.815 329.535 350.462 330.397 351.756C331.26 353.047 331.691 354.923 331.691 357.384C331.691 359.838 331.26 361.712 330.397 363.006C329.535 364.297 328.286 364.943 326.65 364.943C325.017 364.943 323.769 364.297 322.906 363.006C322.044 361.712 321.613 359.838 321.613 357.384C321.613 354.923 322.044 353.047 322.906 351.756C323.769 350.462 325.017 349.815 326.65 349.815Z" fill="black"/>
<path d="M123.429 334.138H118.762H123.429Z" fill="black"/>
<path d="M123.429 334.138H118.762" stroke="black" stroke-width="1.06667"/>
<path d="M88.6457 328.456C87.6311 328.456 86.8676 328.956 86.3551 329.956C85.8447 330.954 85.5895 332.456 85.5895 334.462C85.5895 336.46 85.8447 337.959 86.3551 338.959C86.8676 339.959 87.6311 340.459 88.6457 340.459C89.6686 340.459 90.4353 339.959 90.9457 338.959C91.4582 337.959 91.7145 336.46 91.7145 334.462C91.7145 332.456 91.4582 330.954 90.9457 329.956C90.4353 328.956 89.6686 328.456 88.6457 328.456ZM88.6457 326.893C90.2811 326.893 91.5301 327.54 92.3926 328.834C93.2551 330.125 93.6863 332.001 93.6863 334.462C93.6863 336.916 93.2551 338.79 92.3926 340.084C91.5301 341.375 90.2811 342.021 88.6457 342.021C87.0124 342.021 85.7645 341.375 84.902 340.084C84.0395 338.79 83.6082 336.916 83.6082 334.462C83.6082 332.001 84.0395 330.125 84.902 328.834C85.7645 327.54 87.0124 326.893 88.6457 326.893Z" fill="black"/>
<path d="M97.1516 339.256H99.2141V341.737H97.1516V339.256Z" fill="black"/>
<path d="M107.728 328.456C106.713 328.456 105.95 328.956 105.437 329.956C104.927 330.954 104.671 332.456 104.671 334.462C104.671 336.46 104.927 337.959 105.437 338.959C105.95 339.959 106.713 340.459 107.728 340.459C108.751 340.459 109.517 339.959 110.028 338.959C110.54 337.959 110.796 336.46 110.796 334.462C110.796 332.456 110.54 330.954 110.028 329.956C109.517 328.956 108.751 328.456 107.728 328.456ZM107.728 326.893C109.363 326.893 110.612 327.54 111.475 328.834C112.337 330.125 112.768 332.001 112.768 334.462C112.768 336.916 112.337 338.79 111.475 340.084C110.612 341.375 109.363 342.021 107.728 342.021C106.094 342.021 104.846 341.375 103.984 340.084C103.121 338.79 102.69 336.916 102.69 334.462C102.69 332.001 103.121 330.125 103.984 328.834C104.846 327.54 106.094 326.893 107.728 326.893Z" fill="black"/>
<path d="M123.429 274.238H118.762H123.429Z" fill="black"/>
<path d="M123.429 274.238H118.762" stroke="black" stroke-width="1.06667"/>
<path d="M123.429 214.337H118.762H123.429Z" fill="black"/>
<path d="M123.429 214.337H118.762" stroke="black" stroke-width="1.06667"/>
<path d="M84.7707 220.276H87.9926V209.151L84.4863 209.854V208.057L87.9738 207.354H89.9457V220.276H93.1676V221.935H84.7707V220.276Z" fill="black"/>
<path d="M97.1516 219.454H99.2141V221.935H97.1516V219.454Z" fill="black"/>
<path d="M107.728 208.654C106.713 208.654 105.95 209.154 105.437 210.154C104.927 211.152 104.671 212.654 104.671 214.66C104.671 216.658 104.927 218.157 105.437 219.157C105.95 220.157 106.713 220.657 107.728 220.657C108.751 220.657 109.517 220.157 110.028 219.157C110.54 218.157 110.796 216.658 110.796 214.66C110.796 212.654 110.54 211.152 110.028 210.154C109.517 209.154 108.751 208.654 107.728 208.654ZM107.728 207.091C109.363 207.091 110.612 207.738 111.475 209.032C112.337 210.324 112.768 212.2 112.768 214.66C112.768 217.114 112.337 218.988 111.475 220.282C110.612 221.574 109.363 222.219 107.728 222.219C106.094 222.219 104.846 221.574 103.984 220.282C103.121 218.988 102.69 217.114 102.69 214.66C102.69 212.2 103.121 210.324 103.984 209.032C104.846 207.738 106.094 207.091 107.728 207.091Z" fill="black"/>
<mask id="mask22_1238_686" style="mask-type:luminance" maskUnits="userSpaceOnUse" x="123" y="208" width="204" height="133">
<path d="M326.338 208.346H123.429V340.128H326.338V208.346Z" fill="white"/>
</mask>
<g mask="url(#mask22_1238_686)">
<path d="M132.652 334.138L147.483 334.004L160.461 333.795L172.511 334.065L183.634 334.131L251.302 334.094L266.133 334.123L283.745 333.988L294.868 333.792L305.065 333.992L317.115 334.137" stroke="black" stroke-opacity="0.5" stroke-width="2" stroke-linecap="square"/>
</g>
<mask id="mask23_1238_686" style="mask-type:luminance" maskUnits="userSpaceOnUse" x="123" y="208" width="204" height="133">
<path d="M326.338 208.346H123.429V340.128H326.338V208.346Z" fill="white"/>
</mask>
<g mask="url(#mask23_1238_686)">
<path d="M132.652 334.138L317.115 334.138" stroke="black" stroke-opacity="0.5" stroke-width="2" stroke-linecap="square"/>
</g>
<mask id="mask24_1238_686" style="mask-type:luminance" maskUnits="userSpaceOnUse" x="123" y="208" width="204" height="133">
<path d="M326.338 208.346H123.429V340.128H326.338V208.346Z" fill="white"/>
</mask>
<g mask="url(#mask24_1238_686)">
<path d="M132.652 334.138L317.115 334.135" stroke="black" stroke-opacity="0.5" stroke-width="2" stroke-linecap="square"/>
</g>
<mask id="mask25_1238_686" style="mask-type:luminance" maskUnits="userSpaceOnUse" x="123" y="208" width="204" height="133">
<path d="M326.338 208.346H123.429V340.128H326.338V208.346Z" fill="white"/>
</mask>
<g mask="url(#mask25_1238_686)">
<path d="M132.652 334.138L317.115 334.121" stroke="black" stroke-opacity="0.5" stroke-width="2" stroke-linecap="square"/>
</g>
<mask id="mask26_1238_686" style="mask-type:luminance" maskUnits="userSpaceOnUse" x="123" y="208" width="204" height="133">
<path d="M326.338 208.346H123.429V340.128H326.338V208.346Z" fill="white"/>
</mask>
<g mask="url(#mask26_1238_686)">
<path d="M132.652 334.138H317.115" stroke="black" stroke-opacity="0.5" stroke-width="2" stroke-linecap="square"/>
</g>
<mask id="mask27_1238_686" style="mask-type:luminance" maskUnits="userSpaceOnUse" x="123" y="208" width="204" height="133">
<path d="M326.338 208.346H123.429V340.128H326.338V208.346Z" fill="white"/>
</mask>
<g mask="url(#mask27_1238_686)">
<path d="M132.652 334.138H317.115" stroke="black" stroke-opacity="0.5" stroke-width="2" stroke-linecap="square"/>
</g>
<mask id="mask28_1238_686" style="mask-type:luminance" maskUnits="userSpaceOnUse" x="123" y="208" width="204" height="133">
<path d="M326.338 208.346H123.429V340.128H326.338V208.346Z" fill="white"/>
</mask>
<g mask="url(#mask28_1238_686)">
<path d="M132.652 334.138H317.115" stroke="black" stroke-opacity="0.5" stroke-width="2" stroke-linecap="square"/>
</g>
<mask id="mask29_1238_686" style="mask-type:luminance" maskUnits="userSpaceOnUse" x="123" y="208" width="204" height="133">
<path d="M326.338 208.346H123.429V340.128H326.338V208.346Z" fill="white"/>
</mask>
<g mask="url(#mask29_1238_686)">
<path d="M132.652 334.138H317.115" stroke="black" stroke-opacity="0.5" stroke-width="2" stroke-linecap="square"/>
</g>
<mask id="mask30_1238_686" style="mask-type:luminance" maskUnits="userSpaceOnUse" x="123" y="208" width="204" height="133">
<path d="M326.338 208.346H123.429V340.128H326.338V208.346Z" fill="white"/>
</mask>
<g mask="url(#mask30_1238_686)">
<path d="M132.652 334.138H317.115" stroke="black" stroke-opacity="0.5" stroke-width="2" stroke-linecap="square"/>
</g>
<mask id="mask31_1238_686" style="mask-type:luminance" maskUnits="userSpaceOnUse" x="123" y="208" width="204" height="133">
<path d="M326.338 208.346H123.429V340.128H326.338V208.346Z" fill="white"/>
</mask>
<g mask="url(#mask31_1238_686)">
<path d="M132.652 214.337L134.506 214.456L136.36 214.813L138.214 215.406L140.068 216.231L142.849 217.889L145.63 220.022L148.41 222.591L151.191 225.546L154.899 229.999L158.607 234.949L162.315 240.33L166.949 247.633L171.584 255.582L176.219 264.152L182.707 276.921L191.05 293.408L195.685 301.846L199.393 307.92L202.173 311.989L204.954 315.591L207.735 318.697L210.516 321.299L213.297 323.406L216.078 325.047L218.858 326.261L221.639 327.09L224.42 327.567L227.201 327.712L229.982 327.527L232.763 326.993L235.544 326.081L238.324 324.753L241.105 322.973L243.886 320.712L246.667 317.954L249.448 314.698L252.229 310.96L255.009 306.771L258.717 300.566L262.425 293.777L267.987 282.882L278.183 262.767L282.818 254.333L287.453 246.53L292.087 239.34L296.722 232.764L300.43 228.004L304.138 223.787L306.919 221.052L309.699 218.736L312.48 216.884L314.334 215.923L316.188 215.189L317.115 214.91" stroke="#5090C9" stroke-width="2" stroke-linecap="square"/>
</g>
<mask id="mask32_1238_686" style="mask-type:luminance" maskUnits="userSpaceOnUse" x="123" y="208" width="204" height="133">
<path d="M326.338 208.346H123.429V340.128H326.338V208.346Z" fill="white"/>
</mask>
<g mask="url(#mask32_1238_686)">
<path d="M132.652 334.138L134.506 334.019L136.36 333.662L138.214 333.073L140.068 332.257L142.849 330.627L145.63 328.543L148.41 326.042L151.191 323.162L154.899 318.792L158.607 313.879L162.315 308.477L166.022 302.621L170.657 294.694L175.292 286.152L181.781 273.437L191.977 253.337L195.685 246.645L199.393 240.588L202.173 236.552L204.954 232.993L207.735 229.927L210.516 227.351L213.297 225.247L216.078 223.589L218.858 222.346L221.639 221.49L224.42 220.997L227.201 220.853L229.982 221.055L232.763 221.615L235.544 222.552L238.324 223.896L241.105 225.678L243.886 227.923L246.667 230.651L249.448 233.869L252.229 237.573L255.009 241.74L258.717 247.943L262.425 254.745L267.987 265.648L278.183 285.788L282.818 294.322L287.453 302.25L292.087 309.511L295.795 314.815L299.503 319.634L303.211 323.907L305.992 326.704L308.773 329.107L311.553 331.078L314.334 332.581L316.188 333.308L317.115 333.586" stroke="#D75E5E" stroke-width="2" stroke-linecap="square"/>
</g>
<path d="M123.429 340.128V208.346" stroke="black" stroke-width="1.06667" stroke-linecap="square"/>
<path d="M326.338 340.128V208.346" stroke="black" stroke-width="1.06667" stroke-linecap="square"/>
<path d="M123.429 340.128H326.338" stroke="black" stroke-width="1.06667" stroke-linecap="square"/>
<path d="M123.429 208.346H326.338" stroke="black" stroke-width="1.06667" stroke-linecap="square"/>
<path d="M205.153 261.203L205.912 265.933L209.451 260H210.785L206.205 267.656L205.638 270.568H204.38L204.947 267.656L204.052 261.94C203.96 261.367 203.698 261.081 203.265 261.081H202.93L203.136 260H203.615C204.512 260 205.024 260.401 205.153 261.203Z" fill="black"/>
<path d="M209.596 277.295L209.345 278.539C209.043 278.321 208.722 278.157 208.382 278.047C208.044 277.938 207.692 277.883 207.328 277.883C206.927 277.883 206.545 277.954 206.182 278.095C205.82 278.237 205.516 278.437 205.269 278.697C204.877 279.094 204.574 279.559 204.359 280.093C204.147 280.625 204.04 281.176 204.04 281.746C204.04 282.435 204.212 282.947 204.556 283.284C204.9 283.621 205.423 283.789 206.125 283.789C206.47 283.789 206.838 283.737 207.227 283.632C207.618 283.527 208.025 283.37 208.448 283.162L208.209 284.404C207.845 284.554 207.47 284.667 207.085 284.743C206.7 284.819 206.305 284.857 205.899 284.857C204.883 284.857 204.101 284.603 203.554 284.096C203.008 283.587 202.734 282.86 202.734 281.917C202.734 281.124 202.876 280.393 203.161 279.725C203.445 279.057 203.868 278.457 204.429 277.925C204.812 277.56 205.26 277.285 205.775 277.098C206.291 276.911 206.854 276.818 207.464 276.818C207.819 276.818 208.172 276.858 208.522 276.938C208.874 277.017 209.232 277.136 209.596 277.295Z" fill="black"/>
<path d="M218.691 270.246H231.21V271.887H218.691V270.246ZM218.691 274.23H231.21V275.89H218.691V274.23Z" fill="black"/>
<path d="M239.386 264.746H247.13V266.408H241.193V269.98C241.478 269.882 241.763 269.809 242.049 269.762C242.336 269.714 242.624 269.69 242.911 269.69C244.538 269.69 245.827 270.136 246.777 271.027C247.729 271.919 248.205 273.126 248.205 274.649C248.205 276.218 247.717 277.438 246.739 278.308C245.762 279.177 244.385 279.612 242.608 279.612C241.996 279.612 241.372 279.559 240.736 279.455C240.103 279.351 239.448 279.195 238.771 278.987V277.002C239.356 277.321 239.961 277.558 240.586 277.715C241.211 277.871 241.872 277.949 242.568 277.949C243.695 277.949 244.586 277.653 245.243 277.062C245.901 276.47 246.23 275.666 246.23 274.649C246.23 273.634 245.901 272.831 245.243 272.24C244.586 271.646 243.695 271.349 242.568 271.349C242.04 271.349 241.514 271.407 240.989 271.524C240.467 271.641 239.932 271.823 239.386 272.071V264.746Z" fill="black"/>
<path d="M201.891 275.568V274.318H210.176V275.568H201.891Z" fill="black"/>
<path d="M366.92 340.128H569.829V208.346H366.92V340.128Z" fill="white"/>
<path d="M376.143 340.128V344.795V340.128Z" fill="black"/>
<path d="M376.143 340.128V344.795" stroke="black" stroke-width="1.06667"/>
<path d="M366.596 351.377C365.582 351.377 364.818 351.877 364.306 352.877C363.795 353.875 363.54 355.377 363.54 357.384C363.54 359.382 363.795 360.881 364.306 361.881C364.818 362.881 365.582 363.381 366.596 363.381C367.619 363.381 368.386 362.881 368.896 361.881C369.409 360.881 369.665 359.382 369.665 357.384C369.665 355.377 369.409 353.875 368.896 352.877C368.386 351.877 367.619 351.377 366.596 351.377ZM366.596 349.815C368.232 349.815 369.481 350.462 370.343 351.756C371.206 353.047 371.637 354.923 371.637 357.384C371.637 359.838 371.206 361.712 370.343 363.006C369.481 364.297 368.232 364.943 366.596 364.943C364.963 364.943 363.715 364.297 362.852 363.006C361.99 361.712 361.559 359.838 361.559 357.384C361.559 354.923 361.99 353.047 362.852 351.756C363.715 350.462 364.963 349.815 366.596 349.815Z" fill="black"/>
<path d="M375.102 362.177H377.165V364.659H375.102V362.177Z" fill="black"/>
<path d="M385.678 351.377C384.664 351.377 383.9 351.877 383.388 352.877C382.877 353.875 382.622 355.377 382.622 357.384C382.622 359.382 382.877 360.881 383.388 361.881C383.9 362.881 384.664 363.381 385.678 363.381C386.701 363.381 387.468 362.881 387.978 361.881C388.491 360.881 388.747 359.382 388.747 357.384C388.747 355.377 388.491 353.875 387.978 352.877C387.468 351.877 386.701 351.377 385.678 351.377ZM385.678 349.815C387.314 349.815 388.563 350.462 389.425 351.756C390.288 353.047 390.719 354.923 390.719 357.384C390.719 359.838 390.288 361.712 389.425 363.006C388.563 364.297 387.314 364.943 385.678 364.943C384.045 364.943 382.797 364.297 381.934 363.006C381.072 361.712 380.641 359.838 380.641 357.384C380.641 354.923 381.072 353.047 381.934 351.756C382.797 350.462 384.045 349.815 385.678 349.815Z" fill="black"/>
<path d="M468.375 340.128V344.795V340.128Z" fill="black"/>
<path d="M468.375 340.128V344.795" stroke="black" stroke-width="1.06667"/>
<path d="M560.606 340.128V344.795V340.128Z" fill="black"/>
<path d="M560.606 340.128V344.795" stroke="black" stroke-width="1.06667"/>
<path d="M547.184 362.999H550.406V351.874L546.9 352.577V350.781L550.387 350.077H552.359V362.999H555.581V364.659H547.184V362.999Z" fill="black"/>
<path d="M559.565 362.177H561.627V364.659H559.565V362.177Z" fill="black"/>
<path d="M570.141 351.377C569.126 351.377 568.363 351.877 567.85 352.877C567.34 353.875 567.085 355.377 567.085 357.384C567.085 359.382 567.34 360.881 567.85 361.881C568.363 362.881 569.126 363.381 570.141 363.381C571.164 363.381 571.931 362.881 572.441 361.881C572.954 360.881 573.21 359.382 573.21 357.384C573.21 355.377 572.954 353.875 572.441 352.877C571.931 351.877 571.164 351.377 570.141 351.377ZM570.141 349.815C571.776 349.815 573.025 350.462 573.888 351.756C574.75 353.047 575.182 354.923 575.182 357.384C575.182 359.838 574.75 361.712 573.888 363.006C573.025 364.297 571.776 364.943 570.141 364.943C568.508 364.943 567.26 364.297 566.397 363.006C565.535 361.712 565.104 359.838 565.104 357.384C565.104 354.923 565.535 353.047 566.397 351.756C567.26 350.462 568.508 349.815 570.141 349.815Z" fill="black"/>
<path d="M343.216 381.421L342.858 383.261H338.137L336.605 391.082C336.553 391.373 336.515 391.617 336.49 391.815C336.465 392.013 336.453 392.166 336.453 392.276C336.453 392.825 336.618 393.224 336.947 393.474C337.276 393.724 337.806 393.848 338.536 393.848H340.927L340.528 395.828H338.264C336.859 395.828 335.811 395.554 335.119 395.005C334.431 394.456 334.086 393.625 334.086 392.511C334.086 392.313 334.099 392.096 334.123 391.86C334.148 391.624 334.186 391.365 334.238 391.082L335.77 383.261H333.761L334.136 381.421H336.103L336.902 377.33H339.269L338.482 381.421H343.216Z" fill="black" stroke="black"/>
<path d="M356.53 381.973L356.056 384.315C355.488 383.904 354.885 383.595 354.245 383.389C353.609 383.183 352.947 383.08 352.261 383.08C351.507 383.08 350.788 383.214 350.104 383.48C349.424 383.746 348.852 384.123 348.388 384.612C347.65 385.358 347.079 386.233 346.675 387.238C346.275 388.239 346.074 389.277 346.074 390.35C346.074 391.645 346.398 392.61 347.046 393.244C347.693 393.877 348.677 394.194 349.997 394.194C350.648 394.194 351.339 394.096 352.072 393.898C352.807 393.7 353.573 393.405 354.369 393.013L353.92 395.351C353.234 395.634 352.529 395.846 351.804 395.989C351.08 396.132 350.336 396.203 349.573 396.203C347.661 396.203 346.19 395.726 345.161 394.771C344.132 393.813 343.617 392.446 343.617 390.671C343.617 389.178 343.885 387.803 344.42 386.546C344.955 385.289 345.751 384.16 346.807 383.159C347.526 382.473 348.37 381.954 349.339 381.603C350.31 381.251 351.369 381.076 352.516 381.076C353.186 381.076 353.85 381.151 354.509 381.302C355.17 381.45 355.844 381.674 356.53 381.973Z" fill="black" stroke="black"/>
<path d="M338.998 407.964H352.804L352.339 410.331H350.523L348.803 419.181C348.682 419.798 348.702 420.244 348.864 420.519C349.021 420.785 349.334 420.918 349.803 420.918C349.932 420.918 350.091 420.904 350.28 420.877C350.478 420.86 350.607 420.848 350.667 420.84L350.334 422.552C350.016 422.662 349.693 422.743 349.367 422.795C349.032 422.847 348.707 422.873 348.391 422.873C347.362 422.873 346.706 422.595 346.423 422.037C346.138 421.469 346.142 420.431 346.436 418.921L348.107 410.331H342.793L340.455 422.371H338.034L340.377 410.331H338.537L338.998 407.964Z" fill="black" stroke="black"/>
<path d="M332.078 405.612V403.26H356.891V405.612H332.078Z" fill="black" stroke="black"/>
<path d="M366.92 334.138H362.253H366.92Z" fill="black"/>
<path d="M366.92 334.138H362.253" stroke="black" stroke-width="1.06667"/>
<path d="M366.92 274.238H362.253H366.92Z" fill="black"/>
<path d="M366.92 274.238H362.253" stroke="black" stroke-width="1.06667"/>
<path d="M366.92 214.337H362.253H366.92Z" fill="black"/>
<path d="M366.92 214.337H362.253" stroke="black" stroke-width="1.06667"/>
<mask id="mask33_1238_686" style="mask-type:luminance" maskUnits="userSpaceOnUse" x="366" y="208" width="204" height="133">
<path d="M569.829 208.346H366.92V340.128H569.829V208.346Z" fill="white"/>
</mask>
<g mask="url(#mask33_1238_686)">
<path d="M376.143 334.138L560.606 334.114" stroke="black" stroke-opacity="0.5" stroke-width="2" stroke-linecap="square"/>
</g>
<mask id="mask34_1238_686" style="mask-type:luminance" maskUnits="userSpaceOnUse" x="366" y="208" width="204" height="133">
<path d="M569.829 208.346H366.92V340.128H569.829V208.346Z" fill="white"/>
</mask>
<g mask="url(#mask34_1238_686)">
<path d="M376.143 334.138H560.606" stroke="black" stroke-opacity="0.5" stroke-width="2" stroke-linecap="square"/>
</g>
<mask id="mask35_1238_686" style="mask-type:luminance" maskUnits="userSpaceOnUse" x="366" y="208" width="204" height="133">
<path d="M569.829 208.346H366.92V340.128H569.829V208.346Z" fill="white"/>
</mask>
<g mask="url(#mask35_1238_686)">
<path d="M376.143 334.138L560.606 334.138" stroke="black" stroke-opacity="0.5" stroke-width="2" stroke-linecap="square"/>
</g>
<mask id="mask36_1238_686" style="mask-type:luminance" maskUnits="userSpaceOnUse" x="366" y="208" width="204" height="133">
<path d="M569.829 208.346H366.92V340.128H569.829V208.346Z" fill="white"/>
</mask>
<g mask="url(#mask36_1238_686)">
<path d="M376.143 334.138L560.606 334.137" stroke="black" stroke-opacity="0.5" stroke-width="2" stroke-linecap="square"/>
</g>
<mask id="mask37_1238_686" style="mask-type:luminance" maskUnits="userSpaceOnUse" x="366" y="208" width="204" height="133">
<path d="M569.829 208.346H366.92V340.128H569.829V208.346Z" fill="white"/>
</mask>
<g mask="url(#mask37_1238_686)">
<path d="M376.143 334.138H560.606" stroke="black" stroke-opacity="0.5" stroke-width="2" stroke-linecap="square"/>
</g>
<mask id="mask38_1238_686" style="mask-type:luminance" maskUnits="userSpaceOnUse" x="366" y="208" width="204" height="133">
<path d="M569.829 208.346H366.92V340.128H569.829V208.346Z" fill="white"/>
</mask>
<g mask="url(#mask38_1238_686)">
<path d="M376.143 334.138H560.606" stroke="black" stroke-opacity="0.5" stroke-width="2" stroke-linecap="square"/>
</g>
<mask id="mask39_1238_686" style="mask-type:luminance" maskUnits="userSpaceOnUse" x="366" y="208" width="204" height="133">
<path d="M569.829 208.346H366.92V340.128H569.829V208.346Z" fill="white"/>
</mask>
<g mask="url(#mask39_1238_686)">
<path d="M376.143 334.138H560.606" stroke="black" stroke-opacity="0.5" stroke-width="2" stroke-linecap="square"/>
</g>
<mask id="mask40_1238_686" style="mask-type:luminance" maskUnits="userSpaceOnUse" x="366" y="208" width="204" height="133">
<path d="M569.829 208.346H366.92V340.128H569.829V208.346Z" fill="white"/>
</mask>
<g mask="url(#mask40_1238_686)">
<path d="M376.143 334.138H560.606" stroke="black" stroke-opacity="0.5" stroke-width="2" stroke-linecap="square"/>
</g>
<mask id="mask41_1238_686" style="mask-type:luminance" maskUnits="userSpaceOnUse" x="366" y="208" width="204" height="133">
<path d="M569.829 208.346H366.92V340.128H569.829V208.346Z" fill="white"/>
</mask>
<g mask="url(#mask41_1238_686)">
<path d="M376.143 334.138H560.606" stroke="black" stroke-opacity="0.5" stroke-width="2" stroke-linecap="square"/>
</g>
<mask id="mask42_1238_686" style="mask-type:luminance" maskUnits="userSpaceOnUse" x="366" y="208" width="204" height="133">
<path d="M569.829 208.346H366.92V340.128H569.829V208.346Z" fill="white"/>
</mask>
<g mask="url(#mask42_1238_686)">
<path d="M376.143 214.337L377.997 214.456L379.851 214.813L381.705 215.406L383.559 216.229L386.339 217.879L389.12 220.004L391.901 222.586L394.682 225.619L397.463 229.098L400.244 233.005L403.952 238.803L407.659 245.147L413.221 255.374L419.71 267.959L435.468 299.015L439.176 305.494L442.883 311.393L446.591 316.707L450.299 321.448L453.08 324.592L455.861 327.314L458.642 329.543L460.495 330.727L462.349 331.657L464.203 332.329L466.057 332.743L467.911 332.908L469.765 332.834L471.619 332.537L474.4 331.704L477.181 330.433L479.961 328.718L482.742 326.53L485.523 323.841L488.304 320.646L491.085 316.972L493.866 312.87L497.573 306.864L502.208 298.754L507.77 288.41L514.258 275.631L525.382 253.473L530.017 245.025L533.724 238.812L537.432 233.12L541.14 228.017L543.921 224.635L546.702 221.684L549.483 219.203L552.263 217.224L554.117 216.193L555.971 215.394L557.825 214.825L559.679 214.481L560.606 214.394" stroke="#5090C9" stroke-width="2" stroke-linecap="square"/>
</g>
<mask id="mask43_1238_686" style="mask-type:luminance" maskUnits="userSpaceOnUse" x="366" y="208" width="204" height="133">
<path d="M569.829 208.346H366.92V340.128H569.829V208.346Z" fill="white"/>
</mask>
<g mask="url(#mask43_1238_686)">
<path d="M376.143 334.138L377.997 334.019L379.851 333.662L381.705 333.072L383.559 332.255L386.339 330.614L389.12 328.494L391.901 325.908L394.682 322.866L397.463 319.379L400.244 315.47L403.952 309.672L407.659 303.33L413.221 293.118L419.71 280.527L435.468 249.463L439.176 242.992L442.883 237.095L446.591 231.774L450.299 227.03L453.08 223.888L455.861 221.166L458.642 218.934L460.495 217.749L462.349 216.819L464.203 216.15L466.057 215.739L467.911 215.576L469.765 215.649L471.619 215.944L474.4 216.774L477.181 218.048L479.961 219.768L482.742 221.956L485.523 224.64L488.304 227.831L491.085 231.505L493.866 235.609L497.573 241.614L502.208 249.729L507.77 260.083L514.258 272.848L525.382 295.005L530.017 303.465L533.724 309.686L537.432 315.371L541.14 320.463L543.921 323.841L546.702 326.792L549.483 329.273L552.263 331.255L554.117 332.291L555.971 333.097L557.825 333.672L559.679 334.019L560.606 334.106" stroke="#D75E5E" stroke-width="2" stroke-linecap="square"/>
</g>
<path d="M366.92 340.128V208.346" stroke="black" stroke-width="1.06667" stroke-linecap="square"/>
<path d="M569.829 340.128V208.346" stroke="black" stroke-width="1.06667" stroke-linecap="square"/>
<path d="M366.92 340.128H569.829" stroke="black" stroke-width="1.06667" stroke-linecap="square"/>
<path d="M366.92 208.346H569.829" stroke="black" stroke-width="1.06667" stroke-linecap="square"/>
<path d="M441.153 261.203L441.912 265.933L445.451 260H446.785L442.205 267.656L441.638 270.568H440.38L440.947 267.656L440.052 261.94C439.96 261.367 439.698 261.081 439.265 261.081H438.93L439.136 260H439.615C440.512 260 441.024 260.401 441.153 261.203Z" fill="black"/>
<path d="M445.596 277.295L445.345 278.539C445.043 278.321 444.722 278.157 444.382 278.047C444.044 277.938 443.692 277.883 443.328 277.883C442.927 277.883 442.545 277.954 442.182 278.095C441.82 278.237 441.516 278.437 441.269 278.697C440.877 279.094 440.574 279.559 440.359 280.093C440.147 280.625 440.04 281.176 440.04 281.746C440.04 282.435 440.212 282.947 440.556 283.284C440.9 283.621 441.423 283.789 442.125 283.789C442.47 283.789 442.838 283.737 443.227 283.632C443.618 283.527 444.025 283.37 444.448 283.162L444.209 284.404C443.845 284.554 443.47 284.667 443.085 284.743C442.7 284.819 442.305 284.857 441.899 284.857C440.883 284.857 440.101 284.603 439.554 284.096C439.008 283.587 438.734 282.86 438.734 281.917C438.734 281.124 438.876 280.393 439.161 279.725C439.445 279.057 439.868 278.457 440.429 277.925C440.812 277.56 441.26 277.285 441.775 277.098C442.291 276.911 442.854 276.818 443.464 276.818C443.819 276.818 444.172 276.858 444.522 276.938C444.874 277.017 445.232 277.136 445.596 277.295Z" fill="black"/>
<path d="M454.691 270.246H467.21V271.887H454.691V270.246ZM454.691 274.23H467.21V275.89H454.691V274.23Z" fill="black"/>
<path d="M475.708 277.668H478.93V266.543L475.424 267.246V265.449L478.911 264.746H480.883V277.668H484.105V279.327H475.708V277.668Z" fill="black"/>
<path d="M492.308 266.046C491.293 266.046 490.53 266.546 490.017 267.546C489.507 268.544 489.252 270.046 489.252 272.052C489.252 274.05 489.507 275.549 490.017 276.549C490.53 277.549 491.293 278.049 492.308 278.049C493.331 278.049 494.097 277.549 494.608 276.549C495.12 275.549 495.377 274.05 495.377 272.052C495.377 270.046 495.12 268.544 494.608 267.546C494.097 266.546 493.331 266.046 492.308 266.046ZM492.308 264.483C493.943 264.483 495.192 265.13 496.055 266.424C496.917 267.716 497.348 269.592 497.348 272.052C497.348 274.506 496.917 276.38 496.055 277.674C495.192 278.966 493.943 279.612 492.308 279.612C490.674 279.612 489.427 278.966 488.564 277.674C487.702 276.38 487.27 274.506 487.27 272.052C487.27 269.592 487.702 267.716 488.564 266.424C489.427 265.13 490.674 264.483 492.308 264.483Z" fill="black"/>
<path d="M437.891 275.568V274.318H446.176V275.568H437.891Z" fill="black"/>
<path d="M48.891 384.224L31.851 384.224L31.851 377C31.851 376.216 32.011 375.496 32.331 374.84C32.651 374.184 33.083 373.616 33.627 373.136C34.171 372.64 34.779 372.256 35.451 371.984C36.123 371.712 36.811 371.576 37.515 371.576C38.475 371.576 39.387 371.8 40.251 372.248C41.115 372.696 41.819 373.312 42.363 374.096C42.907 374.88 43.179 375.808 43.179 376.88L43.179 380.912L48.891 380.912L48.891 384.224ZM40.275 380.912L40.275 377.072C40.275 376.672 40.163 376.312 39.939 375.992C39.715 375.672 39.395 375.416 38.979 375.224C38.547 375.032 38.059 374.936 37.515 374.936C36.923 374.936 36.419 375.048 36.003 375.272C35.587 375.48 35.275 375.76 35.067 376.112C34.859 376.448 34.755 376.816 34.755 377.216L34.755 380.912L40.275 380.912ZM48.891 357.895L48.891 361.111L41.835 361.111C40.859 361.111 40.131 361.303 39.651 361.687C39.171 362.055 38.931 362.567 38.931 363.223C38.931 363.607 39.043 364.015 39.267 364.447C39.491 364.879 39.803 365.271 40.203 365.623C40.587 365.959 41.035 366.207 41.547 366.367L48.891 366.367L48.891 369.583L31.371 369.583L31.371 366.367L38.643 366.367C37.843 365.903 37.219 365.271 36.771 364.471C36.323 363.671 36.099 362.799 36.099 361.855C36.099 361.039 36.243 360.375 36.531 359.863C36.803 359.351 37.179 358.951 37.659 358.663C38.123 358.375 38.651 358.175 39.243 358.063C39.819 357.951 40.419 357.895 41.043 357.895L48.891 357.895ZM49.131 349.29C49.131 350.314 48.963 351.234 48.627 352.05C48.275 352.866 47.795 353.562 47.187 354.138C46.579 354.698 45.883 355.13 45.099 355.434C44.315 355.738 43.491 355.89 42.627 355.89C41.747 355.89 40.915 355.738 40.131 355.434C39.347 355.13 38.651 354.698 38.043 354.138C37.435 353.562 36.963 352.866 36.627 352.05C36.275 351.234 36.099 350.314 36.099 349.29C36.099 348.266 36.275 347.354 36.627 346.554C36.963 345.738 37.435 345.042 38.043 344.466C38.651 343.89 39.347 343.458 40.131 343.17C40.915 342.866 41.747 342.714 42.627 342.714C43.491 342.714 44.315 342.866 45.099 343.17C45.883 343.458 46.579 343.89 47.187 344.466C47.795 345.026 48.275 345.714 48.627 346.53C48.963 347.346 49.131 348.266 49.131 349.29ZM42.627 352.578C43.363 352.578 44.019 352.434 44.595 352.146C45.155 351.858 45.595 351.466 45.915 350.97C46.235 350.474 46.395 349.914 46.395 349.29C46.395 348.682 46.235 348.13 45.915 347.634C45.579 347.138 45.131 346.746 44.571 346.458C43.995 346.154 43.339 346.002 42.603 346.002C41.883 346.002 41.235 346.154 40.659 346.458C40.083 346.746 39.635 347.138 39.315 347.634C38.995 348.13 38.835 348.682 38.835 349.29C38.835 349.914 39.003 350.474 39.339 350.97C39.659 351.466 40.107 351.858 40.683 352.146C41.243 352.434 41.891 352.578 42.627 352.578ZM48.243 333.195C48.355 333.467 48.483 333.795 48.627 334.179C48.771 334.563 48.883 334.979 48.963 335.427C49.059 335.859 49.107 336.299 49.107 336.747C49.107 337.339 49.003 337.883 48.795 338.379C48.587 338.875 48.259 339.275 47.811 339.579C47.347 339.867 46.747 340.011 46.011 340.011L38.787 340.011L38.787 341.667L36.315 341.667L36.315 340.011L32.235 340.011L32.235 336.795L36.315 336.795L36.315 334.155L38.787 334.155L38.787 336.795L44.931 336.795C45.363 336.779 45.675 336.659 45.867 336.435C46.059 336.211 46.155 335.931 46.155 335.595C46.155 335.259 46.099 334.931 45.987 334.611C45.875 334.291 45.779 334.035 45.699 333.843L48.243 333.195ZM49.131 325.853C49.131 326.877 48.963 327.797 48.627 328.613C48.275 329.429 47.795 330.125 47.187 330.701C46.579 331.261 45.883 331.693 45.099 331.997C44.315 332.301 43.491 332.453 42.627 332.453C41.747 332.453 40.915 332.301 40.131 331.997C39.347 331.693 38.651 331.261 38.043 330.701C37.435 330.125 36.963 329.429 36.627 328.613C36.275 327.797 36.099 326.877 36.099 325.853C36.099 324.829 36.275 323.917 36.627 323.117C36.963 322.301 37.435 321.605 38.043 321.029C38.651 320.453 39.347 320.021 40.131 319.733C40.915 319.429 41.747 319.277 42.627 319.277C43.491 319.277 44.315 319.429 45.099 319.733C45.883 320.021 46.579 320.453 47.187 321.029C47.795 321.589 48.275 322.277 48.627 323.093C48.963 323.909 49.131 324.829 49.131 325.853ZM42.627 329.141C43.363 329.141 44.019 328.997 44.595 328.709C45.155 328.421 45.595 328.029 45.915 327.533C46.235 327.037 46.395 326.477 46.395 325.853C46.395 325.245 46.235 324.693 45.915 324.197C45.579 323.701 45.131 323.309 44.571 323.021C43.995 322.717 43.339 322.565 42.603 322.565C41.883 322.565 41.235 322.717 40.659 323.021C40.083 323.309 39.635 323.701 39.315 324.197C38.995 324.693 38.835 325.245 38.835 325.853C38.835 326.477 39.003 327.037 39.339 327.533C39.659 328.029 40.107 328.421 40.683 328.709C41.243 328.997 41.891 329.141 42.627 329.141ZM48.891 305.418L48.891 308.634L41.835 308.634C40.827 308.634 40.091 308.81 39.627 309.162C39.163 309.514 38.931 310.002 38.931 310.626C38.931 311.058 39.043 311.498 39.267 311.946C39.491 312.378 39.803 312.77 40.203 313.122C40.587 313.474 41.035 313.73 41.547 313.89L48.891 313.89L48.891 317.106L36.315 317.106L36.315 314.202L38.643 314.202C38.099 313.882 37.643 313.474 37.275 312.978C36.891 312.482 36.603 311.914 36.411 311.274C36.203 310.618 36.099 309.93 36.099 309.21C36.099 308.426 36.243 307.786 36.531 307.29C36.803 306.778 37.179 306.394 37.659 306.138C38.123 305.866 38.651 305.682 39.243 305.586C39.835 305.474 40.435 305.418 41.043 305.418L48.891 305.418ZM37.947 293.232L48.891 293.232L48.891 296.544L31.851 296.544L31.851 293.904L43.083 285.096L31.875 285.096L31.875 281.784L48.891 281.784L48.891 284.544L37.947 293.232ZM44.187 278.672L36.315 278.672L36.315 275.456L43.491 275.456C44.451 275.456 45.179 275.28 45.675 274.928C46.155 274.576 46.395 274.056 46.395 273.368C46.395 272.952 46.315 272.544 46.155 272.144C45.979 271.728 45.723 271.352 45.387 271.016C45.051 270.664 44.627 270.368 44.115 270.128L36.315 270.128L36.315 266.912L45.291 266.912C45.627 266.912 45.867 266.856 46.011 266.744C46.155 266.616 46.243 266.416 46.275 266.144L48.891 266.144C48.939 266.464 48.971 266.736 48.987 266.96C49.019 267.168 49.035 267.36 49.035 267.536C49.035 268.112 48.907 268.584 48.651 268.952C48.379 269.304 48.011 269.512 47.547 269.576L46.539 269.648C47.387 270.208 48.035 270.928 48.483 271.808C48.915 272.688 49.131 273.656 49.131 274.712C49.131 276.008 48.715 276.992 47.883 277.664C47.035 278.336 45.803 278.672 44.187 278.672ZM48.891 244.18L48.891 247.396L41.835 247.396C40.843 247.396 40.115 247.572 39.651 247.924C39.171 248.26 38.931 248.732 38.931 249.34C38.931 249.964 39.179 250.564 39.675 251.14C40.155 251.7 40.787 252.1 41.571 252.34L48.891 252.34L48.891 255.556L41.835 255.556C40.827 255.556 40.091 255.732 39.627 256.084C39.163 256.42 38.931 256.892 38.931 257.5C38.931 258.124 39.171 258.724 39.651 259.3C40.131 259.86 40.763 260.26 41.547 260.5L48.891 260.5L48.891 263.716L36.315 263.716L36.315 260.812L38.643 260.812C37.827 260.332 37.203 259.692 36.771 258.892C36.323 258.092 36.099 257.172 36.099 256.132C36.099 255.092 36.355 254.284 36.867 253.708C37.379 253.116 38.011 252.74 38.763 252.58C37.899 252.068 37.243 251.42 36.795 250.636C36.331 249.836 36.099 248.94 36.099 247.948C36.099 247.164 36.243 246.532 36.531 246.052C36.803 245.556 37.179 245.172 37.659 244.9C38.123 244.628 38.651 244.444 39.243 244.348C39.835 244.236 40.435 244.18 41.043 244.18L48.891 244.18ZM49.131 234.228C49.131 235.188 48.915 236.044 48.483 236.796C48.051 237.548 47.459 238.14 46.707 238.572L48.891 238.572L48.891 241.38L31.371 241.38L31.371 238.164L38.523 238.164C37.771 237.716 37.179 237.132 36.747 236.412C36.315 235.676 36.099 234.82 36.099 233.844C36.099 233.028 36.275 232.284 36.627 231.612C36.963 230.94 37.435 230.364 38.043 229.884C38.651 229.388 39.347 229.012 40.131 228.756C40.915 228.484 41.755 228.348 42.651 228.348C43.547 228.348 44.387 228.5 45.171 228.804C45.955 229.092 46.651 229.5 47.259 230.028C47.851 230.556 48.315 231.18 48.651 231.9C48.971 232.604 49.131 233.38 49.131 234.228ZM46.395 235.116C46.395 234.604 46.299 234.14 46.107 233.724C45.899 233.292 45.627 232.924 45.291 232.62C44.955 232.3 44.563 232.06 44.115 231.9C43.651 231.724 43.171 231.636 42.675 231.636C41.987 231.636 41.355 231.78 40.779 232.068C40.187 232.34 39.715 232.724 39.363 233.22C39.011 233.7 38.835 234.268 38.835 234.924C38.835 235.388 38.947 235.836 39.171 236.268C39.379 236.684 39.667 237.06 40.035 237.396C40.403 237.716 40.819 237.972 41.283 238.164L44.283 238.164C44.603 238.068 44.891 237.916 45.147 237.708C45.403 237.484 45.627 237.228 45.819 236.94C45.995 236.652 46.139 236.356 46.251 236.052C46.347 235.732 46.395 235.42 46.395 235.116ZM49.131 220.337C49.131 221.345 48.963 222.257 48.627 223.073C48.275 223.889 47.803 224.585 47.211 225.161C46.603 225.737 45.915 226.185 45.147 226.505C44.363 226.809 43.539 226.961 42.675 226.961C41.475 226.961 40.379 226.697 39.387 226.169C38.395 225.625 37.603 224.857 37.011 223.865C36.403 222.857 36.099 221.673 36.099 220.313C36.099 218.937 36.403 217.761 37.011 216.785C37.603 215.809 38.395 215.065 39.387 214.553C40.363 214.025 41.419 213.761 42.555 213.761C42.747 213.761 42.947 213.769 43.155 213.785C43.347 213.801 43.507 213.817 43.635 213.833L43.635 223.553C44.275 223.489 44.835 223.305 45.315 223.001C45.795 222.681 46.163 222.281 46.419 221.801C46.659 221.305 46.779 220.777 46.779 220.217C46.779 219.577 46.627 218.977 46.323 218.417C46.003 217.841 45.587 217.449 45.075 217.241L45.843 214.481C46.483 214.785 47.051 215.225 47.547 215.801C48.043 216.361 48.435 217.025 48.723 217.793C48.995 218.561 49.131 219.409 49.131 220.337ZM41.595 223.625L41.595 217.049C40.955 217.113 40.403 217.297 39.939 217.601C39.459 217.889 39.091 218.273 38.835 218.753C38.563 219.233 38.427 219.769 38.427 220.361C38.427 220.937 38.563 221.465 38.835 221.945C39.091 222.409 39.459 222.793 39.939 223.097C40.403 223.385 40.955 223.561 41.595 223.625ZM39.099 204.314C39.099 205.29 39.291 206.162 39.675 206.93C40.043 207.698 40.579 208.25 41.283 208.586L48.891 208.586L48.891 211.802L36.315 211.802L36.315 208.85L39.003 208.85C38.139 208.402 37.459 207.834 36.963 207.146C36.467 206.458 36.195 205.73 36.147 204.962C36.147 204.786 36.147 204.65 36.147 204.554C36.147 204.458 36.155 204.378 36.171 204.314L39.099 204.314ZM48.891 196.982L31.851 196.982L31.851 189.758C31.851 188.974 32.011 188.254 32.331 187.598C32.651 186.942 33.083 186.374 33.627 185.894C34.171 185.398 34.779 185.014 35.451 184.742C36.123 184.47 36.811 184.334 37.515 184.334C38.475 184.334 39.387 184.558 40.251 185.006C41.115 185.454 41.819 186.07 42.363 186.854C42.907 187.638 43.179 188.566 43.179 189.638L43.179 193.67L48.891 193.67L48.891 196.982ZM40.275 193.67L40.275 189.83C40.275 189.43 40.163 189.07 39.939 188.75C39.715 188.43 39.395 188.174 38.979 187.982C38.547 187.79 38.059 187.694 37.515 187.694C36.923 187.694 36.419 187.806 36.003 188.03C35.587 188.238 35.275 188.518 35.067 188.87C34.859 189.206 34.755 189.574 34.755 189.974L34.755 193.67L40.275 193.67ZM39.099 174.853C39.099 175.829 39.291 176.701 39.675 177.469C40.043 178.237 40.579 178.789 41.283 179.125L48.891 179.125L48.891 182.341L36.315 182.341L36.315 179.389L39.003 179.389C38.139 178.941 37.459 178.373 36.963 177.685C36.467 176.997 36.195 176.269 36.147 175.501C36.147 175.325 36.147 175.189 36.147 175.093C36.147 174.997 36.155 174.917 36.171 174.853L39.099 174.853ZM49.131 167.415C49.131 168.439 48.963 169.359 48.627 170.175C48.275 170.991 47.795 171.687 47.187 172.263C46.579 172.823 45.883 173.255 45.099 173.559C44.315 173.863 43.491 174.015 42.627 174.015C41.747 174.015 40.915 173.863 40.131 173.559C39.347 173.255 38.651 172.823 38.043 172.263C37.435 171.687 36.963 170.991 36.627 170.175C36.275 169.359 36.099 168.439 36.099 167.415C36.099 166.391 36.275 165.479 36.627 164.679C36.963 163.863 37.435 163.167 38.043 162.591C38.651 162.015 39.347 161.583 40.131 161.295C40.915 160.991 41.747 160.839 42.627 160.839C43.491 160.839 44.315 160.991 45.099 161.295C45.883 161.583 46.579 162.015 47.187 162.591C47.795 163.151 48.275 163.839 48.627 164.655C48.963 165.471 49.131 166.391 49.131 167.415ZM42.627 170.703C43.363 170.703 44.019 170.559 44.595 170.271C45.155 169.983 45.595 169.591 45.915 169.095C46.235 168.599 46.395 168.039 46.395 167.415C46.395 166.807 46.235 166.255 45.915 165.759C45.579 165.263 45.131 164.871 44.571 164.583C43.995 164.279 43.339 164.127 42.603 164.127C41.883 164.127 41.235 164.279 40.659 164.583C40.083 164.871 39.635 165.263 39.315 165.759C38.995 166.255 38.835 166.807 38.835 167.415C38.835 168.039 39.003 168.599 39.339 169.095C39.659 169.591 40.107 169.983 40.683 170.271C41.243 170.559 41.891 170.703 42.627 170.703ZM49.131 151.517C49.131 152.477 48.915 153.333 48.483 154.085C48.051 154.837 47.459 155.429 46.707 155.861L48.891 155.861L48.891 158.669L31.371 158.669L31.371 155.453L38.523 155.453C37.771 155.005 37.179 154.421 36.747 153.701C36.315 152.965 36.099 152.109 36.099 151.133C36.099 150.317 36.275 149.573 36.627 148.901C36.963 148.229 37.435 147.653 38.043 147.173C38.651 146.677 39.347 146.301 40.131 146.045C40.915 145.773 41.755 145.637 42.651 145.637C43.547 145.637 44.387 145.789 45.171 146.093C45.955 146.381 46.651 146.789 47.259 147.317C47.851 147.845 48.315 148.469 48.651 149.189C48.971 149.893 49.131 150.669 49.131 151.517ZM46.395 152.405C46.395 151.893 46.299 151.429 46.107 151.013C45.899 150.581 45.627 150.213 45.291 149.909C44.955 149.589 44.563 149.349 44.115 149.189C43.651 149.013 43.171 148.925 42.675 148.925C41.987 148.925 41.355 149.069 40.779 149.357C40.187 149.629 39.715 150.013 39.363 150.509C39.011 150.989 38.835 151.557 38.835 152.213C38.835 152.677 38.947 153.125 39.171 153.557C39.379 153.973 39.667 154.349 40.035 154.685C40.403 155.005 40.819 155.261 41.283 155.453L44.283 155.453C44.603 155.357 44.891 155.205 45.147 154.997C45.403 154.773 45.627 154.517 45.819 154.229C45.995 153.941 46.139 153.645 46.251 153.341C46.347 153.021 46.395 152.709 46.395 152.405ZM45.171 144.322C44.355 144.322 43.643 144.098 43.035 143.65C42.411 143.186 41.931 142.546 41.595 141.73C41.259 140.914 41.091 139.978 41.091 138.922C41.091 138.394 41.131 137.858 41.211 137.314C41.291 136.77 41.419 136.298 41.595 135.898L40.923 135.898C40.123 135.898 39.507 136.138 39.075 136.618C38.643 137.082 38.427 137.778 38.427 138.706C38.427 139.394 38.547 140.05 38.787 140.674C39.027 141.298 39.379 141.954 39.843 142.642L37.731 143.674C37.187 142.842 36.779 141.994 36.507 141.13C36.235 140.25 36.099 139.33 36.099 138.37C36.099 136.578 36.547 135.186 37.443 134.194C38.339 133.186 39.619 132.682 41.283 132.682L45.291 132.682C45.627 132.682 45.867 132.626 46.011 132.514C46.155 132.386 46.243 132.186 46.275 131.914L48.891 131.914C48.939 132.202 48.979 132.466 49.011 132.706C49.043 132.93 49.059 133.122 49.059 133.282C49.059 133.922 48.915 134.41 48.627 134.746C48.339 135.066 47.987 135.266 47.571 135.346L46.923 135.418C47.627 135.962 48.171 136.642 48.555 137.458C48.939 138.274 49.131 139.106 49.131 139.954C49.131 140.786 48.963 141.538 48.627 142.21C48.275 142.866 47.803 143.386 47.211 143.77C46.603 144.138 45.923 144.322 45.171 144.322ZM45.819 136.498C45.627 136.322 45.435 136.178 45.243 136.066C45.051 135.954 44.875 135.898 44.715 135.898L43.443 135.898C43.283 136.282 43.163 136.698 43.083 137.146C42.987 137.594 42.939 138.018 42.939 138.418C42.939 139.25 43.123 139.938 43.491 140.482C43.843 141.01 44.315 141.274 44.907 141.274C45.227 141.274 45.531 141.186 45.819 141.01C46.107 140.834 46.339 140.578 46.515 140.242C46.691 139.906 46.779 139.506 46.779 139.042C46.779 138.562 46.691 138.09 46.515 137.626C46.323 137.162 46.091 136.786 45.819 136.498ZM49.131 122.525C49.131 123.485 48.915 124.341 48.483 125.093C48.051 125.845 47.459 126.437 46.707 126.869L48.891 126.869L48.891 129.677L31.371 129.677L31.371 126.461L38.523 126.461C37.771 126.013 37.179 125.429 36.747 124.709C36.315 123.973 36.099 123.117 36.099 122.141C36.099 121.325 36.275 120.581 36.627 119.909C36.963 119.237 37.435 118.661 38.043 118.181C38.651 117.685 39.347 117.309 40.131 117.053C40.915 116.781 41.755 116.645 42.651 116.645C43.547 116.645 44.387 116.797 45.171 117.101C45.955 117.389 46.651 117.797 47.259 118.325C47.851 118.853 48.315 119.477 48.651 120.197C48.971 120.901 49.131 121.677 49.131 122.525ZM46.395 123.413C46.395 122.901 46.299 122.437 46.107 122.021C45.899 121.589 45.627 121.221 45.291 120.917C44.955 120.597 44.563 120.357 44.115 120.197C43.651 120.021 43.171 119.933 42.675 119.933C41.987 119.933 41.355 120.077 40.779 120.365C40.187 120.637 39.715 121.021 39.363 121.517C39.011 121.997 38.835 122.565 38.835 123.221C38.835 123.685 38.947 124.133 39.171 124.565C39.379 124.981 39.667 125.357 40.035 125.693C40.403 126.013 40.819 126.269 41.283 126.461L44.283 126.461C44.603 126.365 44.891 126.213 45.147 126.005C45.403 125.781 45.627 125.525 45.819 125.237C45.995 124.949 46.139 124.653 46.251 124.349C46.347 124.029 46.395 123.717 46.395 123.413ZM48.891 114.466L36.315 114.466L36.315 111.25L48.891 111.25L48.891 114.466ZM34.563 114.466L31.371 114.466L31.371 111.25L34.563 111.25L34.563 114.466ZM31.371 108.372L31.371 105.156L44.859 105.156C45.435 105.156 45.827 105.06 46.035 104.868C46.227 104.676 46.323 104.412 46.323 104.076C46.323 103.82 46.291 103.556 46.227 103.284C46.163 103.012 46.083 102.772 45.987 102.564L48.435 102.132C48.643 102.564 48.803 103.068 48.915 103.644C49.027 104.22 49.083 104.74 49.083 105.204C49.083 106.212 48.819 106.996 48.291 107.556C47.747 108.1 46.979 108.372 45.987 108.372L31.371 108.372ZM48.891 100.731L36.315 100.731L36.315 97.5153L48.891 97.5153L48.891 100.731ZM34.563 100.731L31.371 100.731L31.371 97.5153L34.563 97.5153L34.563 100.731ZM48.243 87.0781C48.355 87.3501 48.483 87.6781 48.627 88.0621C48.771 88.4461 48.883 88.8621 48.963 89.3101C49.059 89.7421 49.107 90.1821 49.107 90.6301C49.107 91.2221 49.003 91.7661 48.795 92.2621C48.587 92.7581 48.259 93.1581 47.811 93.4621C47.347 93.7501 46.747 93.8941 46.011 93.8941L38.787 93.8941L38.787 95.5501L36.315 95.5501L36.315 93.8941L32.235 93.8941L32.235 90.6781L36.315 90.6781L36.315 88.0381L38.787 88.0381L38.787 90.6781L44.931 90.6781C45.363 90.6621 45.675 90.5421 45.867 90.3181C46.059 90.0941 46.155 89.8141 46.155 89.4781C46.155 89.1421 46.099 88.8141 45.987 88.4941C45.875 88.1741 45.779 87.9181 45.699 87.7261L48.243 87.0781ZM48.891 85.4032L36.315 85.4032L36.315 82.1872L48.891 82.1872L48.891 85.4032ZM34.563 85.4032L31.371 85.4032L31.371 82.1872L34.563 82.1872L34.563 85.4032ZM49.131 73.454C49.131 74.462 48.963 75.374 48.627 76.19C48.275 77.006 47.803 77.702 47.211 78.278C46.603 78.854 45.915 79.302 45.147 79.622C44.363 79.926 43.539 80.078 42.675 80.078C41.475 80.078 40.379 79.814 39.387 79.286C38.395 78.742 37.603 77.974 37.011 76.982C36.403 75.974 36.099 74.79 36.099 73.43C36.099 72.054 36.403 70.878 37.011 69.902C37.603 68.926 38.395 68.182 39.387 67.67C40.363 67.142 41.419 66.878 42.555 66.878C42.747 66.878 42.947 66.886 43.155 66.902C43.347 66.918 43.507 66.934 43.635 66.95L43.635 76.67C44.275 76.606 44.835 76.422 45.315 76.118C45.795 75.798 46.163 75.398 46.419 74.918C46.659 74.422 46.779 73.894 46.779 73.334C46.779 72.694 46.627 72.094 46.323 71.534C46.003 70.958 45.587 70.566 45.075 70.358L45.843 67.598C46.483 67.902 47.051 68.342 47.547 68.918C48.043 69.478 48.435 70.142 48.723 70.91C48.995 71.678 49.131 72.526 49.131 73.454ZM41.595 76.742L41.595 70.166C40.955 70.23 40.403 70.414 39.939 70.718C39.459 71.006 39.091 71.39 38.835 71.87C38.563 72.35 38.427 72.886 38.427 73.478C38.427 74.054 38.563 74.582 38.835 75.062C39.091 75.526 39.459 75.91 39.939 76.214C40.403 76.502 40.955 76.678 41.595 76.742ZM49.131 60.2868C49.131 61.3588 48.955 62.3828 48.603 63.3588C48.251 64.3348 47.731 65.1748 47.043 65.8788L44.955 64.7268C45.563 63.9748 46.011 63.2388 46.299 62.5188C46.587 61.7828 46.731 61.0788 46.731 60.4068C46.731 59.7828 46.619 59.2868 46.395 58.9188C46.171 58.5348 45.835 58.3428 45.387 58.3428C45.083 58.3428 44.851 58.4468 44.691 58.6548C44.515 58.8628 44.363 59.1668 44.235 59.5668C44.107 59.9508 43.963 60.4228 43.803 60.9828C43.499 61.9108 43.203 62.6868 42.915 63.3108C42.627 63.9348 42.267 64.4068 41.835 64.7268C41.387 65.0308 40.819 65.1828 40.131 65.1828C39.299 65.1828 38.587 64.9748 37.995 64.5588C37.387 64.1268 36.915 63.5348 36.579 62.7828C36.243 62.0148 36.075 61.1188 36.075 60.0948C36.075 59.1988 36.219 58.3508 36.507 57.5508C36.779 56.7508 37.227 56.0228 37.851 55.3668L39.891 56.6628C39.395 57.3028 39.035 57.9108 38.811 58.4868C38.571 59.0628 38.451 59.6468 38.451 60.2388C38.451 60.5748 38.491 60.8948 38.571 61.1988C38.651 61.4868 38.787 61.7268 38.979 61.9188C39.155 62.0948 39.411 62.1828 39.747 62.1828C40.051 62.1828 40.291 62.1028 40.467 61.9428C40.627 61.7668 40.771 61.5108 40.899 61.1748C41.027 60.8228 41.171 60.3988 41.331 59.9028C41.619 58.8948 41.915 58.0468 42.219 57.3588C42.523 56.6548 42.899 56.1268 43.347 55.7748C43.779 55.4228 44.379 55.2468 45.147 55.2468C46.395 55.2468 47.371 55.7028 48.075 56.6148C48.779 57.5268 49.131 58.7508 49.131 60.2868Z" fill="black"/>
</svg>
